<svg width="338" height="78" viewBox="0 0 338 78" fill="none" xmlns="http://www.w3.org/2000/svg">
<rect x="33" y="30" width="272" height="47" rx="10" fill="#3C4BC4"/>
<path d="M36 13L33 38L305 40L301 13L215 29.5H124.5L36 13Z" fill="#3C4BC4"/>
<path d="M33 37.9998L36.5 13.5C36.5 13.5 41.5 60 44 67C45.5317 71.2889 50 76.9998 50 76.9998H43C37.4772 76.9998 33 72.5227 33 66.9998V37.9998Z" fill="#2533A9"/>
<path d="M305 37.9998L300.5 13C300.5 13 296.5 60 294 67C292.468 71.2889 288 76.9998 288 76.9998H295C300.523 76.9998 305 72.5227 305 66.9998V37.9998Z" fill="#2533A9"/>
<path d="M136 77H107C107 77 112.755 74.555 115 71.5C119.047 65.993 115 54 115 54L108.5 56.5L126 38L131 53C131 53 124.394 65.4761 128.5 71.5C130.546 74.5011 136 77 136 77Z" fill="#2533A9"/>
<path d="M231 77H202C202 77 207.755 74.555 210 71.5C214.047 65.993 210 54 210 54L203.5 56.5L221 38L226 53C226 53 219.394 65.4761 223.5 71.5C225.546 74.5011 231 77 231 77Z" fill="#2533A9"/>
<path d="M122 63L119.378 77.2074" stroke="#6E51C8"/>
<path d="M214.378 50.9999L219.244 77.2072" stroke="#6E51C8"/>
<path d="M304 37.5L303 32V63L304 66V37.5Z" stroke="#2533A9"/>
<path d="M303.5 35.4999C325.5 33.9998 331.5 41.8333 335.5 45" stroke="#2533A9" stroke-width="6"/>
<path d="M304 42.1888C326 40.6888 332 48.5223 336 51.689" stroke="#A065CD" stroke-width="6"/>
<path d="M304 49.1888C326 47.6888 332 55.5223 336 58.689" stroke="#2533A9" stroke-width="6"/>
<path d="M304 56.1888C326 54.6888 332 62.5223 336 65.689" stroke="#3E4FE2" stroke-width="6"/>
<path d="M303 63.17C325 61.6699 328 70.5033 332 73.67" stroke="#2533A9" stroke-width="6"/>
<path d="M34 36.5L35 31V62L34 65V36.5Z" stroke="#2533A9"/>
<path d="M34.5 34.4999C12.5 32.9998 6.5 40.8333 2.5 44" stroke="#2533A9" stroke-width="6"/>
<path d="M34 41.1888C12 39.6888 6 47.5223 2 50.689" stroke="#3E4FE2" stroke-width="6"/>
<path d="M34 48.1888C12 46.6888 6 54.5223 2 57.689" stroke="#A065CD" stroke-width="6"/>
<path d="M34 55.1888C12 53.6888 6 61.5223 2 64.689" stroke="#2533A9" stroke-width="6"/>
<path d="M35 62.17C13 60.6699 10 69.5033 6 72.67" stroke="#2533A9" stroke-width="6"/>
</svg>
