<svg width="31" height="26" viewBox="0 0 31 26" fill="none" xmlns="http://www.w3.org/2000/svg">
<path d="M24.4197 13.713C24.4197 18.6929 20.3911 22.7277 15.4242 22.7277C10.4574 22.7277 6.4288 18.6929 6.4288 13.713C6.4288 8.73317 10.4574 4.69833 15.4242 4.69833C20.3911 4.69833 24.4197 8.73317 24.4197 13.713Z" stroke="#5E38E6" stroke-width="1.24138"/>
<path d="M1.96155 25.2757V23.3486" stroke="#5E38E6" stroke-width="1.24138" stroke-linecap="round"/>
<path d="M1 24.3125H2.92323" stroke="#5E38E6" stroke-width="1.24138" stroke-linecap="round"/>
<path d="M6.76965 24.3123V22.3853" stroke="#5E38E6" stroke-width="1.24138" stroke-linecap="round"/>
<path d="M5.80811 23.3486H7.73133" stroke="#5E38E6" stroke-width="1.24138" stroke-linecap="round"/>
<path d="M2.92322 19.4945V17.5674" stroke="#5E38E6" stroke-width="1.24138" stroke-linecap="round"/>
<path d="M1.96155 18.5312H3.88477" stroke="#5E38E6" stroke-width="1.24138" stroke-linecap="round"/>
<path d="M28.4595 1.00017V2.92725" stroke="#5E38E6" stroke-width="1.24138" stroke-linecap="round"/>
<path d="M29.421 1.96338H27.4978" stroke="#5E38E6" stroke-width="1.24138" stroke-linecap="round"/>
<path d="M23.6514 1.96355V3.89062" stroke="#5E38E6" stroke-width="1.24138" stroke-linecap="round"/>
<path d="M24.6129 2.92725H22.6897" stroke="#5E38E6" stroke-width="1.24138" stroke-linecap="round"/>
<path d="M27.4978 6.78142V8.7085" stroke="#5E38E6" stroke-width="1.24138" stroke-linecap="round"/>
<path d="M28.4595 7.74463H26.5362" stroke="#5E38E6" stroke-width="1.24138" stroke-linecap="round"/>
</svg>
