<svg width="79" height="79" viewBox="0 0 79 79" fill="none" xmlns="http://www.w3.org/2000/svg">
<rect width="68" height="74" fill="#D6938A"/>
<path d="M2 0H72V15.6987L79 79H8L2 15.6987V0Z" fill="#F7BD87"/>
<path d="M28.54 9.2H29.73V19.49L22.31 11.706V19H21.12V8.71L28.54 16.494V9.2ZM31.3455 15.78C31.3455 15.1267 31.4901 14.548 31.7795 14.044C32.0781 13.54 32.4795 13.1433 32.9835 12.854C33.4875 12.5647 34.0521 12.42 34.6775 12.42C35.3121 12.42 35.8768 12.5647 36.3715 12.854C36.8755 13.1433 37.2721 13.54 37.5615 14.044C37.8601 14.548 38.0095 15.1267 38.0095 15.78C38.0095 16.424 37.8601 17.0027 37.5615 17.516C37.2721 18.02 36.8755 18.4167 36.3715 18.706C35.8768 18.9953 35.3121 19.14 34.6775 19.14C34.0521 19.14 33.4875 18.9953 32.9835 18.706C32.4795 18.4167 32.0781 18.02 31.7795 17.516C31.4901 17.0027 31.3455 16.424 31.3455 15.78ZM32.4795 15.78C32.4795 16.228 32.5728 16.6247 32.7595 16.97C32.9555 17.3153 33.2168 17.5907 33.5435 17.796C33.8795 17.992 34.2575 18.09 34.6775 18.09C35.0975 18.09 35.4708 17.992 35.7975 17.796C36.1335 17.5907 36.3948 17.3153 36.5815 16.97C36.7775 16.6247 36.8755 16.228 36.8755 15.78C36.8755 15.332 36.7775 14.9353 36.5815 14.59C36.3948 14.2353 36.1335 13.96 35.7975 13.764C35.4708 13.568 35.0975 13.47 34.6775 13.47C34.2575 13.47 33.8795 13.568 33.5435 13.764C33.2168 13.96 32.9555 14.2353 32.7595 14.59C32.5728 14.9353 32.4795 15.332 32.4795 15.78ZM43.678 15.08C43.678 14.548 43.5614 14.1467 43.328 13.876C43.0947 13.6053 42.754 13.47 42.306 13.47C41.9794 13.47 41.69 13.54 41.438 13.68C41.1954 13.8107 41.004 13.9973 40.864 14.24C40.7334 14.4827 40.668 14.7627 40.668 15.08V19H39.548V12.56H40.668V13.568C40.8827 13.176 41.1487 12.8867 41.466 12.7C41.7927 12.5133 42.166 12.42 42.586 12.42C43.2674 12.42 43.804 12.6487 44.196 13.106C44.5974 13.554 44.798 14.1653 44.798 14.94V19H43.678V15.08ZM51.1008 8.08H52.2208V19H51.1008V8.08ZM55.4473 16.48C55.4473 16.9933 55.564 17.39 55.7973 17.67C56.0307 17.95 56.3713 18.09 56.8193 18.09C57.146 18.09 57.4307 18.0247 57.6733 17.894C57.9253 17.754 58.1167 17.5627 58.2473 17.32C58.3873 17.0773 58.4573 16.7973 58.4573 16.48V12.56H59.5773V19H58.4573V17.992C58.2427 18.3747 57.9767 18.664 57.6593 18.86C57.342 19.0467 56.9687 19.14 56.5393 19.14C55.8673 19.14 55.3307 18.9113 54.9293 18.454C54.528 17.9967 54.3273 17.3853 54.3273 16.62V12.56H55.4473V16.48Z" fill="black"/>
<path d="M53.9764 21.7519C42.2701 21.7519 30.5715 21.6331 18.8838 22.1526C18.847 22.1542 17.3813 22.2469 17.4297 22.3243C17.7575 22.8489 18.6661 22.3701 19.2845 22.3816C20.7906 22.4095 22.2918 22.4924 23.7956 22.5762C32.7483 23.0752 41.9491 23.5264 50.8736 22.4732C52.6876 22.2591 54.4946 21.9831 56.312 21.7977C56.4866 21.7799 57.8877 21.5687 56.8731 21.5687C50.0101 21.5687 43.0038 23.0993 36.2526 24.1333C30.6138 24.9971 24.9561 25.79 19.3074 26.5721C18.3415 26.7058 17.352 26.7251 16.3764 26.698C14.5819 26.6482 11.5309 25.3632 12.6553 23.1143C13.2953 21.8343 14.3767 20.6844 15.4375 19.7368C15.5162 19.6664 16.8243 18.8135 16.7885 18.7063C16.7344 18.5439 15.1362 18.654 15.0024 18.6491C13.7192 18.6015 12.5485 18.2597 11.3157 17.9392C10.6751 17.7726 10.0274 17.6055 9.39219 17.424C8.81605 17.2594 10.5906 17.424 11.1898 17.424C11.5918 17.424 14.1435 17.424 13.5827 17.424C12.9263 17.424 10.9569 17.424 11.6134 17.424C13.3832 17.424 15.0964 17.4761 16.674 16.5996" stroke="#E2B48A" stroke-width="2" stroke-linecap="round"/>
<path d="M12.5523 69.1525C12.3403 68.4372 12.1765 67.7473 12.1401 67C12.1094 66.3711 12.1401 68.2595 12.1401 68.8892C12.1401 70.9004 11.8077 73.2533 12.2546 75.2322C12.3636 75.7149 12.5843 77.0096 13.0102 77.3504C13.3145 77.5938 13.9283 73.8175 13.9491 73.572C13.9892 73.1003 13.9949 70.2795 13.9949 72.1866C13.9949 73.5306 13.8158 75.0088 14.0064 76.3428C14.1567 77.3949 21.788 75.175 22.8568 74.717" stroke="#E2B48A" stroke-width="2" stroke-linecap="round"/>
<path d="M31.1249 29.8623C31.1249 30.7967 31.1249 31.7311 31.1249 32.6656C31.1249 33.232 31.0767 33.8159 31.2406 34.3653C31.7966 36.2298 32.8855 37.6777 34.8181 38.1742C36.5748 38.6254 38.4286 38.7715 40.2199 39.033C42.9925 39.4376 45.7816 39.6728 48.5585 40.0341C49.3817 40.1412 50.2238 40.2327 51.0102 40.5102C51.159 40.5627 51.2283 40.6407 51.2283 40.4346" stroke="black" stroke-width="2" stroke-linecap="round"/>
<path d="M51.2282 40.4346C49.7993 40.4346 48.4586 40.7261 47.179 41.3779C47.1612 41.387 46.7873 41.5793 46.8409 41.6182C47.2738 41.933 48.7207 41.2389 49.128 41.1243C49.9205 40.9014 50.7311 40.6493 51.5575 40.5993C51.754 40.5873 51.884 40.6518 51.7444 40.4613C51.344 39.9153 50.9058 39.4152 50.4584 38.904C49.8402 38.1974 49.2506 37.3871 48.5228 36.7859C48.1617 36.4876 48.177 36.9724 48.0868 37.2665C47.86 38.0056 47.5364 38.7106 47.3214 39.4557C47.1806 39.944 47.0217 40.4203 46.9032 40.9152C46.861 41.0912 46.8629 41.428 46.7029 41.5559C46.6195 41.6227 47.0097 41.2886 47.0634 41.2311C47.4986 40.7648 47.9572 40.2023 48.2559 39.6381C48.4835 39.2081 48.505 38.7457 48.505 38.2721" stroke="black" stroke-width="2" stroke-linecap="round"/>
</svg>
