<svg width="101" height="82" viewBox="0 0 101 82" fill="none" xmlns="http://www.w3.org/2000/svg">
<path d="M18.6809 1H77.4043L96 81.0241L4 82L18.6809 1Z" fill="#B28C76"/>
<path d="M17.4747 0H78.7446L84.0396 22.9925L100.681 76.6982H0.5L12.5 24L17.4747 0Z" fill="#F7BD87"/>
<path d="M25.7484 19.32V18.2H31.9784V19.32H29.4584V28H28.2684V19.32H25.7484ZM33.1651 25.48C33.1651 25.9933 33.2818 26.39 33.5151 26.67C33.7485 26.95 34.0891 27.09 34.5371 27.09C34.8638 27.09 35.1485 27.0247 35.3911 26.894C35.6431 26.754 35.8345 26.5627 35.9651 26.32C36.1051 26.0773 36.1751 25.7973 36.1751 25.48V21.56H37.2951V28H36.1751V26.992C35.9605 27.3747 35.6945 27.664 35.3771 27.86C35.0598 28.0467 34.6865 28.14 34.2571 28.14C33.5851 28.14 33.0485 27.9113 32.6471 27.454C32.2458 26.9967 32.0451 26.3853 32.0451 25.62V21.56H33.1651V25.48ZM46.0899 28.14C45.4925 28.14 44.9605 28 44.4939 27.72C44.0365 27.4307 43.6772 27.034 43.4159 26.53C43.1639 26.026 43.0379 25.4427 43.0379 24.78C43.0379 24.108 43.1685 23.52 43.4299 23.016C43.7005 22.512 44.0739 22.12 44.5499 21.84C45.0352 21.56 45.5952 21.42 46.2299 21.42C46.8645 21.42 47.4059 21.5553 47.8539 21.826C48.3112 22.0873 48.6612 22.4653 48.9039 22.96C49.1465 23.4547 49.2679 24.0427 49.2679 24.724C49.2679 24.7893 49.2632 24.8593 49.2539 24.934C49.2539 24.9993 49.2539 25.0413 49.2539 25.06H43.7519V24.108H48.3719L47.9239 24.752C47.9519 24.7053 47.9799 24.6353 48.0079 24.542C48.0359 24.4393 48.0499 24.3553 48.0499 24.29C48.0499 23.9073 47.9705 23.576 47.8119 23.296C47.6625 23.016 47.4525 22.7967 47.1819 22.638C46.9112 22.4793 46.5939 22.4 46.2299 22.4C45.8005 22.4 45.4319 22.4933 45.1239 22.68C44.8252 22.8573 44.5919 23.1187 44.4239 23.464C44.2652 23.8 44.1812 24.2153 44.1719 24.71C44.1719 25.214 44.2512 25.6433 44.4099 25.998C44.5685 26.3527 44.8019 26.6233 45.1099 26.81C45.4179 26.9967 45.7912 27.09 46.2299 27.09C46.6685 27.09 47.0559 26.9967 47.3919 26.81C47.7279 26.614 48.0125 26.32 48.2459 25.928L49.1559 26.502C48.8199 27.0433 48.3952 27.454 47.8819 27.734C47.3779 28.0047 46.7805 28.14 46.0899 28.14ZM51.0689 26.026C51.1996 26.222 51.3489 26.404 51.5169 26.572C51.6849 26.74 51.8763 26.8753 52.0909 26.978C52.3149 27.0713 52.5576 27.118 52.8189 27.118C53.1363 27.118 53.3836 27.048 53.5609 26.908C53.7476 26.7587 53.8409 26.558 53.8409 26.306C53.8409 26.082 53.7663 25.8953 53.6169 25.746C53.4769 25.5873 53.2949 25.4567 53.0709 25.354C52.8469 25.242 52.6089 25.1393 52.3569 25.046C52.0769 24.934 51.7923 24.8033 51.5029 24.654C51.2229 24.4953 50.9849 24.2947 50.7889 24.052C50.6023 23.8 50.5089 23.4873 50.5089 23.114C50.5089 22.7313 50.6069 22.414 50.8029 22.162C51.0083 21.91 51.2696 21.7233 51.5869 21.602C51.9136 21.4807 52.2496 21.42 52.5949 21.42C52.9403 21.42 53.2623 21.476 53.5609 21.588C53.8689 21.7 54.1396 21.8493 54.3729 22.036C54.6063 22.2227 54.7883 22.4373 54.9189 22.68L54.0229 23.254C53.8456 23.0113 53.6216 22.8107 53.3509 22.652C53.0896 22.4933 52.7909 22.414 52.4549 22.414C52.2216 22.414 52.0209 22.4653 51.8529 22.568C51.6849 22.6707 51.6009 22.8293 51.6009 23.044C51.6009 23.212 51.6663 23.3613 51.7969 23.492C51.9276 23.6227 52.0956 23.7393 52.3009 23.842C52.5063 23.9447 52.7209 24.0427 52.9449 24.136C53.3183 24.2853 53.6589 24.4487 53.9669 24.626C54.2749 24.794 54.5176 24.9993 54.6949 25.242C54.8816 25.4847 54.9749 25.7973 54.9749 26.18C54.9749 26.74 54.7696 27.2067 54.3589 27.58C53.9576 27.9533 53.4256 28.14 52.7629 28.14C52.3336 28.14 51.9463 28.0653 51.6009 27.916C51.2556 27.7573 50.9616 27.5567 50.7189 27.314C50.4856 27.0713 50.3083 26.824 50.1869 26.572L51.0689 26.026ZM61.1507 26.11C61.1507 26.334 61.202 26.5253 61.3047 26.684C61.4073 26.8333 61.5567 26.95 61.7527 27.034C61.958 27.1087 62.21 27.146 62.5087 27.146C62.882 27.146 63.2133 27.09 63.5027 26.978C63.792 26.866 64.016 26.6887 64.1747 26.446C64.3427 26.2033 64.4267 25.8813 64.4267 25.48L64.6507 26.18C64.6507 26.5907 64.5387 26.9453 64.3147 27.244C64.1 27.5333 63.8107 27.7573 63.4467 27.916C63.0827 28.0653 62.6767 28.14 62.2287 28.14C61.79 28.14 61.4027 28.0653 61.0667 27.916C60.7307 27.7573 60.4693 27.538 60.2827 27.258C60.1053 26.978 60.0167 26.642 60.0167 26.25C60.0167 25.746 60.138 25.3307 60.3807 25.004C60.6233 24.668 60.95 24.416 61.3607 24.248C61.7807 24.08 62.2473 23.996 62.7607 23.996C63.1713 23.996 63.5213 24.052 63.8107 24.164C64.1093 24.2667 64.3473 24.388 64.5247 24.528C64.702 24.6587 64.8233 24.766 64.8887 24.85V25.508C64.5713 25.284 64.2493 25.1207 63.9227 25.018C63.596 24.906 63.2273 24.85 62.8167 24.85C62.4433 24.85 62.1307 24.9013 61.8787 25.004C61.636 25.1067 61.454 25.2513 61.3327 25.438C61.2113 25.6247 61.1507 25.8487 61.1507 26.11ZM61.1507 23.072L60.6047 22.218C60.8473 22.0407 61.174 21.8633 61.5847 21.686C61.9953 21.5087 62.49 21.42 63.0687 21.42C63.5633 21.42 63.9927 21.4993 64.3567 21.658C64.73 21.8073 65.0193 22.0267 65.2247 22.316C65.4393 22.6053 65.5467 22.96 65.5467 23.38V28H64.4267V23.38C64.4267 23.0533 64.2867 22.8107 64.0067 22.652C63.736 22.484 63.4233 22.4 63.0687 22.4C62.7607 22.4 62.4807 22.442 62.2287 22.526C61.9767 22.6007 61.7573 22.694 61.5707 22.806C61.3933 22.9087 61.2533 22.9973 61.1507 23.072ZM60.8287 18.48L61.8787 17.92L63.9787 20.16L63.3487 20.58L60.8287 18.48ZM35.2196 38.9C35.2196 38.6853 35.2942 38.508 35.4436 38.368C35.5929 38.2187 35.7702 38.144 35.9756 38.144C36.1902 38.144 36.3676 38.2187 36.5076 38.368C36.6569 38.508 36.7316 38.6853 36.7316 38.9C36.7316 39.1053 36.6569 39.2827 36.5076 39.432C36.3676 39.5813 36.1902 39.656 35.9756 39.656C35.7702 39.656 35.5929 39.5813 35.4436 39.432C35.2942 39.2827 35.2196 39.1053 35.2196 38.9ZM34.1136 49.596C34.1882 49.708 34.2816 49.7967 34.3936 49.862C34.5149 49.9273 34.6502 49.96 34.7996 49.96C34.9582 49.96 35.0842 49.918 35.1776 49.834C35.2802 49.75 35.3549 49.6147 35.4016 49.428C35.4482 49.2413 35.4716 48.9987 35.4716 48.7V41.56H36.5916V48.84C36.5916 49.3067 36.5169 49.708 36.3676 50.044C36.2276 50.38 36.0176 50.6367 35.7376 50.814C35.4576 50.9913 35.1216 51.08 34.7296 51.08C34.5429 51.08 34.3749 51.0567 34.2256 51.01C34.0762 50.9727 33.9409 50.912 33.8196 50.828C33.6982 50.744 33.5909 50.6413 33.4976 50.52L34.1136 49.596ZM38.3416 44.78C38.3416 44.1267 38.4862 43.548 38.7756 43.044C39.0742 42.54 39.4756 42.1433 39.9796 41.854C40.4836 41.5647 41.0482 41.42 41.6736 41.42C42.3082 41.42 42.8729 41.5647 43.3676 41.854C43.8716 42.1433 44.2682 42.54 44.5576 43.044C44.8562 43.548 45.0056 44.1267 45.0056 44.78C45.0056 45.424 44.8562 46.0027 44.5576 46.516C44.2682 47.02 43.8716 47.4167 43.3676 47.706C42.8729 47.9953 42.3082 48.14 41.6736 48.14C41.0482 48.14 40.4836 47.9953 39.9796 47.706C39.4756 47.4167 39.0742 47.02 38.7756 46.516C38.4862 46.0027 38.3416 45.424 38.3416 44.78ZM39.4756 44.78C39.4756 45.228 39.5689 45.6247 39.7556 45.97C39.9516 46.3153 40.2129 46.5907 40.5396 46.796C40.8756 46.992 41.2536 47.09 41.6736 47.09C42.0936 47.09 42.4669 46.992 42.7936 46.796C43.1296 46.5907 43.3909 46.3153 43.5776 45.97C43.7736 45.6247 43.8716 45.228 43.8716 44.78C43.8716 44.332 43.7736 43.9353 43.5776 43.59C43.3909 43.2353 43.1296 42.96 42.7936 42.764C42.4669 42.568 42.0936 42.47 41.6736 42.47C41.2536 42.47 40.8756 42.568 40.5396 42.764C40.2129 42.96 39.9516 43.2353 39.7556 43.59C39.5689 43.9353 39.4756 44.332 39.4756 44.78ZM47.6641 45.48C47.6641 45.9933 47.7808 46.39 48.0141 46.67C48.2475 46.95 48.5881 47.09 49.0361 47.09C49.3628 47.09 49.6475 47.0247 49.8901 46.894C50.1421 46.754 50.3335 46.5627 50.4641 46.32C50.6041 46.0773 50.6741 45.7973 50.6741 45.48V41.56H51.7941V48H50.6741V46.992C50.4595 47.3747 50.1935 47.664 49.8761 47.86C49.5588 48.0467 49.1855 48.14 48.7561 48.14C48.0841 48.14 47.5475 47.9113 47.1461 47.454C46.7448 46.9967 46.5441 46.3853 46.5441 45.62V41.56H47.6641V45.48ZM55.0196 41.56V48H53.8996V41.56H55.0196ZM56.9656 42.792C56.8163 42.68 56.6809 42.6007 56.5596 42.554C56.4383 42.498 56.2843 42.47 56.0976 42.47C55.8176 42.47 55.5983 42.54 55.4396 42.68C55.2809 42.82 55.1689 43.0113 55.1036 43.254C55.0476 43.4967 55.0196 43.772 55.0196 44.08H54.5156C54.5156 43.5667 54.6043 43.114 54.7816 42.722C54.9683 42.3207 55.2063 42.0033 55.4956 41.77C55.7849 41.5367 56.0789 41.42 56.3776 41.42C56.6109 41.42 56.8256 41.4527 57.0216 41.518C57.2269 41.574 57.4136 41.6907 57.5816 41.868L56.9656 42.792Z" fill="black"/>
</svg>
