<svg width="81" height="79" viewBox="0 0 81 79" fill="none" xmlns="http://www.w3.org/2000/svg">
<rect width="68" height="74" fill="#D6938A"/>
<path d="M3.96497 0H73.965V15.6987L80.965 79H9.96497L3.96497 15.6987V0Z" fill="#F7BD87"/>
<path d="M60.5108 47.3096C60.8054 47.3832 60.6277 49.0306 60.6262 49.2202C60.6113 51.001 60.285 52.6275 59.7414 54.3237C58.6627 57.6892 56.8852 61.0002 54.9071 63.9217C53.0312 66.6923 51.1642 69.4062 48.9445 71.9168C48.4229 72.5067 47.8906 73.087 47.3801 73.6863C47.3054 73.774 47.0629 74.1589 46.9441 74.1928C46.6166 74.2864 46.662 70.1711 46.662 69.6984C46.662 68.8735 46.6301 71.3492 46.6684 72.1732C46.6995 72.8424 47.0511 73.4313 47.1236 74.0838C47.1982 74.7554 50.4066 72.5082 50.8166 72.186C51.2442 71.8501 51.2283 71.7776 50.7012 71.4295C49.8858 70.891 49.0102 70.4713 48.2777 69.8202C48.0141 69.5859 47.7561 69.5812 47.5275 69.4035C47.1152 69.0827 47.1333 69.1718 47.2134 69.6343C47.2854 70.0501 47.3102 72.4681 47.8161 72.4681" stroke="black" stroke-width="2" stroke-linecap="round"/>
<path d="M30.82 33.075H32.7538V47.18H39.01V49H30.82V33.075ZM40.9482 33.075H42.8819V43.7675C42.8819 44.8595 43.1777 45.7392 43.7692 46.4065C44.3607 47.0738 45.2252 47.4075 46.3627 47.4075C47.5002 47.4075 48.3647 47.0738 48.9562 46.4065C49.5477 45.7392 49.8434 44.8595 49.8434 43.7675V33.075H51.7772V43.7675C51.7772 44.5562 51.6483 45.2842 51.3904 45.9515C51.1478 46.6188 50.7838 47.1952 50.2984 47.6805C49.8283 48.1658 49.2595 48.545 48.5922 48.818C47.9249 49.091 47.1817 49.2275 46.3627 49.2275C45.5437 49.2275 44.8005 49.091 44.1332 48.818C43.4659 48.545 42.8895 48.1658 42.4042 47.6805C41.934 47.1952 41.57 46.6188 41.3122 45.9515C41.0695 45.2842 40.9482 44.5562 40.9482 43.7675V33.075Z" fill="black"/>
</svg>
