<svg width="37" height="37" viewBox="0 0 37 37" fill="none" xmlns="http://www.w3.org/2000/svg">
<path d="M36 18.5C36 28.165 28.165 36 18.5 36C8.83502 36 1 28.165 1 18.5C1 8.83502 8.83502 1 18.5 1C28.165 1 36 8.83502 36 18.5Z" fill="black"/>
<path d="M12.8101 35.0541L32.2807 7.7124C34.6108 10.6849 36 14.4303 36 18.5C36 28.165 28.165 36 18.5 36C16.5081 36 14.5939 35.6671 12.8101 35.0541Z" fill="#EEB178"/>
<path d="M36 18.5C36 28.165 28.165 36 18.5 36M36 18.5C36 8.83502 28.165 1 18.5 1C8.83502 1 1 8.83502 1 18.5C1 28.165 8.83502 36 18.5 36M36 18.5C36 14.4303 34.6108 10.6849 32.2807 7.7124L12.8101 35.0541C14.5939 35.6671 16.5081 36 18.5 36" stroke="#4B4438"/>
</svg>
