<svg width="46" height="44" viewBox="0 0 46 44" fill="none" xmlns="http://www.w3.org/2000/svg">
<g clip-path="url(#clip0_448_4428)">
<rect width="46" height="44" rx="5" fill="#F5ECFE"/>
<ellipse cx="22.5614" cy="30.3938" rx="12.8126" ry="3.97191" fill="#D99857"/>
<rect x="9.74878" y="19.7598" width="25.6252" height="11.5314" rx="1.02501" fill="#D99857"/>
<path d="M10.9772 18.729C10.9772 19.5079 10.7247 20.2577 10.5083 21.003C10.0489 22.5856 9.70874 24.1955 9.70874 25.852C9.70874 26.7806 9.62287 27.756 9.75753 28.6762C9.83994 29.2393 10.0495 29.69 10.3213 30.1832C10.4994 30.5065 10.6813 30.8114 11.0368 30.9638C11.3152 31.0831 11.6184 31.0867 11.9042 31.1698C12.1917 31.2535 12.5231 31.3165 12.8203 31.3541C13.2759 31.4118 13.7213 31.5168 14.1809 31.5493C15.6979 31.6564 17.0925 32.1018 18.5393 32.5358" stroke="#D99857" stroke-width="2.4344" stroke-linecap="round"/>
<path d="M11.1621 19.0484C10.9935 14.9821 10.3518 10.9334 10.3518 6.86256C10.3518 6.37101 10.3191 5.88211 10.2759 5.39244C10.2674 5.29652 10.0947 4.66766 10.3349 4.78315C11.0821 5.14232 11.7817 5.72191 12.4394 6.21135C13.7877 7.21474 15.0696 8.30598 16.2824 9.46742C18.1853 11.2896 19.8305 13.3085 21.4281 15.3926C22.2782 16.5016 23.077 17.6349 23.9799 18.7018C24.2067 18.9698 24.5472 19.2905 24.6804 19.6213C24.702 19.6749 24.6578 19.5054 24.627 19.4564C24.3895 19.0801 24.0889 18.7298 23.8111 18.3832C22.8508 17.1851 21.92 15.9584 20.8852 14.8225C19.4914 13.2925 18.1145 11.6801 16.5272 10.3422C15.6101 9.56919 14.7342 8.71949 13.7054 8.09232C13.464 7.94519 12.8687 7.68381 12.7826 7.42713" stroke="#D99857" stroke-width="2.4344" stroke-linecap="round"/>
<path d="M35.2986 20.6021C35.2986 21.4355 35.2986 22.2689 35.2986 23.1024C35.2986 24.3922 35.4289 25.7536 35.1194 27.0177C34.8169 28.2526 34.5218 30.5214 33.0309 30.8942" stroke="#D99857" stroke-width="2.4344" stroke-linecap="round"/>
<path d="M32.0714 18.0723C31.7283 19.1751 30.395 19.475 29.3869 19.6229C28.1627 19.8025 26.713 19.8072 25.6316 19.119C25.0723 18.763 24.8423 18.2583 24.7012 17.6313C24.6449 17.3812 24.5833 16.7683 24.3087 16.6768" stroke="#D99857" stroke-width="2.4344" stroke-linecap="round"/>
<path d="M22.7387 20.2529C22.1179 19.8877 21.8119 18.889 21.3432 18.3534C20.5694 17.469 19.5645 16.6364 18.6393 15.9112C17.8241 15.2723 17.3344 14.3649 16.6332 13.6241C15.5407 12.4697 14.7921 11.096 13.7695 9.89295C13.2554 9.28818 12.6737 9.15361 12.0154 8.7833C11.7754 8.64835 11.4872 7.87326 11.4872 8.14852C11.4872 10.5533 11.6616 12.9637 11.6616 15.3734C11.6616 16.442 11.446 17.7937 11.8409 18.8138C11.9853 19.1868 12.102 19.568 12.2286 19.9476C12.291 20.1349 12.3481 20.6454 12.4951 20.7714C12.7678 21.0051 12.8199 20.5075 12.844 20.3595C12.9871 19.4801 13.0572 18.6146 13.0572 17.7235C13.0572 16.1309 13.0572 14.5383 13.0572 12.9457C13.0572 12.2493 13.0829 11.3449 12.7761 10.6973C12.5115 10.1388 12.5376 11.6096 12.5435 11.6907C12.6612 13.3088 13.3377 14.8643 13.4933 16.4976C13.5995 17.6133 13.5266 18.7978 13.8422 19.8846C13.9877 20.3861 14.824 21.6242 15.2571 20.6793C15.861 19.3616 15.851 17.3826 15.48 15.9984C15.232 15.0731 14.9792 14.0931 14.6078 13.2074C14.4868 12.9189 14.3582 12.6006 14.191 12.3351C13.9811 12.0017 14.0074 12.3808 13.973 12.6356C13.8539 13.5172 13.933 14.4524 14.1087 15.3201C14.2956 16.2429 14.4169 17.1852 14.6272 18.1015C14.8171 18.9292 14.9915 20.2332 15.8483 20.6696C16.7578 21.133 17.4959 20.7077 17.6799 19.6617C17.9288 18.2469 17.6031 16.8888 16.7641 15.7271C16.1868 14.9278 16.2844 17.6785 16.2844 17.8398C16.2844 18.9339 16.8523 19.6879 17.8931 20.0349C18.6753 20.2956 18.7266 19.0795 18.7266 18.5909C18.7266 18.2736 18.7312 17.9974 18.4164 17.8543C18.2518 17.7795 18.0494 17.7559 18.0094 17.9561C17.8476 18.7652 17.8096 20.0001 18.8332 20.1463C19.5938 20.255 20.4123 20.3786 20.0736 19.4243C20.0002 19.2174 18.9446 17.8203 18.8186 18.6393C18.6599 19.6708 19.7583 19.7296 20.471 19.7296" stroke="#D99857" stroke-width="2.4344" stroke-linecap="round"/>
<path d="M35.5905 18.6167C35.7529 14.6734 36.3711 10.747 36.3711 6.79927C36.3711 6.32258 36.4026 5.84846 36.4443 5.37359C36.4524 5.28057 36.6188 4.67072 36.3874 4.78272C35.6675 5.13103 34.9936 5.6931 34.36 6.16774C33.061 7.1408 31.826 8.19905 30.6576 9.32537C28.8243 11.0925 27.2393 13.0504 25.7002 15.0714C24.8812 16.1469 24.1117 17.2459 23.2419 18.2806C23.0234 18.5405 22.6953 18.8515 22.567 19.1723C22.5462 19.2243 22.5887 19.0598 22.6185 19.0124C22.8472 18.6474 23.1368 18.3077 23.4045 17.9716C24.3297 16.8098 25.2263 15.6202 26.2233 14.5185C27.5661 13.0348 28.8926 11.4712 30.4217 10.1737C31.3053 9.42407 32.1491 8.60006 33.1403 7.99185C33.3728 7.84917 33.9463 7.59569 34.0293 7.34677" stroke="#D99857" stroke-width="2.4344" stroke-linecap="round"/>
<path d="M24.0241 20.2632C24.6449 19.898 24.9509 18.8993 25.4196 18.3637C26.1935 17.4793 27.1983 16.6466 28.1235 15.9215C28.9387 15.2825 29.4285 14.3751 30.1296 13.6343C31.2221 12.48 31.9708 11.1062 32.9933 9.9032C33.5074 9.29843 34.0891 9.16386 34.7475 8.79355C34.9874 8.6586 35.2756 7.88351 35.2756 8.15877C35.2756 10.5635 35.1012 12.974 35.1012 15.3836C35.1012 16.4522 35.3168 17.8039 34.9219 18.824C34.7775 19.1971 34.6608 19.5782 34.5343 19.9579C34.4718 20.1451 34.4147 20.6557 34.2677 20.7817C33.995 21.0154 33.943 20.5178 33.9189 20.3698C33.7757 19.4904 33.7056 18.6249 33.7056 17.7338C33.7056 16.1412 33.7056 14.5486 33.7056 12.956C33.7056 12.2596 33.6799 11.3552 33.9867 10.7076C34.2513 10.149 34.2252 11.6198 34.2193 11.7009C34.1016 13.3191 33.4251 14.8746 33.2695 16.5078C33.1633 17.6236 33.2362 18.8081 32.9207 19.8949C32.7751 20.3964 31.9388 21.6344 31.5057 20.6896C30.9018 19.3719 30.9118 17.3929 31.2828 16.0087C31.5309 15.0834 31.7836 14.1034 32.155 13.2176C32.276 12.9292 32.4046 12.6109 32.5718 12.3454C32.7817 12.012 32.7554 12.3911 32.7898 12.6458C32.909 13.5274 32.8299 14.4627 32.6541 15.3303C32.4672 16.2531 32.346 17.1954 32.1357 18.1117C31.9457 18.9394 31.7713 20.2434 30.9146 20.6799C30.0051 21.1432 29.2669 20.7179 29.0829 19.672C28.834 18.2572 29.1597 16.8991 29.9987 15.7373C30.576 14.9381 30.4785 17.6888 30.4785 17.85C30.4785 18.9442 29.9105 19.6982 28.8697 20.0451C28.0875 20.3058 28.0363 19.0898 28.0363 18.6011C28.0363 18.2838 28.0316 18.0077 28.3464 17.8646C28.511 17.7897 28.7134 17.7661 28.7534 17.9663C28.9152 18.7755 28.9532 20.0103 27.9297 20.1566C27.169 20.2652 26.3505 20.3889 26.6892 19.4346C26.7626 19.2277 27.8182 17.8305 27.9442 18.6496C28.1029 19.6811 27.0045 19.7398 26.2918 19.7398" stroke="#D99857" stroke-width="2.4344" stroke-linecap="round"/>
<path d="M35.0855 18.2866C35.0855 18.821 35.0559 19.3653 35.0855 19.8991C35.1056 20.2615 35.4959 19.2535 35.4959 18.8906C35.4959 18.8621 35.4496 19.2228 35.4496 19.3154C35.4496 19.859 35.5254 20.3559 35.6288 20.8874C35.6621 21.0587 35.6577 21.2312 35.6577 21.4047C35.6577 21.6819 35.6501 21.1414 35.6461 21.0955C35.5895 20.4345 35.3976 19.7877 35.3976 19.1218C35.3976 18.9127 35.3976 18.7037 35.3976 18.4947C35.3976 18.3998 35.3976 18.2109 35.3976 18.4224C35.3976 19.5275 35.7097 20.6063 35.7097 21.7168C35.7097 22.9199 35.7439 24.115 35.5768 25.3089C35.5009 25.8508 35.4069 26.402 35.1375 26.8809C34.8595 27.3751 34.5186 27.8141 34.2272 28.2998C33.5174 29.4829 32.3894 30.829 30.9242 30.9266" stroke="#D99857" stroke-width="2.4344" stroke-linecap="round"/>
<path d="M8.78086 27.4196C8.78086 27.0499 8.60235 26.951 8.28068 26.951C8.16087 26.951 7.71991 26.9338 7.98504 27.1518C8.14832 27.2861 8.35098 27.3758 8.52426 27.4977C8.63011 27.5721 8.76511 27.6985 8.898 27.7189C9.10561 27.7509 9.31382 27.6962 9.51719 27.7543" stroke="#D99857" stroke-width="2.4344" stroke-linecap="round"/>
<path d="M9.64578 29.9547C9.35873 29.9547 9.11757 30.026 8.94293 30.2783C8.85699 30.4024 8.77838 30.5435 8.70864 30.678C8.66093 30.77 8.56513 30.9101 8.54315 31.009C8.51462 31.1374 9.16049 30.6982 9.19023 30.6743C9.51546 30.4129 9.6724 29.9414 10.0474 29.7539" stroke="#D99857" stroke-width="2.4344" stroke-linecap="round"/>
<ellipse cx="12.8126" cy="3.97191" rx="12.8126" ry="3.97191" transform="matrix(-1 0 0 1 36.2174 25.9199)" fill="#D99857"/>
<rect width="25.6252" height="11.5314" rx="1.02501" transform="matrix(-1 0 0 1 36.2174 19.2568)" fill="#D99857"/>
<path d="M34.989 18.2261C34.989 19.005 35.2415 19.7548 35.4579 20.5001C35.9173 22.0827 36.2574 23.6925 36.2574 25.349C36.2574 26.2777 36.3433 27.2531 36.2087 28.1733C36.1263 28.7364 35.9167 29.187 35.6449 29.6803C35.4667 30.0036 35.2849 30.3085 34.9293 30.4609C34.651 30.5802 34.3477 30.5837 34.062 30.6669C33.7744 30.7505 33.4431 30.8136 33.1459 30.8512C32.6903 30.9089 32.2449 31.0139 31.7853 31.0463C30.2683 31.1535 28.8737 31.5989 27.4269 32.0329" stroke="#D99857" stroke-width="2.4344" stroke-linecap="round"/>
<path d="M34.7939 18.6167C34.9563 14.6734 35.5745 10.747 35.5745 6.79927C35.5745 6.32258 35.606 5.84846 35.6477 5.37359C35.6558 5.28057 35.8222 4.67072 35.5907 4.78272C34.8709 5.13103 34.197 5.6931 33.5633 6.16774C32.2644 7.1408 31.0294 8.19905 29.8609 9.32537C28.0277 11.0925 26.4427 13.0504 24.9036 15.0714C24.0846 16.1469 23.3151 17.2459 22.4452 18.2806C22.2267 18.5405 21.8987 18.8515 21.7703 19.1723C21.7495 19.2243 21.7921 19.0598 21.8218 19.0124C22.0506 18.6474 22.3402 18.3077 22.6079 17.9716C23.533 16.8098 24.4297 15.6202 25.4267 14.5185C26.7695 13.0348 28.096 11.4712 29.6251 10.1737C30.5087 9.42407 31.3525 8.60006 32.3437 7.99185C32.5762 7.84917 33.1497 7.59569 33.2327 7.34677" stroke="#D99857" stroke-width="2.4344" stroke-linecap="round"/>
<path d="M23.2274 19.7505C23.8483 19.3853 24.1543 18.3866 24.623 17.851C25.3968 16.9666 26.4017 16.1339 27.3268 15.4088C28.142 14.7698 28.6318 13.8625 29.3329 13.1216C30.4255 11.9673 31.1741 10.5936 32.1967 9.39051C32.7108 8.78574 33.2925 8.65117 33.9508 8.28086C34.1907 8.14591 34.479 7.37082 34.479 7.64608C34.479 10.0508 34.3046 12.4613 34.3046 14.8709C34.3046 15.9395 34.5201 17.2912 34.1253 18.3113C33.9809 18.6844 33.8642 19.0655 33.7376 19.4452C33.6752 19.6324 33.6181 20.143 33.4711 20.269C33.1984 20.5027 33.1463 20.0051 33.1222 19.8571C32.9791 18.9777 32.909 18.1122 32.909 17.2211C32.909 15.6285 32.909 14.0359 32.909 12.4433C32.909 11.7469 32.8833 10.8425 33.1901 10.1949C33.4546 9.63632 33.4286 11.1071 33.4227 11.1882C33.305 12.8064 32.6285 14.3619 32.4729 15.9951C32.3666 17.1109 32.4396 18.2954 32.124 19.3822C31.9784 19.8837 31.1422 21.1217 30.7091 20.1769C30.1051 18.8592 30.1152 16.8802 30.4862 15.496C30.7342 14.5707 30.987 13.5907 31.3584 12.7049C31.4794 12.4165 31.608 12.0982 31.7751 11.8327C31.9851 11.4993 31.9588 11.8784 31.9932 12.1331C32.1123 13.0147 32.0332 13.95 31.8575 14.8176C31.6706 15.7404 31.5493 16.6827 31.339 17.599C31.1491 18.4267 30.9747 19.7308 30.1179 20.1672C29.2084 20.6305 28.4703 20.2052 28.2863 19.1593C28.0374 17.7445 28.3631 16.3864 29.2021 15.2247C29.7794 14.4254 29.6818 17.1761 29.6818 17.3374C29.6818 18.4315 29.1139 19.1855 28.0731 19.5324C27.2909 19.7931 27.2396 18.5771 27.2396 18.0884C27.2396 17.7711 27.235 17.495 27.5497 17.3519C27.7144 17.277 27.9167 17.2534 27.9568 17.4536C28.1186 18.2628 28.1566 19.4976 27.133 19.6439C26.3724 19.7525 25.5539 19.8762 25.8925 18.9219C25.966 18.715 27.0216 17.3178 27.1476 18.1369C27.3062 19.1684 26.2079 19.2271 25.4952 19.2271" stroke="#D99857" stroke-width="2.4344" stroke-linecap="round"/>
<path d="M37.1854 26.9171C37.1854 26.5474 37.364 26.4486 37.6856 26.4486C37.8054 26.4486 38.2464 26.4314 37.9813 26.6494C37.818 26.7836 37.6153 26.8734 37.442 26.9952C37.3362 27.0696 37.2012 27.196 37.0683 27.2165C36.8607 27.2484 36.6525 27.1937 36.4491 27.2518" stroke="#D99857" stroke-width="2.4344" stroke-linecap="round"/>
<path d="M36.3205 29.4518C36.6076 29.4518 36.8487 29.5231 37.0234 29.7753C37.1093 29.8995 37.1879 30.0406 37.2577 30.1751C37.3054 30.2671 37.4012 30.4072 37.4232 30.5061C37.4517 30.6345 36.8058 30.1953 36.7761 30.1714C36.4509 29.9099 36.2939 29.4385 35.9189 29.251" stroke="#D99857" stroke-width="2.4344" stroke-linecap="round"/>
<path d="M35.7727 26.6426C36.0871 26.6426 36.5359 26.723 36.8215 26.5855C37.0069 26.4962 37.2885 26.3796 37.4056 26.2039C37.4465 26.1425 37.2129 26.1738 37.1641 26.1754C36.32 26.2026 35.6265 27.2093 35.0718 27.7641" stroke="#D99857" stroke-width="2.4344" stroke-linecap="round"/>
<path d="M35.1653 29.072C35.2877 29.1128 35.387 29.4648 35.4353 29.5756C35.5101 29.7475 35.6001 29.8625 35.7078 30.0117C35.8799 30.2499 36.4339 30.6239 36.7514 30.4453C36.9291 30.3453 36.931 29.9475 36.9383 29.7781C36.9525 29.4514 36.7923 29.2037 36.5671 28.9785C36.1932 28.6046 35.7714 28.2763 35.3989 27.9038" stroke="#D99857" stroke-width="2.4344" stroke-linecap="round"/>
<path d="M26.0776 15.4373C25.1179 15.4373 24.3794 16.2351 23.4494 16.3237C22.3742 16.4261 21.1302 16.4151 20.0587 16.2741C19.6031 16.2141 17.9326 15.9676 17.9326 15.3257" stroke="#D99857" stroke-width="2.4344" stroke-linecap="round"/>
<path d="M22.2615 34.0721C22.2615 34.8678 22.2615 35.6635 22.2615 36.4591C22.2615 36.6908 22.1551 38.3696 22.297 38.4238C22.6427 38.5558 23.0846 38.2184 23.362 37.9824C23.6545 37.7337 23.914 37.4073 24.1111 37.0286C24.1831 36.8902 24.3368 36.7006 24.2282 36.9764C23.9046 37.7983 23.4836 38.4427 22.7763 38.6373C21.6142 38.9572 21.2916 36.9322 21.1468 35.771C21.0659 35.1218 21.1113 33.1387 21.1113 33.7969C21.1113 35.1304 21.2163 36.4036 21.3172 37.7262C21.3568 38.2447 21.3586 39.2827 21.8568 39.2827C22.5259 39.2827 23.6149 39.5681 24.2069 39.0644C24.5981 38.7317 24.7616 37.9569 24.853 37.4035C25.0511 36.2044 24.8651 34.7692 24.8175 33.5596C24.7832 32.6885 24.6936 35.2973 24.5974 36.1602C24.5354 36.7169 24.4554 37.1151 24.1785 37.5553C24.1364 37.6223 23.7676 38.0301 23.6957 37.9777C23.3985 37.761 23.0988 33.3288 23.0141 33.3413C22.7194 33.3851 22.5171 35.9807 22.5171 36.3785" stroke="#D99857" stroke-width="2.4344" stroke-linecap="round"/>
<path d="M18.2402 39.4442C20.1113 39.4442 21.9823 39.4442 23.8533 39.4442C24.7028 39.4442 25.5497 39.5201 26.3963 39.5201C26.745 39.5201 27.2669 39.5652 27.4084 39.1405C27.4459 39.0281 26.3759 38.7939 26.2529 38.761C25.3867 38.5292 24.5679 38.3814 23.6678 38.3814C21.9388 38.3814 19.9744 38.6947 18.4722 39.596C18.3742 39.6548 17.7137 40.2801 17.789 39.8659C17.8738 39.3994 19.1874 39.1583 19.5138 39.0984C21.0251 38.8208 22.6243 38.6092 24.157 38.6092C25.0284 38.6092 25.8792 38.713 26.7421 38.761C26.9378 38.7719 27.1515 38.8803 27.3494 38.9086C27.668 38.9541 27.2621 38.465 27.0626 38.4573C25.7397 38.4065 24.5856 37.6982 23.2503 37.6982C22.1149 37.6982 20.9666 37.711 19.8723 38.0441C19.1126 38.2753 17.0519 39.4657 17.6836 38.9845C18.4839 38.3747 19.4509 37.8544 20.3657 37.4368C21.0736 37.1136 21.7804 37.0655 22.5333 36.956C23.6417 36.7948 24.7172 37.0593 25.7806 37.3145C26.1232 37.3967 26.4186 37.5923 26.7379 37.732C27.0673 37.8761 27.1258 38.3221 27.3072 38.626C27.8958 39.6123 28.4752 40.5808 28.8929 41.6666C29.1672 42.38 29.1712 42.8398 29.1712 43.6192" stroke="#D99857" stroke-width="2.4344" stroke-linecap="round"/>
<path d="M25.3351 36.8146C26.0768 36.8146 26.942 36.6567 27.5687 37.118C28.4432 37.7617 28.8631 38.7364 29.5721 39.5242C29.7709 39.7451 29.5413 39.089 29.5145 39.0403C29.1089 38.3015 28.4585 37.567 27.7308 37.1337C27.3586 36.9121 26.9584 36.7404 26.5801 36.5295C26.126 36.2765 25.6789 36.0221 25.1756 35.8783C24.693 35.7404 23.9897 35.6859 23.4991 35.826" stroke="#D99857" stroke-width="2.4344" stroke-linecap="round"/>
<path d="M20.1627 37.4865C19.421 37.4865 18.5559 37.3285 17.9291 37.7899C17.0546 38.4336 16.6347 39.4083 15.9257 40.196C15.7269 40.4169 15.9566 39.7609 15.9833 39.7122C16.3889 38.9734 17.0393 38.2389 17.767 37.8056C18.1392 37.584 18.5394 37.4123 18.9177 37.2014C19.3718 36.9483 19.8189 36.694 20.3222 36.5502C20.8048 36.4123 21.5081 36.3577 21.9987 36.4979" stroke="#D99857" stroke-width="2.4344" stroke-linecap="round"/>
<path d="M29.2293 55.9817C29.2293 52.1654 29.2293 48.349 29.2293 44.5327C29.2293 43.758 29.2056 43.0125 29.0822 42.2447C29.0718 42.18 29.0394 41.6915 28.9444 41.6704C28.9324 41.6678 28.9373 41.952 28.9374 41.9553C29.0111 43.2808 29.2713 44.596 29.2713 45.9265C29.2713 47.5973 29.2713 49.2681 29.2713 50.9389C29.2713 51.7093 29.2713 52.4798 29.2713 53.2502C29.2713 53.732 29.1563 54.1944 29.1452 54.6696C29.1364 55.0493 29.2299 54.5112 29.3343 54.5576C29.4777 54.6213 29.3501 54.8901 29.5024 54.6159C29.6544 54.3424 29.7335 54.1144 29.7335 53.7778C29.7335 53.5246 29.7756 53.282 29.7756 53.0307C29.7756 51.7796 29.6415 50.5553 29.5328 49.3093C29.4368 48.2097 29.2333 47.1459 29.0658 46.0572C28.9462 45.2797 28.9337 44.4923 28.7763 43.7202C28.6633 43.1657 28.5899 42.5823 28.3888 42.051C28.3516 41.9527 28.3185 41.7847 28.2207 41.7358" stroke="#D99857" stroke-width="2.4344" stroke-linecap="round"/>
<path d="M16.305 56.7849C16.1674 55.7356 16.2608 54.628 16.2608 53.573C16.2608 51.6389 16.2608 49.7049 16.2608 47.7708C16.2608 46.4475 16.3639 45.1507 16.4814 43.8342C16.5496 43.0698 16.6792 42.3048 16.8343 41.5526C16.9293 41.0913 16.9991 40.6168 17.1626 40.171C17.2634 39.8963 17.0836 40.5553 17.0793 40.5708C16.5448 42.483 16.4969 44.4547 16.4838 46.422C16.4702 48.4793 16.5272 50.5362 16.6235 52.5911C16.6254 52.6317 16.6387 53.4128 16.7313 53.1007C16.9795 52.2642 17.0522 51.3545 17.1626 50.4966C17.4207 48.4919 17.5823 46.4799 17.7581 44.4677C17.9019 42.8213 17.9784 41.1261 18.4908 39.5375C18.5009 39.5062 18.5403 39.3989 18.5521 39.5001C18.5849 39.7818 18.4478 40.1022 18.3928 40.3721C17.6533 43.9966 17.7075 47.7462 17.7164 51.4223C17.7219 53.6595 17.8988 55.8825 18.0889 58.1104C18.1117 58.3769 18.1134 59.1796 18.1134 58.9122C18.1134 58.548 18.1431 58.1814 18.1624 57.8182C18.2459 56.2533 18.2878 54.6908 18.3119 53.1241C18.349 50.7157 18.3724 48.2993 18.6868 45.9054C18.8117 44.9544 19.0155 44.0368 19.2946 43.1188C19.385 42.8214 19.4975 42.5468 19.547 42.2375C19.6236 41.758 19.7001 41.2789 19.7798 40.7999C19.7816 40.7887 19.836 40.6094 19.8263 40.7063C19.8152 40.8182 19.7646 40.9307 19.7357 41.0383C19.6198 41.4685 19.5345 41.9069 19.4465 42.3427C18.8568 45.2639 18.731 48.1788 18.731 51.1464C18.731 52.5259 18.7145 53.8916 18.9294 55.2584C18.9473 55.3719 19.0045 56.1492 19.2112 55.8171C19.7169 55.0051 19.9245 53.9517 20.1718 53.0493C20.4648 51.9805 20.6876 50.9007 20.9168 49.8186C21.1906 48.5261 21.3863 47.2429 21.5 45.9287C21.5904 44.8845 21.588 43.8079 21.821 42.7799C21.9274 42.3104 22.1369 41.9728 22.3724 41.5619C22.5315 41.2843 22.5243 40.961 22.5243 40.6549C22.5243 40.5071 22.4949 40.4519 22.3528 40.5708C21.3978 41.37 20.8392 42.6639 20.5713 43.8178C19.803 47.1262 20.7865 50.4708 21.2207 53.7483C21.3747 54.9112 21.5661 56.086 21.6372 57.2571C21.6479 57.4328 21.6421 57.6096 21.6421 57.7855C21.6421 57.9199 21.636 57.9047 21.652 57.7621C21.8673 55.8341 22.3284 53.9646 22.3454 52.0137C22.3675 49.4871 22.3092 46.959 22.3577 44.4326C22.3809 43.2252 22.5873 42.1148 22.963 40.9682C23.119 40.4918 23.2723 40.045 23.3085 39.5422C23.3227 39.3454 23.3183 39.1478 23.3183 38.9507C23.3183 38.9148 23.3183 38.7148 23.3183 38.8689C23.3183 39.667 23.4358 40.4386 23.529 41.23C23.781 43.3672 23.8678 45.5806 23.4923 47.7077C23.3303 48.6254 23.1912 49.5187 23.186 50.4545C23.1804 51.4455 23.1796 52.4333 23.3305 53.4163C23.4756 54.3607 22.3234 57.5905 22.5243 58.5249C22.5779 58.7739 24.0441 56.7194 24.1025 56.9673C24.1361 57.1104 24.2568 56.7057 24.2789 56.5605C24.7767 53.289 24.5539 49.9563 24.6685 46.6651C24.7269 44.9887 24.8996 43.3243 24.9062 41.6461C24.9096 40.7973 25.0107 39.9501 25.0606 39.1027C25.0681 38.9755 25.066 38.0778 25.0851 38.6609C25.158 40.8864 25.4791 43.1019 25.5483 45.3303C25.66 48.9305 25.3418 52.5406 26.1756 56.0836C26.1798 56.1017 26.2042 56.2227 26.254 56.1795C26.3255 56.1174 26.3558 55.921 26.3716 55.8499C26.4739 55.39 26.5303 54.9189 26.5799 54.4519C26.8277 52.1201 26.7588 49.7699 26.7588 47.4295C26.7588 46.3464 26.6706 45.2678 26.6706 44.1872C26.6706 43.4774 26.6382 42.748 26.5383 42.0435C26.473 41.5838 26.3005 41.1404 26.2761 40.6736C26.266 40.4822 26.2736 39.9069 26.2736 40.0986C26.2736 40.2712 26.2896 40.4393 26.3177 40.6105C26.5911 42.2773 26.9184 43.9206 27.1043 45.6015C27.2804 47.1934 27.3851 48.783 27.3763 50.3844C27.3686 51.7916 27.156 53.0968 26.8225 54.4613C26.591 55.4084 26.4059 56.3465 26.4059 57.3203C26.4059 57.8332 26.5879 57.1517 26.6167 56.9953C26.7437 56.3057 26.7559 55.5934 26.8005 54.8961C26.8584 53.9893 26.8677 53.0794 26.798 52.1727C26.7587 51.6614 26.6754 51.1567 26.5922 50.6508C26.5583 50.445 26.5475 50.2383 26.45 50.0524" stroke="#D99857" stroke-width="2.4344" stroke-linecap="round"/>
<path d="M28.8612 39.5026C28.8612 40.5652 29.2369 41.6714 29.5297 42.6864C29.842 43.7694 30.4673 44.7429 30.8876 45.7858C31.2913 46.7876 31.6025 47.8338 32.0274 48.8253C32.5817 50.1185 33.098 51.4833 33.5155 52.8288C33.6837 53.3706 33.966 53.8742 34.1453 54.4119C34.2844 54.8294 34.5071 55.2697 34.7785 55.6185C34.8583 55.7212 34.7637 55.3569 34.7292 55.2316C34.4224 54.1159 33.8335 53.0522 33.3924 51.9845C32.7704 50.4789 32.2168 48.9206 31.5068 47.4533C30.8762 46.1502 30.5555 44.7423 30.1559 43.3619C29.9851 42.772 29.8916 42.1844 29.7478 41.5923C29.6662 41.2562 29.6066 40.846 29.3678 40.5791C29.2105 40.4032 29.1808 40.1543 29.0512 39.96C28.9217 39.7658 28.7995 39.5683 28.6713 39.376" stroke="#D99857" stroke-width="2.4344" stroke-linecap="round"/>
<path d="M30.761 42.668C30.8403 42.9654 30.8143 43.2701 30.8947 43.5686C30.9932 43.9344 31.1264 44.2854 31.2957 44.624C31.6695 45.3716 32.0089 46.0931 32.33 46.8614C32.6518 47.6315 33.0896 48.3453 33.4347 49.1059C33.8071 49.927 34.0799 50.7672 34.4056 51.6037C34.873 52.8036 35.4936 53.9508 35.7143 55.2202C35.8117 55.78 36.0169 56.3409 36.0169 56.9158" stroke="#D99857" stroke-width="2.4344" stroke-linecap="round"/>
<path d="M29.8744 40.6421C30.1231 40.6421 30.1187 40.9792 30.1664 41.1592C30.3789 41.9621 30.9829 42.7466 31.4293 43.4319C31.9919 44.2954 32.6823 45.0705 33.2587 45.9296C33.8686 46.8387 34.3349 47.8306 34.877 48.7792C35.7984 50.3917 36.3041 52.1073 36.8541 53.8697C37.231 55.0775 37.4099 56.1614 37.4099 57.4229" stroke="#D99857" stroke-width="2.4344" stroke-linecap="round"/>
<path d="M28.1455 37.9536C28.392 38.054 28.6267 38.291 28.8141 38.4754C29.0461 38.7039 29.2788 38.9129 29.4867 39.1624C29.9588 39.7289 30.3224 40.3159 30.6323 40.9907C31.7513 43.4276 33.0868 45.8105 33.7958 48.4103" stroke="#D99857" stroke-width="2.4344" stroke-linecap="round"/>
<path d="M29.3752 38.5166C29.6217 38.617 29.8565 38.854 30.0438 39.0384C30.2758 39.2668 30.5086 39.4759 30.7165 39.7253C31.1886 40.2918 31.5521 40.8789 31.862 41.5537C32.981 43.9906 34.3165 46.3735 35.0255 48.9733" stroke="#D99857" stroke-width="2.4344" stroke-linecap="round"/>
<path d="M17.2563 40.0148C17.2563 41.0774 16.8807 42.1836 16.5879 43.1986C16.2755 44.2816 15.6502 45.2551 15.23 46.298C14.8262 47.2998 14.5151 48.346 14.0901 49.3375C13.5359 50.6308 13.0196 51.9955 12.602 53.341C12.4339 53.8828 12.1515 54.3864 11.9723 54.9241C11.8331 55.3416 11.6104 55.7819 11.3391 56.1308C11.2592 56.2334 11.3538 55.8692 11.3883 55.7438C11.6951 54.6281 12.284 53.5644 12.7251 52.4967C13.3471 50.9911 13.9008 49.4328 14.6108 47.9655C15.2413 46.6624 15.5621 45.2545 15.9617 43.8741C16.1324 43.2842 16.226 42.6966 16.3698 42.1045C16.4514 41.7684 16.5109 41.3582 16.7497 41.0913C16.9071 40.9154 16.9368 40.6665 17.0663 40.4722C17.1958 40.278 17.318 40.0805 17.4463 39.8882" stroke="#D99857" stroke-width="2.4344" stroke-linecap="round"/>
<path d="M15.3566 43.1812C15.2773 43.4786 15.3033 43.7832 15.2229 44.0818C15.1244 44.4476 14.9911 44.7986 14.8218 45.1372C14.448 45.8848 14.1086 46.6063 13.7875 47.3746C13.4657 48.1447 13.0279 48.8585 12.6829 49.6191C12.3104 50.4402 12.0377 51.2804 11.7119 52.1169C11.2446 53.3168 10.624 54.464 10.4032 55.7334C10.3059 56.2931 10.1007 56.8541 10.1007 57.429" stroke="#D99857" stroke-width="2.4344" stroke-linecap="round"/>
<path d="M16.243 41.1543C15.9943 41.1543 15.9987 41.4914 15.951 41.6714C15.7385 42.4743 15.1345 43.2588 14.6881 43.9441C14.1255 44.8076 13.4351 45.5827 12.8587 46.4418C12.2489 47.3509 11.7825 48.3428 11.2405 49.2914C10.3191 50.9039 9.81331 52.6196 9.26334 54.3819C8.88644 55.5897 8.7075 56.6737 8.7075 57.9351" stroke="#D99857" stroke-width="2.4344" stroke-linecap="round"/>
<path d="M17.9719 38.4658C17.7254 38.5662 17.4907 38.8032 17.3033 38.9876C17.0714 39.2161 16.8386 39.4251 16.6307 39.6746C16.1586 40.2411 15.795 40.8281 15.4851 41.503C14.3662 43.9398 13.0307 46.3228 12.3216 48.9225" stroke="#D99857" stroke-width="2.4344" stroke-linecap="round"/>
<path d="M16.7423 39.0288C16.4958 39.1292 16.2611 39.3662 16.0737 39.5506C15.8417 39.779 15.609 39.9881 15.4011 40.2375C14.929 40.8041 14.5654 41.3911 14.2555 42.0659C13.1366 44.5028 11.8011 46.8857 11.092 49.4855" stroke="#D99857" stroke-width="2.4344" stroke-linecap="round"/>
<path d="M25.569 34.1506C25.569 35.6913 25.569 37.232 25.569 38.7728C25.569 39.7973 25.7182 36.7239 25.7978 35.6995C25.8499 35.0301 25.8511 34.3595 25.8113 33.69C25.7839 33.2301 25.3267 32.7762 25.3267 32.3164" stroke="#D99857" stroke-width="2.4344" stroke-linecap="round"/>
<path d="M13.27 24.932C13.27 26.2154 13.202 27.5416 14.3572 28.3334C15.2045 28.9141 16.4805 29.1163 17.4842 29.0385C18.9014 28.9287 19.4949 27.2059 19.7501 26.0461C19.9639 25.0743 19.9352 24.0343 19.9008 23.0455C19.8747 22.2946 19.6483 21.5474 19.2334 20.9169C18.8128 20.2778 18.2055 19.8682 17.4573 19.706C16.878 19.5803 16.0656 19.4635 15.5467 19.819C14.9789 20.2079 14.6107 20.8667 14.2657 21.4444C13.9878 21.9098 13.7711 22.4037 13.6199 22.9244C13.5046 23.3216 13.5122 23.7263 13.5122 24.1354C13.5122 24.5827 13.4743 25.0505 13.5607 25.4917C13.6871 26.1377 14.0723 26.663 14.5295 27.1117C14.7335 27.3119 14.9302 27.527 15.2103 27.6176C15.569 27.7337 15.9666 27.6967 16.3378 27.693C17.2428 27.6839 17.7064 27.1622 17.9686 26.3259C18.1674 25.6921 18.2108 25.071 18.2108 24.4099C18.2108 23.8713 18.2302 23.3623 18.0063 22.8599C17.7427 22.2683 17.5006 21.455 16.7361 21.4444C16.3629 21.4392 16.1772 21.4647 15.9584 21.7888C15.6606 22.23 15.4606 22.8131 15.3637 23.3335C15.261 23.8847 15.2699 24.5104 15.3099 25.0692C15.3373 25.454 15.553 25.8268 15.8965 26.0138C16.919 26.5703 16.7627 24.8492 16.7576 24.3023C16.7569 24.2178 16.7681 23.762 16.6339 23.7237C16.4927 23.6834 16.4607 23.6631 16.3701 23.5272" stroke="#73A283" stroke-width="2.4344" stroke-linecap="round"/>
<path d="M33.1345 24.9813C33.1345 26.2648 33.2026 27.5909 32.0473 28.3828C31.2001 28.9635 29.9241 29.1656 28.9203 29.0878C27.5031 28.978 26.9096 27.2553 26.6545 26.0954C26.4407 25.1236 26.4694 24.0836 26.5038 23.0949C26.5299 22.3439 26.7562 21.5967 27.1711 20.9662C27.5917 20.3271 28.199 19.9175 28.9472 19.7553C29.5265 19.6296 30.3389 19.5128 30.8579 19.8683C31.4256 20.2572 31.7938 20.916 32.1388 21.4937C32.4168 21.9591 32.6335 22.453 32.7847 22.9738C32.9 23.3709 32.8923 23.7756 32.8923 24.1847C32.8923 24.632 32.9302 25.0998 32.8439 25.541C32.7175 26.187 32.3323 26.7123 31.8751 27.161C31.6711 27.3613 31.4743 27.5763 31.1943 27.6669C30.8356 27.783 30.4379 27.746 30.0667 27.7423C29.1617 27.7332 28.6982 27.2115 28.4359 26.3752C28.2372 25.7414 28.1937 25.1203 28.1937 24.4592C28.1937 23.9206 28.1744 23.4117 28.3983 22.9092C28.6618 22.3176 28.9039 21.5043 29.6684 21.4937C30.0416 21.4885 30.2273 21.514 30.4461 21.8381C30.7439 22.2793 30.944 22.8624 31.0409 23.3828C31.1435 23.934 31.1346 24.5597 31.0947 25.1185C31.0672 25.5033 30.8515 25.8761 30.508 26.0631C29.4856 26.6196 29.6418 24.8985 29.6469 24.3516C29.6477 24.2671 29.6365 23.8113 29.7707 23.773C29.9118 23.7327 29.9438 23.7124 30.0344 23.5766" stroke="#73A283" stroke-width="2.4344" stroke-linecap="round"/>
<path d="M31.8607 24.9262C31.8607 25.9505 31.9079 27.0089 31.1072 27.6408C30.52 28.1042 29.6357 28.2655 28.94 28.2035C27.9578 28.1158 27.5465 26.741 27.3697 25.8153C27.2215 25.0399 27.2414 24.2099 27.2652 23.4208C27.2833 22.8215 27.4402 22.2252 27.7277 21.722C28.0192 21.212 28.4401 20.8851 28.9587 20.7556C29.3601 20.6554 29.9232 20.5621 30.2829 20.8458C30.6763 21.1562 30.9315 21.6819 31.1706 22.143C31.3633 22.5144 31.5134 22.9086 31.6182 23.3241C31.6981 23.6411 31.6928 23.964 31.6928 24.2906C31.6928 24.6475 31.7191 25.0208 31.6593 25.3729C31.5717 25.8885 31.3047 26.3077 30.9878 26.6658C30.8465 26.8256 30.7101 26.9972 30.516 27.0695C30.2674 27.1621 29.9918 27.1326 29.7345 27.1297C29.1073 27.1224 28.7861 26.7061 28.6043 26.0387C28.4666 25.5328 28.4365 25.0372 28.4365 24.5096C28.4365 24.0798 28.423 23.6736 28.5782 23.2726C28.7609 22.8005 28.9287 22.1514 29.4585 22.143C29.7171 22.1388 29.8459 22.1592 29.9975 22.4179C30.2039 22.77 30.3425 23.2353 30.4097 23.6506C30.4808 24.0904 30.4746 24.5898 30.447 25.0358C30.4279 25.3428 30.2784 25.6404 30.0404 25.7896C29.3318 26.2337 29.4401 24.8602 29.4436 24.4237C29.4441 24.3563 29.4364 23.9926 29.5294 23.962C29.6272 23.9298 29.6494 23.9136 29.7122 23.8052" stroke="#7EB190" stroke-width="2.4344" stroke-linecap="round"/>
<path d="M19.1813 25.4545C19.0001 26.4627 18.8594 27.5127 17.9596 27.993C17.2997 28.3453 16.4007 28.3476 15.727 28.1635C14.7758 27.9035 14.6142 26.4776 14.6038 25.5353C14.5952 24.7458 14.7616 23.9324 14.9246 23.16C15.0484 22.5733 15.3083 22.0142 15.6803 21.5698C16.0574 21.1194 16.5295 20.8721 17.0628 20.8364C17.4756 20.8087 18.0463 20.8165 18.3501 21.1594C18.6825 21.5345 18.8406 22.097 18.9944 22.5931C19.1183 22.9928 19.1964 23.4072 19.2261 23.8348C19.2486 24.1609 19.1863 24.4778 19.1285 24.7992C19.0654 25.1505 19.0252 25.5226 18.9041 25.8586C18.7267 26.3505 18.3898 26.7158 18.0146 27.0123C17.8471 27.1445 17.6826 27.2893 17.4787 27.3262C17.2177 27.3734 16.9516 27.2956 16.699 27.2471C16.0829 27.1291 15.8404 26.6625 15.7795 25.9735C15.7334 25.4512 15.7915 24.958 15.8848 24.4388C15.9608 24.0158 16.0194 23.6136 16.2431 23.2464C16.5064 22.814 16.7863 22.2049 17.3093 22.2903C17.5646 22.3319 17.6877 22.3747 17.7912 22.6562C17.9321 23.0392 17.9862 23.5217 17.9788 23.9423C17.971 24.3878 17.8766 24.8782 17.7705 25.3123C17.6975 25.6111 17.4977 25.8775 17.237 25.9823C16.461 26.2941 16.8106 24.9614 16.8912 24.5324C16.9037 24.4661 16.9604 24.1068 17.0573 24.0931C17.1593 24.0787 17.184 24.0668 17.265 23.9711" stroke="#7EB190" stroke-width="2.4344" stroke-linecap="round"/>
<path d="M23.3062 28.9849C23.2193 29.0826 23.3524 29.1161 23.3524 28.9849" stroke="#FFBFA5" stroke-width="2.4344" stroke-linecap="round"/>
<path d="M23.3751 37.9328C23.4483 37.8987 23.573 37.9341 23.6605 37.9301C23.8402 37.9219 24.0118 37.8956 24.1848 37.8707C24.451 37.8323 24.7506 37.8003 24.9522 37.6735C25.125 37.5648 25.3444 37.483 25.5293 37.3816C25.6689 37.3051 25.7957 37.2208 25.9379 37.1452C26.5221 36.8347 27.0423 36.4261 27.3452 35.9658C27.4262 35.8428 27.4853 35.7119 27.5677 35.5899C27.6235 35.5072 27.7088 35.2384 27.7001 35.3311C27.681 35.5357 27.6096 35.7456 27.5567 35.9461C27.5097 36.1239 27.5013 36.3265 27.4988 36.5092C27.4955 36.7526 27.5262 36.999 27.5195 37.2424C27.5082 37.6572 27.4814 38.0712 27.4906 38.4875C27.4932 38.606 27.5306 38.7284 27.5258 38.8456C27.5239 38.8928 27.5241 38.8785 27.4952 38.8428C27.2789 38.5756 27.0881 38.3029 26.9244 38.0219C26.917 38.0094 26.8535 37.8663 26.8435 37.8946C26.8088 37.9923 26.7719 38.0904 26.737 38.1886C26.6594 38.4069 26.5668 38.6997 26.3466 38.8721C26.0852 39.0767 25.5777 39.1689 25.2121 39.2654C24.979 39.327 24.7423 39.3821 24.5069 39.4402C24.4877 39.4449 24.3038 39.4971 24.3314 39.4984C24.5822 39.51 24.8862 39.3897 25.1059 39.3358C25.3708 39.2708 25.6259 39.1966 25.885 39.1238C26.0872 39.067 26.2813 39.0132 26.4518 38.9226C26.6529 38.8157 26.8226 38.739 26.9395 38.576C26.9574 38.5511 27.0453 38.4817 27.0958 38.4844C27.1203 38.4858 27.1939 38.4859 27.2112 38.4997C27.2284 38.5135 27.1982 38.5731 27.2009 38.5734C27.3123 38.5838 27.6062 38.4719 27.5097 38.5039C27.4281 38.531 27.3638 38.5756 27.2771 38.6031C27.0583 38.6724 26.8427 38.7651 26.6357 38.8482C26.2687 38.9958 25.7972 39.0983 25.3785 39.1759C24.4197 39.3536 23.3573 39.3686 22.3461 39.3465C22.0044 39.339 21.6803 39.3203 21.338 39.2883C21.016 39.2582 20.8151 39.1882 20.5603 39.0437C20.2318 38.8574 19.8917 38.5937 19.6561 38.3533C19.5283 38.2229 19.4396 38.0476 19.4204 37.8984C19.3636 37.4576 19.2845 37.0093 19.2118 36.5666C19.1723 36.3267 19.2191 36.0842 19.2413 35.8472C19.2598 35.6494 19.3277 35.5215 19.4491 35.3524C19.5589 35.1993 19.7089 34.9764 19.9199 34.8731C19.9677 34.8497 20.2198 34.7071 20.1189 34.7301C20.0099 34.755 19.9504 34.866 19.8979 34.9253C19.7199 35.1265 19.5844 35.3562 19.4658 35.5777C19.3469 35.7997 19.3148 36.0417 19.1719 36.2577C19.0719 36.409 18.953 36.5507 18.8689 36.7063C18.6985 37.0214 18.6374 37.3977 18.7708 37.7359C18.8344 37.8972 18.9198 38.0253 19.1217 38.1349C19.489 38.3344 19.9205 38.4999 20.3486 38.6261C20.6793 38.7235 21.0163 38.7947 21.3663 38.8389C21.9155 38.9082 22.5006 38.9742 23.0515 38.9672C23.4983 38.9615 23.9353 38.8991 24.3481 38.806C24.3956 38.7953 24.7473 38.725 24.7514 38.6821C24.7533 38.6616 24.1853 38.6171 24.1701 38.6152C23.6568 38.5543 23.1281 38.4429 22.6493 38.291C22.2675 38.1699 21.8699 38.038 21.5445 37.8519C21.2998 37.7119 21.0652 37.5638 20.8331 37.4146C20.1901 37.0012 19.8651 36.4507 19.9174 35.8912C19.9262 35.7979 19.9349 35.7045 19.9436 35.6111C19.9485 35.5591 19.9323 35.5304 19.9483 35.598C19.9635 35.6622 20.084 35.7288 20.1502 35.7717C20.365 35.9108 20.5433 36.0672 20.7462 36.2129C21.535 36.779 22.5139 37.2174 23.5864 37.4733C23.9458 37.5591 24.3761 37.6088 24.7369 37.5516C24.9728 37.5142 25.1588 37.4169 25.376 37.3673" stroke="#3D2622" stroke-width="1.53379" stroke-linecap="round"/>
<path d="M22.2937 38.3947C22.6271 38.4 22.9624 38.2803 23.2613 38.2065C23.6679 38.1061 24.0738 38.0149 24.4925 37.9368C24.831 37.8736 25.1205 37.7749 25.3969 37.6346C25.5987 37.5321 25.7963 37.4249 25.9793 37.3071C26.1631 37.1888 26.3975 37.1147 26.596 37.0088C26.6925 36.9573 26.7925 36.8954 26.8687 36.8298C26.8948 36.8074 26.9677 36.715 26.9537 36.7577C26.8977 36.9287 26.9926 37.1497 27.0474 37.3212C27.1035 37.4966 27.1197 37.6751 27.1686 37.8505C27.2617 38.1848 27.202 38.5376 27.1644 38.8679C27.1194 39.2627 26.4498 39.4409 25.9859 39.5467C25.496 39.6584 24.9799 39.6652 24.4715 39.7272C23.9416 39.7918 23.4808 39.9128 22.9821 40.0354C22.8258 40.0738 22.6763 40.1186 22.5162 40.151C22.353 40.184 22.3174 40.1873 22.3048 40.054C22.2729 39.7151 22.2297 39.3527 22.2611 39.0168" stroke="#55423F" stroke-width="1.57015" stroke-linecap="round"/>
<path d="M23.4372 38.8956C23.4372 38.9822 23.4372 39.0689 23.4372 39.1555C23.4372 39.1987 23.3983 39.1885 23.4112 39.1437C23.4488 39.0119 23.5981 38.8788 23.6986 38.7945C23.8916 38.6328 24.0949 38.5711 24.336 38.5212C24.6958 38.4466 25.0656 38.4208 25.4287 38.3674C25.7532 38.3197 26.006 38.2108 26.2718 38.0197C26.3503 37.9634 26.4266 37.896 26.4932 37.8259C26.5719 37.743 26.6446 37.6514 26.7265 37.5718C26.8165 37.4843 26.9023 37.3678 27.0132 37.3044C27.0702 37.2718 27.0341 37.3141 27.0236 37.3668C26.9819 37.5754 26.9668 37.7834 26.9508 37.9952C26.9337 38.2211 26.9303 38.4486 26.9107 38.6742C26.9049 38.741 26.9187 38.9265 26.8468 38.9624" stroke="#55423F" stroke-width="2.4344" stroke-linecap="round"/>
<path d="M21.8174 38.9003C21.8876 38.8896 21.8742 38.6495 21.8776 38.6073C21.9032 38.2878 21.9041 37.9763 21.7602 37.6823C21.5086 37.1684 21.1609 37.1346 20.638 37.0857C20.0032 37.0262 19.385 37.1065 18.9441 37.6172C18.5672 38.0538 18.3868 38.5938 18.3985 39.1666C18.411 39.7746 19.0568 40.1239 19.5535 40.3271C20.1446 40.569 21.0044 40.8731 21.6351 40.6148C22.2241 40.3737 22.5389 39.7605 22.6449 39.1634C22.7984 38.2988 22.2195 37.5269 21.5804 36.9972C21.1001 36.5992 20.4119 36.1526 19.7523 36.3163C19.1878 36.4565 18.7426 36.8658 18.3785 37.2984C17.9164 37.8477 17.5143 38.4558 17.1681 39.0843C16.8126 39.7295 16.734 40.3946 17.3069 40.9472C17.9054 41.5244 18.9566 41.7104 19.7562 41.566C20.5024 41.4313 21.3856 40.8036 21.6798 40.0982C22.0786 39.1421 21.8717 38.0583 21.1421 37.3222C20.7368 36.9132 20.2751 36.7259 19.708 36.6527C18.8293 36.5392 18.0962 36.9681 17.4646 37.5498C16.7378 38.2191 16.1849 39.4268 16.575 40.4016C17.0294 41.5369 18.1163 42.0969 19.2797 42.2024C20.5426 42.317 21.7867 41.6522 22.4082 40.5451C22.8828 39.6997 22.9184 38.5939 22.408 37.7648C21.8382 36.839 20.6194 36.2596 19.5354 36.3962C18.6357 36.5096 17.9624 37.4341 17.6123 38.1899C17.2527 38.9663 17.2183 39.8387 17.6793 40.5869C18.4996 41.9185 20.3719 41.9148 21.5152 41.0005C22.0604 40.5646 22.1528 39.6979 22.1403 39.0489C22.1316 38.5966 21.9914 38.1391 21.7745 37.7437C21.5171 37.2744 21.1092 37.0568 20.5929 36.9649C19.6893 36.8041 18.6648 37.1613 17.9608 37.7346C17.6589 37.9804 17.4378 38.2512 17.2921 38.6152C17.1023 39.0893 17.0108 39.7764 17.1295 40.2751C17.3524 41.2118 18.1947 41.6958 19.0592 41.9323C19.9165 42.1669 21.0589 42.2946 21.8586 41.8065C22.7345 41.2719 22.7247 39.8662 22.472 39.0071C22.293 38.3984 22.0472 37.484 21.4201 37.1916" stroke="#BF6A20" stroke-width="0.570962" stroke-linecap="round"/>
<path d="M18.9279 38.9581C19.2424 38.9428 19.5789 38.6801 19.783 38.4591C19.9682 38.2586 19.7325 38.267 19.5691 38.2934C19.1338 38.3638 18.651 38.6068 18.3479 38.9293C18.2809 39.0006 18.07 39.3196 18.1772 39.4304C18.2399 39.4952 18.5048 39.4755 18.5785 39.4807C18.9186 39.5047 19.2524 39.4839 19.5852 39.4056C20.0622 39.2934 20.5004 39.0756 20.5394 38.5481C20.5676 38.1675 20.0871 38.0695 19.794 38.0304C19.2458 37.9572 18.6904 38.2659 18.3758 38.7098C18.1767 38.9906 18.1406 39.3154 18.1097 39.6462C18.0961 39.791 18.2354 39.8514 18.3542 39.9131C18.7124 40.0992 19.2085 40.1314 19.6012 40.1682C20.0198 40.2074 20.3471 40.1814 20.5182 39.7478C20.8491 38.9093 19.4508 38.5768 18.8653 38.6536C18.3844 38.7167 18.1077 39.1369 18.0248 39.58C17.9888 39.7729 17.9308 40.0356 18.1549 40.1166C18.838 40.3636 19.9455 40.6238 20.498 40.0027C20.9426 39.5028 20.9877 38.478 20.8168 37.8603C20.7609 37.6582 20.7164 37.4879 20.5169 37.3879C20.4966 37.3778 20.2528 37.2994 20.3856 37.332C20.7388 37.4185 20.9049 37.9619 20.9553 38.2684C21.0332 38.7426 21.0793 39.2442 21.0502 39.7248C21.0355 39.9672 21.0441 40.2797 20.8352 40.4457C20.6494 40.5935 20.4405 40.7082 20.2156 40.7828C20.0059 40.8524 19.7846 40.984 19.5579 40.9817C19.3697 40.9798 19.1783 40.948 18.9909 40.9304C18.8782 40.9199 18.7133 40.9409 18.6347 40.8461C18.5011 40.685 18.4026 40.4889 18.2952 40.31C18.1932 40.1401 18.1458 40.0232 18.3365 39.9078C18.8777 39.5803 19.4207 39.2335 20.0061 38.9934" stroke="#BF6A20" stroke-width="1.57015" stroke-linecap="round"/>
<path d="M18.5643 39.6753C18.6036 39.7619 18.9958 39.5343 19.0394 39.5098C19.3135 39.3555 19.5028 39.1611 19.6697 38.8979C19.7995 38.6931 19.9973 38.1511 19.6866 38.02C19.2334 37.8289 18.6922 38.0743 18.5236 38.5339C18.3974 38.8779 18.5478 39.0494 18.8837 39.1123C19.2154 39.1743 19.5542 39.0647 19.6852 38.732C19.73 38.6183 19.7887 38.4373 19.7383 38.3157C19.6828 38.1814 19.3745 38.1988 19.2696 38.2165C18.8875 38.281 18.4275 38.6376 18.3241 39.0287C18.2773 39.2058 18.2707 39.3588 18.4665 39.4165C18.7296 39.494 19.0344 39.5095 19.2358 39.2899C19.4198 39.0894 19.5466 38.683 19.4591 38.42C19.3649 38.1371 18.8146 38.2266 18.6336 38.3286C18.3269 38.5015 18.0771 38.6708 18.0361 39.0443C18.0168 39.2208 17.9691 39.4204 18.0491 39.5873C18.1341 39.7645 18.3706 39.7445 18.5461 39.7487C19.128 39.763 19.3148 39.2158 19.5884 38.8264" stroke="#55423F" stroke-width="0.999183" stroke-linecap="round"/>
<path d="M19.8353 39.462C20.3923 39.5141 20.8207 39.8335 21.2147 40.2123C21.3083 40.3023 21.5502 40.6052 21.4849 40.4929C21.3459 40.254 21.1786 40.03 20.9804 39.8358C20.4763 39.3417 19.8417 38.9645 19.2254 38.6276C18.9217 38.4616 18.5995 38.3657 18.261 38.2934C18.0393 38.246 17.8391 38.2028 17.6119 38.1816C17.5297 38.1739 17.5675 38.203 17.6292 38.2087C17.8642 38.2307 18.1048 38.258 18.3341 38.3158C18.9992 38.4837 19.4872 39.0475 20.0059 39.4581C20.2368 39.6409 20.467 39.8248 20.6913 40.0158C20.8128 40.1193 20.9351 40.2541 21.0827 40.3191" stroke="#55423F" stroke-width="0.999183" stroke-linecap="round"/>
<path d="M19.305 40.8252C19.3333 40.8278 19.3466 40.8308 19.3694 40.8159C19.4046 40.7927 19.501 40.9068 19.5234 40.9256C19.6742 41.0519 19.8384 41.1596 19.9916 41.2838C20.1416 41.4054 20.2987 41.4881 20.4766 41.5559C20.6573 41.6248 20.3198 41.4593 20.288 41.4408C20.0383 41.2959 19.7411 41.0622 19.4458 41.0169C19.3142 40.9967 19.1857 41.0064 19.0565 40.9991C18.9481 40.993 18.9668 40.8567 18.9752 40.7669C18.9791 40.7253 18.916 40.8261 18.8869 40.8562C18.8129 40.9328 18.7313 41.0103 18.6502 41.0794C18.5582 41.1578 18.4445 41.2384 18.3193 41.2445C18.1184 41.2543 18.0141 41.0442 17.8753 40.9324C17.7646 40.8432 17.643 40.7662 17.5343 40.6781C17.486 40.639 17.4665 40.5616 17.4519 40.505C17.4063 40.3279 17.3969 40.5637 17.3956 40.6268C17.3881 40.9981 17.56 41.1673 17.8675 41.3315C18.0794 41.4446 18.2692 41.6001 18.4843 41.7058C18.7062 41.8149 18.9982 41.8218 19.2413 41.8445C19.4511 41.8642 19.6674 41.8714 19.8767 41.8437C20.0355 41.8228 20.1797 41.7683 20.3404 41.7699" stroke="#ED955B" stroke-width="0.999183" stroke-linecap="round"/>
<path d="M19.7356 36.6458C19.8229 36.654 20.0846 36.6785 19.9973 36.6703C19.8325 36.6549 19.6762 36.6665 19.5142 36.7062C19.3631 36.7431 19.2141 36.8166 19.0813 36.8957C19.0477 36.9157 19.0082 36.9243 18.9777 36.9495C18.9704 36.9556 19.0726 36.8938 19.089 36.8833C19.2219 36.7981 19.4091 36.6723 19.5744 36.6713C19.6748 36.6706 19.7787 36.6893 19.8786 36.6986C20.2009 36.7288 20.4996 36.6856 20.7783 36.8814" stroke="#DBF3FC" stroke-width="0.999183" stroke-linecap="round"/>
<path d="M18.4908 37.7239C18.5597 37.6668 18.6472 37.6218 18.7213 37.5719C18.7976 37.5206 18.8758 37.4798 18.9674 37.4657C19.0106 37.4591 19.0549 37.4489 19.0965 37.4357C19.1388 37.4224 19.1991 37.447 19.2438 37.4419C19.3523 37.4297 19.4807 37.4578 19.5839 37.4872C19.7203 37.526 19.8338 37.5647 19.943 37.6599C20.0021 37.7115 20.0411 37.7706 20.0902 37.8298C20.1244 37.8711 20.1723 37.9176 20.1936 37.9675C20.2437 38.0847 20.3157 38.2365 20.3035 38.3671C20.2928 38.482 20.2687 38.576 20.242 38.6875" stroke="#F7F2EA" stroke-width="0.14274" stroke-linecap="round"/>
<path d="M16.2231 24.272C16.2231 25.064 16.0449 26.0861 16.674 26.7152C17.0085 27.0497 17.8158 27.1703 18.1634 26.7917C18.3733 26.5632 18.5015 26.2834 18.5351 25.9773C18.605 25.3409 18.5858 24.6587 18.4613 24.0315C18.3705 23.5736 18.2591 23.1138 18.0733 22.6841C17.9749 22.4568 17.7714 22.3068 17.5267 22.266C16.6338 22.1172 16.3264 23.1849 16.1985 23.8593C16.1231 24.2567 16.0784 24.6598 16.0755 25.0645C16.0735 25.341 16.0716 25.5867 16.1793 25.8461C16.3816 26.3334 16.6297 26.6996 17.2069 26.707C17.4391 26.71 17.6497 26.7221 17.8464 26.584C18.0617 26.4329 18.1472 26.1517 18.24 25.9199" stroke="#238860" stroke-width="2.4344" stroke-linecap="round"/>
<path d="M27.3968 24.2143C27.3968 25.0064 27.2186 26.0285 27.8477 26.6576C28.1822 26.9921 28.9895 27.1126 29.3371 26.7341C29.547 26.5056 29.6752 26.2258 29.7088 25.9197C29.7787 25.2832 29.7595 24.6011 29.635 23.9739C29.5442 23.516 29.4328 23.0562 29.247 22.6265C29.1486 22.3991 28.9451 22.2492 28.7004 22.2084C27.8075 22.0596 27.5001 23.1273 27.3722 23.8017C27.2968 24.1991 27.2521 24.6021 27.2492 25.0069C27.2472 25.2834 27.2453 25.529 27.353 25.7885C27.5553 26.2758 27.8034 26.642 28.3806 26.6494C28.6128 26.6523 28.8234 26.6645 29.0201 26.5264C29.2354 26.3753 29.3209 26.0941 29.4137 25.8623" stroke="#238860" stroke-width="2.4344" stroke-linecap="round"/>
<path d="M16.0044 25.3001C15.951 25.3075 15.983 25.9098 15.983 26.0391C15.983 26.2834 16.1199 26.4495 16.2389 26.6409C16.4546 26.9876 16.6713 27.3193 17.0864 27.3193C17.6567 27.3193 18.2771 26.8106 18.4373 26.2014C18.5064 25.9388 18.5325 25.6623 18.5325 25.3898C18.5325 25.3172 18.5474 25.2236 18.5159 25.1575C18.4686 25.0585 18.2082 25.4387 18.185 25.4663C18.0402 25.6387 17.8874 25.7925 17.7232 25.9415C17.6134 26.0411 17.5283 26.0365 17.3851 26.0365C17.12 26.0365 17.0222 25.6844 16.9043 25.4663" stroke="#075536" stroke-width="2.4344" stroke-linecap="round"/>
<path d="M27.2796 25.3001C27.2262 25.3075 27.2582 25.9098 27.2582 26.0391C27.2582 26.2834 27.395 26.4495 27.5141 26.6409C27.7297 26.9876 27.9465 27.3193 28.3615 27.3193C28.9319 27.3193 29.5522 26.8106 29.7125 26.2014C29.7815 25.9388 29.8077 25.6623 29.8077 25.3898C29.8077 25.3172 29.8225 25.2236 29.791 25.1575C29.7437 25.0585 29.4834 25.4387 29.4601 25.4663C29.3154 25.6387 29.1625 25.7925 28.9983 25.9415C28.8885 26.0411 28.8034 26.0365 28.6603 26.0365C28.3951 26.0365 28.2974 25.6844 28.1794 25.4663" stroke="#075536" stroke-width="2.4344" stroke-linecap="round"/>
<path d="M17.1602 25.2925C17.1602 25.0745 17.1602 24.8565 17.1602 24.6385C17.1602 24.5833 17.1565 24.2088 17.0803 24.4289C16.9736 24.7374 17.0704 25.2109 17.0704 25.5321C17.0704 25.7359 17.0872 26.0761 17.3175 25.7368C17.6449 25.2542 17.6544 24.6671 17.6544 24.1044C17.6544 23.9456 17.2595 23.9258 17.2051 24.0345" stroke="black" stroke-width="2.4344" stroke-linecap="round"/>
<path d="M28.5271 25.382C28.5271 24.9523 28.6641 24.3515 28.3923 24.0117C28.3328 23.9374 28.3024 24.5764 28.3024 24.6407C28.3024 24.8806 28.2257 25.234 28.3474 25.4469C28.5543 25.809 28.7517 24.7907 28.7517 24.6083C28.7517 24.3126 28.7509 23.8096 28.3474 23.8096" stroke="black" stroke-width="2.4344" stroke-linecap="round"/>
<path d="M26.751 22.3477C26.751 22.4865 26.8884 22.5199 26.9942 22.5955C27.0467 22.633 27.1704 22.6837 27.2145 22.5955C27.275 22.4746 27.0884 22.3382 27.0091 22.2765C26.9466 22.2279 26.83 22.265 26.751 22.265" stroke="white" stroke-width="2.4344" stroke-linecap="round"/>
<path d="M15.0767 22.0342C15.0767 22.173 15.2141 22.2065 15.3199 22.282C15.3724 22.3195 15.4961 22.3702 15.5402 22.282C15.6006 22.1612 15.4141 22.0247 15.3348 21.963C15.2723 21.9144 15.1557 21.9516 15.0767 21.9516" stroke="white" stroke-width="2.4344" stroke-linecap="round"/>
<path d="M13.0402 14.4355H16.9908" stroke="#D6B2C8" stroke-width="2.4344" stroke-linecap="round"/>
<path d="M16.9908 14.4356C16.8224 13.8273 16.2155 13.2332 15.7978 12.78C15.347 12.2909 14.8977 11.8225 14.3787 11.4007C14.0653 11.146 13.6986 10.9027 13.34 10.7122C13.1063 10.588 12.8863 10.5006 12.6729 10.327C12.5823 10.2534 12.2578 9.9193 12.2578 9.93148C12.2578 10.3604 12.4044 10.7846 12.4947 11.2019C12.6176 11.7701 12.7066 12.3499 12.7576 12.9286C12.7732 13.1057 12.7524 13.2837 12.8054 13.456C12.8253 13.5207 12.8445 13.577 12.8445 13.6444C12.8445 13.8677 12.8486 13.1978 12.8424 12.9747C12.8353 12.7204 12.8079 12.4672 12.8054 12.2128C12.8046 12.1231 12.7481 11.8196 12.9184 11.9449C13.4942 12.3685 13.851 13.0376 14.3874 13.5063C14.5239 13.6255 14.9568 13.8775 14.9568 13.5084C14.9568 13.2467 14.9054 13.0768 14.6265 12.9747C14.3758 12.8828 14.0027 12.8405 13.742 12.9182C13.4589 13.0026 13.1733 13.2204 12.9619 13.4184C12.9038 13.4728 13.0481 14.3219 13.0207 14.3746" stroke="#D6B2C8" stroke-width="2.4344" stroke-linecap="round"/>
<path d="M12.4281 9.38135C12.6741 9.38135 12.8464 9.55613 13.0425 9.68564C13.3737 9.90437 13.6917 10.1329 14.002 10.3782C14.8103 11.0174 15.6007 11.6979 16.1728 12.5531C16.3235 12.7782 16.4152 13.0238 16.5527 13.2531C16.6437 13.4047 16.7527 13.548 16.8067 13.7142C16.8552 13.8639 16.8374 14.2433 16.9985 14.3209" stroke="#D6B2C8" stroke-width="2.4344" stroke-linecap="round"/>
<path d="M13.1635 14.4678C13.1199 14.5051 13.0064 14.4791 12.9488 14.5037C12.9119 14.5195 12.922 14.4686 12.922 14.4484C12.922 14.4155 12.8961 14.4072 12.8818 14.3831C12.8272 14.2911 12.7976 14.1697 12.7677 14.0673C12.7025 13.844 12.604 13.6362 12.6001 13.3984C12.5974 13.2362 12.587 13.0662 12.5703 12.9046C12.5525 12.7339 12.5156 12.5674 12.5054 12.3957C12.4996 12.2978 12.4966 12.2004 12.492 12.1021C12.4728 11.6954 12.3563 11.2946 12.3318 10.887C12.3265 10.7984 12.3078 10.717 12.2811 10.6336C12.2714 10.6031 12.272 10.5638 12.305 10.5532" stroke="#D6B2C8" stroke-width="2.4344" stroke-linecap="round"/>
<path d="M33.5569 14.4341H29.1791" stroke="#D6B2C8" stroke-width="2.4344" stroke-linecap="round"/>
<path d="M29.179 14.4334C29.3656 13.81 30.0382 13.201 30.501 12.7365C31.0006 12.2352 31.4984 11.755 32.0735 11.3227C32.4208 11.0616 32.8272 10.8122 33.2245 10.6169C33.4835 10.4897 33.7273 10.4001 33.9638 10.2222C34.0641 10.1467 34.4237 9.80426 34.4237 9.81674C34.4237 10.2564 34.2612 10.6912 34.1612 11.1189C34.025 11.7014 33.9264 12.2956 33.8699 12.8888C33.8526 13.0703 33.8756 13.2527 33.8169 13.4294C33.7949 13.4956 33.7735 13.5534 33.7735 13.6225C33.7735 13.8513 33.7691 13.1648 33.7759 12.936C33.7837 12.6754 33.8142 12.4159 33.8169 12.1551C33.8178 12.0632 33.8804 11.7521 33.6917 11.8805C33.0537 12.3147 32.6583 13.0006 32.0638 13.4809C31.9126 13.6031 31.4329 13.8614 31.4329 13.4831C31.4329 13.2149 31.4899 13.0407 31.799 12.936C32.0768 12.8419 32.4902 12.7984 32.779 12.8781C33.0928 12.9646 33.4093 13.1879 33.6435 13.3908C33.7079 13.4466 33.548 14.3169 33.5783 14.371" stroke="#D6B2C8" stroke-width="2.4344" stroke-linecap="round"/>
<path d="M34.2351 9.25342C33.9625 9.25342 33.7715 9.43257 33.5543 9.56532C33.1872 9.78952 32.8349 10.0237 32.4911 10.2752C31.5954 10.9304 30.7196 11.6279 30.0855 12.5044C29.9186 12.7352 29.817 12.9869 29.6646 13.222C29.5638 13.3773 29.4429 13.5243 29.3832 13.6946C29.3294 13.848 29.3491 14.237 29.1706 14.3165" stroke="#D6B2C8" stroke-width="2.4344" stroke-linecap="round"/>
<path d="M33.4203 14.4666C33.4685 14.5047 33.5943 14.4781 33.6581 14.5033C33.699 14.5195 33.6878 14.4673 33.6878 14.4467C33.6878 14.4129 33.7166 14.4044 33.7324 14.3797C33.7929 14.2855 33.8256 14.1609 33.8587 14.056C33.931 13.8272 34.0402 13.6142 34.0445 13.3704C34.0475 13.2042 34.059 13.0299 34.0776 12.8642C34.0972 12.6893 34.1381 12.5186 34.1494 12.3426C34.1559 12.2423 34.1591 12.1425 34.1643 12.0417C34.1856 11.6249 34.3146 11.214 34.3418 10.7962C34.3477 10.7054 34.3685 10.622 34.398 10.5365C34.4088 10.5053 34.4081 10.465 34.3716 10.4541" stroke="#D6B2C8" stroke-width="2.4344" stroke-linecap="round"/>
<path d="M12.354 10.9642C12.354 10.7166 12.3777 10.458 12.353 10.2114C12.3384 10.0656 12.2925 9.91819 12.2662 9.77328C12.2501 9.68488 12.2621 9.58436 12.2621 9.49445C12.2621 9.35832 12.4108 9.38312 12.5195 9.38312" stroke="#D6B2C8" stroke-width="2.4344" stroke-linecap="round"/>
<path d="M17.5279 14.6562C17.5279 14.4626 17.4879 14.2722 17.4879 14.0787C17.4879 13.8448 17.1942 13.5338 17.0748 13.3503C16.8039 12.9337 16.5003 12.5323 16.2131 12.1265C15.9991 11.8241 15.756 11.3738 15.4136 11.2026C15.2352 11.1134 15.4753 11.3297 15.498 11.3558C15.7538 11.6506 15.9176 11.9768 16.1176 12.3086C16.4863 12.9206 16.9767 13.5577 17.0793 14.2875C17.1302 14.6494 17.0713 14.6992 16.7195 14.6473C16.0339 14.5461 15.4385 14.2121 14.9338 13.7389C14.8707 13.6798 14.6555 13.5526 14.6496 13.4569C14.6486 13.4419 14.8069 13.6142 14.8494 13.6568C15.0025 13.8098 15.1742 13.9014 15.3536 14.021C15.6712 14.2327 15.9551 14.4889 16.262 14.7139C16.5459 14.9221 16.1112 14.896 15.9821 14.896C15.5478 14.896 15.0624 14.9532 14.6362 14.8561C14.3403 14.7886 14.0519 14.6739 13.7567 14.5984C13.7392 14.5939 13.3884 14.4921 13.4192 14.4652C13.4723 14.4187 13.5344 14.5556 13.5524 14.5762C13.6551 14.6936 13.7568 14.7361 13.9122 14.7361C14.7306 14.7361 15.5154 14.994 16.3286 15.016C16.468 15.0197 16.7873 15.0722 16.9105 14.9938C17.1518 14.8402 17.3607 14.5803 17.408 14.2964" stroke="#733C26" stroke-width="1.66564" stroke-linecap="round"/>
<path d="M29.801 14.9358C29.7047 14.9358 29.3034 15.0023 29.2502 14.8959C29.2089 14.8132 29.238 14.6655 29.2191 14.5738C29.1733 14.3514 29.0988 14.1212 29.0836 13.8942C29.0583 13.5145 29.1871 13.1041 29.3679 12.7726C29.7271 12.1142 30.2719 11.8608 30.8804 11.4889C30.9702 11.434 31.0639 11.3379 31.1758 11.3379C31.2455 11.3379 31.0409 11.3797 30.9825 11.4178C30.3534 11.8297 29.7358 12.4258 29.3679 13.088C29.2673 13.269 29.2306 13.4127 29.2413 13.6166C29.2554 13.8836 30.4596 13.4866 30.5561 13.4545C30.8605 13.353 31.1606 13.237 31.4534 13.1058C31.6492 13.018 31.2744 13.143 31.2313 13.168C30.911 13.3537 30.6423 13.6208 30.3518 13.8476C30.2581 13.9207 30.0157 14.0359 30.0009 14.1763C29.9829 14.3475 30.1623 14.3624 30.2985 14.385C30.7171 14.4548 31.1444 14.4856 31.56 14.5583C32.2849 14.6851 32.9738 14.616 33.701 14.616C34.016 14.616 33.0697 14.653 32.7615 14.7182C32.369 14.8012 31.9764 14.8953 31.5822 14.9669C31.2341 15.0302 30.8379 15.0932 30.4806 15.0536C29.9975 14.9999 29.5456 14.7881 29.1214 14.576C28.8958 14.4633 28.5375 14.295 28.6039 13.9964C28.6335 13.8632 28.8473 13.7814 28.8415 13.9764C28.8369 14.1349 28.7072 14.2924 28.6838 14.4561C28.6504 14.6903 28.6815 14.9633 28.9704 14.9758C29.4165 14.9952 29.8511 15.0957 30.2985 15.0957C30.7464 15.0957 31.1908 15.1357 31.6399 15.1357C32.2277 15.1357 32.8263 15.1713 33.4078 15.0869C33.7493 15.0373 33.995 14.9914 34.2185 14.7182C34.2983 14.6207 34.387 14.5075 34.4783 14.4161" stroke="#733C26" stroke-width="1.66564" stroke-linecap="round"/>
<path d="M18.6454 15.4042C18.9704 15.4042 17.9888 15.3533 17.6703 15.4184C17.4483 15.4638 17.2478 15.5916 17.0244 15.6462C16.6996 15.7256 16.3601 15.8537 16.0583 15.9949C15.4532 16.2779 14.8597 16.5848 14.2541 16.8667C14.0528 16.9605 13.8509 17.076 13.6349 17.1336C13.6037 17.1419 13.4397 17.2045 13.4267 17.1461C13.3799 16.9353 13.7326 16.6188 13.8484 16.486C14.2255 16.0537 14.6111 15.7189 15.1295 15.4682C15.7695 15.1588 16.4239 14.8876 17.1241 14.7476C17.7211 14.6282 18.3417 14.5183 18.9514 14.5074C19.07 14.5053 19.1739 14.5074 18.9763 14.5074C18.5292 14.5074 18.1069 14.587 17.6703 14.6853C17.1387 14.8051 16.6094 14.9501 16.0903 15.1159C15.7358 15.2292 15.3969 15.3859 15.0423 15.4985C14.3922 15.7048 13.7398 15.9101 13.1047 16.1586C13.0019 16.1988 12.5064 16.4773 12.53 16.2653C12.5624 15.9736 12.9785 15.6649 13.2079 15.5323C14.3248 14.8866 15.5739 14.5799 16.8127 14.2583C17.4493 14.093 18.1441 14.027 18.8002 14.027C18.9369 14.027 18.8367 14.027 18.7593 14.027C18.4743 14.027 18.1856 14.0539 17.9088 14.1231C16.5561 14.4612 15.2239 14.902 13.8929 15.3081C13.4535 15.4421 13.0462 15.662 12.6172 15.8205C12.5235 15.8551 12.272 15.9623 12.272 15.8045C12.272 15.5737 12.4516 15.5225 12.6385 15.4291C13.1439 15.1764 13.6519 14.9785 14.1794 14.7796C14.8998 14.508 15.6573 14.2802 16.4035 14.0911C17.1106 13.9118 17.8281 13.7385 18.5618 13.7085C18.6166 13.7063 18.9357 13.7025 18.8802 13.7138C18.6935 13.7521 18.5035 13.7579 18.3162 13.7904C17.2613 13.9729 16.3057 14.5451 15.3501 14.9985C15.2393 15.0511 14.9152 15.1592 14.8591 15.2903C14.8464 15.3197 15.0463 15.2969 15.0583 15.2939C15.2304 15.2508 15.3941 15.1654 15.5654 15.1159C16.592 14.8196 17.7417 14.9646 18.7913 15.0198C18.9263 15.0269 18.6063 15.0808 18.5795 15.0821C18.0768 15.1061 17.5995 15.1788 17.1152 15.3241C16.453 15.5228 15.8093 15.7828 15.1366 15.9486C15.1017 15.9572 14.8596 16.0352 14.8733 15.9735C14.9252 15.7399 15.3151 15.5693 15.5103 15.502C16.0092 15.33 16.5797 15.3215 17.101 15.301C17.6483 15.2794 18.1938 15.2761 18.7415 15.2761" stroke="#D99857" stroke-width="0.640631" stroke-linecap="round"/>
<path d="M28.3309 15.1796C28.0059 15.1796 28.9875 15.1287 29.306 15.1938C29.5281 15.2392 29.7285 15.3669 29.9519 15.4215C30.2768 15.501 30.6162 15.6291 30.918 15.7703C31.5231 16.0533 32.1167 16.3602 32.7222 16.6421C32.9236 16.7359 33.1254 16.8514 33.3414 16.909C33.3726 16.9173 33.5366 16.9798 33.5496 16.9215C33.5964 16.7107 33.2437 16.3941 33.1279 16.2614C32.7509 15.8291 32.3652 15.4943 31.8468 15.2436C31.2068 14.9342 30.5524 14.663 29.8522 14.523C29.2552 14.4036 28.6347 14.2937 28.0249 14.2828C27.9063 14.2807 27.8025 14.2828 28 14.2828C28.4472 14.2828 28.8694 14.3624 29.306 14.4607C29.8376 14.5805 30.367 14.7255 30.886 14.8913C31.2405 15.0046 31.5795 15.1613 31.934 15.2739C32.5841 15.4802 33.2365 15.6855 33.8716 15.934C33.9744 15.9742 34.4699 16.2527 34.4463 16.0407C34.4139 15.749 33.9979 15.4403 33.7684 15.3077C32.6515 14.6619 31.4024 14.3553 30.1636 14.0337C29.5271 13.8684 28.8322 13.8024 28.1761 13.8024C28.0394 13.8024 28.1396 13.8024 28.2171 13.8024C28.5021 13.8024 28.7907 13.8293 29.0676 13.8985C30.4202 14.2366 31.7524 14.6774 33.0834 15.0835C33.5228 15.2175 33.9301 15.4374 34.3592 15.5959C34.4528 15.6305 34.7043 15.7377 34.7043 15.5799C34.7043 15.3491 34.5247 15.2979 34.3378 15.2045C33.8324 14.9518 33.3244 14.7539 32.7969 14.555C32.0765 14.2834 31.319 14.0556 30.5728 13.8664C29.8657 13.6872 29.1482 13.5138 28.4146 13.4839C28.3597 13.4817 28.0406 13.4779 28.0961 13.4892C28.2828 13.5275 28.4728 13.5333 28.6601 13.5657C29.715 13.7483 30.6707 14.3205 31.6262 14.7739C31.737 14.8265 32.0611 14.9346 32.1173 15.0657C32.1299 15.0951 31.93 15.0722 31.918 15.0692C31.7459 15.0262 31.5822 14.9408 31.4109 14.8913C30.3843 14.595 29.2346 14.74 28.185 14.7952C28.05 14.8023 28.37 14.8562 28.3968 14.8575C28.8995 14.8814 29.3768 14.9542 29.8611 15.0995C30.5233 15.2982 31.167 15.5582 31.8397 15.724C31.8746 15.7326 32.1167 15.8106 32.103 15.7489C32.0511 15.5153 31.6613 15.3447 31.466 15.2774C30.9671 15.1054 30.3966 15.0969 29.8754 15.0764C29.3281 15.0548 28.7825 15.0515 28.2349 15.0515" stroke="#D99857" stroke-width="0.640631" stroke-linecap="round"/>
<path d="M27.7246 13.9683C28.4462 13.9683 29.1633 13.9616 29.8618 14.1721C30.332 14.3138 30.7988 14.5078 31.2482 14.7044C31.9836 15.0261 32.71 15.4351 33.3332 15.9473C33.7872 16.3205 34.1857 16.7432 34.615 17.1406C34.624 17.1489 34.7668 17.2888 34.7906 17.2452C34.8171 17.1967 34.5565 16.9756 34.5278 16.9462C33.2802 15.6673 31.4395 15.1347 29.7506 14.7406C29.0707 14.582 28.3621 14.4751 27.6629 14.4751C27.5825 14.4751 27.3411 14.4751 27.4216 14.4751C27.6182 14.4751 27.8185 14.4645 28.0115 14.5086C28.5814 14.6389 29.1288 14.9471 29.6701 15.1629C30.2364 15.3887 30.7998 15.5677 31.393 15.706C31.7917 15.7989 32.1967 15.8879 32.5756 16.0465C32.8123 16.1456 33.0279 16.3196 33.2755 16.3871C33.427 16.4284 32.9712 16.3102 32.8197 16.2691C32.2239 16.1076 31.6565 15.8506 31.0686 15.6631C30.6803 15.5392 30.2909 15.4925 29.894 15.415C29.5055 15.3392 29.1125 15.2271 28.7436 15.0838C28.4961 14.9877 28.2357 14.9243 27.9727 14.8867C27.958 14.8846 27.7376 14.8393 27.789 14.8908C28.1745 15.2763 28.7324 15.5513 29.2451 15.7113C29.7049 15.8548 30.2223 15.9889 30.7066 15.9956C30.8318 15.9973 30.9899 16.0197 30.7897 16.0197" stroke="#D99857" stroke-width="0.640631" stroke-linecap="round"/>
<path d="M34.9697 15.8934C34.9697 15.4927 34.9697 15.092 34.9697 14.6914C34.9697 14.2199 34.9096 13.6903 35.0128 13.226C35.1628 12.5507 35.3072 11.8274 35.3959 11.1404C35.4859 10.4429 35.6162 9.76891 35.6162 9.062C35.6162 8.42117 35.6593 7.78054 35.6593 7.14404" stroke="#D99857" stroke-width="0.640631" stroke-linecap="round"/>
<path d="M27.1196 34.4707C27.3207 34.4975 27.5378 34.6481 27.6859 34.7765C27.7294 34.8142 27.7738 34.8469 27.8146 34.8877C27.8601 34.9332 27.8623 34.9022 27.8146 34.8692C27.6301 34.7414 26.9406 34.6931 27.1649 34.6931C27.36 34.6931 27.5313 34.7396 27.7096 34.8228C27.8407 34.884 27.8985 35.0032 28.0092 35.0823C28.0657 35.1227 28.0495 35.0187 28.035 34.9896C27.9965 34.9127 27.8553 34.8628 27.7868 34.8136C27.67 34.7296 27.5409 34.619 27.3884 34.619C27.3513 34.619 27.2362 34.6001 27.2164 34.6375C27.1953 34.6774 27.2218 34.8322 27.2267 34.8228C27.2947 34.6943 27.3391 34.6746 27.4903 34.6746C27.6549 34.6746 27.7691 34.768 27.8805 34.8795C27.9831 34.982 28.0475 35.1044 28.139 35.212C28.2238 35.3118 28.1946 35.5355 28.1946 35.6527C28.1946 35.916 28.1733 36.2248 28.0834 36.4723" stroke="#3D2622" stroke-width="0.640631" stroke-linecap="round"/>
<path d="M17.6923 37.1606C17.7001 37.1346 17.7386 37.1189 17.7593 37.1047C17.8052 37.0733 17.8503 37.038 17.894 37.0035C17.9925 36.9258 18.11 36.878 18.21 36.803C18.2971 36.7377 18.4378 36.6916 18.5416 36.6583C18.6892 36.6111 18.8374 36.5659 18.983 36.5124C19.2602 36.4106 19.5559 36.3412 19.8503 36.3839C20.247 36.4415 20.5964 36.5887 20.8772 36.8812" stroke="#DBF3FC" stroke-width="0.640631" stroke-linecap="round"/>
<path d="M31.5595 20.747C31.3392 20.5267 31.1371 20.2656 30.8479 20.1237C30.6248 20.0143 30.2977 20.0562 30.0525 20.0562" stroke="#DBF3FC" stroke-width="1.28126" stroke-linecap="round"/>
<path d="M19.5241 21.3328C19.5241 21.1257 19.4984 20.9687 19.3682 20.8013C19.258 20.6596 19.1023 20.5552 18.9752 20.4281C18.6164 20.0693 18.1291 19.9932 17.6403 19.9932" stroke="#DBF3FC" stroke-width="1.28126" stroke-linecap="round"/>
<path d="M18.0124 11.4098C17.9473 11.0713 17.7008 10.7709 17.4942 10.5065C17.1764 10.0996 16.8229 9.75272 16.4292 9.42012C16.0494 9.09923 15.6637 8.77493 15.3001 8.43599C15.0551 8.20761 14.8505 7.9481 14.5846 7.74424C14.0387 7.32576 13.6138 6.81418 13.0109 6.46059C12.626 6.23482 12.2582 5.83674 11.8081 5.76172" stroke="#D1773B" stroke-width="1.28126" stroke-linecap="round"/>
<path d="M10.5813 4.96613C10.6156 4.96184 10.5967 4.82238 10.5967 4.79503C10.5967 4.70052 10.4355 4.7353 10.376 4.75396C10.284 4.78278 10.2426 4.89378 10.2228 4.97896C10.1909 5.11641 10.2795 5.18616 10.3914 5.24674C10.564 5.34024 10.9068 5.4597 11.0552 5.27411C11.2039 5.08827 10.979 4.8509 10.8277 4.76508C10.7282 4.70865 10.5941 4.64679 10.4769 4.64275C10.4727 4.6426 10.4229 4.64364 10.4384 4.63505C10.5291 4.58464 10.7564 4.59375 10.8482 4.63077C11.0392 4.70779 11.1872 4.9213 11.3358 5.0551C11.457 5.16413 11.5985 5.25616 11.7302 5.35197C11.9413 5.50549 12.1377 5.67784 12.3411 5.84132C12.5074 5.97504 12.6726 6.11032 12.8415 6.24084C12.8482 6.246 12.951 6.31462 12.951 6.311C12.951 6.24378 12.8033 6.15102 12.7611 6.11423C12.5955 5.96985 12.4453 5.81039 12.2752 5.67107C11.974 5.42445 11.6626 5.19948 11.3324 4.99351C11.1289 4.86659 10.9217 4.79268 10.6797 4.8378C10.4647 4.87788 10.2338 5.05352 10.0817 5.20567C9.87922 5.40811 9.78227 5.64061 9.76854 5.92773C9.75365 6.2388 9.79638 6.49159 9.93451 6.76784C9.97592 6.85067 10.0163 6.93272 10.0491 7.01936C10.054 7.03205 10.0731 7.1094 10.0731 7.08523C10.0731 6.62162 10.0174 6.16275 9.94991 5.70444C9.92166 5.51277 9.91295 5.32161 9.88745 5.13039C9.85484 4.8858 9.78616 5.61541 9.77367 5.86185C9.75284 6.2728 9.72878 6.69081 9.78736 7.09978C9.83597 7.43911 9.95415 7.76281 10.0115 8.10073C10.0584 8.37727 10.0888 8.65739 10.1227 8.93571C10.1301 8.99604 10.1476 9.05647 10.1655 9.11451C10.1763 9.14977 10.2377 8.94073 10.2433 8.92031C10.333 8.59762 10.4025 8.2202 10.6198 7.95529C10.7959 7.74054 11.105 7.65161 11.3547 7.5532C11.6839 7.42343 12.0491 7.36953 12.3984 7.44883C12.5345 7.47972 12.6712 7.51483 12.8056 7.55234C12.8122 7.55417 12.9721 7.58191 12.9305 7.54293C12.8947 7.50933 12.8357 7.48729 12.7936 7.46594C12.6072 7.37131 12.4218 7.2712 12.2273 7.19388C11.8295 7.0358 11.3738 6.90643 10.9423 6.90643C10.7831 6.90643 10.6244 6.90379 10.4889 6.99883C10.4739 7.00936 10.3212 7.14311 10.3109 7.13571C10.251 7.09242 10.3395 6.79138 10.3546 6.74389C10.4159 6.55076 10.5195 6.35145 10.7113 6.26309C10.8956 6.1782 11.1087 6.17642 11.3076 6.18438C11.5762 6.19512 11.8025 6.28039 12.01 6.45044C12.0847 6.5117 12.3049 6.70015 12.2341 6.63438C12.0115 6.42763 11.7402 6.25188 11.483 6.09284C11.2491 5.94821 10.9738 5.79414 10.6959 5.75833C10.5773 5.74306 10.4543 5.75149 10.3349 5.75149" stroke="#D1773B" stroke-width="1.28126" stroke-linecap="round"/>
<path d="M17.9531 11.0829C18.3538 11.5503 17.1315 10.1629 16.6748 9.75001C16.4022 9.50347 16.0897 9.30043 15.7997 9.07511C15.3658 8.73802 14.9211 8.47743 14.4161 8.25846C13.7167 7.95527 13.0017 7.65142 12.2704 7.43401C11.8215 7.30055 11.3703 7.31437 10.9076 7.31437" stroke="#D1773B" stroke-width="1.28126" stroke-linecap="round"/>
<path d="M30.2653 9.51519C30.4761 9.08474 30.9191 8.71877 31.2601 8.39295C31.6602 8.01051 32.0707 7.66403 32.5084 7.32792C32.9078 7.02123 33.3121 6.79545 33.788 6.62181C34.335 6.42223 34.8953 6.37863 35.472 6.37863C35.7455 6.37863 36.159 6.39019 36.29 6.69593C36.3558 6.8495 36.3511 7.04521 36.3511 7.20829C36.3511 7.3587 36.3625 7.5127 36.3329 7.66082C36.3168 7.74115 36.2877 7.79487 36.2575 7.67903C36.1551 7.28647 35.8531 6.81433 35.3862 6.79996C35.2385 6.79542 35.0892 6.79818 34.9415 6.79996C34.672 6.80321 34.4518 6.89596 34.2029 6.98202C34.1309 7.00688 34.0355 7.05744 33.9584 7.05744C33.8487 7.05744 34.1778 7.05461 34.2874 7.05874C34.7255 7.07527 35.2507 7.2729 35.5774 7.5724C35.7615 7.74119 35.8382 7.90376 35.9428 8.12246C35.9838 8.20832 36.0883 8.27567 36.1847 8.2382C36.3196 8.18573 36.4128 7.85311 36.4681 7.72714C36.6277 7.36372 36.7022 7.02485 36.7022 6.62701C36.7022 6.2907 36.7347 5.93821 36.6671 5.6075C36.6289 5.42094 36.5944 5.22535 36.4772 5.06914C36.3739 4.9314 35.9713 4.99141 35.8362 4.99892C35.5549 5.01454 35.3046 5.1549 35.0351 5.21348C34.6842 5.28976 34.3834 5.49612 34.0806 5.67642C33.7212 5.89044 33.3318 6.09051 33.0065 6.35263C32.5677 6.70623 32.1544 7.04749 31.7737 7.46316C31.6235 7.62719 31.4484 7.76394 31.2952 7.9248C31.1312 8.09702 30.995 8.29246 30.84 8.47227C30.6664 8.6737 30.4436 8.83184 30.3251 9.07955C30.3121 9.10672 30.2242 9.23356 30.316 9.16018C30.5512 8.97196 30.7833 8.77997 31.0208 8.59451C31.1859 8.46558 31.3541 8.32129 31.554 8.2499C31.7243 8.18907 31.8931 8.11554 32.0572 8.03924C32.417 7.87191 32.7876 7.72001 33.1443 7.54899C33.3784 7.43677 33.6205 7.29632 33.8804 7.2629C34.1211 7.23195 34.3521 7.21488 34.5956 7.22129C34.779 7.22612 34.9765 7.39499 35.1001 7.51518C35.7243 8.12202 36.2858 6.29159 36.2809 5.89229C36.2759 5.48507 35.7697 5.39851 35.4408 5.47616C35.2264 5.52678 35.0458 5.68135 34.8505 5.77785C34.7043 5.85009 34.5688 5.91274 34.4317 6.00412" stroke="#D1773B" stroke-width="1.28126" stroke-linecap="round"/>
<path d="M30.7247 9.12522C30.568 9.12522 30.3789 9.31748 30.2617 9.41017C30.0873 9.548 29.9098 9.73236 29.7614 9.89954C29.6416 10.0346 29.4928 10.1342 29.3743 10.2681C29.2493 10.4094 29.1149 10.5661 28.9624 10.6785C28.9187 10.7107 28.677 10.8356 28.7455 10.6986C28.9657 10.2583 29.2191 9.80574 29.5245 9.41946C29.7052 9.19093 29.8953 8.95877 30.113 8.76284C30.4496 8.45992 30.8723 8.24219 31.2481 7.99472C32.1282 7.41514 32.9795 6.87454 34.0697 6.78369" stroke="#D1773B" stroke-width="1.28126" stroke-linecap="round"/>
<path d="M9.51928 25.0801C9.3978 25.156 9.48439 25.8373 9.48439 25.9874C9.48439 26.2853 9.14601 26.4029 8.89312 26.4914C8.69775 26.5598 8.24099 26.5514 8.05372 26.4681C7.99016 26.4399 7.98173 26.3957 7.91415 26.4332C7.75886 26.5195 7.91276 26.5395 7.98587 26.565C8.30508 26.6768 8.6072 26.7899 8.94547 26.7899C9.34392 26.7899 9.34481 26.1864 9.34481 25.8904C9.34481 25.6383 9.27502 25.4137 9.27502 25.1673C9.27502 24.9812 9.30307 24.7968 9.30992 24.6187C9.31564 24.4701 9.37391 24.3254 9.37971 24.1806C9.38236 24.1142 9.4146 24.0643 9.4146 23.9984C9.4146 23.9641 9.4146 24.1263 9.4146 24.1573C9.4146 24.4985 9.50657 24.8022 9.56193 25.1344C9.61903 25.4769 9.62397 25.8124 9.62397 26.1599C9.62397 26.3116 9.69941 26.7758 9.57162 26.8752C9.36716 27.0343 9.0454 27.104 8.79426 27.104C8.51028 27.104 8.32591 26.9776 8.09056 26.8403C7.94062 26.7529 7.76346 26.6001 7.6001 26.5457" stroke="#D1773B" stroke-width="1.28126" stroke-linecap="round"/>
<path d="M12.1055 14.9838C12.5896 14.9838 13.0737 14.9838 13.5578 14.9838C13.7858 14.9838 14.0138 14.9838 14.2418 14.9838C14.3001 14.9838 14.125 14.986 14.0671 14.9796C13.5468 14.9218 13.062 14.827 12.5307 14.8322C12.2376 14.8351 12.0283 15.0095 11.7645 15.0974" stroke="#D1773B" stroke-width="1.28126" stroke-linecap="round"/>
<path d="M32.9709 14.6581C33.4549 14.6581 33.939 14.6581 34.4231 14.6581C34.6511 14.6581 34.8792 14.6581 35.1072 14.6581C35.1654 14.6581 34.9904 14.6603 34.9325 14.6539C34.4122 14.5961 33.9274 14.5013 33.396 14.5066C33.1029 14.5095 32.8936 14.6838 32.6299 14.7718" stroke="#D1773B" stroke-width="1.28126" stroke-linecap="round"/>
<path d="M37.0029 24.391C37.0029 24.7472 37.0029 25.1035 37.0029 25.4597C37.0029 25.6054 37.0561 25.8685 37.0016 26.0046C36.9669 26.0914 36.9741 25.8194 36.9662 25.7262C36.9392 25.4101 36.922 25.0933 36.8966 24.777C36.8802 24.5726 36.8797 23.9657 36.8322 24.1652C36.7422 24.5434 36.6995 25.01 36.7535 25.3967C36.7837 25.6135 36.8784 25.8557 37.0266 26.0203C37.1242 26.1288 37.2825 26.1162 37.4165 26.1162C37.6412 26.1162 37.9031 26.133 38.1189 26.0637C38.1811 26.0437 38.2396 26.0453 38.304 26.0453C38.3365 26.0453 38.4521 26.0972 38.4432 26.0571C38.4218 25.961 38.147 25.8882 38.0716 25.8615C37.9172 25.8067 37.7648 25.7389 37.6174 25.6672C37.5739 25.646 37.4451 25.5796 37.49 25.5976C37.64 25.6576 37.7741 25.7727 37.9128 25.8549C38.0201 25.9185 38.813 26.3813 38.4629 26.5836C37.7991 26.9671 37.1425 26.0522 36.9977 25.5017C36.9244 25.2235 36.9177 24.8822 36.7797 24.6313C36.6785 24.4473 36.4422 24.7851 36.4174 24.8873C36.387 25.0123 36.4121 25.1719 36.4121 25.2995C36.4121 25.4324 36.4019 25.5701 36.4134 25.7026C36.4325 25.9217 36.5422 26.1045 36.6957 26.258" stroke="#D1773B" stroke-width="1.28126" stroke-linecap="round"/>
<path d="M26.3012 35.1616C26.1782 35.184 26.0673 35.3251 25.9924 35.4172C25.8828 35.5522 25.7688 35.59 25.6019 35.64" stroke="#D1773B" stroke-width="1.28126" stroke-linecap="round"/>
<path d="M29.2505 43.8461C29.2505 47.404 29.2505 50.9619 29.2505 54.5199C29.2505 56.9851 28.6576 59.3988 28.6576 61.8617C28.6576 62.4578 28.6576 63.0539 28.6576 63.6501C28.6576 64.6219 28.4315 63.3456 28.2716 63.0335C28.0197 62.5417 27.6475 61.5097 27.048 61.3158C26.7199 61.2096 26.2925 61.0843 25.9891 60.9157C25.7729 60.7956 25.5105 60.7267 25.3538 60.5251C24.8973 59.9382 24.5976 59.2134 23.9795 58.7555C23.1301 58.1263 23.1705 56.3553 23.1136 55.4611C23.0548 54.5375 23.3128 53.6352 22.7088 52.9103C21.6908 51.6887 20.6806 49.9207 20.9581 48.2558C21.0606 47.6406 22.0918 47.0757 22.5394 46.7451C23.4369 46.0824 24.2675 45.1864 25.0573 44.3967C25.565 43.8889 26.1146 43.4515 26.7045 43.046C27.107 42.7692 27.5759 42.6189 27.9422 42.2742C28.252 41.9826 28.234 42.1841 28.234 42.4907C28.234 42.9144 28.2485 43.4408 28.3611 43.8461C28.4032 43.9976 28.5628 44.8532 28.7893 44.8532C28.9851 44.8532 28.9858 43.4589 28.827 43.2907C28.3525 42.7883 27.6719 46.0661 27.0668 46.1145C26.7437 46.1403 27.252 44.6907 27.3069 44.5755C27.426 44.3253 27.5641 44.0845 27.6881 43.8366C27.7342 43.7443 27.8912 43.5177 27.7916 43.5449C27.7151 43.5657 27.5645 43.7909 27.5328 43.8272C27.2066 44.2013 26.8594 44.5566 26.5256 44.9238C25.9213 45.5885 25.3359 46.2651 24.7749 46.9663C24.458 47.3624 25.1137 46.6577 25.1561 46.6039C25.2701 46.4593 26.3995 45.2312 26.2479 45.0038C26.1605 44.8726 26.0154 45.2167 25.8997 45.3238C25.4211 45.767 24.9131 46.1771 24.4454 46.6322C24.0663 47.001 23.7249 47.4024 23.3818 47.804C23.2544 47.9533 22.8196 48.3081 23.01 48.2605C23.103 48.2373 23.4024 47.8682 23.4336 47.837C23.8357 47.4348 24.2413 47.0392 24.629 46.6228C24.6978 46.5489 25.554 45.6702 25.2549 45.8839C24.2031 46.6352 23.3494 47.7336 22.53 48.7218C22.424 48.8495 21.188 50.4465 21.9182 49.8701C22.844 49.1392 23.7284 48.3298 24.5302 47.4652C24.5311 47.4642 24.9961 46.9172 24.8925 46.9804C24.5324 47.2005 24.2253 47.6177 23.9513 47.9264C23.3382 48.6172 22.8849 49.3433 22.4076 50.1242C21.916 50.9287 23.1574 49.3765 23.2077 49.3053C23.8298 48.425 24.4277 47.5009 24.869 46.5145C25.078 46.0474 24.2601 47.2414 24.2054 47.3381C23.677 48.2734 23.1554 49.1935 22.8218 50.2184C22.5582 51.0279 23.1132 50.3255 23.3959 50.0348C24.2608 49.1456 25.0506 48.19 25.8056 47.2063C26.384 46.4526 25.4299 47.6445 25.3302 47.7805C24.5905 48.7892 23.8431 49.8678 23.3583 51.0278C23.0863 51.6786 22.9266 52.1824 23.5089 51.1973C24.4626 49.5839 26.757 44.4567 25.7679 46.0486C24.855 47.5179 24.2588 49.2147 23.7348 50.8537C23.5319 51.4882 23.3751 52.1274 23.2877 52.788C23.2814 52.8354 23.1435 53.4956 23.4006 53.2633C23.7483 52.9493 24.0061 52.4523 24.2431 52.0632C24.922 50.9484 25.5768 49.8083 26.1538 48.637C26.4979 47.9387 26.7815 47.2134 27.1139 46.5098C27.2022 46.3229 27.435 45.7798 27.0668 46.3498C25.7538 48.3825 24.9104 50.7443 24.2148 53.0468C24.0231 53.6816 23.5051 54.8532 23.6642 55.5694C23.6862 55.6685 23.8164 55.4932 23.8195 55.4894C24.2285 54.9837 24.5277 54.3616 24.7984 53.7763C25.7128 51.7995 26.2934 49.6913 26.9492 47.6205C27.1238 47.0691 27.5121 45.3814 27.4339 45.9545C27.3787 46.3592 27.1705 46.7922 27.0574 47.1781C26.6859 48.4458 26.4071 49.7265 26.1821 51.0278C25.8628 52.8743 25.5698 54.7262 25.2737 56.5765C25.2482 56.7363 25.1189 57.1541 25.189 57.3295C25.2889 57.5792 25.3767 56.8251 25.4526 56.5671C25.9695 54.8095 26.1651 52.9765 26.3515 51.1596C26.4129 50.5612 26.4748 49.9616 26.5209 49.3618C26.5322 49.2148 26.5845 48.7864 26.5209 48.9194C26.0666 49.8693 26.0196 51.1328 25.8103 52.1526C25.4991 53.6684 25.3216 55.1855 25.0996 56.713C25.0469 57.0756 25.0353 57.4381 25.3208 56.8777C25.6544 56.2229 25.9732 55.2545 25.8526 54.5011C25.7444 53.8249 24.4917 55.5126 24.4407 55.6023C24.1414 56.1295 23.8979 56.6967 24.2948 57.226C24.5753 57.5999 24.62 56.2003 24.5866 56.0165C24.5581 55.8598 24.5058 56.2798 24.5066 56.3177C24.5176 56.8215 24.7421 57.3072 24.949 57.7578C25.2336 58.3776 25.5687 59.1162 26.0691 59.6027C26.416 59.9399 26.9177 60.0654 27.2598 60.4074C27.4198 60.5674 27.8001 60.6192 28.0222 60.6192C28.4225 60.6192 28.234 59.096 28.234 58.8779C28.234 55.958 27.7154 53.0431 28.1493 50.1336C28.221 49.6527 28.265 49.1674 28.3187 48.6841C28.3503 48.3997 28.478 48.1313 28.4881 47.8464C28.503 47.4298 28.4641 47.0105 28.4928 46.5945C28.4993 46.5009 28.5847 45.9822 28.554 46.0674C28.3567 46.6155 28.0386 47.1065 27.8293 47.6487C27.3179 48.9733 27.1884 50.4116 27.0009 51.8044C26.7341 53.7868 26.2856 55.8177 26.2856 57.8237C26.2856 58.2473 26.2979 58.6355 26.3703 59.052C26.4891 59.7352 26.7967 59.4807 26.8598 58.9061C27.0132 57.5082 26.4529 56.1625 26.3044 54.7929C26.2695 54.4706 26.2856 54.1423 26.2856 53.8187C26.2856 53.5499 26.2981 54.3569 26.3327 54.6234C26.5372 56.2013 26.9641 57.8162 27.0433 59.4003C27.0484 59.5021 27.0324 60.449 27.1327 60.2427C27.4098 59.6732 27.4616 58.9801 27.5563 58.3649C27.7007 57.4265 27.8102 56.4745 27.8763 55.527C27.8923 55.2976 28.0332 53.2104 27.6363 53.508C27.2866 53.7703 26.9424 53.6083 26.6244 53.3433C25.8058 52.6611 25.057 51.7344 24.4407 50.8678C24.3212 50.6997 23.8857 49.5608 23.6971 49.5265C23.2676 49.4484 22.8786 49.3488 22.5206 49.0559C22.3851 48.9451 21.8059 48.8456 21.7958 48.6747C21.7473 47.8494 23.1164 46.9305 23.6124 46.4345C24.2299 45.817 24.9299 45.2667 25.5044 44.6085C25.8521 44.21 26.3472 43.8697 26.6621 43.4649C26.9193 43.1342 27.0572 43.2719 27.1515 43.639C27.244 43.9987 27.3927 44.2452 27.5939 44.5614C27.7474 44.8026 28.0259 45.02 28.2763 45.1591C28.4168 45.2371 28.7247 45.2979 28.8082 45.4556C28.8778 45.5872 28.7332 45.7853 28.6952 45.9027C28.4546 46.6463 28.3486 47.4309 28.2528 48.2041C28.0841 49.5662 27.9809 50.937 27.8528 52.3032C27.7837 53.0399 27.7992 53.7888 27.5186 54.4775C27.389 54.7958 27.2753 55.1341 27.1704 55.4611C27.1225 55.6105 27.1703 55.7894 27.0857 55.9224C27.0215 56.0232 26.4009 56.8527 26.5586 56.9577C26.6385 57.011 26.9934 55.6243 27.0104 55.56C27.3822 54.147 27.6748 52.6918 27.8434 51.2396C28.0097 49.8065 28.2693 48.4005 28.4693 46.9804C28.558 46.3505 28.7667 45.8481 29.0999 45.305C29.2639 45.0379 29.4909 44.6475 29.8435 44.6979C30.1837 44.7465 30.7511 45.3364 31.0295 45.5591C31.4585 45.9023 31.9213 46.3687 32.3002 46.7687C32.8891 47.3902 33.3433 48.0094 33.7403 48.7594C33.8783 49.0201 33.9962 49.2523 34.1262 49.5359C34.3893 50.1098 34.8048 50.5786 35.0957 51.1314C35.3507 51.6158 35.6452 52.1255 35.8393 52.6374C36.0778 53.266 35.9429 51.8435 35.9429 51.6726C35.9429 51.1028 36.0056 50.4899 35.9052 49.9266C35.8061 49.3701 35.5652 48.8784 35.3499 48.3641C34.9754 47.4695 34.5283 46.6537 34.0133 45.8321C33.3168 44.7211 32.7003 43.4994 31.8672 42.4812C31.4243 41.9399 30.6957 40.9658 29.8859 40.9658C29.5738 40.9658 29.4179 41.1374 29.2082 41.347C29.0349 41.5204 28.4034 41.9989 28.4034 42.2365C28.4034 42.4945 29.2435 42.0953 29.3729 42.0718C30.1322 41.9337 30.9406 43.3848 31.2554 43.7802C32.0316 44.7551 33.1445 45.4891 33.5662 46.6839C33.8857 47.5893 34.2522 48.1708 34.851 48.9006C35.1644 49.2825 35.5721 49.7383 35.684 50.2419C35.731 50.4531 35.6794 50.1282 35.6699 50.0772C35.5339 49.343 35.0158 48.6869 34.6251 48.0723C33.9056 46.9405 33.0533 45.8597 32.2437 44.7873C31.942 44.3876 31.5647 43.6415 31.0719 43.4225C30.8542 43.3258 30.7455 43.1985 30.4789 43.2578C30.4025 43.2747 29.8178 43.5285 29.8624 43.5731C29.9392 43.6499 29.9283 43.3236 29.9283 43.3001C29.9283 43.0199 29.3679 42.731 29.1611 42.6224C28.9649 42.5194 28.2509 42.069 28.234 42.5095C28.229 42.6399 28.0953 42.8271 28.1634 42.9519C28.265 43.1381 28.7743 43.2001 28.9588 43.2342C29.6087 43.3546 30.0422 43.7454 30.4318 44.2649C30.7699 44.7157 31.1774 45.1075 31.5849 45.5027C31.7756 45.6876 31.6223 45.4774 31.4907 45.4085C31.1538 45.232 30.8751 45.0103 30.5165 44.8626C29.0865 44.2738 27.5064 44.2186 26.1821 45.0132C25.8531 45.2106 23.5149 47.0776 23.6595 47.1499" stroke="#E38E5D" stroke-width="1.28126" stroke-linecap="round"/>
<path d="M12.5952 47.1701C12.5952 46.573 12.5402 45.9567 12.6996 45.377C12.8624 44.7847 13.1723 44.2939 13.4064 43.7309C13.6543 43.1345 14.0481 42.6076 14.3788 42.0564C14.5932 41.6991 14.8592 41.3566 15.0453 40.9843C15.0999 40.8752 15.0714 40.948 15.0714 41.0413C15.0714 41.3382 15.0604 41.6066 15.209 41.8761C15.8672 43.0698 17.0869 43.9174 18.3825 44.3002C18.4756 44.3277 18.7642 44.371 18.6694 44.35C18.3376 44.2762 18.0068 44.1305 17.6923 44.006C17.207 43.8141 16.7148 43.5847 16.2858 43.285C16.0811 43.1421 15.8697 42.8741 15.6359 42.7822C15.4929 42.726 15.321 42.9386 15.2398 43.0099C14.4937 43.664 13.9044 44.4405 13.3518 45.2607C12.9417 45.8694 12.5622 46.4922 12.1873 47.1226C12.094 47.2794 11.99 47.4269 11.8884 47.578C11.8615 47.618 11.8015 47.7347 11.7935 47.6871C11.7779 47.5936 11.8764 47.4265 11.9097 47.3598C12.1049 46.9696 12.3579 46.6136 12.6071 46.2569C13.1737 45.4458 13.716 44.6187 14.2673 43.7973C14.3631 43.6546 14.4806 43.3812 14.6445 43.2945C14.6707 43.2806 14.6251 43.352 14.6065 43.3751C14.4357 43.5878 14.2906 43.8176 14.1464 44.0487C13.6944 44.7733 13.3124 45.5119 12.9842 46.2996C12.8955 46.5125 12.7954 46.7162 12.6901 46.921C12.5885 47.1185 12.7927 46.9233 12.8371 46.8831C13.5547 46.2328 14.2869 45.621 15.0666 45.0449C15.4171 44.786 15.8335 44.375 16.2573 44.2337C16.2913 44.2224 16.2076 44.2857 16.179 44.3073C15.9134 44.5081 15.6592 44.725 15.4034 44.9382C14.7639 45.4711 14.1443 46.0268 13.5439 46.6032C13.4682 46.6759 13.3781 46.7418 13.3068 46.819C13.2293 46.9029 13.508 46.7099 13.6009 46.6435C14.3694 46.0939 15.1721 45.622 16.0249 45.2157C16.0666 45.1958 16.7363 44.8785 16.4257 45.0141C16.0466 45.1795 15.7138 45.4489 15.3892 45.6995C14.7745 46.1741 14.1682 46.6685 13.6317 47.2317C12.6498 48.2625 11.8704 49.4395 11.3144 50.7468C11.1769 51.0701 10.8185 52.0569 10.897 51.7145C11.2189 50.3099 11.7241 48.9486 12.0781 47.5519C12.0886 47.5108 12.2041 47.1075 12.1588 47.1463C12.016 47.2687 11.9216 47.5034 11.841 47.6634C11.4993 48.3411 11.2168 49.0507 10.9492 49.7601C10.6395 50.5809 10.4035 51.4262 10.1048 52.2505C10.0475 52.4085 9.98698 52.5779 9.95062 52.7415C9.92148 52.8726 10.0276 52.3783 10.0289 52.3738C10.2962 51.4812 10.752 50.6133 11.1436 49.7696C11.3549 49.3144 11.5883 48.8718 11.739 48.3915C11.7685 48.2974 11.822 48.1798 11.822 48.0785C11.822 47.9409 11.6866 48.3184 11.6299 48.4437C11.098 49.6187 10.8845 50.95 10.674 52.2126C10.5194 53.1401 10.3885 54.0795 10.2993 55.0161C10.2959 55.0517 10.2514 55.4416 10.323 55.2746C10.6824 54.436 11.0623 53.6289 11.3547 52.7605C11.6328 51.9348 11.8677 51.0969 12.1493 50.2724C12.2418 50.0017 12.4055 49.6189 12.4055 49.3237C12.4055 49.0322 12.1091 49.8273 11.9928 50.0945C11.5928 51.013 11.3226 51.9708 11.063 52.936C10.9831 53.2332 10.8568 53.5518 10.8448 53.8633C10.843 53.9112 10.8549 53.7681 10.8638 53.721C10.9445 53.2926 11.1072 52.877 11.267 52.4735C11.9873 50.6548 12.9372 48.8213 14.3812 47.4737C14.5962 47.273 14.8098 47.0634 14.986 46.8285" stroke="#E38E5D" stroke-width="1.28126" stroke-linecap="round"/>
<path d="M18.0687 43.2223C18.0875 43.3726 18.4394 43.3452 18.5424 43.3688C19.5064 43.5897 20.3742 44.1026 21.292 44.453C21.9226 44.6938 22.5246 44.9252 23.2016 44.9805C23.5102 45.0057 23.9531 45.1516 24.2614 45.0635C24.3614 45.035 23.6935 44.9661 23.6363 44.961C22.6562 44.8728 21.6835 44.7574 20.7157 44.58C20.1322 44.473 19.5443 44.3936 18.9624 44.2772C18.6247 44.2097 18.745 44.1867 19.0601 44.287C20.2342 44.6606 21.3516 45.2209 22.4349 45.801C22.6743 45.9292 23.6001 46.2245 23.7242 46.514C23.7582 46.5933 23.5564 46.562 23.4702 46.5629C22.9105 46.5686 22.35 46.5654 21.7902 46.5629C20.7945 46.5583 19.6893 46.5949 18.7427 46.2308C18.0579 45.9674 19.062 46.293 19.2017 46.3431C20.6966 46.879 22.0687 47.733 23.4409 48.5213C23.9802 48.8311 23.8174 48.8887 23.2749 48.6434C21.7908 47.9722 20.4559 46.9847 19.0552 46.1624C18.6671 45.9345 18.2382 45.7626 17.8636 45.5128C17.5439 45.2997 18.6319 45.508 19.0161 45.508C20.2477 45.508 21.5446 45.7011 22.6351 45.0196C23.0191 44.7796 23.0544 44.373 23.3823 44.1502C23.7887 43.8742 24.2193 43.6223 24.6033 43.3151C24.6942 43.2424 25.0057 43.0465 24.784 43.0465C24.1625 43.0465 23.591 43.3682 22.9916 43.3981C22.8715 43.4041 22.8248 43.4224 22.9477 43.3542C23.233 43.1957 23.457 43.0365 23.6851 42.7876C24.1441 42.287 24.2467 42.1468 23.5484 42.5386C22.7956 42.9609 22.0656 43.4145 21.3555 43.906C21.343 43.9147 20.7084 44.3554 20.8525 44.3554C21.2183 44.3554 21.6529 44.002 21.9562 43.8377C22.412 43.5908 22.8648 43.315 23.3335 43.0953C23.8097 42.8721 24.1966 42.4089 24.6814 42.2358C25.6975 41.8729 26.6448 41.4338 27.7387 41.3762C28.1205 41.3561 29.1453 41.1455 29.1453 40.629C29.1453 40.1889 29.0118 39.5267 29.2332 39.1394C29.3715 38.8973 29.4632 38.8889 29.6288 39.1834C30.0413 39.9168 30.7077 40.4817 31.0598 41.2688C31.2125 41.6101 31.5188 42.0987 31.5188 42.4751C31.5188 42.7214 31.3031 42.3092 31.2746 42.2553C31.0766 41.8804 30.859 41.4993 30.5518 41.2004C30.3831 41.0362 30.1321 40.8963 29.8974 40.8536C29.692 40.8163 29.7664 41.087 29.7558 41.215C29.6569 42.4015 29.2491 43.6425 28.8816 44.7656C28.675 45.3967 28.3789 46.0632 28.4469 46.7436C28.519 47.4645 28.6552 48.0089 28.5299 48.7606" stroke="#E38E5D" stroke-width="1.28126" stroke-linecap="round"/>
<path d="M33.412 17.6455C33.3853 17.8586 31.9394 17.2742 31.6876 17.1917C30.9653 16.9554 30.2048 16.984 29.469 16.7833C28.8335 16.61 28.1898 16.5472 27.5379 16.4657C27.4681 16.457 26.5974 16.2584 27.0992 16.1228C28.0306 15.8711 29.2468 15.9495 30.1749 16.1026C30.6904 16.1877 31.5616 16.4657 30.5379 16.4657C29.4097 16.4657 28.3496 16.1323 27.2404 15.9917C26.6032 15.9109 25.8685 15.9453 26.4689 15.2404C26.5862 15.1027 27.2386 14.116 27.2252 14.116C26.9421 14.116 26.6462 14.4995 26.4538 14.6606C26.0046 15.0366 25.5231 15.3814 25.1025 15.79C24.5248 16.3512 25.9206 14.4022 26.3529 13.7227C26.459 13.5562 27.382 12.2399 26.8219 12.8C26.0634 13.5585 25.2797 14.2923 24.6184 15.1396C24.3716 15.4559 24.193 15.7971 23.9781 16.1329C23.9046 16.2477 23.6897 16.5473 23.9529 16.3043C24.3431 15.9441 24.3142 16.2325 23.9226 16.4153C23.5844 16.5731 23.0531 16.6472 22.6823 16.6472C22.2457 16.6472 22.0779 16.3175 21.7948 15.9917C21.3403 15.4686 20.8304 15.0475 20.3427 14.5597C20.2313 14.4484 19.631 13.6219 19.7175 13.9244C19.7714 14.1133 20.0728 14.2899 20.2066 14.4236C20.5185 14.7356 20.8254 15.0415 21.0889 15.3967C21.7663 16.3097 22.5281 17.1452 23.6957 17.3228C24.9802 17.5183 25.9826 16.9559 27.2 16.6976C28.8768 16.3419 31.0071 16.3972 32.5951 16.9901C32.7525 17.0488 33.4955 17.2522 33.5935 17.4237C33.7888 17.7654 33.8666 18.1917 34.0473 18.5531C34.301 19.0605 34.5912 19.5293 34.7532 20.0759C34.7828 20.1757 34.7734 20.7211 34.7734 20.3532C34.7734 19.419 34.1747 18.6472 33.7044 17.8876C33.6581 17.8127 33.495 17.6471 33.5027 17.8472C33.514 18.1398 33.8651 18.4555 34.0019 18.6994C34.3476 19.3156 34.7801 20.1919 34.8591 20.9028C34.9249 21.4949 35.0421 20.7998 35.0456 20.5498C35.0724 18.6784 33.1494 17.8656 31.6422 17.2775C29.8355 16.5724 27.9396 16.3749 26.0202 16.3749C25.5427 16.3749 24.8426 16.3222 24.4722 16.6926C24.3286 16.8362 23.9823 16.9812 23.973 17.2119C23.9464 17.8781 23.7008 18.5226 23.7008 19.1884C23.7008 19.4177 23.6278 19.8155 23.4739 20.0002C23.3614 20.1352 23.5304 20.6871 23.3176 20.3481C22.842 19.5907 22.2841 18.8553 21.7747 18.1195C21.4195 17.6065 21.1508 16.8275 20.6654 16.4304C20.4111 16.2223 20.5818 17.0272 20.6351 17.1212C20.8603 17.5175 21.1755 18.1309 21.5276 18.417C21.9275 18.7419 22.3123 19.2753 22.5612 19.728C22.7118 20.0018 22.8786 20.4067 23.1562 20.57C23.3781 20.7005 23.5954 20.895 23.8823 20.8019C24.1381 20.719 25.1495 19.3495 24.921 19.2842C24.5614 19.1815 23.8813 19.6206 23.5092 19.6826C22.7758 19.8048 22.0148 19.6928 21.5226 19.0775C21.0134 18.441 21.0062 17.6343 20.8368 16.8842C20.7439 16.4726 20.5004 16.2713 20.3629 15.9413C20.2289 15.6198 20.4044 16.4637 20.4536 16.5766C20.6986 17.1391 20.9643 17.7897 21.4772 18.1447C21.8597 18.4096 22.7737 18.375 23.136 18.0993C23.5818 17.7602 23.9192 17.285 24.3361 16.9144C24.7245 16.5692 24.9266 16.0667 25.2891 15.7043C25.5718 15.4216 26.2373 15.5581 26.5849 15.5581C27.6686 15.5581 28.5192 15.81 29.5043 16.2791C30.5558 16.7798 31.5108 17.1539 32.4136 17.9178" stroke="#E38E5D" stroke-width="1.28126" stroke-linecap="round"/>
</g>
<defs>
<clipPath id="clip0_448_4428">
<rect width="46" height="44" rx="5" fill="white"/>
</clipPath>
</defs>
</svg>
