<svg width="46" height="44" viewBox="0 0 46 44" fill="none" xmlns="http://www.w3.org/2000/svg">
<rect width="46" height="44" rx="5" fill="#F5ECFE"/>
<path d="M31.3274 30.0669C30.9493 30.4106 29.2493 31.2439 25.4742 31.8282C24.0828 31.8854 21.1819 32 20.71 32C20.1201 32 16.0819 31.3127 15.4013 31.1408C14.7206 30.969 13.4502 30.0669 13.3141 30.2817C13.1779 30.4965 12.5427 30.5824 12.2251 30.7113C11.9075 30.8401 11.4537 30.0669 11.4537 29.6373C11.4537 29.2937 12.1797 28.635 12.5427 28.3486C12.2553 28.2484 11.6352 28.0221 11.4537 27.919C11.2269 27.7901 11 26.9739 11 26.5444C11 26.2007 11.8167 26.1721 12.2251 26.2007C12.2251 25.7998 12.2886 24.723 12.5427 23.6232C12.8603 22.2486 12.5881 14.1725 12.5427 12.5401C12.4973 10.9077 13.1326 10.9507 14.8114 11.7669C15.9416 12.3163 20.3924 16.5209 22.3888 18.8979C22.4796 19.1556 22.8244 19.379 23.4778 18.2106C24.2945 16.75 30.0116 11.7669 31.3274 11.1655C32.3801 10.6844 32.976 11.366 33.1424 11.7669C32.8701 15.2035 32.3529 22.2314 32.4618 22.85C32.5979 23.6232 32.0988 25.3415 33.1424 25.6852C34.186 26.0289 34.0045 26.7592 33.9591 27.2317C33.9137 27.7042 32.7794 28.0049 33.1424 28.3486C33.5054 28.6923 33.6869 29.6803 33.1424 30.0669C32.7068 30.3762 31.7509 30.1958 31.3274 30.0669Z" fill="#2D4399"/>
</svg>
