<svg width="15" height="17" viewBox="0 0 15 17" fill="none" xmlns="http://www.w3.org/2000/svg">
<path d="M3.16667 11.0436H2.73333C1.77278 11.0436 1 10.1481 1 9.03489V3.00872C1 1.89556 1.77278 1 2.73333 1H7.93333C8.89389 1 9.66667 1.89556 9.66667 3.00872V3.5109M7.06667 6.02181H12.2667C12.7264 6.02181 13.1673 6.23344 13.4923 6.61015C13.8174 6.98686 14 7.49778 14 8.03053V14.0567C14 14.5894 13.8174 15.1004 13.4923 15.4771C13.1673 15.8538 12.7264 16.0654 12.2667 16.0654H7.06667C6.60696 16.0654 6.16608 15.8538 5.84101 15.4771C5.51595 15.1004 5.33333 14.5894 5.33333 14.0567V8.03053C5.33333 7.76674 5.37817 7.50553 5.46528 7.26182C5.55238 7.01811 5.68006 6.79668 5.84101 6.61015C6.00197 6.42362 6.19305 6.27566 6.40335 6.17471C6.61365 6.07376 6.83904 6.02181 7.06667 6.02181Z" stroke="#797979" stroke-width="0.722222" stroke-miterlimit="10" stroke-linecap="round" stroke-linejoin="round"/>
</svg>
