<svg width="16" height="15" viewBox="0 0 16 15" fill="none" xmlns="http://www.w3.org/2000/svg">
<path d="M8 9.5L7.646 9.854L8 10.207L8.354 9.854L8 9.5ZM8.5 0.5C8.5 0.367392 8.44732 0.240215 8.35355 0.146447C8.25978 0.0526785 8.1326 0 8 0C7.86739 0 7.74021 0.0526785 7.64644 0.146447C7.55267 0.240215 7.5 0.367392 7.5 0.5H8.5ZM2.646 4.854L7.646 9.854L8.354 9.146L3.354 4.146L2.646 4.854ZM8.354 9.854L13.354 4.854L12.646 4.146L7.646 9.146L8.354 9.854ZM8.5 9.5V0.5H7.5V9.5H8.5Z" fill="black"/>
<path d="M1 11.207V12.207C1 12.7375 1.21071 13.2462 1.58579 13.6212C1.96086 13.9963 2.46957 14.207 3 14.207H13C13.5304 14.207 14.0391 13.9963 14.4142 13.6212C14.7893 13.2462 15 12.7375 15 12.207V11.207" stroke="black"/>
</svg>
