<svg width="31" height="38" viewBox="0 0 31 38" fill="none" xmlns="http://www.w3.org/2000/svg">
<path d="M1.58545 29.4588C3.98072 28.2124 6.47064 24.9755 7.23128 19.6249C8.21359 22.7346 9.13798 24.8329 10.2055 25.4735C11.4505 26.2204 13.4424 26.9698 14.5452 26.9698C13.4424 27.4654 12.1856 28.8287 10.9525 29.9553C9.70467 31.0954 9.20956 34.9352 8.69791 36.9271C7.7156 34.1882 8.21482 34.5604 6.96862 32.1963C5.72242 29.8322 3.73172 29.4588 1.58545 29.4588Z" fill="#FFF9EF"/>
<path d="M7.90759 5.9871C9.27877 5.27358 10.7041 3.42061 11.1396 0.357629C11.7019 2.13778 12.2311 3.33901 12.8422 3.70568C13.5549 4.13329 14.6951 4.56225 15.3264 4.56225C14.6951 4.84597 13.9757 5.62639 13.2698 6.27133C12.5555 6.92397 12.272 9.12207 11.9791 10.2624C11.4168 8.69447 11.7026 8.90752 10.9892 7.55418C10.2758 6.20083 9.13623 5.9871 7.90759 5.9871Z" fill="#FFF9EF"/>
<path d="M21.9076 21.9871C23.2788 21.2736 24.7041 19.4206 25.1396 16.3576C25.7019 18.1378 26.2311 19.339 26.8422 19.7057C27.5549 20.1333 28.6951 20.5622 29.3264 20.5622C28.6951 20.846 27.9757 21.6264 27.2698 22.2713C26.5555 22.924 26.272 25.1221 25.9791 26.2624C25.4168 24.6945 25.7026 24.9075 24.9892 23.5542C24.2758 22.2008 23.1362 21.9871 21.9076 21.9871Z" fill="#FFF9EF"/>
</svg>
