<svg width="269" height="358" viewBox="0 0 269 358" fill="none" xmlns="http://www.w3.org/2000/svg">
<path d="M35.5854 130.459C37.9807 129.213 40.4706 125.976 41.2313 120.625C42.2136 123.735 43.138 125.833 44.2055 126.474C45.4505 127.221 47.4424 127.97 48.5452 127.97C47.4424 128.466 46.1856 129.829 44.9525 130.956C43.7047 132.096 43.2096 135.936 42.6979 137.928C41.7156 135.189 42.2148 135.561 40.9686 133.197C39.7224 130.833 37.7317 130.459 35.5854 130.459Z" fill="#FFF9EF"/>
<path d="M7.58545 25.4593C9.98072 24.2129 12.4706 20.976 13.2313 15.6253C14.2136 18.735 15.138 20.8334 16.2055 21.474C17.4505 22.2209 19.4424 22.9703 20.5452 22.9703C19.4424 23.4659 18.1856 24.8292 16.9525 25.9558C15.7047 27.0959 15.2096 30.9357 14.6979 32.9276C13.7156 30.1887 14.2148 30.5609 12.9686 28.1968C11.7224 25.8327 9.73172 25.4593 7.58545 25.4593Z" fill="#FFF9EF"/>
<path d="M253.585 10.4593C255.981 9.21287 258.471 5.97597 259.231 0.625339C260.214 3.73504 261.138 5.83343 262.206 6.47396C263.45 7.22094 265.442 7.97026 266.545 7.97026C265.442 8.4659 264.186 9.82919 262.953 10.9558C261.705 12.0959 261.21 15.9357 260.698 17.9276C259.716 15.1887 260.215 15.5609 258.969 13.1968C257.722 10.8327 255.732 10.4593 253.585 10.4593Z" fill="#FFF9EF"/>
<path d="M248.585 313.459C250.981 312.213 253.471 308.976 254.231 303.625C255.214 306.735 256.138 308.833 257.206 309.474C258.45 310.221 260.442 310.97 261.545 310.97C260.442 311.466 259.186 312.829 257.953 313.956C256.705 315.096 256.21 318.936 255.698 320.928C254.716 318.189 255.215 318.561 253.969 316.197C252.722 313.833 250.732 313.459 248.585 313.459Z" fill="#FFF9EF"/>
<path d="M14.5854 349.459C16.9807 348.213 19.4706 344.976 20.2313 339.625C21.2136 342.735 22.138 344.833 23.2055 345.474C24.4505 346.221 26.4424 346.97 27.5452 346.97C26.4424 347.466 25.1856 348.829 23.9525 349.956C22.7047 351.096 22.2096 354.936 21.6979 356.928C20.7156 354.189 21.2148 354.561 19.9686 352.197C18.7224 349.833 16.7317 349.459 14.5854 349.459Z" fill="#FFF9EF"/>
<path d="M20.9076 325.988C22.2788 325.274 23.7041 323.421 24.1396 320.358C24.7019 322.138 25.2311 323.339 25.8422 323.706C26.5549 324.134 27.6951 324.563 28.3264 324.563C27.6951 324.846 26.9757 325.627 26.2698 326.272C25.5555 326.924 25.272 329.123 24.9791 330.263C24.4168 328.695 24.7026 328.908 23.9892 327.555C23.2758 326.201 22.1362 325.988 20.9076 325.988Z" fill="#FFF9EF"/>
<path d="M34.9076 341.988C36.2788 341.274 37.7041 339.421 38.1396 336.358C38.7019 338.138 39.2311 339.339 39.8422 339.706C40.5549 340.134 41.6951 340.563 42.3264 340.563C41.6951 340.846 40.9757 341.627 40.2698 342.272C39.5555 342.924 39.272 345.123 38.9791 346.263C38.4168 344.695 38.7026 344.908 37.9892 343.555C37.2758 342.201 36.1362 341.988 34.9076 341.988Z" fill="#FFF9EF"/>
<path d="M241.908 286.988C243.279 286.274 244.704 284.421 245.14 281.358C245.702 283.138 246.231 284.339 246.842 284.706C247.555 285.134 248.695 285.563 249.326 285.563C248.695 285.846 247.976 286.627 247.27 287.272C246.555 287.924 246.272 290.123 245.979 291.263C245.417 289.695 245.703 289.908 244.989 288.555C244.276 287.201 243.136 286.988 241.908 286.988Z" fill="#FFF9EF"/>
<path d="M230.908 306.988C232.279 306.274 233.704 304.421 234.14 301.358C234.702 303.138 235.231 304.339 235.842 304.706C236.555 305.134 237.695 305.563 238.326 305.563C237.695 305.846 236.976 306.627 236.27 307.272C235.555 307.924 235.272 310.123 234.979 311.263C234.417 309.695 234.703 309.908 233.989 308.555C233.276 307.201 232.136 306.988 230.908 306.988Z" fill="#FFF9EF"/>
<path d="M47.9076 108.988C49.2788 108.274 50.7041 106.421 51.1396 103.358C51.7019 105.138 52.2311 106.339 52.8422 106.706C53.5549 107.134 54.6951 107.563 55.3264 107.563C54.6951 107.846 53.9757 108.627 53.2698 109.272C52.5555 109.924 52.272 112.123 51.9791 113.263C51.4168 111.695 51.7026 111.908 50.9892 110.555C50.2758 109.201 49.1362 108.988 47.9076 108.988Z" fill="#FFF9EF"/>
<path d="M12.9076 129.988C14.2788 129.274 15.7041 127.421 16.1396 124.358C16.7019 126.138 17.2311 127.339 17.8422 127.706C18.5549 128.134 19.6951 128.563 20.3264 128.563C19.6951 128.846 18.9757 129.627 18.2698 130.272C17.5555 130.924 17.272 133.123 16.9791 134.263C16.4168 132.695 16.7026 132.908 15.9892 131.555C15.2758 130.201 14.1362 129.988 12.9076 129.988Z" fill="#FFF9EF"/>
<path d="M0.907593 39.9876C2.27877 39.2741 3.70413 37.4211 4.13956 34.3581C4.70188 36.1383 5.23105 37.3395 5.84217 37.7062C6.55485 38.1338 7.69514 38.5627 8.32642 38.5627C7.69514 38.8465 6.97568 39.6269 6.26978 40.2718C5.55546 40.9245 5.27203 43.1226 4.97913 44.2629C4.41681 42.695 4.70259 42.908 3.9892 41.5547C3.27581 40.2013 2.13623 39.9876 0.907593 39.9876Z" fill="#FFF9EF"/>
<path d="M23.9076 14.9876C25.2788 14.2741 26.7041 12.4211 27.1396 9.35812C27.7019 11.1383 28.2311 12.3395 28.8422 12.7062C29.5549 13.1338 30.6951 13.5627 31.3264 13.5627C30.6951 13.8465 29.9757 14.6269 29.2698 15.2718C28.5555 15.9245 28.272 18.1226 27.9791 19.2629C27.4168 17.695 27.7026 17.908 26.9892 16.5547C26.2758 15.2013 25.1362 14.9876 23.9076 14.9876Z" fill="#FFF9EF"/>
<path d="M230.908 18.9876C232.279 18.2741 233.704 16.4211 234.14 13.3581C234.702 15.1383 235.231 16.3395 235.842 16.7062C236.555 17.1338 237.695 17.5627 238.326 17.5627C237.695 17.8465 236.976 18.6269 236.27 19.2718C235.555 19.9245 235.272 22.1226 234.979 23.2629C234.417 21.695 234.703 21.908 233.989 20.5547C233.276 19.2013 232.136 18.9876 230.908 18.9876Z" fill="#FFF9EF"/>
<path d="M255.908 25.9876C257.279 25.2741 258.704 23.4211 259.14 20.3581C259.702 22.1383 260.231 23.3395 260.842 23.7062C261.555 24.1338 262.695 24.5627 263.326 24.5627C262.695 24.8465 261.976 25.6269 261.27 26.2718C260.555 26.9245 260.272 29.1226 259.979 30.2629C259.417 28.695 259.703 28.908 258.989 27.5547C258.276 26.2013 257.136 25.9876 255.908 25.9876Z" fill="#FFF9EF"/>
<path d="M223.908 144.988C225.279 144.274 226.704 142.421 227.14 139.358C227.702 141.138 228.231 142.339 228.842 142.706C229.555 143.134 230.695 143.563 231.326 143.563C230.695 143.846 229.976 144.627 229.27 145.272C228.555 145.924 228.272 148.123 227.979 149.263C227.417 147.695 227.703 147.908 226.989 146.555C226.276 145.201 225.136 144.988 223.908 144.988Z" fill="#FFF9EF"/>
</svg>
