<svg width="36" height="38" viewBox="0 0 36 38" fill="none" xmlns="http://www.w3.org/2000/svg">
<rect x="-0.519772" y="0.519772" width="34.305" height="35.8643" rx="4.67795" transform="matrix(-1 0 0 1 34.6829 0.84668)" fill="white" stroke="#F32D12" stroke-width="1.03954"/>
<path d="M15.8259 10.5456C16.6474 10.5456 19.1118 10.5456 18.2903 10.5456C16.8645 10.5456 15.5533 10.9366 14.1984 11.1663C13.7733 11.2384 14.7165 11.0183 14.7797 11.0013C15.8357 10.7162 16.831 10.4395 17.9765 10.3485C18.3287 10.3205 18.6803 10.3239 19.0343 10.3239C19.5238 10.3239 18.5746 10.3812 18.4996 10.3879C17.083 10.5137 15.6638 10.6963 14.2992 10.9693C13.9071 11.0477 13.4227 11.1619 13.1212 11.3535C13.0277 11.413 13.335 11.2545 13.4428 11.2057C13.9459 10.9783 14.5239 10.8045 15.0664 10.6195C15.9214 10.3278 16.7531 10.1365 17.7052 10.0356C18.05 9.99911 18.4062 10.0135 18.7553 10.0135C18.9619 10.0135 19.1779 10.0014 19.3831 10.0159C19.6085 10.0319 19.8547 10.0865 19.4528 10.0135" stroke="#F32D12" stroke-width="0.452638" stroke-linecap="round"/>
<path d="M13.104 11.3664C12.7548 10.9708 12.4829 10.5119 12.1892 10.0671C11.7655 9.42556 11.2477 8.86797 10.6746 8.38545C10.0634 7.87085 9.45719 7.37651 8.77913 6.97633C8.66976 6.91178 8.64415 6.87553 8.52549 6.83755C8.33303 6.77595 8.11958 6.7764 7.92983 6.71359C7.81195 6.67457 7.68611 6.59618 7.55113 6.58856C7.33005 6.57608 7.15365 6.52335 6.9415 6.44192C6.83091 6.39947 6.60884 6.3758 6.55363 6.24935" stroke="#F32D12" stroke-width="0.452638" stroke-linecap="round"/>
<path d="M6.37055 6.38721C6.37055 6.8941 6.20988 7.37351 6.1555 7.87533C6.06833 8.67961 6.04797 9.47026 6.04797 10.2784C6.04797 11.1086 5.94044 11.9344 5.94044 12.7613C5.94044 13.2728 5.94836 13.7686 5.87473 14.2743C5.78849 14.8666 6.14153 15.2904 6.47807 15.7734C6.67585 16.0573 6.87909 16.3536 7.04258 16.6553C7.13527 16.8263 7.25952 17.1646 7.4458 17.2505" stroke="#F32D12" stroke-width="0.452638" stroke-linecap="round"/>
<path d="M7.38574 17.7036C7.38574 18.4944 7.41529 19.2858 7.43237 20.0715C7.43973 20.4102 7.59519 21.329 7.89868 21.4808" stroke="#F32D12" stroke-width="0.452638" stroke-linecap="round"/>
<path d="M7.89841 21.5508C7.89841 21.8918 8.22565 22.2269 8.42648 22.5172C9.02796 23.3865 9.49099 24.3007 10.078 25.1738C10.8117 26.2651 12.1469 27.4402 13.8212 27.7169C14.7828 27.8758 15.7659 27.8972 16.7308 28.0326C17.4589 28.1347 18.1537 28.3363 18.8871 28.4272C19.308 28.4794 19.7176 28.5445 20.1011 28.6871C20.246 28.741 20.4082 28.793 20.5723 28.793" stroke="#F32D12" stroke-width="0.452638" stroke-linecap="round"/>
<path d="M19.4641 10.2349C19.3253 10.2022 19.8462 9.43574 19.8771 9.38208C20.5181 8.269 21.3706 7.33092 22.2403 6.37387C22.7123 5.85444 23.2166 5.33672 23.7428 4.86508C24.1303 4.51768 24.5806 4.26767 25.0313 4.00291C25.2921 3.84972 25.6716 3.74472 25.7776 3.44531" stroke="#F32D12" stroke-width="0.452638" stroke-linecap="round"/>
<path d="M25.7776 3.44531C25.7776 4.57055 25.9951 5.66752 26.1347 6.73022C26.2189 7.37048 26.282 8.01327 26.3514 8.66109C26.3881 9.00394 26.4521 9.3281 26.4521 9.68475C26.4521 9.9331 26.4635 10.199 26.4498 10.4457C26.4324 10.7563 26.3441 11.1103 26.2835 11.3908C26.1998 11.7779 26.1202 12.1645 26.0422 12.558C26.0094 12.7235 25.99 12.9507 25.9041 12.9507" stroke="#F32D12" stroke-width="0.452638" stroke-linecap="round"/>
<path d="M26.3092 12.498C26.3092 12.8505 26.4789 13.2196 26.5901 13.5489C26.7402 13.9933 26.8663 14.4587 26.9664 14.9199C27.2899 16.4096 27.6267 17.7979 27.0451 19.2803C26.7038 20.1503 26.2846 20.9286 25.8514 21.7517C25.3487 22.7068 24.8936 23.6835 24.3263 24.6014C23.5541 25.8505 22.5974 26.917 21.6608 28.0304C21.4119 28.3262 21.1703 28.6646 20.7986 28.793" stroke="#F32D12" stroke-width="0.452638" stroke-linecap="round"/>
<path d="M14.8658 17.9686C14.7362 17.6 14.6521 17.4748 14.3126 17.2538C13.9522 17.019 13.5846 16.8815 13.1733 16.7213C12.7016 16.5375 12.1647 16.3447 11.628 16.3577C11.0506 16.3717 10.4842 16.4974 9.92153 16.618C9.4561 16.7178 9.0949 17.0406 8.88544 17.4127C8.75483 17.6447 8.79109 17.7143 8.84935 17.9719C8.92981 18.3277 9.05716 18.4565 9.3426 18.695C9.70254 18.9957 10.1022 19.227 10.5601 19.4112C11.6644 19.8553 13.1523 19.6569 14.3257 19.4173C14.6608 19.3489 15.2969 19.2767 15.2738 18.8715C15.2551 18.5438 15.0911 18.2355 15.02 17.9214C14.9818 17.7525 14.7196 17.4948 14.5394 17.4364" stroke="#F32D12" stroke-width="0.452638" stroke-linecap="round"/>
<path d="M19.7238 17.0092C19.67 16.6745 19.6865 16.5476 19.8804 16.2604C20.0864 15.9554 20.3423 15.7251 20.6258 15.4624C20.9508 15.1611 21.3283 14.8311 21.7981 14.6643C22.3036 14.4847 22.8498 14.3973 23.3905 14.3071C23.8378 14.2324 24.2953 14.3688 24.6438 14.5944C24.8611 14.7351 24.8611 14.8022 24.9266 15.0254C25.0172 15.3338 24.9651 15.4779 24.8256 15.7611C24.6498 16.1181 24.4084 16.4332 24.0953 16.7303C23.3405 17.4467 21.9649 17.7807 20.8427 17.9784C20.5223 18.0348 19.9398 18.1877 19.7775 17.8591C19.6462 17.5934 19.6493 17.295 19.5693 17.0228C19.5263 16.8763 19.6371 16.5856 19.7666 16.4799" stroke="#F32D12" stroke-width="0.452638" stroke-linecap="round"/>
<path d="M20.0254 23.814C20.4264 23.814 20.7496 24.0577 21.0529 24.3044C22.1608 25.2054 23.1542 26.2436 24.2638 27.144C24.8439 27.6148 25.4174 28.1002 26.0245 28.5358C26.1598 28.6328 26.2978 28.7631 26.4565 28.816" stroke="#F32D12" stroke-width="0.452638" stroke-linecap="round"/>
<path d="M19.4017 24.9458C19.517 24.9458 19.5935 24.9577 19.6959 25.0205C20.3618 25.4287 21.0118 25.8913 21.6038 26.4006C22.3861 27.0738 23.1064 27.8677 23.6144 28.7709C23.92 29.3141 24.1387 29.8976 24.4434 30.4429C24.6917 30.8872 25.0597 31.3017 25.4335 31.6478C25.7368 31.9286 25.9057 32.0333 26.2766 32.1709C26.727 32.3381 27.129 32.5707 27.6216 32.5936C28.0327 32.6127 28.4478 32.5959 28.8593 32.5959C29.7139 32.5959 30.1161 31.9128 30.5617 31.2929C30.8238 30.9281 30.9827 30.5857 31.0777 30.158C31.1225 29.9564 31.0871 29.7144 31.0871 29.5088C31.0871 29.1887 31.1094 28.8595 31.1501 28.542C31.2029 28.1304 31.2608 27.7369 31.1291 27.3417C30.7996 26.3533 29.7016 25.8201 28.7122 25.7468C28.0701 25.6992 27.1779 25.9366 27.1779 26.7112C27.1779 26.7876 27.1592 26.8735 27.2106 26.9307C27.3092 27.0402 27.2226 27.0159 27.1593 27.0522C27.0526 27.1131 27.0096 27.4504 26.9678 27.5612C26.9064 27.7237 26.8077 27.8631 26.7483 28.0236C26.6624 28.2555 26.3793 28.4318 26.3793 28.7078C26.3793 28.7928 26.3419 28.8558 26.3373 28.939C26.3325 29.024 26.3139 29.1562 26.2532 29.0651" stroke="#F32D12" stroke-width="0.452638" stroke-linecap="round"/>
<path d="M30.6667 27.6779C30.4982 27.6779 30.3588 27.6704 30.202 27.741C29.9109 27.872 29.581 27.846 29.2703 27.846C29.0018 27.846 28.3969 27.8679 28.3969 27.5098" stroke="#F32D12" stroke-width="0.452638" stroke-linecap="round"/>
<path d="M24.6462 30.6106C23.9706 29.7363 23.1331 28.9973 22.4325 28.1423C21.8472 27.4281 21.2509 26.7292 20.6414 26.0359C20.4916 25.8656 20.3601 25.6753 20.2 25.5152C20.1448 25.46 20.0936 25.4855 20.0646 25.3984" stroke="#F32D12" stroke-width="0.452638" stroke-linecap="round"/>
<path d="M18.9474 22.6463C18.9582 22.4526 19.0636 22.2364 19.1287 22.056C19.2205 21.8018 19.2818 21.5267 19.3184 21.2592C19.3299 21.1757 19.4231 20.8705 19.3564 20.7954C19.3427 20.78 19.249 20.8553 19.2299 20.8608C19.0582 20.9098 18.8193 20.9951 18.6439 21.0146C18.4002 21.0417 18.1665 21.1675 17.9229 21.2023C17.6662 21.2389 17.4314 21.271 17.202 21.3857C17.0069 21.4832 17.3691 21.1098 17.4718 21.0694C17.931 20.8891 18.2922 20.787 18.7872 20.787C18.9826 20.787 19.1779 20.787 19.3732 20.787C19.5253 20.787 19.4563 20.749 19.3458 20.749C18.8931 20.749 18.5191 20.7658 18.0916 20.9198C17.7711 21.0351 17.4266 21.2167 17.1345 21.3941C17.1153 21.4058 16.9554 21.4629 17.0122 21.47C17.0807 21.4785 17.1577 21.5178 17.2209 21.5459C17.3186 21.5893 17.426 21.7381 17.5076 21.8115C17.6414 21.9318 17.7928 22.0266 17.9229 22.153C18.192 22.4144 18.4578 22.6134 18.7746 22.8149C18.8681 22.8745 18.6955 22.8265 18.6607 22.8149C18.4812 22.7551 18.2845 22.628 18.1379 22.5114C17.799 22.2418 17.5849 21.8547 17.3537 21.5079" stroke="#F32D12" stroke-width="0.452638" stroke-linecap="round"/>
<path d="M22.3831 14.7612C22.7184 14.806 22.9067 15.1097 23.0221 15.3258C23.1089 15.4883 23.1773 15.6663 23.2262 15.8374C23.2783 16.0195 23.2883 16.1855 23.2883 16.3714C23.2883 16.5918 23.196 16.8154 23.0438 17.0033C22.9904 17.0692 22.9189 17.1329 22.8722 17.2004C22.8658 17.2096 22.8091 17.2628 22.8091 17.2482" stroke="#F32D12" stroke-width="0.452638" stroke-linecap="round"/>
<path d="M22.3831 17.2507C22.1045 17.2507 21.8395 17.1032 21.6173 16.9734C21.1935 16.7258 21.0925 16.1907 21.0513 15.797C21.0378 15.6677 20.9934 15.4919 21.0643 15.3701C21.13 15.257 21.2138 15.1518 21.3177 15.0589C21.3766 15.0062 21.4396 14.908 21.5341 14.8965C21.5823 14.8906 21.696 14.7957 21.7172 14.7612" stroke="#F32D12" stroke-width="0.452638" stroke-linecap="round"/>
<path d="M12.4248 16.1191C12.7601 16.1803 12.9484 16.5944 13.0638 16.8891C13.1506 17.1107 13.219 17.3534 13.268 17.5867C13.32 17.835 13.3301 18.0613 13.3301 18.3149C13.3301 18.6154 13.2377 18.9203 13.0855 19.1765C13.0321 19.2664 12.9606 19.3533 12.9139 19.4453C12.9076 19.4579 12.8508 19.5303 12.8508 19.5105" stroke="#F32D12" stroke-width="0.452638" stroke-linecap="round"/>
<path d="M12.6514 19.5142C12.28 19.5142 11.9266 19.3264 11.6304 19.1612C11.0653 18.8461 10.9307 18.165 10.8757 17.664C10.8577 17.4994 10.7985 17.2756 10.893 17.1206C10.9806 16.9767 11.0923 16.8427 11.2308 16.7245C11.3094 16.6575 11.3934 16.5326 11.5194 16.5179C11.5837 16.5104 11.7352 16.3896 11.7635 16.3457" stroke="#F32D12" stroke-width="0.452638" stroke-linecap="round"/>
<path d="M7.27004 10.0459C7.35245 10.0459 7.4116 10.0426 7.48407 10.0887C7.52907 10.1173 7.67419 10.2123 7.66481 10.2004C7.45365 9.9342 7.20583 9.61344 7.20583 9.25871C7.20583 8.95855 7.24864 8.66597 7.24864 8.36692C7.24864 8.18464 7.3203 7.88839 7.14163 7.7938C7.13448 7.79002 7.0798 7.73255 7.0798 7.72365C7.0798 7.69724 7.16701 7.77651 7.16778 7.77715C7.25953 7.85361 7.36305 7.90943 7.46267 7.97454C7.83253 8.21625 8.16027 8.52046 8.52568 8.76407C8.94741 9.04522 9.31593 9.44475 9.6422 9.82827C9.91953 10.1542 10.2247 10.4567 10.5019 10.7831C10.5941 10.8917 10.6644 11.0323 10.7706 11.1279C10.909 11.2524 10.5999 10.797 10.5114 10.6333C10.2598 10.1676 10.0063 9.71922 9.66836 9.30984C9.50054 9.10652 9.35007 8.8909 9.18442 8.68559C9.07088 8.54487 8.94844 8.42583 8.82176 8.29915C8.70561 8.183 8.61351 8.05701 8.47931 7.95908C8.41326 7.91088 8.19095 7.80479 8.26409 7.84136C8.3436 7.88112 8.41196 7.9121 8.48763 7.9674C8.88687 8.25916 9.26061 8.6015 9.62912 8.93054C10.2665 9.49965 10.8449 10.1316 11.3104 10.8497C11.559 11.2331 11.7484 11.6478 11.9787 12.0411C12.1402 12.3169 12.3177 12.5845 12.5126 12.8378C12.5256 12.8547 12.6805 13.04 12.616 13.0423C12.531 13.0453 12.4602 13.0188 12.3854 12.9781C12.0352 12.7875 11.7163 12.4707 11.4674 12.1636C11.0152 11.6057 10.7699 10.8285 10.1999 10.3693C9.8747 10.1074 9.468 9.9613 9.05362 9.92221C8.86244 9.90417 9.23887 10.1189 9.24744 10.1255C9.80058 10.5561 10.3195 11.0255 10.7801 11.5548C11.4243 12.295 12.0874 13.1746 12.3283 14.1481C12.3418 14.2029 12.4438 14.5003 12.3532 14.5405C12.1746 14.6199 12.1871 15.0931 12.3318 15.1933C12.3955 15.2374 12.4767 15.2468 12.5518 15.2468C12.5781 15.2468 12.7469 15.2544 12.6541 15.204C12.3924 15.0619 12.107 15.0058 11.8075 15.0756C11.591 15.126 11.3775 15.1545 11.1582 15.1838C10.821 15.2287 10.4756 15.2557 10.1369 15.3003C9.97565 15.3215 9.82522 15.3217 9.6648 15.3538C9.53445 15.3799 9.41511 15.4275 9.28668 15.4561C9.10255 15.497 8.95745 15.6107 8.78965 15.6915C8.69654 15.7363 8.60841 15.7542 8.52212 15.814C8.47095 15.8494 8.4066 15.9069 8.35089 15.9317C8.21004 15.9943 8.20906 16.1478 8.02985 16.0387C7.81167 15.9059 7.6065 15.7151 7.46267 15.5036C7.24494 15.1834 7.17754 14.8312 7.08812 14.4537C6.9908 14.0428 7.02109 13.5805 7.0358 13.1612C7.04729 12.8338 7.10487 12.5261 7.18919 12.2099C7.28761 11.8409 7.3656 11.4676 7.50548 11.1113C7.59349 10.8871 7.67558 10.5773 7.88954 10.4347C8.00845 10.3554 8.07285 10.4062 8.18324 10.4787C8.96698 10.9933 9.65564 11.9456 9.66717 12.9091C9.67057 13.1929 9.69296 13.4211 9.44482 13.6059C9.2715 13.735 8.95558 13.856 8.7516 13.72C8.56353 13.5947 8.48952 13.3133 8.45553 13.1065C8.41446 12.8567 8.36197 12.4571 8.49477 12.2254C8.64582 11.9618 8.96666 11.9032 9.23912 11.8675C9.61165 11.8186 9.99287 11.7954 10.3461 11.9472C10.8929 12.1821 11.068 12.6318 11.0322 13.1969C11.0037 13.6473 10.5064 14.005 10.0845 14.0221C9.75878 14.0352 9.39911 13.8677 9.31284 13.5227C9.26258 13.3216 10.5672 13.4529 10.6874 13.4846C11.1768 13.6138 11.5795 13.9518 12.0393 14.1517C12.2472 14.242 12.3794 14.1907 12.4757 13.9959C12.5517 13.8421 12.6513 13.693 12.6945 13.5262C12.7324 13.3801 12.8208 13.302 12.962 13.2373C13.5705 12.9584 14.2571 12.8754 14.8693 12.613C15.2682 12.4421 15.6664 12.2687 16.0667 12.1006C16.7119 11.8296 17.3891 11.6725 18.0738 11.5393C19.0167 11.356 19.9514 11.2658 20.9109 11.2658C20.9266 11.2658 21.1567 11.2771 21.0488 11.2111C20.9371 11.1429 20.7952 11.1351 20.6695 11.116C20.3842 11.0726 20.0996 11.0572 19.811 11.053C19.2917 11.0454 18.7662 11.0367 18.2498 11.0994C17.7384 11.1614 17.2416 11.3255 16.7432 11.4501C16.1482 11.5989 15.5544 11.7215 14.9656 11.8937C14.387 12.0629 13.8084 12.2323 13.2391 12.4311C12.9675 12.5259 12.6494 12.6302 12.4293 12.8283C12.2794 12.9632 12.4284 12.9353 12.5685 12.9353C13.3481 12.9353 14.1166 12.9249 14.8907 13.0316C15.4484 13.1084 15.9996 13.1659 16.5637 13.1659C17.3426 13.1659 18.0607 13.0068 18.7991 12.7676C19.5327 12.53 20.2347 12.2967 21.006 12.229C21.2361 12.2088 21.4649 12.2076 21.6956 12.2076C21.7894 12.2076 21.9015 12.1994 21.9739 12.2718C22.0354 12.3333 21.6116 12.5289 21.5684 12.5548C21.1562 12.8013 20.7253 13.0366 20.283 13.2254C19.8202 13.4229 19.3026 13.4896 18.8158 13.6023C18.0795 13.7728 17.3439 13.8912 16.6017 14.0268C16.2553 14.0901 15.9101 14.1796 15.5768 14.2932C15.2473 14.4055 14.9178 14.5226 14.5708 14.5666C14.2331 14.6096 13.8759 14.6699 13.534 14.6463C13.4818 14.6427 13.3527 14.5839 13.3485 14.6737C13.3389 14.8798 13.3699 15.0834 13.3699 15.2896C13.3699 15.4535 13.3561 15.4838 13.5209 15.525C13.7362 15.5788 13.953 15.6957 14.157 15.7819C14.2914 15.8386 14.3973 15.9415 14.5304 15.9959C14.6933 16.0625 14.8488 16.1352 15.0191 16.1778C15.29 16.2455 15.5447 16.2963 15.8074 16.4014C16.2465 16.577 16.7664 16.5832 17.201 16.3978C17.6799 16.1935 18.1408 15.9415 18.5875 15.6748C18.7417 15.5828 18.861 15.4535 19.0001 15.3431C19.1931 15.1898 19.3993 15.049 19.5981 14.9032C19.8421 14.7242 20.0672 14.5049 20.2997 14.3098C20.6079 14.0513 20.8976 13.8047 21.2402 13.5916C21.467 13.4506 21.6952 13.324 21.8835 13.1327C21.9506 13.0645 22.0381 12.9738 22.0381 12.8711" stroke="#F32D12" stroke-width="2.48951" stroke-linecap="round"/>
<path d="M20.9251 11.287C20.9251 11.027 20.9183 10.8013 21.0321 10.5593C21.1187 10.3753 20.7191 10.5482 20.673 10.6235C20.4867 10.9285 21.038 10.0004 21.289 9.74601C21.4686 9.56389 21.6644 9.39874 21.8478 9.22045C22.0178 9.05518 22.2114 8.93924 22.3686 8.75672C22.7017 8.37019 23.0284 8.00156 23.2842 7.55815C23.5123 7.16281 23.8739 6.85521 24.1047 6.46423C24.1661 6.36003 24.2314 6.07806 24.3924 6.08611C24.5798 6.09548 24.7563 6.22063 24.7563 6.40715C24.7563 6.55415 24.8595 6.70764 24.8799 6.85661C24.9233 7.17312 24.9808 7.48556 25.0119 7.80429C25.05 8.1952 25.1056 8.58659 25.1368 8.97788C25.1682 9.37322 25.1415 9.77991 25.1415 10.1765C25.1415 10.4021 25.0936 10.6345 25.0559 10.8566C25.0123 11.1134 24.9768 11.3748 24.9168 11.6283C24.8847 11.7635 24.8731 11.9999 24.7349 12.0789C24.4681 12.2313 24.0513 12.2396 23.7551 12.224C22.6947 12.1682 22.8416 10.7573 23.1344 10.0671C23.3001 9.67655 23.5295 9.24153 23.8336 8.93746C23.9361 8.83496 24.05 8.75926 24.05 8.94221C24.05 9.22697 23.9452 9.37262 23.6397 9.41189C23.3557 9.4484 22.9915 9.43297 22.9251 9.08728C22.7993 8.43182 23.3123 7.90531 23.4852 7.32034C23.4939 7.29086 23.6163 6.9889 23.5743 6.94698C23.5312 6.90382 23.4412 6.9822 23.4174 7.00762C23.1655 7.27632 23.0007 7.57297 22.8181 7.89466C22.6787 8.14021 22.5168 8.37108 22.3805 8.61879C22.2654 8.82819 22.164 9.07037 22.0274 9.26445C21.9751 9.33877 21.9321 9.49419 21.8621 9.54863C21.8374 9.56788 21.8664 9.45957 21.8669 9.45826C21.9234 9.29149 22.0096 9.13456 22.0821 8.97432C22.2276 8.65271 22.3904 8.33541 22.5779 8.03615C22.6449 7.9292 22.791 7.78078 22.8074 7.64971C22.8161 7.57976 22.7318 7.72709 22.6968 7.75554C22.4848 7.92811 22.3046 8.17204 22.1356 8.38574C21.8899 8.69631 21.6413 9.00477 21.4495 9.35006C21.4254 9.39349 21.4663 9.45949 21.4816 9.49988C21.5466 9.67156 21.6044 9.84421 21.679 10.0124C21.997 10.7297 22.3213 11.4446 22.6326 12.1645C22.7004 12.3212 22.7658 12.4214 22.7658 12.5926C22.7658 12.6638 22.736 12.7887 22.7919 12.8447C22.8533 12.906 22.8533 13.0555 22.761 13.0896C22.7187 13.1053 22.5497 13.1277 22.6504 13.1277C22.9623 13.1277 23.2743 13.1251 23.5862 13.1277C23.8649 13.13 24.1334 13.1919 24.4126 13.1919C24.5869 13.1919 24.7588 13.2379 24.9263 13.2882C24.9478 13.2947 25.1374 13.3583 25.132 13.4012C25.1318 13.4024 24.9503 13.3427 24.9465 13.3417C24.7409 13.2862 24.5338 13.2622 24.3211 13.2573C23.9427 13.2486 23.5683 13.2486 23.1938 13.2941C23.0272 13.3144 22.8457 13.2939 22.6825 13.331C22.58 13.3543 22.4812 13.3827 22.3805 13.4107C22.27 13.4414 22.1784 13.5129 22.0595 13.5129" stroke="#F32D12" stroke-width="2.48951" stroke-linecap="round"/>
<path d="M18.5493 16.231C18.5493 16.9539 18.485 17.6684 18.485 18.3915C18.485 18.4488 18.529 18.7304 18.4399 18.6519C18.2529 18.4871 18.1333 18.2564 17.9809 18.0621C17.5805 17.5518 16.9543 17.2991 16.4839 16.8635C16.3203 16.7121 16.1524 16.5649 15.9583 16.4557C15.8308 16.3839 15.6877 16.332 15.5635 16.2631C15.4493 16.1996 15.1917 16.2524 15.0618 16.2524C15.0371 16.2524 14.9461 16.2448 15.0178 16.2524C15.0921 16.2602 15.1863 16.4002 15.2437 16.4462C15.387 16.5609 15.4947 16.6926 15.5742 16.8516C15.6481 16.9993 15.691 17.16 15.7716 17.3059C15.9789 17.6806 16.0771 18.1053 16.2639 18.4878C16.2729 18.5062 16.379 18.7372 16.3329 18.6055C16.27 18.4259 16.2355 18.2349 16.1902 18.0502C16.1099 17.7231 16.0083 17.3198 15.7669 17.0657C15.6068 16.8971 15.7612 17.1769 15.7835 17.2369C15.8355 17.377 15.8445 17.5391 15.906 17.6745C15.9308 17.7291 15.966 17.7745 15.9857 17.8314C16.04 17.9884 16.0877 18.1362 16.1141 18.3023C16.1407 18.4699 16.1664 18.6599 16.2472 18.81C16.2871 18.8841 16.3204 19.011 16.3994 19.0561C16.5044 19.1161 16.5293 19.2918 16.5897 19.3867C16.6715 19.5153 16.881 19.5321 17.0189 19.6138C17.1953 19.7183 17.2447 19.7529 17.447 19.7089C17.6863 19.6569 17.9284 19.6554 18.1723 19.6554C18.3226 19.6554 18.197 19.6571 18.1117 19.6507C17.7967 19.6269 17.4809 19.634 17.1652 19.634C16.9981 19.634 16.8181 19.6469 16.6658 19.7244C16.5111 19.8031 16.4001 19.9639 16.2793 20.0847C16.0419 20.3221 15.7734 20.4135 15.4482 20.4687C15.2338 20.5052 15.02 20.514 14.8061 20.5437C14.6813 20.561 14.6072 20.5544 14.7918 20.5544C15.2896 20.5544 15.7902 20.485 16.2841 20.4259C16.6279 20.3848 16.9964 20.3722 17.3293 20.2714C17.7003 20.159 18.0683 20.04 18.4399 19.9289C18.5729 19.8891 18.7196 19.8276 18.8572 19.8064C19.0088 19.7831 18.5437 19.8007 18.3994 19.8528C18.2191 19.9179 18.0432 20.0117 17.8691 20.0918C17.5762 20.2266 17.247 20.2783 16.9321 20.3356C16.3701 20.4378 15.7923 20.4859 15.2247 20.5496C14.5856 20.6213 13.9269 20.5758 13.2841 20.5758" stroke="#F32D12" stroke-width="2.48951" stroke-linecap="round"/>
<path d="M8.31869 16.4453C8.30978 16.4854 8.24631 16.5331 8.22119 16.5654C8.15755 16.6472 8.10523 16.7413 8.06186 16.8353C7.94797 17.0821 7.8557 17.3328 7.80502 17.6011C7.76298 17.8236 7.78362 18.0603 7.78362 18.286C7.78362 18.6616 7.87398 18.9808 8.09396 19.2895C8.29846 19.5765 8.52208 19.7925 8.83117 19.9649C9.05164 20.0879 9.2725 20.2171 9.49823 20.3299C9.84613 20.5039 10.2352 20.5705 10.61 20.6617C11.2514 20.8177 11.923 20.853 12.5779 20.9185" stroke="#F32D12" stroke-width="2.48951" stroke-linecap="round"/>
<path d="M19.1051 18.77C19.0905 18.7533 19.3707 18.7379 19.4302 18.7487C19.4685 18.7557 19.4994 18.8015 19.5327 18.82C19.5993 18.857 19.6674 18.8824 19.7352 18.9163C19.9687 19.033 20.2755 19.0625 20.5328 19.0625C20.9008 19.0625 21.2597 19.0582 21.6255 19.0175C22.3805 18.9336 23.1376 18.6735 23.807 18.3212C23.9463 18.2479 24.0881 18.1479 24.2359 18.0949C24.3128 18.0673 24.3788 18.0349 24.4284 17.9711C24.5347 17.8344 24.6412 17.712 24.7647 17.5886C24.9509 17.4023 25.1394 17.2173 25.4185 17.2173C25.5795 17.2173 25.6861 17.2757 25.7886 17.4023C25.9195 17.5641 25.9011 17.7373 25.9011 17.9374C25.9011 18.1994 25.8317 18.4639 25.6936 18.69C25.5782 18.8788 25.4068 19.0133 25.2585 19.1751C25.0855 19.3638 24.8964 19.5705 24.6909 19.7226C24.4604 19.8933 24.179 20.0625 23.8808 20.0489C23.3862 20.0264 24.0265 19.1971 24.1108 19.0925C24.3917 18.7443 24.7095 18.4391 25.0585 18.1599C25.2349 18.0188 25.3967 17.9189 25.6248 17.8961C25.8297 17.8756 26.0094 17.8878 26.1436 18.0599C26.5083 18.5277 26.1327 19.2155 25.9123 19.6464C25.7123 20.0375 25.5314 20.4001 25.131 20.6153C24.8306 20.7767 24.5146 20.8779 24.1933 20.9866C23.98 21.0587 23.7743 21.153 23.5608 21.2228C23.3937 21.2775 23.3058 21.2067 23.2932 21.0278C23.2678 20.6654 23.4123 20.4613 23.7933 20.4402C24.2532 20.4148 24.2745 20.896 24.2796 21.2466C24.2884 21.8471 24.1572 22.4242 23.7208 22.8656C23.528 23.0605 23.156 23.3547 22.8569 23.1869C22.7641 23.1348 22.7345 23.0257 22.7331 22.9256C22.7288 22.6105 22.9732 22.3707 23.2057 22.1905C23.5373 21.9335 24.004 21.7854 24.4221 21.7854C24.5785 21.7854 24.7104 21.7661 24.7084 21.9579C24.7064 22.15 24.5968 22.46 24.3609 22.4668C24.0717 22.475 24.3203 21.6306 24.3759 21.5154C24.4744 21.311 24.5945 21.1159 24.7247 20.9303C24.7714 20.8637 24.9247 20.6911 24.7884 20.8728C24.5123 21.2409 24.1642 21.6317 23.787 21.8967C23.5625 22.0545 23.3057 22.1809 23.0482 22.2755C22.8926 22.3326 22.6887 22.3866 22.5256 22.323C22.1171 22.1636 22.1625 21.4091 22.2718 21.0878C22.2875 21.0417 22.5664 20.5311 22.6781 20.6653C22.7096 20.703 22.6626 20.8286 22.6481 20.859C22.5403 21.0854 22.2932 21.2544 22.0705 21.3529C21.8823 21.4361 21.6266 21.5098 21.423 21.4354C21.1985 21.3533 21.1173 21.092 21.1554 20.8728C21.1893 20.6782 21.5034 20.3012 21.7455 20.4077C21.8316 20.4456 21.8012 20.6001 21.7755 20.6628C21.6436 20.9843 21.3012 21.2392 21.0079 21.4029C20.8951 21.4658 20.2261 21.8048 20.2115 21.4766C20.2011 21.2418 20.3688 20.9929 20.5628 20.8678C20.6671 20.8006 20.7029 20.8506 20.7029 20.9566C20.7029 21.3492 20.554 21.6978 20.3753 22.043C20.3515 22.089 20.1688 22.503 20.0853 22.503C20.0306 22.503 20.2373 21.9943 20.2528 21.9554C20.2656 21.9233 20.4078 21.5868 20.4078 21.6804C20.4078 21.7452 20.4093 21.9322 20.3428 21.9654" stroke="#F32D12" stroke-width="2.48951" stroke-linecap="round"/>
<path d="M25.2034 13.437C25.2595 13.5141 25.2599 13.6624 25.2809 13.7546C25.3201 13.9265 25.4062 14.0464 25.4909 14.1971C25.5822 14.3593 25.698 14.5267 25.761 14.7022C25.844 14.9333 25.9191 15.1679 26.0135 15.3948C26.1985 15.8395 26.3731 16.356 26.176 16.825C25.7725 17.785 24.9549 18.3821 24.1007 18.9278" stroke="#F32D12" stroke-width="2.48951" stroke-linecap="round"/>
<path d="M20.5093 22.6428C20.5093 23.0577 20.1179 23.3667 19.7771 23.5622C19.5325 23.7025 19.314 23.7261 19.0382 23.7261C18.8031 23.7261 18.5002 23.7084 18.2826 23.6057C17.7437 23.3512 17.2698 22.9655 16.8082 22.5893C16.4358 22.2859 16.0273 22.062 15.6347 21.8003" stroke="#F32D12" stroke-width="2.48951" stroke-linecap="round"/>
<path d="M18.1021 24.3877C17.9609 24.3877 18.0382 24.4599 17.9633 24.5098C17.7666 24.6409 17.5804 24.8169 17.3632 24.9143C17.1944 24.99 16.9657 25.1647 16.7781 25.1701C16.3888 25.1812 16.0937 24.4829 15.9155 24.2239C15.6036 23.7705 15.2101 23.3823 14.8975 22.9284C14.6318 22.5427 14.3168 22.1911 14.0382 21.815C13.9651 21.7163 13.8393 21.6159 14.0031 21.8C14.4908 22.348 14.8949 22.971 15.2769 23.5954C15.602 24.1267 15.906 24.6772 16.1863 25.2336C16.2729 25.4054 16.3747 25.5906 16.4103 25.7819C16.4351 25.9153 16.0009 25.6858 15.9707 25.6699C15.3308 25.3338 14.7437 24.8053 14.2455 24.2874C13.8173 23.8423 13.3888 23.3895 13.0419 22.8765C12.8432 22.5827 12.6752 22.2688 12.4785 21.9738C12.4756 21.9694 12.3477 21.809 12.415 21.8368C12.4948 21.8696 12.4941 21.9474 12.532 22.0206C12.9062 22.7419 13.4819 23.3527 13.7691 24.1236C13.9415 24.5865 14.0399 24.9823 14.0399 25.4693C14.0399 25.7116 13.4635 25.9406 13.2275 25.9524C13.0051 25.9635 12.7434 25.979 12.5337 25.9056C12.0654 25.7417 11.7894 25.2579 11.4956 24.8825C11.2285 24.5412 10.937 24.2316 10.6531 23.9046C10.3936 23.6058 10.1505 23.2826 9.85736 23.017C9.57997 22.7656 9.34352 22.4347 9.12851 22.131C8.89017 21.7943 8.58855 21.4303 8.43309 21.0444C8.38032 20.9134 8.22399 20.6208 8.47321 20.7084C8.86776 20.847 9.26387 21.0686 9.61831 21.2901C9.76856 21.384 9.912 21.4877 10.0613 21.5827C10.2439 21.6989 9.85756 21.5907 9.82058 21.576C9.53371 21.4621 9.25822 21.3042 8.98475 21.1614C8.8593 21.0959 8.71752 20.9946 8.63704 20.8739C8.59821 20.8156 8.57882 20.7368 8.54844 20.6699C8.53326 20.6365 8.49429 20.5602 8.50498 20.5228C8.51453 20.4894 8.5753 20.5353 8.58522 20.5412C8.81256 20.6759 9.04078 20.809 9.26893 20.9424C10.2632 21.5237 11.2762 22.1351 12.0773 22.9735C12.4715 23.386 12.7662 23.8963 13.1673 24.2975" stroke="#F32D12" stroke-width="2.48951" stroke-linecap="round"/>
<path d="M23.8192 22.7627C23.9495 22.779 23.6736 23.3239 23.6537 23.3745C23.5222 23.7083 23.252 23.993 23.0803 24.3073C22.6715 25.0554 22.1097 25.7093 21.6226 26.4053C21.5007 26.5793 21.4387 26.7847 21.2849 26.9385C21.175 27.0485 21.0788 27.1374 20.9539 27.216C20.8305 27.2937 20.7135 27.4414 20.5661 27.425C20.3063 27.3961 20.035 27.2926 19.7821 27.2294C19.2643 27.1 18.7454 26.9782 18.2291 26.8432C17.7144 26.7087 17.1847 26.7338 16.6577 26.6811C16.1232 26.6276 15.5814 26.6911 15.0496 26.6293C14.5824 26.575 13.1918 26.3735 13.6621 26.3735C13.9756 26.3735 14.2857 26.427 14.5999 26.432C15.3056 26.4433 15.9918 26.4507 16.6711 26.2348C17.2477 26.0515 17.7856 25.8507 18.3862 25.7567C18.9026 25.6758 19.4339 25.5883 19.9308 25.424C20.5758 25.2108 21.3741 24.8617 21.7597 24.2806C21.9984 23.9209 22.0012 23.4622 22.1341 23.0636" stroke="#F32D12" stroke-width="2.48951" stroke-linecap="round"/>
<path d="M30.4391 27.3969C30.2879 27.3969 30.1568 27.2808 30.0345 27.203C29.8854 27.1081 29.6999 27.0598 29.538 26.989C29.3317 26.8987 29.1263 26.8379 28.9112 26.7717C28.7475 26.7213 28.4528 26.7086 28.7841 26.8252C29.0094 26.9044 29.2112 27.0266 29.4394 27.1027C29.6507 27.1731 29.8362 27.2522 30.0044 27.4002C30.2431 27.6103 30.4496 27.9787 30.5427 28.2846C30.638 28.5978 30.6189 28.9998 30.4926 29.2993C30.364 29.6039 30.223 30.0166 29.9944 30.2621C29.8228 30.4464 29.686 30.6292 29.4611 30.7503C29.1735 30.9051 28.8379 30.9475 28.515 30.9475C28.3129 30.9475 28.115 31.0077 27.9115 31.0077C27.593 31.0077 27.2651 30.8974 26.9854 30.7436C26.6177 30.5414 26.2513 30.2803 25.954 29.983C25.4839 29.5129 24.937 29.1481 24.4545 28.6924C23.8895 28.1589 23.3354 27.6513 22.6892 27.2164C22.6685 27.2025 22.4485 27.0873 22.4485 27.0726C22.4485 27.0183 22.8333 27.1762 22.8597 27.1879C23.2893 27.3789 23.755 27.633 24.1034 27.9536C24.424 28.2485 24.7266 28.6446 25.1432 28.8044C25.6173 28.9863 26.1234 29.1332 26.6343 29.1421C27.0263 29.149 27.2392 28.9728 27.4133 28.6189C27.5595 28.3219 27.6223 27.926 27.8831 27.6978C28.211 27.4108 28.8325 27.5393 29.192 27.6677C29.4895 27.774 29.8076 28.0193 29.8791 28.3447C29.9735 28.7749 29.6801 29.0271 29.3491 29.2558C29.0069 29.4923 28.6397 29.6269 28.2425 29.7372C28.1202 29.7712 27.8385 29.87 27.7778 29.7138C27.6802 29.4629 28.2168 29.47 28.3328 29.4731C28.8351 29.4868 28.9864 30.0248 29.0516 30.4343C29.1068 30.7816 29.182 31.3441 28.8677 31.5727C28.8239 31.6046 28.6891 31.6342 28.6353 31.653C28.4451 31.7195 28.2229 31.7022 28.0252 31.6998C27.5126 31.6935 26.8664 31.3572 26.4655 31.0512C26.1873 30.8389 25.9625 30.5884 25.7383 30.3223C25.4129 29.9361 25.0229 29.6065 24.7052 29.214C24.3147 28.7316 23.8966 28.271 23.5217 27.7764C23.1456 27.2801 22.735 26.8875 22.2612 26.4875C21.9478 26.2229 21.66 25.9297 21.3702 25.64C21.2849 25.5546 21.1672 25.4196 21.0509 25.3809" stroke="#F32D12" stroke-width="2.48951" stroke-linecap="round"/>
<path d="M22.7045 16.9157C22.7045 16.4602 22.7612 15.9655 22.5526 15.5482C22.4021 15.2472 21.9966 15.0243 21.6987 14.8918C21.6184 14.8562 21.4813 14.6916 21.5042 14.8979C21.5473 15.2856 21.8118 15.7629 21.9965 16.0952C22.309 16.6577 22.808 17.1246 23.1421 17.6814" stroke="#F32D12" stroke-width="2.48951" stroke-linecap="round"/>
<path d="M12.2026 19.9784C12.2026 18.8034 12.2026 17.6284 12.2026 16.4534C12.2026 16.246 12.0528 16.4732 12.0264 16.5446C11.8537 17.0109 11.6712 17.4855 11.6131 17.985C11.5167 18.8141 11.8744 19.5473 11.8744 20.3613" stroke="#F32D12" stroke-width="2.48951" stroke-linecap="round"/>
<path d="M25.5998 5.78667C25.5998 5.31319 25.5998 4.8397 25.5998 4.36622C25.5998 4.32143 25.6252 4.21777 25.5631 4.21777C25.4848 4.21777 25.4005 4.34887 25.3574 4.40027C25.26 4.5166 25.1536 4.61983 25.051 4.73121C24.8726 4.92491 24.671 5.10523 24.4586 5.26098C24.3584 5.33447 24.2557 5.3954 24.178 5.4925" stroke="#F32D12" stroke-width="1.35791" stroke-linecap="round"/>
<path d="M7.67285 20.8036C7.67285 20.5558 7.40073 20.2334 7.28916 20.0103C7.11472 19.6614 7.10188 19.3174 6.99621 18.937C6.88163 18.5245 6.73956 18.0801 6.73956 17.6511C6.73956 17.3925 6.95901 15.9038 7.25287 15.9038" stroke="#F32D12" stroke-width="1.35791" stroke-linecap="round"/>
<path d="M17.0757 25.1457C17.3263 25.1326 17.5476 24.9172 17.7608 24.8042C18.1098 24.6195 18.4359 24.3921 18.7664 24.176C19.1747 23.909 19.7052 24.0991 20.1471 24.2161C20.4831 24.305 20.8212 24.4081 21.1527 24.5028C21.2392 24.5275 21.238 24.5766 21.355 24.5766C21.5451 24.5766 21.5074 24.6186 21.2876 24.5386" stroke="white" stroke-width="0.452638" stroke-linecap="round"/>
<path d="M18.988 23.8137C18.988 23.2922 18.8635 22.7183 18.7617 22.2295" stroke="white" stroke-width="0.452638" stroke-linecap="round"/>
<path d="M21.8181 28.3253C21.8181 28.1481 21.7085 27.9678 21.5827 27.8503C21.3685 27.6502 21.1929 27.3916 21.0466 27.1393C20.7696 26.6621 20.4714 26.2018 20.166 25.7422C19.9676 25.4435 19.779 25.1358 19.5754 24.8408C19.5264 24.7697 19.4792 24.6962 19.418 24.635C19.3704 24.5873 19.3636 24.496 19.3239 24.4392C19.3081 24.4167 19.2595 24.338 19.2324 24.3303C19.2027 24.3218 19.1944 24.283 19.1664 24.269" stroke="white" stroke-width="0.452638" stroke-linecap="round"/>
<path d="M23.7068 25.9038C23.6843 25.9014 23.6661 25.8927 23.6462 25.8822C23.4914 25.8006 23.3465 25.6988 23.205 25.5963C23.063 25.4936 22.9288 25.3803 22.7893 25.2741C22.5736 25.1101 22.3816 24.9008 22.1502 24.7589C21.9953 24.6638 21.5222 24.3937 21.6847 24.475" stroke="white" stroke-width="0.452638" stroke-linecap="round"/>
<path d="M21.697 24.4749C21.582 24.4749 21.4669 24.4567 21.3526 24.4446C21.2437 24.433 21.1337 24.4341 21.0244 24.4237C20.7138 24.3944 20.4118 24.2963 20.1041 24.2509C19.8634 24.2153 19.6187 24.1895 19.3797 24.1479C19.3411 24.1412 19.228 24.1269 19.2149 24.0874" stroke="white" stroke-width="0.452638" stroke-linecap="round"/>
<path d="M24.2139 27.6597C24.0823 27.7204 24.0627 27.9344 24.022 28.058C23.9742 28.2033 23.9323 28.3505 23.9323 28.5043" stroke="white" stroke-width="0.452638" stroke-linecap="round"/>
<path d="M22.3453 27.5353C22.3453 27.46 22.3453 27.3847 22.3453 27.3093C22.3453 27.2645 22.3401 27.2158 22.3495 27.1717C22.3659 27.0943 22.4105 27.0205 22.4388 26.9468C22.4879 26.8185 22.5592 26.7016 22.6448 26.5942C22.7227 26.4963 22.8154 26.4578 22.9316 26.4287" stroke="white" stroke-width="0.452638" stroke-linecap="round"/>
<path d="M31.1533 28.2394C30.8211 28.2394 30.489 28.2394 30.1568 28.2394C29.9899 28.2394 29.8201 28.2485 29.6541 28.2288C29.2663 28.1826 28.9145 28.0336 28.5446 27.9217C28.2881 27.844 28.0524 27.7241 27.8275 27.5806C27.7081 27.5044 27.5759 27.4074 27.5116 27.2788" stroke="white" stroke-width="0.452638" stroke-linecap="round"/>
<path d="M29.1622 26.4144C29.1519 26.4026 29.1672 26.4056 29.1768 26.4056C29.34 26.4056 29.5031 26.4052 29.6663 26.4061C29.8088 26.4069 29.9477 26.4031 30.086 26.4386C30.1991 26.4677 30.3124 26.4981 30.4227 26.5366C30.6033 26.5997 30.7757 26.706 30.919 26.8326C31.0067 26.91 31.0835 27.0092 31.0835 27.1305C31.0835 27.2454 31.0104 27.3088 30.905 27.3488C30.684 27.4326 30.4175 27.3638 30.201 27.3046C30.0535 27.2643 29.911 27.2099 29.7658 27.1625C29.5941 27.1064 29.4167 27.067 29.2389 27.0363C28.9428 26.9854 28.6699 26.9219 28.4024 26.7811" stroke="white" stroke-width="0.452638" stroke-linecap="round"/>
<path d="M31.3495 26.8633C31.4224 26.8633 31.4788 26.9249 31.5311 26.9686C31.5892 27.0169 31.6485 27.0636 31.7078 27.1103C31.7483 27.1421 31.7891 27.1711 31.8249 27.2085C31.8607 27.2459 31.8947 27.2856 31.933 27.3206C31.9772 27.3611 32.0223 27.4031 32.0582 27.4516C32.0827 27.4847 32.088 27.5168 32.088 27.5575C32.088 27.7447 32.0922 27.9283 32.0437 28.1114C31.9957 28.2929 31.8932 28.4575 31.8132 28.6259C31.7536 28.751 31.6988 28.8792 31.6485 29.0083C31.6024 29.1264 31.5696 29.2471 31.5344 29.3685C31.5335 29.3717 31.5174 29.4197 31.5169 29.4027C31.5154 29.354 31.5244 29.3051 31.5372 29.2583C31.581 29.0975 31.6475 28.943 31.6974 28.784C31.7789 28.5249 31.8333 28.2569 31.8714 27.988C31.8836 27.9022 31.9069 27.8161 31.9059 27.7287C31.9055 27.6991 31.8939 27.6724 31.8873 27.6439C31.8787 27.607 31.8687 27.5725 31.8506 27.5389C31.835 27.5099 31.7907 27.4222 31.7532 27.4158C31.7315 27.4121 31.7336 27.753 31.7336 27.7752C31.7336 27.9094 31.7404 28.0465 31.7144 28.1789C31.6944 28.2811 31.6644 28.3819 31.64 28.4831" stroke="#F32D12" stroke-width="0.452638" stroke-linecap="round"/>
<path d="M26.4945 28.2281C26.4945 28.1369 26.4929 28.0455 26.4945 27.9544C26.4973 27.7879 26.5375 27.6301 26.5587 27.4662C26.5807 27.2968 26.6016 27.142 26.6563 26.9791C26.7315 26.7552 26.8062 26.5178 26.9322 26.317C27.0171 26.1818 27.1332 26.0747 27.2469 25.964C27.3112 25.9014 27.3875 25.8378 27.4702 25.8005C27.5126 25.7815 27.5764 25.7737 27.6215 25.7623C27.7853 25.721 27.9627 25.6995 28.1313 25.6953C28.2811 25.6915 28.4576 25.6743 28.6034 25.7152C28.7334 25.7517 28.8576 25.8019 28.978 25.8621C29.0295 25.8878 29.1886 25.943 29.1309 25.943C29.1109 25.943 29.0808 25.9243 29.0616 25.9186C28.9791 25.8941 28.8993 25.8636 28.8139 25.8488C28.5373 25.8008 28.2855 25.8489 28.0498 26C27.6579 26.2514 27.3065 26.5583 26.9782 26.8866C26.7982 27.0666 26.7139 27.3582 26.7139 27.6097" stroke="#F32D12" stroke-width="0.452638" stroke-linecap="round"/>
<path d="M27.1369 25.8627C27.7498 25.8627 28.3755 25.8896 28.9804 25.7848C29.336 25.7231 29.6959 25.7201 30.0558 25.7286C30.2011 25.732 30.3869 25.7184 30.5287 25.7578C30.7358 25.8153 30.9167 26.0521 31.0683 26.1932C31.1362 26.2564 31.1886 26.3338 31.2541 26.3993C31.3295 26.4747 31.4118 26.5434 31.4879 26.6181C31.6723 26.7991 31.8711 26.9646 32.0305 27.1712C32.0681 27.22 32.163 27.3486 32.0522 27.2296C31.872 27.0361 31.6914 26.8425 31.5044 26.6556C31.4342 26.5853 31.365 26.5179 31.2863 26.457C31.2241 26.4088 31.1727 26.3416 31.1035 26.3026C31.0183 26.2547 30.9157 26.2194 30.8224 26.1894C30.5732 26.1093 30.3073 26.0496 30.0446 26.0351C29.6157 26.0114 29.1855 25.9571 28.7556 25.9571C28.4854 25.9571 28.236 26.0125 27.9732 26.065" stroke="#F32D12" stroke-width="0.452638" stroke-linecap="round"/>
<path d="M24.426 5.35449C24.4011 5.40166 24.3401 5.45387 24.3068 5.48846C24.205 5.59413 24.1018 5.69884 24.0045 5.80868C23.3582 6.53875 22.8127 7.35712 22.414 8.24711C22.0888 8.973 21.8165 9.72581 21.5759 10.4838C21.4691 10.8202 21.3868 11.152 21.3382 11.5008" stroke="white" stroke-width="0.452638" stroke-linecap="round"/>
<path d="M8.45744 8.91245C8.47949 8.85365 8.87733 9.01975 8.91817 9.0358C9.37244 9.21426 9.80218 9.48891 10.1893 9.78244C10.6052 10.0979 10.9569 10.4819 11.3231 10.8517C11.6341 11.1658 11.929 11.493 12.2217 11.8238" stroke="white" stroke-width="0.452638" stroke-linecap="round"/>
<path d="M19.4656 13.6582C19.4656 14.0616 19.4124 14.4789 19.2092 14.8343" stroke="white" stroke-width="0.452638" stroke-linecap="round"/>
<path d="M17.626 13.4473V14.6083" stroke="white" stroke-width="0.452638" stroke-linecap="round"/>
<path d="M15.9369 13.8691C15.9393 14.036 16.0172 14.1671 16.0692 14.3232C16.0869 14.3762 16.1097 14.434 16.1479 14.4723" stroke="white" stroke-width="0.452638" stroke-linecap="round"/>
<path d="M14.1276 14.0352C14.2406 14.1039 14.3483 14.1532 14.446 14.2479C14.5463 14.3453 14.6302 14.4588 14.7308 14.5562C14.8206 14.6432 14.9401 14.7043 15.0625 14.7288" stroke="white" stroke-width="0.452638" stroke-linecap="round"/>
<path d="M13.1926 15.6637C13.1644 15.6637 13.2491 15.6629 13.2772 15.6654C13.3677 15.6734 13.4477 15.7185 13.531 15.7508C13.644 15.7946 13.7671 15.851 13.8862 15.8748" stroke="white" stroke-width="0.452638" stroke-linecap="round"/>
<path d="M25.6743 11.415C25.4802 11.7756 25.2012 12.107 25.0605 12.4938" stroke="white" stroke-width="0.452638" stroke-linecap="round"/>
<path d="M23.8701 11.4336V11.787" stroke="white" stroke-width="0.452638" stroke-linecap="round"/>
<path d="M9.47384 11.6943C9.92851 12.0985 10.3635 12.5282 10.7944 12.9591" stroke="white" stroke-width="0.452638" stroke-linecap="round"/>
<path d="M7.79981 13.6287C7.99956 13.6287 8.19939 13.627 8.39914 13.6287C8.53599 13.6298 8.66821 13.6659 8.8042 13.6659" stroke="white" stroke-width="0.452638" stroke-linecap="round"/>
<path d="M23.6948 13.4004C23.6592 13.4964 23.592 13.5746 23.5604 13.6692" stroke="white" stroke-width="0.452638" stroke-linecap="round"/>
<path d="M22.3958 12.5718V13.1094" stroke="white" stroke-width="0.452638" stroke-linecap="round"/>
<path d="M19.3267 11.0259C19.3267 11.264 19.3267 11.5021 19.3267 11.7402C19.3267 11.983 19.2635 12.1573 19.1474 12.37" stroke="white" stroke-width="0.452638" stroke-linecap="round"/>
<path d="M17.1985 10.8467V12.146" stroke="white" stroke-width="0.452638" stroke-linecap="round"/>
<path d="M15.2048 11.2051C15.2048 11.4057 15.177 11.6272 15.2272 11.8224C15.2831 12.0397 15.4736 12.2329 15.4736 12.4596" stroke="white" stroke-width="0.452638" stroke-linecap="round"/>
<path d="M13.2334 12.1016C13.3332 12.2138 13.3593 12.4002 13.4362 12.5284C13.5171 12.6633 13.5823 12.8066 13.6814 12.9304" stroke="white" stroke-width="0.452638" stroke-linecap="round"/>
<path d="M11.7104 14.0502C11.7894 13.8923 12.4615 14.2425 12.5168 14.4086" stroke="white" stroke-width="0.452638" stroke-linecap="round"/>
<path d="M11.0605 15.1255H9.60445" stroke="white" stroke-width="0.452638" stroke-linecap="round"/>
<path d="M12.9795 22.9976C12.6824 23.5917 12.3819 24.1711 12.137 24.7903C12.0355 25.0466 12.0837 25.2093 11.7999 25.2724" stroke="white" stroke-width="0.452638" stroke-linecap="round"/>
<path d="M11.7578 22.2393C11.2069 22.7902 10.9145 23.546 10.3676 24.0928" stroke="white" stroke-width="0.452638" stroke-linecap="round"/>
<path d="M10.2412 21.6074C10.0374 21.7196 9.71207 21.8355 9.56718 22.0287" stroke="white" stroke-width="0.452638" stroke-linecap="round"/>
<path d="M22.4583 22.0288C22.7227 22.0288 23.0215 22.1887 23.2587 22.2909C23.538 22.4114 23.8157 22.6045 24.0591 22.7871" stroke="white" stroke-width="0.452638" stroke-linecap="round"/>
<path d="M23.5956 20.3856C23.2632 20.3856 24.2603 20.3782 24.5926 20.3856C24.8406 20.3912 25.0758 20.4699 25.3228 20.4699" stroke="white" stroke-width="0.452638" stroke-linecap="round"/>
<path d="M26.3337 18.4897H23.6798" stroke="white" stroke-width="0.452638" stroke-linecap="round"/>
<path d="M9.85679 18.4532C9.84891 18.5163 9.65296 18.3999 9.64105 18.3909C9.54443 18.3185 9.46833 18.2345 9.38755 18.1452C9.33542 18.0876 9.28421 18.0211 9.24432 17.9546C9.19683 17.8755 9.13425 17.7999 9.09091 17.7197C9.01232 17.5743 8.94534 17.4205 8.85359 17.2828C8.77461 17.1644 8.70996 17.0501 8.65343 16.9209C8.62439 16.8545 8.6243 16.846 8.69658 16.846C8.88275 16.846 9.06893 16.846 9.25511 16.846C9.42069 16.846 9.5658 16.8966 9.72614 16.9323C9.82602 16.9545 9.93082 16.9331 10.0318 16.9514C10.1296 16.9692 10.2186 16.9862 10.3182 16.9862C10.3724 16.9862 10.3298 16.9597 10.359 16.9431C10.3833 16.9292 10.4202 16.8948 10.3848 16.8837C10.2843 16.8523 10.1656 16.8675 10.0617 16.8675C9.9553 16.8675 9.84897 16.8655 9.74412 16.846C9.55225 16.8103 9.36304 16.7812 9.16701 16.7812C9.09917 16.7812 9.02975 16.8282 8.96386 16.8436C8.94074 16.849 8.79818 16.9038 8.82243 16.9107C8.87145 16.9247 8.90877 16.9555 8.94468 16.991C9.04658 17.0918 9.13763 17.2036 9.23234 17.311C9.39155 17.4916 9.55007 17.7091 9.63865 17.9355C9.63934 17.9372 9.66662 18.0019 9.66142 18.0032C9.65139 18.0057 9.59652 17.9211 9.5961 17.9205C9.54359 17.8466 9.50564 17.7692 9.47385 17.6844C9.41717 17.5332 9.31068 17.2473 9.4301 17.0953C9.48976 17.0193 9.58813 17.2611 9.5955 17.2822C9.66918 17.4941 9.71656 17.7419 9.71656 17.9678" stroke="white" stroke-width="0.452638" stroke-linecap="round"/>
<path d="M24.4751 15.6276C24.5699 15.5328 24.6167 15.3695 24.6714 15.2479C24.7589 15.0534 24.8164 14.8362 24.8781 14.6321C24.9018 14.5539 24.9744 14.446 24.9744 14.3637C24.9744 14.3428 24.8192 14.3602 24.8074 14.3622C24.6498 14.3894 24.5005 14.4573 24.3465 14.4915C24.2144 14.5209 24.0902 14.5776 23.9608 14.6156C23.9035 14.6325 23.8449 14.6728 23.7849 14.6795C23.6574 14.6937 23.8133 14.6985 23.8593 14.7149C23.9744 14.7557 24.0874 14.8241 24.1939 14.8833C24.309 14.9472 24.3226 14.907 24.3969 14.8096C24.4239 14.7743 24.5455 14.6461 24.6014 14.6923C24.6472 14.7301 24.4778 14.9433 24.448 14.978" stroke="white" stroke-width="0.452638" stroke-linecap="round"/>
<path d="M13.0664 27.1528C10.9557 29.3205 9.7756 32.0596 8.60454 34.7921" stroke="#F32D12" stroke-width="0.452638" stroke-linecap="round"/>
<path d="M10.4973 25.8682C10.2353 25.8682 10.052 26.0345 9.84381 26.1799C9.35234 26.523 9.01983 26.8071 8.70205 27.3254C8.45314 27.7314 8.06357 28.3999 8.06357 28.9103" stroke="#F32D12" stroke-width="0.452638" stroke-linecap="round"/>
<path d="M10.0918 24.5161C9.78505 24.5161 9.5098 24.5708 9.2167 24.6739C8.15794 25.0462 7.1397 25.6153 6.20832 26.2363C5.14268 26.9467 3.62389 27.9281 3.2638 29.2484" stroke="#F32D12" stroke-width="0.452638" stroke-linecap="round"/>
<path d="M25.1675 22.623C27.3229 22.623 30.1852 23.573 31.0491 25.7328" stroke="#F32D12" stroke-width="0.452638" stroke-linecap="round"/>
<path d="M26.7222 20.5274C27.9348 20.5274 29.3436 20.3138 30.478 20.8278C31.8477 21.4485 32.3085 22.9636 32.6038 24.3132" stroke="#F32D12" stroke-width="0.452638" stroke-linecap="round"/>
</svg>
