<svg width="36" height="38" viewBox="0 0 36 38" fill="none" xmlns="http://www.w3.org/2000/svg">
<rect x="-0.519772" y="0.519772" width="34.305" height="35.8643" rx="4.67795" transform="matrix(-1 0 0 1 34.3384 0.711426)" fill="white" stroke="black" stroke-width="1.03954"/>
<path d="M16.1441 11.7053C16.4199 11.6492 16.6958 11.5931 16.9716 11.537C17.5156 11.4264 17.8634 11.1618 18.3168 10.8573C18.8061 10.5287 19.2626 10.1507 19.7613 9.83357C20.8083 9.16767 22.1448 8.85637 23.3685 8.74532C25.7172 8.53219 28.2376 10.2866 28.7889 12.6221C28.9284 13.2129 29.0299 13.795 28.902 14.3959C28.7264 15.2206 28.4069 16.0215 28.0582 16.7832C27.1717 18.7193 25.8101 20.5082 24.3804 22.0602C22.9675 23.5939 21.4612 25.0099 19.847 26.3237C18.7462 27.2197 17.6686 28.1438 16.6054 29.0855C15.8837 29.7247 15.1985 30.4235 14.428 31.0037C13.7551 31.5104 12.9992 31.9994 12.2234 32.3285C12.0559 32.3996 11.8652 32.5578 11.6728 32.5536C11.3176 32.5459 11.021 31.4887 10.9453 31.2749C10.5938 30.2832 10.3877 29.2417 10.1761 28.2131C9.9714 27.2184 9.77194 26.2277 9.6678 25.2165C9.3697 22.3217 9.04262 19.4431 8.64813 16.5609C8.50878 15.5428 8.35761 14.5289 8.33139 13.4996C8.30043 12.284 8.48005 11.0154 8.73291 9.83215C8.9456 8.83686 9.3109 7.83299 9.79846 6.94476C10.2245 6.16861 10.7533 5.57322 11.6269 5.32369C12.3276 5.12356 13.0245 5.00832 13.7212 5.28339C14.3056 5.51409 14.83 5.82919 15.3223 6.22248C16.0387 6.7948 16.7343 7.45417 17.2558 8.21214C17.5136 8.58692 17.7438 8.93789 17.9401 9.35307C18.028 9.53887 18.2945 9.79149 18.5016 9.82754C18.7106 9.86391 18.8952 9.8202 19.1021 9.8108C19.4668 9.79424 19.8122 9.82764 20.1281 9.5996" stroke="black" stroke-width="1.03954" stroke-linecap="round"/>
<path d="M21.064 15.448C20.615 15.448 21.962 15.4409 22.4109 15.448C23.0795 15.4585 23.818 15.6484 24.2744 16.1728C24.5322 16.469 24.7516 16.7957 24.9132 17.1532C24.9663 17.2707 24.9997 17.3892 25.0382 17.5115C25.0417 17.5226 25.0703 17.6455 25.0757 17.6434C25.166 17.6073 24.5869 16.705 24.5522 16.6588C24.2732 16.2886 23.8821 16.0683 23.4885 15.8479C22.9002 15.5184 22.0776 15.473 21.4153 15.473C21.1476 15.473 20.89 15.5292 20.6432 15.6341C20.5953 15.6544 20.3573 15.7228 20.3891 15.7785C20.44 15.8676 20.4466 15.9803 20.4696 16.0784C20.5205 16.2951 20.5934 16.504 20.6765 16.7102C20.8657 17.1795 21.1581 17.4684 21.5528 17.7781C22.2652 18.337 23.0162 18.7208 23.9273 18.8029C24.2776 18.8344 24.703 18.7326 24.9632 18.4724" stroke="black" stroke-width="1.03954" stroke-linecap="round"/>
<path d="M23.2384 16.7224C23.2384 17.2174 23.3174 17.8693 22.8246 18.168C22.726 18.2277 22.4617 18.2717 22.3774 18.1652C22.1888 17.9269 22.2451 17.4851 22.3441 17.2279C22.4299 17.0051 22.5469 16.7735 22.7885 16.6974C22.8914 16.665 23.1165 16.6332 23.2134 16.6905C23.375 16.786 23.3785 17.1686 23.3217 17.3223C23.2497 17.5168 23.0009 17.5796 22.8162 17.5709C22.5649 17.5589 22.5111 17.2556 22.5177 17.0501C22.5258 16.7988 22.7087 16.4897 22.9634 16.4225C23.0739 16.3933 23.2509 16.3697 23.3634 16.4086C23.5547 16.4748 23.5133 16.7011 23.5133 16.8599C23.5133 17.3362 23.1689 17.7555 22.6885 17.8166C22.4741 17.8439 22.421 17.6047 22.4149 17.4459C22.4052 17.1926 22.472 17.0012 22.5635 16.7724" stroke="black" stroke-width="1.03954" stroke-linecap="round"/>
<path d="M16.7899 15.3974C16.7899 14.525 16.8637 13.6871 16.3427 12.9313C16.0033 12.4388 15.5569 11.9257 15.0041 11.6732C14.5206 11.4523 13.9335 11.354 13.4017 11.3482C13.2795 11.3469 13.1572 11.3482 13.0351 11.3482C12.7336 11.3482 12.5509 11.7205 12.4157 11.9426C12.2278 12.2513 12.1638 12.5472 12.1658 12.909C12.1699 13.6674 12.3827 14.455 12.7559 15.1169C13.2799 16.0462 14.4127 16.542 15.4262 16.6583C15.7404 16.6943 16.1205 16.6442 16.3275 16.3958C16.459 16.238 16.4216 16.0271 16.4788 15.8473C16.5284 15.6915 16.5338 15.5455 16.5413 15.3835C16.5505 15.1864 16.5899 14.9962 16.5899 14.7976" stroke="black" stroke-width="1.03954" stroke-linecap="round"/>
<path d="M16.1399 13.7981C15.9184 13.969 15.7401 14.1855 15.5011 14.3355C15.2615 14.486 14.9997 14.5724 14.7235 14.6285C14.3423 14.7059 13.7938 14.6807 13.6904 14.2036C13.4751 13.2109 14.9346 12.8031 15.6594 12.7983C15.9092 12.7967 16.2608 12.7732 16.2871 13.101C16.323 13.5504 16.0745 13.9013 15.7538 14.1939C15.4546 14.4668 15.0656 14.5859 14.6652 14.6174C14.4709 14.6327 14.1665 14.6639 14.1056 14.4202C14.0314 14.1238 14.3989 13.7675 14.6013 13.6037C14.8437 13.4075 15.0997 13.2654 15.415 13.2496C15.4765 13.2465 15.74 13.2094 15.74 13.3177C15.74 13.4702 15.4233 13.5709 15.3164 13.6218C15.1246 13.7131 14.9273 13.7761 14.7318 13.8537C14.6597 13.8823 14.5671 13.9481 14.4902 13.9481" stroke="black" stroke-width="1.03954" stroke-linecap="round"/>
<path d="M14.4652 19.5968C14.7029 19.4521 14.933 19.3182 15.1984 19.2261C15.6396 19.0729 16.1056 19.0738 16.5676 19.0719C17.01 19.0702 17.4337 19.0785 17.8409 19.2775C18.243 19.4739 18.622 19.8299 18.8602 20.2078C18.9021 20.2744 19.1661 20.6199 19.0976 20.7133C18.8066 21.1102 18.5868 21.5204 18.1506 21.7936C17.8285 21.9954 17.4153 22.0522 17.0439 22.0825C16.6135 22.1175 16.1713 22.1433 15.74 22.1102C15.106 22.0617 14.5074 21.8382 14.0667 21.3715C13.8356 21.1268 13.8138 20.7436 13.8431 20.4217C13.8635 20.1979 14.0217 20.0274 14.0903 19.8218" stroke="black" stroke-width="1.03954" stroke-linecap="round"/>
<path d="M16.3899 19.5717C16.5883 19.5717 16.5398 20.2639 16.5398 20.3743C16.5398 20.6286 16.5705 21.1246 16.2593 21.2463C16.0666 21.3218 15.9529 21.1521 15.8788 20.9964C15.7095 20.6402 15.6008 20.2137 15.6442 19.8161C15.6907 19.3897 16.4027 19.337 16.6731 19.5522C16.846 19.6899 16.9367 19.9467 16.9647 20.1577C16.9973 20.4028 17.0283 20.7083 16.9745 20.9533C16.9385 21.117 16.765 21.1587 16.6148 21.138C16.2659 21.0899 16.0967 20.643 16.0455 20.3465C16.0006 20.0866 15.9744 19.5467 16.3649 19.5467C16.6861 19.5467 16.7042 19.9893 16.7148 20.2216" stroke="black" stroke-width="1.03954" stroke-linecap="round"/>
<path d="M10.291 19.3467C10.4592 19.3467 10.6429 19.3251 10.8048 19.3773C11.106 19.4743 11.3624 19.8499 11.538 20.0938C11.9955 20.7293 12.132 21.4571 12.1157 22.2323C12.1066 22.6599 11.8832 23.0242 11.6935 23.3931C11.6517 23.4745 11.543 23.7582 11.5672 23.5292C11.5758 23.4474 11.5856 23.3669 11.5921 23.2848C11.5945 23.2558 11.6177 23.1306 11.6158 23.2321C11.6104 23.5045 11.4639 23.837 11.3047 24.0541C11.2165 24.1744 11.1439 24.0757 11.0353 23.9889C10.7199 23.7365 10.4935 23.4248 10.2355 23.121C9.87574 22.6974 9.51287 22.3029 9.4037 21.7449C9.30394 21.235 9.28613 20.6766 9.49118 20.191C9.54309 20.0681 9.61279 19.9401 9.67864 19.823C9.71625 19.7562 9.79112 19.6741 9.79112 19.5967" stroke="black" stroke-width="1.03954" stroke-linecap="round"/>
<path d="M11.6409 21.3466C11.5179 21.3466 11.3887 21.5014 11.2923 21.5688C11.1977 21.6351 11.0017 21.5966 10.891 21.5966C10.6788 21.5966 10.485 21.4792 10.5466 21.2272C10.6021 21.0004 11.1552 20.7154 11.3784 20.8356C11.5433 20.9244 11.5159 21.0805 11.5159 21.2411C11.5159 21.4563 11.3453 21.7754 11.1146 21.8215C10.938 21.8568 10.6581 21.9606 10.5716 21.7271C10.3726 21.1898 11.1248 20.6887 11.5909 20.9217" stroke="black" stroke-width="1.03954" stroke-linecap="round"/>
<path d="M14.4904 26.5206C14.4904 26.2725 14.6581 26.0699 14.8278 25.8957C15.1333 25.582 15.687 25.4766 16.1067 25.4513C16.768 25.4115 17.4539 25.48 18.0091 25.8707C18.46 26.188 18.021 26.8874 17.8355 27.2121C17.3036 28.1429 16.0503 28.7602 15.118 28.0091C14.7526 27.7148 14.6311 27.2427 14.4904 26.8205" stroke="black" stroke-width="1.03954" stroke-linecap="round"/>
<path d="M16.215 26.1206C16.2854 26.2702 16.24 26.5101 16.24 26.6691C16.24 26.7032 16.2573 27.1709 16.165 27.0093C16.0599 26.8253 15.9923 26.6559 15.9456 26.4455C15.9229 26.3436 15.9039 26.0678 16.015 26.2844C16.1207 26.4905 16.1766 26.7332 16.29 26.9315C16.3306 27.0027 16.4793 26.981 16.5274 26.9329C16.6418 26.8185 16.8267 26.0829 16.5649 25.9956" stroke="black" stroke-width="1.03954" stroke-linecap="round"/>
<path d="M25.5379 11.4488C25.5273 11.5442 25.3924 11.6679 25.3352 11.7362C25.2091 11.8865 25.012 12.1134 24.8339 12.1972C24.5927 12.3107 24.3352 12.3711 24.0729 12.4111C23.816 12.4502 23.4842 12.5132 23.2509 12.375C22.8983 12.166 22.6536 11.8352 22.3941 11.5237C22.2317 11.3289 22.0238 10.9982 22.133 10.7433C22.2223 10.5349 22.313 10.3023 22.476 10.1393C22.6781 9.93724 22.9467 9.8389 23.212 9.75048C23.8178 9.54856 24.5208 9.55879 25.0977 9.83657C25.5808 10.0692 25.5629 10.6271 25.5629 11.0738" stroke="black" stroke-width="1.03954" stroke-linecap="round"/>
<path d="M24.2632 10.3487C24.2632 10.546 24.3199 10.844 24.2188 11.018C24.1326 11.1662 23.976 11.1821 23.8327 11.0929C23.467 10.8654 23.5883 10.3218 23.5883 9.94873" stroke="black" stroke-width="1.03954" stroke-linecap="round"/>
<path d="M17.4115 10.1777C17.4688 10.1777 17.8253 10.1777 17.689 10.1777C17.5887 10.1777 17.2979 10.1648 17.2979 10.0074C17.2979 9.94307 17.516 9.97316 17.5553 9.9784C17.7486 10.0042 17.7377 10.2202 17.5931 10.309C17.5052 10.363 17.2671 10.4167 17.2424 10.2686C17.2186 10.1256 17.8255 10.1742 17.9187 10.179C18.0148 10.1839 18.0701 10.2012 18.0701 10.3039C18.0701 10.5669 17.4432 10.5145 17.3004 10.4692C16.9097 10.3453 16.5855 9.97922 16.45 9.59737C16.3973 9.44867 16.3913 9.28701 16.3617 9.13306C16.3191 8.91063 16.2552 8.69329 16.1674 8.48455C16.1169 8.36433 15.8994 7.90721 16.1775 8.2095C16.5857 8.65312 16.8246 9.20234 17.0885 9.73615C17.0919 9.74304 17.1566 9.88925 17.1692 9.88503C17.1758 9.88285 16.8965 9.35085 16.8841 9.32736C16.7419 9.05789 16.5827 8.79281 16.4601 8.51357C16.4002 8.37708 16.4817 8.40947 16.5686 8.49212C16.8901 8.79776 17.0947 9.25722 17.2689 9.65541C17.4657 10.1053 17.6358 10.578 17.7559 11.0546C17.7581 11.0633 17.8386 11.4032 17.8102 11.3902C17.7376 11.3573 17.6675 11.2498 17.6234 11.1922C17.4974 11.0274 17.3844 10.8526 17.2777 10.6749C16.9447 10.1199 16.6937 9.51772 16.4349 8.92614C16.4232 8.8995 16.1972 8.53357 16.1901 8.54763C16.1723 8.58338 16.189 8.6914 16.1914 8.71544C16.2128 8.92699 16.2611 9.13458 16.3037 9.3425C16.4167 9.89458 16.5068 10.4513 16.6216 11.0029C16.6491 11.1349 16.6751 11.2673 16.7024 11.3991C16.7262 11.514 16.4738 11.3361 16.3718 11.278C15.9452 11.0346 15.5347 10.7573 15.1303 10.4793C14.935 10.345 14.7406 10.2084 14.5524 10.0642C14.5347 10.0506 14.4022 9.96402 14.391 9.92289C14.3793 9.88028 14.4783 9.94229 14.5171 9.96326C14.6692 10.0453 14.8131 10.1458 14.9562 10.2421C15.3078 10.4789 15.6546 10.7256 15.9946 10.9789C16.1061 11.062 16.3225 11.1789 16.3971 11.3032C16.4383 11.3719 16.2515 11.2361 16.18 11.1997C15.9235 11.0692 15.6652 10.9425 15.4066 10.8162C15.0251 10.6297 14.6329 10.4544 14.266 10.2396C14.2434 10.2263 14.1322 10.1749 14.1159 10.1424C14.0817 10.0741 14.2606 10.1921 14.3304 10.2232C14.7109 10.3926 15.1408 10.6132 15.4659 10.8818C15.6062 10.9977 15.11 10.8038 14.936 10.7506C14.6265 10.6558 14.3289 10.547 14.0276 10.4301C13.8771 10.3717 14.0383 10.4047 14.1058 10.4149C14.2513 10.437 14.3996 10.483 14.5348 10.5411C14.5414 10.544 14.6808 10.5998 14.6231 10.6042C14.1418 10.6412 13.6139 10.5333 13.1444 10.4427C12.9056 10.3966 12.669 10.3328 12.4404 10.2497C12.2902 10.195 12.3864 10.2033 12.4795 10.2396C12.6575 10.309 12.8316 10.3888 13.0094 10.4591C13.0452 10.4733 13.1709 10.507 13.1835 10.5512C13.1886 10.5691 13.1478 10.5647 13.1293 10.5638C13.011 10.5585 12.896 10.5294 12.7823 10.4982C12.3567 10.3813 11.9313 10.2476 11.5155 10.0995C11.3266 10.0323 11.129 9.9649 10.949 9.87494C10.8663 9.8336 11.1197 9.94641 11.2026 9.98723C11.4373 10.1027 11.6702 10.2287 11.9104 10.3317C12.0876 10.4076 11.5542 10.1827 11.3856 10.0894C11.0655 9.91228 10.732 9.72875 10.4772 9.4611C10.2919 9.26655 10.2218 9.08003 10.5201 8.96652C10.9905 8.78752 11.4054 9.15636 11.4916 9.60494C11.5112 9.70713 11.5375 9.88552 11.4512 9.96705C11.2365 10.1698 10.9352 9.9146 10.814 9.74372C10.4992 9.29984 10.5352 8.65668 10.5352 8.13758C10.5352 7.98687 10.5141 7.64766 10.6084 7.51304C10.6349 7.47508 10.6196 7.60564 10.6159 7.65183C10.6025 7.8217 10.5644 7.9843 10.5125 8.14641C10.3981 8.50367 10.2476 8.87281 10.0494 9.19236C10.0158 9.24657 9.89434 9.44359 9.85136 9.28699C9.77295 9.00137 9.82299 8.63344 9.87407 8.34828C9.91272 8.13246 9.95623 7.90661 10.0305 7.69977C10.0358 7.68518 10.1366 7.48781 10.139 7.50042C10.1914 7.77004 9.98314 8.14706 9.87659 8.37604C9.73767 8.67458 9.56661 8.95516 9.40976 9.24409C9.40159 9.25914 9.39344 9.2742 9.38579 9.28951C9.37366 9.31377 9.41302 9.24259 9.42616 9.21886C9.5113 9.06514 9.59055 8.90894 9.66462 8.7495C9.89413 8.25554 10.0817 7.74873 10.2753 7.24051C10.3117 7.14505 10.3477 7.05016 10.3787 6.95284C10.3871 6.92664 10.3974 6.85356 10.4115 6.87714C10.4308 6.90922 10.4166 7.04918 10.4166 7.06766C10.4166 7.28114 10.4137 7.49411 10.4015 7.70734C10.3821 8.04558 10.3463 8.38194 10.3043 8.71796C10.3036 8.72328 10.2513 9.07431 10.3018 8.93245C10.5925 8.11566 10.7953 7.27056 11.0916 6.45573C11.174 6.22908 11.1402 6.60696 11.1396 6.66139C11.132 7.29579 11.0504 7.92441 10.9288 8.54637C10.888 8.75545 10.8392 8.96256 10.7951 9.17091C10.7778 9.25273 10.7716 9.35461 10.7358 9.43208C10.7198 9.46684 10.7107 9.35805 10.7118 9.31979C10.7195 9.07005 10.7643 8.82169 10.809 8.57665C10.8908 8.1283 10.9939 7.68591 11.1105 7.24556C11.1506 7.09446 11.1787 6.93345 11.2518 6.79387C11.2705 6.7582 11.2802 6.78318 11.2846 6.81406C11.3178 7.0423 11.3062 7.28355 11.2973 7.51304C11.2861 7.79834 11.2562 8.08639 11.1837 8.36342C11.1366 8.54357 11.1185 8.40753 11.1206 8.30034C11.129 7.8786 11.1991 7.4398 11.3755 7.05378C11.4787 6.82797 11.6453 6.56302 11.9332 6.61976C12.2917 6.69043 12.4327 7.03458 12.5363 7.34523C12.6961 7.82483 12.7681 8.32178 12.7533 8.82647C12.7481 9.0018 12.7514 9.23717 12.5817 9.34377C12.4223 9.44385 12.262 9.35449 12.1489 9.23021C11.7962 8.84269 11.4648 8.05248 11.8625 7.58496C11.9688 7.45997 12.1201 7.34908 12.289 7.34271C12.4947 7.33494 12.5024 7.50465 12.5148 7.6758C12.5365 7.97515 12.5319 8.28626 12.4429 8.57539C12.4014 8.71013 12.3304 8.88898 12.188 8.94633C11.7544 9.121 11.8396 7.62454 11.9382 7.4222C12.061 7.1703 12.3031 6.8465 12.6195 6.86705C12.9113 6.886 13.1458 7.1739 13.2857 7.40201C13.4508 7.67126 13.5534 7.98677 13.586 8.30034C13.5986 8.42123 13.6388 8.66749 13.4623 8.70408C13.1498 8.7689 12.8186 8.25579 12.7116 8.03286C12.5771 7.75256 12.4359 7.22635 12.6069 6.93266C12.7817 6.63256 13.1936 6.7926 13.4169 6.93013C13.8737 7.21144 14.1475 7.77026 14.3481 8.24861C14.468 8.53452 14.5399 8.85049 14.5487 9.16082C14.5503 9.21727 14.5916 9.43682 14.4742 9.34503C14.3088 9.21571 14.1798 9.01028 14.0654 8.84035C13.827 8.48606 13.6133 8.11542 13.4169 7.73636C13.2975 7.50578 13.1778 7.27017 13.1166 7.01593C13.0917 6.91239 13.0058 6.64323 13.1053 6.5491C13.1772 6.48103 13.332 6.55331 13.3854 6.5756C13.7061 6.7094 13.9872 6.94435 14.2395 7.17743C14.9896 7.87014 15.6124 8.70635 16.1674 9.55952C16.3554 9.84848 16.5446 10.1447 16.71 10.4478C16.765 10.5486 16.7613 10.5678 16.6671 10.4881C16.1391 10.0417 15.6569 9.53992 15.2489 8.98166C15.2268 8.95144 15.0706 8.72241 15.1 8.75834C15.2834 8.98245 15.4459 9.22617 15.5706 9.4876C15.6535 9.66138 15.7285 9.83961 15.799 10.0188C15.8257 10.0866 15.8825 10.2192 15.7637 10.1197C15.3439 9.768 14.9593 9.3477 14.6029 8.93371C14.3809 8.67577 14.0711 8.36703 13.9519 8.03538C13.9038 7.90154 14.3215 8.05994 14.343 8.06819C14.6434 8.18361 14.9401 8.32243 15.2262 8.46941C15.2559 8.48469 15.5165 8.66346 15.5391 8.57539C15.603 8.32692 15.5199 8.00297 15.4533 7.76538C15.3955 7.55915 15.3244 7.35372 15.2224 7.16481C15.1875 7.10011 15.0915 7.00606 15.2249 7.05883C15.4151 7.13401 15.6002 7.24031 15.775 7.34523C15.861 7.39683 15.9745 7.44721 16.0526 7.50799C16.3662 7.7519 15.3993 7.05522 15.0836 6.81406C14.8117 6.60637 14.5257 6.44232 14.203 6.32704C13.9745 6.24545 13.7472 6.16293 13.5204 6.07722C13.419 6.03894 13.2694 6.06713 13.1646 6.06713C12.9428 6.06713 12.728 6.11255 12.506 6.11255C12.3697 6.11255 12.2334 6.11255 12.0972 6.11255C11.7799 6.11255 11.4604 6.18629 11.1888 6.35227C11.0754 6.42156 10.9924 6.56443 10.9162 6.67022C10.7614 6.88522 10.78 7.17756 10.8935 7.40706C11.1114 7.84741 11.4229 8.33337 11.8676 8.56782C12.2282 8.758 12.6485 8.78607 13.0107 8.97409C13.2798 9.11385 13.5321 9.25389 13.7778 9.43335C13.8155 9.46088 14.1157 9.69811 13.9443 9.70083C13.3848 9.70971 12.6301 9.55133 12.2915 10.1235C12.0596 10.5153 11.929 11.0138 11.8133 11.4508C11.6943 11.9005 11.5675 12.3456 11.4411 12.7933C11.3985 12.9441 11.3337 13.133 11.325 13.2891C11.3232 13.3225 11.361 13.2321 11.373 13.2008C11.5204 12.8166 11.7503 12.4923 12.0063 12.1712C12.3349 11.7593 12.7111 11.4236 13.1696 11.172C13.3484 11.0739 13.4829 10.9315 13.6365 10.801C13.6796 10.7644 13.7212 10.7383 13.7752 10.7228C13.8308 10.7069 13.5907 10.6892 13.5835 10.6887C12.9351 10.6482 12.2566 10.754 11.7931 11.254C11.3735 11.7066 11.2042 12.3872 11.0449 12.9712C11.0435 12.9763 11.0105 13.1479 10.9717 13.0986C10.9328 13.0491 10.9301 12.9417 10.9263 12.8879C10.9088 12.6401 10.9129 12.3875 10.9225 12.1397C10.9495 11.4436 11.1214 10.7761 11.3048 10.1071C11.3857 9.81215 11.4595 9.45958 11.6203 9.19362C11.6433 9.15557 11.69 9.09044 11.7338 9.06998C11.7429 9.06575 11.7316 9.09059 11.7262 9.099C11.6614 9.1999 11.6076 9.30678 11.5572 9.41568C10.9968 10.6268 10.6611 11.9192 10.2172 13.173C10.1845 13.2655 10.1507 13.4768 10.0759 13.5515C10.0753 13.5522 10.0622 13.0132 10.0633 12.9913C10.0993 12.2712 10.224 11.5596 10.3232 10.8465C10.405 10.259 10.4672 9.66632 10.5655 9.08133C10.568 9.06629 10.6307 8.641 10.6551 8.641C10.6869 8.641 10.6565 9.19194 10.6563 9.19362C10.596 9.94713 10.422 10.6994 10.2917 11.4432C10.1939 12.0016 10.0969 12.561 9.98888 13.1175C9.9817 13.1545 9.96745 13.3874 9.9157 13.409C9.82599 13.4463 9.77465 12.5672 9.77439 12.5611C9.73938 11.7207 9.75094 10.8747 9.76304 10.0339C9.7699 9.55689 9.8196 9.08206 9.82612 8.60567C9.82613 8.60516 9.82612 8.39758 9.82612 8.49464C9.82612 8.68613 9.78954 8.8653 9.74537 9.05231C9.4332 10.3741 9.14357 11.6885 8.93536 13.0317C8.92351 13.1082 8.93199 13.362 8.86723 13.4203C8.80021 13.4806 8.82645 13.243 8.82685 13.1528C8.83053 12.3295 8.97734 11.511 9.12083 10.7026C9.15807 10.4928 9.21409 10.2897 9.25709 10.0819C9.26969 10.021 9.29606 10.0029 9.31639 10.0768C9.41243 10.426 9.46245 10.7957 9.52331 11.1518C9.64904 11.8874 9.75588 12.6257 9.85893 13.3648C9.9082 13.7182 9.96612 14.0703 10.0179 14.4234C10.025 14.4715 10.0274 14.6229 10.0759 14.6593C10.1164 14.6897 10.5588 12.9465 10.9566 13.9326C11.1767 14.478 11.2408 15.0824 11.3679 15.6535C11.4078 15.8326 11.4195 16.0967 11.5244 16.2541C11.5466 16.2874 11.5914 16.3003 11.6253 16.2718C11.6856 16.221 11.7059 16.1177 11.7225 16.0484C11.7706 15.8468 11.7959 15.638 11.8095 15.4315C11.8526 14.7755 11.7637 14.1053 11.8259 13.4519C11.8405 13.2984 11.9121 13.748 11.9508 13.8972C12.0489 14.2755 12.1002 14.6548 12.1413 15.0429C12.1683 15.2969 12.1804 15.5532 12.2322 15.8037C12.2417 15.8496 12.2763 15.9293 12.2763 15.9765C12.2763 16.0153 12.2313 15.9134 12.2107 15.8806C12.0808 15.6737 11.9612 15.4616 11.8461 15.246C11.4629 14.5279 11.1091 13.7946 10.7737 13.0532C10.6943 12.8778 10.7086 12.9085 10.6387 12.7579C10.6141 12.705 10.578 12.548 10.5579 12.6027C10.5279 12.6845 10.5771 12.9247 10.5844 12.985C10.6249 13.3187 10.6885 13.6481 10.7522 13.978C10.8739 14.6077 10.9844 15.2351 10.9844 15.8781C10.9844 15.9834 10.8201 15.8798 10.78 15.8504C10.5989 15.7178 10.5414 15.437 10.3939 15.2649" stroke="black" stroke-width="1.03954" stroke-linecap="round"/>
<path d="M10.3939 15.2651C10.3939 15.5957 10.3939 15.9263 10.3939 16.2568C10.3939 16.505 10.3939 16.7531 10.3939 17.0012C10.3939 17.0935 10.4239 17.2475 10.3914 17.3368C10.3726 17.3886 10.3039 17.2681 10.2703 17.2245C10.0456 16.9332 9.85387 16.6158 9.67982 16.2921C9.34201 15.664 9.01593 14.9748 8.85341 14.2759C8.83398 14.1924 8.821 14.1069 8.79537 14.0249C8.7921 14.0144 8.87189 14.1643 8.88243 14.1876C9.11316 14.6992 9.18453 15.278 9.25589 15.8291C9.27839 16.0028 9.29938 16.1769 9.31393 16.3514C9.32668 16.5044 9.32977 16.658 9.3215 16.383C9.29467 15.491 9.31394 14.5991 9.30258 13.7069C9.30064 13.5551 9.27409 13.3929 9.28491 13.2414C9.28728 13.2082 9.37336 13.4536 9.37575 13.4609C9.5818 14.0912 9.77939 14.7276 9.93973 15.3711C10.0853 15.9555 10.2441 16.5037 10.2678 17.1097C10.2688 17.135 10.2965 17.9471 10.2476 17.9349C10.152 17.911 10.1048 17.6366 10.0886 17.5766C9.97009 17.1365 9.91317 16.6849 9.86403 16.2328C9.85142 16.1168 9.833 16.0001 9.82744 15.8834C9.82527 15.8377 9.82177 15.7473 9.83123 15.8556C9.88376 16.4567 9.87712 17.0619 9.87034 17.6649C9.8666 17.9975 9.8801 18.4287 9.73534 18.7424C9.71369 18.7893 9.66752 18.7896 9.63945 18.7525C9.47182 18.5309 9.45448 18.2056 9.43127 17.9399C9.42698 17.8908 9.37036 17.357 9.42748 17.3368C9.49672 17.3124 9.50823 18.1897 9.50823 18.2566C9.50823 18.2952 9.54679 18.8896 9.46281 18.8938C9.30831 18.9015 9.26094 17.2883 9.26094 17.1059C9.26094 17.0604 9.25015 16.35 9.37702 16.4107C9.47271 16.4566 9.54906 16.5883 9.60412 16.6707C9.80418 16.97 9.93316 17.3017 10.052 17.6396C10.1847 18.0167 10.2784 18.4402 10.4621 18.7979C10.4918 18.8557 10.4848 18.7415 10.4848 18.7398C10.4876 18.3824 10.4848 18.0248 10.4848 17.6674C10.4848 17.4294 10.4848 17.1913 10.4848 16.9533C10.4848 16.9364 10.4621 16.6907 10.4949 16.6782C10.5454 16.659 10.6378 16.7952 10.6539 16.817C10.8157 17.0369 10.9371 17.293 11.0261 17.5501C11.1699 17.9661 11.2638 18.4188 11.2569 18.861C11.2561 18.914 11.2623 19.027 11.1737 19.0023C10.9686 18.9452 10.8858 18.6295 10.8418 18.4585C10.7475 18.0916 10.7262 17.7088 10.7157 17.3318C10.7079 17.05 10.7106 16.7873 10.7926 16.5167C10.861 16.2911 10.9512 16.1553 11.0891 16.4473C11.3273 16.9517 11.3678 17.5447 11.4828 18.085C11.5204 18.2616 11.5514 18.4415 11.5976 18.6162C11.6151 18.6823 11.663 18.7564 11.6657 18.8256C11.6679 18.8795 11.6187 18.7282 11.6027 18.6768C11.4405 18.1564 11.344 17.6233 11.2973 17.0807C11.2765 16.8381 11.2627 16.5937 11.2582 16.3502C11.2568 16.2739 11.2221 16.0723 11.2797 16.002C11.3812 15.8778 11.728 16.7555 11.7326 16.7691C12.049 17.6881 12.1476 18.6839 12.183 19.6508C12.1881 19.7887 12.1881 19.9267 12.1881 20.0646C12.1881 20.0781 12.1913 20.1181 12.1881 20.105C12.1774 20.0621 12.1784 19.9998 12.1729 19.9586C12.0593 19.1015 11.7991 18.2635 11.6355 17.4151C11.542 16.9302 11.4386 16.4184 11.4386 15.9212C11.4386 15.8993 11.4303 15.8099 11.4765 15.8581C11.6055 15.9929 11.6817 16.2021 11.7604 16.3666C12.0766 17.0278 12.2381 17.7131 12.2966 18.4421C12.3332 18.8986 12.323 19.3823 12.4265 19.8312C12.4313 19.8518 12.4554 19.9381 12.472 19.8665C12.533 19.6022 12.5179 19.3013 12.5237 19.0326C12.5393 18.3077 12.5484 17.5832 12.453 16.8637C12.4485 16.8297 12.4187 16.7087 12.4404 16.6707C12.4405 16.6705 12.5774 16.8337 12.5843 16.8422C12.7954 17.1044 12.9108 17.4151 13.0826 17.7015C13.0947 17.7215 13.1848 17.8653 13.1848 17.8567C13.1848 17.5547 13.0319 17.226 12.9375 16.9457C12.8969 16.8248 12.8542 16.7055 12.8063 16.5874C12.795 16.5595 12.7706 16.5138 12.7798 16.4814C12.7871 16.4559 13.1805 16.8039 13.1949 16.817C13.3998 17.0028 13.5844 17.2067 13.7753 17.4062C13.8472 17.4814 13.8983 17.4482 13.8535 17.3494C13.7603 17.1437 13.5299 16.994 13.3514 16.87C13.1682 16.7428 13.3484 16.8512 13.4498 16.8978C13.9113 17.1098 14.3918 17.3545 14.9083 17.3545C15.1909 17.3545 15.4649 17.2924 15.7486 17.2864C16.1092 17.2787 16.46 17.1274 16.821 17.1274" stroke="black" stroke-width="1.03954" stroke-linecap="round"/>
<path d="M16.9119 17.6952C16.9119 17.3336 16.9119 18.4186 16.9119 18.7803C16.9119 18.9215 16.7818 18.7204 16.7643 18.6819C16.7277 18.6013 16.753 18.4693 16.753 18.3841C16.753 18.1984 16.7644 18.0177 16.8097 17.8366C16.8386 17.7211 16.8542 17.5136 17.0141 17.5136C17.0507 17.5136 17.1232 17.4993 17.1491 17.53C17.2492 17.6482 17.1315 17.8681 17.0709 17.9728C16.9103 18.2504 16.5081 18.6037 16.1574 18.6037C15.8928 18.6037 15.9186 18.0696 15.9404 17.8996C15.9447 17.8663 15.9688 17.7126 16.0376 17.7432C16.1115 17.7761 16.0684 18.0097 16.0514 18.0586C15.9408 18.3781 15.5823 18.5405 15.2692 18.5784C15.0302 18.6074 15.0497 18.4507 15.0497 18.2592C15.0497 18.2138 15.0157 17.9843 15.0547 17.9501C15.0724 17.9347 15.072 17.9948 15.0724 18.0182C15.0737 18.1004 15.077 18.1849 15.0698 18.2668C15.0404 18.6053 14.7307 18.7838 14.4138 18.7046C14.1768 18.6454 14.0994 18.4087 14.0958 18.1898C14.0932 18.0335 14.0959 18.0437 14.1299 18.1949C14.1672 18.3606 14.1798 18.5428 14.1589 18.7122C14.1297 18.9485 13.8094 19.1424 13.5785 19.0705C13.4138 19.0192 13.3565 18.7518 13.3363 18.61C13.3268 18.5435 13.2352 18.1052 13.3287 18.0637C13.4175 18.0242 13.5881 18.0586 13.682 18.0586C13.8507 18.0586 14.0428 18.0333 14.2081 18.0725C14.3231 18.0997 14.4297 18.161 14.545 18.1898C14.6235 18.2095 14.4606 18.0181 14.4554 18.0132C14.338 17.9027 14.1417 17.7613 13.9696 17.7911C13.7657 17.8265 13.6162 18.2556 13.5533 18.422C13.402 18.8219 13.4806 19.2556 13.4587 19.6723C13.4498 19.84 13.3712 19.9965 13.311 20.1505C13.2249 20.3711 13.1387 20.5893 13.0637 20.8142C13.0005 21.004 12.9608 21.1785 12.925 21.3731C12.918 21.4107 12.8716 21.6748 12.8694 21.5232C12.8659 21.2819 12.8335 21.0405 12.8253 20.799C12.8207 20.6642 12.859 20.4707 12.7736 20.3524C12.7029 20.2545 12.7083 20.3665 12.7117 20.4243C12.7268 20.6798 12.7764 20.9374 12.8013 21.1927C12.8725 21.9235 13.051 22.6267 13.0032 23.3678C13.0006 23.408 12.9739 23.6856 12.8922 23.6807C12.817 23.6763 12.9016 23.0931 12.906 23.0625C12.98 22.5528 13.0649 22.0439 13.1874 21.5434C13.1934 21.5188 13.2176 21.2474 13.2908 21.2873C13.4591 21.3791 13.5477 21.7223 13.6063 21.8866C13.7327 22.2416 13.8593 22.6119 13.923 22.9843C13.9506 23.1458 14.0162 23.4249 13.9204 23.5748C13.7999 23.7634 13.5013 23.7745 13.306 23.7489C12.9142 23.6976 12.7368 23.3708 12.7016 23.0108C12.6922 22.9148 12.6346 22.605 12.7559 22.5376C12.8332 22.4947 12.873 22.7107 12.8783 22.7446C12.9489 23.2 12.714 23.6567 12.5061 24.0441C12.3334 24.3658 12.1415 24.7056 11.7793 24.8264" stroke="black" stroke-width="1.03954" stroke-linecap="round"/>
<path d="M10.0534 23.9633C10.0572 23.9364 10.1427 24.1631 10.148 24.1778C10.2681 24.5058 10.3433 24.845 10.4117 25.1871C10.5227 25.742 10.6728 26.278 10.7461 26.8399C10.8552 27.6762 10.9638 28.509 11.0249 29.3507C11.0738 30.0249 11.0764 30.7227 11.199 31.3884C11.2292 31.5519 11.2282 31.7244 11.2684 31.8855C11.2925 31.9819 11.3952 31.9099 11.4615 31.8943C11.5399 31.8759 11.5758 31.913 11.6204 31.9688C11.628 31.9782 11.6335 31.9468 11.6331 31.9347C11.6267 31.7522 11.5779 31.5675 11.5422 31.3896C11.3925 30.6433 11.2827 29.8972 11.194 29.1413C11.1107 28.4319 11.0764 27.7262 10.9442 27.0242C10.8758 26.6615 10.8764 26.2831 10.8155 25.9176C10.7797 25.7031 10.7616 25.4535 10.7574 25.2351C10.7547 25.0909 10.7371 24.9254 10.7688 24.7859C10.8097 24.606 11.0565 24.906 11.0855 24.9424C11.5197 25.4872 11.7492 26.1403 11.8349 26.8261C11.9781 27.9711 11.9322 29.1384 12.086 30.2831C12.1277 30.5932 12.2221 30.8819 12.2904 31.1852C12.3075 31.2614 12.3276 31.6279 12.4153 31.3745C12.5361 31.0254 12.578 30.6261 12.6058 30.2604C12.6444 29.7535 12.657 29.2383 12.6399 28.73C12.6175 28.0652 12.4377 27.413 12.3472 26.7567C12.2606 26.1286 11.8987 25.455 12.1377 24.8263C12.243 24.5494 12.4145 24.3655 12.621 24.1551C12.7332 24.0407 12.8505 23.9355 12.9553 23.8144C12.9947 23.7689 13.0505 23.7159 13.1143 23.7135C13.3043 23.7061 13.1424 24.2229 13.1193 24.3165C13.0028 24.7893 12.7333 25.262 12.7333 25.7574C12.7333 26.1986 12.7552 26.6341 12.7736 27.0746C12.8012 27.7343 12.7787 28.399 12.7787 29.0593C12.7787 29.424 12.756 29.788 12.756 30.1532C12.756 30.2529 12.7112 30.4717 12.7686 30.562C12.8422 30.6777 12.7176 30.9293 12.896 30.9115C13.1409 30.887 13.4317 30.6514 13.5975 30.4888C13.7656 30.3239 13.9208 30.1383 14.0732 29.9589C14.1795 29.8336 14.307 29.7236 14.4088 29.5955C14.4987 29.4824 14.597 29.4382 14.7217 29.3684C14.8528 29.295 14.9825 29.1511 15.1229 29.1009C15.2183 29.0669 15.3133 29.0732 15.4131 29.0732C15.4659 29.0732 15.499 29.0734 15.4434 29.1211C15.3308 29.2176 15.2286 29.3135 15.0989 29.3886C14.7901 29.5674 14.4779 29.7075 14.1817 29.9134C14.007 30.0349 13.828 30.1621 13.6341 30.2516C13.4142 30.3531 13.7192 30.1741 13.7716 30.1368C14.3115 29.7522 14.8426 29.3439 15.4219 29.0189C15.5595 28.9417 15.6967 28.9388 15.8396 28.8965C15.8819 28.884 15.9251 28.8874 15.967 28.8688C15.971 28.867 15.7137 28.8388 15.6692 28.8347C15.3805 28.808 15.1874 28.6974 14.9538 28.5407C14.4783 28.2216 14.122 27.662 13.9546 27.1276C13.8561 26.8132 13.8461 26.5015 13.8461 26.175C13.8461 25.9637 13.8307 25.7443 13.8965 25.5404C13.9537 25.3635 14.0211 25.1834 14.0959 25.013C14.1711 24.8418 14.2132 24.6506 14.3003 24.4856C14.3229 24.4427 14.3681 24.3976 14.4025 24.3632C14.4396 24.3262 14.4574 24.3535 14.3646 24.3481C14.2384 24.3407 14.1256 24.2859 14.0025 24.2636C13.8876 24.2427 13.894 24.3609 13.8637 24.4503C13.6638 25.0407 13.4821 25.6442 13.3704 26.2583C13.1981 27.2063 13.1085 28.3107 13.6959 29.1375C13.8091 29.2968 13.9466 29.4085 14.1186 29.4996C14.1322 29.5068 14.1321 29.5076 14.1249 29.4933C14.0777 29.3989 14.0491 29.2951 14.0151 29.1955C13.9224 28.9236 13.836 28.6499 13.7325 28.3817C13.6324 28.1222 13.4964 27.8816 13.3931 27.6235C13.3581 27.5359 13.3964 27.5462 13.4423 27.6121C13.6322 27.8845 13.7818 28.2021 13.942 28.4928C14.0751 28.7344 14.2281 28.9668 14.3444 29.217C14.38 29.2934 14.4229 29.3556 14.4946 29.4012C14.518 29.4161 14.5673 29.4348 14.5955 29.4365C14.6943 29.4427 14.3993 29.4719 14.3079 29.5097C13.9114 29.6736 13.548 29.9212 13.3035 30.2743C13.2818 30.3057 13.2599 30.3867 13.2278 30.408C13.2185 30.4142 13.1705 30.0115 13.1698 29.9967C13.1513 29.5888 13.1814 29.2107 13.2657 28.8132C13.289 28.7033 13.301 28.5946 13.301 28.4827" stroke="black" stroke-width="1.03954" stroke-linecap="round"/>
<path d="M18.6153 26.666C18.6153 26.4036 18.6153 26.1412 18.6153 25.8787C18.6153 25.6867 18.628 25.5909 18.5017 25.4447C18.3875 25.3124 18.1516 25.2264 17.9995 25.1495C17.7943 25.0457 17.5824 24.999 17.3599 24.9489C16.8433 24.8326 16.308 24.8492 15.7815 24.8492C15.5029 24.8492 15.2512 24.8362 15.0144 25.0082C14.8573 25.1222 14.7307 25.2675 14.5639 25.369C14.4234 25.4546 14.2818 25.4454 14.328 25.2201C14.3672 25.0289 14.6269 24.896 14.7784 24.8076C15.0271 24.6625 15.3024 24.5687 15.5809 24.4997C16.1081 24.3691 16.6645 24.3744 17.2047 24.4C17.6023 24.4189 17.9538 24.5492 18.3301 24.6625C18.5707 24.7349 18.7922 24.8242 18.9887 24.9855C19.2591 25.2073 19.2284 25.5532 19.2284 25.8712C19.2284 25.9393 19.2669 25.9698 19.2966 25.8838C19.3863 25.624 19.4271 25.3109 19.3597 25.041C19.2868 24.7496 18.9608 24.4813 18.7187 24.3319C18.1803 23.9995 17.5508 23.8702 16.9296 23.7957C16.6474 23.7618 16.3457 23.7719 16.0616 23.7831C15.7638 23.7947 15.5001 23.9294 15.249 24.072C15.1016 24.1557 14.952 24.2529 14.7999 24.3269C14.7469 24.3526 14.6228 24.4109 14.5627 24.3937C14.4768 24.3692 14.5459 24.0966 14.5627 24.0531C14.6632 23.793 14.752 23.701 15.0144 23.5951C15.8935 23.2402 16.914 23.3146 17.7964 23.6127C18.3746 23.8081 19.0222 24.1634 19.342 24.7079C19.4306 24.8588 19.4556 24.9489 19.4556 25.1268C19.4556 25.183 19.4176 25.3822 19.4909 25.3955C19.6005 25.4155 19.6177 25.5312 19.6927 25.5848C19.7109 25.5978 19.7054 25.4444 19.7054 25.4346C19.7054 25.2565 19.7116 25.0769 19.6902 24.8997C19.5958 24.1181 19.2885 23.4302 18.5724 23.0475C18.3406 22.9236 18.1193 22.8913 17.8658 22.8507C17.5656 22.8025 17.2709 22.7694 16.9662 22.7611C16.1452 22.7386 15.2755 22.8013 14.5274 23.1686C14.3791 23.2414 14.2215 23.3454 14.0504 23.3503C13.9128 23.3542 13.9369 23.2037 13.9369 23.1005C13.9369 22.872 14.014 22.6551 14.2599 22.6059C14.4016 22.5776 14.537 22.5781 14.6813 22.5781C14.9652 22.5781 15.2062 22.6373 15.4837 22.6803C15.8751 22.7411 16.254 22.862 16.6445 22.9264C17.0385 22.9913 17.4487 23.0357 17.8481 23.0324C18.1047 23.0302 18.3522 23.0021 18.5774 22.8734C18.6837 22.8126 18.7585 22.7105 18.8651 22.6513C18.9299 22.6153 18.8515 22.536 18.8146 22.51C18.7239 22.4462 18.6061 22.4555 18.5004 22.4772C18.3811 22.5018 18.0352 22.5835 18.156 22.5996C18.506 22.6463 18.8674 22.4726 19.2158 22.4469C19.5985 22.4187 19.7818 22.6727 19.9325 22.9819C20.0641 23.252 20.1905 23.5016 20.2719 23.7932C20.3723 24.1529 20.4094 24.4831 20.4094 24.8568C20.4094 24.9661 20.4094 25.0755 20.4094 25.1848C20.4094 25.2063 20.3816 25.2631 20.3968 25.2479C20.45 25.1947 20.4748 25.0952 20.5015 25.0284C20.608 24.7622 20.8637 24.3496 21.2043 24.3496C21.2624 24.3496 21.3137 24.314 21.3632 24.2865C21.491 24.2155 21.1703 23.9484 21.1286 23.8928C20.8965 23.5844 20.6987 23.2554 20.4939 22.9289C20.3833 22.7526 20.2733 22.5752 20.1167 22.4356C19.9763 22.3105 19.7895 22.248 19.6599 22.1126C19.5454 21.9928 19.4063 21.893 19.2877 21.7744C19.1796 21.6663 19.1578 21.687 19.0468 21.7959C18.9171 21.9231 18.8745 21.9137 19.0039 22.0684C19.1791 22.2779 19.3281 22.5019 19.4858 22.7245C19.6618 22.9729 19.8722 23.2002 20.0296 23.4613C20.255 23.8351 20.3186 24.3447 20.3186 24.776C20.3186 24.9021 20.3381 25.0412 20.3009 25.1621C20.2943 25.1834 20.2896 25.2109 20.3186 25.2126C20.3841 25.2164 20.3981 25.1201 20.4144 25.0738C20.5611 24.6594 20.7339 24.1557 21.0478 23.8373C21.1628 23.7207 21.3152 23.6359 21.4427 23.532C21.6336 23.3765 21.7865 23.1739 21.9752 23.0122C22.0997 22.9054 22.2344 22.8173 22.3512 22.7005C22.5938 22.4579 22.7657 22.1643 22.9277 21.864C23.1488 21.4544 23.3454 21.0274 23.5889 20.6301C23.6464 20.5362 23.6779 20.4236 23.7403 20.326C23.882 20.1041 24.0897 19.9296 24.2816 19.7519C24.3719 19.6683 24.4797 19.6082 24.5995 19.5816C24.6392 19.5728 24.733 19.5264 24.761 19.5501C24.8858 19.6556 24.9792 19.9818 24.9238 20.1431C24.8751 20.2846 24.5933 20.4184 24.4796 20.5064C24.1757 20.742 23.8696 20.9776 23.5876 21.2395C23.0799 21.7109 22.7456 22.3317 22.2893 22.8507C22.1404 23.0201 21.9851 23.1778 21.8629 23.368C21.8194 23.4356 21.8957 23.3967 21.9335 23.3755C22.3045 23.1682 22.6431 22.8788 22.9618 22.6009C23.3102 22.297 23.6769 22.0074 23.9838 21.6609C24.127 21.4992 24.2833 21.3522 24.4342 21.1978C24.5242 21.1059 24.6381 21.0039 24.6739 20.8748C24.7225 20.7 24.7088 20.4993 24.7004 20.3197C24.6967 20.239 24.6232 20.0763 24.6828 20.0093C24.8242 19.8503 25.029 19.7443 25.1458 19.5627C25.2762 19.3598 24.4282 19.3706 24.3434 19.381C23.8692 19.4394 23.3793 19.3705 22.9063 19.4327C22.8681 19.4377 22.5558 19.4433 22.5455 19.4794C22.5349 19.5164 22.5442 19.5695 22.5442 19.6068C22.5442 19.7743 22.539 19.933 22.5038 20.0976C22.4468 20.3647 22.3418 20.5944 22.2212 20.8395C21.9178 21.4561 21.6181 22.0691 21.2358 22.6425C21.0896 22.8617 20.9705 23.0954 20.8308 23.315C20.5901 23.6932 21.3658 22.5946 21.608 22.2173C21.9441 21.6937 22.3412 21.2135 22.7006 20.707C22.8132 20.5484 22.9056 20.4231 23.0552 20.2957C23.1546 20.211 23.3403 20.1582 23.4021 20.0346C23.4572 19.9244 23.3138 19.7503 23.2558 19.6788C23.0297 19.3999 22.7223 19.2833 22.4105 19.1274C22.2581 19.0512 22.0915 18.9973 21.9335 18.9331C21.9025 18.9205 21.6859 18.7861 21.6825 18.7981C21.6687 18.8463 21.7004 18.9229 21.7026 18.9722C21.7136 19.2143 21.6904 19.4635 21.656 19.7027C21.5691 20.3057 21.4321 20.9312 21.227 21.5057C21.1039 21.8502 20.9048 22.1631 20.8081 22.5176C20.7909 22.5805 20.7501 22.7695 20.7501 22.7043C20.7501 22.5523 20.8241 22.3775 20.8535 22.2287C20.9706 21.6373 21.1231 21.0728 21.1689 20.4698C21.1948 20.13 21.1928 19.8333 21.0529 19.5198C20.9846 19.3667 20.9144 19.259 20.909 19.0858C20.9004 18.8105 20.8711 18.519 20.8182 18.2492C20.7894 18.1027 20.7633 17.9338 20.6706 17.8102C20.6034 17.7206 20.6709 17.8619 20.6819 17.8871C20.7321 18.0024 20.7354 18.1454 20.7501 18.2682C20.7739 18.4681 20.7984 18.6684 20.8182 18.8687C20.8686 19.379 20.8409 19.8993 20.8409 20.4118C20.8409 20.837 20.8409 21.2622 20.8409 21.6874C20.8409 21.8981 20.8238 22.1662 20.6819 22.3283" stroke="black" stroke-width="1.03954" stroke-linecap="round"/>
<path d="M21.4994 18.5127C21.4645 18.433 21.3897 18.3637 21.3354 18.2982C21.2036 18.1392 21.0706 17.981 20.943 17.8187C20.8197 17.662 20.7121 17.4805 20.5733 17.3367C20.395 17.1521 20.2682 16.916 20.1153 16.7097C20.0751 16.6554 20.0153 16.6305 19.9778 16.5772C19.9334 16.5141 19.8899 16.4419 19.8428 16.3829C19.8017 16.3315 19.8764 16.5101 19.8945 16.5734C20.0291 17.0444 20.1285 17.5268 20.1872 18.013C20.2829 18.8047 20.2891 19.5953 20.3462 20.3875C20.3743 20.7772 20.4381 21.166 20.4724 21.5559C20.4835 21.6829 20.4774 21.812 20.4774 21.9394C20.4774 22.0367 20.4474 21.977 20.3941 21.9281C20.1949 21.7447 19.9967 21.5491 19.7847 21.3843C19.7646 21.3686 19.7066 21.352 19.7053 21.3288C19.7009 21.2546 19.6761 21.1749 19.6598 21.1017C19.4714 20.2538 19.5236 19.3434 19.5236 18.4824C19.5236 17.6989 19.5236 16.9153 19.5236 16.1318C19.5236 15.8235 19.5236 15.5153 19.5236 15.207C19.5236 15.051 19.5481 14.8688 19.511 14.7149C19.5084 14.7042 19.4536 14.5953 19.4554 14.6291C19.4574 14.6652 19.4888 14.701 19.5059 14.7301C19.5804 14.8566 19.6358 14.9957 19.6813 15.1351C19.8029 15.508 19.8674 15.9575 19.7683 16.3425C19.7299 16.4921 19.6465 16.6252 19.5816 16.7639C19.4927 16.9541 19.4463 17.1566 19.4201 17.3645C19.3279 18.0969 19.3192 18.8639 19.3192 19.6028C19.3192 19.6319 19.2965 19.5865 19.2889 19.5775C19.1342 19.3956 18.9817 19.2122 18.812 19.0438C18.4437 18.6786 18.0574 18.3143 17.631 18.0168C17.6069 18 17.4687 17.9215 17.4796 17.9222C17.5225 17.9249 17.5773 17.9534 17.6159 17.9726C17.7438 18.0366 17.8754 18.0974 18.0045 18.1619C18.1072 18.2132 18.2065 18.2706 18.3098 18.3209C18.3784 18.3543 18.3645 18.374 18.3313 18.3297C18.278 18.2587 18.1609 18.2287 18.0827 18.1947C17.8059 18.0744 17.53 17.9972 17.2449 17.9045C17.1759 17.8821 17.1089 17.8727 17.1175 17.791C17.1446 17.5335 17.2596 17.2796 17.3333 17.0339C17.485 16.5281 17.5914 16.0064 17.7282 15.4959C17.8013 15.2228 17.8872 14.9278 17.9099 14.6443C17.9129 14.6058 17.9166 14.5258 17.8556 14.5761C17.7652 14.6507 17.6936 14.762 17.6235 14.8537C17.416 15.1249 17.2152 15.4052 17.0494 15.7041C16.9528 15.8782 16.8646 16.0688 16.8034 16.2593C16.7619 16.3882 16.7983 16.1842 16.7983 16.128C16.7983 15.3772 16.8437 14.6331 16.8639 13.8835C16.8719 13.587 16.899 13.2941 16.7769 13.0192C16.6757 12.7916 16.7075 12.5338 16.7075 12.2899C16.7075 12.1789 16.7267 11.9099 16.8034 12.1638C16.9802 12.7492 17.0963 13.3538 17.1945 13.9567C17.3288 14.7815 17.3487 15.6192 17.4796 16.4422C17.5118 16.6445 17.5478 16.8438 17.5478 17.0491C17.5478 17.1675 17.4569 17.2554 17.3875 17.3443C17.3116 17.4416 17.2128 17.6272 17.0935 17.6774C16.9955 17.7187 17.0297 17.1315 17.0305 17.1122C17.0416 16.819 17.1016 16.5396 17.1377 16.2504C17.161 16.0639 17.139 16.6264 17.139 16.8144C17.139 17.1606 17.1145 17.517 17.1516 17.8616C17.1723 18.0536 17.1925 18.2684 17.3358 18.4117C17.4346 18.5106 17.5507 18.556 17.6664 18.6262C17.7605 18.6834 17.7281 18.4121 17.7307 18.3019C17.7553 17.2748 17.7938 16.2486 17.8379 15.2221C17.886 14.1042 17.9111 12.9886 17.9111 11.8698C17.9111 11.5996 17.9225 11.3021 17.8543 11.0371C17.8322 10.9509 17.8197 10.8579 17.7925 10.7734C17.7647 10.6868 17.7766 10.7904 17.7736 10.8251C17.7688 10.8799 17.7441 10.9312 17.7269 10.9828C17.6565 11.1942 17.5973 11.4106 17.5528 11.6288C17.4215 12.2722 17.3622 13.0039 17.4721 13.6551C17.5384 14.0488 17.6973 14.4261 17.7963 14.8121C17.8887 15.1723 17.9605 15.5382 18.0423 15.9009C18.1281 16.2812 18.2745 16.7006 18.2745 17.0932C18.2745 17.2484 18.2761 17.4037 18.2694 17.5588C18.2613 17.7507 18.2064 17.9432 18.2064 18.1341C18.2064 18.6994 18.2042 17.0035 18.2165 16.4384C18.2363 15.5261 18.2864 14.615 18.3174 13.7031C18.3413 12.9981 18.3348 12.2935 18.3477 11.5884C18.357 11.0772 18.3649 10.5663 18.388 10.0567C18.4219 9.31197 18.526 11.5415 18.5823 12.2849C18.6894 13.6957 18.6895 15.1153 18.8296 16.523C18.8723 16.9517 18.9714 17.3731 19.0063 17.8011C19.0224 17.9987 19.0246 18.2157 19.0643 18.4092C19.0864 18.5169 19.0671 18.4976 19.0126 18.4231C18.8787 18.2399 18.7914 18.0909 18.7464 17.8616C18.609 17.1622 18.6228 16.4179 18.6164 15.7079C18.6102 15.0265 18.6701 14.3517 18.7186 13.6728C18.7528 13.1941 18.8636 12.7287 18.9457 12.2571C19.0087 11.8956 19.0566 11.5305 19.1362 11.1721C19.1571 11.0783 19.2177 11.0034 19.2738 10.9273C19.4469 10.6921 19.6138 10.4677 19.8516 10.2914C20.123 10.0902 20.4377 9.98121 20.76 9.89398C21.0312 9.8206 21.2904 9.72616 21.5549 9.63281C21.8266 9.53693 22.0952 9.4495 22.3624 9.34262C22.4717 9.29888 22.6046 9.31486 22.7207 9.31486C22.7655 9.31486 22.8096 9.31084 22.7926 9.37037C22.7753 9.43116 22.3818 9.49319 22.346 9.50412C21.9218 9.63352 21.4619 9.83407 21.1133 10.1148C20.799 10.3679 20.5587 10.7033 20.3159 11.0219C19.8686 11.609 19.5047 12.2054 19.4327 12.9536C19.3961 13.3342 19.3598 13.7131 19.3305 14.0942C19.3219 14.2066 19.3192 14.5451 19.3192 14.4323C19.3192 14.0267 19.4428 13.6834 19.6245 13.3233C19.9227 12.7324 20.2639 12.1345 20.7689 11.6944C20.9396 11.5457 21.1226 11.404 21.3 11.2629C21.4171 11.1699 21.5354 11.0578 21.676 11.0005C21.748 10.9712 21.6559 11.1403 21.6458 11.1733C21.5401 11.5185 21.4115 11.8546 21.2975 12.1966C21.2931 12.21 21.2269 12.4473 21.2269 12.3657C21.2269 12.0442 21.2582 11.7271 21.3291 11.4131C21.3815 11.1806 21.4387 10.9135 21.6104 10.7355C21.6688 10.675 21.8928 10.5039 21.671 10.6548C20.8124 11.2389 20.1934 12.3213 19.897 13.3018C19.8105 13.5882 19.7807 13.8781 19.7381 14.1724C19.7058 14.3953 19.6377 14.6032 19.5816 14.8197C19.5205 15.0555 19.7662 14.6193 19.7835 14.5913C20.0638 14.1367 20.3576 13.6912 20.6881 13.2716C20.8841 13.0227 21.076 12.7912 21.3101 12.5776C21.4858 12.4174 21.6422 12.249 21.7946 12.0679C21.8337 12.0215 21.9125 11.9513 21.9296 11.8913C21.9452 11.8368 21.9461 11.88 21.9069 11.9152C21.8636 11.9542 21.8154 11.9313 21.7719 11.9543C21.722 11.9808 21.7911 12.0069 21.7946 12.0401C21.8358 12.4307 22.2433 12.6858 22.4873 12.9486C22.7296 13.2095 23.1878 13.4415 23.5433 13.4482C23.6938 13.451 23.8446 13.4482 23.995 13.4482C24.2039 13.4482 24.3724 13.3784 24.5603 13.2943C24.8937 13.1449 25.1019 12.9057 25.3829 12.6861C25.5327 12.5691 25.6128 12.4939 25.7009 12.324C25.8311 12.0729 25.8159 11.8178 25.8422 11.5455C25.8808 11.1442 25.9037 10.6607 25.7917 10.2687C25.7588 10.1536 25.71 10.1244 25.8396 10.1892C26.19 10.3644 26.4844 10.7038 26.7683 10.9727C27.094 11.2814 27.4036 11.6305 27.654 12.0061C27.7484 12.1478 27.8767 12.2559 27.9088 12.4262C27.9848 12.8289 27.9983 13.2328 27.9379 13.6425C27.869 14.1089 27.8452 14.5802 27.7107 15.0354C27.6192 15.3454 27.4476 15.5137 27.2578 15.7621C27.0091 16.0878 26.8076 16.4444 26.5639 16.774C26.1771 17.2971 25.8356 17.8752 25.5886 18.4773C25.5546 18.5601 25.5165 18.637 25.4788 18.717C25.4695 18.7368 25.5197 18.7003 25.5368 18.6868C25.7024 18.5554 25.8707 18.4246 26.0276 18.283C26.4859 17.8698 26.8984 17.3674 27.2856 16.8876C27.5794 16.5233 27.855 16.1338 28.0703 15.7167C28.2052 15.4555 28.2343 15.199 28.3138 14.9206C28.3716 14.7184 28.4219 14.5156 28.4892 14.3162C28.5339 14.1838 28.5903 14.0574 28.6078 13.9175C28.613 13.8758 28.5984 14.0022 28.5826 14.0412C28.4638 14.3344 28.2727 14.6099 28.1157 14.8827C27.7064 15.5944 27.3069 16.3065 26.8414 16.9835C26.4968 17.4847 26.1354 17.9756 25.8131 18.4912C25.6947 18.6807 25.636 18.9066 25.5078 19.0918C25.4624 19.1573 25.3072 19.4351 25.393 19.5119C25.6061 19.7026 26.0209 18.9826 26.0996 18.8634C26.261 18.6189 26.3444 18.4352 26.3582 18.1392C26.3633 18.0286 26.3795 17.8985 26.314 17.8036C26.2363 17.6909 26.1547 17.5825 26.0869 17.4629C25.9619 17.2423 25.8469 17.0235 25.7576 16.7854C25.6501 16.4986 25.4434 16.2534 25.2567 16.0145C25.1351 15.8588 24.9765 15.7407 24.8177 15.6259C24.6286 15.4893 24.4425 15.3268 24.2474 15.202C23.9524 15.0131 23.6067 14.8377 23.2809 14.7074C22.942 14.5718 22.5722 14.5837 22.2148 14.5837C21.888 14.5837 21.5654 14.6306 21.2395 14.6531C21.1125 14.6619 20.9988 14.7503 20.8913 14.8108C20.7584 14.8855 20.6057 14.9478 20.4598 14.9925C20.3743 15.0187 20.1235 15.0973 20.0459 15.0152C19.8485 14.8062 20.5393 14.4307 20.6541 14.3528C20.9911 14.1243 21.2823 13.9769 21.695 13.9945C21.9413 14.005 22.1911 14.0529 22.4356 14.0841C22.7755 14.1275 23.1093 14.1581 23.4424 14.2431C24.4181 14.492 25.3922 14.8775 25.9936 15.7293C26.147 15.9467 26.2523 16.2028 26.415 16.4119C26.4683 16.4805 26.5197 16.3637 26.5512 16.3122C26.7009 16.0683 26.8606 15.8377 26.9726 15.5729C27.0648 15.355 27.1632 15.1235 27.2098 14.8903C27.2399 14.7399 27.2225 14.5738 27.2225 14.421C27.2225 13.8551 27.0504 13.3227 26.9726 12.7669C26.9397 12.5311 26.8981 12.2807 26.8225 12.054C26.7547 11.8507 26.6163 11.6821 26.5008 11.5052C26.4514 11.4296 26.3868 11.3272 26.3052 11.2819C26.2779 11.2667 26.3117 11.3308 26.314 11.3361C26.3659 11.4535 26.3967 11.5824 26.4251 11.707C26.6036 12.4906 26.5922 13.3315 26.5626 14.132C26.5405 14.7275 26.3234 15.312 26.2055 15.8908C26.1708 16.0612 26.1575 15.7661 26.1563 15.7293C26.1461 15.4077 26.1346 15.0866 26.1147 14.7654C26.0813 14.2278 25.9595 13.6634 25.7803 13.1542C25.7523 13.0744 25.7009 12.9132 25.7009 12.9132C25.7009 12.9132 25.7009 13.1269 25.7009 13.2337C25.7009 13.3599 25.7182 13.5192 25.6201 13.6173C25.5154 13.722 25.3792 13.7926 25.2719 13.8999C25.199 13.9727 25.0985 14.1319 25.0019 14.1699C24.8687 14.2222 24.8201 13.9011 24.805 13.8355C24.7797 13.7251 24.7007 13.413 24.8808 13.3851C25.0908 13.3526 25.4279 13.35 25.6125 13.4558C25.9592 13.6543 25.9507 14.0031 25.9507 14.3566C25.9507 14.4139 25.9654 14.4475 25.8989 14.4475C25.4909 14.4475 25.1278 14.4051 24.7319 14.3024C24.0907 14.1359 23.4267 14.083 22.7901 13.9037C22.3235 13.7722 21.8323 13.6327 21.3858 13.4431C21.3345 13.4214 20.9856 13.2611 21.0275 13.1668C21.0551 13.1048 21.5542 13.153 21.6256 13.153C21.8776 13.153 22.0981 13.2044 22.3397 13.2665C22.3933 13.2803 22.501 13.3369 22.4305 13.2665" stroke="black" stroke-width="1.03954" stroke-linecap="round"/>
</svg>
