<svg width="36" height="37" viewBox="0 0 36 37" fill="none" xmlns="http://www.w3.org/2000/svg">
<rect x="-0.519772" y="0.519772" width="34.305" height="35.8643" rx="4.67795" transform="matrix(-1 0 0 1 34.6829 0.0390625)" fill="white" stroke="#F32D12" stroke-width="1.03954"/>
<path d="M2.17481 21.8976C2.17481 21.0459 2.46163 20.548 2.88927 19.8053C3.64267 18.4967 4.54445 17.273 5.23679 15.9267C6.87974 12.7321 9.69726 10.2327 12.7982 8.50995C15.2205 7.16421 17.7407 6.12841 20.5467 6.12841C21.7347 6.12841 23.1443 5.92665 24.2976 6.28151C24.8856 6.46243 25.6567 6.57779 26.1773 6.8939C26.6354 7.17202 27.0439 7.54946 27.5042 7.8125C28.2215 8.2224 28.3972 9.87913 28.5419 10.6023C29.2706 14.2461 29.2471 18.2892 27.0619 21.5064C25.9511 23.1416 24.7545 24.6963 23.5747 26.2694C22.8086 27.2909 21.8326 28.1973 20.6317 28.634C19.6953 28.9745 18.7966 29.6527 17.7909 29.7057C17.083 29.7429 16.3725 30.3761 15.6475 30.4797C14.8457 30.5942 13.8193 31.2317 13.1214 31.6194C12.4471 31.994 11.5431 31.8684 10.9015 32.1893C9.45171 32.9141 8.20676 34.2677 9.06427 35.9827" stroke="#F32D12" stroke-width="1.03954" stroke-linecap="round"/>
<path d="M28.2402 10.2163C28.2142 10.6592 27.703 11.28 27.4629 11.6572C27.1772 12.1063 26.845 12.5799 26.458 12.9465C25.462 13.8901 24.2309 14.6765 23.3866 15.762C22.7127 16.6285 21.6848 16.8586 20.9029 17.5537C20.6882 17.7445 20.1319 18.0301 20.6469 17.6295C21.0563 17.3111 21.3632 17.1695 21.8319 16.9564C22.2384 16.7717 23.4052 15.8219 23.4624 15.3354C23.5553 14.546 24.7289 13.8982 25.2541 13.3731C25.8503 12.7769 26.2509 12.3778 26.5718 11.5435C26.8098 10.9248 27.0489 10.9628 27.4724 10.6334C28.2951 9.99351 26.9062 11.1897 26.7045 11.4202C26.0318 12.1891 25.4618 13.0921 24.8275 13.885C24.2398 14.6196 23.4138 15.1659 22.9126 16.0179C22.7431 16.3061 22.3153 16.4554 22.0215 16.5393C21.7294 16.6228 21.5598 17.0281 21.3295 17.2124C21.1198 17.3801 21.1055 17.883 20.9029 17.8949C20.6424 17.9103 20.2539 17.7237 20.0876 17.5158C19.4085 16.6669 21.3872 16.6021 21.6707 16.4445C21.9747 16.2757 20.8184 16.3441 20.5616 16.3592C20.2715 16.3763 20.0497 16.7998 20.0497 17.0418C20.0497 18.2508 21.4781 16.2742 21.6707 16.1886C22.8588 15.6605 23.5831 14.7029 24.4862 13.7997" stroke="#F32D12" stroke-width="1.03954" stroke-linecap="round"/>
<path d="M25.0969 8.1416V8.29109" stroke="#F32D12" stroke-width="1.03954" stroke-linecap="round"/>
<path d="M13.1375 8.06701C12.7194 8.06701 12.3014 8.06701 11.8834 8.06701C11.23 8.06701 10.6549 7.84277 9.9981 7.84277C9.035 7.84277 8.07931 7.88149 7.12452 7.91752C6.77082 7.93087 6.38642 7.96826 6.05315 8.08362C5.79267 8.17379 5.95724 8.32019 5.87044 8.51549C5.73442 8.82152 5.94423 9.24529 5.82891 9.62008C5.72259 9.96561 5.61322 10.3278 5.36382 10.6084C3.78341 12.3864 3.70639 15.2009 3.64465 17.4851" stroke="#F32D12" stroke-width="1.03954" stroke-linecap="round"/>
<path d="M8.72754 11.1313C8.44462 10.9191 8.01081 10.9818 7.68109 10.9818" stroke="#F32D12" stroke-width="1.03954" stroke-linecap="round"/>
<path d="M6.85889 12.3276C5.96219 12.3276 5.37631 12.434 4.61649 12.9256" stroke="#F32D12" stroke-width="1.03954" stroke-linecap="round"/>
<path d="M15.2579 15.4849C15.2579 16.9784 15.2579 18.4719 15.2579 19.9653C15.2579 20.6329 16.0925 21.0326 16.6169 21.2455C17.7309 21.6978 18.9 22.0799 20.0715 22.3503" stroke="#F32D12" stroke-width="1.03954" stroke-linecap="round"/>
<path d="M18.2629 13.7078C18.0602 13.7078 17.8576 13.7078 17.655 13.7078C17.1952 13.7078 16.672 13.7736 16.2245 13.651C14.6993 13.2334 15.2183 10.5722 15.7868 9.63913C16.6603 8.20563 18.6115 7.57716 20.1675 8.19242C20.848 8.4615 21.5294 8.98994 21.9141 9.61887C22.1225 9.95962 22.2301 10.3331 22.2201 10.7333C22.2093 11.16 22.032 11.4562 21.91 11.8477" stroke="#F32D12" stroke-width="1.03954" stroke-linecap="round"/>
<path d="M17.971 10.9724C18.093 10.9724 18.22 10.9654 18.3337 10.9157C18.4798 10.8518 18.6106 10.863 18.7734 10.863C18.8593 10.863 18.9923 10.8328 18.9923 10.9542C18.9923 11.101 18.409 11.0841 18.3074 11.0818C18.1219 11.0777 18.1267 10.9416 18.2811 10.8812C18.477 10.8046 18.6188 10.79 18.8302 10.79C18.957 10.79 19.0609 10.8633 18.97 11.0048C18.9046 11.1065 18.4743 11.1325 18.3925 11.0433C18.107 10.7319 18.673 10.4618 18.9193 10.4618C19.3068 10.4618 19.2146 11.0564 18.9335 11.171C18.5494 11.3274 18.1919 11.3153 18.1169 10.8468C18.1033 10.7613 18.0173 10.4979 18.1169 10.4334C18.313 10.3066 18.5997 10.3363 18.8099 10.3889" stroke="#F32D12" stroke-width="1.03954" stroke-linecap="round"/>
<path d="M21.3473 29.1552C22.236 30.044 23.5999 30.2413 24.8228 30.2413C25.4538 30.2413 25.9966 30.1429 26.5062 29.7466C26.9432 29.4067 26.8763 29.0714 27.1277 28.6363C27.1699 28.5633 28.1472 26.7465 28.2922 27.689C28.337 27.9801 28.2835 29.0656 28.6241 29.0466C28.8379 29.0348 29.7102 28.7006 29.7102 29.1009C29.7102 29.4374 29.3083 30.1182 29.7645 29.9155C31.5081 29.1406 31.1943 31.1818 30.03 31.8222C28.3227 32.7612 26.6666 33.8255 24.6598 33.8255C23.5097 33.8255 22.519 33.786 21.4559 33.2824C20.8361 32.9888 19.9847 32.6544 19.5552 32.0817C19.4036 31.8796 19.0242 31.1351 18.8492 31.0257C18.5687 30.8504 18.1976 30.2519 18.1976 29.9155" stroke="#F32D12" stroke-width="1.03954" stroke-linecap="round"/>
<path d="M5.16442 35.7801C5.19274 35.7801 4.76731 35.0219 4.67568 34.8569C4.44173 34.4358 4.46209 34.0472 3.96972 33.801C3.72001 33.6762 1.90811 32.9543 2.01475 32.8477" stroke="#F32D12" stroke-width="1.03954" stroke-linecap="round"/>
<path d="M15.864 23.1632C15.864 23.9382 15.2689 24.2777 14.5291 24.4626C12.8851 24.8736 11.6691 24.8415 10.6543 23.3758C9.95993 22.3728 8.41628 21.8502 7.2521 21.6983C6.89005 21.6511 6.45823 21.7785 6.84454 21.3439C7.83352 20.2313 8.8793 19.2346 10.0164 18.2725" stroke="#F32D12" stroke-width="1.03954" stroke-linecap="round"/>
<path d="M17.9902 27.3096C17.3066 27.3096 16.6981 27.2309 16.3127 26.5654C16.0991 26.1964 15.9119 25.6959 16.1828 25.2896" stroke="#F32D12" stroke-width="1.03954" stroke-linecap="round"/>
<path d="M13.9502 27.3095C12.9479 27.3095 11.8238 27.2403 11.8238 26.0337" stroke="#F32D12" stroke-width="1.03954" stroke-linecap="round"/>
<path d="M11.7175 30.0736C11.0582 30.0736 10.5134 29.9926 10.1818 29.3294C10.0335 29.0328 9.8742 28.5946 9.916 28.2603C9.94743 28.0088 10.332 27.2047 10.548 27.0967" stroke="#F32D12" stroke-width="1.03954" stroke-linecap="round"/>
<path d="M10.5479 27.097C9.66842 27.097 9.03077 26.7669 8.65772 25.9275C8.5749 25.7412 8.56711 25.0928 8.65772 24.9116C8.68829 24.8504 8.90585 24.758 8.88217 24.758C8.70377 24.758 8.56783 24.8578 8.39783 24.8643C7.99522 24.8798 6.57139 25.0868 6.50769 24.5454C6.45855 24.1276 6.21316 23.0978 6.72033 22.8442" stroke="#F32D12" stroke-width="1.03954" stroke-linecap="round"/>
<path d="M12.249 18.0598C11.485 18.0598 10.9768 17.9141 10.5479 17.2329C10.375 16.9583 10.3353 16.7366 10.3353 16.4119C10.3353 16.2981 10.3086 16.1459 10.3589 16.0397C10.4055 15.9413 10.607 15.936 10.607 15.8271C10.607 15.5901 10.141 15.9334 9.90408 15.9334C9.42885 15.9334 9.12854 15.97 8.84679 15.5318C8.49793 14.9891 8.88964 14.3703 9.37839 14.126" stroke="#F32D12" stroke-width="1.03954" stroke-linecap="round"/>
<path d="M7.57104 19.2288C7.57104 18.9448 7.25739 18.0035 7.57104 17.8467" stroke="#F32D12" stroke-width="1.03954" stroke-linecap="round"/>
<path d="M9.27222 30.074C9.23055 30.4073 6.62374 30.2386 7.16944 29.0108C7.19959 28.9429 7.40874 28.7233 7.29348 28.6977C6.95205 28.6219 6.57194 28.7604 6.23028 28.68C5.65507 28.5447 5.12574 28.139 5.12574 27.5223C5.12574 27.1518 5.62306 26.9907 5.17299 26.9907C4.44029 26.9907 3.63726 26.4905 3.63726 25.6912C3.63726 25.5149 3.61556 25.1997 3.79083 25.0829C3.86338 25.0345 3.61553 25.0745 3.53094 25.0533C3.31005 24.9981 3.07673 24.8943 2.89893 24.7521C2.48553 24.4214 2.36315 23.9908 2.62131 23.5058C2.79951 23.171 3.05655 22.511 3.42462 22.4189" stroke="#F32D12" stroke-width="1.03954" stroke-linecap="round"/>
<path d="M5.76367 33.3698C5.0005 33.3698 4.76687 33.3104 4.27519 32.7319C3.93625 32.3332 3.95623 31.6811 3.95623 31.1844C3.95623 30.6091 4.15524 30.9415 4.38151 30.6587C4.47858 30.5373 3.88482 30.7021 3.74359 30.7178C3.24747 30.7729 2.76228 30.8686 2.25511 30.8123C1.4143 30.7188 1.08774 29.1149 1.61719 28.5854" stroke="#F32D12" stroke-width="1.03954" stroke-linecap="round"/>
</svg>
