<svg width="36" height="38" viewBox="0 0 36 38" fill="none" xmlns="http://www.w3.org/2000/svg">
<rect x="-0.519772" y="0.519772" width="34.305" height="35.8643" rx="4.67795" transform="matrix(-1 0 0 1 34.3384 0.84668)" fill="white" stroke="black" stroke-width="1.03954"/>
<path d="M15.4817 10.5451C16.3031 10.5451 18.7676 10.5451 17.9461 10.5451C16.5203 10.5451 15.2091 10.9361 13.8542 11.1658C13.429 11.2379 14.3723 11.0179 14.4354 11.0008C15.4915 10.7157 16.4867 10.439 17.6322 10.348C17.9845 10.32 18.3361 10.3234 18.6901 10.3234C19.1796 10.3234 18.2304 10.3808 18.1553 10.3874C16.7388 10.5132 15.3196 10.6958 13.955 10.9688C13.5629 11.0472 13.0785 11.1614 12.777 11.3531C12.6834 11.4125 12.9908 11.254 13.0986 11.2053C13.6017 10.9778 14.1797 10.804 14.7222 10.619C15.5771 10.3273 16.4089 10.136 17.361 10.0352C17.7058 9.99862 18.062 10.013 18.4111 10.013C18.6176 10.013 18.8336 10.001 19.0388 10.0154C19.2643 10.0314 19.5105 10.086 19.1086 10.013" stroke="black" stroke-width="0.452638" stroke-linecap="round"/>
<path d="M12.7595 11.3664C12.4103 10.9708 12.1385 10.5119 11.8447 10.0671C11.421 9.42556 10.9032 8.86797 10.3301 8.38545C9.7189 7.87085 9.11271 7.37651 8.43465 6.97633C8.32528 6.91178 8.29967 6.87553 8.18101 6.83755C7.98855 6.77595 7.7751 6.7764 7.58535 6.71359C7.46747 6.67457 7.34163 6.59618 7.20665 6.58856C6.98556 6.57608 6.80916 6.52335 6.59701 6.44192C6.48642 6.39947 6.26436 6.3758 6.20914 6.24935" stroke="black" stroke-width="0.452638" stroke-linecap="round"/>
<path d="M6.02606 6.3877C6.02606 6.89459 5.8654 7.374 5.81101 7.87582C5.72384 8.6801 5.70349 9.47074 5.70349 10.2789C5.70349 11.109 5.59596 11.9349 5.59596 12.7618C5.59596 13.2733 5.60387 13.7691 5.53025 14.2748C5.44401 14.8671 5.79705 15.2909 6.13359 15.7739C6.33137 16.0578 6.5346 16.3541 6.6981 16.6558C6.79079 16.8268 6.91504 17.1651 7.10132 17.251" stroke="black" stroke-width="0.452638" stroke-linecap="round"/>
<path d="M7.04125 17.7031C7.04125 18.4939 7.0708 19.2853 7.08789 20.071C7.09525 20.4097 7.2507 21.3285 7.5542 21.4803" stroke="black" stroke-width="0.452638" stroke-linecap="round"/>
<path d="M7.55417 21.5508C7.55417 21.8918 7.88141 22.2269 8.08225 22.5172C8.68372 23.3865 9.14676 24.3007 9.73378 25.1738C10.4675 26.2651 11.8027 27.4402 13.4769 27.7169C14.4386 27.8758 15.4217 27.8972 16.3865 28.0326C17.1146 28.1347 17.8094 28.3363 18.5428 28.4272C18.9637 28.4794 19.3734 28.5445 19.7569 28.6871C19.9017 28.741 20.064 28.793 20.228 28.793" stroke="black" stroke-width="0.452638" stroke-linecap="round"/>
<path d="M19.1199 10.2349C18.9811 10.2022 19.5019 9.43574 19.5328 9.38208C20.1738 8.269 21.0263 7.33092 21.896 6.37387C22.368 5.85444 22.8724 5.33672 23.3985 4.86508C23.786 4.51768 24.2364 4.26767 24.6871 4.00291C24.9478 3.84972 25.3274 3.74472 25.4333 3.44531" stroke="black" stroke-width="0.452638" stroke-linecap="round"/>
<path d="M25.4333 3.44531C25.4333 4.57055 25.6509 5.66752 25.7905 6.73022C25.8746 7.37048 25.9378 8.01327 26.0071 8.66109C26.0439 9.00394 26.1079 9.3281 26.1079 9.68475C26.1079 9.9331 26.1193 10.199 26.1055 10.4457C26.0882 10.7563 25.9999 11.1103 25.9392 11.3908C25.8555 11.7779 25.776 12.1645 25.698 12.558C25.6652 12.7235 25.6457 12.9507 25.5598 12.9507" stroke="black" stroke-width="0.452638" stroke-linecap="round"/>
<path d="M25.965 12.498C25.965 12.8505 26.1346 13.2196 26.2458 13.5489C26.3959 13.9933 26.5221 14.4587 26.6222 14.9199C26.9456 16.4096 27.2824 17.7979 26.7008 19.2803C26.3595 20.1503 25.9404 20.9286 25.5072 21.7517C25.0044 22.7068 24.5494 23.6835 23.982 24.6014C23.2099 25.8505 22.2531 26.917 21.3166 28.0304C21.0677 28.3262 20.8261 28.6646 20.4543 28.793" stroke="black" stroke-width="0.452638" stroke-linecap="round"/>
<path d="M14.5211 17.9686C14.3915 17.6 14.3073 17.4748 13.9679 17.2538C13.6075 17.019 13.2399 16.8815 12.8286 16.7213C12.3569 16.5375 11.82 16.3447 11.2833 16.3577C10.7059 16.3717 10.1394 16.4974 9.5768 16.618C9.11138 16.7178 8.75018 17.0406 8.54072 17.4127C8.4101 17.6447 8.44636 17.7143 8.50462 17.9719C8.58509 18.3277 8.71244 18.4565 8.99788 18.695C9.35782 18.9957 9.75743 19.227 10.2154 19.4112C11.3197 19.8553 12.8076 19.6569 13.981 19.4173C14.316 19.3489 14.9522 19.2767 14.9291 18.8715C14.9104 18.5438 14.7463 18.2355 14.6753 17.9214C14.6371 17.7525 14.3749 17.4948 14.1947 17.4364" stroke="black" stroke-width="0.452638" stroke-linecap="round"/>
<path d="M19.3791 17.0092C19.3253 16.6745 19.3418 16.5476 19.5357 16.2604C19.7417 15.9554 19.9976 15.7251 20.281 15.4624C20.6061 15.1611 20.9835 14.8311 21.4534 14.6643C21.9589 14.4847 22.5051 14.3973 23.0458 14.3071C23.493 14.2324 23.9505 14.3688 24.2991 14.5944C24.5164 14.7351 24.5164 14.8022 24.5819 15.0254C24.6724 15.3338 24.6203 15.4779 24.4809 15.7611C24.3051 16.1181 24.0636 16.4332 23.7506 16.7303C22.9958 17.4467 21.6202 17.7807 20.498 17.9784C20.1775 18.0348 19.5951 18.1877 19.4327 17.8591C19.3014 17.5934 19.3045 17.295 19.2246 17.0228C19.1816 16.8763 19.2924 16.5856 19.4219 16.4799" stroke="black" stroke-width="0.452638" stroke-linecap="round"/>
<path d="M19.6811 23.814C20.0822 23.814 20.4054 24.0577 20.7086 24.3044C21.8166 25.2054 22.81 26.2436 23.9195 27.144C24.4997 27.6148 25.0732 28.1002 25.6803 28.5358C25.8156 28.6328 25.9536 28.7631 26.1123 28.816" stroke="black" stroke-width="0.452638" stroke-linecap="round"/>
<path d="M19.057 24.9458C19.1722 24.9458 19.2488 24.9577 19.3512 25.0205C20.0171 25.4287 20.6671 25.8913 21.2591 26.4006C22.0414 27.0738 22.7616 27.8677 23.2697 28.7709C23.5753 29.3141 23.794 29.8976 24.0987 30.4429C24.347 30.8872 24.7149 31.3017 25.0888 31.6478C25.3921 31.9286 25.561 32.0333 25.9318 32.1709C26.3823 32.3381 26.7843 32.5707 27.2769 32.5936C27.6879 32.6127 28.103 32.5959 28.5146 32.5959C29.3692 32.5959 29.7714 31.9128 30.2169 31.2929C30.4791 30.9281 30.638 30.5857 30.733 30.158C30.7778 29.9564 30.7424 29.7144 30.7424 29.5088C30.7424 29.1887 30.7647 28.8595 30.8054 28.542C30.8582 28.1304 30.9161 27.7369 30.7844 27.3417C30.4549 26.3533 29.3569 25.8201 28.3674 25.7468C27.7254 25.6992 26.8332 25.9366 26.8332 26.7112C26.8332 26.7876 26.8144 26.8735 26.8659 26.9307C26.9644 27.0402 26.8779 27.0159 26.8145 27.0522C26.7079 27.1131 26.6649 27.4504 26.623 27.5612C26.5617 27.7237 26.463 27.8631 26.4035 28.0236C26.3176 28.2555 26.0346 28.4318 26.0346 28.7078C26.0346 28.7928 25.9972 28.8558 25.9925 28.939C25.9878 29.024 25.9692 29.1562 25.9085 29.0651" stroke="black" stroke-width="0.452638" stroke-linecap="round"/>
<path d="M30.322 27.6779C30.1535 27.6779 30.0141 27.6704 29.8573 27.741C29.5662 27.872 29.2363 27.846 28.9256 27.846C28.657 27.846 28.0522 27.8679 28.0522 27.5098" stroke="black" stroke-width="0.452638" stroke-linecap="round"/>
<path d="M24.3015 30.6101C23.6259 29.7358 22.7884 28.9968 22.0877 28.1418C21.5025 27.4276 20.9062 26.7287 20.2966 26.0355C20.1469 25.8652 20.0154 25.6748 19.8553 25.5147C19.8 25.4595 19.7488 25.485 19.7198 25.3979" stroke="black" stroke-width="0.452638" stroke-linecap="round"/>
<path d="M18.6029 22.6458C18.6137 22.4521 18.7191 22.2359 18.7842 22.0555C18.876 21.8013 18.9373 21.5262 18.974 21.2587C18.9854 21.1752 19.0787 20.87 19.0119 20.7949C18.9982 20.7795 18.9045 20.8548 18.8854 20.8603C18.7137 20.9093 18.4748 20.9947 18.2994 21.0141C18.0557 21.0412 17.822 21.167 17.5784 21.2018C17.3217 21.2384 17.0869 21.2705 16.8575 21.3852C16.6624 21.4827 17.0246 21.1093 17.1273 21.069C17.5865 20.8886 17.9477 20.7865 18.4427 20.7865C18.6381 20.7865 18.8334 20.7865 19.0288 20.7865C19.1808 20.7865 19.1119 20.7485 19.0014 20.7485C18.5486 20.7485 18.1746 20.7654 17.7471 20.9193C17.4266 21.0346 17.0821 21.2162 16.79 21.3936C16.7708 21.4053 16.611 21.4624 16.6677 21.4695C16.7362 21.478 16.8132 21.5173 16.8764 21.5454C16.9741 21.5888 17.0816 21.7376 17.1631 21.811C17.2969 21.9314 17.4483 22.0261 17.5784 22.1525C17.8475 22.4139 18.1134 22.6129 18.4301 22.8144C18.5237 22.874 18.351 22.826 18.3162 22.8144C18.1367 22.7546 17.9401 22.6275 17.7934 22.5109C17.4545 22.2413 17.2404 21.8542 17.0093 21.5074" stroke="black" stroke-width="0.452638" stroke-linecap="round"/>
<path d="M22.0386 14.7612C22.3739 14.806 22.5622 15.1097 22.6776 15.3258C22.7644 15.4883 22.8328 15.6663 22.8817 15.8374C22.9338 16.0195 22.9438 16.1855 22.9438 16.3714C22.9438 16.5918 22.8515 16.8154 22.6993 17.0033C22.6459 17.0692 22.5744 17.1329 22.5277 17.2004C22.5213 17.2096 22.4646 17.2628 22.4646 17.2482" stroke="black" stroke-width="0.452638" stroke-linecap="round"/>
<path d="M22.0386 17.2507C21.76 17.2507 21.495 17.1032 21.2728 16.9734C20.849 16.7258 20.748 16.1907 20.7068 15.797C20.6933 15.6677 20.6489 15.4919 20.7198 15.3701C20.7855 15.257 20.8693 15.1518 20.9732 15.0589C21.0321 15.0062 21.0951 14.908 21.1896 14.8965C21.2378 14.8906 21.3515 14.7957 21.3727 14.7612" stroke="black" stroke-width="0.452638" stroke-linecap="round"/>
<path d="M12.0806 16.1191C12.4159 16.1803 12.6042 16.5944 12.7196 16.8891C12.8064 17.1107 12.8748 17.3534 12.9237 17.5867C12.9758 17.835 12.9858 18.0613 12.9858 18.3149C12.9858 18.6154 12.8935 18.9203 12.7413 19.1765C12.6879 19.2664 12.6164 19.3533 12.5697 19.4453C12.5633 19.4579 12.5066 19.5303 12.5066 19.5105" stroke="black" stroke-width="0.452638" stroke-linecap="round"/>
<path d="M12.3069 19.5142C11.9355 19.5142 11.5821 19.3264 11.2859 19.1612C10.7208 18.8461 10.5862 18.165 10.5312 17.664C10.5132 17.4994 10.454 17.2756 10.5485 17.1206C10.6361 16.9767 10.7479 16.8427 10.8864 16.7245C10.965 16.6575 11.0489 16.5326 11.1749 16.5179C11.2392 16.5104 11.3908 16.3896 11.4191 16.3457" stroke="black" stroke-width="0.452638" stroke-linecap="round"/>
<path d="M6.92556 10.0459C7.00797 10.0459 7.06711 10.0426 7.13959 10.0887C7.18459 10.1173 7.3297 10.2123 7.32033 10.2004C7.10917 9.9342 6.86135 9.61344 6.86135 9.25871C6.86135 8.95855 6.90416 8.66597 6.90416 8.36692C6.90416 8.18464 6.97581 7.88839 6.79714 7.7938C6.79 7.79002 6.73531 7.73255 6.73531 7.72365C6.73531 7.69724 6.82252 7.77651 6.8233 7.77715C6.91505 7.85361 7.01857 7.90943 7.11819 7.97454C7.48804 8.21625 7.81579 8.52046 8.1812 8.76407C8.60293 9.04522 8.97144 9.44475 9.29772 9.82827C9.57504 10.1542 9.88026 10.4567 10.1574 10.7831C10.2496 10.8917 10.3199 11.0323 10.4261 11.1279C10.5645 11.2524 10.2554 10.797 10.1669 10.6333C9.91527 10.1676 9.66178 9.71922 9.32388 9.30984C9.15606 9.10652 9.00558 8.8909 8.83994 8.68559C8.7264 8.54487 8.60396 8.42583 8.47728 8.29915C8.36113 8.183 8.26903 8.05701 8.13483 7.95908C8.06877 7.91088 7.84647 7.80479 7.91961 7.84136C7.99911 7.88112 8.06747 7.9121 8.14315 7.9674C8.54239 8.25916 8.91613 8.6015 9.28464 8.93054C9.92205 9.49965 10.5004 10.1316 10.966 10.8497C11.2145 11.2331 11.4039 11.6478 11.6342 12.0411C11.7957 12.3169 11.9732 12.5845 12.1681 12.8378C12.1811 12.8547 12.336 13.04 12.2715 13.0423C12.1865 13.0453 12.1157 13.0188 12.0409 12.9781C11.6907 12.7875 11.3718 12.4707 11.1229 12.1636C10.6708 11.6057 10.4254 10.8285 9.85539 10.3693C9.53022 10.1074 9.12352 9.9613 8.70914 9.92221C8.51796 9.90417 8.89439 10.1189 8.90296 10.1255C9.4561 10.5561 9.97502 11.0255 10.4356 11.5548C11.0798 12.295 11.7429 13.1746 11.9838 14.1481C11.9974 14.2029 12.0993 14.5003 12.0088 14.5405C11.8301 14.6199 11.8426 15.0931 11.9874 15.1933C12.051 15.2374 12.1322 15.2468 12.2073 15.2468C12.2336 15.2468 12.4025 15.2544 12.3096 15.204C12.0479 15.0619 11.7625 15.0058 11.463 15.0756C11.2465 15.126 11.033 15.1545 10.8138 15.1838C10.4765 15.2287 10.1311 15.2557 9.79237 15.3003C9.63117 15.3215 9.48074 15.3217 9.32031 15.3538C9.18997 15.3799 9.07062 15.4275 8.9422 15.4561C8.75807 15.497 8.61296 15.6107 8.44517 15.6915C8.35206 15.7363 8.26393 15.7542 8.17763 15.814C8.12647 15.8494 8.06212 15.9069 8.00641 15.9317C7.86556 15.9943 7.86458 16.1478 7.68537 16.0387C7.46719 15.9059 7.26201 15.7151 7.11819 15.5036C6.90046 15.1834 6.83305 14.8312 6.74364 14.4537C6.64632 14.0428 6.6766 13.5805 6.69132 13.1612C6.7028 12.8338 6.76039 12.5261 6.8447 12.2099C6.94313 11.8409 7.02112 11.4676 7.16099 11.1113C7.24901 10.8871 7.33109 10.5773 7.54506 10.4347C7.66397 10.3554 7.72837 10.4062 7.83875 10.4787C8.62249 10.9933 9.31115 11.9456 9.32269 12.9091C9.32609 13.1929 9.34847 13.4211 9.10034 13.6059C8.92701 13.735 8.6111 13.856 8.40712 13.72C8.21905 13.5947 8.14504 13.3133 8.11105 13.1065C8.06998 12.8567 8.01749 12.4571 8.15029 12.2254C8.30134 11.9618 8.62218 11.9032 8.89463 11.8675C9.26717 11.8186 9.64839 11.7954 10.0016 11.9472C10.5484 12.1821 10.7235 12.6318 10.6877 13.1969C10.6592 13.6473 10.1619 14.005 9.74005 14.0221C9.4143 14.0352 9.05463 13.8677 8.96835 13.5227C8.9181 13.3216 10.2228 13.4529 10.3429 13.4846C10.8323 13.6138 11.235 13.9518 11.6949 14.1517C11.9027 14.242 12.0349 14.1907 12.1312 13.9959C12.2072 13.8421 12.3068 13.693 12.35 13.5262C12.3879 13.3801 12.4763 13.302 12.6176 13.2373C13.226 12.9584 13.9126 12.8754 14.5248 12.613C14.9237 12.4421 15.3219 12.2687 15.7222 12.1006C16.3674 11.8296 17.0446 11.6725 17.7293 11.5393C18.6722 11.356 19.6069 11.2658 20.5664 11.2658C20.5821 11.2658 20.8122 11.2771 20.7043 11.2111C20.5926 11.1429 20.4507 11.1351 20.325 11.116C20.0397 11.0726 19.7551 11.0572 19.4665 11.053C18.9472 11.0454 18.4217 11.0367 17.9053 11.0994C17.394 11.1614 16.8971 11.3255 16.3987 11.4501C15.8037 11.5989 15.2099 11.7215 14.6211 11.8937C14.0425 12.0629 13.464 12.2323 12.8946 12.4311C12.623 12.5259 12.3049 12.6302 12.0849 12.8283C11.9349 12.9632 12.0839 12.9353 12.224 12.9353C13.0036 12.9353 13.7721 12.9249 14.5462 13.0316C15.1039 13.1084 15.6552 13.1659 16.2192 13.1659C16.9981 13.1659 17.7162 13.0068 18.4546 12.7676C19.1882 12.53 19.8902 12.2967 20.6615 12.229C20.8917 12.2088 21.1205 12.2076 21.3512 12.2076C21.4449 12.2076 21.557 12.1994 21.6294 12.2718C21.6909 12.3333 21.2672 12.5289 21.2239 12.5548C20.8117 12.8013 20.3808 13.0366 19.9386 13.2254C19.4757 13.4229 18.9581 13.4896 18.4713 13.6023C17.735 13.7728 16.9994 13.8912 16.2573 14.0268C15.9108 14.0901 15.5656 14.1796 15.2323 14.2932C14.9028 14.4055 14.5733 14.5226 14.2263 14.5666C13.8886 14.6096 13.5315 14.6699 13.1895 14.6463C13.1373 14.6427 13.0082 14.5839 13.004 14.6737C12.9944 14.8798 13.0254 15.0834 13.0254 15.2896C13.0254 15.4535 13.0116 15.4838 13.1764 15.525C13.3917 15.5788 13.6085 15.6957 13.8126 15.7819C13.9469 15.8386 14.0528 15.9415 14.1859 15.9959C14.3488 16.0625 14.5043 16.1352 14.6746 16.1778C14.9455 16.2455 15.2002 16.2963 15.463 16.4014C15.902 16.577 16.4219 16.5832 16.8565 16.3978C17.3354 16.1935 17.7964 15.9415 18.243 15.6748C18.3972 15.5828 18.5165 15.4535 18.6556 15.3431C18.8486 15.1898 19.0548 15.049 19.2537 14.9032C19.4977 14.7242 19.7227 14.5049 19.9552 14.3098C20.2634 14.0513 20.5531 13.8047 20.8957 13.5916C21.1225 13.4506 21.3507 13.324 21.539 13.1327C21.6061 13.0645 21.6936 12.9738 21.6936 12.8711" stroke="black" stroke-width="2.48951" stroke-linecap="round"/>
<path d="M20.5806 11.287C20.5806 11.027 20.5738 10.8013 20.6877 10.5593C20.7742 10.3753 20.3746 10.5482 20.3286 10.6235C20.1422 10.9285 20.6935 10.0004 20.9445 9.74601C21.1242 9.56389 21.32 9.39874 21.5034 9.22045C21.6733 9.05518 21.8669 8.93924 22.0242 8.75672C22.3572 8.37019 22.6839 8.00156 22.9397 7.55815C23.1678 7.16281 23.5294 6.85521 23.7602 6.46423C23.8217 6.36003 23.8869 6.07806 24.0479 6.08611C24.2353 6.09548 24.4118 6.22063 24.4118 6.40715C24.4118 6.55415 24.515 6.70764 24.5354 6.85661C24.5788 7.17312 24.6363 7.48556 24.6674 7.80429C24.7056 8.1952 24.7611 8.58659 24.7923 8.97788C24.8238 9.37322 24.797 9.77991 24.797 10.1765C24.797 10.4021 24.7491 10.6345 24.7114 10.8566C24.6678 11.1134 24.6323 11.3748 24.5723 11.6283C24.5403 11.7635 24.5286 11.9999 24.3904 12.0789C24.1237 12.2313 23.7068 12.2396 23.4106 12.224C22.3503 12.1682 22.4971 10.7573 22.7899 10.0671C22.9556 9.67655 23.185 9.24153 23.4891 8.93746C23.5916 8.83496 23.7055 8.75926 23.7055 8.94221C23.7055 9.22697 23.6007 9.37262 23.2953 9.41189C23.0112 9.4484 22.647 9.43297 22.5806 9.08728C22.4548 8.43182 22.9678 7.90531 23.1407 7.32034C23.1494 7.29086 23.2718 6.9889 23.2299 6.94698C23.1867 6.90382 23.0967 6.9822 23.0729 7.00762C22.821 7.27632 22.6562 7.57297 22.4736 7.89466C22.3343 8.14021 22.1723 8.37108 22.036 8.61879C21.9209 8.82819 21.8195 9.07037 21.6829 9.26445C21.6306 9.33877 21.5876 9.49419 21.5176 9.54863C21.4929 9.56788 21.5219 9.45957 21.5224 9.45826C21.579 9.29149 21.6651 9.13456 21.7376 8.97432C21.8831 8.65271 22.0459 8.33541 22.2334 8.03615C22.3005 7.9292 22.4465 7.78078 22.4629 7.64971C22.4717 7.57976 22.3873 7.72709 22.3523 7.75554C22.1403 7.92811 21.9601 8.17204 21.7911 8.38574C21.5454 8.69631 21.2968 9.00477 21.105 9.35006C21.0809 9.39349 21.1218 9.45949 21.1371 9.49988C21.2021 9.67156 21.26 9.84421 21.3345 10.0124C21.6525 10.7297 21.9768 11.4446 22.2881 12.1645C22.3559 12.3212 22.4213 12.4214 22.4213 12.5926C22.4213 12.6638 22.3915 12.7887 22.4475 12.8447C22.5088 12.906 22.5088 13.0555 22.4165 13.0896C22.3742 13.1053 22.2052 13.1277 22.306 13.1277C22.6179 13.1277 22.9299 13.1251 23.2417 13.1277C23.5204 13.13 23.7889 13.1919 24.0681 13.1919C24.2424 13.1919 24.4143 13.2379 24.5818 13.2882C24.6033 13.2947 24.7929 13.3583 24.7875 13.4012C24.7874 13.4024 24.6058 13.3427 24.602 13.3417C24.3964 13.2862 24.1893 13.2622 23.9766 13.2573C23.5983 13.2486 23.2238 13.2486 22.8494 13.2941C22.6827 13.3144 22.5012 13.2939 22.3381 13.331C22.2355 13.3543 22.1368 13.3827 22.036 13.4107C21.9256 13.4414 21.8339 13.5129 21.715 13.5129" stroke="black" stroke-width="2.48951" stroke-linecap="round"/>
<path d="M18.2048 16.2314C18.2048 16.9544 18.1406 17.6689 18.1406 18.392C18.1406 18.4493 18.1845 18.7309 18.0954 18.6524C17.9084 18.4875 17.7889 18.2569 17.6364 18.0626C17.236 17.5523 16.6098 17.2996 16.1394 16.864C15.9758 16.7125 15.8079 16.5653 15.6138 16.4562C15.4863 16.3844 15.3432 16.3325 15.2191 16.2635C15.1048 16.2001 14.8473 16.2528 14.7173 16.2528C14.6926 16.2528 14.6016 16.2453 14.6733 16.2528C14.7476 16.2607 14.8418 16.4007 14.8992 16.4467C15.0426 16.5614 15.1502 16.6931 15.2298 16.8521C15.3036 16.9998 15.3465 17.1605 15.4271 17.3063C15.6344 17.6811 15.7326 18.1058 15.9194 18.4883C15.9284 18.5067 16.0345 18.7377 15.9884 18.606C15.9255 18.4264 15.891 18.2354 15.8457 18.0507C15.7654 17.7236 15.6638 17.3203 15.4224 17.0662C15.2623 16.8976 15.4168 17.1774 15.439 17.2374C15.4911 17.3775 15.5 17.5396 15.5615 17.675C15.5863 17.7296 15.6215 17.775 15.6412 17.8319C15.6955 17.9889 15.7432 18.1367 15.7696 18.3028C15.7962 18.4704 15.8219 18.6604 15.9028 18.8105C15.9426 18.8846 15.9759 19.0114 16.055 19.0566C16.1599 19.1166 16.1848 19.2923 16.2452 19.3872C16.327 19.5158 16.5365 19.5326 16.6745 19.6143C16.8508 19.7188 16.9002 19.7534 17.1025 19.7094C17.3418 19.6574 17.5839 19.6559 17.8278 19.6559C17.9781 19.6559 17.8525 19.6576 17.7672 19.6512C17.4522 19.6274 17.1365 19.6345 16.8207 19.6345C16.6536 19.6345 16.4736 19.6474 16.3213 19.7249C16.1666 19.8036 16.0557 19.9644 15.9349 20.0852C15.6974 20.3226 15.4289 20.4139 15.1037 20.4692C14.8893 20.5057 14.6755 20.5144 14.4616 20.5441C14.3368 20.5615 14.2628 20.5548 14.4474 20.5548C14.9451 20.5548 15.4457 20.4855 15.9396 20.4264C16.2834 20.3853 16.6519 20.3726 16.9848 20.2718C17.3558 20.1595 17.7238 20.0404 18.0954 19.9294C18.2285 19.8896 18.3752 19.8281 18.5127 19.8069C18.6643 19.7836 18.1992 19.8012 18.0549 19.8533C17.8746 19.9184 17.6987 20.0122 17.5246 20.0923C17.2317 20.227 16.9025 20.2788 16.5877 20.3361C16.0256 20.4383 15.4478 20.4864 14.8802 20.5501C14.2411 20.6218 13.5824 20.5762 12.9396 20.5762" stroke="black" stroke-width="2.48951" stroke-linecap="round"/>
<path d="M7.97421 16.4453C7.96529 16.4854 7.90183 16.5331 7.87671 16.5654C7.81307 16.6472 7.76075 16.7413 7.71737 16.8353C7.60349 17.0821 7.51122 17.3328 7.46054 17.6011C7.4185 17.8236 7.43913 18.0603 7.43913 18.286C7.43913 18.6616 7.52949 18.9808 7.74948 19.2895C7.95398 19.5765 8.17759 19.7925 8.48669 19.9649C8.70716 20.0879 8.92801 20.2171 9.15375 20.3299C9.50165 20.5039 9.8907 20.5705 10.2655 20.6617C10.9069 20.8177 11.5785 20.853 12.2334 20.9185" stroke="black" stroke-width="2.48951" stroke-linecap="round"/>
<path d="M18.7604 18.7705C18.7458 18.7538 19.026 18.7384 19.0855 18.7492C19.1238 18.7562 19.1547 18.802 19.188 18.8205C19.2545 18.8575 19.3227 18.8829 19.3905 18.9168C19.624 19.0335 19.9308 19.063 20.1881 19.063C20.5561 19.063 20.915 19.0587 21.2808 19.018C22.0358 18.9341 22.7929 18.674 23.4623 18.3217C23.6016 18.2484 23.7434 18.1483 23.8911 18.0954C23.968 18.0678 24.0341 18.0354 24.0837 17.9716C24.19 17.8349 24.2965 17.7125 24.4199 17.5891C24.6062 17.4028 24.7947 17.2178 25.0738 17.2178C25.2348 17.2178 25.3414 17.2762 25.4438 17.4028C25.5748 17.5646 25.5564 17.7378 25.5564 17.9379C25.5564 18.1999 25.487 18.4644 25.3488 18.6905C25.2334 18.8793 25.0621 19.0138 24.9138 19.1755C24.7407 19.3643 24.5516 19.571 24.3462 19.7231C24.1157 19.8938 23.8343 20.063 23.5361 20.0494C23.0415 20.0269 23.6818 19.1976 23.7661 19.093C24.047 18.7448 24.3647 18.4396 24.7137 18.1604C24.8901 18.0193 25.0519 17.9194 25.2801 17.8966C25.485 17.8761 25.6647 17.8883 25.7989 18.0604C26.1636 18.5282 25.7879 19.216 25.5676 19.6469C25.3676 20.038 25.1867 20.4006 24.7862 20.6157C24.4859 20.7771 24.1698 20.8784 23.8486 20.987C23.6352 21.0592 23.4295 21.1535 23.216 21.2233C23.049 21.278 22.961 21.2072 22.9485 21.0283C22.9231 20.6659 23.0676 20.4618 23.4486 20.4407C23.9084 20.4153 23.9297 20.8965 23.9349 21.2471C23.9437 21.8476 23.8124 22.4247 23.3761 22.8661C23.1833 23.061 22.8113 23.3552 22.5122 23.1874C22.4193 23.1353 22.3898 23.0262 22.3884 22.9261C22.384 22.611 22.6285 22.3712 22.861 22.191C23.1925 21.934 23.6593 21.7859 24.0774 21.7859C24.2338 21.7859 24.3657 21.7666 24.3637 21.9584C24.3617 22.1505 24.252 22.4605 24.0161 22.4673C23.727 22.4755 23.9756 21.631 24.0311 21.5159C24.1297 21.3115 24.2498 21.1163 24.3799 20.9308C24.4267 20.8642 24.5799 20.6916 24.4437 20.8733C24.1676 21.2414 23.8195 21.6322 23.4423 21.8972C23.2177 22.055 22.961 22.1814 22.7035 22.276C22.5478 22.3331 22.344 22.3871 22.1809 22.3235C21.7724 22.1641 21.8178 21.4096 21.9271 21.0883C21.9428 21.0422 22.2216 20.5316 22.3334 20.6658C22.3648 20.7035 22.3179 20.8291 22.3034 20.8595C22.1956 21.0859 21.9485 21.2549 21.7258 21.3534C21.5375 21.4366 21.2819 21.5103 21.0782 21.4359C20.8538 21.3538 20.7726 21.0925 20.8107 20.8733C20.8445 20.6787 21.1587 20.3017 21.4008 20.4082C21.4868 20.4461 21.4565 20.6006 21.4308 20.6633C21.2989 20.9848 20.9565 21.2397 20.6632 21.4034C20.5504 21.4663 19.8814 21.8053 19.8668 21.4771C19.8564 21.2423 20.024 20.9934 20.2181 20.8683C20.3224 20.8011 20.3581 20.851 20.3581 20.957C20.3581 21.3496 20.2092 21.6983 20.0306 22.0434C20.0067 22.0895 19.824 22.5035 19.7405 22.5035C19.6859 22.5035 19.8925 21.9948 19.9081 21.9559C19.9209 21.9238 20.0631 21.5873 20.0631 21.6809C20.0631 21.7457 20.0646 21.9327 19.9981 21.9659" stroke="black" stroke-width="2.48951" stroke-linecap="round"/>
<path d="M24.8589 13.437C24.915 13.5141 24.9154 13.6624 24.9364 13.7546C24.9756 13.9265 25.0617 14.0464 25.1465 14.1971C25.2377 14.3593 25.3535 14.5267 25.4165 14.7022C25.4995 14.9333 25.5746 15.1679 25.669 15.3948C25.854 15.8395 26.0286 16.356 25.8315 16.825C25.4281 17.785 24.6104 18.3821 23.7563 18.9278" stroke="black" stroke-width="2.48951" stroke-linecap="round"/>
<path d="M20.1648 22.6423C20.1648 23.0573 19.7734 23.3662 19.4326 23.5617C19.1881 23.7021 18.9695 23.7256 18.6937 23.7256C18.4586 23.7256 18.1557 23.7079 17.9381 23.6052C17.3993 23.3507 16.9254 22.965 16.4637 22.5888C16.0913 22.2854 15.6828 22.0615 15.2902 21.7998" stroke="black" stroke-width="2.48951" stroke-linecap="round"/>
<path d="M17.7576 24.3877C17.6164 24.3877 17.6937 24.4599 17.6188 24.5098C17.4221 24.6409 17.2359 24.8169 17.0187 24.9143C16.8499 24.99 16.6212 25.1647 16.4336 25.1701C16.0443 25.1812 15.7492 24.4829 15.571 24.2239C15.2591 23.7705 14.8657 23.3823 14.553 22.9284C14.2873 22.5427 13.9723 22.1911 13.6937 21.815C13.6206 21.7163 13.4948 21.6159 13.6586 21.8C14.1463 22.348 14.5504 22.971 14.9324 23.5954C15.2575 24.1267 15.5615 24.6772 15.8418 25.2336C15.9284 25.4054 16.0302 25.5906 16.0658 25.7819C16.0907 25.9153 15.6564 25.6858 15.6262 25.6699C14.9863 25.3338 14.3992 24.8053 13.901 24.2874C13.4728 23.8423 13.0443 23.3895 12.6974 22.8765C12.4987 22.5827 12.3307 22.2688 12.1341 21.9738C12.1311 21.9694 12.0032 21.809 12.0705 21.8368C12.1503 21.8696 12.1496 21.9474 12.1876 22.0206C12.5618 22.7419 13.1374 23.3527 13.4246 24.1236C13.5971 24.5865 13.6954 24.9823 13.6954 25.4693C13.6954 25.7116 13.119 25.9406 12.883 25.9524C12.6606 25.9635 12.3989 25.979 12.1892 25.9056C11.7209 25.7417 11.4449 25.2579 11.1511 24.8825C10.884 24.5412 10.5926 24.2316 10.3086 23.9046C10.0491 23.6058 9.80602 23.2826 9.51288 23.017C9.23549 22.7656 8.99904 22.4347 8.78403 22.131C8.54568 21.7943 8.24407 21.4303 8.08861 21.0444C8.03583 20.9134 7.8795 20.6208 8.12873 20.7084C8.52328 20.847 8.91938 21.0686 9.27383 21.2901C9.42407 21.384 9.56752 21.4877 9.71682 21.5827C9.89944 21.6989 9.51308 21.5907 9.4761 21.576C9.18923 21.4621 8.91374 21.3042 8.64026 21.1614C8.51482 21.0959 8.37304 20.9946 8.29256 20.8739C8.25373 20.8156 8.23434 20.7368 8.20396 20.6699C8.18878 20.6365 8.14981 20.5602 8.16049 20.5228C8.17005 20.4894 8.23082 20.5353 8.24073 20.5412C8.46808 20.6759 8.6963 20.809 8.92445 20.9424C9.91868 21.5237 10.9317 22.1351 11.7329 22.9735C12.127 23.386 12.4217 23.8963 12.8228 24.2975" stroke="black" stroke-width="2.48951" stroke-linecap="round"/>
<path d="M23.4747 22.7632C23.605 22.7795 23.3291 23.3243 23.3092 23.375C23.1777 23.7088 22.9076 23.9935 22.7358 24.3078C22.327 25.0559 21.7653 25.7098 21.2781 26.4058C21.1562 26.5798 21.0942 26.7852 20.9404 26.939C20.8305 27.049 20.7344 27.1379 20.6094 27.2165C20.486 27.2942 20.369 27.4419 20.2216 27.4255C19.9619 27.3966 19.6905 27.2931 19.4376 27.2299C18.9198 27.1004 18.4009 26.9787 17.8846 26.8437C17.3699 26.7092 16.8402 26.7343 16.3132 26.6816C15.7787 26.6281 15.2369 26.6916 14.7051 26.6298C14.2379 26.5754 12.8473 26.374 13.3176 26.374C13.6311 26.374 13.9412 26.4275 14.2554 26.4325C14.9611 26.4438 15.6473 26.4511 16.3266 26.2352C16.9032 26.052 17.4411 25.8512 18.0417 25.7571C18.5581 25.6763 19.0894 25.5888 19.5864 25.4245C20.2313 25.2112 21.0296 24.8621 21.4152 24.2811C21.6539 23.9213 21.6568 23.4627 21.7896 23.0641" stroke="black" stroke-width="2.48951" stroke-linecap="round"/>
<path d="M30.0946 27.3969C29.9434 27.3969 29.8123 27.2808 29.69 27.203C29.541 27.1081 29.3554 27.0598 29.1936 26.989C28.9872 26.8987 28.7818 26.8379 28.5667 26.7717C28.403 26.7213 28.1083 26.7086 28.4396 26.8252C28.6649 26.9044 28.8667 27.0266 29.0949 27.1027C29.3062 27.1731 29.4917 27.2522 29.6599 27.4002C29.8987 27.6103 30.1051 27.9787 30.1982 28.2846C30.2936 28.5978 30.2744 28.9998 30.1481 29.2993C30.0196 29.6039 29.8785 30.0166 29.6499 30.2621C29.4784 30.4464 29.3415 30.6292 29.1167 30.7503C28.8291 30.9051 28.4934 30.9475 28.1705 30.9475C27.9684 30.9475 27.7705 31.0077 27.567 31.0077C27.2485 31.0077 26.9206 30.8974 26.6409 30.7436C26.2732 30.5414 25.9068 30.2803 25.6095 29.983C25.1394 29.5129 24.5925 29.1481 24.11 28.6924C23.545 28.1589 22.9909 27.6513 22.3447 27.2164C22.3241 27.2025 22.104 27.0873 22.104 27.0726C22.104 27.0183 22.4888 27.1762 22.5152 27.1879C22.9448 27.3789 23.4105 27.633 23.7589 27.9536C24.0795 28.2485 24.3821 28.6446 24.7987 28.8044C25.2728 28.9863 25.7789 29.1332 26.2899 29.1421C26.6819 29.149 26.8947 28.9728 27.0689 28.6189C27.215 28.3219 27.2778 27.926 27.5386 27.6978C27.8665 27.4108 28.488 27.5393 28.8475 27.6677C29.145 27.774 29.4631 28.0193 29.5346 28.3447C29.629 28.7749 29.3356 29.0271 29.0047 29.2558C28.6624 29.4923 28.2952 29.6269 27.898 29.7372C27.7757 29.7712 27.494 29.87 27.4333 29.7138C27.3357 29.4629 27.8724 29.47 27.9883 29.4731C28.4906 29.4868 28.6419 30.0248 28.7071 30.4343C28.7623 30.7816 28.8375 31.3441 28.5232 31.5727C28.4794 31.6046 28.3446 31.6342 28.2908 31.653C28.1007 31.7195 27.8784 31.7022 27.6807 31.6998C27.1681 31.6935 26.522 31.3572 26.121 31.0512C25.8428 30.8389 25.6181 30.5884 25.3938 30.3223C25.0684 29.9361 24.6785 29.6065 24.3607 29.214C23.9702 28.7316 23.5521 28.271 23.1772 27.7764C22.8011 27.2801 22.3905 26.8875 21.9168 26.4875C21.6033 26.2229 21.3155 25.9297 21.0258 25.64C20.9404 25.5546 20.8227 25.4196 20.7065 25.3809" stroke="black" stroke-width="2.48951" stroke-linecap="round"/>
<path d="M22.3603 16.9157C22.3603 16.4602 22.4169 15.9655 22.2083 15.5482C22.0578 15.2472 21.6524 15.0243 21.3544 14.8918C21.2741 14.8562 21.137 14.6916 21.16 14.8979C21.203 15.2856 21.4676 15.7629 21.6522 16.0952C21.9647 16.6577 22.4637 17.1246 22.7979 17.6814" stroke="black" stroke-width="2.48951" stroke-linecap="round"/>
<path d="M11.8582 19.9789C11.8582 18.8039 11.8582 17.6289 11.8582 16.4539C11.8582 16.2465 11.7083 16.4737 11.6819 16.5451C11.5092 17.0114 11.3267 17.486 11.2686 17.9855C11.1722 18.8146 11.53 19.5478 11.53 20.3618" stroke="black" stroke-width="2.48951" stroke-linecap="round"/>
<path d="M25.2556 5.78667C25.2556 5.31319 25.2556 4.8397 25.2556 4.36622C25.2556 4.32143 25.281 4.21777 25.2188 4.21777C25.1406 4.21777 25.0562 4.34887 25.0132 4.40027C24.9158 4.5166 24.8094 4.61983 24.7068 4.73121C24.5284 4.92491 24.3267 5.10523 24.1143 5.26098C24.0141 5.33447 23.9115 5.3954 23.8338 5.4925" stroke="black" stroke-width="1.35791" stroke-linecap="round"/>
<path d="M7.32837 20.8041C7.32837 20.5563 7.05625 20.2339 6.94468 20.0108C6.77024 19.6619 6.7574 19.3179 6.65173 18.9375C6.53715 18.525 6.39507 18.0806 6.39507 17.6516C6.39507 17.393 6.61453 15.9043 6.90839 15.9043" stroke="black" stroke-width="1.35791" stroke-linecap="round"/>
<path d="M16.7315 25.1457C16.9821 25.1326 17.2033 24.9172 17.4166 24.8042C17.7656 24.6195 18.0917 24.3921 18.4221 24.176C18.8305 23.909 19.361 24.0991 19.8029 24.2161C20.1389 24.305 20.477 24.4081 20.8084 24.5028C20.895 24.5275 20.8938 24.5766 21.0108 24.5766C21.2009 24.5766 21.1632 24.6186 20.9434 24.5386" stroke="white" stroke-width="0.452638" stroke-linecap="round"/>
<path d="M18.6438 23.8142C18.6438 23.2927 18.5193 22.7187 18.4175 22.23" stroke="white" stroke-width="0.452638" stroke-linecap="round"/>
<path d="M21.4736 28.3253C21.4736 28.1481 21.364 27.9678 21.2382 27.8503C21.024 27.6502 20.8484 27.3916 20.7021 27.1393C20.4251 26.6621 20.1269 26.2018 19.8216 25.7422C19.6231 25.4435 19.4345 25.1358 19.2309 24.8408C19.1819 24.7697 19.1348 24.6962 19.0735 24.635C19.0259 24.5873 19.0191 24.496 18.9794 24.4392C18.9636 24.4167 18.915 24.338 18.8879 24.3303C18.8582 24.3218 18.8499 24.283 18.822 24.269" stroke="white" stroke-width="0.452638" stroke-linecap="round"/>
<path d="M23.3623 25.9038C23.3399 25.9014 23.3217 25.8927 23.3018 25.8822C23.1469 25.8006 23.002 25.6988 22.8605 25.5963C22.7185 25.4936 22.5843 25.3803 22.4448 25.2741C22.2291 25.1101 22.0371 24.9008 21.8057 24.7589C21.6508 24.6638 21.1777 24.3937 21.3403 24.475" stroke="white" stroke-width="0.452638" stroke-linecap="round"/>
<path d="M21.3525 24.4749C21.2375 24.4749 21.1224 24.4567 21.0081 24.4446C20.8992 24.433 20.7892 24.4341 20.6799 24.4237C20.3693 24.3944 20.0674 24.2963 19.7597 24.2509C19.5189 24.2153 19.2742 24.1895 19.0352 24.1479C18.9966 24.1412 18.8835 24.1269 18.8704 24.0874" stroke="white" stroke-width="0.452638" stroke-linecap="round"/>
<path d="M23.8694 27.6597C23.7378 27.7204 23.7182 27.9344 23.6775 28.058C23.6297 28.2033 23.5878 28.3505 23.5878 28.5043" stroke="white" stroke-width="0.452638" stroke-linecap="round"/>
<path d="M22.001 27.5353C22.001 27.46 22.001 27.3847 22.001 27.3093C22.001 27.2645 21.9958 27.2158 22.0052 27.1717C22.0217 27.0943 22.0663 27.0205 22.0945 26.9468C22.1437 26.8185 22.215 26.7016 22.3005 26.5942C22.3785 26.4963 22.4712 26.4578 22.5874 26.4287" stroke="white" stroke-width="0.452638" stroke-linecap="round"/>
<path d="M30.8088 28.2394C30.4767 28.2394 30.1445 28.2394 29.8123 28.2394C29.6455 28.2394 29.4757 28.2485 29.3097 28.2288C28.9218 28.1826 28.57 28.0336 28.2001 27.9217C27.9436 27.844 27.7079 27.7241 27.483 27.5806C27.3636 27.5044 27.2314 27.4074 27.1671 27.2788" stroke="white" stroke-width="0.452638" stroke-linecap="round"/>
<path d="M28.8175 26.4144C28.8072 26.4026 28.8225 26.4056 28.832 26.4056C28.9952 26.4056 29.1584 26.4052 29.3216 26.4061C29.464 26.4069 29.6029 26.4031 29.7413 26.4386C29.8544 26.4677 29.9676 26.4981 30.078 26.5366C30.2586 26.5997 30.431 26.706 30.5743 26.8326C30.662 26.91 30.7388 27.0092 30.7388 27.1305C30.7388 27.2454 30.6656 27.3088 30.5602 27.3488C30.3393 27.4326 30.0728 27.3638 29.8562 27.3046C29.7087 27.2643 29.5662 27.2099 29.421 27.1625C29.2494 27.1064 29.072 27.067 28.8942 27.0363C28.5981 26.9854 28.3251 26.9219 28.0577 26.7811" stroke="white" stroke-width="0.452638" stroke-linecap="round"/>
<path d="M31.005 26.8633C31.0779 26.8633 31.1343 26.9249 31.1867 26.9686C31.2447 27.0169 31.304 27.0636 31.3634 27.1103C31.4039 27.1421 31.4446 27.1711 31.4804 27.2085C31.5163 27.2459 31.5502 27.2856 31.5885 27.3206C31.6327 27.3611 31.6778 27.4031 31.7138 27.4516C31.7383 27.4847 31.7436 27.5168 31.7436 27.5575C31.7436 27.7447 31.7477 27.9283 31.6993 28.1114C31.6512 28.2929 31.5488 28.4575 31.4687 28.6259C31.4091 28.751 31.3544 28.8792 31.304 29.0083C31.2579 29.1264 31.2251 29.2471 31.1899 29.3685C31.189 29.3717 31.173 29.4197 31.1724 29.4027C31.171 29.354 31.1799 29.3051 31.1927 29.2583C31.2365 29.0975 31.303 28.943 31.353 28.784C31.4344 28.5249 31.4888 28.2569 31.5269 27.988C31.5391 27.9022 31.5624 27.8161 31.5614 27.7287C31.561 27.6991 31.5494 27.6724 31.5428 27.6439C31.5342 27.607 31.5243 27.5725 31.5061 27.5389C31.4905 27.5099 31.4462 27.4222 31.4088 27.4158C31.387 27.4121 31.3891 27.753 31.3891 27.7752C31.3891 27.9094 31.3959 28.0465 31.3699 28.1789C31.3499 28.2811 31.3199 28.3819 31.2955 28.4831" stroke="black" stroke-width="0.452638" stroke-linecap="round"/>
<path d="M26.15 28.2281C26.15 28.1369 26.1484 28.0455 26.15 27.9544C26.1528 27.7879 26.193 27.6301 26.2143 27.4662C26.2362 27.2968 26.2571 27.142 26.3118 26.9791C26.387 26.7552 26.4617 26.5178 26.5877 26.317C26.6726 26.1818 26.7887 26.0747 26.9025 25.964C26.9668 25.9014 27.043 25.8378 27.1258 25.8005C27.1681 25.7815 27.2319 25.7737 27.277 25.7623C27.4408 25.721 27.6182 25.6995 27.7868 25.6953C27.9367 25.6915 28.1131 25.6743 28.2589 25.7152C28.389 25.7517 28.5132 25.8019 28.6335 25.8621C28.6851 25.8878 28.8441 25.943 28.7864 25.943C28.7664 25.943 28.7363 25.9243 28.7171 25.9186C28.6347 25.8941 28.5548 25.8636 28.4695 25.8488C28.1928 25.8008 27.941 25.8489 27.7054 26C27.3134 26.2514 26.962 26.5583 26.6337 26.8866C26.4537 27.0666 26.3694 27.3582 26.3694 27.6097" stroke="black" stroke-width="0.452638" stroke-linecap="round"/>
<path d="M26.7924 25.8627C27.4053 25.8627 28.031 25.8896 28.6359 25.7848C28.9916 25.7231 29.3514 25.7201 29.7113 25.7286C29.8566 25.732 30.0424 25.7184 30.1842 25.7578C30.3913 25.8153 30.5722 26.0521 30.7238 26.1932C30.7917 26.2564 30.8441 26.3338 30.9096 26.3993C30.985 26.4747 31.0674 26.5434 31.1434 26.6181C31.3279 26.7991 31.5266 26.9646 31.686 27.1712C31.7237 27.22 31.8185 27.3486 31.7077 27.2296C31.5276 27.0361 31.3469 26.8425 31.1599 26.6556C31.0897 26.5853 31.0205 26.5179 30.9418 26.457C30.8796 26.4088 30.8282 26.3416 30.759 26.3026C30.6738 26.2547 30.5712 26.2194 30.478 26.1894C30.2288 26.1093 29.9628 26.0496 29.7001 26.0351C29.2712 26.0114 28.841 25.9571 28.4111 25.9571C28.1409 25.9571 27.8915 26.0125 27.6287 26.065" stroke="black" stroke-width="0.452638" stroke-linecap="round"/>
<path d="M24.0815 5.35449C24.0566 5.40166 23.9956 5.45387 23.9623 5.48846C23.8606 5.59413 23.7573 5.69884 23.66 5.80868C23.0137 6.53875 22.4683 7.35712 22.0695 8.24711C21.7443 8.973 21.472 9.72581 21.2314 10.4838C21.1246 10.8202 21.0424 11.152 20.9937 11.5008" stroke="white" stroke-width="0.452638" stroke-linecap="round"/>
<path d="M8.11296 8.91245C8.13501 8.85365 8.53285 9.01975 8.57368 9.0358C9.02796 9.21426 9.4577 9.48891 9.84477 9.78244C10.2608 10.0979 10.6124 10.4819 10.9786 10.8517C11.2896 11.1658 11.5845 11.493 11.8772 11.8238" stroke="white" stroke-width="0.452638" stroke-linecap="round"/>
<path d="M19.1208 13.6582C19.1208 14.0616 19.0676 14.4789 18.8645 14.8343" stroke="white" stroke-width="0.452638" stroke-linecap="round"/>
<path d="M17.2812 13.4473V14.6083" stroke="white" stroke-width="0.452638" stroke-linecap="round"/>
<path d="M15.5926 13.8691C15.5951 14.036 15.6729 14.1671 15.725 14.3232C15.7426 14.3762 15.7654 14.434 15.8037 14.4723" stroke="white" stroke-width="0.452638" stroke-linecap="round"/>
<path d="M13.7831 14.0352C13.8961 14.1039 14.0039 14.1532 14.1015 14.2479C14.2019 14.3453 14.2858 14.4588 14.3863 14.5562C14.4762 14.6432 14.5956 14.7043 14.718 14.7288" stroke="white" stroke-width="0.452638" stroke-linecap="round"/>
<path d="M12.8481 15.6637C12.8199 15.6637 12.9046 15.6629 12.9327 15.6654C13.0233 15.6734 13.1032 15.7185 13.1866 15.7508C13.2996 15.7946 13.4226 15.851 13.5417 15.8748" stroke="white" stroke-width="0.452638" stroke-linecap="round"/>
<path d="M25.3298 11.415C25.1357 11.7756 24.8567 12.107 24.716 12.4938" stroke="white" stroke-width="0.452638" stroke-linecap="round"/>
<path d="M23.5259 11.4336V11.787" stroke="white" stroke-width="0.452638" stroke-linecap="round"/>
<path d="M9.12936 11.6938C9.58403 12.098 10.0191 12.5277 10.45 12.9586" stroke="white" stroke-width="0.452638" stroke-linecap="round"/>
<path d="M7.45557 13.6287C7.65532 13.6287 7.85515 13.627 8.0549 13.6287C8.19175 13.6298 8.32397 13.6659 8.45996 13.6659" stroke="white" stroke-width="0.452638" stroke-linecap="round"/>
<path d="M23.3503 13.4004C23.3148 13.4964 23.2475 13.5746 23.2159 13.6692" stroke="white" stroke-width="0.452638" stroke-linecap="round"/>
<path d="M22.051 12.5718V13.1094" stroke="white" stroke-width="0.452638" stroke-linecap="round"/>
<path d="M18.9822 11.0259C18.9822 11.264 18.9822 11.5021 18.9822 11.7402C18.9822 11.983 18.919 12.1573 18.803 12.37" stroke="white" stroke-width="0.452638" stroke-linecap="round"/>
<path d="M16.854 10.8467V12.146" stroke="white" stroke-width="0.452638" stroke-linecap="round"/>
<path d="M14.8603 11.2051C14.8603 11.4057 14.8326 11.6272 14.8827 11.8224C14.9386 12.0397 15.1292 12.2329 15.1292 12.4596" stroke="white" stroke-width="0.452638" stroke-linecap="round"/>
<path d="M12.8889 12.1011C12.9887 12.2133 13.0148 12.3997 13.0917 12.5279C13.1727 12.6628 13.2378 12.8061 13.3369 12.9299" stroke="white" stroke-width="0.452638" stroke-linecap="round"/>
<path d="M11.3657 14.0502C11.4446 13.8923 12.1167 14.2425 12.1721 14.4086" stroke="white" stroke-width="0.452638" stroke-linecap="round"/>
<path d="M10.7161 15.1255H9.25997" stroke="white" stroke-width="0.452638" stroke-linecap="round"/>
<path d="M12.6353 22.9976C12.3382 23.5917 12.0377 24.1711 11.7927 24.7903C11.6913 25.0466 11.7395 25.2093 11.4557 25.2724" stroke="white" stroke-width="0.452638" stroke-linecap="round"/>
<path d="M11.4133 22.2393C10.8624 22.7902 10.57 23.546 10.0231 24.0928" stroke="white" stroke-width="0.452638" stroke-linecap="round"/>
<path d="M9.89697 21.6074C9.69313 21.7196 9.36783 21.8355 9.22294 22.0287" stroke="white" stroke-width="0.452638" stroke-linecap="round"/>
<path d="M22.1138 22.0283C22.3782 22.0283 22.677 22.1882 22.9142 22.2904C23.1935 22.4109 23.4712 22.604 23.7146 22.7866" stroke="white" stroke-width="0.452638" stroke-linecap="round"/>
<path d="M23.2511 20.3856C22.9187 20.3856 23.9158 20.3782 24.2481 20.3856C24.4961 20.3912 24.7314 20.4699 24.9783 20.4699" stroke="white" stroke-width="0.452638" stroke-linecap="round"/>
<path d="M25.9893 18.4897H23.3353" stroke="white" stroke-width="0.452638" stroke-linecap="round"/>
<path d="M9.51255 18.4532C9.50467 18.5163 9.30873 18.3999 9.29681 18.3909C9.20019 18.3185 9.12409 18.2345 9.04331 18.1452C8.99118 18.0876 8.93997 18.0211 8.90008 17.9546C8.85259 17.8755 8.79001 17.7999 8.74667 17.7197C8.66808 17.5743 8.6011 17.4205 8.50935 17.2828C8.43038 17.1644 8.36572 17.0501 8.30919 16.9209C8.28015 16.8545 8.28006 16.846 8.35234 16.846C8.53852 16.846 8.72469 16.846 8.91087 16.846C9.07645 16.846 9.22156 16.8966 9.38191 16.9323C9.48178 16.9545 9.58658 16.9331 9.68754 16.9514C9.78532 16.9692 9.87438 16.9862 9.974 16.9862C10.0282 16.9862 9.98557 16.9597 10.0147 16.9431C10.039 16.9292 10.076 16.8948 10.0405 16.8837C9.94007 16.8523 9.82136 16.8675 9.7175 16.8675C9.61106 16.8675 9.50473 16.8655 9.39988 16.846C9.20801 16.8103 9.0188 16.7812 8.82278 16.7812C8.75493 16.7812 8.68551 16.8282 8.61962 16.8436C8.59651 16.849 8.45394 16.9038 8.47819 16.9107C8.52721 16.9247 8.56454 16.9555 8.60044 16.991C8.70234 17.0918 8.79339 17.2036 8.8881 17.311C9.04731 17.4916 9.20583 17.7091 9.29441 17.9355C9.2951 17.9372 9.32238 18.0019 9.31718 18.0032C9.30716 18.0057 9.25228 17.9211 9.25186 17.9205C9.19935 17.8466 9.1614 17.7692 9.12961 17.6844C9.07293 17.5332 8.96644 17.2473 9.08586 17.0953C9.14552 17.0193 9.2439 17.2611 9.25126 17.2822C9.32494 17.4941 9.37232 17.7419 9.37232 17.9678" stroke="white" stroke-width="0.452638" stroke-linecap="round"/>
<path d="M24.1306 15.6276C24.2255 15.5328 24.2722 15.3695 24.3269 15.2479C24.4144 15.0534 24.472 14.8362 24.5336 14.6321C24.5573 14.5539 24.6299 14.446 24.6299 14.3637C24.6299 14.3428 24.4748 14.3602 24.463 14.3622C24.3053 14.3894 24.1561 14.4573 24.0021 14.4915C23.8699 14.5209 23.7457 14.5776 23.6163 14.6156C23.559 14.6325 23.5004 14.6728 23.4404 14.6795C23.313 14.6937 23.4688 14.6985 23.5148 14.7149C23.6299 14.7557 23.7429 14.8241 23.8494 14.8833C23.9645 14.9472 23.9781 14.907 24.0524 14.8096C24.0794 14.7743 24.201 14.6461 24.2569 14.6923C24.3028 14.7301 24.1333 14.9433 24.1036 14.978" stroke="white" stroke-width="0.452638" stroke-linecap="round"/>
<path d="M12.7219 27.1528C10.6113 29.3205 9.43112 32.0596 8.26006 34.7921" stroke="black" stroke-width="0.452638" stroke-linecap="round"/>
<path d="M10.1528 25.8682C9.89077 25.8682 9.70756 26.0345 9.49933 26.1799C9.00785 26.523 8.67534 26.8071 8.35757 27.3254C8.10866 27.7314 7.71909 28.3999 7.71909 28.9103" stroke="black" stroke-width="0.452638" stroke-linecap="round"/>
<path d="M9.74731 24.5161C9.44057 24.5161 9.16532 24.5708 8.87222 24.6739C7.81346 25.0462 6.79522 25.6153 5.86384 26.2363C4.7982 26.9467 3.2794 27.9281 2.91931 29.2484" stroke="black" stroke-width="0.452638" stroke-linecap="round"/>
<path d="M24.823 22.623C26.9784 22.623 29.8407 23.573 30.7046 25.7328" stroke="black" stroke-width="0.452638" stroke-linecap="round"/>
<path d="M26.3777 20.5274C27.5903 20.5274 28.9991 20.3138 30.1335 20.8278C31.5032 21.4485 31.964 22.9636 32.2593 24.3132" stroke="black" stroke-width="0.452638" stroke-linecap="round"/>
</svg>
