<svg width="36" height="37" viewBox="0 0 36 37" fill="none" xmlns="http://www.w3.org/2000/svg">
<rect x="-0.519772" y="0.519772" width="34.305" height="35.8643" rx="4.67795" transform="matrix(-1 0 0 1 34.6829 0)" fill="white" stroke="#F32D12" stroke-width="1.03954"/>
<path d="M22.3514 15.4835C22.3514 13.7518 24.3056 12.2221 25.5806 11.7481C26.3145 11.4752 27.6374 11.274 28.3707 11.6409C29.3282 12.1198 29.8983 13.3484 30.1609 14.4622C30.613 16.3796 29.2651 17.5525 27.8 17.8647C27.2104 17.9903 25.8635 18.2148 25.8635 17.2101" stroke="#F32D12" stroke-width="0.544716" stroke-linecap="round"/>
<path d="M23.7134 16.7078C23.756 16.2796 24.3448 16.3001 24.3448 16.0472C24.3448 15.278 24.8354 14.589 25.2968 14.0878C25.4374 13.9351 26.5761 13.2894 26.6848 13.8359C26.752 14.1739 26.2388 14.0984 26.2388 14.5413C26.2388 14.9775 26.4045 15.0955 26.78 15.0955C27.4233 15.0955 26.3383 15.5958 26.1536 15.7505C25.8494 16.0055 24.4543 17.4997 24.2546 16.6071" stroke="#F32D12" stroke-width="0.544716" stroke-linecap="round"/>
<path d="M21.092 13.7493C20.4331 13.7493 19.7225 13.7375 19.1371 13.4123C18.5592 13.0912 17.5242 13.2042 17.0173 12.8355C16.7138 12.6148 15.6234 12.8056 15.2271 12.8056C14.5057 12.8056 14.2995 13.2385 13.6766 13.5846C12.3095 14.3441 10.7939 15.3484 9.63181 16.4459C9.04639 16.9988 7.60941 18.087 7.60941 18.9402C7.60941 19.503 7.74424 19.9227 7.74424 20.4907" stroke="#F32D12" stroke-width="0.544716" stroke-linecap="round"/>
<path d="M18.2607 13.2102C17.2798 13.1012 16.6033 12.08 16.111 11.3826C15.7052 10.8076 15.3434 10.1269 15.1897 9.43508C15.1225 9.13285 15.1597 8.79951 15.1597 8.49129C15.1597 8.11304 15.2007 8.44734 15.0549 8.57369C14.0265 9.46492 12.6195 10.1927 11.9539 11.4575C11.664 12.0082 11.5194 12.7219 11.5194 13.3301C11.5194 13.748 11.7891 14.0974 11.7891 13.4799" stroke="#F32D12" stroke-width="0.544716" stroke-linecap="round"/>
<path d="M8.36463 18.146C9.13352 18.146 9.36676 18.2856 9.71953 18.9911C10.0518 19.6557 8.25761 20.0379 8.12316 19.8363" stroke="#F32D12" stroke-width="0.544716" stroke-linecap="round"/>
<path d="M8.60596 20.9229L8.73348 23.1524" stroke="#F32D12" stroke-width="0.544716" stroke-linecap="round"/>
<path d="M6.91256 19.6118C6.91256 20.1275 6.70357 20.8515 6.93966 21.3411C7.17643 21.8321 7.1965 22.4515 7.64429 22.8801" stroke="#F32D12" stroke-width="0.544716" stroke-linecap="round"/>
<path d="M9.35131 22.8804C9.77137 22.8804 9.94082 23.2169 10.2702 23.3633C10.8779 23.6334 11.6755 24.0853 12.316 24.2017C12.8101 24.2916 13.5354 24.5321 13.9124 24.0609C14.0371 23.905 13.8319 23.5595 13.8319 23.6718C13.8319 23.8639 14.0786 24.176 14.1807 24.3292" stroke="#F32D12" stroke-width="0.544716" stroke-linecap="round"/>
<path d="M18.6269 16.9389C18.2651 16.9389 17.8333 16.867 17.48 16.9456C17.2491 16.9969 17.0345 17.4233 17.4196 17.0596C17.933 16.5747 18.8834 16.5767 19.5324 16.5767C20.0953 16.5767 20.6788 16.5756 20.9812 17.12C21.1721 17.4635 20.0316 17.0596 19.8343 17.0596C19.312 17.0596 18.7868 17.0447 18.2647 17.0596C17.8179 17.0724 17.6763 17.3289 17.3659 17.5358C17.2409 17.6192 17.6879 17.4788 17.7818 17.3614C18.0366 17.0429 20.4091 16.8103 20.4379 17.3011C20.4562 17.611 20.5587 17.8827 20.5587 18.1999C20.5587 18.4177 20.4783 18.7228 20.5855 18.3608C20.6743 18.0611 20.6794 17.7911 20.6794 17.4822C20.6794 17.1442 20.9209 17.1307 20.9209 17.4889C20.9209 17.7898 20.552 18.9712 20.0221 18.4413C19.5004 17.9197 20.4731 17.3079 20.4379 17.9047C20.404 18.4818 18.9062 17.6282 19.7404 17.3279C20.7336 16.9703 20.7354 18.1462 19.955 18.1462C18.9556 18.1462 19.7381 17.1803 20.4379 17.1803C21.1171 17.1803 20.1055 18.3013 19.5391 18.1395C19.3263 18.0787 19.4937 17.4982 19.6465 17.4218C19.6978 17.3962 20.5803 17.187 20.5386 17.3748C20.4921 17.5837 19.6906 17.9047 19.4721 17.9047C19.2276 17.9047 19.1049 17.4363 19.3513 17.4218C19.9879 17.3844 17.4347 18.1318 18.2916 17.8779C18.5888 17.7898 18.8568 17.605 19.1635 17.5492C19.4327 17.5003 19.4283 18.039 19.2776 18.1395C19.0113 18.317 18.2719 18.381 18.0233 18.1462C17.7829 17.9192 17.885 17.5803 18.2111 17.5492C18.4236 17.529 20.1694 17.6066 19.2977 18.1194C18.5372 18.5667 17.7441 17.8275 18.9623 17.784C19.2298 17.7744 19.4996 17.784 19.7672 17.784C20.3175 17.784 19.5267 17.9047 19.3513 17.9047C19.0717 17.9047 18.7856 17.8883 18.5062 17.9047C18.2895 17.9175 18.2741 18.2087 17.9629 18.1395C17.784 18.0997 17.6854 17.7063 17.8086 17.5694C17.8809 17.4891 18.3995 17.3011 18.2647 17.3011C17.8104 17.3011 17.1623 17.8633 17.7818 18.173C18.1232 18.3437 17.9005 18.4455 17.7147 18.2066C17.493 17.9215 17.3732 17.7403 17.3056 17.3681C17.2535 17.0816 17.5531 16.9177 17.4196 17.0596C17.2409 17.2495 17.1213 17.4661 17.0641 17.7236C17.0095 17.9695 17.172 18.1307 17.4196 18.1462C17.5075 18.1517 17.0692 18.1225 16.9367 18.0523C16.7766 17.9676 16.7484 17.6235 16.883 17.4889C17.2072 17.1646 16.9608 17.5487 16.9434 17.6096C16.7994 18.1137 17.5403 18.7562 17.5403 18.2669" stroke="#F32D12" stroke-width="0.544716" stroke-linecap="round"/>
<path d="M10.9124 24.0595C10.9124 24.4217 10.9124 24.7839 10.9124 25.1461C10.9124 25.8607 10.5815 25.5192 10.0001 25.5083C9.76546 25.5038 8.98061 25.669 8.98061 25.3205C8.98061 25.1005 8.98061 24.392 8.98061 24.4217C8.98061 25.2291 8.5938 25.4636 7.86718 25.24C7.51713 25.1323 7.1696 25.2681 7.1696 24.8442C7.1696 24.4629 7.29034 24.0876 7.29034 23.6973" stroke="#F32D12" stroke-width="0.544716" stroke-linecap="round"/>
<path d="M27.5613 19.7158C27.6633 20.735 28.4525 21.0163 29.1376 21.5872C29.4178 21.8207 29.8139 21.7583 30.0967 22.0098C30.3462 22.2315 30.8609 22.3852 31.1833 22.4927" stroke="#F32D12" stroke-width="0.544716" stroke-linecap="round"/>
<path d="M7.88164 17.5423C7.88164 16.5388 8.02478 15.4374 7.80115 14.4568C7.64792 13.785 7.23002 12.5682 6.55357 12.23" stroke="#F32D12" stroke-width="0.544716" stroke-linecap="round"/>
<path d="M7.03662 18.8706C6.98524 17.6118 5.78381 16.4592 4.64877 16.0668C3.81633 15.7791 2.86806 15.2485 1.9658 15.2485" stroke="#F32D12" stroke-width="0.544716" stroke-linecap="round"/>
<path d="M7.09961 22.3454C6.02285 22.3454 4.81878 22.1877 4.08126 23.1301C3.76434 23.5351 3.6827 24.1927 3.35686 24.5186" stroke="#F32D12" stroke-width="0.544716" stroke-linecap="round"/>
<path d="M11.7451 20.4399C12.4055 20.4399 13.0943 20.3887 13.7439 20.5271C14.7815 20.7483 15.7287 21.4893 16.5476 22.1302C17.6178 22.9678 18.4005 24.077 19.3513 25.0278" stroke="#F32D12" stroke-width="0.544716" stroke-linecap="round"/>
<path d="M10.5379 21.7683C10.8751 21.7683 11.2389 21.7354 11.5709 21.7952C12.0907 21.8887 12.2159 22.4824 12.4428 22.8818C12.9338 23.7459 13.3642 24.8141 13.677 25.7525" stroke="#F32D12" stroke-width="0.544716" stroke-linecap="round"/>
<path d="M16.1077 17.7632C16.1077 17.5116 16.1046 17.3766 16.2505 17.1578C16.4136 16.9131 16.5872 16.6752 16.7502 16.4307" stroke="#F32D12" stroke-width="0.544716" stroke-linecap="round"/>
<path d="M20.3911 16.026C20.5949 16.026 20.8736 15.9643 21.0363 16.0974C21.2739 16.2918 21.4279 16.6215 21.5333 16.9078C21.6704 17.2798 21.633 17.7456 21.6708 18.1386C21.7042 18.4843 21.683 18.9396 21.3906 19.1671" stroke="#F32D12" stroke-width="0.544716" stroke-linecap="round"/>
<path d="M21.1149 13.8891C21.1887 13.5449 21.6458 13.265 21.9206 13.0994C22.1079 12.9865 22.2905 12.8679 22.4817 12.7617C22.7565 12.609 22.9933 12.3999 23.2701 12.2511C23.692 12.0243 24.1441 11.8597 24.5664 11.6342C25.0216 11.3912 25.4869 11.1357 25.985 10.9934C26.3583 10.8867 26.7257 10.8525 27.1138 10.8764C27.5519 10.9033 27.9221 11.1504 28.2918 11.3603C28.5605 11.5129 29.1175 11.6053 29.2039 11.9507" stroke="#F32D12" stroke-width="0.544716" stroke-linecap="round"/>
<path d="M21.2026 14.0015C21.2681 14.0015 21.568 13.961 21.6144 14.0244C21.6902 14.1282 21.6604 14.3637 21.5648 14.4457C21.4637 14.5324 21.862 14.5644 21.9079 14.5924C22.0136 14.657 21.8502 14.9447 21.8603 15.0251C21.8721 15.1202 22.3736 15.2382 22.4645 15.3053C22.6623 15.4516 22.9106 15.476 23.1107 15.6179C23.3361 15.7779 23.4965 15.9726 23.612 16.2165C23.6358 16.2667 23.8251 16.3474 23.9132 16.4452C24.0235 16.5678 24.5714 17.2815 24.3097 17.4269C24.1323 17.5254 23.8744 17.5012 23.6787 17.5012C23.4643 17.5012 23.5183 17.5012 23.6883 17.5012C23.8135 17.5012 24.282 17.4499 24.3592 17.5851C24.4085 17.6713 24.9833 17.5698 25.0797 17.5698C25.1741 17.5698 25.2654 17.562 25.3542 17.5965C25.3937 17.6119 25.2817 17.486 25.2723 17.465C25.2162 17.3404 25.2485 17.2768 25.1141 17.2191C24.9987 17.1697 25.2777 17.4094 25.3542 17.5088C25.5149 17.7176 25.6883 17.946 25.7774 18.197C25.7839 18.2153 25.8092 18.3989 25.7793 18.3456C25.6954 18.1965 25.6588 18.0064 25.663 17.8367C25.6709 17.5215 25.9313 17.4602 26.1967 17.5088C26.6224 17.5868 26.7931 18.4326 26.8429 18.765C26.8628 18.8973 26.9021 19.1116 26.8582 19.2434C26.811 19.3851 26.4939 18.9521 26.4674 18.908C26.3909 18.7804 26.2635 18.4315 26.4693 18.683C26.6099 18.8548 26.6732 19.1158 26.761 19.3197C26.8286 19.477 27.0977 19.8803 27.329 19.7962C27.4099 19.7668 27.4708 19.6671 27.5349 19.6132C27.6558 19.5116 27.8192 19.5186 27.9695 19.5255C28.1669 19.5347 28.4612 19.8101 28.2363 19.9868C28.0288 20.1499 28.3903 20.3427 28.5222 20.4634C28.7311 20.6544 28.9271 20.8917 29.1703 21.0352C29.3501 21.1413 29.7358 21.331 29.7784 21.5651C29.8033 21.7024 29.8936 21.5202 29.9709 21.4469C30.2113 21.2192 30.409 21.955 30.5351 21.9616C30.7628 21.9736 30.9937 21.9088 31.2175 21.9292C31.4057 21.9463 31.4488 22.189 31.5645 22.3047" stroke="#F32D12" stroke-width="0.544716" stroke-linecap="round"/>
<path d="M20.9897 13.6978C20.5403 13.6978 20.0812 13.7171 19.6473 13.5974C19.2185 13.4792 18.8091 13.3023 18.3633 13.2351C17.4852 13.1026 16.8268 12.5437 15.9087 12.5437C15.6242 12.5437 15.2663 12.4906 15.0041 12.5995C14.5291 12.7966 14.1549 13.0983 13.6876 13.2992C13.3445 13.4466 12.9777 13.5661 12.6565 13.748C12.3075 13.9455 11.9997 14.1772 11.6286 14.3473C11.0123 14.6299 10.6455 15.1124 10.1338 15.4931C9.60299 15.888 9.15473 16.3537 8.60334 16.7308C8.34431 16.9079 8.04823 16.9988 7.78623 17.1489C7.31311 17.4201 8.62843 16.4875 8.99244 16.1119C9.32768 15.7661 9.7221 15.4512 10.0917 15.1335C10.1473 15.0856 10.381 14.7642 10.471 14.7738C10.4741 14.7742 10.0148 15.3952 9.97168 15.4429C9.57937 15.8765 9.07509 16.3404 8.49958 16.597C8.30615 16.6832 7.87279 16.6509 7.73759 16.7865C7.41517 17.1099 6.92372 17.4057 6.92372 17.8681C6.92372 17.9538 6.94008 18.5091 6.98857 18.2278C7.06796 17.767 7.46731 17.6079 7.78623 17.2995C7.93538 17.1552 7.39328 17.506 7.26094 17.6619C7.20638 17.7261 6.87066 18.3922 6.86535 18.3922C6.83542 18.3922 6.8102 18.2611 6.80375 18.2417C6.78688 18.1909 6.63047 18.2124 6.5865 18.2138C6.39264 18.22 6.26238 18.3625 6.28494 18.5177C6.3248 18.7918 6.43032 19.0378 6.54435 19.2926C6.76897 19.7948 6.6048 20.3972 6.78105 20.9206C6.81493 21.0213 7.11268 21.6024 7.09557 21.4921C7.02557 21.0407 6.76752 20.5867 6.74862 20.1317C6.73724 19.8577 6.70878 19.5884 6.69026 19.3177C6.67653 19.1172 6.69646 19.7202 6.72268 19.9199C6.78136 20.3667 6.89625 20.7877 7.00802 21.2245C7.10549 21.6054 7.27966 21.9972 7.33552 22.3814C7.35596 22.5219 7.40842 22.8127 7.56574 22.8804" stroke="#F32D12" stroke-width="0.544716" stroke-linecap="round"/>
</svg>
