<svg width="36" height="38" viewBox="0 0 36 38" fill="none" xmlns="http://www.w3.org/2000/svg">
<rect x="-0.519772" y="0.519772" width="34.305" height="35.8643" rx="4.67795" transform="matrix(-1 0 0 1 34.6494 0.903809)" fill="#95B7FF" stroke="black" stroke-width="1.03954"/>
<path d="M7.16634 16.9609C7.16634 16.2213 8.0182 15.5796 8.57173 15.1971C9.68356 14.4286 10.7777 13.6964 12.038 13.1833C13.3577 12.646 14.6303 12.2021 16.0656 12.1057C16.6633 12.0655 17.2638 12.0797 17.8624 12.0797C18.3749 12.0797 18.9027 12.0418 19.4093 12.1316C20.7044 12.3612 22.0405 12.6488 23.2104 13.2682C23.3627 13.3488 23.4257 13.523 23.5948 13.5653C23.8446 13.6278 24.1511 13.7084 24.3564 13.8624" stroke="black" stroke-width="0.467313" stroke-linecap="round"/>
<path d="M20.9183 19.0833C20.9183 19.3135 20.9839 19.4229 20.7273 19.4229C20.5488 19.4229 20.3611 19.2973 20.2392 19.1682C20.0906 19.0108 20.0866 18.4053 20.2722 18.2768C20.4796 18.1333 20.7561 18.0613 20.9843 17.9609C21.2987 17.8226 21.6174 17.7272 21.9511 17.6496C22.072 17.6215 22.2466 17.5284 22.2789 17.7062C22.313 17.8936 22.3594 18.1045 22.4133 18.2863C22.5753 18.8331 21.9391 19.5502 21.3852 19.5502C21.0942 19.5502 20.6908 19.4269 20.6636 19.0739C20.6523 18.926 20.6212 18.7931 20.6212 18.6376C20.6212 18.4114 20.9574 18.3851 21.1494 18.2792C21.3029 18.1945 21.5013 18.0646 21.6823 18.0646C21.8588 18.0646 21.9605 17.8977 21.9393 18.1094C21.9258 18.2444 21.9092 18.8506 21.7247 18.8711C21.5716 18.8881 21.2368 18.9271 21.1117 18.8475C20.9254 18.729 21.0929 18.4654 21.2484 18.4136C21.4201 18.3564 21.6087 18.3617 21.7884 18.3617C21.9903 18.3617 21.9892 18.7653 21.8945 18.8711C21.7441 19.0392 21.5271 18.9984 21.3215 18.9984C21.1885 18.9984 21.2474 18.4958 21.3003 18.4136C21.4082 18.2458 21.7982 18.2181 21.9535 18.3217C22.1174 18.4309 21.8403 18.7844 21.7766 18.8711C21.6297 19.0708 21.5835 19.2106 21.3168 19.2106C21.0704 19.2106 20.5572 19.236 20.8193 18.8616C20.8507 18.8167 21.3852 18.1917 21.3852 18.4278C21.3852 18.6203 21.4355 18.8761 21.2484 18.9984C21.0471 19.13 21.164 18.7609 21.3427 18.7013" stroke="black" stroke-width="0.467313" stroke-linecap="round"/>
<path d="M12.9811 18.1495C12.9811 17.6725 13.1667 17.1955 13.4904 16.8337C13.7801 16.51 13.1522 16.2401 12.9386 16.1452C12.6875 16.0336 12.7121 16.0215 12.4529 16.1546C11.9891 16.3928 11.6317 16.6234 11.3163 17.0554C11.0732 17.3883 10.7531 17.8451 10.7315 18.2768C10.7208 18.4911 10.9951 18.3779 11.1135 18.3523C11.2811 18.3161 12.6746 18.3933 12.684 18.2344C12.7026 17.9177 12.7522 17.623 12.8019 17.31C12.8323 17.1185 12.8376 16.9229 12.9292 16.7488C12.9638 16.6831 13.0525 16.7126 13.099 16.6545C13.128 16.6182 12.7454 16.4884 12.684 16.4611C12.6198 16.4326 12.6006 16.4243 12.5472 16.3763C12.505 16.3383 12.4627 16.2238 12.5472 16.2914C12.7169 16.4271 12.6485 16.7535 12.5991 16.928C12.5561 17.0798 12.3498 17.8739 12.2407 17.3596C12.2027 17.1807 12.0389 16.579 12.3656 16.579C12.5939 16.579 12.443 17.4675 12.4081 17.593C12.3034 17.97 12.0622 17.3625 12.0261 17.2181C11.9892 17.0707 12.0132 16.9663 12.1911 17.0058C12.3046 17.0311 12.3109 17.3307 12.3232 17.4067C12.3521 17.586 12.3751 17.8168 12.3421 17.9986C12.3232 18.1023 12.1386 18.0646 12.0685 18.0646C11.9694 18.0646 11.7827 18.0943 11.7526 17.9585C11.7219 17.8207 11.8196 17.6584 11.9624 17.6425C11.9981 17.6386 12.2032 17.6143 12.2147 17.6661C12.2415 17.7866 12.2052 17.9007 12.0874 17.9538C11.6686 18.1422 11.5166 17.7913 11.5403 17.4468C11.5491 17.3199 11.5847 17.1329 11.6889 17.0436C11.711 17.0246 11.8588 16.839 11.8516 16.8361C11.6483 16.7548 11.3473 17.392 11.3069 17.5364C11.29 17.5968 11.2013 17.8706 11.2055 17.8453C11.2269 17.7169 11.4273 17.5469 11.538 17.4916C11.6455 17.4379 11.7753 17.3438 11.8964 17.3265C11.9389 17.3205 11.6562 17.6424 11.6016 17.6826C11.5191 17.7434 11.1984 18.0117 11.1984 17.8524C11.1984 17.6265 11.5962 17.0489 11.8964 17.2204C12.0712 17.3203 11.8342 17.6878 11.729 17.7463C11.5005 17.8732 11.3153 17.7113 11.2409 17.5128" stroke="black" stroke-width="0.467313" stroke-linecap="round"/>
<path d="M19.263 21.6299C19.3014 21.6222 19.1885 21.5878 19.1876 21.5874C19.0376 21.5231 18.8949 21.4432 18.7443 21.3799C18.6272 21.3307 18.4957 21.2883 18.3717 21.2573C18.1232 21.1952 17.8951 21.0874 17.6501 21.0262C17.0918 20.8866 16.4981 20.824 15.9288 20.7291C15.6735 20.6865 15.4578 20.6536 15.1978 20.6536C14.8787 20.6536 14.6046 20.7486 14.297 20.781C14.0628 20.8056 13.9233 20.9656 13.7264 21.0781C13.6694 21.1106 13.6777 21.114 13.7264 21.1229C13.9022 21.1549 14.0454 21.3306 14.1461 21.4624C14.3624 21.7459 14.531 22.0542 14.7639 22.3278C15.0131 22.6207 15.2792 22.8986 15.5444 23.1767C15.8976 23.5472 16.1371 23.9893 16.4452 24.3911C16.638 24.6426 16.9459 24.8668 17.0889 25.1528C17.1637 25.3023 17.1105 25.3332 17.1502 25.1433C17.2402 24.7133 17.5279 24.2866 17.7256 23.8983C18.0247 23.3107 18.4312 22.6315 18.9023 22.1604C18.9575 22.1052 19.3014 21.8827 19.1593 22.0119C18.7952 22.3429 18.5743 22.7571 18.3293 23.1791C18.1558 23.4779 17.9894 23.8192 17.7775 24.0917C17.6257 24.2868 17.4519 24.5335 17.3625 24.7613C17.2962 24.9301 17.1784 25.0231 17.0559 25.1528C16.9091 25.3083 16.9001 25.1934 16.7918 25.049C16.3835 24.5046 15.7665 24.1517 15.3605 23.6035C15.1781 23.3574 15.0086 23.0942 14.8063 22.8631C14.6887 22.7287 14.5254 22.6056 14.4267 22.4575C14.3007 22.2685 14.2018 22.1004 14.1084 21.8869C14.0275 21.7021 14.2703 21.7617 14.3913 21.7242C14.8428 21.5841 15.2517 21.3328 15.7401 21.3328C16.3507 21.3328 16.8827 21.5108 17.478 21.6299C17.7411 21.6825 17.5569 21.7624 17.6761 21.9081C17.9063 22.1895 18.1808 22.4412 18.3458 22.7712C18.4498 22.9792 18.4158 22.7958 18.4566 22.6226C18.53 22.3108 18.7383 21.9449 18.9471 21.6983C19.1102 21.5054 19.256 21.7934 19.1498 21.861C18.9954 21.9592 18.637 21.8793 18.4613 21.8869C18.3416 21.8921 18.1754 21.9588 18.0557 21.9246C17.98 21.903 18.0061 21.5874 18.1406 21.5874C18.4038 21.5874 18.3717 21.6279 18.3717 21.8751C18.3717 21.9596 18.355 22.0605 18.2444 22.0543C18.1693 22.0501 18.1998 21.814 18.2019 21.7666C18.2118 21.5501 18.5502 21.4452 18.7018 21.5969C18.8137 21.7088 18.7418 21.8171 18.6075 21.8327C18.3108 21.8671 18.1204 21.7341 17.9048 21.5544C17.7489 21.4245 17.51 21.1765 17.9024 21.3139C17.9203 21.3201 18.1405 21.3954 18.1052 21.4365C17.9855 21.5763 17.3955 21.3888 17.2587 21.354C17.0978 21.313 16.4694 21.1205 16.9522 21.1205C16.9944 21.1205 17.3079 21.135 17.188 21.1158C16.7249 21.0417 16.2536 20.8938 15.8038 20.7645C15.6186 20.7112 15.0738 20.5182 15.2591 20.5711C15.4074 20.6135 15.5466 20.5978 15.6977 20.6206C15.7773 20.6326 16.0139 20.6429 16.0702 20.7055C16.1226 20.7636 15.5673 20.781 15.5373 20.781C15.2798 20.781 15.029 20.748 14.7733 20.7385C14.7371 20.7372 14.9725 20.7385 15.0186 20.7385C15.0975 20.7385 15.8194 20.6847 15.825 20.781C15.8388 21.0156 14.7425 20.9083 14.5729 20.9083C14.3177 20.9083 14.6593 20.9083 14.7285 20.9083C14.9844 20.9083 15.2466 20.8918 15.502 20.9107C15.5702 20.9157 15.761 20.9522 15.7378 21.0569C15.7112 21.1765 15.3539 21.1574 15.2732 21.1606C15.0169 21.1709 14.748 21.1336 14.4951 21.1842C14.3835 21.2065 14.3276 21.2314 14.4691 21.1818C14.8119 21.0619 15.9052 20.9932 15.542 20.9932C15.012 20.9932 14.4424 21.0993 13.9244 21.2054C13.907 21.209 13.5891 21.2442 13.5943 21.2809C13.596 21.2925 13.8049 21.2073 13.8301 21.196C13.9734 21.1315 14.1164 21.1497 14.2546 21.0875C14.3447 21.0469 14.7404 20.9295 14.4432 21.0569C14.2414 21.1433 14.0239 21.1205 13.8089 21.1205C13.7297 21.1205 13.5436 21.1877 13.5967 21.229C13.9452 21.5001 14.0261 21.9795 14.2121 22.3514" stroke="black" stroke-width="0.467313" stroke-linecap="round"/>
<path d="M17.9473 23.2007C17.3628 23.2007 16.8554 23.5916 16.3367 23.8185C16.2339 23.8635 16.181 23.9222 16.0632 23.9222C15.9618 23.9222 16.266 23.9222 16.3674 23.9222C16.7181 23.9222 16.9286 24.0409 16.9286 24.4316C16.9286 24.5992 16.8861 24.4105 16.8861 24.3373C16.8861 24.2105 16.8547 24.081 16.9498 23.9859C17.1032 23.8325 17.4834 23.5199 17.353 23.9435C17.2382 24.3167 16.975 24.0912 17.1408 23.8279C17.2672 23.6272 17.6709 23.6686 17.7775 23.4554" stroke="black" stroke-width="0.467313" stroke-linecap="round"/>
<path d="M12.6416 22.606C12.5422 22.4942 12.4679 22.3639 12.3799 22.2429C12.1349 21.906 11.7877 21.6289 11.4956 21.3327C11.1107 20.9424 10.6971 20.5902 10.3071 20.2102C10.0431 19.9529 9.8366 19.6452 9.58558 19.3802C9.44237 19.229 9.33199 19.1581 9.16113 19.0312C8.976 18.8937 8.80801 18.7386 8.6518 18.5738C8.55092 18.4673 8.45946 18.3202 8.32167 18.2672C8.13428 18.1951 8.00426 18.0079 7.81234 17.9465C7.77094 17.9333 7.69913 18.4981 7.67557 18.5643C7.58895 18.8079 7.49834 19.0197 7.38789 19.2529C7.28799 19.4638 7.5737 19.3567 7.71801 19.3896C8.21287 19.5027 8.6455 19.6612 8.94891 20.0923C9.18354 20.4258 9.50897 20.7731 9.8827 20.9412C10.0531 21.0179 10.2596 21.0282 10.4345 21.111C10.5804 21.1801 10.7314 21.2478 10.8919 21.2478C10.9315 21.2478 11.2086 21.2768 11.2315 21.2997C11.4062 21.4744 10.783 21.0912 10.5524 21.0025C10.303 20.9066 10.0825 20.655 9.87326 20.4838C9.6771 20.3233 9.0999 19.8613 9.34035 19.9414C9.6603 20.0481 9.9461 20.3594 10.2317 20.5356C10.3491 20.6081 10.5571 20.8186 10.7033 20.8186C10.7517 20.8186 10.6352 20.7499 10.6019 20.7149C10.5105 20.6189 10.4052 20.5506 10.2977 20.4743C9.9806 20.2493 9.71301 19.979 9.38279 19.7716C9.20095 19.6575 8.97924 19.4433 8.87345 19.2529C8.75096 19.0324 8.46192 18.8673 8.27923 18.6917C8.25021 18.6638 8.11386 18.5153 8.20849 18.6186C8.35135 18.7744 8.54693 18.8838 8.69424 19.0501C8.81867 19.1905 9.11196 19.4572 9.15406 19.6467C9.15553 19.6533 8.81887 19.4499 8.77913 19.4227C8.51109 19.239 8.18642 19.0744 7.98212 18.819C7.91533 18.7355 8.06036 18.744 8.10002 18.7695C8.18648 18.8251 8.2668 18.9812 8.2698 19.0831C8.27436 19.2383 8.02584 19.4863 7.93967 19.2623C7.88346 19.1162 7.88779 18.6388 7.88779 18.7954C7.88779 19.0948 7.63901 18.9074 7.50579 19.0406" stroke="black" stroke-width="0.467313" stroke-linecap="round"/>
<path d="M12.0474 23.9643C11.6379 23.9643 11.2911 23.6332 10.9249 23.4762C10.5985 23.3363 10.2904 23.1347 9.92513 23.1155C9.6986 23.1035 9.29802 23.2057 9.09746 23.0942C8.99055 23.0348 8.81659 23.0106 8.69423 22.9669C8.4721 22.8876 8.2287 22.8241 7.99625 22.7853C7.79961 22.7526 7.60992 22.6271 7.42089 22.6061C7.27261 22.5896 7.37845 22.6709 7.37845 22.7971C7.37845 23.0094 7.46333 23.2645 7.46333 23.4975C7.46333 23.6101 7.46925 23.7246 7.46333 23.837C7.45357 24.0225 7.43114 23.8689 7.5718 23.7922C7.84817 23.6415 8.22838 23.7097 8.54332 23.7097C9.28685 23.7097 10.0086 23.6672 10.7528 23.6672C10.8412 23.6672 10.9626 23.6453 11.0476 23.6696C11.2169 23.718 10.6907 23.6984 10.5194 23.6578C10.1786 23.5771 9.76663 23.5823 9.41343 23.5823C9.19086 23.5823 8.98295 23.5399 8.7579 23.5399C8.56583 23.5399 8.4079 23.4257 8.21791 23.4126C7.97653 23.3959 7.63637 23.3732 7.59303 23.1131C7.52841 22.7254 7.99717 22.9481 8.19433 23.0211C8.44504 23.114 8.7201 23.2605 8.98899 23.2829C9.17279 23.2982 9.42336 23.289 9.58557 23.3701" stroke="black" stroke-width="0.467313" stroke-linecap="round"/>
<path d="M13.1509 25.4499C12.5608 25.4499 11.9982 25.3689 11.4201 25.3226C11.3356 25.3159 11.3438 25.2802 11.4295 25.2802C11.5592 25.2802 11.6889 25.2802 11.8186 25.2802C12.0408 25.2802 12.2604 25.2274 12.4812 25.2047C12.5752 25.1951 12.8505 25.2442 12.8962 25.1528" stroke="black" stroke-width="0.467313" stroke-linecap="round"/>
<path d="M13.363 26.0443C12.7122 26.0443 12.0614 26.0443 11.4106 26.0443C11.0515 26.0443 10.659 26.0133 10.307 26.0961C9.84053 26.2059 9.58571 26.2378 9.28835 26.629C9.20321 26.7411 9.04222 26.8233 8.93936 26.9262C8.90448 26.961 8.61631 26.4365 8.53377 26.3508C8.44462 26.2582 8.27489 26.147 8.2178 26.0443C8.19952 26.0114 8.04591 25.832 8.14234 25.832C8.28683 25.832 8.43449 25.9142 8.58565 25.9169C9.22054 25.9285 9.85097 25.8745 10.4768 25.8745C10.8336 25.8745 11.1905 25.8745 11.5473 25.8745C11.6574 25.8745 11.7674 25.8745 11.8775 25.8745C12.0134 25.8745 11.6078 25.9169 11.4719 25.9169C11.016 25.9169 10.5601 25.9169 10.1042 25.9169C9.83593 25.9169 9.62861 26.0116 9.37323 26.0773C9.33151 26.088 8.79787 26.2563 8.79787 26.2046C8.79787 26.0485 9.13872 26.3615 8.8639 26.0867" stroke="black" stroke-width="0.467313" stroke-linecap="round"/>
<path d="M12.7688 21.0782C12.7342 20.9052 12.5456 20.7018 12.4316 20.5689C12.308 20.4246 12.2551 20.2609 12.1534 20.1043C11.9257 19.7541 11.5647 19.4507 11.2431 19.1894C10.7801 18.8132 10.2183 18.6241 9.75522 18.2769" stroke="black" stroke-width="0.467313" stroke-linecap="round"/>
<path d="M8.14257 17.0033C8.14257 16.5445 8.57523 15.9765 8.88536 15.6663C9.00602 15.5457 9.1632 15.4664 9.28858 15.348C9.3656 15.2753 9.54529 15.259 9.58569 15.1782" stroke="black" stroke-width="0.467313" stroke-linecap="round"/>
<path d="M13.83 13.5654C14.0888 13.5654 14.3555 13.3799 14.594 13.2871C14.7259 13.2359 15.1768 13.0365 15.2307 12.9287" stroke="black" stroke-width="0.467313" stroke-linecap="round"/>
<path d="M26.6909 19.9323C26.6909 19.8151 26.6904 19.5807 26.5636 19.5173C26.4277 19.4494 25.9927 19.7865 25.8845 19.8474C25.599 20.008 25.303 20.1594 25.0356 20.3473C24.9152 20.4319 24.7609 20.4611 24.63 20.5265C24.5204 20.5813 24.4375 20.666 24.3164 20.6963C23.9963 20.7763 23.6565 21.0522 23.3637 21.2033C23.0885 21.3454 22.8302 21.5169 22.5408 21.6301C22.2048 21.7616 21.8262 21.7735 21.5527 22.0333C21.3629 22.2137 21.0635 22.3607 20.8335 22.4884C20.5086 22.6689 20.2194 22.956 19.8785 23.1133C19.8004 23.1494 19.7219 23.1857 19.6451 23.2241C19.5834 23.255 19.5348 23.3633 19.4753 23.3703C19.4151 23.3774 19.1746 23.5285 19.2065 23.5401C20.2154 23.907 21.0314 24.6058 21.9159 25.1955C22.5505 25.6185 23.0754 26.1453 23.6797 26.5985C23.7769 26.6714 23.9415 26.7353 24.0169 26.8296C24.1445 26.9891 24.1731 26.903 24.3046 26.8084C24.6079 26.59 24.3409 26.5364 24.1041 26.3415C23.9246 26.1936 23.7568 26.0389 23.5925 25.8746C23.4842 25.7663 23.3933 25.6146 23.2529 25.5444C22.7151 25.2755 22.2899 24.712 21.8357 24.3277C21.5787 24.1102 21.3123 23.8252 21.1071 23.5613C20.9549 23.3657 20.5907 23.3318 20.461 23.1157C20.4407 23.0818 20.4488 23.1665 20.3997 23.2006C20.2698 23.2904 20.1132 23.3348 19.9681 23.3916C19.7275 23.4857 19.7857 23.4977 19.9941 23.4977C20.3915 23.4977 20.8353 23.8169 21.0694 24.1249C21.2639 24.3809 21.6202 24.6197 21.8734 24.8158C22.1686 25.0444 22.5313 25.2473 22.7954 25.502C22.952 25.6529 23.1448 25.7157 23.2953 25.8746C23.4258 26.0123 23.6112 26.2139 23.6962 26.3839C23.7955 26.5824 23.9694 26.8519 23.6962 26.4877C23.3299 25.9993 22.8727 25.556 22.3828 25.1931C22.0292 24.9312 21.749 24.5831 21.4066 24.3041C21.1763 24.1165 20.9133 23.8863 20.7487 23.6344C20.5905 23.3926 20.8645 23.1885 21.0552 22.9978C21.1363 22.9167 21.241 22.8762 21.3429 22.828C21.5048 22.7513 21.6384 22.6235 21.7886 22.5191C22.2244 22.2159 22.7615 22.1172 23.1892 21.8211C23.5562 21.567 23.9529 21.4293 24.3352 21.2269C24.6538 21.0582 25.0378 21.0205 25.3539 20.8449C25.6458 20.6827 25.8824 20.5275 26.1297 20.3049C26.2085 20.2339 26.7525 19.8474 26.5211 19.8474C26.231 19.8474 25.936 19.9177 25.6935 20.0856C25.426 20.2708 25.2361 20.5314 24.9672 20.7175C24.5592 21 24.0965 21.2175 23.6868 21.4603C23.4612 21.594 23.1689 21.5951 22.9346 21.7173C22.7153 21.8317 22.478 21.902 22.2578 22.0121C22.085 22.0985 21.9247 22.1943 21.7862 22.3328C21.6131 22.5059 21.3857 22.5982 21.1825 22.7337C20.8764 22.9378 20.5636 23.1233 20.2393 23.2854" stroke="black" stroke-width="0.467313" stroke-linecap="round"/>
<path d="M27.8792 23.54C26.9016 23.54 25.9415 23.249 24.9835 23.0731C24.3809 22.9624 23.7363 22.776 23.1253 22.776C22.8143 22.776 21.89 22.6486 22.201 22.6486C22.6305 22.6486 23.0526 22.5809 23.4814 22.6085C24.0339 22.6442 24.6045 22.7336 25.1391 22.8844C25.4172 22.9629 25.6798 23.0306 25.9691 23.0636C26.2443 23.0951 26.5241 23.0501 26.7992 23.0825C27.0041 23.1066 27.2081 23.1329 27.4123 23.1556C27.5413 23.1699 27.6841 23.2429 27.8084 23.2429C27.8634 23.2429 27.6982 23.2466 27.6433 23.2429C27.3534 23.2231 27.0605 23.0577 26.7992 22.9457C26.1769 22.6791 25.5593 22.5019 24.8986 22.3751C24.0139 22.2053 23.1377 22.1578 22.2552 22.3539C22.2025 22.3656 21.5758 22.5991 21.6492 22.6816C21.6961 22.7344 21.9888 22.6911 22.0454 22.6911C22.4718 22.6911 22.8908 22.748 23.314 22.7972C24.2552 22.9066 25.1908 22.9457 26.1389 22.9457C26.477 22.9457 26.7858 22.9574 27.1151 23.0306C27.322 23.0766 27.45 23.158 27.6669 23.158" stroke="black" stroke-width="0.467313" stroke-linecap="round"/>
<path d="M29.1526 19.3804C29.062 19.3917 29.0195 19.8929 29.0017 19.9746C28.9182 20.356 28.8057 20.7448 28.7046 21.1206C28.4798 21.9554 28.307 22.8089 28.0915 23.6484C27.8627 24.5395 27.4708 25.2867 26.9007 25.9994C26.8204 26.0997 26.1115 26.8806 26.0541 26.7658" stroke="black" stroke-width="0.467313" stroke-linecap="round"/>
<path d="M22.1493 28.8882C22.0728 28.8991 22.3711 29.1836 22.3945 29.2277C22.4473 29.3274 22.1673 29.6166 22.1092 29.6711C21.7893 29.9709 21.4155 30.2464 20.9608 30.2464" stroke="black" stroke-width="0.467313" stroke-linecap="round"/>
<path d="M15.1034 25.7471C15.3232 25.7471 16.1645 25.6507 16.1645 26.0229C16.1645 26.5151 16.207 27.0467 16.207 27.5533C16.207 28.0035 16.2948 28.4797 16.7163 28.7276C16.9112 28.8423 17.0462 29.0325 17.2775 29.1096C17.5276 29.193 17.9356 29.1789 18.1924 29.1332C18.5222 29.0746 18.824 29.0059 19.1333 28.8667C19.4562 28.7214 19.7109 28.3093 19.9232 28.0391C20.0368 27.8945 20.2144 27.7218 20.4114 27.808C20.5863 27.8845 20.9202 28.1281 21.0032 28.315C21.1206 28.579 21.0247 28.4078 20.8759 28.5484C20.7447 28.6723 20.5321 28.7292 20.409 28.8455C20.3831 28.8699 20.057 29.2087 20.0789 29.2087C20.1376 29.2087 20.2838 29.0132 20.3241 28.9729C20.4263 28.8706 20.5644 28.8119 20.6637 28.7182C20.8631 28.5298 20.6545 28.9522 20.6024 29.0342C20.4089 29.3381 20.2419 29.6091 20.0081 29.8854C19.8193 30.1086 19.5214 30.183 19.263 30.3122C18.9846 30.4514 18.6902 30.5863 18.374 30.6258C17.9369 30.6805 17.1894 30.7254 16.8436 30.416C16.6323 30.2269 16.4163 30.0547 16.2164 29.8548C16.1433 29.7816 15.7218 29.2097 15.6222 29.2794C15.3402 29.4768 14.4295 29.745 14.1932 29.3737C14.0842 29.2025 14.0847 28.9533 14.0847 28.7583C14.0847 28.6544 14.0474 28.4721 14.0942 28.3786C14.1503 28.2664 14.3046 28.2512 14.4007 28.19C14.5529 28.0931 14.6716 28.0997 14.679 27.9023C14.6929 27.5266 14.7638 27.1584 14.7638 26.7752C14.7638 26.6178 15.0345 25.9673 14.8487 25.8744" stroke="black" stroke-width="0.467313" stroke-linecap="round"/>
<path d="M20.2816 28.1238C20.2816 28.4859 19.6769 28.3598 19.7346 28.23C19.7979 28.0874 20.0742 28.1238 20.1944 28.1238C20.342 28.1238 20.3665 28.2681 20.3665 28.3974C20.3665 28.6446 19.8529 28.4242 20.3241 28.3031C20.3972 28.2843 20.6067 28.2081 20.6542 28.2936C20.7361 28.441 20.7136 28.566 20.5787 28.6662C20.4321 28.7751 20.2658 28.7605 20.093 28.7605C19.9758 28.7605 20.1755 28.6756 20.2203 28.6756C20.4449 28.6756 20.3869 28.9097 20.2793 29.0576C20.1131 29.286 20.0092 29.3547 19.7298 29.3547C19.5779 29.3547 19.4567 29.2693 19.4775 29.1024C19.4964 28.9517 19.7873 28.9641 19.8973 28.9751C20.0798 28.9933 20.0694 29.1701 20.0694 29.3123C20.0694 29.5005 19.9277 29.567 19.7534 29.567C19.3971 29.567 19.5699 28.8936 19.7723 28.7699C19.9131 28.6839 19.9189 28.6829 19.8477 28.8548C19.7616 29.0629 19.6971 29.2665 19.6355 29.4821C19.594 29.6273 19.0486 30.0597 18.9234 29.8405C18.7706 29.5731 18.8951 29.2699 19.1993 29.2699C19.3066 29.2699 19.2722 29.5367 19.2535 29.6094C19.2092 29.7818 18.9867 29.8738 18.8291 29.8971C18.6877 29.918 18.2675 30.021 18.1594 29.9065C18.0325 29.7722 18.1664 29.535 18.2867 29.4491C18.6283 29.2051 19.0845 30.1612 18.4471 30.1612C18.2561 30.1612 17.7265 30.2889 17.8245 29.9702C17.9236 29.6483 18.6555 29.7141 18.8809 29.7391C19.15 29.769 19.11 30.0294 19.0177 30.2036C18.9085 30.4099 18.5117 30.3275 18.3292 30.331C18.1451 30.3344 17.9633 30.3976 17.7774 30.3711C17.5799 30.3428 17.5832 29.9188 17.6312 29.7815C17.673 29.662 18.1731 29.4535 18.1995 29.6118C18.2983 30.2045 17.3724 30.3882 17.037 30.0527C16.8243 29.84 16.9287 29.4235 17.1832 29.3217C17.3474 29.256 17.7349 29.2691 17.7349 29.4915C17.7349 29.8182 17.5469 29.9914 17.2044 29.9914C16.9691 29.9914 16.8901 29.7866 16.8247 29.5905C16.7625 29.4038 16.9244 29.3704 17.0794 29.3335C17.3206 29.2761 17.5269 29.4265 17.386 29.6943C17.3051 29.8479 16.9869 29.846 16.853 29.8028C16.5232 29.6964 16.2713 29.2726 16.2164 28.9492C16.1789 28.7285 16.4139 28.6967 16.5889 28.7794C16.7995 28.8788 16.8012 29.0125 16.8012 29.218C16.8012 29.6338 16.412 29.669 16.1645 29.3359C16.0771 29.2182 15.8521 28.8182 15.9758 28.6591C16.0513 28.5621 16.2322 28.5783 16.3107 28.6568C16.4857 28.8318 16.6722 29.3525 16.247 29.3099C15.8897 29.2742 15.5406 28.3472 15.9287 28.3361C16.3309 28.3246 16.1106 28.7477 15.8674 28.7605C15.5841 28.7754 15.4411 27.9116 15.6764 27.9116C15.7479 27.9116 15.8674 27.8788 15.8674 27.9753C15.8674 28.0343 15.8982 28.1938 15.8226 28.2064C15.4849 28.2627 15.386 27.6145 15.7165 27.6145C16.0055 27.6145 16.1985 28.0978 15.8013 28.0342C15.3224 27.9576 15.2404 27.4069 15.6551 27.1995C15.7389 27.1576 15.8442 27.2368 15.7636 27.3174C15.6349 27.4461 15.4063 27.4409 15.4005 27.2325C15.3976 27.1287 15.3836 26.8773 15.5302 26.8529C15.6674 26.83 15.7632 26.9247 15.7801 27.0604C15.7902 27.1408 15.8059 27.3551 15.674 27.3551C15.4648 27.3551 15.4005 27.0049 15.4005 26.8529C15.4005 26.7253 15.5387 26.6777 15.6363 26.6288C15.7374 26.5783 15.5622 26.6132 15.5372 26.544C15.4804 26.3861 15.5676 26.2623 15.7306 26.2563C15.8734 26.251 15.8203 26.2291 15.8249 26.0676C15.8282 25.9516 15.9026 25.816 16.0372 25.8318C16.1741 25.8479 15.98 26.1392 15.9523 26.1808C15.8729 26.2999 15.7825 26.3972 15.7825 26.544C15.7825 26.6399 15.7825 26.9275 15.7825 26.8316C15.7825 26.55 15.897 26.2093 15.6127 26.1077C15.1675 25.9487 15.2769 26.6312 15.2519 26.8764C15.2062 27.325 15.1129 27.7921 15.1034 28.2417C15.1005 28.3769 15.0609 28.4953 15.0609 28.2842C15.0609 27.9004 15.0185 26.7496 15.0185 27.1335C15.0185 27.745 15.0185 28.3565 15.0185 28.968C15.0185 29.2023 15.0108 28.6433 15.0397 28.5507C15.0722 28.4465 15.1747 28.3552 15.2897 28.4445C15.4363 28.5586 15.4192 29.0576 15.1859 29.0576C14.7999 29.0576 14.7441 28.1926 15.2095 28.296C15.4359 28.3463 15.5102 28.9859 15.2543 29.0482C14.7527 29.1702 14.2982 28.752 14.4761 28.2182C14.506 28.1286 14.7318 28.158 14.8063 28.1686C14.9758 28.1929 14.9846 28.4439 14.9737 28.5695C14.9597 28.7297 14.9067 28.8353 14.7638 28.9067C14.7048 28.9362 14.5085 29.0408 14.4667 28.9468C14.4017 28.8007 14.3096 28.5269 14.4337 28.3879C14.5806 28.2234 14.7222 28.2997 14.8063 28.4634C14.9538 28.7508 15.1341 29.1001 14.6884 29.1001C14.4721 29.1001 14.3216 29.2494 14.3394 28.9303C14.3472 28.7896 14.7214 28.7935 14.7214 28.9727" stroke="black" stroke-width="0.467313" stroke-linecap="round"/>
<path d="M14.8061 30.0343C14.4877 30.0343 14.1694 30.0343 13.851 30.0343C13.7753 30.0343 13.7643 30.033 13.7166 29.9729C13.5509 29.7642 13.3304 29.552 13.1083 29.407C12.9405 29.2975 12.7524 29.2187 12.5777 29.1217C12.432 29.0408 12.1869 28.8729 12.0259 28.8482C11.8817 28.826 11.7187 28.7691 11.5803 28.7609C11.3376 28.7466 11.6647 28.8689 11.7265 28.9307C11.9163 29.1205 11.9589 29.4491 12.0684 29.6923C12.1447 29.8619 12.1745 29.9335 12.1745 30.1191C12.1745 30.2154 12.1383 30.3704 12.099 30.4587C12.0097 30.6597 12.3894 30.5919 12.4905 30.5766C12.8073 30.5288 13.1278 30.5436 13.4478 30.5436C13.6219 30.5436 13.9056 30.4921 14.0656 30.5648C14.1995 30.6257 14.407 30.586 14.5514 30.586C14.7163 30.586 14.6444 30.4958 14.7636 30.4257C14.8356 30.3833 14.9758 30.322 14.9758 30.2253C14.9758 30.0133 14.5205 30.0767 14.3627 30.0767C14.1043 30.0767 13.8729 30.1937 13.6176 30.237C13.5377 30.2506 13.2937 30.2465 13.3747 30.2465C13.5115 30.2465 13.6483 30.2465 13.785 30.2465C14.057 30.2465 14.3164 30.2683 14.5844 30.2889C14.736 30.3006 14.4156 30.3314 14.391 30.3314C14.2181 30.3314 14.0452 30.3314 13.8723 30.3314C13.6627 30.3314 13.2542 30.4163 13.0682 30.3078C12.9029 30.2114 12.8457 29.8483 12.7263 29.6947C12.6148 29.5514 12.5293 29.4231 12.3961 29.3033C12.1649 29.0951 12.5919 29.2722 12.6932 29.3127C12.9591 29.4191 13.1973 29.6187 13.4007 29.822C13.5713 29.9927 13.5909 30.1191 13.3394 30.1191C12.9919 30.1191 12.955 30.0252 12.7357 29.789C12.6634 29.7112 12.5272 29.4589 12.3961 29.4589C12.3655 29.4589 12.5814 29.8777 12.5989 29.9258C12.6393 30.0368 12.6736 30.1866 12.639 30.3078C12.5942 30.4646 12.3594 30.1347 12.3443 30.1097C12.2174 29.9008 12.3706 29.8967 12.4291 29.7796" stroke="black" stroke-width="0.467313" stroke-linecap="round"/>
<path d="M10.8164 29.9066C10.681 29.8915 10.5749 29.6968 10.4768 29.6189C10.2859 29.4673 10.1075 29.3701 10.01 29.1426" stroke="black" stroke-width="0.467313" stroke-linecap="round"/>
<path d="M8.56706 9.9576C8.62497 9.9576 8.46051 9.95351 8.43972 9.94817C8.31744 9.91672 8.16209 9.83788 8.05772 9.76896C7.81343 9.60763 7.48472 9.39226 7.33616 9.13228C7.28999 9.05148 7.15022 8.99058 7.08385 8.92006C6.93985 8.76706 6.9607 8.86495 7.00604 9.0191C7.21109 9.71629 7.33947 10.4297 7.56961 11.1201C7.71249 11.5487 7.84292 11.9819 7.92096 12.4288C8.00322 12.9 8.21711 13.3446 8.26995 13.8201C8.30853 14.1673 8.43167 14.4985 8.43972 14.8529C8.44045 14.8849 8.43972 15.0563 8.43972 14.9236C8.43972 14.6227 8.44391 14.3214 8.43737 14.0205C8.4225 13.3367 8.38789 12.632 8.31239 11.9525C8.27202 11.5892 8.15068 11.2026 8.14261 10.8395C8.13249 10.3842 7.95896 10.2357 7.64271 9.94817C7.51436 9.83149 7.15861 9.47581 7.31966 9.54023C7.51547 9.61855 7.58987 10.1612 7.65214 10.316C7.82729 10.7514 8.06749 11.1573 8.24637 11.5917C8.27875 11.6704 8.38014 12.2704 8.26995 11.9949" stroke="black" stroke-width="0.467313" stroke-linecap="round"/>
<path d="M27.4546 18.1073C27.4546 18.7385 27.5279 16.8379 27.4334 16.2138C27.3237 15.49 27.2424 14.7221 27.2424 13.9901C27.2424 13.6151 27.4224 13.2857 27.5819 12.9526C27.7517 12.598 27.8766 12.222 28.0488 11.8679C28.065 11.8346 28.1389 11.5958 28.195 11.684C28.2675 11.7978 28.2495 12.0656 28.2705 12.198C28.3476 12.6836 28.5903 13.136 28.6949 13.6176C28.8347 14.2604 29.1768 14.9129 28.8529 15.5606C28.6627 15.941 28.4447 16.2936 28.2422 16.6618C28.1009 16.9187 27.9729 17.2032 27.8177 17.447C27.8048 17.4673 27.7763 17.6215 27.7517 17.6215C27.7297 17.6215 27.7517 17.5775 27.7517 17.5555C27.7517 17.4714 27.7517 17.3873 27.7517 17.3032C27.7517 16.6807 27.7517 16.0581 27.7517 15.4356C27.7517 14.823 27.7119 14.1958 27.7541 13.5846C27.7737 13.3007 27.842 13.0389 27.8767 12.7616C27.9131 12.4704 28.0837 12.8099 28.1243 12.9196C28.2288 13.2017 28.4004 13.4957 28.4638 13.7873C28.5129 14.0129 28.5626 14.286 28.6525 14.4995C28.7548 14.7424 28.6218 15.0157 28.5676 15.254C28.5056 15.527 28.2988 15.8414 28.1361 16.0652C28.1186 16.0892 27.9904 16.3503 27.9734 16.3482C27.9464 16.3448 27.9639 15.9388 27.9639 15.9049C27.9639 15.3311 27.9639 14.7573 27.9639 14.1835C27.9639 14.0175 27.9556 13.8668 27.9309 13.7025C27.9147 13.5944 27.799 13.2928 27.8625 13.3818C28.0229 13.6063 28.0172 13.8952 28.0583 14.1599C28.1167 14.5368 28.1002 14.922 28.1667 15.2965C28.1958 15.46 28.1996 15.642 28.2163 15.8082C28.2195 15.8407 28.2015 15.9898 28.228 15.9426C28.3458 15.7332 28.3884 15.4985 28.3884 15.254C28.3884 14.8044 28.4975 13.9501 28.0818 13.6176C27.9764 13.5332 27.7767 13.6216 27.7093 13.693C27.6263 13.7809 27.6244 14.0249 27.6244 13.9477" stroke="black" stroke-width="0.467313" stroke-linecap="round"/>
<path d="M27.4123 19.6351C27.4123 19.2966 27.4317 18.9688 27.2425 18.6683C26.9777 18.2478 26.7124 17.7852 26.5233 17.3243C26.3094 16.8029 26.0207 16.2764 25.9173 15.7208C25.8561 15.3922 25.7076 15.0837 25.6744 14.7516C25.6529 14.5367 25.6014 14.0998 25.7168 13.9075C25.8179 13.739 25.8952 13.5626 25.9904 13.3934C26.1739 13.0672 26.3496 12.7564 26.5634 12.4526C26.6548 12.3227 26.7856 12.1653 26.7756 11.9951C26.7672 11.8523 26.4769 12.3574 26.4549 12.3983C26.1345 12.9934 25.8122 13.605 25.4032 14.1409C25.2203 14.3807 25.0555 14.6384 24.875 14.8813C24.7549 15.043 24.6186 15.093 24.4836 15.2209C24.4367 15.2654 24.2736 15.3487 24.3232 15.4331C24.353 15.4837 24.4785 15.5168 24.5284 15.5604C24.6522 15.6687 24.7927 15.7665 24.9293 15.8576C25.3948 16.1679 25.8788 16.5312 26.2757 16.9281C26.3566 17.009 26.9141 17.8485 26.8511 17.8643C26.773 17.8838 26.4853 17.5615 26.436 17.5035C26.2391 17.2714 26.1145 16.9854 25.9479 16.7324C25.6814 16.3277 25.3919 15.9438 25.0613 15.5887C24.9748 15.4958 24.6829 15.2794 24.6557 15.1572C24.6366 15.071 24.999 14.8753 25.0684 14.8059C25.1068 14.7675 25.3274 14.5142 25.3325 14.688C25.341 14.9786 25.2991 15.2754 25.3962 15.5557C25.4332 15.6628 25.5824 15.8999 25.5824 16.0038C25.5824 16.0052 25.416 15.8282 25.3985 15.8057C25.3068 15.6877 25.2392 15.5606 25.1627 15.4331" stroke="black" stroke-width="0.467313" stroke-linecap="round"/>
<path d="M27.5822 12.2498C27.4798 12.2242 27.5398 11.4612 27.5398 11.3585C27.5398 11.0339 27.434 10.5091 27.6482 10.2337C27.789 10.0526 27.8579 9.85186 28.0279 9.6819C28.205 9.50478 28.3971 9.53335 28.6339 9.53335C28.7132 9.53335 28.7975 9.56024 28.8555 9.61824C28.8964 9.65912 28.9404 9.7925 28.9404 9.66068C28.9404 9.54036 28.8619 9.47935 28.8225 9.373C28.7669 9.22273 28.7707 9.07307 28.7707 8.91554C28.7707 8.81343 28.8451 7.3566 28.7471 7.32858C28.6228 7.29307 28.5715 7.46149 28.516 7.54081C28.3614 7.76161 28.2118 7.98621 28.0444 8.1987C27.58 8.78804 27.088 9.35183 26.606 9.92478C25.9829 10.6654 25.4885 11.5986 25.0567 12.462C25.0223 12.5309 24.4258 13.595 24.4083 13.5892C24.3904 13.5832 25.2842 12.4597 25.3326 12.4007C25.7153 11.9344 26.2399 11.6047 26.639 11.1462C26.9385 10.8021 27.4022 10.5983 27.6671 10.2219C27.7712 10.074 27.9578 10.0113 28.0727 9.89649C28.1485 9.82066 28.3886 9.7814 28.3886 9.63946C28.3886 9.55112 28.1358 9.17253 28.0491 9.11833C27.8875 9.01733 27.9225 8.49428 27.9972 8.3449C28.037 8.26525 28.1397 8.26001 28.2189 8.26001C28.3628 8.26001 28.3635 8.3388 28.3886 8.47695C28.4255 8.67946 28.4735 8.87397 28.4735 9.0806C28.4735 9.24447 28.457 8.75316 28.4405 8.59013C28.4099 8.28783 28.4106 7.94311 28.4759 7.64927C28.5433 7.34577 28.5584 8.26743 28.5584 8.57834C28.5584 8.72094 28.5872 8.90046 28.5561 9.04052C28.5485 9.0745 28.3526 9.0841 28.3132 9.1089C27.9108 9.36224 27.6159 9.77064 27.3275 10.137C27.0677 10.4671 26.6763 10.724 26.4598 11.0849C26.3435 11.2787 26.2066 11.4444 26.0565 11.6131C26.0175 11.657 25.8894 11.8631 25.8231 11.8631C25.7221 11.8631 25.8625 11.3646 25.8868 11.316C26.0356 11.0184 26.3014 10.7645 26.5211 10.519C26.9347 10.0567 27.4159 9.71803 27.7685 9.19851C27.8383 9.09555 28.059 8.80316 27.9595 8.87781C27.9005 8.92202 27.8209 8.95858 27.752 8.98157" stroke="black" stroke-width="0.467313" stroke-linecap="round"/>
<path d="M28.8554 9.19385C28.8554 9.54424 28.8587 9.88355 29.0016 10.2102C29.1367 10.5189 29.2401 10.8872 29.3011 11.2194C29.4007 11.7618 29.4497 12.3386 29.4497 12.8889C29.4497 13.6745 29.577 14.4574 29.577 15.2469C29.577 16.3033 29.6194 17.3588 29.6194 18.4138C29.6194 19.6104 29.7468 20.791 29.7468 21.9886C29.7468 22.5211 29.8641 23.2206 29.6194 23.7099C29.4902 23.9685 29.1847 24.0105 28.9403 24.0919" stroke="black" stroke-width="0.467313" stroke-linecap="round"/>
<path d="M29.0677 7.75049C29.0677 8.34122 29.3355 8.92247 29.4898 9.48836C29.6937 10.2359 29.7497 10.9948 29.8105 11.7615C29.9564 13.5992 30.0491 15.4376 30.3411 17.2581C30.601 18.8788 30.5063 20.5662 30.1925 22.1699C30.1159 22.5617 29.9531 22.9087 29.8412 23.2853C29.784 23.4776 29.6855 23.837 29.4497 23.837" stroke="black" stroke-width="0.467313" stroke-linecap="round"/>
<path d="M28.813 8.59961C28.813 9.11373 29.1544 9.51478 29.3224 9.9767C29.3695 10.1062 29.471 10.1871 29.4898 10.3375C29.5066 10.4719 29.5577 10.6399 29.6101 10.7643C29.6852 10.9427 29.6195 11.2735 29.6195 11.4646C29.6195 11.9488 29.7044 12.4224 29.7044 12.9101C29.7044 13.8771 29.7905 14.8559 29.9072 15.8152C30.0248 16.7827 30.0439 17.7935 30.0439 18.7675C30.0439 19.3523 30.0439 19.9371 30.0439 20.5219C30.0439 20.797 29.9688 21.06 29.9591 21.3236C29.9471 21.6461 29.9924 22.1486 29.7468 22.3941" stroke="black" stroke-width="0.467313" stroke-linecap="round"/>
<path d="M28.3884 24.4312C28.3884 25.0909 28.0966 25.6144 27.8272 26.1997C27.6369 26.6131 27.3215 26.918 27.0538 27.2749C26.7674 27.6568 26.5129 28.0633 26.2237 28.4445C25.7196 29.1091 25.2655 29.6319 24.5495 30.0763C23.6903 30.6096 22.7566 30.9996 21.9133 31.5619C21.5816 31.783 21.173 31.8952 20.7932 32.0052C20.347 32.1343 19.9346 32.346 19.4939 32.4862C18.7551 32.7213 18.056 32.7808 17.2891 32.8376C16.5746 32.8905 15.8505 33.0293 15.1457 33.13C14.9902 33.1522 14.3672 33.2732 14.2968 33.1323" stroke="black" stroke-width="0.467313" stroke-linecap="round"/>
<path d="M28.5161 24.6436C28.5161 25.1462 28.0371 25.6811 27.7615 26.0678C27.4508 26.5038 27.1769 26.959 26.7971 27.3388C26.1553 27.9806 25.4472 28.5282 24.748 29.1002C24.1039 29.6272 23.2331 29.9829 22.4701 30.3099C21.7958 30.5989 21.1216 30.8628 20.3997 31.0197C19.5176 31.2115 18.7213 31.6933 17.8861 32.0101C17.4602 32.1716 16.9789 32.3862 16.5255 32.4534C16.2145 32.4994 15.8355 32.5254 15.5375 32.6137C15.1885 32.7171 14.6764 32.6232 14.3184 32.6232C14.1252 32.6232 14.4607 32.747 14.5094 32.7929C14.7634 33.0329 15.3157 32.9203 15.6318 32.9203C16.3333 32.9203 16.9061 32.6201 17.5748 32.4864C17.9204 32.4173 18.2504 32.2844 18.5935 32.2081C18.9698 32.1245 19.3547 32.093 19.7301 32.0077C20.0278 31.9401 20.3271 31.8697 20.6238 31.7955C20.9116 31.7235 21.1472 31.5741 21.4278 31.4772C21.9178 31.3079 22.3729 31.0365 22.8521 30.8405C23.3164 30.6505 23.6712 30.3187 24.1019 30.0765C24.4369 29.888 24.7435 29.6404 25.038 29.395C25.347 29.1375 25.7295 28.9991 25.9789 28.6758C26.1243 28.4872 26.3017 28.3721 25.96 28.5673C25.0881 29.0655 24.2327 29.5968 23.4015 30.1614C22.8167 30.5586 22.1683 30.8733 21.4962 31.0928C20.9648 31.2663 20.4194 31.3309 19.8668 31.4017C19.6984 31.4233 18.4317 31.894 18.4143 31.8592" stroke="black" stroke-width="0.467313" stroke-linecap="round"/>
<path d="M14.2971 32.2837C14.2397 32.4368 13.0174 32.312 12.8964 32.2625C12.5069 32.1032 12.0725 31.9949 11.6655 31.8805C11.3219 31.7838 10.9352 31.7506 10.6186 31.5787C10.1113 31.3033 9.70129 31.0516 9.3641 30.5765C8.95094 29.9943 8.55328 29.4019 8.19451 28.7844C7.7883 28.0852 7.55908 27.2833 7.20885 26.5537C7.02177 26.1639 6.9634 25.7171 6.69952 25.3652" stroke="black" stroke-width="0.467313" stroke-linecap="round"/>
<path d="M12.4719 32.0716C12.1659 32.0716 11.8359 32.1093 11.5429 32.0079C11.2707 31.9137 11.0356 31.6586 10.8378 31.4608C10.0131 30.6362 9.23643 29.7018 8.55758 28.7514C8.069 28.0674 7.62165 27.3761 7.33847 26.5797C7.20224 26.1965 7.02628 25.8518 6.85979 25.4832C6.7602 25.2627 6.70099 25.0273 6.52966 24.856" stroke="black" stroke-width="0.467313" stroke-linecap="round"/>
<path d="M6.31738 24.8134C6.28082 24.3381 6.27494 23.8673 6.27494 23.3892C6.27494 22.6808 6.05053 21.9426 5.89058 21.2528C5.46267 19.4075 5.21438 17.5221 5.13836 15.6312C5.08064 14.1954 5.1233 12.7482 5.12893 11.3113C5.13353 10.1381 5.34115 8.98651 5.34115 7.8096C5.34115 7.20404 5.46849 6.61042 5.46849 6.01042C5.46849 5.81618 5.39625 5.78555 5.55338 5.62842" stroke="black" stroke-width="0.467313" stroke-linecap="round"/>
<path d="M6.99658 25.068C6.9837 24.6173 6.68901 24.1807 6.51082 23.7758C6.42116 23.572 6.34201 23.3646 6.2538 23.1603C6.23757 23.1227 6.1044 22.6715 6.07223 22.6675C6.03004 22.6622 6.137 23.0956 6.13825 23.1014C6.21099 23.436 6.2774 23.796 6.31747 24.1366C6.35049 24.4173 6.40014 24.6476 6.51082 24.9006C6.65401 25.2278 6.79798 25.6336 6.99658 25.9263C7.19418 26.2175 6.941 25.5595 6.91169 25.483C6.83648 25.2866 6.57198 24.733 6.72069 24.8817C6.94535 25.1064 7.10141 25.4948 7.25361 25.7707C7.42798 26.0867 7.48112 26.3755 7.58137 26.7139C7.7215 27.1868 7.02492 25.892 6.83152 25.4382C6.30378 24.2 6.13588 22.867 5.75625 21.5875C5.29234 20.024 4.59615 18.4504 4.53715 16.7983C4.51583 16.2015 4.37381 15.6501 4.41689 15.0416C4.4502 14.571 4.43771 14.0446 4.61968 13.6079" stroke="black" stroke-width="0.467313" stroke-linecap="round"/>
<path d="M4.66212 13.5655C4.66212 13.1489 4.66212 12.7323 4.66212 12.3158C4.66212 12.2526 4.6839 11.8635 4.70221 12.1106C4.74234 12.6523 4.77461 13.2016 4.7871 13.7447C4.81708 15.0489 4.74701 16.3575 4.74701 17.6638C4.74701 17.9352 4.71046 18.2393 4.77059 18.5056C4.81858 18.7181 4.94074 18.9202 5.0229 19.1211C5.23542 19.6405 5.14284 18.9104 5.10779 18.7391C4.9986 18.2052 4.91679 17.6663 4.91679 17.1214C4.91679 15.9569 4.85397 14.8116 4.78946 13.6504" stroke="black" stroke-width="0.467313" stroke-linecap="round"/>
<path d="M11.4531 11.1885C11.4507 11.205 11.033 10.8132 10.9697 10.7452C10.7219 10.479 10.4995 10.1743 10.267 9.89393C9.70955 9.22171 9.0442 8.60982 8.42537 7.99099C7.9064 7.47202 7.39315 6.93468 6.97517 6.33093C6.72841 5.97449 6.47146 5.51637 6.12628 5.24623C6.09288 5.22009 5.77873 4.94594 5.90227 5.1189C6.11235 5.41301 6.31714 5.70957 6.52479 6.00552C6.85086 6.47027 7.16333 6.94143 7.53875 7.36847C7.82589 7.69509 8.14585 8.01925 8.36406 8.39657C8.84597 9.22987 9.55254 9.89044 10.2316 10.5613C10.7237 11.0474 11.244 11.5188 11.7832 11.9525C11.8974 12.0443 12.0125 12.1252 12.1133 12.226C12.2082 12.3209 11.8061 12.0642 11.7667 12.0327C10.9539 11.3824 10.1922 10.6581 9.48177 9.89864C9.20154 9.59909 8.87997 9.33838 8.61401 9.02617C8.34643 8.71205 8.08943 8.40421 7.77927 8.13011C7.4217 7.81412 7.13085 7.47775 6.87378 7.07607C6.77051 6.91471 6.67708 6.75027 6.5578 6.59974C6.54633 6.58527 6.44872 6.4435 6.53658 6.53136C7.28532 7.28011 8.08644 7.96955 8.71776 8.82573C8.94634 9.13572 9.24892 9.36337 9.50063 9.65105C9.69905 9.87781 9.88183 10.1266 10.0949 10.3396C10.3886 10.6334 10.8462 10.7761 11.1748 11.0376C11.5767 11.3572 12.0031 11.6245 12.4293 11.9101C12.6284 12.0434 13.0438 12.2052 13.1509 12.4194" stroke="black" stroke-width="0.467313" stroke-linecap="round"/>
</svg>
