<svg width="36" height="37" viewBox="0 0 36 37" fill="none" xmlns="http://www.w3.org/2000/svg">
<rect x="-0.519772" y="0.519772" width="34.305" height="35.8643" rx="4.67795" transform="matrix(-1 0 0 1 34.3049 0)" fill="#F4FF95" stroke="black" stroke-width="1.03954"/>
<path d="M21.9737 15.4835C21.9737 13.7518 23.9279 12.2221 25.2029 11.7481C25.9368 11.4752 27.2597 11.274 27.9931 11.6409C28.9505 12.1198 29.5207 13.3484 29.7833 14.4622C30.2353 16.3796 28.8874 17.5525 27.4223 17.8647C26.8327 17.9903 25.4858 18.2148 25.4858 17.2101" stroke="black" stroke-width="0.544716" stroke-linecap="round"/>
<path d="M23.3355 16.7078C23.378 16.2796 23.9668 16.3001 23.9668 16.0472C23.9668 15.278 24.4574 14.589 24.9189 14.0878C25.0595 13.9351 26.1982 13.2894 26.3069 13.8359C26.3741 14.1739 25.8609 14.0984 25.8609 14.5413C25.8609 14.9775 26.0266 15.0955 26.4021 15.0955C27.0454 15.0955 25.9604 15.5958 25.7757 15.7505C25.4714 16.0055 24.0764 17.4997 23.8766 16.6071" stroke="black" stroke-width="0.544716" stroke-linecap="round"/>
<path d="M20.7144 13.7498C20.0554 13.7498 19.3448 13.738 18.7594 13.4128C18.1815 13.0917 17.1466 13.2047 16.6396 12.836C16.3361 12.6153 15.2457 12.8061 14.8494 12.8061C14.128 12.8061 13.9218 13.239 13.2989 13.585C11.9318 14.3446 10.4162 15.3489 9.25412 16.4464C8.66871 16.9993 7.23173 18.0875 7.23173 18.9406C7.23173 19.5035 7.36655 19.9231 7.36655 20.4912" stroke="black" stroke-width="0.544716" stroke-linecap="round"/>
<path d="M17.8828 13.2102C16.9019 13.1012 16.2254 12.08 15.7331 11.3826C15.3272 10.8076 14.9655 10.1269 14.8118 9.43508C14.7446 9.13285 14.7818 8.79951 14.7818 8.49129C14.7818 8.11304 14.8227 8.44734 14.6769 8.57369C13.6486 9.46492 12.2416 10.1927 11.5759 11.4575C11.2861 12.0082 11.1415 12.7219 11.1415 13.3301C11.1415 13.748 11.4112 14.0974 11.4112 13.4799" stroke="black" stroke-width="0.544716" stroke-linecap="round"/>
<path d="M7.9867 18.1465C8.75559 18.1465 8.98883 18.2861 9.3416 18.9916C9.67388 19.6562 7.87968 20.0384 7.74523 19.8368" stroke="black" stroke-width="0.544716" stroke-linecap="round"/>
<path d="M8.22827 20.9233L8.35579 23.1529" stroke="black" stroke-width="0.544716" stroke-linecap="round"/>
<path d="M6.53463 19.6123C6.53463 20.1279 6.32564 20.852 6.56173 21.3416C6.7985 21.8326 6.81857 22.452 7.26636 22.8806" stroke="black" stroke-width="0.544716" stroke-linecap="round"/>
<path d="M8.97338 22.8804C9.39344 22.8804 9.56289 23.2169 9.8923 23.3633C10.5 23.6334 11.2975 24.0853 11.9381 24.2017C12.4322 24.2916 13.1574 24.5321 13.5344 24.0609C13.6592 23.905 13.4539 23.5595 13.4539 23.6718C13.4539 23.8639 13.7006 24.176 13.8027 24.3292" stroke="black" stroke-width="0.544716" stroke-linecap="round"/>
<path d="M18.249 16.9389C17.8872 16.9389 17.4554 16.867 17.102 16.9456C16.8712 16.9969 16.6565 17.4233 17.0417 17.0596C17.5551 16.5747 18.5054 16.5767 19.1545 16.5767C19.7174 16.5767 20.3009 16.5756 20.6033 17.12C20.7941 17.4635 19.6537 17.0596 19.4563 17.0596C18.934 17.0596 18.4089 17.0447 17.8868 17.0596C17.4399 17.0724 17.2984 17.3289 16.988 17.5358C16.8629 17.6192 17.31 17.4788 17.4039 17.3614C17.6587 17.0429 20.0311 16.8103 20.06 17.3011C20.0782 17.611 20.1807 17.8827 20.1807 18.1999C20.1807 18.4177 20.1003 18.7228 20.2076 18.3608C20.2964 18.0611 20.3015 17.7911 20.3015 17.4822C20.3015 17.1442 20.5429 17.1307 20.5429 17.4889C20.5429 17.7898 20.1741 18.9712 19.6442 18.4413C19.1225 17.9197 20.0951 17.3079 20.06 17.9047C20.0261 18.4818 18.5283 17.6282 19.3624 17.3279C20.3556 16.9703 20.3575 18.1462 19.5771 18.1462C18.5777 18.1462 19.3601 17.1803 20.06 17.1803C20.7392 17.1803 19.7276 18.3013 19.1612 18.1395C18.9483 18.0787 19.1158 17.4982 19.2685 17.4218C19.3198 17.3962 20.2024 17.187 20.1606 17.3748C20.1142 17.5837 19.3126 17.9047 19.0941 17.9047C18.8496 17.9047 18.727 17.4363 18.9734 17.4218C19.61 17.3844 17.0568 18.1318 17.9136 17.8779C18.2108 17.7898 18.4789 17.605 18.7856 17.5492C19.0548 17.5003 19.0503 18.039 18.8996 18.1395C18.6334 18.317 17.8939 18.381 17.6453 18.1462C17.405 17.9192 17.5071 17.5803 17.8331 17.5492C18.0456 17.529 19.7914 17.6066 18.9197 18.1194C18.1592 18.5667 17.3662 17.8275 18.5844 17.784C18.8518 17.7744 19.1217 17.784 19.3893 17.784C19.9396 17.784 19.1487 17.9047 18.9734 17.9047C18.6938 17.9047 18.4076 17.8883 18.1283 17.9047C17.9115 17.9175 17.8962 18.2087 17.585 18.1395C17.4061 18.0997 17.3074 17.7063 17.4307 17.5694C17.5029 17.4891 18.0216 17.3011 17.8868 17.3011C17.4325 17.3011 16.7844 17.8633 17.4039 18.173C17.7453 18.3437 17.5226 18.4455 17.3368 18.2066C17.1151 17.9215 16.9953 17.7403 16.9276 17.3681C16.8755 17.0816 17.1752 16.9177 17.0417 17.0596C16.8629 17.2495 16.7434 17.4661 16.6862 17.7236C16.6315 17.9695 16.794 18.1307 17.0417 18.1462C17.1295 18.1517 16.6913 18.1225 16.5587 18.0523C16.3987 17.9676 16.3704 17.6235 16.5051 17.4889C16.8293 17.1646 16.5828 17.5487 16.5654 17.6096C16.4214 18.1137 17.1624 18.7562 17.1624 18.2669" stroke="black" stroke-width="0.544716" stroke-linecap="round"/>
<path d="M10.5347 24.0595C10.5347 24.4217 10.5347 24.7839 10.5347 25.1461C10.5347 25.8607 10.2039 25.5192 9.62246 25.5083C9.38778 25.5038 8.60293 25.669 8.60293 25.3205C8.60293 25.1005 8.60293 24.392 8.60293 24.4217C8.60293 25.2291 8.21611 25.4636 7.48949 25.24C7.13944 25.1323 6.79192 25.2681 6.79192 24.8442C6.79192 24.4629 6.91265 24.0876 6.91265 23.6973" stroke="black" stroke-width="0.544716" stroke-linecap="round"/>
<path d="M27.1834 19.7158C27.2853 20.735 28.0746 21.0163 28.7597 21.5872C29.0399 21.8207 29.4359 21.7583 29.7188 22.0098C29.9683 22.2315 30.483 22.3852 30.8054 22.4927" stroke="black" stroke-width="0.544716" stroke-linecap="round"/>
<path d="M7.50371 17.5428C7.50371 16.5393 7.64685 15.4378 7.42322 14.4573C7.26999 13.7855 6.85209 12.5687 6.17564 12.2305" stroke="black" stroke-width="0.544716" stroke-linecap="round"/>
<path d="M6.65869 18.8706C6.60731 17.6118 5.40588 16.4592 4.27084 16.0668C3.4384 15.7791 2.49013 15.2485 1.58787 15.2485" stroke="black" stroke-width="0.544716" stroke-linecap="round"/>
<path d="M6.72168 22.3458C5.64492 22.3458 4.44085 22.1882 3.70333 23.1306C3.38641 23.5356 3.30477 24.1932 2.97893 24.519" stroke="black" stroke-width="0.544716" stroke-linecap="round"/>
<path d="M11.3674 20.4404C12.0278 20.4404 12.7166 20.3892 13.3662 20.5276C14.4038 20.7487 15.351 21.4898 16.1699 22.1307C17.2401 22.9682 18.0228 24.0775 18.9736 25.0283" stroke="black" stroke-width="0.544716" stroke-linecap="round"/>
<path d="M10.16 21.7683C10.4972 21.7683 10.8609 21.7354 11.1929 21.7952C11.7128 21.8887 11.838 22.4824 12.0649 22.8818C12.5559 23.7459 12.9863 24.8141 13.2991 25.7525" stroke="black" stroke-width="0.544716" stroke-linecap="round"/>
<path d="M15.7298 17.7632C15.7298 17.5116 15.7267 17.3766 15.8726 17.1578C16.0357 16.9131 16.2093 16.6752 16.3723 16.4307" stroke="black" stroke-width="0.544716" stroke-linecap="round"/>
<path d="M20.0132 16.0265C20.2169 16.0265 20.4957 15.9648 20.6583 16.0979C20.896 16.2923 21.0499 16.6219 21.1554 16.9083C21.2925 17.2803 21.255 17.7461 21.2929 18.1391C21.3262 18.4848 21.3051 18.9401 21.0126 19.1676" stroke="black" stroke-width="0.544716" stroke-linecap="round"/>
<path d="M20.7372 13.8891C20.811 13.5449 21.2682 13.265 21.5429 13.0994C21.7302 12.9865 21.9129 12.8679 22.104 12.7617C22.3788 12.609 22.6157 12.3999 22.8924 12.2511C23.3144 12.0243 23.7664 11.8597 24.1887 11.6342C24.6439 11.3912 25.1092 11.1357 25.6073 10.9934C25.9806 10.8867 26.348 10.8525 26.7361 10.8764C27.1742 10.9033 27.5444 11.1504 27.9141 11.3603C28.1828 11.5129 28.7398 11.6053 28.8262 11.9507" stroke="black" stroke-width="0.544716" stroke-linecap="round"/>
<path d="M20.8247 14.002C20.8901 14.002 21.1901 13.9615 21.2364 14.0249C21.3123 14.1287 21.2825 14.3642 21.1869 14.4462C21.0857 14.5328 21.4841 14.5649 21.53 14.5929C21.6357 14.6575 21.4723 14.9452 21.4823 15.0256C21.4942 15.1207 21.9957 15.2386 22.0866 15.3058C22.2844 15.4521 22.5327 15.4765 22.7328 15.6184C22.9582 15.7784 23.1186 15.9731 23.2341 16.217C23.2579 16.2672 23.4472 16.3479 23.5352 16.4457C23.6456 16.5683 24.1934 17.282 23.9317 17.4274C23.7543 17.5259 23.4965 17.5017 23.3008 17.5017C23.0864 17.5017 23.1403 17.5017 23.3103 17.5017C23.4356 17.5017 23.9041 17.4504 23.9813 17.5856C24.0305 17.6718 24.6053 17.5703 24.7018 17.5703C24.7962 17.5703 24.8875 17.5625 24.9763 17.597C25.0158 17.6124 24.9038 17.4865 24.8943 17.4655C24.8383 17.3409 24.8706 17.2772 24.7361 17.2196C24.6208 17.1702 24.8998 17.4099 24.9763 17.5093C25.137 17.7181 25.3104 17.9465 25.3995 18.1975C25.406 18.2158 25.4313 18.3993 25.4014 18.3461C25.3174 18.1969 25.2808 18.0069 25.2851 17.8372C25.293 17.522 25.5534 17.4607 25.8188 17.5093C26.2444 17.5873 26.4151 18.433 26.465 18.7655C26.4848 18.8978 26.5242 19.1121 26.4802 19.2439C26.433 19.3856 26.116 18.9526 26.0895 18.9084C26.013 18.7809 25.8856 18.432 26.0914 18.6835C26.232 18.8553 26.2953 19.1162 26.383 19.3202C26.4507 19.4775 26.7198 19.8808 26.9511 19.7967C27.032 19.7673 27.0929 19.6675 27.1569 19.6137C27.2779 19.5121 27.4413 19.5191 27.5915 19.526C27.789 19.5352 28.0833 19.8106 27.8584 19.9873C27.6509 20.1504 28.0124 20.3432 28.1443 20.4639C28.3532 20.6549 28.5492 20.8921 28.7924 21.0357C28.9722 21.1418 29.3579 21.3314 29.4005 21.5656C29.4254 21.7029 29.5156 21.5207 29.593 21.4474C29.8334 21.2197 30.031 21.9555 30.1572 21.9621C30.3849 21.9741 30.6157 21.9093 30.8396 21.9297C31.0277 21.9468 31.0708 22.1895 31.1865 22.3052" stroke="black" stroke-width="0.544716" stroke-linecap="round"/>
<path d="M20.6118 13.6978C20.1623 13.6978 19.7033 13.7171 19.2694 13.5974C18.8406 13.4792 18.4312 13.3023 17.9854 13.2351C17.1073 13.1026 16.4489 12.5437 15.5308 12.5437C15.2462 12.5437 14.8884 12.4906 14.6261 12.5995C14.1512 12.7966 13.777 13.0983 13.3097 13.2992C12.9666 13.4466 12.5997 13.5661 12.2786 13.748C11.9296 13.9455 11.6218 14.1772 11.2507 14.3473C10.6344 14.6299 10.2676 15.1124 9.75588 15.4931C9.22507 15.888 8.7768 16.3537 8.22541 16.7308C7.96638 16.9079 7.6703 16.9988 7.4083 17.1489C6.93518 17.4201 8.2505 16.4875 8.61451 16.1119C8.94975 15.7661 9.34417 15.4512 9.71373 15.1335C9.76936 15.0856 10.003 14.7642 10.0931 14.7738C10.0962 14.7742 9.63688 15.3952 9.59375 15.4429C9.20144 15.8765 8.69716 16.3404 8.12165 16.597C7.92822 16.6832 7.49486 16.6509 7.35966 16.7865C7.03724 17.1099 6.54579 17.4057 6.54579 17.8681C6.54579 17.9538 6.56215 18.5091 6.61064 18.2278C6.69003 17.767 7.08938 17.6079 7.4083 17.2995C7.55745 17.1552 7.01535 17.506 6.88301 17.6619C6.82845 17.7261 6.49273 18.3922 6.48743 18.3922C6.45749 18.3922 6.43227 18.2611 6.42582 18.2417C6.40895 18.1909 6.25254 18.2124 6.20857 18.2138C6.01471 18.22 5.88445 18.3625 5.90701 18.5177C5.94687 18.7918 6.05239 19.0378 6.16642 19.2926C6.39104 19.7948 6.22687 20.3972 6.40312 20.9206C6.43701 21.0213 6.73475 21.6024 6.71764 21.4921C6.64764 21.0407 6.38959 20.5867 6.37069 20.1317C6.35931 19.8577 6.33085 19.5884 6.31233 19.3177C6.2986 19.1172 6.31853 19.7202 6.34475 19.9199C6.40343 20.3667 6.51832 20.7877 6.63009 21.2245C6.72756 21.6054 6.90173 21.9972 6.95759 22.3814C6.97803 22.5219 7.03049 22.8127 7.18781 22.8804" stroke="black" stroke-width="0.544716" stroke-linecap="round"/>
</svg>
