<svg width="36" height="37" viewBox="0 0 36 37" fill="none" xmlns="http://www.w3.org/2000/svg">
<rect x="-0.519772" y="0.519772" width="34.305" height="35.8643" rx="4.67795" transform="matrix(-1 0 0 1 34.3049 0.0390625)" fill="#F4FF95" stroke="black" stroke-width="1.03954"/>
<path d="M1.79688 21.8976C1.79688 21.0459 2.0837 20.548 2.51134 19.8053C3.26474 18.4967 4.16652 17.273 4.85886 15.9267C6.50181 12.7321 9.31933 10.2327 12.4203 8.50995C14.8426 7.16421 17.3627 6.12841 20.1688 6.12841C21.3568 6.12841 22.7664 5.92665 23.9197 6.28151C24.5077 6.46243 25.2787 6.57779 25.7994 6.8939C26.2575 7.17202 26.666 7.54946 27.1263 7.8125C27.8436 8.2224 28.0193 9.87913 28.1639 10.6023C28.8927 14.2461 28.8692 18.2892 26.684 21.5064C25.5732 23.1416 24.3765 24.6963 23.1967 26.2694C22.4306 27.2909 21.4547 28.1973 20.2538 28.634C19.3174 28.9745 18.4186 29.6527 17.413 29.7057C16.7051 29.7429 15.9946 30.3761 15.2696 30.4797C14.4677 30.5942 13.4414 31.2317 12.7435 31.6194C12.0692 31.994 11.1652 31.8684 10.5235 32.1893C9.07378 32.9141 7.82883 34.2677 8.68634 35.9827" stroke="black" stroke-width="1.03954" stroke-linecap="round"/>
<path d="M27.8625 10.2163C27.8365 10.6592 27.3253 11.28 27.0852 11.6572C26.7995 12.1063 26.4673 12.5799 26.0803 12.9465C25.0843 13.8901 23.8532 14.6765 23.0089 15.762C22.335 16.6285 21.3072 16.8586 20.5252 17.5537C20.3105 17.7445 19.7542 18.0301 20.2692 17.6295C20.6786 17.3111 20.9855 17.1695 21.4542 16.9564C21.8607 16.7717 23.0275 15.8219 23.0847 15.3354C23.1776 14.546 24.3513 13.8982 24.8764 13.3731C25.4726 12.7769 25.8732 12.3778 26.1941 11.5435C26.4321 10.9248 26.6713 10.9628 27.0947 10.6334C27.9174 9.99351 26.5285 11.1897 26.3268 11.4202C25.6541 12.1891 25.0842 13.0921 24.4498 13.885C23.8622 14.6196 23.0361 15.1659 22.5349 16.0179C22.3654 16.3061 21.9376 16.4554 21.6438 16.5393C21.3517 16.6228 21.1821 17.0281 20.9518 17.2124C20.7421 17.3801 20.7278 17.883 20.5252 17.8949C20.2647 17.9103 19.8762 17.7237 19.7099 17.5158C19.0308 16.6669 21.0095 16.6021 21.293 16.4445C21.597 16.2757 20.4407 16.3441 20.1839 16.3592C19.8938 16.3763 19.672 16.7998 19.672 17.0418C19.672 18.2508 21.1004 16.2742 21.293 16.1886C22.4811 15.6605 23.2054 14.7029 24.1085 13.7997" stroke="black" stroke-width="1.03954" stroke-linecap="round"/>
<path d="M24.719 8.1416V8.29109" stroke="black" stroke-width="1.03954" stroke-linecap="round"/>
<path d="M12.7595 8.06701C12.3415 8.06701 11.9235 8.06701 11.5054 8.06701C10.852 8.06701 10.277 7.84277 9.62017 7.84277C8.65707 7.84277 7.70138 7.88149 6.74659 7.91752C6.39289 7.93087 6.00849 7.96826 5.67522 8.08362C5.41474 8.17379 5.57931 8.32019 5.49251 8.51549C5.35649 8.82152 5.5663 9.24529 5.45098 9.62008C5.34466 9.96561 5.23529 10.3278 4.98589 10.6084C3.40548 12.3864 3.32846 15.2009 3.26672 17.4851" stroke="black" stroke-width="1.03954" stroke-linecap="round"/>
<path d="M8.34961 11.1313C8.06669 10.9191 7.63288 10.9818 7.30316 10.9818" stroke="black" stroke-width="1.03954" stroke-linecap="round"/>
<path d="M6.48096 12.3276C5.58426 12.3276 4.99838 12.434 4.23856 12.9256" stroke="black" stroke-width="1.03954" stroke-linecap="round"/>
<path d="M14.8799 15.4844C14.8799 16.9779 14.8799 18.4714 14.8799 19.9649C14.8799 20.6324 15.7146 21.0321 16.239 21.245C17.3529 21.6973 18.522 22.0794 19.6936 22.3498" stroke="black" stroke-width="1.03954" stroke-linecap="round"/>
<path d="M17.8849 13.7078C17.6823 13.7078 17.4797 13.7078 17.2771 13.7078C16.8173 13.7078 16.2941 13.7736 15.8466 13.651C14.3214 13.2334 14.8404 10.5722 15.4089 9.63913C16.2823 8.20563 18.2336 7.57716 19.7896 8.19242C20.4701 8.4615 21.1515 8.98994 21.5362 9.61887C21.7446 9.95962 21.8522 10.3331 21.8421 10.7333C21.8314 11.16 21.6541 11.4562 21.5321 11.8477" stroke="black" stroke-width="1.03954" stroke-linecap="round"/>
<path d="M17.5931 10.9724C17.7151 10.9724 17.8421 10.9654 17.9558 10.9157C18.1018 10.8518 18.2327 10.863 18.3955 10.863C18.4813 10.863 18.6143 10.8328 18.6143 10.9542C18.6143 11.101 18.0311 11.0841 17.9295 11.0818C17.744 11.0777 17.7488 10.9416 17.9031 10.8812C18.099 10.8046 18.2408 10.79 18.4522 10.79C18.5791 10.79 18.683 10.8633 18.592 11.0048C18.5266 11.1065 18.0964 11.1325 18.0146 11.0433C17.7291 10.7319 18.295 10.4618 18.5414 10.4618C18.9289 10.4618 18.8367 11.0564 18.5556 11.171C18.1715 11.3274 17.814 11.3153 17.739 10.8468C17.7253 10.7613 17.6393 10.4979 17.739 10.4334C17.9351 10.3066 18.2218 10.3363 18.432 10.3889" stroke="black" stroke-width="1.03954" stroke-linecap="round"/>
<path d="M20.9693 29.1548C21.858 30.0435 23.222 30.2409 24.4448 30.2409C25.0758 30.2409 25.6187 30.1424 26.1283 29.7461C26.5653 29.4062 26.4984 29.0709 26.7498 28.6358C26.792 28.5628 27.7693 26.746 27.9143 27.6885C27.9591 27.9796 27.9056 29.0651 28.2462 29.0462C28.46 29.0343 29.3323 28.7002 29.3323 29.1005C29.3323 29.4369 28.9304 30.1178 29.3866 29.915C31.1302 29.1401 30.8164 31.1813 29.652 31.8217C27.9447 32.7607 26.2886 33.825 24.2819 33.825C23.1318 33.825 22.141 33.7855 21.0779 33.2819C20.4581 32.9883 19.6068 32.6539 19.1773 32.0812C19.0257 31.8791 18.6462 31.1346 18.4713 31.0253C18.1908 30.85 17.8196 30.2515 17.8196 29.915" stroke="black" stroke-width="1.03954" stroke-linecap="round"/>
<path d="M4.78649 35.7801C4.81481 35.7801 4.38938 35.0219 4.29775 34.8569C4.0638 34.4358 4.08416 34.0472 3.59179 33.801C3.34208 33.6762 1.53018 32.9543 1.63682 32.8477" stroke="black" stroke-width="1.03954" stroke-linecap="round"/>
<path d="M15.4861 23.1627C15.4861 23.9377 14.891 24.2772 14.1512 24.4622C12.5072 24.8732 11.2911 24.841 10.2764 23.3753C9.582 22.3723 8.03835 21.8497 6.87417 21.6978C6.51212 21.6506 6.0803 21.778 6.46661 21.3434C7.45559 20.2308 8.50137 19.2342 9.63849 18.272" stroke="black" stroke-width="1.03954" stroke-linecap="round"/>
<path d="M17.6125 27.3091C16.9289 27.3091 16.3204 27.2305 15.9351 26.5649C15.7214 26.1959 15.5342 25.6954 15.8051 25.2891" stroke="black" stroke-width="1.03954" stroke-linecap="round"/>
<path d="M13.5723 27.3095C12.57 27.3095 11.4459 27.2403 11.4459 26.0337" stroke="black" stroke-width="1.03954" stroke-linecap="round"/>
<path d="M11.3396 30.0736C10.6802 30.0736 10.1355 29.9926 9.80387 29.3294C9.65557 29.0328 9.49628 28.5946 9.53807 28.2603C9.5695 28.0088 9.9541 27.2047 10.1701 27.0967" stroke="black" stroke-width="1.03954" stroke-linecap="round"/>
<path d="M10.1702 27.0965C9.29073 27.0965 8.65308 26.7664 8.28003 25.927C8.19721 25.7407 8.18942 25.0923 8.28003 24.9111C8.3106 24.8499 8.52817 24.7575 8.50449 24.7575C8.32608 24.7575 8.19015 24.8573 8.02014 24.8638C7.61753 24.8793 6.19371 25.0863 6.13001 24.5449C6.08086 24.1271 5.83547 23.0973 6.34265 22.8438" stroke="black" stroke-width="1.03954" stroke-linecap="round"/>
<path d="M11.8713 18.0593C11.1073 18.0593 10.5991 17.9136 10.1702 17.2324C9.99735 16.9578 9.95758 16.7362 9.95758 16.4114C9.95758 16.2976 9.9309 16.1454 9.98121 16.0392C10.0278 15.9408 10.2293 15.9355 10.2293 15.8266C10.2293 15.5896 9.76336 15.9329 9.52639 15.9329C9.05117 15.9329 8.75085 15.9696 8.4691 15.5313C8.12024 14.9886 8.51196 14.3699 9.0007 14.1255" stroke="black" stroke-width="1.03954" stroke-linecap="round"/>
<path d="M7.19312 19.2288C7.19312 18.9448 6.87946 18.0035 7.19312 17.8467" stroke="black" stroke-width="1.03954" stroke-linecap="round"/>
<path d="M8.89429 30.0735C8.85262 30.4069 6.24582 30.2381 6.79151 29.0103C6.82166 28.9425 7.03081 28.7229 6.91555 28.6972C6.57413 28.6214 6.19401 28.7599 5.85236 28.6795C5.27714 28.5442 4.74781 28.1385 4.74781 27.5218C4.74781 27.1513 5.24513 26.9902 4.79506 26.9902C4.06236 26.9902 3.25933 26.49 3.25933 25.6907C3.25933 25.5144 3.23763 25.1992 3.4129 25.0824C3.48545 25.034 3.2376 25.074 3.15301 25.0528C2.93212 24.9976 2.6988 24.8938 2.521 24.7516C2.1076 24.4209 1.98522 23.9903 2.24338 23.5053C2.42159 23.1705 2.67862 22.5105 3.04669 22.4185" stroke="black" stroke-width="1.03954" stroke-linecap="round"/>
<path d="M5.38574 33.3694C4.62257 33.3694 4.38894 33.3099 3.89726 32.7314C3.55832 32.3327 3.5783 31.6806 3.5783 31.1839C3.5783 30.6086 3.77731 30.941 4.00358 30.6582C4.10065 30.5369 3.50689 30.7016 3.36566 30.7173C2.86954 30.7724 2.38435 30.8681 1.87718 30.8118C1.03637 30.7183 0.709812 29.1144 1.23926 28.585" stroke="black" stroke-width="1.03954" stroke-linecap="round"/>
</svg>
