<svg width="36" height="38" viewBox="0 0 36 38" fill="none" xmlns="http://www.w3.org/2000/svg">
<rect x="-0.519772" y="0.519772" width="34.305" height="35.8643" rx="4.67795" transform="matrix(-1 0 0 1 34.3049 0.807617)" fill="#F4FF95" stroke="black" stroke-width="1.03954"/>
<path d="M16.1106 11.8015C16.3865 11.7454 16.6623 11.6893 16.9381 11.6332C17.4821 11.5226 17.8299 11.258 18.2833 10.9535C18.7726 10.6249 19.2292 10.2469 19.7278 9.92976C20.7749 9.26386 22.1114 8.95256 23.335 8.84152C25.6838 8.62838 28.2042 10.3828 28.7555 12.7183C28.8949 13.3091 28.9964 13.8912 28.8685 14.492C28.693 15.3168 28.3735 16.1177 28.0247 16.8794C27.1383 18.8155 25.7767 20.6044 24.3469 22.1564C22.934 23.6901 21.4278 25.1061 19.8136 26.4199C18.7127 27.3159 17.6352 28.24 16.572 29.1817C15.8503 29.8209 15.165 30.5197 14.3945 31.0999C13.7217 31.6066 12.9657 32.0955 12.19 32.4247C12.0225 32.4958 11.8318 32.654 11.6393 32.6498C11.2841 32.6421 10.9876 31.5849 10.9118 31.3711C10.5603 30.3794 10.3543 29.3379 10.1426 28.3093C9.93795 27.3146 9.73849 26.3239 9.63436 25.3127C9.33626 22.4179 9.00917 19.5393 8.61468 16.6571C8.47533 15.639 8.32417 14.6251 8.29795 13.5958C8.26698 12.3802 8.4466 11.1116 8.69946 9.92834C8.91215 8.93305 9.27746 7.92918 9.76501 7.04095C10.191 6.2648 10.7198 5.66941 11.5935 5.41988C12.2942 5.21976 12.991 5.10451 13.6878 5.37958C14.2722 5.61028 14.7966 5.92538 15.2889 6.31868C16.0052 6.89099 16.7009 7.55036 17.2223 8.30833C17.4802 8.68311 17.7104 9.03408 17.9067 9.44926C17.9945 9.63506 18.261 9.88768 18.4681 9.92373C18.6771 9.9601 18.8618 9.91639 19.0687 9.90699C19.4333 9.89044 19.7788 9.92383 20.0947 9.69579" stroke="black" stroke-width="1.03954" stroke-linecap="round"/>
<path d="M21.0308 15.5437C20.5818 15.5437 21.9288 15.5366 22.3777 15.5437C23.0463 15.5543 23.7848 15.7442 24.2412 16.2685C24.499 16.5647 24.7183 16.8914 24.88 17.2489C24.9331 17.3664 24.9665 17.4849 25.005 17.6072C25.0085 17.6183 25.0371 17.7412 25.0425 17.7391C25.1327 17.703 24.5537 16.8007 24.5189 16.7546C24.24 16.3843 23.8489 16.164 23.4553 15.9436C22.867 15.6141 22.0444 15.5687 21.3821 15.5687C21.1144 15.5687 20.8568 15.6249 20.61 15.7298C20.5621 15.7501 20.3241 15.8185 20.3559 15.8742C20.4068 15.9633 20.4134 16.076 20.4364 16.1741C20.4873 16.3908 20.5602 16.5997 20.6433 16.8059C20.8325 17.2752 21.1249 17.5642 21.5196 17.8738C22.232 18.4327 22.9829 18.8165 23.8941 18.8986C24.2444 18.9301 24.6698 18.8283 24.93 18.5681" stroke="black" stroke-width="1.03954" stroke-linecap="round"/>
<path d="M23.2054 16.8186C23.2054 17.3136 23.2844 17.9655 22.7916 18.2641C22.693 18.3239 22.4288 18.3679 22.3445 18.2614C22.1558 18.0231 22.2121 17.5813 22.3112 17.3241C22.397 17.1013 22.5139 16.8697 22.7555 16.7936C22.8585 16.7612 23.0836 16.7294 23.1804 16.7867C23.342 16.8822 23.3456 17.2648 23.2887 17.4185C23.2168 17.613 22.9679 17.6758 22.7833 17.667C22.5319 17.6551 22.4781 17.3518 22.4847 17.1463C22.4928 16.8949 22.6758 16.5859 22.9305 16.5187C23.0409 16.4895 23.2179 16.4658 23.3304 16.5048C23.5217 16.571 23.4804 16.7973 23.4804 16.9561C23.4804 17.4324 23.1359 17.8517 22.6555 17.9128C22.4411 17.9401 22.3881 17.7009 22.382 17.5421C22.3722 17.2888 22.439 17.0974 22.5306 16.8686" stroke="black" stroke-width="1.03954" stroke-linecap="round"/>
<path d="M16.7567 15.4941C16.7567 14.6217 16.8305 13.7838 16.3095 13.0279C15.9701 12.5355 15.5237 12.0224 14.9709 11.7699C14.4874 11.549 13.9003 11.4507 13.3684 11.4449C13.2463 11.4436 13.124 11.4449 13.0019 11.4449C12.7004 11.4449 12.5177 11.8172 12.3825 12.0393C12.1946 12.348 12.1306 12.6439 12.1326 13.0057C12.1367 13.7641 12.3495 14.5517 12.7227 15.2136C13.2467 16.1429 14.3795 16.6387 15.393 16.755C15.7072 16.791 16.0873 16.7409 16.2943 16.4925C16.4258 16.3347 16.3884 16.1237 16.4456 15.944C16.4952 15.7881 16.5006 15.6422 16.5081 15.4802C16.5173 15.2831 16.5567 15.0929 16.5567 14.8942" stroke="black" stroke-width="1.03954" stroke-linecap="round"/>
<path d="M16.1067 13.8943C15.8852 14.0651 15.7069 14.2817 15.4679 14.4317C15.2283 14.5822 14.9665 14.6686 14.6903 14.7247C14.3091 14.8021 13.7606 14.7769 13.6572 14.2998C13.4419 13.3071 14.9014 12.8993 15.6262 12.8945C15.876 12.8929 16.2276 12.8694 16.2539 13.1972C16.2898 13.6466 16.0413 13.9975 15.7206 14.2901C15.4214 14.563 15.0324 14.6821 14.632 14.7136C14.4377 14.7289 14.1333 14.7601 14.0724 14.5164C13.9982 14.22 14.3657 13.8637 14.5681 13.6999C14.8105 13.5037 15.0665 13.3616 15.3818 13.3458C15.4433 13.3427 15.7067 13.3056 15.7067 13.4139C15.7067 13.5664 15.3901 13.6671 15.2832 13.718C15.0914 13.8093 14.8941 13.8723 14.6986 13.9499C14.6265 13.9785 14.5339 14.0443 14.457 14.0443" stroke="black" stroke-width="1.03954" stroke-linecap="round"/>
<path d="M14.4322 19.693C14.67 19.5483 14.9 19.4144 15.1654 19.3223C15.6067 19.1691 16.0727 19.17 16.5346 19.1681C16.977 19.1664 17.4008 19.1747 17.808 19.3737C18.21 19.5701 18.589 19.9261 18.8272 20.304C18.8691 20.3706 19.1331 20.7161 19.0647 20.8095C18.7736 21.2064 18.5538 21.6166 18.1176 21.8898C17.7955 22.0916 17.3824 22.1484 17.0109 22.1786C16.5806 22.2137 16.1383 22.2395 15.707 22.2064C15.0731 22.1578 14.4745 21.9343 14.0337 21.4677C13.8027 21.223 13.7809 20.8398 13.8101 20.5179C13.8305 20.2941 13.9888 20.1236 14.0573 19.918" stroke="black" stroke-width="1.03954" stroke-linecap="round"/>
<path d="M16.3567 19.6684C16.5551 19.6684 16.5066 20.3606 16.5066 20.471C16.5066 20.7253 16.5373 21.2213 16.2261 21.343C16.0334 21.4184 15.9197 21.2488 15.8456 21.0931C15.6763 20.7369 15.5676 20.3103 15.611 19.9128C15.6575 19.4864 16.3695 19.4337 16.6399 19.6489C16.8128 19.7865 16.9035 20.0434 16.9315 20.2544C16.9641 20.4995 16.995 20.805 16.9413 21.05C16.9053 21.2137 16.7318 21.2554 16.5816 21.2347C16.2327 21.1866 16.0635 20.7396 16.0123 20.4432C15.9674 20.1833 15.9412 19.6434 16.3317 19.6434C16.6529 19.6434 16.671 20.086 16.6816 20.3182" stroke="black" stroke-width="1.03954" stroke-linecap="round"/>
<path d="M10.2578 19.4434C10.426 19.4434 10.6097 19.4218 10.7716 19.474C11.0728 19.571 11.3292 19.9466 11.5048 20.1905C11.9623 20.826 12.0988 21.5538 12.0824 22.3289C12.0734 22.7565 11.85 23.1209 11.6603 23.4898C11.6185 23.5712 11.5098 23.8549 11.5339 23.6259C11.5426 23.5441 11.5524 23.4635 11.5589 23.3815C11.5613 23.3525 11.5845 23.2272 11.5825 23.3287C11.5772 23.6012 11.4307 23.9336 11.2715 24.1508C11.1833 24.2711 11.1107 24.1724 11.0021 24.0855C10.6867 23.8332 10.4603 23.5215 10.2023 23.2177C9.84253 22.7941 9.47967 22.3995 9.37049 21.8415C9.27073 21.3317 9.25293 20.7733 9.45798 20.2877C9.50989 20.1647 9.57959 20.0368 9.64544 19.9197C9.68305 19.8528 9.75792 19.7708 9.75792 19.6934" stroke="black" stroke-width="1.03954" stroke-linecap="round"/>
<path d="M11.6077 21.4428C11.4847 21.4428 11.3555 21.5976 11.2591 21.665C11.1645 21.7313 10.9685 21.6928 10.8578 21.6928C10.6456 21.6928 10.4518 21.5754 10.5134 21.3234C10.5689 21.0966 11.122 20.8116 11.3452 20.9318C11.5101 21.0206 11.4827 21.1767 11.4827 21.3373C11.4827 21.5525 11.3121 21.8716 11.0814 21.9177C10.9048 21.953 10.6249 22.0568 10.5384 21.8233C10.3394 21.286 11.0916 20.7848 11.5577 21.0179" stroke="black" stroke-width="1.03954" stroke-linecap="round"/>
<path d="M14.4569 26.6167C14.4569 26.3687 14.6246 26.1661 14.7943 25.9919C15.0999 25.6782 15.6536 25.5728 16.0733 25.5475C16.7345 25.5077 17.4204 25.5762 17.9756 25.9669C18.4265 26.2842 17.9876 26.9836 17.8021 27.3083C17.2702 28.2391 16.0169 28.8564 15.0846 28.1053C14.7191 27.811 14.5977 27.3389 14.4569 26.9167" stroke="black" stroke-width="1.03954" stroke-linecap="round"/>
<path d="M16.1818 26.2168C16.2522 26.3664 16.2068 26.6063 16.2068 26.7653C16.2068 26.7994 16.2241 27.267 16.1318 27.1055C16.0267 26.9215 15.9591 26.7521 15.9124 26.5417C15.8897 26.4398 15.8707 26.164 15.9818 26.3806C16.0875 26.5867 16.1434 26.8294 16.2568 27.0277C16.2974 27.0988 16.4461 27.0772 16.4942 27.0291C16.6086 26.9147 16.7935 26.179 16.5317 26.0918" stroke="black" stroke-width="1.03954" stroke-linecap="round"/>
<path d="M25.5049 11.5449C25.4943 11.6404 25.3595 11.7641 25.3022 11.8324C25.1761 11.9827 24.9791 12.2096 24.8009 12.2934C24.5597 12.4069 24.3022 12.4672 24.04 12.5072C23.7831 12.5464 23.4512 12.6094 23.2179 12.4711C22.8654 12.2622 22.6207 11.9314 22.3611 11.6199C22.1988 11.4251 21.9908 11.0944 22.1001 10.8395C22.1894 10.6311 22.28 10.3985 22.4431 10.2355C22.6451 10.0334 22.9138 9.93509 23.179 9.84667C23.7848 9.64475 24.4878 9.65498 25.0648 9.93277C25.5478 10.1654 25.5299 10.7233 25.5299 11.17" stroke="black" stroke-width="1.03954" stroke-linecap="round"/>
<path d="M24.2302 10.4448C24.2302 10.6422 24.287 10.9402 24.1858 11.1142C24.0996 11.2624 23.943 11.2783 23.7998 11.1891C23.4341 10.9616 23.5554 10.418 23.5554 10.0449" stroke="black" stroke-width="1.03954" stroke-linecap="round"/>
<path d="M17.3783 10.2744C17.4356 10.2744 17.7921 10.2744 17.6558 10.2744C17.5555 10.2744 17.2647 10.2614 17.2647 10.1041C17.2647 10.0398 17.4828 10.0698 17.5221 10.0751C17.7154 10.1009 17.7045 10.3169 17.5599 10.4056C17.472 10.4597 17.2339 10.5134 17.2092 10.3653C17.1854 10.2223 17.7923 10.2709 17.8855 10.2757C17.9816 10.2806 18.0369 10.2979 18.0369 10.4006C18.0369 10.6636 17.41 10.6111 17.2672 10.5659C16.8765 10.442 16.5523 10.0759 16.4168 9.69405C16.3641 9.54535 16.358 9.38369 16.3285 9.22974C16.2859 9.00731 16.222 8.78997 16.1342 8.58123C16.0836 8.46101 15.8662 8.00389 16.1443 8.30618C16.5525 8.7498 16.7914 9.29902 17.0553 9.83283C17.0587 9.83972 17.1234 9.98593 17.136 9.98171C17.1426 9.97953 16.8633 9.44753 16.8509 9.42404C16.7086 9.15457 16.5495 8.88949 16.4269 8.61025C16.367 8.47376 16.4485 8.50615 16.5354 8.5888C16.8569 8.89444 17.0615 9.3539 17.2357 9.75209C17.4325 10.202 17.6026 10.6747 17.7227 11.1513C17.7249 11.16 17.8054 11.4999 17.777 11.4869C17.7044 11.4539 17.6343 11.3465 17.5902 11.2888C17.4642 11.1241 17.3512 10.9493 17.2445 10.7715C16.9115 10.2166 16.6605 9.6144 16.4017 9.02282C16.39 8.99618 16.164 8.63025 16.1569 8.64431C16.1391 8.68006 16.1558 8.78808 16.1582 8.81212C16.1796 9.02367 16.2279 9.23126 16.2705 9.43918C16.3835 9.99126 16.4736 10.548 16.5884 11.0996C16.6159 11.2316 16.6419 11.3639 16.6692 11.4958C16.693 11.6107 16.4406 11.4328 16.3386 11.3746C15.912 11.1313 15.5015 10.854 15.0971 10.576C14.9018 10.4417 14.7074 10.3051 14.5192 10.1609C14.5015 10.1473 14.369 10.0607 14.3577 10.0196C14.3461 9.97696 14.4451 10.039 14.4839 10.0599C14.636 10.142 14.7799 10.2424 14.923 10.3388C15.2746 10.5756 15.6214 10.8223 15.9614 11.0756C16.0729 11.1587 16.2893 11.2756 16.3639 11.3999C16.4051 11.4686 16.2183 11.3327 16.1468 11.2964C15.8903 11.1659 15.632 11.0392 15.3734 10.9128C14.9919 10.7264 14.5997 10.5511 14.2328 10.3363C14.2102 10.323 14.0989 10.2716 14.0827 10.2391C14.0485 10.1708 14.2274 10.2888 14.2972 10.3199C14.6777 10.4893 15.1076 10.7099 15.4327 10.9785C15.573 11.0944 15.0768 10.9005 14.9028 10.8472C14.5933 10.7525 14.2957 10.6436 13.9944 10.5268C13.8439 10.4684 14.0051 10.5014 14.0726 10.5116C14.2181 10.5336 14.3664 10.5796 14.5016 10.6378C14.5082 10.6407 14.6476 10.6964 14.5899 10.7009C14.1086 10.7379 13.5807 10.63 13.1112 10.5394C12.8724 10.4933 12.6358 10.4295 12.4072 10.3463C12.257 10.2917 12.3532 10.3 12.4463 10.3363C12.6243 10.4057 12.7984 10.4855 12.9762 10.5558C13.012 10.57 13.1377 10.6037 13.1503 10.6479C13.1554 10.6657 13.1146 10.6614 13.096 10.6605C12.9777 10.6551 12.8628 10.6261 12.7491 10.5949C12.3235 10.478 11.8981 10.3442 11.4823 10.1962C11.2934 10.1289 11.0958 10.0616 10.9158 9.97162C10.8331 9.93028 11.0865 10.0431 11.1694 10.0839C11.4041 10.1994 11.637 10.3254 11.8772 10.4284C12.0544 10.5043 11.521 10.2794 11.3524 10.1861C11.0323 10.009 10.6988 9.82543 10.444 9.55778C10.2587 9.36323 10.1886 9.17671 10.4869 9.0632C10.9572 8.8842 11.3722 9.25304 11.4584 9.70162C11.478 9.80381 11.5043 9.9822 11.418 10.0637C11.2033 10.2665 10.902 10.0113 10.7808 9.8404C10.466 9.39652 10.502 8.75336 10.502 8.23426C10.502 8.08355 10.4809 7.74434 10.5752 7.60972C10.6017 7.57176 10.5864 7.70232 10.5827 7.74851C10.5693 7.91838 10.5312 8.08098 10.4793 8.24309C10.3649 8.60035 10.2144 8.96949 10.0162 9.28904C9.98262 9.34325 9.86114 9.54027 9.81815 9.38367C9.73975 9.09805 9.78979 8.73012 9.84086 8.44496C9.87952 8.22914 9.92303 8.00329 9.99731 7.79645C10.0026 7.78186 10.1034 7.58449 10.1058 7.5971C10.1582 7.86672 9.94993 8.24374 9.84339 8.47272C9.70447 8.77126 9.53341 9.05184 9.37656 9.34077C9.36839 9.35582 9.36024 9.37088 9.35259 9.38619C9.34045 9.41045 9.37982 9.33927 9.39296 9.31554C9.47809 9.16182 9.55735 9.00562 9.63142 8.84618C9.86093 8.35222 10.0485 7.84541 10.2421 7.33719C10.2784 7.24173 10.3145 7.14684 10.3455 7.04952C10.3539 7.02332 10.3642 6.95024 10.3783 6.97382C10.3976 7.0059 10.3834 7.14586 10.3834 7.16434C10.3834 7.37782 10.3805 7.59079 10.3683 7.80402C10.3489 8.14226 10.3131 8.47862 10.2711 8.81464C10.2704 8.81996 10.2181 9.17099 10.2686 9.02913C10.5593 8.21234 10.7621 7.36724 11.0584 6.55241C11.1408 6.32576 11.107 6.70364 11.1063 6.75807C11.0987 7.39247 11.0172 8.02109 10.8956 8.64305C10.8548 8.85213 10.806 9.05924 10.7619 9.26759C10.7446 9.34941 10.7384 9.45129 10.7026 9.52876C10.6866 9.56352 10.6775 9.45473 10.6786 9.41647C10.6863 9.16673 10.7311 8.91837 10.7758 8.67333C10.8576 8.22498 10.9607 7.78259 11.0773 7.34224C11.1174 7.19113 11.1455 7.03013 11.2186 6.89055C11.2373 6.85488 11.247 6.87986 11.2514 6.91074C11.2846 7.13898 11.273 7.38023 11.2641 7.60972C11.2529 7.89502 11.223 8.18307 11.1505 8.4601C11.1034 8.64025 11.0853 8.50421 11.0874 8.39702C11.0958 7.97528 11.1659 7.53648 11.3423 7.15046C11.4455 6.92465 11.6121 6.6597 11.9 6.71644C12.2585 6.78711 12.3995 7.13126 12.503 7.44191C12.6629 7.92151 12.7349 8.41846 12.7201 8.92315C12.7149 9.09848 12.7182 9.33385 12.5485 9.44045C12.3891 9.54053 12.2288 9.45117 12.1157 9.32689C11.763 8.93937 11.4316 8.14916 11.8293 7.68164C11.9356 7.55664 12.0869 7.44576 12.2558 7.43939C12.4615 7.43162 12.4692 7.60133 12.4816 7.77248C12.5033 8.07183 12.4986 8.38294 12.4097 8.67207C12.3682 8.80681 12.2972 8.98566 12.1548 9.04301C11.7212 9.21768 11.8064 7.72122 11.905 7.51888C12.0278 7.26698 12.2699 6.94318 12.5863 6.96373C12.8781 6.98268 13.1126 7.27058 13.2525 7.49869C13.4176 7.76794 13.5202 8.08345 13.5528 8.39702C13.5654 8.51791 13.6056 8.76417 13.4291 8.80076C13.1166 8.86558 12.7854 8.35247 12.6784 8.12954C12.5439 7.84924 12.4027 7.32303 12.5737 7.02934C12.7484 6.72924 13.1604 6.88928 13.3837 7.02681C13.8405 7.30812 14.1143 7.86694 14.3149 8.34529C14.4347 8.6312 14.5067 8.94717 14.5155 9.2575C14.5171 9.31395 14.5584 9.5335 14.441 9.44171C14.2756 9.31239 14.1466 9.10696 14.0322 8.93703C13.7938 8.58274 13.5801 8.2121 13.3837 7.83304C13.2643 7.60246 13.1446 7.36685 13.0834 7.11261C13.0585 7.00907 12.9726 6.73991 13.0721 6.64578C13.144 6.57771 13.2988 6.64999 13.3522 6.67228C13.6729 6.80608 13.954 7.04103 14.2063 7.27411C14.9564 7.96682 15.5792 8.80303 16.1342 9.6562C16.3222 9.94516 16.5114 10.2414 16.6768 10.5444C16.7318 10.6453 16.7281 10.6645 16.6339 10.5848C16.1059 10.1384 15.6237 9.6366 15.2157 9.07834C15.1936 9.04812 15.0374 8.81909 15.0668 8.85502C15.2502 9.07913 15.4127 9.32285 15.5374 9.58428C15.6203 9.75806 15.6953 9.93629 15.7658 10.1155C15.7925 10.1833 15.8493 10.3159 15.7305 10.2164C15.3107 9.86468 14.9261 9.44438 14.5697 9.03039C14.3477 8.77245 14.0379 8.46371 13.9187 8.13206C13.8706 7.99822 14.2883 8.15662 14.3098 8.16487C14.6102 8.28029 14.9069 8.41911 15.193 8.56609C15.2227 8.58137 15.4832 8.76014 15.5059 8.67207C15.5698 8.4236 15.4867 8.09965 15.4201 7.86206C15.3623 7.65583 15.2912 7.4504 15.1892 7.26149C15.1543 7.19679 15.0583 7.10274 15.1917 7.15551C15.3819 7.23069 15.567 7.33699 15.7418 7.44191C15.8278 7.49351 15.9413 7.54389 16.0194 7.60467C16.333 7.84858 15.3661 7.1519 15.0504 6.91074C14.7785 6.70305 14.4925 6.539 14.1698 6.42372C13.9413 6.34213 13.714 6.25961 13.4872 6.1739C13.3858 6.13561 13.2362 6.16381 13.1314 6.16381C12.9096 6.16381 12.6948 6.20923 12.4728 6.20923C12.3365 6.20923 12.2002 6.20923 12.064 6.20923C11.7467 6.20923 11.4272 6.28297 11.1556 6.44895C11.0422 6.51824 10.9592 6.66111 10.883 6.7669C10.7282 6.9819 10.7468 7.27424 10.8603 7.50374C11.0782 7.94409 11.3897 8.43005 11.8343 8.6645C12.195 8.85468 12.6153 8.88275 12.9774 9.07077C13.2466 9.21053 13.4988 9.35057 13.7446 9.53003C13.7823 9.55756 14.0825 9.79479 13.9111 9.79751C13.3516 9.80639 12.5969 9.64801 12.2583 10.2202C12.0264 10.612 11.8958 11.1105 11.7801 11.5475C11.661 11.9972 11.5343 12.4423 11.4079 12.8899C11.3653 13.0408 11.3005 13.2296 11.2918 13.3858C11.29 13.4192 11.3278 13.3287 11.3398 13.2975C11.4872 12.9133 11.7171 12.589 11.9731 12.2679C12.3017 11.856 12.6779 11.5203 13.1364 11.2686C13.3152 11.1705 13.4497 11.0282 13.6033 10.8977C13.6464 10.861 13.688 10.8349 13.742 10.8195C13.7976 10.8036 13.5575 10.7859 13.5503 10.7854C12.9019 10.7449 12.2234 10.8507 11.7599 11.3507C11.3403 11.8032 11.171 12.4839 11.0117 13.0678C11.0103 13.073 10.9773 13.2446 10.9385 13.1953C10.8996 13.1457 10.8969 13.0384 10.8931 12.9846C10.8756 12.7368 10.8797 12.4842 10.8893 12.2364C10.9163 11.5403 11.0882 10.8728 11.2716 10.2038C11.3525 9.90882 11.4263 9.55626 11.5871 9.2903C11.6101 9.25225 11.6568 9.18712 11.7006 9.16666C11.7097 9.16243 11.6984 9.18727 11.693 9.19568C11.6282 9.29658 11.5744 9.40346 11.524 9.51236C10.9636 10.7235 10.6279 12.0159 10.184 13.2697C10.1513 13.3622 10.1175 13.5734 10.0427 13.6482C10.042 13.6489 10.029 13.1098 10.0301 13.088C10.0661 12.3679 10.1908 11.6563 10.29 10.9431C10.3718 10.3557 10.434 9.763 10.5323 9.17801C10.5348 9.16297 10.5975 8.73768 10.6219 8.73768C10.6537 8.73768 10.6233 9.28862 10.6231 9.2903C10.5628 10.0438 10.3888 10.796 10.2585 11.5399C10.1607 12.0983 10.0637 12.6577 9.95568 13.2142C9.94849 13.2512 9.93425 13.4841 9.8825 13.5056C9.79278 13.543 9.74144 12.6639 9.74119 12.6578C9.70617 11.8174 9.71773 10.9714 9.72983 10.1306C9.7367 9.65357 9.78639 9.17874 9.79292 8.70235C9.79292 8.70184 9.79292 8.49426 9.79292 8.59132C9.79292 8.78281 9.75634 8.96198 9.71217 9.14899C9.4 10.4707 9.11036 11.7851 8.90216 13.1284C8.8903 13.2049 8.89878 13.4587 8.83403 13.517C8.767 13.5773 8.79325 13.3397 8.79365 13.2495C8.79733 12.4262 8.94413 11.6077 9.08763 10.7993C9.12487 10.5895 9.18089 10.3864 9.22389 10.1785C9.23648 10.1177 9.26286 10.0995 9.28319 10.1735C9.37923 10.5227 9.42925 10.8924 9.49011 11.2485C9.61584 11.9841 9.72268 12.7224 9.82572 13.4615C9.87499 13.8149 9.93292 14.167 9.9847 14.52C9.99175 14.5681 9.99417 14.7196 10.0427 14.756C10.0832 14.7864 10.5256 13.0432 10.9234 14.0292C11.1435 14.5747 11.2076 15.1791 11.3347 15.7502C11.3746 15.9293 11.3863 16.1934 11.4912 16.3508C11.5134 16.3841 11.5582 16.3969 11.5921 16.3684C11.6524 16.3177 11.6727 16.2144 11.6893 16.1451C11.7374 15.9435 11.7627 15.7347 11.7763 15.5281C11.8194 14.8721 11.7305 14.202 11.7927 13.5485C11.8073 13.395 11.8789 13.8447 11.9176 13.9939C12.0157 14.3721 12.067 14.7514 12.1081 15.1395C12.1351 15.3935 12.1471 15.6498 12.199 15.9003C12.2085 15.9462 12.2431 16.0259 12.2431 16.0732C12.2431 16.1119 12.1981 16.0101 12.1775 15.9773C12.0476 15.7704 11.928 15.5583 11.8129 15.3427C11.4297 14.6246 11.0759 13.8913 10.7405 13.1498C10.6611 12.9745 10.6754 13.0052 10.6055 12.8546C10.5809 12.8017 10.5448 12.6447 10.5247 12.6994C10.4947 12.7812 10.5439 13.0214 10.5512 13.0817C10.5917 13.4154 10.6553 13.7448 10.719 14.0747C10.8407 14.7043 10.9512 15.3318 10.9512 15.9748C10.9512 16.0801 10.7869 15.9764 10.7468 15.947C10.5657 15.8144 10.5082 15.5337 10.3607 15.3616" stroke="black" stroke-width="1.03954" stroke-linecap="round"/>
<path d="M10.3607 15.3613C10.3607 15.6919 10.3607 16.0224 10.3607 16.353C10.3607 16.6011 10.3607 16.8493 10.3607 17.0974C10.3607 17.1897 10.3907 17.3436 10.3582 17.433C10.3394 17.4848 10.2707 17.3643 10.2371 17.3207C10.0124 17.0294 9.82066 16.712 9.64662 16.3883C9.30881 15.7602 8.98273 15.071 8.82021 14.3721C8.80077 14.2886 8.7878 14.2031 8.76217 14.1211C8.7589 14.1106 8.83869 14.2605 8.84923 14.2838C9.07995 14.7954 9.15133 15.3742 9.22269 15.9253C9.24518 16.099 9.26618 16.2731 9.28073 16.4476C9.29348 16.6006 9.29657 16.7542 9.2883 16.4792C9.26147 15.5872 9.28074 14.6953 9.26937 13.8031C9.26744 13.6513 9.24089 13.4891 9.25171 13.3375C9.25407 13.3044 9.34015 13.5497 9.34255 13.5571C9.5486 14.1873 9.74618 14.8238 9.90653 15.4673C10.0521 16.0516 10.2109 16.5999 10.2346 17.2059C10.2356 17.2311 10.2633 18.0433 10.2144 18.0311C10.1188 18.0072 10.0716 17.7328 10.0554 17.6727C9.93689 17.2327 9.87996 16.7811 9.83083 16.329C9.81822 16.213 9.7998 16.0963 9.79424 15.9795C9.79206 15.9339 9.78856 15.8435 9.79803 15.9518C9.85055 16.5529 9.84391 17.1581 9.83714 17.7611C9.8334 18.0937 9.8469 18.5249 9.70214 18.8386C9.68049 18.8855 9.63432 18.8857 9.60625 18.8486C9.43861 18.6271 9.42128 18.3018 9.39807 18.0361C9.39378 17.987 9.33715 17.4532 9.39428 17.433C9.46352 17.4086 9.47503 18.2859 9.47503 18.3528C9.47503 18.3914 9.51358 18.9858 9.42961 18.99C9.27511 18.9977 9.22774 17.3845 9.22774 17.2021C9.22774 17.1566 9.21694 16.4461 9.34381 16.5069C9.43951 16.5528 9.51585 16.6845 9.57092 16.7668C9.77097 17.0662 9.89995 17.3979 10.0188 17.7358C10.1515 18.1129 10.2452 18.5364 10.4289 18.8941C10.4586 18.9519 10.4516 18.8377 10.4516 18.836C10.4544 18.4786 10.4516 18.121 10.4516 17.7636C10.4516 17.5255 10.4516 17.2875 10.4516 17.0495C10.4516 17.0326 10.4289 16.7869 10.4617 16.7744C10.5122 16.7552 10.6046 16.8914 10.6207 16.9132C10.7825 17.133 10.9039 17.3892 10.9929 17.6462C11.1367 18.0623 11.2305 18.515 11.2237 18.9572C11.2229 19.0102 11.2291 19.1231 11.1405 19.0985C10.9354 19.0413 10.8526 18.7257 10.8086 18.5547C10.7143 18.1878 10.6929 17.805 10.6825 17.428C10.6747 17.1462 10.6774 16.8835 10.7594 16.6129C10.8278 16.3873 10.918 16.2515 11.0559 16.5435C11.2941 17.0479 11.3346 17.6409 11.4496 18.1812C11.4872 18.3578 11.5182 18.5377 11.5644 18.7124C11.5819 18.7785 11.6298 18.8526 11.6325 18.9218C11.6347 18.9757 11.5855 18.8244 11.5695 18.7729C11.4073 18.2526 11.3108 17.7195 11.2641 17.1769C11.2433 16.9343 11.2295 16.6899 11.225 16.4464C11.2236 16.3701 11.1889 16.1685 11.2465 16.0981C11.348 15.974 11.6948 16.8517 11.6994 16.8653C12.0158 17.7843 12.1144 18.7801 12.1498 19.747C12.1549 19.8849 12.1549 20.0228 12.1549 20.1608C12.1549 20.1743 12.1581 20.2142 12.1549 20.2012C12.1441 20.1583 12.1452 20.096 12.1397 20.0548C12.0261 19.1977 11.7659 18.3597 11.6023 17.5112C11.5088 17.0263 11.4054 16.5146 11.4054 16.0174C11.4054 15.9954 11.3971 15.906 11.4433 15.9543C11.5723 16.0891 11.6485 16.2983 11.7272 16.4628C12.0434 17.1239 12.2049 17.8093 12.2634 18.5383C12.3 18.9948 12.2897 19.4785 12.3933 19.9274C12.3981 19.948 12.4222 20.0343 12.4388 19.9627C12.4998 19.6984 12.4847 19.3974 12.4905 19.1287C12.5061 18.4039 12.5152 17.6794 12.4198 16.9599C12.4153 16.9259 12.3855 16.8049 12.4072 16.7668C12.4073 16.7667 12.5442 16.9299 12.5511 16.9384C12.7622 17.2006 12.8776 17.5113 13.0494 17.7977C13.0615 17.8177 13.1516 17.9615 13.1516 17.9528C13.1516 17.6509 12.9987 17.3222 12.9043 17.0419C12.8637 16.921 12.821 16.8017 12.7731 16.6836C12.7618 16.6556 12.7374 16.61 12.7466 16.5776C12.7539 16.5521 13.1473 16.9001 13.1617 16.9132C13.3666 17.099 13.5512 17.3028 13.7421 17.5024C13.814 17.5776 13.8651 17.5444 13.8203 17.4456C13.7271 17.2399 13.4967 17.0902 13.3182 16.9662C13.135 16.839 13.3152 16.9474 13.4166 16.994C13.8781 17.206 14.3586 17.4507 14.8751 17.4507C15.1577 17.4507 15.4317 17.3886 15.7154 17.3826C16.076 17.3749 16.4268 17.2236 16.7878 17.2236" stroke="black" stroke-width="1.03954" stroke-linecap="round"/>
<path d="M16.8785 17.7914C16.8785 17.4297 16.8785 18.5148 16.8785 18.8765C16.8785 19.0177 16.7484 18.8166 16.7309 18.7781C16.6942 18.6975 16.7195 18.5655 16.7195 18.4803C16.7195 18.2946 16.731 18.1139 16.7763 17.9327C16.8051 17.8173 16.8207 17.6098 16.9807 17.6098C17.0173 17.6098 17.0898 17.5955 17.1157 17.6262C17.2157 17.7444 17.098 17.9643 17.0375 18.069C16.8769 18.3466 16.4746 18.6999 16.124 18.6999C15.8594 18.6999 15.8851 18.1657 15.907 17.9958C15.9113 17.9625 15.9354 17.8088 16.0041 17.8394C16.0781 17.8723 16.0349 18.1059 16.018 18.1548C15.9074 18.4743 15.5489 18.6367 15.2357 18.6746C14.9968 18.7036 15.0162 18.5469 15.0162 18.3554C15.0162 18.31 14.9822 18.0805 15.0213 18.0463C15.0389 18.0308 15.0385 18.091 15.0389 18.1144C15.0403 18.1966 15.0435 18.2811 15.0364 18.363C15.007 18.7015 14.6972 18.88 14.3803 18.8008C14.1434 18.7416 14.066 18.5049 14.0624 18.286C14.0598 18.1296 14.0624 18.1399 14.0964 18.2911C14.1337 18.4568 14.1464 18.639 14.1255 18.8084C14.0963 19.0447 13.7759 19.2386 13.5451 19.1667C13.3804 19.1154 13.3231 18.848 13.3028 18.7062C13.2933 18.6397 13.2018 18.2014 13.2953 18.1599C13.384 18.1204 13.5546 18.1548 13.6485 18.1548C13.8173 18.1548 14.0094 18.1295 14.1747 18.1687C14.2896 18.1959 14.3962 18.2572 14.5115 18.286C14.59 18.3056 14.4272 18.1143 14.422 18.1094C14.3046 17.9989 14.1082 17.8575 13.9362 17.8873C13.7323 17.9227 13.5828 18.3518 13.5198 18.5182C13.3685 18.9181 13.4471 19.3518 13.4252 19.7685C13.4164 19.9362 13.3377 20.0927 13.2776 20.2467C13.1914 20.4673 13.1052 20.6855 13.0303 20.9104C12.967 21.1002 12.9274 21.2747 12.8915 21.4693C12.8846 21.5069 12.8382 21.771 12.836 21.6194C12.8325 21.3781 12.8 21.1367 12.7918 20.8952C12.7873 20.7604 12.8255 20.5669 12.7401 20.4486C12.6694 20.3507 12.6749 20.4627 12.6783 20.5205C12.6933 20.776 12.743 21.0336 12.7679 21.2889C12.8391 22.0197 13.0176 22.7229 12.9697 23.464C12.9671 23.5042 12.9404 23.7817 12.8587 23.7769C12.7835 23.7725 12.8681 23.1893 12.8726 23.1587C12.9465 22.649 13.0315 22.14 13.1539 21.6396C13.16 21.6149 13.1842 21.3436 13.2574 21.3835C13.4257 21.4753 13.5143 21.8185 13.5728 21.9828C13.6993 22.3378 13.8258 22.7081 13.8895 23.0805C13.9171 23.242 13.9827 23.5211 13.887 23.671C13.7665 23.8596 13.4679 23.8706 13.2725 23.8451C12.8808 23.7938 12.7034 23.467 12.6682 23.107C12.6588 23.011 12.6011 22.7012 12.7224 22.6338C12.7997 22.5909 12.8396 22.8069 12.8448 22.8408C12.9155 23.2962 12.6806 23.7529 12.4726 24.1403C12.2999 24.462 12.1081 24.8018 11.7459 24.9226" stroke="black" stroke-width="1.03954" stroke-linecap="round"/>
<path d="M10.0202 24.0595C10.024 24.0326 10.1095 24.2593 10.1148 24.274C10.2349 24.602 10.3101 24.9412 10.3785 25.2833C10.4895 25.8382 10.6396 26.3742 10.7129 26.9361C10.822 27.7724 10.9306 28.6052 10.9917 29.4469C11.0406 30.1211 11.0432 30.8189 11.1658 31.4846C11.1959 31.6481 11.195 31.8206 11.2352 31.9817C11.2593 32.0781 11.362 32.0061 11.4283 31.9905C11.5067 31.9721 11.5426 32.0091 11.5872 32.0649C11.5948 32.0744 11.6003 32.043 11.5999 32.0309C11.5935 31.8484 11.5447 31.6637 11.509 31.4858C11.3593 30.7395 11.2495 29.9934 11.1608 29.2375C11.0775 28.5281 11.0432 27.8223 10.911 27.1203C10.8426 26.7577 10.8432 26.3793 10.7823 26.0138C10.7465 25.7993 10.7284 25.5497 10.7242 25.3313C10.7215 25.1871 10.7039 25.0216 10.7356 24.8821C10.7765 24.7022 11.0233 25.0022 11.0523 25.0385C11.4865 25.5834 11.716 26.2365 11.8017 26.9223C11.9449 28.0673 11.899 29.2346 12.0528 30.3793C12.0944 30.6894 12.1889 30.9781 12.2572 31.2814C12.2743 31.3576 12.2944 31.7241 12.3821 31.4707C12.5029 31.1216 12.5448 30.7223 12.5726 30.3566C12.6112 29.8497 12.6238 29.3345 12.6067 28.8262C12.5843 28.1614 12.4045 27.5092 12.314 26.8529C12.2273 26.2248 11.8654 25.5512 12.1045 24.9225C12.2098 24.6456 12.3813 24.4617 12.5878 24.2512C12.6999 24.1369 12.8173 24.0317 12.9221 23.9106C12.9615 23.865 13.0172 23.8121 13.0811 23.8096C13.271 23.8023 13.1092 24.3191 13.0861 24.4127C12.9696 24.8855 12.7001 25.3582 12.7001 25.8536C12.7001 26.2948 12.722 26.7302 12.7404 27.1708C12.768 27.8305 12.7455 28.4952 12.7455 29.1555C12.7455 29.5201 12.7228 29.8842 12.7228 30.2494C12.7228 30.3491 12.678 30.5679 12.7354 30.6582C12.809 30.7739 12.6844 31.0255 12.8628 31.0076C13.1077 30.9832 13.3985 30.7476 13.5643 30.585C13.7324 30.4201 13.8876 30.2345 14.04 30.0551C14.1463 29.9298 14.2738 29.8198 14.3756 29.6917C14.4655 29.5786 14.5638 29.5344 14.6885 29.4646C14.8196 29.3911 14.9493 29.2473 15.0897 29.1971C15.1851 29.163 15.2801 29.1693 15.3799 29.1693C15.4327 29.1693 15.4658 29.1696 15.4102 29.2173C15.2975 29.3138 15.1954 29.4097 15.0657 29.4848C14.7569 29.6636 14.4447 29.8037 14.1485 30.0096C13.9738 30.1311 13.7948 30.2583 13.6009 30.3478C13.381 30.4493 13.686 30.2703 13.7384 30.233C14.2783 29.8484 14.8094 29.4401 15.3887 29.1151C15.5263 29.0379 15.6635 29.035 15.8064 28.9927C15.8487 28.9802 15.8919 28.9836 15.9338 28.965C15.9378 28.9632 15.6805 28.935 15.636 28.9309C15.3473 28.9042 15.1542 28.7936 14.9206 28.6369C14.4451 28.3178 14.0888 27.7582 13.9214 27.2238C13.8229 26.9094 13.8129 26.5977 13.8129 26.2712C13.8129 26.0599 13.7975 25.8405 13.8633 25.6366C13.9205 25.4597 13.9879 25.2796 14.0627 25.1092C14.1379 24.938 14.18 24.7468 14.2671 24.5818C14.2897 24.5389 14.3349 24.4938 14.3693 24.4594C14.4064 24.4224 14.4242 24.4497 14.3314 24.4443C14.2052 24.4369 14.0924 24.3821 13.9693 24.3597C13.8544 24.3388 13.8608 24.4571 13.8305 24.5465C13.6305 25.1369 13.4489 25.7404 13.3372 26.3545C13.1649 27.3025 13.0753 28.4069 13.6627 29.2337C13.7759 29.3929 13.9134 29.5047 14.0854 29.5958C14.099 29.603 14.0989 29.6038 14.0917 29.5895C14.0445 29.4951 14.0159 29.3913 13.9819 29.2917C13.8892 29.0198 13.8028 28.746 13.6993 28.4779C13.5992 28.2184 13.4632 27.9778 13.3599 27.7197C13.3249 27.6321 13.3632 27.6424 13.4091 27.7083C13.599 27.9807 13.7486 28.2983 13.9088 28.589C14.0419 28.8306 14.1949 29.0629 14.3112 29.3132C14.3468 29.3896 14.3897 29.4518 14.4614 29.4974C14.4848 29.5123 14.5341 29.531 14.5623 29.5327C14.6611 29.5389 14.3661 29.5681 14.2747 29.6059C13.8782 29.7698 13.5148 30.0174 13.2703 30.3705C13.2486 30.4019 13.2266 30.4829 13.1946 30.5042C13.1853 30.5104 13.1373 30.1077 13.1366 30.0929C13.1181 29.685 13.1482 29.3069 13.2325 28.9094C13.2558 28.7995 13.2678 28.6908 13.2678 28.5789" stroke="black" stroke-width="1.03954" stroke-linecap="round"/>
<path d="M18.5821 26.7622C18.5821 26.4998 18.5821 26.2374 18.5821 25.9749C18.5821 25.7829 18.5948 25.6871 18.4685 25.5409C18.3543 25.4086 18.1184 25.3226 17.9663 25.2457C17.7611 25.1419 17.5492 25.0951 17.3267 25.0451C16.8101 24.9288 16.2748 24.9454 15.7483 24.9454C15.4697 24.9454 15.218 24.9324 14.9812 25.1044C14.8241 25.2184 14.6975 25.3637 14.5307 25.4652C14.3902 25.5508 14.2486 25.5415 14.2948 25.3163C14.334 25.1251 14.5937 24.9922 14.7452 24.9038C14.9939 24.7587 15.2692 24.6649 15.5477 24.5959C16.0749 24.4653 16.6313 24.4706 17.1715 24.4962C17.5691 24.5151 17.9206 24.6454 18.2969 24.7587C18.5375 24.8311 18.759 24.9204 18.9555 25.0817C19.2259 25.3035 19.1952 25.6494 19.1952 25.9674C19.1952 26.0355 19.2337 26.066 19.2634 25.98C19.3531 25.7202 19.3939 25.407 19.3265 25.1372C19.2536 24.8458 18.9276 24.5775 18.6855 24.4281C18.1471 24.0957 17.5176 23.9664 16.8964 23.8919C16.6142 23.858 16.3125 23.8681 16.0284 23.8793C15.7306 23.8909 15.4669 24.0256 15.2158 24.1682C15.0684 24.2519 14.9188 24.3491 14.7667 24.423C14.7137 24.4488 14.5896 24.5071 14.5295 24.4899C14.4436 24.4654 14.5127 24.1928 14.5295 24.1493C14.63 23.8892 14.7188 23.7972 14.9812 23.6913C15.8603 23.3364 16.8808 23.4108 17.7632 23.7089C18.3414 23.9043 18.989 24.2596 19.3088 24.8041C19.3974 24.955 19.4223 25.0451 19.4223 25.223C19.4223 25.2792 19.3844 25.4784 19.4577 25.4917C19.5673 25.5116 19.5845 25.6274 19.6595 25.681C19.6777 25.694 19.6722 25.5405 19.6722 25.5308C19.6722 25.3527 19.6784 25.1731 19.657 24.9959C19.5626 24.2143 19.2553 23.5264 18.5392 23.1437C18.3074 23.0198 18.086 22.9875 17.8326 22.9469C17.5324 22.8987 17.2377 22.8656 16.933 22.8573C16.112 22.8348 15.2423 22.8975 14.4941 23.2648C14.3459 23.3376 14.1883 23.4416 14.0172 23.4465C13.8796 23.4504 13.9037 23.2999 13.9037 23.1967C13.9037 22.9682 13.9808 22.7513 14.2267 22.7021C14.3684 22.6737 14.5038 22.6743 14.6481 22.6743C14.932 22.6743 15.173 22.7335 15.4505 22.7765C15.8419 22.8373 16.2208 22.9582 16.6113 23.0226C17.0053 23.0875 17.4155 23.1319 17.8149 23.1285C18.0715 23.1264 18.319 23.0983 18.5442 22.9696C18.6505 22.9088 18.7253 22.8067 18.8319 22.7475C18.8967 22.7115 18.8183 22.6322 18.7814 22.6062C18.6907 22.5424 18.5729 22.5517 18.4672 22.5734C18.3479 22.598 18.002 22.6797 18.1228 22.6958C18.4728 22.7424 18.8342 22.5688 19.1826 22.5431C19.5653 22.5149 19.7486 22.7689 19.8993 23.0781C20.0309 23.3482 20.1573 23.5978 20.2387 23.8893C20.3391 24.2491 20.3762 24.5793 20.3762 24.953C20.3762 25.0623 20.3762 25.1717 20.3762 25.281C20.3762 25.3024 20.3484 25.3593 20.3636 25.3441C20.4168 25.2909 20.4416 25.1914 20.4683 25.1246C20.5748 24.8584 20.8305 24.4458 21.1711 24.4458C21.2292 24.4458 21.2805 24.4102 21.33 24.3827C21.4578 24.3117 21.1371 24.0445 21.0954 23.989C20.8633 23.6806 20.6655 23.3516 20.4607 23.0251C20.3501 22.8488 20.2401 22.6714 20.0835 22.5318C19.9431 22.4066 19.7563 22.3442 19.6267 22.2088C19.5122 22.089 19.3731 21.9892 19.2545 21.8706C19.1464 21.7625 19.1246 21.7832 19.0136 21.8921C18.8839 22.0192 18.8413 22.0099 18.9707 22.1646C19.1459 22.3741 19.2949 22.5981 19.4526 22.8207C19.6286 23.069 19.839 23.2964 19.9964 23.5575C20.2218 23.9313 20.2854 24.4409 20.2854 24.8722C20.2854 24.9983 20.3049 25.1374 20.2677 25.2583C20.2611 25.2796 20.2564 25.3071 20.2854 25.3088C20.3509 25.3126 20.3649 25.2162 20.3812 25.17C20.5279 24.7556 20.7007 24.2519 21.0146 23.9335C21.1296 23.8169 21.282 23.7321 21.4095 23.6282C21.6004 23.4727 21.7533 23.27 21.942 23.1084C22.0665 23.0016 22.2012 22.9135 22.3179 22.7967C22.5606 22.5541 22.7325 22.2605 22.8945 21.9602C23.1156 21.5506 23.3122 21.1235 23.5557 20.7263C23.6132 20.6323 23.6447 20.5198 23.7071 20.4222C23.8488 20.2003 24.0565 20.0258 24.2483 19.8481C24.3387 19.7645 24.4465 19.7044 24.5663 19.6778C24.606 19.669 24.6998 19.6226 24.7278 19.6463C24.8526 19.7518 24.946 20.078 24.8906 20.2393C24.8419 20.3808 24.5601 20.5146 24.4464 20.6026C24.1425 20.8382 23.8364 21.0738 23.5544 21.3357C23.0467 21.8071 22.7124 22.4279 22.2561 22.9469C22.1072 23.1162 21.9519 23.274 21.8297 23.4642C21.7862 23.5318 21.8625 23.4929 21.9003 23.4717C22.2713 23.2644 22.6099 22.975 22.9286 22.697C23.277 22.3932 23.6437 22.1036 23.9506 21.7571C24.0938 21.5954 24.2501 21.4484 24.401 21.294C24.491 21.2021 24.6049 21.1001 24.6407 20.971C24.6893 20.7961 24.6756 20.5955 24.6672 20.4159C24.6635 20.3352 24.59 20.1725 24.6496 20.1055C24.791 19.9465 24.9958 19.8405 25.1126 19.6589C25.243 19.456 24.395 19.4667 24.3102 19.4772C23.836 19.5355 23.3461 19.4667 22.8731 19.5289C22.8349 19.5339 22.5226 19.5395 22.5123 19.5756C22.5017 19.6126 22.511 19.6657 22.511 19.703C22.511 19.8705 22.5058 20.0292 22.4706 20.1938C22.4136 20.4609 22.3086 20.6906 22.188 20.9357C21.8846 21.5523 21.5849 22.1653 21.2026 22.7387C21.0564 22.9579 20.9373 23.1916 20.7976 23.4112C20.5569 23.7894 21.3326 22.6908 21.5748 22.3135C21.9109 21.7899 22.308 21.3097 22.6674 20.8032C22.78 20.6446 22.8724 20.5193 23.022 20.3919C23.1214 20.3072 23.3071 20.2544 23.3689 20.1307C23.424 20.0206 23.2806 19.8465 23.2226 19.7749C22.9965 19.4961 22.6891 19.3795 22.3772 19.2236C22.2249 19.1474 22.0583 19.0935 21.9003 19.0293C21.8693 19.0167 21.6527 18.8823 21.6492 18.8943C21.6355 18.9425 21.6672 19.0191 21.6694 19.0684C21.6804 19.3105 21.6572 19.5597 21.6228 19.7989C21.5359 20.4019 21.3989 21.0274 21.1938 21.6019C21.0707 21.9464 20.8716 22.2593 20.7749 22.6138C20.7577 22.6767 20.7169 22.8657 20.7169 22.8005C20.7169 22.6485 20.7909 22.4737 20.8203 22.3248C20.9373 21.7335 21.0899 21.169 21.1357 20.566C21.1616 20.2262 21.1596 19.9295 21.0197 19.616C20.9514 19.4629 20.8812 19.3552 20.8758 19.1819C20.8672 18.9067 20.8379 18.6152 20.785 18.3454C20.7562 18.1989 20.7301 18.03 20.6374 17.9064C20.5702 17.8168 20.6377 17.9581 20.6487 17.9833C20.6989 18.0985 20.7022 18.2416 20.7169 18.3644C20.7407 18.5643 20.7652 18.7646 20.785 18.9649C20.8354 19.4752 20.8077 19.9955 20.8077 20.508C20.8077 20.9332 20.8077 21.3584 20.8077 21.7836C20.8077 21.9943 20.7906 22.2624 20.6487 22.4245" stroke="black" stroke-width="1.03954" stroke-linecap="round"/>
<path d="M21.4662 18.6088C21.4313 18.5292 21.3565 18.4599 21.3022 18.3944C21.1704 18.2354 21.0374 18.0772 20.9098 17.9149C20.7865 17.7581 20.6789 17.5767 20.5401 17.4329C20.3618 17.2483 20.235 17.0122 20.0821 16.8059C20.0419 16.7516 19.9821 16.7267 19.9446 16.6734C19.9002 16.6103 19.8567 16.538 19.8096 16.4791C19.7685 16.4277 19.8432 16.6063 19.8613 16.6696C19.9959 17.1405 20.0953 17.623 20.154 18.1092C20.2497 18.9009 20.2559 19.6915 20.313 20.4837C20.3411 20.8734 20.4049 21.2622 20.4392 21.6521C20.4503 21.7791 20.4442 21.9082 20.4442 22.0356C20.4442 22.1329 20.4141 22.0732 20.3609 22.0243C20.1617 21.8409 19.9635 21.6453 19.7515 21.4805C19.7314 21.4648 19.6734 21.4482 19.6721 21.425C19.6677 21.3508 19.6429 21.2711 19.6266 21.1979C19.4382 20.35 19.4904 19.4396 19.4904 18.5786C19.4904 17.795 19.4904 17.0115 19.4904 16.228C19.4904 15.9197 19.4904 15.6115 19.4904 15.3032C19.4904 15.1472 19.5149 14.965 19.4778 14.8111C19.4752 14.8004 19.4204 14.6915 19.4222 14.7253C19.4242 14.7614 19.4556 14.7972 19.4727 14.8263C19.5472 14.9528 19.6026 15.0919 19.6481 15.2313C19.7697 15.6042 19.8342 16.0537 19.7351 16.4387C19.6967 16.5883 19.6133 16.7214 19.5484 16.8601C19.4595 17.0503 19.4131 17.2528 19.3869 17.4607C19.2947 18.1931 19.286 18.9601 19.286 19.699C19.286 19.7281 19.2633 19.6827 19.2557 19.6737C19.101 19.4918 18.9485 19.3083 18.7788 19.14C18.4104 18.7748 18.0242 18.4105 17.5978 18.113C17.5737 18.0962 17.4355 18.0177 17.4464 18.0184C17.4893 18.0211 17.5441 18.0496 17.5827 18.0688C17.7106 18.1328 17.8422 18.1936 17.9713 18.2581C18.074 18.3094 18.1733 18.3668 18.2766 18.4171C18.3452 18.4504 18.3313 18.4702 18.2981 18.4259C18.2448 18.3549 18.1277 18.3249 18.0495 18.2909C17.7727 18.1706 17.4968 18.0933 17.2117 18.0007C17.1427 17.9783 17.0757 17.9689 17.0843 17.8872C17.1114 17.6297 17.2264 17.3757 17.3001 17.1301C17.4518 16.6243 17.5582 16.1026 17.695 15.5921C17.7681 15.319 17.854 15.024 17.8767 14.7405C17.8797 14.702 17.8834 14.622 17.8224 14.6723C17.732 14.7469 17.6604 14.8582 17.5903 14.9499C17.3828 15.2211 17.182 15.5014 17.0162 15.8003C16.9196 15.9744 16.8314 16.165 16.7701 16.3554C16.7287 16.4844 16.7651 16.2804 16.7651 16.2242C16.7651 15.4734 16.8104 14.7293 16.8307 13.9797C16.8387 13.6832 16.8658 13.3903 16.7437 13.1154C16.6425 12.8878 16.6743 12.63 16.6743 12.3861C16.6743 12.2751 16.6935 12.0061 16.7701 12.26C16.947 12.8454 17.0631 13.45 17.1613 14.0528C17.2956 14.8777 17.3155 15.7154 17.4464 16.5384C17.4786 16.7407 17.5145 16.94 17.5145 17.1453C17.5145 17.2637 17.4237 17.3516 17.3543 17.4405C17.2784 17.5378 17.1796 17.7234 17.0603 17.7736C16.9623 17.8149 16.9965 17.2277 16.9973 17.2084C17.0084 16.9152 17.0683 16.6358 17.1045 16.3466C17.1278 16.1601 17.1058 16.7226 17.1058 16.9106C17.1058 17.2568 17.0813 17.6131 17.1184 17.9578C17.1391 18.1498 17.1593 18.3646 17.3026 18.5079C17.4014 18.6068 17.5175 18.6522 17.6331 18.7224C17.7273 18.7796 17.6949 18.5083 17.6975 18.3981C17.722 17.371 17.7606 16.3448 17.8047 15.3183C17.8528 14.2004 17.8779 13.0848 17.8779 11.966C17.8779 11.6958 17.8893 11.3983 17.8211 11.1333C17.799 11.0471 17.7865 10.9541 17.7593 10.8696C17.7315 10.783 17.7434 10.8866 17.7404 10.9213C17.7356 10.9761 17.7109 11.0274 17.6937 11.079C17.6233 11.2904 17.5641 11.5068 17.5196 11.725C17.3883 12.3684 17.329 13.1001 17.4388 13.7513C17.5052 14.145 17.6641 14.5223 17.7631 14.9083C17.8555 15.2685 17.9273 15.6344 18.0091 15.9971C18.0949 16.3773 18.2413 16.7968 18.2413 17.1894C18.2413 17.3446 18.2429 17.4999 18.2362 17.655C18.2281 17.8469 18.1732 18.0394 18.1732 18.2303C18.1732 18.7956 18.171 17.0997 18.1833 16.5346C18.2031 15.6223 18.2532 14.7112 18.2842 13.7992C18.3081 13.0943 18.3016 12.3897 18.3145 11.6846C18.3238 11.1734 18.3317 10.6625 18.3548 10.1529C18.3887 9.40816 18.4927 11.6377 18.5491 12.3811C18.6562 13.7919 18.6563 15.2115 18.7964 16.6191C18.8391 17.0479 18.9382 17.4693 18.9731 17.8972C18.9892 18.0949 18.9914 18.3119 19.0311 18.5054C19.0532 18.6131 19.0339 18.5938 18.9794 18.5193C18.8455 18.3361 18.7582 18.1871 18.7132 17.9578C18.5758 17.2584 18.5896 16.5141 18.5832 15.8041C18.577 15.1226 18.6369 14.4479 18.6854 13.769C18.7196 13.2903 18.8304 12.8249 18.9125 12.3533C18.9755 11.9918 19.0234 11.6266 19.103 11.2683C19.1239 11.1745 19.1845 11.0996 19.2406 11.0235C19.4137 10.7883 19.5806 10.5639 19.8184 10.3876C20.0898 10.1864 20.4045 10.0774 20.7268 9.99017C20.998 9.91679 21.2572 9.82235 21.5217 9.729C21.7934 9.63312 22.062 9.54569 22.3292 9.43881C22.4385 9.39507 22.5714 9.41105 22.6875 9.41105C22.7323 9.41105 22.7764 9.40703 22.7594 9.46657C22.7421 9.52735 22.3486 9.58938 22.3128 9.60031C21.8886 9.72971 21.4287 9.93026 21.0801 10.211C20.7658 10.4641 20.5255 10.7995 20.2827 11.1181C19.8354 11.7052 19.4715 12.3016 19.3995 13.0498C19.3629 13.4304 19.3266 13.8093 19.2973 14.1904C19.2887 14.3028 19.286 14.6413 19.286 14.5285C19.286 14.1229 19.4096 13.7796 19.5913 13.4195C19.8895 12.8286 20.2307 12.2307 20.7357 11.7906C20.9064 11.6419 21.0894 11.5002 21.2668 11.3591C21.3839 11.2661 21.5022 11.154 21.6428 11.0967C21.7148 11.0674 21.6227 11.2365 21.6126 11.2695C21.5069 11.6147 21.3783 11.9508 21.2643 12.2928C21.2599 12.3062 21.1937 12.5435 21.1937 12.4618C21.1937 12.1404 21.225 11.8233 21.2959 11.5093C21.3483 11.2768 21.4055 11.0097 21.5772 10.8317C21.6356 10.7712 21.8596 10.6001 21.6378 10.751C20.7792 11.3351 20.1602 12.4175 19.8638 13.398C19.7773 13.6844 19.7475 13.9743 19.7049 14.2686C19.6726 14.4915 19.6045 14.6994 19.5484 14.9158C19.4873 15.1517 19.733 14.7155 19.7503 14.6875C20.0306 14.2329 20.3244 13.7874 20.6549 13.3677C20.8509 13.1189 21.0428 12.8874 21.2769 12.6738C21.4526 12.5136 21.609 12.3452 21.7614 12.1641C21.8005 12.1177 21.8793 12.0475 21.8964 11.9874C21.912 11.933 21.9129 11.9762 21.8737 12.0114C21.8304 12.0504 21.7822 12.0275 21.7387 12.0505C21.6888 12.077 21.7579 12.1031 21.7614 12.1363C21.8025 12.5269 22.2101 12.782 22.4541 13.0447C22.6964 13.3057 23.1546 13.5377 23.5101 13.5444C23.6606 13.5472 23.8114 13.5444 23.9618 13.5444C24.1707 13.5444 24.3392 13.4746 24.5271 13.3905C24.8605 13.2411 25.0687 13.0019 25.3497 12.7823C25.4995 12.6653 25.5796 12.5901 25.6677 12.4202C25.7979 12.1691 25.7827 11.914 25.809 11.6417C25.8476 11.2404 25.8705 10.7569 25.7585 10.3649C25.7256 10.2498 25.6768 10.2206 25.8064 10.2854C26.1568 10.4606 26.4512 10.8 26.7351 11.0689C27.0608 11.3775 27.3704 11.7267 27.6208 12.1023C27.7152 12.244 27.8435 12.3521 27.8756 12.5224C27.9516 12.9251 27.9651 13.329 27.9046 13.7387C27.8358 14.2051 27.812 14.6764 27.6775 15.1316C27.586 15.4415 27.4144 15.6099 27.2246 15.8583C26.9759 16.184 26.7744 16.5406 26.5307 16.8702C26.1439 17.3933 25.8024 17.9714 25.5554 18.5735C25.5214 18.6563 25.4833 18.7331 25.4456 18.8132C25.4363 18.833 25.4865 18.7965 25.5036 18.783C25.6692 18.6516 25.8375 18.5208 25.9944 18.3792C26.4527 17.966 26.8652 17.4636 27.2523 16.9838C27.5462 16.6195 27.8218 16.23 28.0371 15.8129C28.172 15.5517 28.2011 15.2952 28.2806 15.0168C28.3384 14.8146 28.3887 14.6118 28.456 14.4124C28.5007 14.28 28.5571 14.1536 28.5746 14.0137C28.5798 13.972 28.5652 14.0984 28.5494 14.1374C28.4306 14.4306 28.2395 14.7061 28.0825 14.9789C27.6732 15.6906 27.2736 16.4027 26.8082 17.0797C26.4636 17.5809 26.1022 18.0718 25.7799 18.5874C25.6615 18.7768 25.6028 19.0028 25.4746 19.188C25.4292 19.2535 25.274 19.5313 25.3598 19.6081C25.5729 19.7988 25.9877 19.0788 26.0664 18.9596C26.2278 18.7151 26.3112 18.5314 26.325 18.2354C26.3301 18.1247 26.3463 17.9947 26.2808 17.8998C26.2031 17.7871 26.1215 17.6787 26.0537 17.5591C25.9287 17.3385 25.8137 17.1197 25.7244 16.8816C25.6169 16.5947 25.4102 16.3496 25.2235 16.1107C25.1019 15.955 24.9433 15.8369 24.7845 15.7221C24.5954 15.5854 24.4093 15.423 24.2142 15.2981C23.9192 15.1093 23.5735 14.9339 23.2477 14.8036C22.9088 14.668 22.539 14.6799 22.1816 14.6799C21.8547 14.6799 21.5322 14.7268 21.2063 14.7493C21.0793 14.7581 20.9656 14.8465 20.8581 14.907C20.7252 14.9817 20.5725 15.044 20.4266 15.0887C20.3411 15.1149 20.0903 15.1935 20.0127 15.1114C19.8153 14.9024 20.506 14.5269 20.6209 14.449C20.9579 14.2205 21.2491 14.0731 21.6618 14.0907C21.9081 14.1012 22.1579 14.1491 22.4024 14.1803C22.7423 14.2237 23.0761 14.2543 23.4092 14.3393C24.3849 14.5882 25.359 14.9736 25.9604 15.8255C26.1138 16.0429 26.2191 16.299 26.3818 16.5081C26.4351 16.5767 26.4865 16.4599 26.518 16.4084C26.6677 16.1645 26.8274 15.9339 26.9394 15.6691C27.0316 15.4512 27.13 15.2197 27.1766 14.9865C27.2067 14.8361 27.1893 14.67 27.1893 14.5172C27.1893 13.9513 27.0172 13.4188 26.9394 12.8631C26.9065 12.6273 26.8649 12.3769 26.7893 12.1502C26.7215 11.9468 26.5831 11.7783 26.4676 11.6014C26.4182 11.5258 26.3536 11.4234 26.272 11.378C26.2447 11.3629 26.2785 11.427 26.2808 11.4323C26.3327 11.5497 26.3635 11.6786 26.3919 11.8032C26.5704 12.5868 26.559 13.4277 26.5294 14.2282C26.5073 14.8237 26.2902 15.4082 26.1723 15.987C26.1376 16.1574 26.1243 15.8623 26.1231 15.8255C26.1129 15.5039 26.1014 15.1828 26.0815 14.8616C26.0481 14.324 25.9263 13.7596 25.7471 13.2504C25.7191 13.1706 25.6677 13.0094 25.6677 13.0094C25.6677 13.0094 25.6677 13.2231 25.6677 13.3299C25.6677 13.4561 25.685 13.6154 25.5869 13.7134C25.4822 13.8182 25.346 13.8888 25.2387 13.9961C25.1658 14.0689 25.0653 14.2281 24.9687 14.2661C24.8355 14.3184 24.7869 13.9972 24.7718 13.9317C24.7465 13.8213 24.6675 13.5092 24.8475 13.4813C25.0576 13.4488 25.3947 13.4462 25.5793 13.552C25.926 13.7505 25.9175 14.0993 25.9175 14.4528C25.9175 14.5101 25.9322 14.5436 25.8657 14.5436C25.4577 14.5436 25.0946 14.5013 24.6987 14.3986C24.0575 14.2321 23.3935 14.1792 22.7569 13.9999C22.2903 13.8684 21.7991 13.7289 21.3526 13.5393C21.3013 13.5175 20.9524 13.3573 20.9943 13.263C21.0219 13.2009 21.521 13.2491 21.5924 13.2491C21.8444 13.2491 22.0649 13.3006 22.3065 13.3627C22.3601 13.3765 22.4678 13.4331 22.3973 13.3627" stroke="black" stroke-width="1.03954" stroke-linecap="round"/>
<path d="M18.203 18.8662C17.5964 19.541 16.9898 20.2144 16.4069 20.9095C16.3426 20.9862 16.0458 21.2749 16.0627 21.0002C16.0887 20.5768 17.4401 17.8217 17.8869 18.9976C18.1376 19.6572 17.9914 20.6318 17.5146 21.1504C16.7734 21.9566 15.4689 21.6181 15.0739 20.6373C14.8585 20.1024 14.6319 19.0874 15.3962 18.9601C16.2031 18.8256 17.0336 18.9383 17.452 19.7204C17.8171 20.4031 17.7856 21.2757 17.064 21.7012C16.2478 22.1824 15.2373 21.8037 14.761 21.044C14.314 20.3313 14.919 19.9104 15.5933 19.7799C16.4233 19.6192 17.4621 19.6272 18.1905 20.1022C18.4593 20.2775 18.7149 20.5525 18.3156 20.7624C17.605 21.1361 15.955 21.521 15.393 20.7249C14.7984 19.8825 16.0117 19.5045 16.6447 19.5045C17.9323 19.5045 18.8228 20.135 18.954 21.4352C19.2294 24.1649 16.807 25.6595 15.7936 27.9093C15.7035 28.1094 15.4994 28.4047 15.4994 28.6321C15.4994 28.7878 15.7126 28.4045 15.8311 28.3036C16.1718 28.0136 16.5427 27.7515 16.9263 27.5213C16.9673 27.4967 17.716 27.0633 17.5459 27.3273C17.3237 27.672 16.7673 28.1472 16.3693 28.2723C16.2374 28.3138 16.3902 27.9899 16.4507 27.8655C16.6744 27.4055 17.0095 26.9977 17.3206 26.5951C17.6021 26.2308 17.8309 25.7401 18.228 25.4874C18.3956 25.3807 17.8657 26.3192 17.8087 26.4011C17.5037 26.8394 17.2092 27.245 16.9513 27.7091C16.925 27.7564 16.9081 27.6068 16.9075 27.5526C16.9037 27.1574 16.9075 26.7619 16.9075 26.3667C16.9075 26.2304 16.893 25.4373 16.87 25.4749C16.5922 25.9295 16.2904 26.3685 16.0189 26.8266C15.8957 27.0345 15.7296 27.29 15.7247 26.908C15.7189 26.4471 15.7247 25.9858 15.7247 25.5249C15.7247 25.393 15.7298 25.329 15.7247 25.5062C15.7159 25.8149 15.6336 26.0901 15.5307 26.3792C15.4623 26.5713 15.381 27.1426 15.1615 27.2459C15.0983 27.2757 15.1041 26.4856 15.1052 26.4011C15.1057 26.3576 15.1272 25.8003 15.1897 25.8003C15.4533 25.8003 14.7049 27.5866 14.5983 27.7466C14.191 28.3574 13.7939 28.1922 13.4718 27.6027C12.5514 25.9183 12.3076 23.8814 11.7508 22.0641C11.5347 21.3589 11.3222 20.6498 11.0248 19.9739C10.9533 19.8114 10.8201 19.696 10.7432 19.5421C10.5769 19.2096 10.6554 20.1534 10.6556 20.1929C10.6605 21.344 10.619 22.545 10.7244 23.6913C10.7265 23.7135 10.7814 23.9426 10.7557 23.7726C10.7073 23.4518 10.6479 23.1323 10.5961 22.812C10.469 22.0253 10.4522 21.1031 10.1831 20.3494C10.0486 19.9729 10.5472 21.0615 10.7119 21.4258C10.9501 21.9525 11.2667 22.4652 11.4316 23.0216C11.5701 23.489 10.8964 22.2053 10.665 21.7763C10.4896 21.4512 10.3469 21.12 10.2175 20.7749C10.2164 20.7719 10.1029 20.5155 10.1956 20.5809C10.5932 20.8616 10.9393 21.5675 11.1375 22.0078C11.3294 22.4343 11.0694 22.5194 10.8558 22.1017C10.2853 20.9854 10.3763 17.1101 10.5148 18.3561C10.6139 19.2483 10.5943 20.2471 10.4178 21.1254C10.4068 21.1797 10.0847 22.3608 10.0235 21.8576C9.92754 21.0687 9.9584 20.2393 10.0078 19.4482C10.0105 19.4057 10.116 18.4191 10.23 18.6471C10.2379 18.6629 10.2729 18.8312 10.2989 18.7911C10.3469 18.7168 10.4198 18.4332 10.424 18.4187C10.5868 17.8614 10.7522 17.3054 10.9247 16.7509C11.2385 15.742 11.5683 14.738 11.8791 13.7282C11.9806 13.3983 12.0386 12.8962 12.2326 12.5954C12.4105 12.3197 12.9025 12.885 12.9649 12.9772C13.2514 13.4007 13.419 13.9191 13.5469 14.4103C13.5725 14.5089 13.6471 15.137 13.6345 14.9955C13.5464 14.0043 13.3399 13.0277 13.1902 12.0447C13.1206 11.5882 13.398 12.2281 13.4405 12.3138C13.8171 13.074 14.1353 13.8698 14.3479 14.6919C14.3757 14.7992 14.5861 15.9922 14.5513 15.9718C14.1838 15.7556 13.9183 15.2061 13.7221 14.8547C13.4135 14.3018 13.1441 13.715 12.9242 13.1211C12.8786 12.9982 12.7603 12.6343 12.8428 12.7363C13.1525 13.1188 13.3388 13.6546 13.5031 14.1099C13.7277 14.7329 13.9946 15.5277 13.9192 16.2064C13.9012 16.369 13.6187 16.0623 13.5031 15.9467C13.0157 15.4593 12.6531 14.8574 12.4517 14.1975C12.3667 13.919 12.2523 13.496 12.3046 13.1994C12.3451 12.9701 12.857 13.0639 13.0024 13.0773C14.1354 13.1821 15.2014 13.9634 15.828 14.8891C15.8985 14.9932 16.1728 15.3151 16.1065 15.4742C16.0136 15.6971 15.7614 15.1233 15.659 14.9047C15.2223 13.9726 15.0133 13.008 14.7923 12.0134C14.7322 11.7433 14.9389 12.0555 14.98 12.1198C15.3165 12.6461 15.5174 13.259 15.6747 13.8596C15.7173 14.0223 15.9784 15.5383 15.6809 15.3772C14.6131 14.7988 14.1604 13.1657 13.9286 12.0729C13.7153 11.0672 14.7194 12.5316 14.8361 12.7331C15.2417 13.4341 15.5082 14.1749 15.7153 14.9548C15.8243 15.3651 15.9767 15.8241 15.95 16.2565C15.9385 16.4429 15.6178 16.0577 15.5182 15.8998C14.9473 14.9948 14.5558 13.9537 14.229 12.9396C14.0462 12.3722 13.8849 11.7897 13.7346 11.2124C13.7235 11.1698 13.6932 11.0477 13.7221 11.081C13.8539 11.2325 13.9537 11.5688 14.0256 11.7349C14.6749 13.2342 15.223 14.7603 15.5996 16.3504C15.6085 16.3883 15.8122 17.1562 15.756 17.1702C15.4806 17.239 15.055 16.2629 15.0113 16.1689C14.3107 14.6624 13.8653 13.1016 13.5907 11.469C13.4689 10.7448 13.4684 9.98289 13.2746 9.27233C13.1225 8.71462 13.0617 8.29774 13.1213 7.70151C13.1387 7.52742 13.2099 7.10547 13.0963 6.95052C12.9521 6.75389 12.7582 6.59388 12.6582 6.36538C12.6282 6.2969 12.3531 5.89081 12.3453 6.02431C12.32 6.4536 12.2987 6.88658 12.2921 7.31663C12.2786 8.20302 12.2602 9.10963 12.4579 9.97951C12.7207 11.1359 13.2468 12.2268 13.841 13.2463C15.0547 15.3287 16.8208 16.9123 19.1793 17.5019C19.8789 17.6768 20.5499 17.9182 21.2382 18.1277C21.4662 18.1971 21.8416 18.3343 22.0831 18.2998C22.3174 18.2663 22.0496 16.6605 22.0205 16.5006C21.9915 16.3413 21.5834 15.0537 21.9016 15.105C22.5014 15.2017 23.0288 15.6609 23.4223 16.0938C23.6438 16.3374 23.8992 16.9042 23.6257 17.2015C23.2458 17.6145 22.5493 17.3168 22.2083 17.02C22.1278 16.95 21.042 15.8805 21.5762 15.8372C22.391 15.7711 23.2635 16.4292 23.8448 16.9199C23.8736 16.9442 24.6866 17.7658 24.4424 17.7929C23.8719 17.8563 23.3286 17.4996 22.9279 17.1327C22.7552 16.9744 22.1606 16.2885 22.7339 16.2753C23.3822 16.2604 23.9056 16.5151 24.2203 17.0982C24.3909 17.4144 24.6258 18.2085 24.4424 18.5752C24.3864 18.6872 24.1131 18.6385 24.0294 18.6284C23.408 18.5531 22.8046 18.2668 22.2896 17.9212C21.6708 17.5059 20.8133 16.7734 20.5811 16.0187C20.5092 15.7851 20.7932 15.8247 20.9441 15.8247C21.4968 15.8247 21.9693 16.0126 22.3053 16.4662C22.5556 16.8041 22.1132 16.826 21.8265 16.826C19.8388 16.826 19.8365 14.599 20.1931 13.1524C20.4087 12.2779 20.9794 11.2316 21.7483 10.7055C22.0608 10.4917 22.3232 10.2086 22.6526 10.0233C23.3083 9.65445 24.8135 9.34469 25.3248 10.0734C25.397 10.1761 25.6643 10.6739 25.4813 10.7837C25.2663 10.9127 24.9028 10.8667 24.6677 10.8682C24.3065 10.8704 23.8936 10.921 23.5632 10.743C23.2462 10.5724 22.9986 10.2656 23.4787 10.161C23.8471 10.0807 24.4464 10.0272 24.6552 10.3988C25.5347 11.9643 22.5814 12.1296 21.742 11.5472C21.4274 11.3289 21.2664 11.1043 21.7326 11.0371C22.4131 10.9391 23.4129 10.8071 24.0231 11.2061C24.1237 11.2719 24.5407 11.6174 24.3861 11.7913C24.2584 11.9349 23.7029 11.6729 23.5913 11.6192C23.2654 11.4623 23.0146 11.2219 22.8028 10.9339C22.4958 10.5164 22.9316 10.6596 23.2283 10.7806C23.7809 11.0058 24.2109 11.3451 24.455 11.882" stroke="black" stroke-width="1.03954" stroke-linecap="round"/>
<path d="M18.7978 13.8362C19.1549 13.8362 19.5103 13.8083 19.8667 13.7892C20.2837 13.7667 20.702 13.7757 21.1194 13.7757C21.5032 13.7757 21.882 13.768 22.2511 13.89C22.6075 14.0078 22.9527 14.186 23.2752 14.3763C23.8249 14.7006 24.3245 15.0857 24.6265 15.6559C24.7219 15.8358 24.8206 16.017 24.9044 16.2027C24.9227 16.2431 24.9492 16.272 24.9492 16.3169" stroke="#F4FF95" stroke-width="1.03954" stroke-linecap="round"/>
<path d="M23.1945 14.9857C23.1945 15.1844 23.1945 15.3831 23.1945 15.5818C23.1945 15.7049 23.1965 15.8085 23.134 15.9179C23.0266 16.1057 22.8145 16.2876 22.5894 16.2966C21.9674 16.3215 21.6604 15.4892 21.8936 14.9969C21.9567 14.8636 22.0437 14.7366 22.1692 14.654C22.3039 14.5655 22.464 14.5823 22.6174 14.5823C22.9526 14.5823 23.2288 14.8322 23.302 15.1605C23.3804 15.5118 23.1615 15.7476 22.8763 15.9246C22.7166 16.0237 22.5466 16.0932 22.3586 16.1106C22.2155 16.1239 22.1385 16.0079 22.065 15.9C21.8692 15.6124 21.7477 15.085 21.953 14.7806C22.1353 14.5103 22.6001 14.5248 22.8292 14.7156C23.1176 14.956 23.2182 15.3859 22.9592 15.6725C22.8023 15.8461 22.6025 15.9924 22.4169 16.1342C22.251 16.2608 22.0815 16.3281 21.8723 16.3168C21.4868 16.296 21.4183 15.4902 21.4039 15.2277C21.392 15.0095 21.3659 14.745 21.5093 14.5621C21.6226 14.4176 21.778 14.346 21.9575 14.3302C22.1578 14.3126 22.3682 14.3093 22.5536 14.3997C22.8094 14.5244 23.0867 14.8033 23.19 15.0731C23.3064 15.3769 23.1934 15.7239 22.9569 15.9359C22.7417 16.1288 22.3416 16.13 22.0785 16.0703C21.7193 15.9888 21.5247 15.5771 21.6146 15.2277C21.6994 14.8979 22.168 14.7808 22.4594 14.8333C22.7302 14.8821 23.0538 15.3167 22.939 15.5986C22.9015 15.6907 22.7397 15.7297 22.651 15.7297C22.5379 15.7297 22.4684 15.6202 22.4415 15.5202C22.3472 15.1686 22.6904 15.1434 22.9524 15.147C23.2852 15.1517 23.3155 15.5127 23.3155 15.7823C23.3155 16.0727 23.1956 16.3513 22.8841 16.3975C22.7631 16.4154 22.6306 16.4378 22.5087 16.4378C22.4085 16.4378 22.319 16.4047 22.2219 16.3975C22.0608 16.3856 21.8168 16.265 21.7322 16.1241C21.667 16.0154 21.6139 15.8907 21.572 15.7711C21.5301 15.6512 21.5205 15.5214 21.5205 15.3958C21.5205 15.0903 21.612 14.8932 21.7827 14.6428" stroke="#F4FF95" stroke-width="1.03954" stroke-linecap="round"/>
<path d="M14.4575 12.5402C14.5137 12.5823 14.3272 12.1916 14.3129 12.1661C14.1815 11.9323 14.0057 11.6341 13.7895 11.4667C13.5736 11.2996 13.3065 11.1803 13.0712 11.0423C12.7693 10.8653 12.4543 10.7136 12.1345 10.5724C11.5517 10.315 10.9297 10.1637 10.2908 10.1637C10.0974 10.1637 9.90928 10.159 9.72025 10.2046C9.64437 10.2229 9.55656 10.2486 9.4782 10.2486" stroke="#F4FF95" stroke-width="1.03954" stroke-linecap="round"/>
<path d="M13.6389 11.8343C13.6389 11.585 13.6799 12.3536 13.5744 12.5795C13.3943 12.9655 12.9191 13.0913 12.5266 13.067C12.0924 13.0402 11.6839 12.5449 11.7212 12.1116C11.7369 11.9285 11.8437 11.7047 11.9823 11.5809C12.1088 11.4678 12.303 11.4793 12.4605 11.4834C12.6504 11.4883 12.8174 11.5905 12.942 11.7309C13.0735 11.8791 13.2164 12.059 13.2091 12.2684C13.2035 12.4271 13.0577 12.5476 12.9276 12.6168C12.7989 12.6853 12.5352 12.7641 12.4096 12.6482C12.2608 12.511 12.2143 11.9066 12.4961 11.881C12.5829 11.8731 12.6851 11.8773 12.7614 11.9225C12.9162 12.0141 12.9516 12.1412 12.9674 12.3074" stroke="#F4FF95" stroke-width="1.03954" stroke-linecap="round"/>
</svg>
