<svg width="37" height="38" viewBox="0 0 37 38" fill="none" xmlns="http://www.w3.org/2000/svg">
<rect x="-0.519772" y="0.519772" width="34.305" height="35.8643" rx="4.67795" transform="matrix(-1 0 0 1 34.9939 0.711426)" fill="#F32D12" stroke="black" stroke-width="1.03954"/>
<path d="M16.7994 11.7053C17.0752 11.6492 17.351 11.5931 17.6269 11.537C18.1709 11.4264 18.5187 11.1618 18.972 10.8573C19.4613 10.5287 19.9179 10.1507 20.4166 9.83357C21.4636 9.16767 22.8001 8.85637 24.0238 8.74532C26.3725 8.53219 28.8929 10.2866 29.4442 12.6221C29.5837 13.2129 29.6851 13.795 29.5572 14.3959C29.3817 15.2206 29.0622 16.0215 28.7135 16.7832C27.827 18.7193 26.4654 20.5082 25.0357 22.0602C23.6228 23.5939 22.1165 25.0099 20.5023 26.3237C19.4014 27.2197 18.3239 28.1438 17.2607 29.0855C16.539 29.7247 15.8538 30.4235 15.0833 31.0037C14.4104 31.5104 13.6544 31.9994 12.8787 32.3285C12.7112 32.3996 12.5205 32.5578 12.3281 32.5536C11.9728 32.5459 11.6763 31.4887 11.6005 31.2749C11.249 30.2832 11.043 29.2417 10.8314 28.2131C10.6267 27.2184 10.4272 26.2277 10.3231 25.2165C10.025 22.3217 9.69789 19.4431 9.3034 16.5609C9.16406 15.5428 9.01289 14.5289 8.98667 13.4996C8.95571 12.284 9.13532 11.0154 9.38818 9.83215C9.60087 8.83686 9.96618 7.83299 10.4537 6.94476C10.8798 6.16861 11.4085 5.57322 12.2822 5.32369C12.9829 5.12356 13.6797 5.00832 14.3765 5.28339C14.9609 5.51409 15.4853 5.82919 15.9776 6.22248C16.6939 6.7948 17.3896 7.45417 17.911 8.21214C18.1689 8.58692 18.3991 8.93789 18.5954 9.35307C18.6832 9.53887 18.9497 9.79149 19.1569 9.82754C19.3658 9.86391 19.5505 9.8202 19.7574 9.8108C20.122 9.79424 20.4675 9.82764 20.7834 9.5996" stroke="black" stroke-width="1.03954" stroke-linecap="round"/>
<path d="M21.7195 15.448C21.2705 15.448 22.6175 15.4409 23.0664 15.448C23.735 15.4585 24.4735 15.6484 24.9299 16.1728C25.1877 16.469 25.4071 16.7957 25.5687 17.1532C25.6219 17.2707 25.6552 17.3892 25.6937 17.5115C25.6972 17.5226 25.7258 17.6455 25.7312 17.6434C25.8215 17.6073 25.2424 16.705 25.2077 16.6588C24.9287 16.2886 24.5376 16.0683 24.144 15.8479C23.5557 15.5184 22.7331 15.473 22.0708 15.473C21.8031 15.473 21.5455 15.5292 21.2987 15.6341C21.2509 15.6544 21.0128 15.7228 21.0446 15.7785C21.0956 15.8676 21.1021 15.9803 21.1252 16.0784C21.176 16.2951 21.249 16.504 21.3321 16.7102C21.5212 17.1795 21.8137 17.4684 22.2083 17.7781C22.9207 18.337 23.6717 18.7208 24.5828 18.8029C24.9331 18.8344 25.3585 18.7326 25.6187 18.4724" stroke="black" stroke-width="1.03954" stroke-linecap="round"/>
<path d="M23.8939 16.7224C23.8939 17.2174 23.9729 17.8693 23.4801 18.168C23.3815 18.2277 23.1173 18.2717 23.033 18.1652C22.8443 17.9269 22.9006 17.4851 22.9996 17.2279C23.0854 17.0051 23.2024 16.7735 23.444 16.6974C23.5469 16.665 23.7721 16.6332 23.8689 16.6905C24.0305 16.786 24.0341 17.1686 23.9772 17.3223C23.9053 17.5168 23.6564 17.5796 23.4718 17.5709C23.2204 17.5589 23.1666 17.2556 23.1732 17.0501C23.1813 16.7988 23.3643 16.4897 23.619 16.4225C23.7294 16.3933 23.9064 16.3697 24.0189 16.4086C24.2102 16.4748 24.1688 16.7011 24.1688 16.8599C24.1688 17.3362 23.8244 17.7555 23.344 17.8166C23.1296 17.8439 23.0766 17.6047 23.0704 17.4459C23.0607 17.1926 23.1275 17.0012 23.219 16.7724" stroke="black" stroke-width="1.03954" stroke-linecap="round"/>
<path d="M17.4454 15.3979C17.4454 14.5255 17.5192 13.6876 16.9982 12.9318C16.6588 12.4393 16.2124 11.9262 15.6596 11.6737C15.1762 11.4528 14.589 11.3545 14.0572 11.3487C13.935 11.3474 13.8128 11.3487 13.6906 11.3487C13.3891 11.3487 13.2064 11.721 13.0713 11.9431C12.8833 12.2518 12.8193 12.5477 12.8213 12.9095C12.8254 13.6679 13.0383 14.4555 13.4115 15.1174C13.9354 16.0467 15.0682 16.5425 16.0818 16.6588C16.3959 16.6948 16.776 16.6447 16.983 16.3963C17.1145 16.2385 17.0771 16.0275 17.1343 15.8478C17.1839 15.6919 17.1893 15.546 17.1968 15.384C17.206 15.1869 17.2454 14.9967 17.2454 14.798" stroke="black" stroke-width="1.03954" stroke-linecap="round"/>
<path d="M16.7954 13.7981C16.5739 13.969 16.3956 14.1855 16.1566 14.3355C15.917 14.486 15.6553 14.5724 15.379 14.6285C14.9978 14.7059 14.4493 14.6807 14.3459 14.2036C14.1306 13.2109 15.5902 12.8031 16.3149 12.7983C16.5647 12.7967 16.9164 12.7732 16.9426 13.101C16.9785 13.5504 16.73 13.9013 16.4094 14.1939C16.1102 14.4668 15.7211 14.5859 15.3207 14.6174C15.1264 14.6327 14.822 14.6639 14.7611 14.4202C14.687 14.1238 15.0544 13.7675 15.2568 13.6037C15.4992 13.4075 15.7552 13.2654 16.0705 13.2496C16.132 13.2465 16.3955 13.2094 16.3955 13.3177C16.3955 13.4702 16.0788 13.5709 15.9719 13.6218C15.7801 13.7131 15.5828 13.7761 15.3873 13.8537C15.3152 13.8823 15.2226 13.9481 15.1457 13.9481" stroke="black" stroke-width="1.03954" stroke-linecap="round"/>
<path d="M15.1207 19.5968C15.3585 19.4521 15.5885 19.3182 15.8539 19.2261C16.2951 19.0729 16.7612 19.0738 17.2231 19.0719C17.6655 19.0702 18.0893 19.0785 18.4964 19.2775C18.8985 19.4739 19.2775 19.8299 19.5157 20.2078C19.5576 20.2744 19.8216 20.6199 19.7531 20.7133C19.4621 21.1102 19.2423 21.5204 18.8061 21.7936C18.484 21.9954 18.0708 22.0522 17.6994 22.0825C17.2691 22.1175 16.8268 22.1433 16.3955 22.1102C15.7616 22.0617 15.1629 21.8382 14.7222 21.3715C14.4911 21.1268 14.4694 20.7436 14.4986 20.4217C14.519 20.1979 14.6773 20.0274 14.7458 19.8218" stroke="black" stroke-width="1.03954" stroke-linecap="round"/>
<path d="M17.0454 19.5722C17.2439 19.5722 17.1953 20.2644 17.1953 20.3748C17.1953 20.6291 17.226 21.1251 16.9148 21.2468C16.7221 21.3222 16.6084 21.1526 16.5344 20.9969C16.365 20.6407 16.2563 20.2142 16.2997 19.8166C16.3462 19.3902 17.0582 19.3375 17.3286 19.5527C17.5016 19.6904 17.5922 19.9472 17.6203 20.1582C17.6528 20.4033 17.6838 20.7088 17.63 20.9538C17.594 21.1175 17.4205 21.1592 17.2703 21.1385C16.9215 21.0904 16.7522 20.6435 16.701 20.347C16.6561 20.0871 16.6299 19.5472 17.0204 19.5472C17.3416 19.5472 17.3597 19.9898 17.3703 20.222" stroke="black" stroke-width="1.03954" stroke-linecap="round"/>
<path d="M10.9468 19.3467C11.115 19.3467 11.2986 19.3251 11.4606 19.3773C11.7618 19.4743 12.0182 19.8499 12.1938 20.0938C12.6513 20.7293 12.7878 21.4571 12.7714 22.2323C12.7624 22.6599 12.539 23.0242 12.3493 23.3931C12.3074 23.4745 12.1988 23.7582 12.2229 23.5292C12.2315 23.4474 12.2413 23.3669 12.2479 23.2848C12.2502 23.2558 12.2735 23.1306 12.2715 23.2321C12.2662 23.5045 12.1197 23.837 11.9605 24.0541C11.8723 24.1744 11.7997 24.0757 11.6911 23.9889C11.3756 23.7365 11.1493 23.4248 10.8912 23.121C10.5315 22.6974 10.1686 22.3029 10.0595 21.7449C9.9597 21.235 9.94189 20.6766 10.1469 20.191C10.1989 20.0681 10.2686 19.9401 10.3344 19.823C10.372 19.7562 10.4469 19.6741 10.4469 19.5967" stroke="black" stroke-width="1.03954" stroke-linecap="round"/>
<path d="M12.2961 21.3466C12.1732 21.3466 12.0439 21.5014 11.9476 21.5688C11.8529 21.6351 11.657 21.5966 11.5463 21.5966C11.3341 21.5966 11.1403 21.4792 11.2019 21.2272C11.2574 21.0004 11.8104 20.7154 12.0337 20.8356C12.1986 20.9244 12.1712 21.0805 12.1712 21.2411C12.1712 21.4563 12.0006 21.7754 11.7699 21.8215C11.5933 21.8568 11.3134 21.9606 11.2269 21.7271C11.0279 21.1898 11.78 20.6887 12.2462 20.9217" stroke="black" stroke-width="1.03954" stroke-linecap="round"/>
<path d="M15.1456 26.5206C15.1456 26.2725 15.3133 26.0699 15.4831 25.8957C15.7886 25.582 16.3423 25.4766 16.762 25.4513C17.4233 25.4115 18.1091 25.48 18.6644 25.8707C19.1152 26.188 18.6763 26.8874 18.4908 27.2121C17.9589 28.1429 16.7056 28.7602 15.7733 28.0091C15.4078 27.7148 15.2864 27.2427 15.1456 26.8205" stroke="black" stroke-width="1.03954" stroke-linecap="round"/>
<path d="M16.8705 26.1206C16.9409 26.2702 16.8955 26.5101 16.8955 26.6691C16.8955 26.7032 16.9128 27.1709 16.8205 27.0093C16.7154 26.8253 16.6479 26.6559 16.6011 26.4455C16.5785 26.3436 16.5595 26.0678 16.6705 26.2844C16.7762 26.4905 16.8322 26.7332 16.9455 26.9315C16.9861 27.0027 17.1349 26.981 17.1829 26.9329C17.2973 26.8185 17.4822 26.0829 17.2204 25.9956" stroke="black" stroke-width="1.03954" stroke-linecap="round"/>
<path d="M26.1934 11.4488C26.1828 11.5442 26.0479 11.6679 25.9907 11.7362C25.8646 11.8865 25.6675 12.1134 25.4894 12.1972C25.2482 12.3107 24.9907 12.3711 24.7284 12.4111C24.4716 12.4502 24.1397 12.5132 23.9064 12.375C23.5538 12.166 23.3092 11.8352 23.0496 11.5237C22.8872 11.3289 22.6793 10.9982 22.7886 10.7433C22.8779 10.5349 22.9685 10.3023 23.1315 10.1393C23.3336 9.93724 23.6022 9.8389 23.8675 9.75048C24.4733 9.54856 25.1763 9.55879 25.7532 9.83657C26.2363 10.0692 26.2184 10.6271 26.2184 11.0738" stroke="black" stroke-width="1.03954" stroke-linecap="round"/>
<path d="M24.9187 10.3487C24.9187 10.546 24.9754 10.844 24.8743 11.018C24.7881 11.1662 24.6315 11.1821 24.4883 11.0929C24.1226 10.8654 24.2439 10.3218 24.2439 9.94873" stroke="black" stroke-width="1.03954" stroke-linecap="round"/>
<path d="M18.067 10.1782C18.1243 10.1782 18.4808 10.1782 18.3446 10.1782C18.2442 10.1782 17.9534 10.1653 17.9534 10.0079C17.9534 9.94356 18.1715 9.97365 18.2108 9.97889C18.4041 10.0047 18.3932 10.2207 18.2487 10.3095C18.1607 10.3635 17.9226 10.4172 17.8979 10.2691C17.8741 10.1261 18.481 10.1747 18.5742 10.1795C18.6703 10.1844 18.7256 10.2017 18.7256 10.3044C18.7256 10.5674 18.0987 10.515 17.9559 10.4697C17.5652 10.3458 17.2411 9.97971 17.1056 9.59786C17.0528 9.44916 17.0468 9.2875 17.0172 9.13355C16.9746 8.91112 16.9108 8.69377 16.8229 8.48504C16.7724 8.36482 16.5549 7.9077 16.833 8.20999C17.2412 8.65361 17.4801 9.20283 17.744 9.73664C17.7474 9.74353 17.8121 9.88974 17.8247 9.88552C17.8313 9.88334 17.552 9.35134 17.5396 9.32785C17.3974 9.05838 17.2383 8.7933 17.1157 8.51406C17.0557 8.37757 17.1372 8.40995 17.2242 8.49261C17.5456 8.79825 17.7502 9.25771 17.9244 9.65589C18.1212 10.1058 18.2913 10.5785 18.4114 11.0551C18.4136 11.0638 18.4942 11.4037 18.4657 11.3907C18.3931 11.3577 18.323 11.2503 18.2789 11.1926C18.1529 11.0279 18.0399 10.8531 17.9332 10.6753C17.6003 10.1204 17.3492 9.51821 17.0904 8.92663C17.0788 8.89999 16.8527 8.53406 16.8457 8.54812C16.8278 8.58387 16.8445 8.69189 16.8469 8.71593C16.8683 8.92748 16.9166 9.13507 16.9592 9.34299C17.0723 9.89507 17.1623 10.4518 17.2772 11.0034C17.3046 11.1354 17.3306 11.2677 17.3579 11.3996C17.3817 11.5145 17.1293 11.3366 17.0273 11.2784C16.6008 11.0351 16.1903 10.7578 15.7858 10.4798C15.5905 10.3455 15.3961 10.2089 15.208 10.0647C15.1902 10.0511 15.0577 9.96451 15.0465 9.92337C15.0349 9.88077 15.1338 9.94278 15.1726 9.96375C15.3247 10.0458 15.4687 10.1462 15.6117 10.2426C15.9633 10.4794 16.3101 10.7261 16.6501 10.9794C16.7616 11.0625 16.978 11.1794 17.0526 11.3037C17.0938 11.3724 16.907 11.2365 16.8356 11.2002C16.579 11.0697 16.3207 10.943 16.0621 10.8167C15.6806 10.6302 15.2884 10.4549 14.9216 10.2401C14.899 10.2268 14.7877 10.1754 14.7714 10.1429C14.7373 10.0746 14.9161 10.1926 14.9859 10.2237C15.3664 10.3931 15.7963 10.6137 16.1214 10.8823C16.2617 10.9982 15.7655 10.8043 15.5915 10.751C15.282 10.6563 14.9844 10.5475 14.6831 10.4306C14.5327 10.3722 14.6938 10.4052 14.7613 10.4154C14.9068 10.4374 15.0551 10.4834 15.1903 10.5416C15.1969 10.5445 15.3363 10.6003 15.2786 10.6047C14.7973 10.6417 14.2694 10.5338 13.7999 10.4432C13.5611 10.3971 13.3245 10.3333 13.0959 10.2502C12.9457 10.1955 13.042 10.2038 13.135 10.2401C13.313 10.3095 13.4871 10.3893 13.6649 10.4596C13.7008 10.4738 13.8264 10.5075 13.839 10.5517C13.8441 10.5696 13.8033 10.5652 13.7848 10.5643C13.6665 10.5589 13.5515 10.5299 13.4378 10.4987C13.0123 10.3818 12.5868 10.248 12.1711 10.1C11.9821 10.0327 11.7845 9.96539 11.6046 9.87543C11.5219 9.83408 11.7752 9.9469 11.8582 9.98772C12.0929 10.1032 12.3257 10.2292 12.566 10.3322C12.7431 10.4081 12.2097 10.1832 12.0411 10.0899C11.721 9.91277 11.3875 9.72924 11.1327 9.46159C10.9475 9.26704 10.8773 9.08052 11.1756 8.96701C11.646 8.788 12.0609 9.15684 12.1471 9.60543C12.1667 9.70762 12.193 9.88601 12.1067 9.96753C11.892 10.1703 11.5907 9.91509 11.4695 9.74421C11.1547 9.30033 11.1907 8.65717 11.1907 8.13807C11.1907 7.98735 11.1697 7.64815 11.2639 7.51353C11.2905 7.47557 11.2751 7.60613 11.2715 7.65231C11.258 7.82219 11.2199 7.98479 11.168 8.1469C11.0536 8.50416 10.9032 8.8733 10.705 9.19285C10.6713 9.24705 10.5499 9.44408 10.5069 9.28748C10.4285 9.00186 10.4785 8.63393 10.5296 8.34877C10.5682 8.13295 10.6117 7.9071 10.686 7.70026C10.6913 7.68567 10.7921 7.4883 10.7945 7.50091C10.847 7.77053 10.6387 8.14755 10.5321 8.37653C10.3932 8.67507 10.2221 8.95565 10.0653 9.24458C10.0571 9.25963 10.049 9.27469 10.0413 9.29C10.0292 9.31426 10.0685 9.24307 10.0817 9.21935C10.1668 9.06563 10.2461 8.90942 10.3201 8.74999C10.5496 8.25603 10.7372 7.74922 10.9308 7.241C10.9672 7.14554 11.0032 7.05065 11.0343 6.95333C11.0426 6.92713 11.0529 6.85405 11.0671 6.87763C11.0863 6.90971 11.0721 7.04967 11.0721 7.06815C11.0721 7.28163 11.0692 7.4946 11.057 7.70783C11.0376 8.04607 11.0018 8.38243 10.9598 8.71845C10.9592 8.72377 10.9068 9.0748 10.9573 8.93294C11.248 8.11615 11.4508 7.27105 11.7471 6.45622C11.8295 6.22957 11.7957 6.60745 11.7951 6.66188C11.7875 7.29628 11.7059 7.9249 11.5844 8.54686C11.5435 8.75594 11.4947 8.96305 11.4506 9.1714C11.4333 9.25322 11.4271 9.3551 11.3913 9.43257C11.3753 9.46732 11.3662 9.35854 11.3674 9.32028C11.375 9.07054 11.4198 8.82217 11.4645 8.57714C11.5463 8.12879 11.6494 7.6864 11.766 7.24605C11.8061 7.09494 11.8342 6.93394 11.9074 6.79436C11.926 6.75869 11.9357 6.78366 11.9402 6.81455C11.9733 7.04279 11.9618 7.28403 11.9528 7.51353C11.9416 7.79882 11.9117 8.08688 11.8392 8.36391C11.7921 8.54406 11.774 8.40802 11.7761 8.30083C11.7845 7.87909 11.8546 7.44029 12.031 7.05427C12.1342 6.82846 12.3008 6.56351 12.5887 6.62024C12.9472 6.69092 13.0882 7.03506 13.1918 7.34572C13.3516 7.82532 13.4236 8.32227 13.4088 8.82696C13.4036 9.00229 13.407 9.23766 13.2372 9.34425C13.0778 9.44433 12.9176 9.35498 12.8044 9.2307C12.4517 8.84318 12.1203 8.05297 12.518 7.58544C12.6244 7.46045 12.7757 7.34957 12.9445 7.3432C13.1502 7.33543 13.1579 7.50513 13.1703 7.67629C13.192 7.97563 13.1874 8.28674 13.0984 8.57588C13.0569 8.71062 12.9859 8.88947 12.8435 8.94682C12.4099 9.12149 12.4951 7.62503 12.5937 7.42268C12.7165 7.17079 12.9586 6.84699 13.275 6.86754C13.5669 6.88649 13.8013 7.17439 13.9412 7.4025C14.1064 7.67175 14.2089 7.98726 14.2415 8.30083C14.2541 8.42172 14.2943 8.66798 14.1179 8.70457C13.8053 8.76939 13.4742 8.25628 13.3671 8.03335C13.2326 7.75305 13.0914 7.22684 13.2624 6.93315C13.4372 6.63304 13.8491 6.79309 14.0724 6.93062C14.5292 7.21193 14.803 7.77075 15.0036 8.2491C15.1235 8.53501 15.1954 8.85098 15.2042 9.16131C15.2058 9.21776 15.2471 9.43731 15.1297 9.34552C14.9643 9.2162 14.8353 9.01076 14.721 8.84084C14.4825 8.48655 14.2688 8.11591 14.0724 7.73685C13.953 7.50627 13.8333 7.27065 13.7722 7.01642C13.7472 6.91288 13.6613 6.64371 13.7608 6.54959C13.8327 6.48152 13.9875 6.5538 14.0409 6.57608C14.3616 6.70989 14.6427 6.94484 14.8951 7.17792C15.6452 7.87063 16.2679 8.70684 16.8229 9.56C17.0109 9.84897 17.2002 10.1452 17.3655 10.4482C17.4205 10.5491 17.4168 10.5683 17.3226 10.4886C16.7946 10.0422 16.3124 9.54041 15.9044 8.98215C15.8823 8.95193 15.7262 8.7229 15.7555 8.75883C15.9389 8.98294 16.1014 9.22666 16.2262 9.48809C16.3091 9.66187 16.384 9.8401 16.4545 10.0193C16.4812 10.0871 16.538 10.2197 16.4192 10.1202C15.9994 9.76849 15.6148 9.34819 15.2584 8.9342C15.0364 8.67626 14.7266 8.36752 14.6074 8.03587C14.5593 7.90203 14.9771 8.06042 14.9985 8.06868C15.2989 8.1841 15.5956 8.32292 15.8817 8.4699C15.9115 8.48518 16.172 8.66395 16.1946 8.57588C16.2585 8.32741 16.1754 8.00345 16.1088 7.76587C16.051 7.55964 15.9799 7.35421 15.8779 7.1653C15.843 7.1006 15.747 7.00655 15.8805 7.05932C16.0706 7.13449 16.2557 7.2408 16.4306 7.34572C16.5165 7.39732 16.63 7.4477 16.7081 7.50848C17.0217 7.75239 16.0548 7.05571 15.7391 6.81455C15.4673 6.60686 15.1813 6.44281 14.8585 6.32753C14.63 6.24594 14.4028 6.16342 14.1759 6.07771C14.0745 6.03942 13.9249 6.06762 13.8201 6.06762C13.5983 6.06762 13.3836 6.11304 13.1615 6.11304C13.0252 6.11304 12.889 6.11304 12.7527 6.11304C12.4354 6.11304 12.1159 6.18678 11.8443 6.35276C11.7309 6.42205 11.6479 6.56492 11.5717 6.67071C11.417 6.88571 11.4355 7.17805 11.549 7.40754C11.7669 7.8479 12.0784 8.33386 12.5231 8.56831C12.8837 8.75848 13.3041 8.78656 13.6662 8.97458C13.9353 9.11434 14.1876 9.25438 14.4333 9.43383C14.471 9.46137 14.7712 9.69859 14.5998 9.70131C14.0403 9.7102 13.2856 9.55182 12.947 10.124C12.7151 10.5158 12.5845 11.0143 12.4688 11.4513C12.3498 11.901 12.223 12.3461 12.0966 12.7937C12.054 12.9446 11.9892 13.1334 11.9805 13.2896C11.9787 13.323 12.0165 13.2325 12.0285 13.2013C12.1759 12.8171 12.4058 12.4928 12.6619 12.1717C12.9904 11.7598 13.3666 11.4241 13.8251 11.1725C14.0039 11.0744 14.1384 10.932 14.292 10.8015C14.3351 10.7648 14.3767 10.7387 14.4308 10.7233C14.4863 10.7074 14.2463 10.6897 14.239 10.6892C13.5906 10.6487 12.9122 10.7545 12.4486 11.2545C12.0291 11.707 11.8597 12.3877 11.7004 12.9716C11.699 12.9768 11.666 13.1484 11.6273 13.0991C11.5883 13.0495 11.5857 12.9422 11.5818 12.8884C11.5643 12.6406 11.5684 12.388 11.5781 12.1402C11.605 11.4441 11.7769 10.7766 11.9604 10.1076C12.0412 9.81263 12.115 9.46007 12.2758 9.19411C12.2988 9.15606 12.3455 9.09093 12.3893 9.07046C12.3984 9.06624 12.3872 9.09108 12.3818 9.09948C12.3169 9.20039 12.2631 9.30727 12.2127 9.41617C11.6524 10.6273 11.3166 11.9197 10.8728 13.1735C10.84 13.266 10.8062 13.4773 10.7315 13.552C10.7308 13.5527 10.7177 13.0136 10.7188 12.9918C10.7548 12.2717 10.8795 11.5601 10.9787 10.8469C11.0605 10.2595 11.1227 9.6668 11.221 9.08182C11.2235 9.06677 11.2862 8.64149 11.3106 8.64149C11.3424 8.64149 11.312 9.19243 11.3118 9.19411C11.2516 9.94762 11.0775 10.6999 10.9472 11.4437C10.8494 12.0021 10.7525 12.5615 10.6444 13.118C10.6372 13.155 10.623 13.3879 10.5712 13.4095C10.4815 13.4468 10.4302 12.5677 10.4299 12.5616C10.3949 11.7212 10.4065 10.8752 10.4186 10.0344C10.4254 9.55738 10.4751 9.08255 10.4816 8.60616C10.4816 8.60565 10.4816 8.39806 10.4816 8.49513C10.4816 8.68661 10.4451 8.86579 10.4009 9.0528C10.0887 10.3745 9.79908 11.6889 9.59088 13.0322C9.57902 13.1087 9.5875 13.3625 9.52275 13.4208C9.45572 13.4811 9.48197 13.2435 9.48237 13.1533C9.48605 12.33 9.63285 11.5115 9.77635 10.7031C9.81359 10.4933 9.86961 10.2902 9.91261 10.0823C9.9252 10.0215 9.95158 10.0034 9.97191 10.0773C10.0679 10.4265 10.118 10.7962 10.1788 11.1523C10.3046 11.8879 10.4114 12.6262 10.5144 13.3653C10.5637 13.7187 10.6216 14.0708 10.6734 14.4239C10.6805 14.4719 10.6829 14.6234 10.7315 14.6598C10.7719 14.6902 11.2143 12.947 11.6121 13.9331C11.8322 14.4785 11.8963 15.0829 12.0234 15.654C12.0633 15.8331 12.075 16.0972 12.1799 16.2546C12.2021 16.2879 12.2469 16.3008 12.2808 16.2722C12.3412 16.2215 12.3614 16.1182 12.378 16.0489C12.4261 15.8473 12.4515 15.6385 12.465 15.432C12.5081 14.7759 12.4192 14.1058 12.4814 13.4523C12.4961 13.2989 12.5676 13.7485 12.6063 13.8977C12.7044 14.2759 12.7557 14.6553 12.7969 15.0434C12.8238 15.2973 12.8359 15.5536 12.8877 15.8042C12.8972 15.8501 12.9319 15.9297 12.9319 15.977C12.9319 16.0157 12.8868 15.9139 12.8663 15.8811C12.7363 15.6742 12.6167 15.4621 12.5016 15.2465C12.1184 14.5284 11.7646 13.7951 11.4292 13.0537C11.3498 12.8783 11.3641 12.909 11.2942 12.7584C11.2696 12.7055 11.2335 12.5485 11.2134 12.6032C11.1834 12.685 11.2326 12.9252 11.2399 12.9855C11.2804 13.3192 11.344 13.6486 11.4077 13.9785C11.5294 14.6081 11.6399 15.2356 11.6399 15.8786C11.6399 15.9839 11.4756 15.8802 11.4355 15.8508C11.2544 15.7182 11.1969 15.4375 11.0494 15.2654" stroke="black" stroke-width="1.03954" stroke-linecap="round"/>
<path d="M11.0495 15.2651C11.0495 15.5957 11.0495 15.9263 11.0495 16.2568C11.0495 16.505 11.0495 16.7531 11.0495 17.0012C11.0495 17.0935 11.0794 17.2475 11.0469 17.3368C11.0281 17.3886 10.9594 17.2681 10.9258 17.2245C10.7011 16.9332 10.5094 16.6158 10.3353 16.2921C9.99753 15.664 9.67145 14.9748 9.50893 14.2759C9.4895 14.1924 9.47652 14.1069 9.45089 14.0249C9.44762 14.0144 9.52741 14.1643 9.53795 14.1876C9.76867 14.6992 9.84005 15.278 9.91141 15.8291C9.9339 16.0028 9.9549 16.1769 9.96945 16.3514C9.9822 16.5044 9.98529 16.658 9.97702 16.383C9.95019 15.491 9.96946 14.5991 9.95809 13.7069C9.95616 13.5551 9.92961 13.3929 9.94043 13.2414C9.9428 13.2082 10.0289 13.4536 10.0313 13.4609C10.2373 14.0912 10.4349 14.7276 10.5953 15.3711C10.7409 15.9555 10.8996 16.5037 10.9233 17.1097C10.9243 17.135 10.952 17.9471 10.9031 17.9349C10.8076 17.911 10.7603 17.6366 10.7441 17.5766C10.6256 17.1365 10.5687 16.6849 10.5195 16.2328C10.5069 16.1168 10.4885 16.0001 10.483 15.8834C10.4808 15.8377 10.4773 15.7473 10.4867 15.8556C10.5393 16.4567 10.5326 17.0619 10.5259 17.6649C10.5221 17.9975 10.5356 18.4287 10.3909 18.7424C10.3692 18.7893 10.323 18.7896 10.295 18.7525C10.1273 18.5309 10.11 18.2056 10.0868 17.9399C10.0825 17.8908 10.0259 17.357 10.083 17.3368C10.1522 17.3124 10.1638 18.1897 10.1638 18.2566C10.1638 18.2952 10.2023 18.8896 10.1183 18.8938C9.96383 18.9015 9.91646 17.2883 9.91646 17.1059C9.91646 17.0604 9.90566 16.35 10.0325 16.4107C10.1282 16.4566 10.2046 16.5883 10.2596 16.6707C10.4597 16.97 10.5887 17.3017 10.7075 17.6396C10.8402 18.0167 10.9339 18.4402 11.1176 18.7979C11.1473 18.8557 11.1403 18.7415 11.1403 18.7398C11.1431 18.3824 11.1403 18.0248 11.1403 17.6674C11.1403 17.4294 11.1403 17.1913 11.1403 16.9533C11.1403 16.9364 11.1177 16.6907 11.1504 16.6782C11.2009 16.659 11.2934 16.7952 11.3094 16.817C11.4712 17.0369 11.5927 17.293 11.6816 17.5501C11.8255 17.9661 11.9193 18.4188 11.9125 18.861C11.9117 18.914 11.9178 19.027 11.8292 19.0023C11.6241 18.9452 11.5413 18.6295 11.4974 18.4585C11.403 18.0916 11.3817 17.7088 11.3712 17.3318C11.3634 17.05 11.3662 16.7873 11.4482 16.5167C11.5165 16.2911 11.6068 16.1553 11.7447 16.4473C11.9828 16.9517 12.0234 17.5447 12.1383 18.085C12.1759 18.2616 12.2069 18.4415 12.2531 18.6162C12.2706 18.6823 12.3185 18.7564 12.3213 18.8256C12.3234 18.8795 12.2742 18.7282 12.2582 18.6768C12.096 18.1564 11.9995 17.6233 11.9528 17.0807C11.932 16.8381 11.9182 16.5937 11.9137 16.3502C11.9123 16.2739 11.8776 16.0723 11.9352 16.002C12.0367 15.8778 12.3835 16.7555 12.3881 16.7691C12.7045 17.6881 12.8031 18.6839 12.8386 19.6508C12.8436 19.7887 12.8436 19.9267 12.8436 20.0646C12.8436 20.0781 12.8469 20.1181 12.8436 20.105C12.8329 20.0621 12.8339 19.9998 12.8285 19.9586C12.7149 19.1015 12.4546 18.2635 12.291 17.4151C12.1975 16.9302 12.0942 16.4184 12.0942 15.9212C12.0942 15.8993 12.0858 15.8099 12.132 15.8581C12.2611 15.9929 12.3372 16.2021 12.4159 16.3666C12.7321 17.0278 12.8936 17.7131 12.9521 18.4421C12.9887 18.8986 12.9785 19.3823 13.0821 19.8312C13.0868 19.8518 13.111 19.9381 13.1275 19.8665C13.1885 19.6022 13.1734 19.3013 13.1792 19.0326C13.1948 18.3077 13.2039 17.5832 13.1086 16.8637C13.104 16.8297 13.0742 16.7087 13.0959 16.6707C13.096 16.6705 13.2329 16.8337 13.2398 16.8422C13.4509 17.1044 13.5664 17.4151 13.7381 17.7015C13.7502 17.7215 13.8403 17.8653 13.8403 17.8567C13.8403 17.5547 13.6874 17.226 13.5931 16.9457C13.5524 16.8248 13.5098 16.7055 13.4618 16.5874C13.4505 16.5595 13.4261 16.5138 13.4353 16.4814C13.4426 16.4559 13.836 16.8039 13.8504 16.817C14.0553 17.0028 14.2399 17.2067 14.4308 17.4062C14.5027 17.4814 14.5538 17.4482 14.509 17.3494C14.4158 17.1437 14.1854 16.994 14.0069 16.87C13.8237 16.7428 14.0039 16.8512 14.1053 16.8978C14.5668 17.1098 15.0473 17.3545 15.5638 17.3545C15.8464 17.3545 16.1204 17.2924 16.4041 17.2864C16.7648 17.2787 17.1155 17.1274 17.4766 17.1274" stroke="black" stroke-width="1.03954" stroke-linecap="round"/>
<path d="M17.5674 17.6952C17.5674 17.3336 17.5674 18.4186 17.5674 18.7803C17.5674 18.9215 17.4373 18.7204 17.4198 18.6819C17.3832 18.6013 17.4085 18.4693 17.4085 18.3841C17.4085 18.1984 17.42 18.0177 17.4652 17.8366C17.4941 17.7211 17.5097 17.5136 17.6696 17.5136C17.7062 17.5136 17.7787 17.4993 17.8046 17.53C17.9047 17.6482 17.787 17.8681 17.7264 17.9728C17.5658 18.2504 17.1636 18.6037 16.8129 18.6037C16.5483 18.6037 16.5741 18.0696 16.5959 17.8996C16.6002 17.8663 16.6243 17.7126 16.6931 17.7432C16.7671 17.7761 16.7239 18.0097 16.707 18.0586C16.5964 18.3781 16.2378 18.5405 15.9247 18.5784C15.6857 18.6074 15.7052 18.4507 15.7052 18.2592C15.7052 18.2138 15.6712 17.9843 15.7102 17.9501C15.7279 17.9347 15.7275 17.9948 15.7279 18.0182C15.7292 18.1004 15.7325 18.1849 15.7254 18.2668C15.6959 18.6053 15.3862 18.7838 15.0693 18.7046C14.8323 18.6454 14.7549 18.4087 14.7513 18.1898C14.7488 18.0335 14.7514 18.0437 14.7854 18.1949C14.8227 18.3606 14.8353 18.5428 14.8144 18.7122C14.7852 18.9485 14.4649 19.1424 14.234 19.0705C14.0694 19.0192 14.0121 18.7518 13.9918 18.61C13.9823 18.5435 13.8907 18.1052 13.9842 18.0637C14.073 18.0242 14.2436 18.0586 14.3375 18.0586C14.5062 18.0586 14.6983 18.0333 14.8636 18.0725C14.9786 18.0997 15.0852 18.161 15.2005 18.1898C15.279 18.2095 15.1161 18.0181 15.1109 18.0132C14.9935 17.9027 14.7972 17.7613 14.6252 17.7911C14.4213 17.8265 14.2718 18.2556 14.2088 18.422C14.0575 18.8219 14.1361 19.2556 14.1142 19.6723C14.1053 19.84 14.0267 19.9965 13.9666 20.1505C13.8804 20.3711 13.7942 20.5893 13.7193 20.8142C13.656 21.004 13.6163 21.1785 13.5805 21.3731C13.5735 21.4107 13.5272 21.6748 13.525 21.5232C13.5215 21.2819 13.489 21.0405 13.4808 20.799C13.4762 20.6642 13.5145 20.4707 13.4291 20.3524C13.3584 20.2545 13.3638 20.3665 13.3672 20.4243C13.3823 20.6798 13.432 20.9374 13.4568 21.1927C13.528 21.9235 13.7065 22.6267 13.6587 23.3678C13.6561 23.408 13.6294 23.6856 13.5477 23.6807C13.4725 23.6763 13.5571 23.0931 13.5615 23.0625C13.6355 22.5528 13.7204 22.0439 13.8429 21.5434C13.8489 21.5188 13.8732 21.2474 13.9464 21.2873C14.1147 21.3791 14.2033 21.7223 14.2618 21.8866C14.3883 22.2416 14.5148 22.6119 14.5785 22.9843C14.6061 23.1458 14.6717 23.4249 14.576 23.5748C14.4555 23.7634 14.1568 23.7745 13.9615 23.7489C13.5697 23.6976 13.3924 23.3708 13.3572 23.0108C13.3478 22.9148 13.2901 22.605 13.4114 22.5376C13.4887 22.4947 13.5285 22.7107 13.5338 22.7446C13.6045 23.2 13.3695 23.6567 13.1616 24.0441C12.9889 24.3658 12.797 24.7056 12.4348 24.8264" stroke="black" stroke-width="1.03954" stroke-linecap="round"/>
<path d="M10.7089 23.9633C10.7128 23.9364 10.7982 24.1631 10.8036 24.1778C10.9236 24.5058 10.9988 24.845 11.0672 25.1871C11.1782 25.742 11.3283 26.278 11.4016 26.8399C11.5107 27.6762 11.6193 28.509 11.6804 29.3507C11.7294 30.0249 11.7319 30.7227 11.8545 31.3884C11.8847 31.5519 11.8837 31.7244 11.9239 31.8855C11.948 31.9819 12.0508 31.9099 12.117 31.8943C12.1954 31.8759 12.2313 31.913 12.276 31.9688C12.2835 31.9782 12.289 31.9468 12.2886 31.9347C12.2822 31.7522 12.2334 31.5675 12.1977 31.3896C12.048 30.6433 11.9382 29.8972 11.8495 29.1413C11.7663 28.4319 11.7319 27.7262 11.5997 27.0242C11.5314 26.6615 11.5319 26.2831 11.471 25.9176C11.4352 25.7031 11.4171 25.4535 11.413 25.2351C11.4102 25.0909 11.3926 24.9254 11.4243 24.7859C11.4652 24.606 11.712 24.906 11.741 24.9424C12.1752 25.4872 12.4047 26.1403 12.4904 26.8261C12.6336 27.9711 12.5878 29.1384 12.7415 30.2831C12.7832 30.5932 12.8777 30.8819 12.9459 31.1852C12.9631 31.2614 12.9831 31.6279 13.0708 31.3745C13.1917 31.0254 13.2335 30.6261 13.2613 30.2604C13.2999 29.7535 13.3125 29.2383 13.2954 28.73C13.2731 28.0652 13.0932 27.413 13.0027 26.7567C12.9161 26.1286 12.5542 25.455 12.7933 24.8263C12.8986 24.5494 13.07 24.3655 13.2765 24.1551C13.3887 24.0407 13.506 23.9355 13.6108 23.8144C13.6502 23.7689 13.706 23.7159 13.7698 23.7135C13.9598 23.7061 13.7979 24.2229 13.7749 24.3165C13.6583 24.7893 13.3888 25.262 13.3888 25.7574C13.3888 26.1986 13.4107 26.6341 13.4291 27.0746C13.4568 27.7343 13.4342 28.399 13.4342 29.0593C13.4342 29.424 13.4115 29.788 13.4115 30.1532C13.4115 30.2529 13.3667 30.4717 13.4241 30.562C13.4977 30.6777 13.3731 30.9293 13.5515 30.9115C13.7964 30.887 14.0873 30.6514 14.253 30.4888C14.4211 30.3239 14.5763 30.1383 14.7287 29.9589C14.835 29.8336 14.9625 29.7236 15.0643 29.5955C15.1542 29.4824 15.2525 29.4382 15.3772 29.3684C15.5084 29.295 15.638 29.1511 15.7784 29.1009C15.8738 29.0669 15.9689 29.0732 16.0686 29.0732C16.1214 29.0732 16.1546 29.0734 16.0989 29.1211C15.9863 29.2176 15.8841 29.3135 15.7545 29.3886C15.4456 29.5674 15.1334 29.7075 14.8372 29.9134C14.6625 30.0349 14.4835 30.1621 14.2896 30.2516C14.0697 30.3531 14.3747 30.1741 14.4272 30.1368C14.9671 29.7522 15.4981 29.3439 16.0775 29.0189C16.215 28.9417 16.3522 28.9388 16.4951 28.8965C16.5374 28.884 16.5806 28.8874 16.6225 28.8688C16.6265 28.867 16.3692 28.8388 16.3248 28.8347C16.036 28.808 15.8429 28.6974 15.6094 28.5407C15.1338 28.2216 14.7775 27.662 14.6101 27.1276C14.5116 26.8132 14.5016 26.5015 14.5016 26.175C14.5016 25.9637 14.4862 25.7443 14.5521 25.5404C14.6092 25.3635 14.6766 25.1834 14.7514 25.013C14.8266 24.8418 14.8687 24.6506 14.9558 24.4856C14.9784 24.4427 15.0236 24.3976 15.058 24.3632C15.0951 24.3262 15.113 24.3535 15.0202 24.3481C14.8939 24.3407 14.7811 24.2859 14.658 24.2636C14.5431 24.2427 14.5495 24.3609 14.5193 24.4503C14.3193 25.0407 14.1376 25.6442 14.0259 26.2583C13.8536 27.2063 13.764 28.3107 14.3515 29.1375C14.4646 29.2968 14.6021 29.4085 14.7741 29.4996C14.7877 29.5068 14.7876 29.5076 14.7804 29.4933C14.7332 29.3989 14.7046 29.2951 14.6707 29.1955C14.5779 28.9236 14.4915 28.6499 14.388 28.3817C14.2879 28.1222 14.1519 27.8816 14.0486 27.6235C14.0136 27.5359 14.0519 27.5462 14.0979 27.6121C14.2877 27.8845 14.4373 28.2021 14.5975 28.4928C14.7306 28.7344 14.8836 28.9668 15 29.217C15.0355 29.2934 15.0784 29.3556 15.1501 29.4012C15.1735 29.4161 15.2229 29.4348 15.251 29.4365C15.3498 29.4427 15.0548 29.4719 14.9634 29.5097C14.5669 29.6736 14.2035 29.9212 13.9591 30.2743C13.9373 30.3057 13.9154 30.3867 13.8834 30.408C13.874 30.4142 13.826 30.0115 13.8253 29.9967C13.8068 29.5888 13.8369 29.2107 13.9212 28.8132C13.9445 28.7033 13.9565 28.5946 13.9565 28.4827" stroke="black" stroke-width="1.03954" stroke-linecap="round"/>
<path d="M19.2705 26.666C19.2705 26.4036 19.2705 26.1412 19.2705 25.8787C19.2705 25.6867 19.2832 25.5909 19.157 25.4447C19.0427 25.3124 18.8069 25.2264 18.6548 25.1495C18.4496 25.0457 18.2377 24.999 18.0151 24.9489C17.4986 24.8326 16.9633 24.8492 16.4368 24.8492C16.1582 24.8492 15.9065 24.8362 15.6696 25.0082C15.5126 25.1222 15.386 25.2675 15.2192 25.369C15.0787 25.4546 14.9371 25.4454 14.9833 25.2201C15.0225 25.0289 15.2822 24.896 15.4337 24.8076C15.6824 24.6625 15.9577 24.5687 16.2361 24.4997C16.7633 24.3691 17.3198 24.3744 17.86 24.4C18.2576 24.4189 18.6091 24.5492 18.9854 24.6625C19.2259 24.7349 19.4475 24.8242 19.644 24.9855C19.9144 25.2073 19.8837 25.5532 19.8837 25.8712C19.8837 25.9393 19.9222 25.9698 19.9518 25.8838C20.0416 25.624 20.0824 25.3109 20.0149 25.041C19.9421 24.7496 19.6161 24.4813 19.374 24.3319C18.8356 23.9995 18.2061 23.8702 17.5849 23.7957C17.3027 23.7618 17.001 23.7719 16.7169 23.7831C16.4191 23.7947 16.1553 23.9294 15.9043 24.072C15.7569 24.1557 15.6073 24.2529 15.4552 24.3269C15.4022 24.3526 15.2781 24.4109 15.218 24.3937C15.1321 24.3692 15.2011 24.0966 15.218 24.0531C15.3184 23.793 15.4073 23.701 15.6696 23.5951C16.5488 23.2402 17.5692 23.3146 18.4517 23.6127C19.0299 23.8081 19.6775 24.1634 19.9973 24.7079C20.0859 24.8588 20.1108 24.9489 20.1108 25.1268C20.1108 25.183 20.0728 25.3822 20.1462 25.3955C20.2558 25.4155 20.273 25.5312 20.348 25.5848C20.3662 25.5978 20.3606 25.4444 20.3606 25.4346C20.3606 25.2565 20.3669 25.0769 20.3455 24.8997C20.251 24.1181 19.9438 23.4302 19.2276 23.0475C18.9959 22.9236 18.7745 22.8913 18.5211 22.8507C18.2208 22.8025 17.9262 22.7694 17.6215 22.7611C16.8004 22.7386 15.9308 22.8013 15.1826 23.1686C15.0343 23.2414 14.8768 23.3454 14.7057 23.3503C14.5681 23.3542 14.5921 23.2037 14.5921 23.1005C14.5921 22.872 14.6693 22.6551 14.9151 22.6059C15.0569 22.5776 15.1923 22.5781 15.3366 22.5781C15.6205 22.5781 15.8615 22.6373 16.139 22.6803C16.5304 22.7411 16.9092 22.862 17.2998 22.9264C17.6938 22.9913 18.104 23.0357 18.5034 23.0324C18.76 23.0302 19.0075 23.0021 19.2327 22.8734C19.339 22.8126 19.4138 22.7105 19.5203 22.6513C19.5852 22.6153 19.5068 22.536 19.4699 22.51C19.3792 22.4462 19.2613 22.4555 19.1557 22.4772C19.0364 22.5018 18.6905 22.5835 18.8113 22.5996C19.1613 22.6463 19.5227 22.4726 19.8711 22.4469C20.2538 22.4187 20.4371 22.6727 20.5877 22.9819C20.7193 23.252 20.8458 23.5016 20.9271 23.7932C21.0275 24.1529 21.0647 24.4831 21.0647 24.8568C21.0647 24.9661 21.0647 25.0755 21.0647 25.1848C21.0647 25.2063 21.0369 25.2631 21.0521 25.2479C21.1053 25.1947 21.13 25.0952 21.1568 25.0284C21.2632 24.7622 21.5189 24.3496 21.8595 24.3496C21.9177 24.3496 21.969 24.314 22.0185 24.2865C22.1463 24.2155 21.8256 23.9484 21.7838 23.8928C21.5517 23.5844 21.354 23.2554 21.1492 22.9289C21.0386 22.7526 20.9286 22.5752 20.772 22.4356C20.6316 22.3105 20.4447 22.248 20.3152 22.1126C20.2006 21.9928 20.0616 21.893 19.943 21.7744C19.8348 21.6663 19.813 21.687 19.702 21.7959C19.5724 21.9231 19.5297 21.9137 19.6591 22.0684C19.8343 22.2779 19.9834 22.5019 20.1411 22.7245C20.3171 22.9729 20.5274 23.2002 20.6849 23.4613C20.9103 23.8351 20.9738 24.3447 20.9738 24.776C20.9738 24.9021 20.9934 25.0412 20.9562 25.1621C20.9496 25.1834 20.9448 25.2109 20.9738 25.2126C21.0394 25.2164 21.0533 25.1201 21.0697 25.0738C21.2163 24.6594 21.3892 24.1557 21.7031 23.8373C21.8181 23.7207 21.9705 23.6359 22.098 23.532C22.2889 23.3765 22.4418 23.1739 22.6304 23.0122C22.755 22.9054 22.8897 22.8173 23.0064 22.7005C23.249 22.4579 23.421 22.1643 23.583 21.864C23.8041 21.4544 24.0007 21.0274 24.2442 20.6301C24.3017 20.5362 24.3332 20.4236 24.3956 20.326C24.5373 20.1041 24.745 19.9296 24.9368 19.7519C25.0271 19.6683 25.135 19.6082 25.2548 19.5816C25.2945 19.5728 25.3883 19.5264 25.4163 19.5501C25.5411 19.6556 25.6345 19.9818 25.579 20.1431C25.5304 20.2846 25.2485 20.4184 25.1349 20.5064C24.8309 20.742 24.5249 20.9776 24.2429 21.2395C23.7352 21.7109 23.4009 22.3317 22.9446 22.8507C22.7957 23.0201 22.6404 23.1778 22.5181 23.368C22.4747 23.4356 22.551 23.3967 22.5888 23.3755C22.9598 23.1682 23.2984 22.8788 23.6171 22.6009C23.9655 22.297 24.3321 22.0074 24.6391 21.6609C24.7823 21.4992 24.9385 21.3522 25.0895 21.1978C25.1794 21.1059 25.2934 21.0039 25.3292 20.8748C25.3778 20.7 25.3641 20.4993 25.3557 20.3197C25.352 20.239 25.2785 20.0763 25.338 20.0093C25.4794 19.8503 25.6843 19.7443 25.8011 19.5627C25.9315 19.3598 25.0835 19.3706 24.9986 19.381C24.5245 19.4394 24.0346 19.3705 23.5616 19.4327C23.5234 19.4377 23.211 19.4433 23.2007 19.4794C23.1902 19.5164 23.1995 19.5695 23.1995 19.6068C23.1995 19.7743 23.1943 19.933 23.1591 20.0976C23.102 20.3647 22.9971 20.5944 22.8765 20.8395C22.5731 21.4561 22.2733 22.0691 21.8911 22.6425C21.7449 22.8617 21.6258 23.0954 21.4861 23.315C21.2454 23.6932 22.0211 22.5946 22.2633 22.2173C22.5993 21.6937 22.9965 21.2135 23.3559 20.707C23.4685 20.5484 23.5609 20.4231 23.7105 20.2957C23.8099 20.211 23.9956 20.1582 24.0574 20.0346C24.1125 19.9244 23.9691 19.7503 23.9111 19.6788C23.685 19.3999 23.3775 19.2833 23.0657 19.1274C22.9134 19.0512 22.7468 18.9973 22.5888 18.9331C22.5578 18.9205 22.3412 18.7861 22.3377 18.7981C22.3239 18.8463 22.3557 18.9229 22.3579 18.9722C22.3689 19.2143 22.3457 19.4635 22.3112 19.7027C22.2244 20.3057 22.0874 20.9312 21.8823 21.5057C21.7592 21.8502 21.56 22.1631 21.4634 22.5176C21.4462 22.5805 21.4053 22.7695 21.4053 22.7043C21.4053 22.5523 21.4793 22.3775 21.5088 22.2287C21.6258 21.6373 21.7783 21.0728 21.8242 20.4698C21.8501 20.13 21.848 19.8333 21.7081 19.5198C21.6398 19.3667 21.5697 19.259 21.5643 19.0858C21.5557 18.8105 21.5263 18.519 21.4735 18.2492C21.4447 18.1027 21.4186 17.9338 21.3258 17.8102C21.2586 17.7206 21.3262 17.8619 21.3372 17.8871C21.3874 18.0024 21.3907 18.1454 21.4053 18.2682C21.4292 18.4681 21.4537 18.6684 21.4735 18.8687C21.5239 19.379 21.4962 19.8993 21.4962 20.4118C21.4962 20.837 21.4962 21.2622 21.4962 21.6874C21.4962 21.8981 21.4791 22.1662 21.3372 22.3283" stroke="black" stroke-width="1.03954" stroke-linecap="round"/>
<path d="M22.1547 18.5127C22.1198 18.433 22.045 18.3637 21.9906 18.2982C21.8589 18.1392 21.7259 17.981 21.5983 17.8187C21.4749 17.662 21.3674 17.4805 21.2286 17.3367C21.0503 17.1521 20.9234 16.916 20.7706 16.7097C20.7304 16.6554 20.6706 16.6305 20.6331 16.5772C20.5887 16.5141 20.5452 16.4419 20.4981 16.3829C20.4569 16.3315 20.5317 16.5101 20.5498 16.5734C20.6843 17.0444 20.7837 17.5268 20.8425 18.013C20.9382 18.8047 20.9444 19.5953 21.0015 20.3875C21.0296 20.7772 21.0934 21.166 21.1276 21.5559C21.1388 21.6829 21.1327 21.812 21.1327 21.9394C21.1327 22.0367 21.1026 21.977 21.0494 21.9281C20.8501 21.7447 20.6519 21.5491 20.44 21.3843C20.4199 21.3686 20.3619 21.352 20.3605 21.3288C20.3562 21.2546 20.3314 21.1749 20.3151 21.1017C20.1267 20.2538 20.1788 19.3434 20.1788 18.4824C20.1788 17.6989 20.1788 16.9153 20.1788 16.1318C20.1788 15.8235 20.1788 15.5153 20.1788 15.207C20.1788 15.051 20.2034 14.8688 20.1662 14.7149C20.1636 14.7042 20.1088 14.5953 20.1107 14.6291C20.1127 14.6652 20.144 14.701 20.1612 14.7301C20.2357 14.8566 20.2911 14.9957 20.3366 15.1351C20.4582 15.508 20.5227 15.9575 20.4236 16.3425C20.3851 16.4921 20.3018 16.6252 20.2369 16.7639C20.1479 16.9541 20.1016 17.1566 20.0754 17.3645C19.9832 18.0969 19.9745 18.8639 19.9745 19.6028C19.9745 19.6319 19.9518 19.5865 19.9442 19.5775C19.7894 19.3956 19.637 19.2122 19.4672 19.0438C19.0989 18.6786 18.7127 18.3143 18.2863 18.0168C18.2622 18 18.124 17.9215 18.1349 17.9222C18.1778 17.9249 18.2326 17.9534 18.2712 17.9726C18.399 18.0366 18.5307 18.0974 18.6598 18.1619C18.7624 18.2132 18.8618 18.2706 18.9651 18.3209C19.0337 18.3543 19.0197 18.374 18.9865 18.3297C18.9333 18.2587 18.8162 18.2287 18.738 18.1947C18.4611 18.0744 18.1853 17.9972 17.9002 17.9045C17.8312 17.8821 17.7642 17.8727 17.7728 17.791C17.7999 17.5335 17.9149 17.2796 17.9885 17.0339C18.1403 16.5281 18.2467 16.0064 18.3834 15.4959C18.4566 15.2228 18.5425 14.9278 18.5651 14.6443C18.5682 14.6058 18.5719 14.5258 18.5109 14.5761C18.4205 14.6507 18.3489 14.762 18.2787 14.8537C18.0713 15.1249 17.8704 15.4052 17.7047 15.7041C17.6081 15.8782 17.5198 16.0688 17.4586 16.2593C17.4172 16.3882 17.4536 16.1842 17.4536 16.128C17.4536 15.3772 17.4989 14.6331 17.5192 13.8835C17.5272 13.587 17.5543 13.2941 17.4321 13.0192C17.331 12.7916 17.3627 12.5338 17.3627 12.2899C17.3627 12.1789 17.3819 11.9099 17.4586 12.1638C17.6355 12.7492 17.7516 13.3538 17.8498 13.9567C17.9841 14.7815 18.004 15.6192 18.1349 16.4422C18.1671 16.6445 18.203 16.8438 18.203 17.0491C18.203 17.1675 18.1122 17.2554 18.0428 17.3443C17.9669 17.4416 17.868 17.6272 17.7488 17.6774C17.6507 17.7187 17.685 17.1315 17.6857 17.1122C17.6969 16.819 17.7568 16.5396 17.793 16.2504C17.8163 16.0639 17.7942 16.6264 17.7942 16.8144C17.7942 17.1606 17.7697 17.517 17.8069 17.8616C17.8275 18.0536 17.8478 18.2684 17.9911 18.4117C18.0899 18.5106 18.2059 18.556 18.3216 18.6262C18.4158 18.6834 18.3833 18.4121 18.386 18.3019C18.4105 17.2748 18.4491 16.2486 18.4932 15.2221C18.5412 14.1042 18.5664 12.9886 18.5664 11.8698C18.5664 11.5996 18.5778 11.3021 18.5096 11.0371C18.4875 10.9509 18.475 10.8579 18.4478 10.7734C18.42 10.6868 18.4319 10.7904 18.4289 10.8251C18.4241 10.8799 18.3994 10.9312 18.3822 10.9828C18.3117 11.1942 18.2526 11.4106 18.2081 11.6288C18.0768 12.2722 18.0175 13.0039 18.1273 13.6551C18.1937 14.0488 18.3526 14.4261 18.4516 14.8121C18.544 15.1723 18.6158 15.5382 18.6976 15.9009C18.7834 16.2812 18.9298 16.7006 18.9298 17.0932C18.9298 17.2484 18.9313 17.4037 18.9247 17.5588C18.9165 17.7507 18.8616 17.9432 18.8616 18.1341C18.8616 18.6994 18.8594 17.0035 18.8717 16.4384C18.8916 15.5261 18.9417 14.615 18.9727 13.7031C18.9966 12.9981 18.99 12.2935 19.0029 11.5884C19.0123 11.0772 19.0202 10.5663 19.0433 10.0567C19.0772 9.31197 19.1812 11.5415 19.2376 12.2849C19.3446 13.6957 19.3448 15.1153 19.4849 16.523C19.5276 16.9517 19.6267 17.3731 19.6616 17.8011C19.6777 17.9987 19.6799 18.2157 19.7196 18.4092C19.7417 18.5169 19.7223 18.4976 19.6679 18.4231C19.534 18.2399 19.4467 18.0909 19.4016 17.8616C19.2643 17.1622 19.2781 16.4179 19.2717 15.7079C19.2655 15.0265 19.3254 14.3517 19.3739 13.6728C19.4081 13.1941 19.5188 12.7287 19.601 12.2571C19.664 11.8956 19.7119 11.5305 19.7915 11.1721C19.8123 11.0783 19.873 11.0034 19.929 10.9273C20.1022 10.6921 20.2691 10.4677 20.5069 10.2914C20.7783 10.0902 21.0929 9.98121 21.4153 9.89398C21.6865 9.8206 21.9457 9.72616 22.2102 9.63281C22.4818 9.53693 22.7505 9.4495 23.0177 9.34262C23.127 9.29888 23.2598 9.31486 23.376 9.31486C23.4208 9.31486 23.4649 9.31084 23.4479 9.37037C23.4305 9.43116 23.0371 9.49319 23.0013 9.50412C22.5771 9.63352 22.1171 9.83407 21.7686 10.1148C21.4543 10.3679 21.2139 10.7033 20.9712 11.0219C20.5239 11.609 20.1599 12.2054 20.088 12.9536C20.0514 13.3342 20.0151 13.7131 19.9858 14.0942C19.9772 14.2066 19.9745 14.5451 19.9745 14.4323C19.9745 14.0267 20.098 13.6834 20.2798 13.3233C20.578 12.7324 20.9192 12.1345 21.4241 11.6944C21.5948 11.5457 21.7779 11.404 21.9553 11.2629C22.0724 11.1699 22.1907 11.0578 22.3313 11.0005C22.4032 10.9712 22.3111 11.1403 22.301 11.1733C22.1954 11.5185 22.0668 11.8546 21.9528 12.1966C21.9483 12.21 21.8821 12.4473 21.8821 12.3657C21.8821 12.0442 21.9135 11.7271 21.9843 11.4131C22.0367 11.1806 22.094 10.9135 22.2657 10.7355C22.3241 10.675 22.5481 10.5039 22.3263 10.6548C21.4677 11.2389 20.8486 12.3213 20.5523 13.3018C20.4658 13.5882 20.4359 13.8781 20.3933 14.1724C20.3611 14.3953 20.293 14.6032 20.2369 14.8197C20.1757 15.0555 20.4215 14.6193 20.4388 14.5913C20.719 14.1367 21.0129 13.6912 21.3434 13.2716C21.5393 13.0227 21.7313 12.7912 21.9654 12.5776C22.1411 12.4174 22.2975 12.249 22.4499 12.0679C22.489 12.0215 22.5677 11.9513 22.5849 11.8913C22.6005 11.8368 22.6014 11.88 22.5622 11.9152C22.5189 11.9542 22.4707 11.9313 22.4272 11.9543C22.3772 11.9808 22.4464 12.0069 22.4499 12.0401C22.491 12.4307 22.8986 12.6858 23.1426 12.9486C23.3849 13.2095 23.843 13.4415 24.1986 13.4482C24.3491 13.451 24.4998 13.4482 24.6503 13.4482C24.8592 13.4482 25.0277 13.3784 25.2156 13.2943C25.5489 13.1449 25.7571 12.9057 26.0382 12.6861C26.188 12.5691 26.2681 12.4939 26.3561 12.324C26.4863 12.0729 26.4712 11.8178 26.4974 11.5455C26.5361 11.1442 26.559 10.6607 26.447 10.2687C26.4141 10.1536 26.3653 10.1244 26.4949 10.1892C26.8453 10.3644 27.1397 10.7038 27.4235 10.9727C27.7493 11.2814 28.0588 11.6305 28.3092 12.0061C28.4037 12.1478 28.532 12.2559 28.5641 12.4262C28.6401 12.8289 28.6536 13.2328 28.5931 13.6425C28.5243 14.1089 28.5005 14.5802 28.366 15.0354C28.2744 15.3454 28.1029 15.5137 27.9131 15.7621C27.6643 16.0878 27.4629 16.4444 27.2191 16.774C26.8324 17.2971 26.4908 17.8752 26.2438 18.4773C26.2099 18.5601 26.1718 18.637 26.1341 18.717C26.1248 18.7368 26.175 18.7003 26.1921 18.6868C26.3577 18.5554 26.5259 18.4246 26.6829 18.283C27.1411 17.8698 27.5537 17.3674 27.9408 16.8876C28.2347 16.5233 28.5103 16.1338 28.7256 15.7167C28.8604 15.4555 28.8896 15.199 28.9691 14.9206C29.0269 14.7184 29.0772 14.5156 29.1445 14.3162C29.1892 14.1838 29.2456 14.0574 29.2631 13.9175C29.2683 13.8758 29.2536 14.0022 29.2379 14.0412C29.1191 14.3344 28.928 14.6099 28.771 14.8827C28.3616 15.5944 27.9621 16.3065 27.4967 16.9835C27.1521 17.4847 26.7907 17.9756 26.4684 18.4912C26.35 18.6807 26.2913 18.9066 26.1631 19.0918C26.1177 19.1573 25.9625 19.4351 26.0483 19.5119C26.2614 19.7026 26.6762 18.9826 26.7548 18.8634C26.9162 18.6189 26.9997 18.4352 27.0135 18.1392C27.0186 18.0286 27.0348 17.8985 26.9693 17.8036C26.8916 17.6909 26.81 17.5825 26.7422 17.4629C26.6172 17.2423 26.5022 17.0235 26.4129 16.7854C26.3053 16.4986 26.0987 16.2534 25.912 16.0145C25.7904 15.8588 25.6318 15.7407 25.4729 15.6259C25.2839 15.4893 25.0978 15.3268 24.9027 15.202C24.6076 15.0131 24.262 14.8377 23.9362 14.7074C23.5972 14.5718 23.2275 14.5837 22.8701 14.5837C22.5432 14.5837 22.2207 14.6306 21.8948 14.6531C21.7678 14.6619 21.6541 14.7503 21.5465 14.8108C21.4137 14.8855 21.261 14.9478 21.115 14.9925C21.0296 15.0187 20.7787 15.0973 20.7012 15.0152C20.5038 14.8062 21.1945 14.4307 21.3093 14.3528C21.6464 14.1243 21.9376 13.9769 22.3502 13.9945C22.5965 14.005 22.8464 14.0529 23.0909 14.0841C23.4307 14.1275 23.7646 14.1581 24.0977 14.2431C25.0733 14.492 26.0475 14.8775 26.6488 15.7293C26.8023 15.9467 26.9076 16.2028 27.0703 16.4119C27.1236 16.4805 27.175 16.3637 27.2065 16.3122C27.3562 16.0683 27.5159 15.8377 27.6279 15.5729C27.7201 15.355 27.8185 15.1235 27.8651 14.8903C27.8952 14.7399 27.8777 14.5738 27.8777 14.421C27.8777 13.8551 27.7057 13.3227 27.6279 12.7669C27.5949 12.5311 27.5533 12.2807 27.4778 12.054C27.41 11.8507 27.2715 11.6821 27.156 11.5052C27.1067 11.4296 27.0421 11.3272 26.9605 11.2819C26.9332 11.2667 26.967 11.3308 26.9693 11.3361C27.0212 11.4535 27.0519 11.5824 27.0803 11.707C27.2589 12.4906 27.2475 13.3315 27.2179 14.132C27.1958 14.7275 26.9787 15.312 26.8608 15.8908C26.8261 16.0612 26.8128 15.7661 26.8116 15.7293C26.8014 15.4077 26.7899 15.0866 26.77 14.7654C26.7366 14.2278 26.6148 13.6634 26.4356 13.1542C26.4075 13.0744 26.3561 12.9132 26.3561 12.9132C26.3561 12.9132 26.3561 13.1269 26.3561 13.2337C26.3561 13.3599 26.3735 13.5192 26.2754 13.6173C26.1707 13.722 26.0345 13.7926 25.9272 13.8999C25.8543 13.9727 25.7538 14.1319 25.6571 14.1699C25.524 14.2222 25.4754 13.9011 25.4603 13.8355C25.435 13.7251 25.3559 13.413 25.536 13.3851C25.7461 13.3526 26.0832 13.35 26.2678 13.4558C26.6145 13.6543 26.6059 14.0031 26.6059 14.3566C26.6059 14.4139 26.6207 14.4475 26.5542 14.4475C26.1461 14.4475 25.7831 14.4051 25.3871 14.3024C24.746 14.1359 24.0819 14.083 23.4454 13.9037C22.9788 13.7722 22.4876 13.6327 22.0411 13.4431C21.9898 13.4214 21.6409 13.2611 21.6828 13.1668C21.7104 13.1048 22.2095 13.153 22.2808 13.153C22.5329 13.153 22.7534 13.2044 22.995 13.2665C23.0486 13.2803 23.1562 13.3369 23.0858 13.2665" stroke="black" stroke-width="1.03954" stroke-linecap="round"/>
</svg>
