<svg width="36" height="38" viewBox="0 0 36 38" fill="none" xmlns="http://www.w3.org/2000/svg">
<rect x="-0.519772" y="0.519772" width="34.305" height="35.8643" rx="4.67795" transform="matrix(-1 0 0 1 34.6494 0.711426)" fill="#95B7FF" stroke="black" stroke-width="1.03954"/>
<path d="M16.4554 11.7053C16.7312 11.6492 17.007 11.5931 17.2829 11.537C17.8269 11.4264 18.1747 11.1618 18.628 10.8573C19.1174 10.5287 19.5739 10.1507 20.0726 9.83357C21.1196 9.16767 22.4561 8.85637 23.6798 8.74532C26.0285 8.53219 28.5489 10.2866 29.1002 12.6221C29.2397 13.2129 29.3411 13.795 29.2132 14.3959C29.0377 15.2206 28.7182 16.0215 28.3695 16.7832C27.483 18.7193 26.1214 20.5082 24.6917 22.0602C23.2788 23.5939 21.7725 25.0099 20.1583 26.3237C19.0574 27.2197 17.9799 28.1438 16.9167 29.0855C16.195 29.7247 15.5098 30.4235 14.7393 31.0037C14.0664 31.5104 13.3105 31.9994 12.5347 32.3285C12.3672 32.3996 12.1765 32.5578 11.9841 32.5536C11.6289 32.5459 11.3323 31.4887 11.2565 31.2749C10.9051 30.2832 10.699 29.2417 10.4874 28.2131C10.2827 27.2184 10.0832 26.2277 9.97908 25.2165C9.68098 22.3217 9.3539 19.4431 8.95941 16.5609C8.82006 15.5428 8.66889 14.5289 8.64267 13.4996C8.61171 12.284 8.79133 11.0154 9.04419 9.83215C9.25688 8.83686 9.62218 7.83299 10.1097 6.94476C10.5358 6.16861 11.0646 5.57322 11.9382 5.32369C12.6389 5.12356 13.3357 5.00832 14.0325 5.28339C14.6169 5.51409 15.1413 5.82919 15.6336 6.22248C16.35 6.7948 17.0456 7.45417 17.567 8.21214C17.8249 8.58692 18.0551 8.93789 18.2514 9.35307C18.3392 9.53887 18.6057 9.79149 18.8129 9.82754C19.0218 9.86391 19.2065 9.8202 19.4134 9.8108C19.778 9.79424 20.1235 9.82764 20.4394 9.5996" stroke="black" stroke-width="1.03954" stroke-linecap="round"/>
<path d="M21.3752 15.448C20.9263 15.448 22.2733 15.4409 22.7222 15.448C23.3908 15.4585 24.1293 15.6484 24.5857 16.1728C24.8434 16.469 25.0628 16.7957 25.2245 17.1532C25.2776 17.2707 25.311 17.3892 25.3494 17.5115C25.353 17.5226 25.3815 17.6455 25.3869 17.6434C25.4772 17.6073 24.8982 16.705 24.8634 16.6588C24.5845 16.2886 24.1934 16.0683 23.7998 15.8479C23.2114 15.5184 22.3889 15.473 21.7266 15.473C21.4589 15.473 21.2012 15.5292 20.9545 15.6341C20.9066 15.6544 20.6686 15.7228 20.7004 15.7785C20.7513 15.8676 20.7579 15.9803 20.7809 16.0784C20.8318 16.2951 20.9047 16.504 20.9878 16.7102C21.1769 17.1795 21.4694 17.4684 21.864 17.7781C22.5764 18.337 23.3274 18.7208 24.2386 18.8029C24.5889 18.8344 25.0143 18.7326 25.2745 18.4724" stroke="black" stroke-width="1.03954" stroke-linecap="round"/>
<path d="M23.5499 16.7224C23.5499 17.2174 23.6289 17.8693 23.1361 18.168C23.0375 18.2277 22.7733 18.2717 22.689 18.1652C22.5003 17.9269 22.5566 17.4851 22.6556 17.2279C22.7414 17.0051 22.8584 16.7735 23.1 16.6974C23.2029 16.665 23.4281 16.6332 23.5249 16.6905C23.6865 16.786 23.6901 17.1686 23.6332 17.3223C23.5613 17.5168 23.3124 17.5796 23.1278 17.5709C22.8764 17.5589 22.8226 17.2556 22.8292 17.0501C22.8373 16.7988 23.0203 16.4897 23.275 16.4225C23.3854 16.3933 23.5624 16.3697 23.6749 16.4086C23.8662 16.4748 23.8248 16.7011 23.8248 16.8599C23.8248 17.3362 23.4804 17.7555 23 17.8166C22.7856 17.8439 22.7326 17.6047 22.7265 17.4459C22.7167 17.1926 22.7835 17.0012 22.875 16.7724" stroke="black" stroke-width="1.03954" stroke-linecap="round"/>
<path d="M17.1011 15.3974C17.1011 14.525 17.1749 13.6871 16.654 12.9313C16.3146 12.4388 15.8682 11.9257 15.3154 11.6732C14.8319 11.4523 14.2448 11.354 13.7129 11.3482C13.5908 11.3469 13.4685 11.3482 13.3463 11.3482C13.0448 11.3482 12.8622 11.7205 12.727 11.9426C12.5391 12.2513 12.4751 12.5472 12.4771 12.909C12.4812 13.6674 12.694 14.455 13.0672 15.1169C13.5912 16.0462 14.7239 16.542 15.7375 16.6583C16.0517 16.6943 16.4318 16.6442 16.6387 16.3958C16.7703 16.238 16.7329 16.0271 16.7901 15.8473C16.8397 15.6915 16.845 15.5455 16.8526 15.3835C16.8617 15.1864 16.9012 14.9962 16.9012 14.7976" stroke="black" stroke-width="1.03954" stroke-linecap="round"/>
<path d="M16.4512 13.7981C16.2297 13.969 16.0513 14.1855 15.8124 14.3355C15.5728 14.486 15.311 14.5724 15.0348 14.6285C14.6536 14.7059 14.1051 14.6807 14.0016 14.2036C13.7864 13.2109 15.2459 12.8031 15.9707 12.7983C16.2205 12.7967 16.5721 12.7732 16.5983 13.101C16.6343 13.5504 16.3858 13.9013 16.0651 14.1939C15.7659 14.4668 15.3769 14.5859 14.9764 14.6174C14.7822 14.6327 14.4777 14.6639 14.4168 14.4202C14.3427 14.1238 14.7102 13.7675 14.9126 13.6037C15.155 13.4075 15.411 13.2654 15.7263 13.2496C15.7878 13.2465 16.0512 13.2094 16.0512 13.3177C16.0512 13.4702 15.7346 13.5709 15.6277 13.6218C15.4358 13.7131 15.2385 13.7761 15.0431 13.8537C14.971 13.8823 14.8784 13.9481 14.8015 13.9481" stroke="black" stroke-width="1.03954" stroke-linecap="round"/>
<path d="M14.7765 19.5968C15.0142 19.4521 15.2442 19.3182 15.5097 19.2261C15.9509 19.0729 16.4169 19.0738 16.8788 19.0719C17.3213 19.0702 17.745 19.0785 18.1522 19.2775C18.5543 19.4739 18.9333 19.8299 19.1714 20.2078C19.2134 20.2744 19.4774 20.6199 19.4089 20.7133C19.1178 21.1102 18.8981 21.5204 18.4619 21.7936C18.1398 21.9954 17.7266 22.0522 17.3551 22.0825C16.9248 22.1175 16.4826 22.1433 16.0512 22.1102C15.4173 22.0617 14.8187 21.8382 14.378 21.3715C14.1469 21.1268 14.1251 20.7436 14.1544 20.4217C14.1747 20.1979 14.333 20.0274 14.4016 19.8218" stroke="black" stroke-width="1.03954" stroke-linecap="round"/>
<path d="M16.7011 19.5717C16.8996 19.5717 16.8511 20.2639 16.8511 20.3743C16.8511 20.6286 16.8818 21.1246 16.5706 21.2463C16.3779 21.3218 16.2642 21.1521 16.1901 20.9964C16.0208 20.6402 15.9121 20.2137 15.9554 19.8161C16.002 19.3897 16.714 19.337 16.9844 19.5522C17.1573 19.6899 17.248 19.9467 17.276 20.1577C17.3086 20.4028 17.3395 20.7083 17.2857 20.9533C17.2498 21.117 17.0762 21.1587 16.9261 21.138C16.5772 21.0899 16.408 20.643 16.3568 20.3465C16.3118 20.0866 16.2856 19.5467 16.6761 19.5467C16.9974 19.5467 17.0155 19.9893 17.0261 20.2216" stroke="black" stroke-width="1.03954" stroke-linecap="round"/>
<path d="M10.6023 19.3467C10.7705 19.3467 10.9541 19.3251 11.1161 19.3773C11.4173 19.4743 11.6737 19.8499 11.8493 20.0938C12.3068 20.7293 12.4433 21.4571 12.4269 22.2323C12.4179 22.6599 12.1945 23.0242 12.0048 23.3931C11.963 23.4745 11.8543 23.7582 11.8784 23.5292C11.887 23.4474 11.8969 23.3669 11.9034 23.2848C11.9057 23.2558 11.929 23.1306 11.927 23.2321C11.9217 23.5045 11.7752 23.837 11.616 24.0541C11.5278 24.1744 11.4552 24.0757 11.3466 23.9889C11.0312 23.7365 10.8048 23.4248 10.5468 23.121C10.187 22.6974 9.82415 22.3029 9.71498 21.7449C9.61522 21.235 9.59741 20.6766 9.80246 20.191C9.85437 20.0681 9.92407 19.9401 9.98992 19.823C10.0275 19.7562 10.1024 19.6741 10.1024 19.5967" stroke="black" stroke-width="1.03954" stroke-linecap="round"/>
<path d="M11.9521 21.3466C11.8292 21.3466 11.6999 21.5014 11.6036 21.5688C11.5089 21.6351 11.313 21.5966 11.2023 21.5966C10.9901 21.5966 10.7963 21.4792 10.8579 21.2272C10.9134 21.0004 11.4664 20.7154 11.6897 20.8356C11.8546 20.9244 11.8272 21.0805 11.8272 21.2411C11.8272 21.4563 11.6566 21.7754 11.4259 21.8215C11.2493 21.8568 10.9694 21.9606 10.8829 21.7271C10.6839 21.1898 11.436 20.6887 11.9022 20.9217" stroke="black" stroke-width="1.03954" stroke-linecap="round"/>
<path d="M14.8016 26.5206C14.8016 26.2725 14.9693 26.0699 15.1391 25.8957C15.4446 25.582 15.9983 25.4766 16.418 25.4513C17.0793 25.4115 17.7651 25.48 18.3204 25.8707C18.7713 26.188 18.3323 26.8874 18.1468 27.2121C17.6149 28.1429 16.3616 28.7602 15.4293 28.0091C15.0639 27.7148 14.9424 27.2427 14.8016 26.8205" stroke="black" stroke-width="1.03954" stroke-linecap="round"/>
<path d="M16.5263 26.1206C16.5967 26.2702 16.5513 26.5101 16.5513 26.6691C16.5513 26.7032 16.5686 27.1709 16.4763 27.0093C16.3711 26.8253 16.3036 26.6559 16.2569 26.4455C16.2342 26.3436 16.2152 26.0678 16.3263 26.2844C16.432 26.4905 16.4879 26.7332 16.6012 26.9315C16.6419 27.0027 16.7906 26.981 16.8387 26.9329C16.9531 26.8185 17.1379 26.0829 16.8762 25.9956" stroke="black" stroke-width="1.03954" stroke-linecap="round"/>
<path d="M25.8492 11.4488C25.8386 11.5442 25.7037 11.6679 25.6465 11.7362C25.5204 11.8865 25.3233 12.1134 25.1452 12.1972C24.904 12.3107 24.6464 12.3711 24.3842 12.4111C24.1273 12.4502 23.7955 12.5132 23.5621 12.375C23.2096 12.166 22.9649 11.8352 22.7054 11.5237C22.543 11.3289 22.3351 10.9982 22.4443 10.7433C22.5336 10.5349 22.6243 10.3023 22.7873 10.1393C22.9894 9.93724 23.258 9.8389 23.5233 9.75048C24.129 9.54856 24.8321 9.55879 25.409 9.83657C25.8921 10.0692 25.8742 10.6271 25.8742 11.0738" stroke="black" stroke-width="1.03954" stroke-linecap="round"/>
<path d="M24.5747 10.3487C24.5747 10.546 24.6314 10.844 24.5303 11.018C24.4441 11.1662 24.2875 11.1821 24.1443 11.0929C23.7786 10.8654 23.8999 10.3218 23.8999 9.94873" stroke="black" stroke-width="1.03954" stroke-linecap="round"/>
<path d="M17.7227 10.1777C17.7801 10.1777 18.1365 10.1777 18.0003 10.1777C17.9 10.1777 17.6092 10.1648 17.6092 10.0074C17.6092 9.94307 17.8273 9.97316 17.8666 9.9784C18.0599 10.0042 18.049 10.2202 17.9044 10.309C17.8165 10.363 17.5784 10.4167 17.5537 10.2686C17.5298 10.1256 18.1368 10.1742 18.2299 10.179C18.3261 10.1839 18.3813 10.2012 18.3813 10.3039C18.3813 10.5669 17.7545 10.5145 17.6117 10.4692C17.221 10.3453 16.8968 9.97922 16.7613 9.59737C16.7086 9.44867 16.7025 9.28701 16.673 9.13306C16.6303 8.91063 16.5665 8.69329 16.4787 8.48455C16.4281 8.36433 16.2107 7.90721 16.4888 8.2095C16.8969 8.65312 17.1358 9.20234 17.3997 9.73615C17.4031 9.74304 17.4678 9.88925 17.4805 9.88503C17.487 9.88285 17.2077 9.35085 17.1953 9.32736C17.0531 9.05789 16.894 8.79281 16.7714 8.51357C16.7115 8.37708 16.793 8.40947 16.8799 8.49212C17.2014 8.79776 17.406 9.25722 17.5802 9.65541C17.777 10.1053 17.9471 10.578 18.0672 11.0546C18.0694 11.0633 18.1499 11.4032 18.1214 11.3902C18.0489 11.3573 17.9788 11.2498 17.9347 11.1922C17.8086 11.0274 17.6956 10.8526 17.589 10.6749C17.256 10.1199 17.005 9.51772 16.7462 8.92614C16.7345 8.8995 16.5084 8.53357 16.5014 8.54763C16.4835 8.58338 16.5002 8.6914 16.5027 8.71544C16.524 8.92699 16.5724 9.13458 16.615 9.3425C16.728 9.89458 16.8181 10.4513 16.9329 11.0029C16.9604 11.1349 16.9864 11.2673 17.0137 11.3991C17.0374 11.514 16.785 11.3361 16.6831 11.278C16.2565 11.0346 15.846 10.7573 15.4416 10.4793C15.2463 10.345 15.0519 10.2084 14.8637 10.0642C14.846 10.0506 14.7135 9.96402 14.7022 9.92289C14.6906 9.88028 14.7895 9.94229 14.8284 9.96326C14.9805 10.0453 15.1244 10.1458 15.2675 10.2421C15.6191 10.4789 15.9658 10.7256 16.3059 10.9789C16.4174 11.062 16.6338 11.1789 16.7083 11.3032C16.7496 11.3719 16.5627 11.2361 16.4913 11.1997C16.2348 11.0692 15.9765 10.9425 15.7179 10.8162C15.3363 10.6297 14.9442 10.4544 14.5773 10.2396C14.5547 10.2263 14.4434 10.1749 14.4272 10.1424C14.393 10.0741 14.5719 10.1921 14.6417 10.2232C15.0222 10.3926 15.4521 10.6132 15.7772 10.8818C15.9175 10.9977 15.4213 10.8038 15.2473 10.7506C14.9378 10.6558 14.6401 10.547 14.3389 10.4301C14.1884 10.3717 14.3496 10.4047 14.4171 10.4149C14.5626 10.437 14.7109 10.483 14.8461 10.5411C14.8527 10.544 14.992 10.5998 14.9344 10.6042C14.4531 10.6412 13.9251 10.5333 13.4557 10.4427C13.2169 10.3966 12.9803 10.3328 12.7516 10.2497C12.6014 10.195 12.6977 10.2033 12.7908 10.2396C12.9688 10.309 13.1429 10.3888 13.3207 10.4591C13.3565 10.4733 13.4821 10.507 13.4948 10.5512C13.4999 10.5691 13.4591 10.5647 13.4405 10.5638C13.3222 10.5585 13.2072 10.5294 13.0936 10.4982C12.668 10.3813 12.2426 10.2476 11.8268 10.0995C11.6379 10.0323 11.4402 9.9649 11.2603 9.87494C11.1776 9.8336 11.431 9.94641 11.5139 9.98723C11.7486 10.1027 11.9814 10.2287 12.2217 10.3317C12.3988 10.4076 11.8655 10.1827 11.6969 10.0894C11.3768 9.91228 11.0432 9.72875 10.7884 9.4611C10.6032 9.26655 10.533 9.08003 10.8313 8.96652C11.3017 8.78752 11.7167 9.15636 11.8028 9.60494C11.8225 9.70713 11.8488 9.88552 11.7625 9.96705C11.5478 10.1698 11.2465 9.9146 11.1253 9.74372C10.8105 9.29984 10.8465 8.65668 10.8465 8.13758C10.8465 7.98687 10.8254 7.64766 10.9197 7.51304C10.9462 7.47508 10.9309 7.60564 10.9272 7.65183C10.9138 7.8217 10.8757 7.9843 10.8238 8.14641C10.7093 8.50367 10.5589 8.87281 10.3607 9.19236C10.3271 9.24657 10.2056 9.44359 10.1626 9.28699C10.0842 9.00137 10.1343 8.63344 10.1853 8.34828C10.224 8.13246 10.2675 7.90661 10.3418 7.69977C10.347 7.68518 10.4479 7.48781 10.4503 7.50042C10.5027 7.77004 10.2944 8.14706 10.1879 8.37604C10.049 8.67458 9.87789 8.95516 9.72104 9.24409C9.71287 9.25914 9.70472 9.2742 9.69707 9.28951C9.68494 9.31377 9.7243 9.24259 9.73744 9.21886C9.82258 9.06514 9.90183 8.90894 9.9759 8.7495C10.2054 8.25554 10.393 7.74873 10.5866 7.24051C10.6229 7.14505 10.659 7.05016 10.69 6.95284C10.6984 6.92664 10.7087 6.85356 10.7228 6.87714C10.7421 6.90922 10.7279 7.04918 10.7279 7.06766C10.7279 7.28114 10.7249 7.49411 10.7127 7.70734C10.6934 8.04558 10.6576 8.38194 10.6156 8.71796C10.6149 8.72328 10.5626 9.07431 10.6131 8.93245C10.9038 8.11566 11.1066 7.27056 11.4029 6.45573C11.4853 6.22908 11.4515 6.60696 11.4508 6.66139C11.4432 7.29579 11.3617 7.92441 11.2401 8.54637C11.1993 8.75545 11.1505 8.96256 11.1064 9.17091C11.0891 9.25273 11.0828 9.35461 11.0471 9.43208C11.031 9.46684 11.0219 9.35805 11.0231 9.31979C11.0308 9.07005 11.0756 8.82169 11.1203 8.57665C11.2021 8.1283 11.3052 7.68591 11.4218 7.24556C11.4618 7.09446 11.49 6.93345 11.5631 6.79387C11.5818 6.7582 11.5914 6.78318 11.5959 6.81406C11.6291 7.0423 11.6175 7.28355 11.6085 7.51304C11.5974 7.79834 11.5675 8.08639 11.495 8.36342C11.4478 8.54357 11.4298 8.40753 11.4319 8.30034C11.4403 7.8786 11.5103 7.4398 11.6868 7.05378C11.79 6.82797 11.9566 6.56302 12.2444 6.61976C12.603 6.69043 12.744 7.03458 12.8475 7.34523C13.0074 7.82483 13.0794 8.32178 13.0645 8.82647C13.0594 9.0018 13.0627 9.23717 12.893 9.34377C12.7336 9.44385 12.5733 9.35449 12.4602 9.23021C12.1074 8.84269 11.776 8.05248 12.1738 7.58496C12.2801 7.45997 12.4314 7.34908 12.6002 7.34271C12.806 7.33494 12.8137 7.50465 12.8261 7.6758C12.8478 7.97515 12.8431 8.28626 12.7542 8.57539C12.7127 8.71013 12.6417 8.88898 12.4993 8.94633C12.0656 9.121 12.1508 7.62454 12.2495 7.4222C12.3723 7.1703 12.6144 6.8465 12.9308 6.86705C13.2226 6.886 13.4571 7.1739 13.597 7.40201C13.7621 7.67126 13.8647 7.98677 13.8973 8.30034C13.9098 8.42123 13.9501 8.66749 13.7736 8.70408C13.4611 8.7689 13.1299 8.25579 13.0229 8.03286C12.8884 7.75256 12.7472 7.22635 12.9182 6.93266C13.0929 6.63256 13.5049 6.7926 13.7282 6.93013C14.1849 7.21144 14.4587 7.77026 14.6593 8.24861C14.7792 8.53452 14.8512 8.85049 14.8599 9.16082C14.8615 9.21727 14.9029 9.43682 14.7855 9.34503C14.6201 9.21571 14.4911 9.01028 14.3767 8.84035C14.1382 8.48606 13.9245 8.11542 13.7282 7.73636C13.6088 7.50578 13.4891 7.27017 13.4279 7.01593C13.403 6.91239 13.3171 6.64323 13.4166 6.5491C13.4885 6.48103 13.6432 6.55331 13.6967 6.5756C14.0174 6.7094 14.2984 6.94435 14.5508 7.17743C15.3009 7.87014 15.9237 8.70635 16.4787 9.55952C16.6667 9.84848 16.8559 10.1447 17.0212 10.4478C17.0762 10.5486 17.0725 10.5678 16.9783 10.4881C16.4504 10.0417 15.9681 9.53992 15.5602 8.98166C15.5381 8.95144 15.3819 8.72241 15.4113 8.75834C15.5947 8.98245 15.7572 9.22617 15.8819 9.4876C15.9648 9.66138 16.0398 9.83961 16.1103 10.0188C16.137 10.0866 16.1938 10.2192 16.075 10.1197C15.6552 9.768 15.2706 9.3477 14.9142 8.93371C14.6922 8.67577 14.3823 8.36703 14.2632 8.03538C14.2151 7.90154 14.6328 8.05994 14.6543 8.06819C14.9546 8.18361 15.2513 8.32243 15.5375 8.46941C15.5672 8.48469 15.8277 8.66346 15.8504 8.57539C15.9143 8.32692 15.8312 8.00297 15.7646 7.76538C15.7067 7.55915 15.6357 7.35372 15.5337 7.16481C15.4988 7.10011 15.4028 7.00606 15.5362 7.05883C15.7264 7.13401 15.9114 7.24031 16.0863 7.34523C16.1723 7.39683 16.2857 7.44721 16.3639 7.50799C16.6775 7.7519 15.7106 7.05522 15.3949 6.81406C15.123 6.60637 14.837 6.44232 14.5142 6.32704C14.2858 6.24545 14.0585 6.16293 13.8317 6.07722C13.7303 6.03894 13.5807 6.06713 13.4759 6.06713C13.2541 6.06713 13.0393 6.11255 12.8173 6.11255C12.681 6.11255 12.5447 6.11255 12.4085 6.11255C12.0912 6.11255 11.7716 6.18629 11.5 6.35227C11.3867 6.42156 11.3037 6.56443 11.2275 6.67022C11.0727 6.88522 11.0913 7.17756 11.2048 7.40706C11.4227 7.84741 11.7342 8.33337 12.1788 8.56782C12.5395 8.758 12.9598 8.78607 13.3219 8.97409C13.5911 9.11385 13.8433 9.25389 14.089 9.43335C14.1267 9.46088 14.427 9.69811 14.2556 9.70083C13.6961 9.70971 12.9414 9.55133 12.6028 10.1235C12.3709 10.5153 12.2402 11.0138 12.1246 11.4508C12.0055 11.9005 11.8788 12.3456 11.7524 12.7933C11.7098 12.9441 11.645 13.133 11.6363 13.2891C11.6344 13.3225 11.6722 13.2321 11.6842 13.2008C11.8316 12.8166 12.0616 12.4923 12.3176 12.1712C12.6462 11.7593 13.0224 11.4236 13.4809 11.172C13.6597 11.0739 13.7942 10.9315 13.9477 10.801C13.9909 10.7644 14.0325 10.7383 14.0865 10.7228C14.142 10.7069 13.902 10.6892 13.8947 10.6887C13.2464 10.6482 12.5679 10.754 12.1044 11.254C11.6848 11.7066 11.5155 12.3872 11.3562 12.9712C11.3548 12.9763 11.3218 13.1479 11.283 13.0986C11.2441 13.0491 11.2414 12.9417 11.2376 12.8879C11.2201 12.6401 11.2242 12.3875 11.2338 12.1397C11.2608 11.4436 11.4326 10.7761 11.6161 10.1071C11.697 9.81215 11.7708 9.45958 11.9315 9.19362C11.9545 9.15557 12.0012 9.09044 12.0451 9.06998C12.0541 9.06575 12.0429 9.09059 12.0375 9.099C11.9727 9.1999 11.9188 9.30678 11.8685 9.41568C11.3081 10.6268 10.9724 11.9192 10.5285 13.173C10.4958 13.2655 10.462 13.4768 10.3872 13.5515C10.3865 13.5522 10.3735 13.0132 10.3746 12.9913C10.4106 12.2712 10.5353 11.5596 10.6345 10.8465C10.7163 10.259 10.7785 9.66632 10.8768 9.08133C10.8793 9.06629 10.9419 8.641 10.9663 8.641C10.9982 8.641 10.9677 9.19194 10.9676 9.19362C10.9073 9.94713 10.7333 10.6994 10.603 11.4432C10.5052 12.0016 10.4082 12.561 10.3002 13.1175C10.293 13.1545 10.2787 13.3874 10.227 13.409C10.1373 13.4463 10.0859 12.5672 10.0857 12.5611C10.0507 11.7207 10.0622 10.8747 10.0743 10.0339C10.0812 9.55689 10.1309 9.08206 10.1374 8.60567C10.1374 8.60516 10.1374 8.39758 10.1374 8.49464C10.1374 8.68613 10.1008 8.8653 10.0567 9.05231C9.74448 10.3741 9.45485 11.6885 9.24664 13.0317C9.23479 13.1082 9.24327 13.362 9.17851 13.4203C9.11149 13.4806 9.13773 13.243 9.13813 13.1528C9.14181 12.3295 9.28861 11.511 9.43211 10.7026C9.46935 10.4928 9.52537 10.2897 9.56837 10.0819C9.58097 10.021 9.60734 10.0029 9.62767 10.0768C9.72371 10.426 9.77373 10.7957 9.83459 11.1518C9.96032 11.8874 10.0672 12.6257 10.1702 13.3648C10.2195 13.7182 10.2774 14.0703 10.3292 14.4234C10.3362 14.4715 10.3387 14.6229 10.3872 14.6593C10.4277 14.6897 10.87 12.9465 11.2679 13.9326C11.4879 14.478 11.5521 15.0824 11.6792 15.6535C11.7191 15.8326 11.7307 16.0967 11.8356 16.2541C11.8579 16.2874 11.9027 16.3003 11.9366 16.2718C11.9969 16.221 12.0172 16.1177 12.0337 16.0484C12.0819 15.8468 12.1072 15.638 12.1208 15.4315C12.1639 14.7755 12.075 14.1053 12.1372 13.4519C12.1518 13.2984 12.2234 13.748 12.2621 13.8972C12.3602 14.2755 12.4115 14.6548 12.4526 15.0429C12.4795 15.2969 12.4916 15.5532 12.5435 15.8037C12.553 15.8496 12.5876 15.9293 12.5876 15.9765C12.5876 16.0153 12.5426 15.9134 12.522 15.8806C12.392 15.6737 12.2724 15.4616 12.1574 15.246C11.7742 14.5279 11.4204 13.7946 11.0849 13.0532C11.0056 12.8778 11.0199 12.9085 10.9499 12.7579C10.9254 12.705 10.8893 12.548 10.8692 12.6027C10.8392 12.6845 10.8884 12.9247 10.8957 12.985C10.9361 13.3187 10.9998 13.6481 11.0635 13.978C11.1851 14.6077 11.2956 15.2351 11.2956 15.8781C11.2956 15.9834 11.1314 15.8798 11.0912 15.8504C10.9102 15.7178 10.8527 15.437 10.7052 15.2649" stroke="black" stroke-width="1.03954" stroke-linecap="round"/>
<path d="M10.7052 15.2651C10.7052 15.5957 10.7052 15.9263 10.7052 16.2568C10.7052 16.505 10.7052 16.7531 10.7052 17.0012C10.7052 17.0935 10.7352 17.2475 10.7027 17.3368C10.6839 17.3886 10.6152 17.2681 10.5816 17.2245C10.3568 16.9332 10.1651 16.6158 9.9911 16.2921C9.65329 15.664 9.32721 14.9748 9.16469 14.2759C9.14526 14.1924 9.13228 14.1069 9.10665 14.0249C9.10338 14.0144 9.18317 14.1643 9.19371 14.1876C9.42444 14.6992 9.49581 15.278 9.56717 15.8291C9.58967 16.0028 9.61066 16.1769 9.62521 16.3514C9.63796 16.5044 9.64105 16.658 9.63278 16.383C9.60595 15.491 9.62522 14.5991 9.61386 13.7069C9.61192 13.5551 9.58537 13.3929 9.59619 13.2414C9.59856 13.2082 9.68463 13.4536 9.68703 13.4609C9.89308 14.0912 10.0907 14.7276 10.251 15.3711C10.3966 15.9555 10.5554 16.5037 10.5791 17.1097C10.58 17.135 10.6078 17.9471 10.5589 17.9349C10.4633 17.911 10.4161 17.6366 10.3999 17.5766C10.2814 17.1365 10.2244 16.6849 10.1753 16.2328C10.1627 16.1168 10.1443 16.0001 10.1387 15.8834C10.1365 15.8377 10.133 15.7473 10.1425 15.8556C10.195 16.4567 10.1884 17.0619 10.1816 17.6649C10.1779 17.9975 10.1914 18.4287 10.0466 18.7424C10.025 18.7893 9.9788 18.7896 9.95073 18.7525C9.78309 18.5309 9.76576 18.2056 9.74255 17.9399C9.73826 17.8908 9.68164 17.357 9.73876 17.3368C9.808 17.3124 9.81951 18.1897 9.81951 18.2566C9.81951 18.2952 9.85807 18.8896 9.77409 18.8938C9.61959 18.9015 9.57222 17.2883 9.57222 17.1059C9.57222 17.0604 9.56143 16.35 9.6883 16.4107C9.78399 16.4566 9.86034 16.5883 9.9154 16.6707C10.1155 16.97 10.2444 17.3017 10.3633 17.6396C10.4959 18.0167 10.5897 18.4402 10.7734 18.7979C10.8031 18.8557 10.7961 18.7415 10.7961 18.7398C10.7989 18.3824 10.7961 18.0248 10.7961 17.6674C10.7961 17.4294 10.7961 17.1913 10.7961 16.9533C10.7961 16.9364 10.7734 16.6907 10.8062 16.6782C10.8567 16.659 10.9491 16.7952 10.9651 16.817C11.127 17.0369 11.2484 17.293 11.3373 17.5501C11.4812 17.9661 11.575 18.4188 11.5682 18.861C11.5674 18.914 11.5736 19.027 11.485 19.0023C11.2798 18.9452 11.1971 18.6295 11.1531 18.4585C11.0588 18.0916 11.0374 17.7088 11.027 17.3318C11.0191 17.05 11.0219 16.7873 11.1039 16.5167C11.1723 16.2911 11.2625 16.1553 11.4004 16.4473C11.6386 16.9517 11.6791 17.5447 11.7941 18.085C11.8317 18.2616 11.8627 18.4415 11.9089 18.6162C11.9264 18.6823 11.9743 18.7564 11.977 18.8256C11.9792 18.8795 11.93 18.7282 11.9139 18.6768C11.7518 18.1564 11.6553 17.6233 11.6086 17.0807C11.5877 16.8381 11.574 16.5937 11.5695 16.3502C11.5681 16.2739 11.5334 16.0723 11.5909 16.002C11.6925 15.8778 12.0392 16.7555 12.0439 16.7691C12.3603 17.6881 12.4589 18.6839 12.4943 19.6508C12.4994 19.7887 12.4994 19.9267 12.4994 20.0646C12.4994 20.0781 12.5026 20.1181 12.4994 20.105C12.4886 20.0621 12.4897 19.9998 12.4842 19.9586C12.3706 19.1015 12.1103 18.2635 11.9467 17.4151C11.8532 16.9302 11.7499 16.4184 11.7499 15.9212C11.7499 15.8993 11.7416 15.8099 11.7878 15.8581C11.9168 15.9929 11.993 16.2021 12.0716 16.3666C12.3879 17.0278 12.5494 17.7131 12.6079 18.4421C12.6445 18.8986 12.6342 19.3823 12.7378 19.8312C12.7426 19.8518 12.7667 19.9381 12.7832 19.8665C12.8442 19.6022 12.8292 19.3013 12.835 19.0326C12.8506 18.3077 12.8597 17.5832 12.7643 16.8637C12.7598 16.8297 12.73 16.7087 12.7517 16.6707C12.7518 16.6705 12.8887 16.8337 12.8955 16.8422C13.1067 17.1044 13.2221 17.4151 13.3939 17.7015C13.406 17.7215 13.4961 17.8653 13.4961 17.8567C13.4961 17.5547 13.3431 17.226 13.2488 16.9457C13.2081 16.8248 13.1655 16.7055 13.1176 16.5874C13.1063 16.5595 13.0818 16.5138 13.0911 16.4814C13.0984 16.4559 13.4918 16.8039 13.5062 16.817C13.7111 17.0028 13.8957 17.2067 14.0866 17.4062C14.1585 17.4814 14.2095 17.4482 14.1648 17.3494C14.0716 17.1437 13.8412 16.994 13.6626 16.87C13.4795 16.7428 13.6597 16.8512 13.7611 16.8978C14.2226 17.1098 14.7031 17.3545 15.2196 17.3545C15.5021 17.3545 15.7762 17.2924 16.0599 17.2864C16.4205 17.2787 16.7713 17.1274 17.1323 17.1274" stroke="black" stroke-width="1.03954" stroke-linecap="round"/>
<path d="M17.223 17.6952C17.223 17.3336 17.223 18.4186 17.223 18.7803C17.223 18.9215 17.0929 18.7204 17.0753 18.6819C17.0387 18.6013 17.064 18.4693 17.064 18.3841C17.064 18.1984 17.0755 18.0177 17.1208 17.8366C17.1496 17.7211 17.1652 17.5136 17.3252 17.5136C17.3617 17.5136 17.4342 17.4993 17.4602 17.53C17.5602 17.6482 17.4425 17.8681 17.3819 17.9728C17.2214 18.2504 16.8191 18.6037 16.4685 18.6037C16.2038 18.6037 16.2296 18.0696 16.2515 17.8996C16.2557 17.8663 16.2799 17.7126 16.3486 17.7432C16.4226 17.7761 16.3794 18.0097 16.3625 18.0586C16.2519 18.3781 15.8933 18.5405 15.5802 18.5784C15.3412 18.6074 15.3607 18.4507 15.3607 18.2592C15.3607 18.2138 15.3267 17.9843 15.3657 17.9501C15.3834 17.9347 15.383 17.9948 15.3834 18.0182C15.3848 18.1004 15.388 18.1849 15.3809 18.2668C15.3514 18.6053 15.0417 18.7838 14.7248 18.7046C14.4879 18.6454 14.4104 18.4087 14.4068 18.1898C14.4043 18.0335 14.4069 18.0437 14.4409 18.1949C14.4782 18.3606 14.4908 18.5428 14.4699 18.7122C14.4408 18.9485 14.1204 19.1424 13.8896 19.0705C13.7249 19.0192 13.6676 18.7518 13.6473 18.61C13.6378 18.5435 13.5462 18.1052 13.6397 18.0637C13.7285 18.0242 13.8991 18.0586 13.993 18.0586C14.1618 18.0586 14.3538 18.0333 14.5191 18.0725C14.6341 18.0997 14.7407 18.161 14.856 18.1898C14.9345 18.2095 14.7717 18.0181 14.7664 18.0132C14.649 17.9027 14.4527 17.7613 14.2807 17.7911C14.0768 17.8265 13.9273 18.2556 13.8643 18.422C13.713 18.8219 13.7916 19.2556 13.7697 19.6723C13.7609 19.84 13.6822 19.9965 13.6221 20.1505C13.5359 20.3711 13.4497 20.5893 13.3748 20.8142C13.3115 21.004 13.2718 21.1785 13.236 21.3731C13.2291 21.4107 13.1827 21.6748 13.1805 21.5232C13.177 21.2819 13.1445 21.0405 13.1363 20.799C13.1317 20.6642 13.17 20.4707 13.0846 20.3524C13.0139 20.2545 13.0194 20.3665 13.0228 20.4243C13.0378 20.6798 13.0875 20.9374 13.1123 21.1927C13.1835 21.9235 13.362 22.6267 13.3142 23.3678C13.3116 23.408 13.2849 23.6856 13.2032 23.6807C13.128 23.6763 13.2126 23.0931 13.2171 23.0625C13.291 22.5528 13.3759 22.0439 13.4984 21.5434C13.5045 21.5188 13.5287 21.2474 13.6019 21.2873C13.7702 21.3791 13.8588 21.7223 13.9173 21.8866C14.0438 22.2416 14.1703 22.6119 14.234 22.9843C14.2616 23.1458 14.3272 23.4249 14.2315 23.5748C14.111 23.7634 13.8123 23.7745 13.617 23.7489C13.2253 23.6976 13.0479 23.3708 13.0127 23.0108C13.0033 22.9148 12.9456 22.605 13.0669 22.5376C13.1442 22.4947 13.1841 22.7107 13.1893 22.7446C13.26 23.2 13.025 23.6567 12.8171 24.0441C12.6444 24.3658 12.4526 24.7056 12.0904 24.8264" stroke="black" stroke-width="1.03954" stroke-linecap="round"/>
<path d="M10.3644 23.9633C10.3683 23.9364 10.4537 24.1631 10.4591 24.1778C10.5791 24.5058 10.6543 24.845 10.7228 25.1871C10.8337 25.742 10.9838 26.278 11.0571 26.8399C11.1662 27.6762 11.2749 28.509 11.336 29.3507C11.3849 30.0249 11.3874 30.7227 11.5101 31.3884C11.5402 31.5519 11.5392 31.7244 11.5795 31.8855C11.6036 31.9819 11.7063 31.9099 11.7725 31.8943C11.8509 31.8759 11.8868 31.913 11.9315 31.9688C11.939 31.9782 11.9445 31.9468 11.9441 31.9347C11.9377 31.7522 11.8889 31.5675 11.8532 31.3896C11.7036 30.6433 11.5937 29.8972 11.505 29.1413C11.4218 28.4319 11.3875 27.7262 11.2552 27.0242C11.1869 26.6615 11.1874 26.2831 11.1265 25.9176C11.0908 25.7031 11.0726 25.4535 11.0685 25.2351C11.0658 25.0909 11.0481 24.9254 11.0798 24.7859C11.1207 24.606 11.3675 24.906 11.3965 24.9424C11.8308 25.4872 12.0602 26.1403 12.146 26.8261C12.2891 27.9711 12.2433 29.1384 12.397 30.2831C12.4387 30.5932 12.5332 30.8819 12.6014 31.1852C12.6186 31.2614 12.6386 31.6279 12.7263 31.3745C12.8472 31.0254 12.8891 30.6261 12.9169 30.2604C12.9554 29.7535 12.968 29.2383 12.9509 28.73C12.9286 28.0652 12.7487 27.413 12.6582 26.7567C12.5716 26.1286 12.2097 25.455 12.4488 24.8263C12.5541 24.5494 12.7255 24.3655 12.932 24.1551C13.0442 24.0407 13.1615 23.9355 13.2664 23.8144C13.3058 23.7689 13.3615 23.7159 13.4253 23.7135C13.6153 23.7061 13.4535 24.2229 13.4304 24.3165C13.3138 24.7893 13.0443 25.262 13.0443 25.7574C13.0443 26.1986 13.0662 26.6341 13.0847 27.0746C13.1123 27.7343 13.0897 28.399 13.0897 29.0593C13.0897 29.424 13.067 29.788 13.067 30.1532C13.067 30.2529 13.0222 30.4717 13.0796 30.562C13.1533 30.6777 13.0287 30.9293 13.2071 30.9115C13.4519 30.887 13.7428 30.6514 13.9086 30.4888C14.0766 30.3239 14.2318 30.1383 14.3842 29.9589C14.4906 29.8336 14.618 29.7236 14.7198 29.5955C14.8098 29.4824 14.908 29.4382 15.0327 29.3684C15.1639 29.295 15.2935 29.1511 15.434 29.1009C15.5293 29.0669 15.6244 29.0732 15.7241 29.0732C15.777 29.0732 15.8101 29.0734 15.7544 29.1211C15.6418 29.2176 15.5397 29.3135 15.41 29.3886C15.1011 29.5674 14.7889 29.7075 14.4927 29.9134C14.318 30.0349 14.139 30.1621 13.9451 30.2516C13.7252 30.3531 14.0302 30.1741 14.0827 30.1368C14.6226 29.7522 15.1536 29.3439 15.733 29.0189C15.8706 28.9417 16.0077 28.9388 16.1506 28.8965C16.1929 28.884 16.2361 28.8874 16.278 28.8688C16.2821 28.867 16.0247 28.8388 15.9803 28.8347C15.6915 28.808 15.4984 28.6974 15.2649 28.5407C14.7893 28.2216 14.433 27.662 14.2656 27.1276C14.1671 26.8132 14.1571 26.5015 14.1571 26.175C14.1571 25.9637 14.1417 25.7443 14.2076 25.5404C14.2647 25.3635 14.3321 25.1834 14.4069 25.013C14.4821 24.8418 14.5242 24.6506 14.6113 24.4856C14.634 24.4427 14.6791 24.3976 14.7135 24.3632C14.7506 24.3262 14.7685 24.3535 14.6757 24.3481C14.5494 24.3407 14.4366 24.2859 14.3136 24.2636C14.1986 24.2427 14.205 24.3609 14.1748 24.4503C13.9748 25.0407 13.7931 25.6442 13.6815 26.2583C13.5091 27.2063 13.4195 28.3107 14.007 29.1375C14.1201 29.2968 14.2576 29.4085 14.4296 29.4996C14.4432 29.5068 14.4431 29.5076 14.4359 29.4933C14.3887 29.3989 14.3601 29.2951 14.3262 29.1955C14.2334 28.9236 14.147 28.6499 14.0436 28.3817C13.9434 28.1222 13.8074 27.8816 13.7042 27.6235C13.6691 27.5359 13.7075 27.5462 13.7534 27.6121C13.9432 27.8845 14.0929 28.2021 14.253 28.4928C14.3861 28.7344 14.5391 28.9668 14.6555 29.217C14.691 29.2934 14.7339 29.3556 14.8056 29.4012C14.829 29.4161 14.8784 29.4348 14.9066 29.4365C15.0053 29.4427 14.7103 29.4719 14.6189 29.5097C14.2224 29.6736 13.859 29.9212 13.6146 30.2743C13.5928 30.3057 13.5709 30.3867 13.5389 30.408C13.5296 30.4142 13.4815 30.0115 13.4808 29.9967C13.4623 29.5888 13.4924 29.2107 13.5767 28.8132C13.6001 28.7033 13.6121 28.5946 13.6121 28.4827" stroke="black" stroke-width="1.03954" stroke-linecap="round"/>
<path d="M18.9265 26.666C18.9265 26.4036 18.9265 26.1412 18.9265 25.8787C18.9265 25.6867 18.9392 25.5909 18.813 25.4447C18.6987 25.3124 18.4629 25.2264 18.3108 25.1495C18.1056 25.0457 17.8937 24.999 17.6711 24.9489C17.1546 24.8326 16.6193 24.8492 16.0928 24.8492C15.8142 24.8492 15.5625 24.8362 15.3256 25.0082C15.1686 25.1222 15.042 25.2675 14.8752 25.369C14.7347 25.4546 14.5931 25.4454 14.6393 25.2201C14.6785 25.0289 14.9382 24.896 15.0897 24.8076C15.3384 24.6625 15.6137 24.5687 15.8921 24.4997C16.4194 24.3691 16.9758 24.3744 17.516 24.4C17.9136 24.4189 18.2651 24.5492 18.6414 24.6625C18.882 24.7349 19.1035 24.8242 19.3 24.9855C19.5704 25.2073 19.5397 25.5532 19.5397 25.8712C19.5397 25.9393 19.5782 25.9698 19.6079 25.8838C19.6976 25.624 19.7384 25.3109 19.6709 25.041C19.5981 24.7496 19.2721 24.4813 19.03 24.3319C18.4916 23.9995 17.8621 23.8702 17.2409 23.7957C16.9587 23.7618 16.657 23.7719 16.3729 23.7831C16.0751 23.7947 15.8113 23.9294 15.5603 24.072C15.4129 24.1557 15.2633 24.2529 15.1112 24.3269C15.0582 24.3526 14.9341 24.4109 14.874 24.3937C14.7881 24.3692 14.8571 24.0966 14.874 24.0531C14.9745 23.793 15.0633 23.701 15.3256 23.5951C16.2048 23.2402 17.2252 23.3146 18.1077 23.6127C18.6859 23.8081 19.3335 24.1634 19.6533 24.7079C19.7419 24.8588 19.7668 24.9489 19.7668 25.1268C19.7668 25.183 19.7288 25.3822 19.8022 25.3955C19.9118 25.4155 19.929 25.5312 20.004 25.5848C20.0222 25.5978 20.0166 25.4444 20.0166 25.4346C20.0166 25.2565 20.0229 25.0769 20.0015 24.8997C19.907 24.1181 19.5998 23.4302 18.8836 23.0475C18.6519 22.9236 18.4305 22.8913 18.1771 22.8507C17.8768 22.8025 17.5822 22.7694 17.2775 22.7611C16.4564 22.7386 15.5868 22.8013 14.8386 23.1686C14.6903 23.2414 14.5328 23.3454 14.3617 23.3503C14.2241 23.3542 14.2482 23.2037 14.2482 23.1005C14.2482 22.872 14.3253 22.6551 14.5711 22.6059C14.7129 22.5776 14.8483 22.5781 14.9926 22.5781C15.2765 22.5781 15.5175 22.6373 15.795 22.6803C16.1864 22.7411 16.5652 22.862 16.9558 22.9264C17.3498 22.9913 17.76 23.0357 18.1594 23.0324C18.416 23.0302 18.6635 23.0021 18.8887 22.8734C18.995 22.8126 19.0698 22.7105 19.1764 22.6513C19.2412 22.6153 19.1628 22.536 19.1259 22.51C19.0352 22.4462 18.9173 22.4555 18.8117 22.4772C18.6924 22.5018 18.3465 22.5835 18.4673 22.5996C18.8173 22.6463 19.1787 22.4726 19.5271 22.4469C19.9098 22.4187 20.0931 22.6727 20.2438 22.9819C20.3753 23.252 20.5018 23.5016 20.5831 23.7932C20.6835 24.1529 20.7207 24.4831 20.7207 24.8568C20.7207 24.9661 20.7207 25.0755 20.7207 25.1848C20.7207 25.2063 20.6929 25.2631 20.7081 25.2479C20.7613 25.1947 20.7861 25.0952 20.8128 25.0284C20.9192 24.7622 21.175 24.3496 21.5155 24.3496C21.5737 24.3496 21.625 24.314 21.6745 24.2865C21.8023 24.2155 21.4816 23.9484 21.4398 23.8928C21.2077 23.5844 21.01 23.2554 20.8052 22.9289C20.6946 22.7526 20.5846 22.5752 20.428 22.4356C20.2876 22.3105 20.1007 22.248 19.9712 22.1126C19.8566 21.9928 19.7176 21.893 19.599 21.7744C19.4909 21.6663 19.469 21.687 19.358 21.7959C19.2284 21.9231 19.1857 21.9137 19.3151 22.0684C19.4903 22.2779 19.6394 22.5019 19.7971 22.7245C19.9731 22.9729 20.1834 23.2002 20.3409 23.4613C20.5663 23.8351 20.6298 24.3447 20.6298 24.776C20.6298 24.9021 20.6494 25.0412 20.6122 25.1621C20.6056 25.1834 20.6009 25.2109 20.6298 25.2126C20.6954 25.2164 20.7093 25.1201 20.7257 25.0738C20.8724 24.6594 21.0452 24.1557 21.3591 23.8373C21.4741 23.7207 21.6265 23.6359 21.754 23.532C21.9449 23.3765 22.0978 23.1739 22.2864 23.0122C22.411 22.9054 22.5457 22.8173 22.6624 22.7005C22.905 22.4579 23.077 22.1643 23.239 21.864C23.4601 21.4544 23.6567 21.0274 23.9002 20.6301C23.9577 20.5362 23.9892 20.4236 24.0516 20.326C24.1933 20.1041 24.401 19.9296 24.5928 19.7519C24.6831 19.6683 24.791 19.6082 24.9108 19.5816C24.9505 19.5728 25.0443 19.5264 25.0723 19.5501C25.1971 19.6556 25.2905 19.9818 25.235 20.1431C25.1864 20.2846 24.9045 20.4184 24.7909 20.5064C24.4869 20.742 24.1809 20.9776 23.8989 21.2395C23.3912 21.7109 23.0569 22.3317 22.6006 22.8507C22.4517 23.0201 22.2964 23.1778 22.1742 23.368C22.1307 23.4356 22.207 23.3967 22.2448 23.3755C22.6158 23.1682 22.9544 22.8788 23.2731 22.6009C23.6215 22.297 23.9881 22.0074 24.2951 21.6609C24.4383 21.4992 24.5945 21.3522 24.7455 21.1978C24.8354 21.1059 24.9494 21.0039 24.9852 20.8748C25.0338 20.7 25.0201 20.4993 25.0117 20.3197C25.008 20.239 24.9345 20.0763 24.9941 20.0093C25.1354 19.8503 25.3403 19.7443 25.4571 19.5627C25.5875 19.3598 24.7395 19.3706 24.6547 19.381C24.1805 19.4394 23.6906 19.3705 23.2176 19.4327C23.1794 19.4377 22.867 19.4433 22.8567 19.4794C22.8462 19.5164 22.8555 19.5695 22.8555 19.6068C22.8555 19.7743 22.8503 19.933 22.8151 20.0976C22.758 20.3647 22.6531 20.5944 22.5325 20.8395C22.2291 21.4561 21.9293 22.0691 21.5471 22.6425C21.4009 22.8617 21.2818 23.0954 21.1421 23.315C20.9014 23.6932 21.6771 22.5946 21.9193 22.2173C22.2553 21.6937 22.6525 21.2135 23.0119 20.707C23.1245 20.5484 23.2169 20.4231 23.3665 20.2957C23.4659 20.211 23.6516 20.1582 23.7134 20.0346C23.7685 19.9244 23.6251 19.7503 23.5671 19.6788C23.341 19.3999 23.0335 19.2833 22.7217 19.1274C22.5694 19.0512 22.4028 18.9973 22.2448 18.9331C22.2138 18.9205 21.9972 18.7861 21.9937 18.7981C21.98 18.8463 22.0117 18.9229 22.0139 18.9722C22.0249 19.2143 22.0017 19.4635 21.9672 19.7027C21.8804 20.3057 21.7434 20.9312 21.5383 21.5057C21.4152 21.8502 21.216 22.1631 21.1194 22.5176C21.1022 22.5805 21.0613 22.7695 21.0613 22.7043C21.0613 22.5523 21.1353 22.3775 21.1648 22.2287C21.2818 21.6373 21.4343 21.0728 21.4802 20.4698C21.5061 20.13 21.504 19.8333 21.3641 19.5198C21.2958 19.3667 21.2257 19.259 21.2203 19.0858C21.2117 18.8105 21.1824 18.519 21.1295 18.2492C21.1007 18.1027 21.0746 17.9338 20.9818 17.8102C20.9146 17.7206 20.9822 17.8619 20.9932 17.8871C21.0434 18.0024 21.0467 18.1454 21.0613 18.2682C21.0852 18.4681 21.1097 18.6684 21.1295 18.8687C21.1799 19.379 21.1522 19.8993 21.1522 20.4118C21.1522 20.837 21.1522 21.2622 21.1522 21.6874C21.1522 21.8981 21.1351 22.1662 20.9932 22.3283" stroke="black" stroke-width="1.03954" stroke-linecap="round"/>
<path d="M21.8107 18.5127C21.7758 18.433 21.701 18.3637 21.6467 18.2982C21.5149 18.1392 21.3819 17.981 21.2543 17.8187C21.1309 17.662 21.0234 17.4805 20.8846 17.3367C20.7063 17.1521 20.5794 16.916 20.4266 16.7097C20.3864 16.6554 20.3266 16.6305 20.2891 16.5772C20.2447 16.5141 20.2012 16.4419 20.1541 16.3829C20.113 16.3315 20.1877 16.5101 20.2058 16.5734C20.3403 17.0444 20.4398 17.5268 20.4985 18.013C20.5942 18.8047 20.6004 19.5953 20.6575 20.3875C20.6856 20.7772 20.7494 21.166 20.7837 21.5559C20.7948 21.6829 20.7887 21.812 20.7887 21.9394C20.7887 22.0367 20.7586 21.977 20.7054 21.9281C20.5062 21.7447 20.3079 21.5491 20.096 21.3843C20.0759 21.3686 20.0179 21.352 20.0165 21.3288C20.0122 21.2546 19.9874 21.1749 19.9711 21.1017C19.7827 20.2538 19.8349 19.3434 19.8349 18.4824C19.8349 17.6989 19.8349 16.9153 19.8349 16.1318C19.8349 15.8235 19.8349 15.5153 19.8349 15.207C19.8349 15.051 19.8594 14.8688 19.8222 14.7149C19.8197 14.7042 19.7648 14.5953 19.7667 14.6291C19.7687 14.6652 19.8001 14.701 19.8172 14.7301C19.8917 14.8566 19.9471 14.9957 19.9926 15.1351C20.1142 15.508 20.1787 15.9575 20.0796 16.3425C20.0411 16.4921 19.9578 16.6252 19.8929 16.7639C19.8039 16.9541 19.7576 17.1566 19.7314 17.3645C19.6392 18.0969 19.6305 18.8639 19.6305 19.6028C19.6305 19.6319 19.6078 19.5865 19.6002 19.5775C19.4454 19.3956 19.293 19.2122 19.1233 19.0438C18.7549 18.6786 18.3687 18.3143 17.9423 18.0168C17.9182 18 17.78 17.9215 17.7909 17.9222C17.8338 17.9249 17.8886 17.9534 17.9272 17.9726C18.055 18.0366 18.1867 18.0974 18.3158 18.1619C18.4184 18.2132 18.5178 18.2706 18.6211 18.3209C18.6897 18.3543 18.6758 18.374 18.6425 18.3297C18.5893 18.2587 18.4722 18.2287 18.394 18.1947C18.1171 18.0744 17.8413 17.9972 17.5562 17.9045C17.4872 17.8821 17.4202 17.8727 17.4288 17.791C17.4559 17.5335 17.5709 17.2796 17.6445 17.0339C17.7963 16.5281 17.9027 16.0064 18.0395 15.4959C18.1126 15.2228 18.1985 14.9278 18.2211 14.6443C18.2242 14.6058 18.2279 14.5258 18.1669 14.5761C18.0765 14.6507 18.0049 14.762 17.9347 14.8537C17.7273 15.1249 17.5264 15.4052 17.3607 15.7041C17.2641 15.8782 17.1758 16.0688 17.1146 16.2593C17.0732 16.3882 17.1096 16.1842 17.1096 16.128C17.1096 15.3772 17.1549 14.6331 17.1752 13.8835C17.1832 13.587 17.2103 13.2941 17.0881 13.0192C16.987 12.7916 17.0187 12.5338 17.0187 12.2899C17.0187 12.1789 17.0379 11.9099 17.1146 12.1638C17.2915 12.7492 17.4076 13.3538 17.5058 13.9567C17.6401 14.7815 17.66 15.6192 17.7909 16.4422C17.8231 16.6445 17.859 16.8438 17.859 17.0491C17.859 17.1675 17.7682 17.2554 17.6988 17.3443C17.6229 17.4416 17.524 17.6272 17.4048 17.6774C17.3067 17.7187 17.341 17.1315 17.3417 17.1122C17.3529 16.819 17.4128 16.5396 17.449 16.2504C17.4723 16.0639 17.4502 16.6264 17.4502 16.8144C17.4502 17.1606 17.4257 17.517 17.4629 17.8616C17.4835 18.0536 17.5038 18.2684 17.6471 18.4117C17.7459 18.5106 17.8619 18.556 17.9776 18.6262C18.0718 18.6834 18.0393 18.4121 18.042 18.3019C18.0665 17.2748 18.1051 16.2486 18.1492 15.2221C18.1972 14.1042 18.2224 12.9886 18.2224 11.8698C18.2224 11.5996 18.2338 11.3021 18.1656 11.0371C18.1435 10.9509 18.131 10.8579 18.1038 10.7734C18.076 10.6868 18.0879 10.7904 18.0849 10.8251C18.0801 10.8799 18.0554 10.9312 18.0382 10.9828C17.9677 11.1942 17.9086 11.4106 17.8641 11.6288C17.7328 12.2722 17.6735 13.0039 17.7833 13.6551C17.8497 14.0488 18.0086 14.4261 18.1076 14.8121C18.2 15.1723 18.2718 15.5382 18.3536 15.9009C18.4394 16.2812 18.5858 16.7006 18.5858 17.0932C18.5858 17.2484 18.5873 17.4037 18.5807 17.5588C18.5725 17.7507 18.5176 17.9432 18.5176 18.1341C18.5176 18.6994 18.5154 17.0035 18.5277 16.4384C18.5476 15.5261 18.5977 14.615 18.6287 13.7031C18.6526 12.9981 18.646 12.2935 18.6589 11.5884C18.6683 11.0772 18.6762 10.5663 18.6993 10.0567C18.7332 9.31197 18.8372 11.5415 18.8936 12.2849C19.0006 13.6957 19.0008 15.1153 19.1409 16.523C19.1836 16.9517 19.2827 17.3731 19.3176 17.8011C19.3337 17.9987 19.3359 18.2157 19.3756 18.4092C19.3977 18.5169 19.3784 18.4976 19.3239 18.4231C19.19 18.2399 19.1027 18.0909 19.0576 17.8616C18.9203 17.1622 18.9341 16.4179 18.9277 15.7079C18.9215 15.0265 18.9814 14.3517 19.0299 13.6728C19.0641 13.1941 19.1748 12.7287 19.257 12.2571C19.32 11.8956 19.3679 11.5305 19.4475 11.1721C19.4683 11.0783 19.529 11.0034 19.585 10.9273C19.7582 10.6921 19.9251 10.4677 20.1629 10.2914C20.4343 10.0902 20.7489 9.98121 21.0713 9.89398C21.3425 9.8206 21.6017 9.72616 21.8662 9.63281C22.1378 9.53693 22.4065 9.4495 22.6737 9.34262C22.783 9.29888 22.9158 9.31486 23.032 9.31486C23.0768 9.31486 23.1209 9.31084 23.1039 9.37037C23.0866 9.43116 22.6931 9.49319 22.6573 9.50412C22.2331 9.63352 21.7731 9.83407 21.4246 10.1148C21.1103 10.3679 20.8699 10.7033 20.6272 11.0219C20.1799 11.609 19.816 12.2054 19.744 12.9536C19.7074 13.3342 19.6711 13.7131 19.6418 14.0942C19.6332 14.2066 19.6305 14.5451 19.6305 14.4323C19.6305 14.0267 19.7541 13.6834 19.9358 13.3233C20.234 12.7324 20.5752 12.1345 21.0802 11.6944C21.2508 11.5457 21.4339 11.404 21.6113 11.2629C21.7284 11.1699 21.8467 11.0578 21.9873 11.0005C22.0592 10.9712 21.9671 11.1403 21.957 11.1733C21.8514 11.5185 21.7228 11.8546 21.6088 12.1966C21.6043 12.21 21.5381 12.4473 21.5381 12.3657C21.5381 12.0442 21.5695 11.7271 21.6403 11.4131C21.6928 11.1806 21.75 10.9135 21.9217 10.7355C21.9801 10.675 22.2041 10.5039 21.9823 10.6548C21.1237 11.2389 20.5046 12.3213 20.2083 13.3018C20.1218 13.5882 20.0919 13.8781 20.0493 14.1724C20.0171 14.3953 19.949 14.6032 19.8929 14.8197C19.8318 15.0555 20.0775 14.6193 20.0948 14.5913C20.375 14.1367 20.6689 13.6912 20.9994 13.2716C21.1953 13.0227 21.3873 12.7912 21.6214 12.5776C21.7971 12.4174 21.9535 12.249 22.1059 12.0679C22.145 12.0215 22.2238 11.9513 22.2409 11.8913C22.2565 11.8368 22.2574 11.88 22.2182 11.9152C22.1749 11.9542 22.1267 11.9313 22.0832 11.9543C22.0332 11.9808 22.1024 12.0069 22.1059 12.0401C22.147 12.4307 22.5546 12.6858 22.7986 12.9486C23.0409 13.2095 23.499 13.4415 23.8546 13.4482C24.0051 13.451 24.1559 13.4482 24.3063 13.4482C24.5152 13.4482 24.6837 13.3784 24.8716 13.2943C25.2049 13.1449 25.4131 12.9057 25.6942 12.6861C25.844 12.5691 25.9241 12.4939 26.0121 12.324C26.1423 12.0729 26.1272 11.8178 26.1534 11.5455C26.1921 11.1442 26.215 10.6607 26.103 10.2687C26.0701 10.1536 26.0213 10.1244 26.1509 10.1892C26.5013 10.3644 26.7957 10.7038 27.0795 10.9727C27.4053 11.2814 27.7148 11.6305 27.9652 12.0061C28.0597 12.1478 28.188 12.2559 28.2201 12.4262C28.2961 12.8289 28.3096 13.2328 28.2491 13.6425C28.1803 14.1089 28.1565 14.5802 28.022 15.0354C27.9304 15.3454 27.7589 15.5137 27.5691 15.7621C27.3203 16.0878 27.1189 16.4444 26.8751 16.774C26.4884 17.2971 26.1469 17.8752 25.8998 18.4773C25.8659 18.5601 25.8278 18.637 25.7901 18.717C25.7808 18.7368 25.831 18.7003 25.8481 18.6868C26.0137 18.5554 26.1819 18.4246 26.3389 18.283C26.7971 17.8698 27.2097 17.3674 27.5968 16.8876C27.8907 16.5233 28.1663 16.1338 28.3816 15.7167C28.5165 15.4555 28.5456 15.199 28.6251 14.9206C28.6829 14.7184 28.7332 14.5156 28.8005 14.3162C28.8452 14.1838 28.9016 14.0574 28.9191 13.9175C28.9243 13.8758 28.9096 14.0022 28.8939 14.0412C28.7751 14.3344 28.584 14.6099 28.427 14.8827C28.0176 15.5944 27.6181 16.3065 27.1527 16.9835C26.8081 17.4847 26.4467 17.9756 26.1244 18.4912C26.006 18.6807 25.9473 18.9066 25.8191 19.0918C25.7737 19.1573 25.6185 19.4351 25.7043 19.5119C25.9174 19.7026 26.3322 18.9826 26.4108 18.8634C26.5722 18.6189 26.6557 18.4352 26.6695 18.1392C26.6746 18.0286 26.6908 17.8985 26.6253 17.8036C26.5476 17.6909 26.466 17.5825 26.3982 17.4629C26.2732 17.2423 26.1582 17.0235 26.0689 16.7854C25.9614 16.4986 25.7547 16.2534 25.568 16.0145C25.4464 15.8588 25.2878 15.7407 25.1289 15.6259C24.9399 15.4893 24.7538 15.3268 24.5587 15.202C24.2636 15.0131 23.918 14.8377 23.5922 14.7074C23.2533 14.5718 22.8835 14.5837 22.5261 14.5837C22.1992 14.5837 21.8767 14.6306 21.5508 14.6531C21.4238 14.6619 21.3101 14.7503 21.2025 14.8108C21.0697 14.8855 20.917 14.9478 20.771 14.9925C20.6856 15.0187 20.4347 15.0973 20.3572 15.0152C20.1598 14.8062 20.8505 14.4307 20.9653 14.3528C21.3024 14.1243 21.5936 13.9769 22.0062 13.9945C22.2525 14.005 22.5024 14.0529 22.7469 14.0841C23.0868 14.1275 23.4206 14.1581 23.7537 14.2431C24.7294 14.492 25.7035 14.8775 26.3049 15.7293C26.4583 15.9467 26.5636 16.2028 26.7263 16.4119C26.7796 16.4805 26.831 16.3637 26.8625 16.3122C27.0122 16.0683 27.1719 15.8377 27.2839 15.5729C27.3761 15.355 27.4745 15.1235 27.5211 14.8903C27.5512 14.7399 27.5337 14.5738 27.5337 14.421C27.5337 13.8551 27.3617 13.3227 27.2839 12.7669C27.251 12.5311 27.2093 12.2807 27.1338 12.054C27.066 11.8507 26.9275 11.6821 26.8121 11.5052C26.7627 11.4296 26.6981 11.3272 26.6165 11.2819C26.5892 11.2667 26.623 11.3308 26.6253 11.3361C26.6772 11.4535 26.708 11.5824 26.7364 11.707C26.9149 12.4906 26.9035 13.3315 26.8739 14.132C26.8518 14.7275 26.6347 15.312 26.5168 15.8908C26.4821 16.0612 26.4688 15.7661 26.4676 15.7293C26.4574 15.4077 26.4459 15.0866 26.426 14.7654C26.3926 14.2278 26.2708 13.6634 26.0916 13.1542C26.0635 13.0744 26.0121 12.9132 26.0121 12.9132C26.0121 12.9132 26.0121 13.1269 26.0121 13.2337C26.0121 13.3599 26.0295 13.5192 25.9314 13.6173C25.8267 13.722 25.6905 13.7926 25.5832 13.8999C25.5103 13.9727 25.4098 14.1319 25.3132 14.1699C25.18 14.2222 25.1314 13.9011 25.1163 13.8355C25.091 13.7251 25.012 13.413 25.192 13.3851C25.4021 13.3526 25.7392 13.35 25.9238 13.4558C26.2705 13.6543 26.262 14.0031 26.262 14.3566C26.262 14.4139 26.2767 14.4475 26.2102 14.4475C25.8021 14.4475 25.4391 14.4051 25.0432 14.3024C24.402 14.1359 23.738 14.083 23.1014 13.9037C22.6348 13.7722 22.1436 13.6327 21.6971 13.4431C21.6458 13.4214 21.2969 13.2611 21.3388 13.1668C21.3664 13.1048 21.8655 13.153 21.9368 13.153C22.1889 13.153 22.4094 13.2044 22.651 13.2665C22.7046 13.2803 22.8122 13.3369 22.7418 13.2665" stroke="black" stroke-width="1.03954" stroke-linecap="round"/>
</svg>
