<svg width="36" height="37" viewBox="0 0 36 37" fill="none" xmlns="http://www.w3.org/2000/svg">
<rect x="-0.519772" y="0.519772" width="34.305" height="35.8643" rx="4.67795" transform="matrix(-1 0 0 1 34.3384 0)" fill="white" stroke="black" stroke-width="1.03954"/>
<path d="M22.0069 15.4835C22.0069 13.7518 23.9611 12.2221 25.2361 11.7481C25.97 11.4752 27.2929 11.274 28.0263 11.6409C28.9837 12.1198 29.5539 13.3484 29.8165 14.4622C30.2685 16.3796 28.9206 17.5525 27.4555 17.8647C26.8659 17.9903 25.519 18.2148 25.519 17.2101" stroke="black" stroke-width="0.544716" stroke-linecap="round"/>
<path d="M23.3687 16.7078C23.4113 16.2796 24 16.3001 24 16.0472C24 15.278 24.4906 14.589 24.9521 14.0878C25.0927 13.9351 26.2314 13.2894 26.3401 13.8359C26.4073 14.1739 25.8941 14.0984 25.8941 14.5413C25.8941 14.9775 26.0598 15.0955 26.4353 15.0955C27.0786 15.0955 25.9936 15.5958 25.8089 15.7505C25.5046 16.0055 24.1096 17.4997 23.9098 16.6071" stroke="black" stroke-width="0.544716" stroke-linecap="round"/>
<path d="M20.7476 13.7498C20.0886 13.7498 19.378 13.738 18.7926 13.4128C18.2147 13.0917 17.1798 13.2047 16.6728 12.836C16.3693 12.6153 15.2789 12.8061 14.8826 12.8061C14.1612 12.8061 13.955 13.239 13.3321 13.585C11.965 14.3446 10.4494 15.3489 9.28733 16.4464C8.70191 16.9993 7.26493 18.0875 7.26493 18.9406C7.26493 19.5035 7.39976 19.9231 7.39976 20.4912" stroke="black" stroke-width="0.544716" stroke-linecap="round"/>
<path d="M17.916 13.2102C16.9351 13.1012 16.2586 12.08 15.7663 11.3826C15.3604 10.8076 14.9987 10.1269 14.845 9.43508C14.7778 9.13285 14.815 8.79951 14.815 8.49129C14.815 8.11304 14.8559 8.44734 14.7101 8.57369C13.6818 9.46492 12.2748 10.1927 11.6091 11.4575C11.3193 12.0082 11.1747 12.7219 11.1747 13.3301C11.1747 13.748 11.4444 14.0974 11.4444 13.4799" stroke="black" stroke-width="0.544716" stroke-linecap="round"/>
<path d="M8.0199 18.1465C8.78879 18.1465 9.02203 18.2861 9.37481 18.9916C9.70708 19.6562 7.91288 20.0384 7.77844 19.8368" stroke="black" stroke-width="0.544716" stroke-linecap="round"/>
<path d="M8.26147 20.9233L8.38899 23.1529" stroke="black" stroke-width="0.544716" stroke-linecap="round"/>
<path d="M6.56783 19.6123C6.56783 20.1279 6.35884 20.852 6.59493 21.3416C6.8317 21.8326 6.85177 22.452 7.29956 22.8806" stroke="black" stroke-width="0.544716" stroke-linecap="round"/>
<path d="M9.00658 22.8804C9.42665 22.8804 9.5961 23.2169 9.9255 23.3633C10.5332 23.6334 11.3307 24.0853 11.9713 24.2017C12.4654 24.2916 13.1906 24.5321 13.5676 24.0609C13.6924 23.905 13.4872 23.5595 13.4872 23.6718C13.4872 23.8639 13.7338 24.176 13.8359 24.3292" stroke="black" stroke-width="0.544716" stroke-linecap="round"/>
<path d="M18.2822 16.9389C17.9204 16.9389 17.4886 16.867 17.1352 16.9456C16.9044 16.9969 16.6897 17.4233 17.0749 17.0596C17.5883 16.5747 18.5386 16.5767 19.1877 16.5767C19.7506 16.5767 20.3341 16.5756 20.6365 17.12C20.8273 17.4635 19.6869 17.0596 19.4895 17.0596C18.9672 17.0596 18.4421 17.0447 17.92 17.0596C17.4731 17.0724 17.3316 17.3289 17.0212 17.5358C16.8961 17.6192 17.3432 17.4788 17.4371 17.3614C17.6919 17.0429 20.0643 16.8103 20.0932 17.3011C20.1114 17.611 20.2139 17.8827 20.2139 18.1999C20.2139 18.4177 20.1335 18.7228 20.2408 18.3608C20.3296 18.0611 20.3347 17.7911 20.3347 17.4822C20.3347 17.1442 20.5762 17.1307 20.5762 17.4889C20.5762 17.7898 20.2073 18.9712 19.6774 18.4413C19.1557 17.9197 20.1283 17.3079 20.0932 17.9047C20.0593 18.4818 18.5615 17.6282 19.3956 17.3279C20.3888 16.9703 20.3907 18.1462 19.6103 18.1462C18.6109 18.1462 19.3933 17.1803 20.0932 17.1803C20.7724 17.1803 19.7608 18.3013 19.1944 18.1395C18.9816 18.0787 19.149 17.4982 19.3017 17.4218C19.353 17.3962 20.2356 17.187 20.1938 17.3748C20.1474 17.5837 19.3458 17.9047 19.1273 17.9047C18.8828 17.9047 18.7602 17.4363 19.0066 17.4218C19.6432 17.3844 17.09 18.1318 17.9468 17.8779C18.244 17.7898 18.5121 17.605 18.8188 17.5492C19.088 17.5003 19.0835 18.039 18.9328 18.1395C18.6666 18.317 17.9271 18.381 17.6785 18.1462C17.4382 17.9192 17.5403 17.5803 17.8663 17.5492C18.0788 17.529 19.8246 17.6066 18.953 18.1194C18.1924 18.5667 17.3994 17.8275 18.6176 17.784C18.885 17.7744 19.1549 17.784 19.4225 17.784C19.9728 17.784 19.1819 17.9047 19.0066 17.9047C18.727 17.9047 18.4408 17.8883 18.1615 17.9047C17.9447 17.9175 17.9294 18.2087 17.6182 18.1395C17.4393 18.0997 17.3406 17.7063 17.4639 17.5694C17.5361 17.4891 18.0548 17.3011 17.92 17.3011C17.4657 17.3011 16.8176 17.8633 17.4371 18.173C17.7785 18.3437 17.5558 18.4455 17.37 18.2066C17.1483 17.9215 17.0285 17.7403 16.9608 17.3681C16.9087 17.0816 17.2084 16.9177 17.0749 17.0596C16.8961 17.2495 16.7766 17.4661 16.7194 17.7236C16.6647 17.9695 16.8272 18.1307 17.0749 18.1462C17.1627 18.1517 16.7245 18.1225 16.5919 18.0523C16.4319 17.9676 16.4036 17.6235 16.5383 17.4889C16.8625 17.1646 16.616 17.5487 16.5986 17.6096C16.4546 18.1137 17.1956 18.7562 17.1956 18.2669" stroke="black" stroke-width="0.544716" stroke-linecap="round"/>
<path d="M10.5679 24.0595C10.5679 24.4217 10.5679 24.7839 10.5679 25.1461C10.5679 25.8607 10.2371 25.5192 9.65566 25.5083C9.42098 25.5038 8.63613 25.669 8.63613 25.3205C8.63613 25.1005 8.63613 24.392 8.63613 24.4217C8.63613 25.2291 8.24932 25.4636 7.52269 25.24C7.17265 25.1323 6.82512 25.2681 6.82512 24.8442C6.82512 24.4629 6.94585 24.0876 6.94585 23.6973" stroke="black" stroke-width="0.544716" stroke-linecap="round"/>
<path d="M27.2166 19.7158C27.3185 20.735 28.1078 21.0163 28.7929 21.5872C29.0731 21.8207 29.4691 21.7583 29.752 22.0098C30.0015 22.2315 30.5162 22.3852 30.8386 22.4927" stroke="black" stroke-width="0.544716" stroke-linecap="round"/>
<path d="M7.53691 17.5428C7.53691 16.5393 7.68005 15.4378 7.45643 14.4573C7.3032 13.7855 6.88529 12.5687 6.20884 12.2305" stroke="black" stroke-width="0.544716" stroke-linecap="round"/>
<path d="M6.69189 18.8706C6.64052 17.6118 5.43909 16.4592 4.30405 16.0668C3.4716 15.7791 2.52334 15.2485 1.62107 15.2485" stroke="black" stroke-width="0.544716" stroke-linecap="round"/>
<path d="M6.75488 22.3458C5.67813 22.3458 4.47405 22.1882 3.73654 23.1306C3.41961 23.5356 3.33797 24.1932 3.01213 24.519" stroke="black" stroke-width="0.544716" stroke-linecap="round"/>
<path d="M11.4006 20.4404C12.061 20.4404 12.7498 20.3892 13.3994 20.5276C14.437 20.7487 15.3842 21.4898 16.2031 22.1307C17.2733 22.9682 18.056 24.0775 19.0068 25.0283" stroke="black" stroke-width="0.544716" stroke-linecap="round"/>
<path d="M10.1932 21.7683C10.5304 21.7683 10.8941 21.7354 11.2261 21.7952C11.746 21.8887 11.8712 22.4824 12.0981 22.8818C12.5891 23.7459 13.0195 24.8141 13.3323 25.7525" stroke="black" stroke-width="0.544716" stroke-linecap="round"/>
<path d="M15.7633 17.7632C15.7633 17.5116 15.7601 17.3766 15.906 17.1578C16.0692 16.9131 16.2427 16.6752 16.4058 16.4307" stroke="black" stroke-width="0.544716" stroke-linecap="round"/>
<path d="M20.0464 16.0265C20.2501 16.0265 20.5289 15.9648 20.6915 16.0979C20.9292 16.2923 21.0831 16.6219 21.1886 16.9083C21.3257 17.2803 21.2882 17.7461 21.3261 18.1391C21.3594 18.4848 21.3383 18.9401 21.0458 19.1676" stroke="black" stroke-width="0.544716" stroke-linecap="round"/>
<path d="M20.7704 13.8891C20.8442 13.5449 21.3014 13.265 21.5761 13.0994C21.7634 12.9865 21.9461 12.8679 22.1372 12.7617C22.412 12.609 22.6489 12.3999 22.9256 12.2511C23.3476 12.0243 23.7996 11.8597 24.2219 11.6342C24.6771 11.3912 25.1424 11.1357 25.6406 10.9934C26.0138 10.8867 26.3812 10.8525 26.7693 10.8764C27.2074 10.9033 27.5776 11.1504 27.9473 11.3603C28.216 11.5129 28.773 11.6053 28.8594 11.9507" stroke="black" stroke-width="0.544716" stroke-linecap="round"/>
<path d="M20.8582 14.002C20.9236 14.002 21.2235 13.9615 21.2699 14.0249C21.3458 14.1287 21.3159 14.3642 21.2203 14.4462C21.1192 14.5328 21.5176 14.5649 21.5634 14.5929C21.6691 14.6575 21.5057 14.9452 21.5158 15.0256C21.5277 15.1207 22.0291 15.2386 22.12 15.3058C22.3179 15.4521 22.5661 15.4765 22.7662 15.6184C22.9916 15.7784 23.152 15.9731 23.2675 16.217C23.2913 16.2672 23.4806 16.3479 23.5687 16.4457C23.6791 16.5683 24.2269 17.282 23.9652 17.4274C23.7878 17.5259 23.5299 17.5017 23.3342 17.5017C23.1198 17.5017 23.1738 17.5017 23.3438 17.5017C23.469 17.5017 23.9375 17.4504 24.0147 17.5856C24.064 17.6718 24.6388 17.5703 24.7353 17.5703C24.8297 17.5703 24.9209 17.5625 25.0097 17.597C25.0492 17.6124 24.9372 17.4865 24.9278 17.4655C24.8717 17.3409 24.9041 17.2772 24.7696 17.2196C24.6543 17.1702 24.9332 17.4099 25.0097 17.5093C25.1705 17.7181 25.3438 17.9465 25.4329 18.1975C25.4394 18.2158 25.4647 18.3993 25.4348 18.3461C25.3509 18.1969 25.3143 18.0069 25.3185 17.8372C25.3264 17.522 25.5868 17.4607 25.8523 17.5093C26.2779 17.5873 26.4486 18.433 26.4984 18.7655C26.5183 18.8978 26.5576 19.1121 26.5137 19.2439C26.4665 19.3856 26.1494 18.9526 26.1229 18.9084C26.0464 18.7809 25.9191 18.432 26.1248 18.6835C26.2654 18.8553 26.3287 19.1162 26.4165 19.3202C26.4842 19.4775 26.7533 19.8808 26.9845 19.7967C27.0655 19.7673 27.1263 19.6675 27.1904 19.6137C27.3113 19.5121 27.4748 19.5191 27.625 19.526C27.8224 19.5352 28.1167 19.8106 27.8918 19.9873C27.6843 20.1504 28.0458 20.3432 28.1778 20.4639C28.3866 20.6549 28.5826 20.8921 28.8258 21.0357C29.0056 21.1418 29.3913 21.3314 29.4339 21.5656C29.4589 21.7029 29.5491 21.5207 29.6264 21.4474C29.8668 21.2197 30.0645 21.9555 30.1907 21.9621C30.4183 21.9741 30.6492 21.9093 30.8731 21.9297C31.0612 21.9468 31.1043 22.1895 31.22 22.3052" stroke="black" stroke-width="0.544716" stroke-linecap="round"/>
<path d="M20.645 13.6978C20.1955 13.6978 19.7365 13.7171 19.3026 13.5974C18.8738 13.4792 18.4644 13.3023 18.0186 13.2351C17.1405 13.1026 16.4821 12.5437 15.564 12.5437C15.2794 12.5437 14.9216 12.4906 14.6593 12.5995C14.1844 12.7966 13.8102 13.0983 13.3429 13.2992C12.9998 13.4466 12.6329 13.5661 12.3118 13.748C11.9628 13.9455 11.655 14.1772 11.2839 14.3473C10.6676 14.6299 10.3008 15.1124 9.78908 15.4931C9.25827 15.888 8.81001 16.3537 8.25862 16.7308C7.99959 16.9079 7.7035 16.9988 7.4415 17.1489C6.96839 17.4201 8.2837 16.4875 8.64772 16.1119C8.98296 15.7661 9.37737 15.4512 9.74693 15.1335C9.80256 15.0856 10.0362 14.7642 10.1263 14.7738C10.1294 14.7742 9.67008 15.3952 9.62696 15.4429C9.23464 15.8765 8.73036 16.3404 8.15486 16.597C7.96142 16.6832 7.52807 16.6509 7.39286 16.7865C7.07044 17.1099 6.57899 17.4057 6.57899 17.8681C6.57899 17.9538 6.59535 18.5091 6.64384 18.2278C6.72324 17.767 7.12258 17.6079 7.4415 17.2995C7.59065 17.1552 7.04855 17.506 6.91621 17.6619C6.86165 17.7261 6.52594 18.3922 6.52063 18.3922C6.49069 18.3922 6.46547 18.2611 6.45902 18.2417C6.44215 18.1909 6.28574 18.2124 6.24177 18.2138C6.04792 18.22 5.91766 18.3625 5.94022 18.5177C5.98008 18.7918 6.08559 19.0378 6.19962 19.2926C6.42425 19.7948 6.26007 20.3972 6.43632 20.9206C6.47021 21.0213 6.76795 21.6024 6.75085 21.4921C6.68084 21.0407 6.4228 20.5867 6.4039 20.1317C6.39251 19.8577 6.36405 19.5884 6.34553 19.3177C6.33181 19.1172 6.35174 19.7202 6.37796 19.9199C6.43663 20.3667 6.55152 20.7877 6.6633 21.2245C6.76077 21.6054 6.93493 21.9972 6.99079 22.3814C7.01123 22.5219 7.0637 22.8127 7.22101 22.8804" stroke="black" stroke-width="0.544716" stroke-linecap="round"/>
</svg>
