<svg width="36" height="38" viewBox="0 0 36 38" fill="none" xmlns="http://www.w3.org/2000/svg">
<rect x="-0.519772" y="0.519772" width="34.305" height="35.8643" rx="4.67795" transform="matrix(-1 0 0 1 34.3213 0.615234)" fill="white" stroke="#F32D12" stroke-width="1.03954"/>
<path d="M26.59 11.2757C26.59 11.038 26.5984 10.7987 26.59 10.5613C26.5871 10.4798 26.5302 10.4026 26.4887 10.3399C26.4066 10.2157 26.2733 10.1395 26.1544 10.0684C25.7886 9.8498 25.4023 9.79928 24.9919 9.85364C24.5491 9.91229 24.2012 10.1928 23.9248 10.5746C23.7863 10.7661 23.6707 10.9733 23.5514 11.1799C23.4748 11.3125 23.3917 11.4479 23.3421 11.597C23.3402 11.6028 23.3071 11.698 23.3029 11.6861C23.2941 11.6613 23.3003 11.6064 23.3036 11.5812C23.3149 11.4953 23.3752 11.4046 23.4145 11.3323C23.4832 11.206 23.5546 11.0802 23.6497 10.9768C23.7972 10.8165 23.9859 10.6974 24.1555 10.5697C24.2603 10.4908 24.3356 10.424 24.4602 10.4065" stroke="#F32D12" stroke-width="0.519772" stroke-linecap="round"/>
<path d="M25.3398 10.6458C25.3451 10.9145 25.3825 11.1824 25.3313 11.4503C25.2893 11.6701 25.2116 11.8931 25.1002 12.0966C25.0877 12.1196 25.0497 11.958 25.047 11.9484C24.9769 11.6961 24.9485 11.4374 24.9462 11.1785C24.9447 11.0018 24.9496 10.8302 24.989 10.6558C25.0042 10.5888 25.0189 10.5086 25.066 10.4512" stroke="#F32D12" stroke-width="0.519772" stroke-linecap="round"/>
<path d="M21.8569 10.3387C21.8599 10.3593 21.894 10.2835 21.902 10.2739C21.955 10.2109 22.0178 10.1496 22.0758 10.0926C22.2576 9.9137 22.4705 9.75978 22.6794 9.62761C23.1267 9.34466 23.6586 9.2127 24.1564 9.10302C24.3899 9.05156 24.599 9.00977 24.8379 9.00977C25.0444 9.00977 25.246 9.01419 25.4517 9.03308C25.8494 9.06961 26.2496 9.0564 26.6488 9.0564C26.8288 9.0564 27.0826 9.08097 27.1734 9.28954C27.2507 9.46686 27.4894 9.49544 27.6338 9.58227C27.7185 9.63323 27.7721 9.82087 27.7974 9.91775C27.8357 10.0643 27.8297 10.2095 27.8279 10.362C27.8217 10.8679 27.6215 11.2108 27.2592 11.4811" stroke="#F32D12" stroke-width="0.519772" stroke-linecap="round"/>
<path d="M22.4603 12.9228C22.1891 12.8262 22.0559 12.6083 21.9008 12.3688C21.5878 11.8852 21.3668 11.4063 21.2983 10.8198C21.1992 9.97118 21.1683 9.10632 21.6689 8.38441C22.2321 7.5723 23.2372 6.86262 24.1482 6.54984C25.0238 6.2492 26.2585 6.22684 27.0769 6.69759C27.8183 7.124 28.3412 7.84957 28.6142 8.6676C28.8478 9.36758 28.9222 10.1921 28.8031 10.9282C28.735 11.3492 28.5319 11.5973 28.2269 11.859" stroke="#F32D12" stroke-width="0.519772" stroke-linecap="round"/>
<path d="M20.6211 9.71205C20.37 9.71205 20.1488 9.72085 19.9089 9.64409C19.6588 9.56404 19.4253 9.4656 19.1986 9.32882C18.8605 9.12487 18.5789 8.85485 18.2228 8.67942C18.0337 8.58626 17.7765 8.58503 17.5729 8.61523C17.4249 8.63718 17.2831 8.72142 17.1646 8.81156C16.9844 8.94861 16.7988 9.09288 16.6392 9.2552C16.1354 9.7674 16.1154 10.5927 16.0899 11.2752" stroke="#F32D12" stroke-width="0.519772" stroke-linecap="round"/>
<path d="M18.761 8.58595C18.761 8.5027 18.7798 8.42413 18.7538 8.34226C18.6955 8.15899 18.5398 8.0133 18.3945 7.90361C17.919 7.54483 17.36 7.2239 16.7658 7.16221C16.2496 7.10862 15.7135 7.42484 15.334 7.76957C15.0339 8.04216 14.8555 8.52424 14.7544 8.91588C14.6819 9.19667 14.6157 9.51151 14.6659 9.80255C14.6882 9.9315 14.7761 10.0708 14.8411 10.1812C14.8957 10.2741 14.9544 10.3751 15.0316 10.4493C15.16 10.5727 15.2817 10.6734 15.445 10.737C15.566 10.7841 15.6735 10.7928 15.7872 10.8636" stroke="#F32D12" stroke-width="0.519772" stroke-linecap="round"/>
<path d="M15.0661 9.00977C15.0403 9.00977 15.112 9.02189 15.1209 9.02641C15.2191 9.07625 15.3169 9.152 15.398 9.22613C15.4992 9.31859 15.5911 9.42265 15.6931 9.51323C15.7718 9.58314 15.8578 9.64149 15.9344 9.71711C15.9831 9.7652 16.0433 9.78723 16.0903 9.83361" stroke="#F32D12" stroke-width="0.519772" stroke-linecap="round"/>
<path d="M28.8588 10.0396C29.0568 10.1318 29.2124 10.3771 29.3723 10.5252C29.5917 10.7282 29.7887 10.9439 29.9826 11.1743C30.1939 11.4254 30.3709 11.7076 30.5882 11.9523C30.6931 12.0705 30.84 12.1658 30.9185 12.3051" stroke="#F32D12" stroke-width="0.519772" stroke-linecap="round"/>
<path d="M28.859 11.8931C29.1637 11.8931 29.4279 12.1015 29.6646 12.2797C29.9784 12.5159 30.2653 12.7873 30.5186 13.0899C30.6856 13.2894 30.7949 13.5253 30.9294 13.7472C31.0883 14.0095 31.1933 14.2988 31.3541 14.5593C31.4423 14.7023 31.5537 14.845 31.6847 14.9497C31.7112 14.9709 31.7424 15.0095 31.7424 14.9535" stroke="#F32D12" stroke-width="0.519772" stroke-linecap="round"/>
<path d="M31.7494 14.9824C31.7494 15.0847 31.7494 15.1869 31.7494 15.2892C31.7494 15.4573 31.7246 15.6533 31.7678 15.8166C31.8343 16.068 32.0555 16.2713 32.2107 16.4596C32.3582 16.6384 32.5659 16.8408 32.637 17.075C32.7565 17.4687 32.505 17.873 32.7159 18.2548C32.9064 18.5997 33.1554 18.9051 33.3501 19.2491C33.4868 19.4909 33.6294 19.7125 33.8018 19.9251" stroke="#F32D12" stroke-width="0.519772" stroke-linecap="round"/>
<path d="M29.0649 14.7719C28.7706 14.7719 28.4763 14.7719 28.1819 14.7719C28.0073 14.7719 27.8255 14.7868 27.6521 14.7622C27.4182 14.729 27.1782 14.6221 26.9594 14.5325C26.7505 14.447 26.5339 14.3954 26.3241 14.3149C26.2625 14.2913 26.1454 14.2523 26.097 14.2013C26.093 14.197 26.1131 14.1861 26.1131 14.2327C26.1131 14.3743 26.0069 14.3985 25.8895 14.4358C25.434 14.5804 24.9956 14.5978 24.5236 14.5978C24.1359 14.5978 23.7662 14.5958 23.3883 14.4999C22.9556 14.3901 22.4927 14.3612 22.05 14.3258C21.7877 14.3049 21.5997 14.2416 21.3447 14.3319C20.8974 14.4903 20.3267 14.6054 19.8539 14.518C19.5999 14.4711 19.3568 14.3476 19.12 14.2448C18.8667 14.1349 18.601 14.0463 18.3608 13.9064C18.1932 13.8087 17.8447 13.6404 17.8447 13.6404C17.8447 13.6404 17.8682 13.66 17.8608 13.667C17.8416 13.6852 17.8223 13.6846 17.7966 13.6888C17.6059 13.7197 17.4176 13.7664 17.2278 13.8024C16.8089 13.8818 16.38 13.9792 15.956 14.0176C15.5857 14.0511 15.1458 14.0757 14.7908 13.9426C14.5421 13.8494 14.3118 13.6884 14.0764 13.5643C13.8285 13.4336 13.576 13.3118 13.331 13.175C13.183 13.0925 13.0824 12.9638 12.9238 12.9429C12.9059 12.9406 12.7323 12.8982 12.8195 12.9441" stroke="#F32D12" stroke-width="0.519772" stroke-linecap="round"/>
<path d="M12.7408 12.9255C12.563 12.9255 12.3852 12.9255 12.2074 12.9255C12.0902 12.9255 11.9393 12.8966 11.8375 12.9661C11.6017 13.1273 11.2381 13.1287 10.9656 13.1287C10.6192 13.1287 10.3249 13.0362 9.99723 12.9458C9.81678 12.896 9.56604 12.8355 9.42228 12.7121C9.37811 12.6743 9.32021 12.6358 9.29564 12.5801C9.28444 12.5547 9.34577 12.557 9.36064 12.5462C9.57448 12.3916 9.92038 12.1384 9.93559 11.8474C9.94551 11.6576 9.87619 11.4851 9.87619 11.2999C9.87619 11.1978 9.87606 11.0358 10.0062 11.0358C10.2787 11.0358 10.5545 11.1116 10.8243 11.1475C11.2466 11.2038 11.72 11.3351 12.1267 11.1374C12.2781 11.0638 12.4159 10.9347 12.5794 10.8936C12.835 10.8292 13.0975 10.8684 13.3203 11.0019C13.5108 11.1162 13.6994 11.2206 13.9243 11.2435C14.3038 11.2821 14.6819 11.239 15.0608 11.239" stroke="#F32D12" stroke-width="0.519772" stroke-linecap="round"/>
<path d="M19.1797 19.1011C18.862 19.1011 18.5443 19.1011 18.2266 19.1011C17.7964 19.1011 17.3836 19.1409 16.9558 19.189C16.2118 19.2726 15.437 19.0809 14.701 19.2669C14.2935 19.3699 13.9107 19.5849 13.4956 19.6624C13.1891 19.7196 12.8875 19.7134 12.5781 19.7134C12.166 19.7134 11.7208 19.7506 11.3165 19.6312C11.2129 19.6006 11.0966 19.5328 11.008 19.4597C10.9841 19.44 10.9039 19.4073 10.9632 19.4073" stroke="#F32D12" stroke-width="0.519772" stroke-linecap="round"/>
<path d="M20.2092 15.188C20.201 15.2587 19.0602 15.2102 18.8854 15.2102C18.6491 15.2102 18.4337 15.2075 18.2223 15.3358C18.0118 15.4637 17.8492 15.662 17.6375 15.7856C17.4057 15.9209 17.1594 15.9292 16.9122 16.0086C16.5364 16.1293 16.132 16.1878 15.746 16.2649C15.1367 16.3866 14.5224 16.4293 13.9237 16.6124C13.5361 16.7309 13.1495 16.8828 12.7898 17.0781C12.3863 17.2972 12.0903 17.6161 11.7663 17.9443C11.5053 18.2089 11.0976 18.6541 10.6934 18.5099C10.566 18.4644 10.4169 18.5028 10.325 18.6072C10.2423 18.7014 10.1178 18.9096 10.1178 19.0471C10.1178 19.138 10.2919 19.2322 10.3561 19.2566C10.4787 19.3031 10.6087 19.2838 10.7349 19.3083C10.8699 19.3346 10.922 19.4013 11.0089 19.5129" stroke="#F32D12" stroke-width="0.519772" stroke-linecap="round"/>
<path d="M17.1149 13.9526C17.1149 14.0681 17.1287 14.189 17.1115 14.3038C17.107 14.3339 17.0858 14.3636 17.0705 14.3906C17.0372 14.4492 16.9977 14.5033 16.9539 14.5572C16.8992 14.6244 16.8384 14.6873 16.7812 14.753C16.7646 14.7719 16.7518 14.7919 16.7518 14.7586C16.7518 14.6674 16.746 14.576 16.7392 14.485C16.73 14.3608 16.7255 14.2285 16.6611 14.1134C16.6333 14.0638 16.5917 14.0247 16.5445 13.9869C16.5319 13.9769 16.519 13.9664 16.5022 13.9619" stroke="#F32D12" stroke-width="0.519772" stroke-linecap="round"/>
<path d="M18.1498 14.006C18.1498 14.0447 18.15 14.0835 18.1498 14.1222C18.1495 14.194 18.1381 14.2549 18.1139 14.3226C18.0922 14.3833 18.0568 14.4388 18.0221 14.4929C17.9963 14.5331 17.9716 14.5756 17.9426 14.6135C17.8623 14.7188 17.7437 14.805 17.6318 14.8743C17.5747 14.9097 17.5115 14.9375 17.4558 14.9749C17.4398 14.9856 17.4377 14.9867 17.4447 14.9662C17.5041 14.7944 17.5304 14.5996 17.5242 14.4183C17.5206 14.3139 17.4669 14.2378 17.4105 14.1536C17.3714 14.0951 17.3918 13.9957 17.3261 13.9526" stroke="#F32D12" stroke-width="0.519772" stroke-linecap="round"/>
<path d="M15.8845 14.2067C15.8845 14.2686 15.8522 14.3255 15.8267 14.3763C15.7771 14.4752 15.725 14.5717 15.6774 14.6722C15.6652 14.6979 15.6551 14.7252 15.6423 14.7502C15.634 14.7664 15.6246 14.7916 15.6156 14.7633C15.5883 14.6778 15.5754 14.585 15.5621 14.4949C15.5517 14.424 15.5465 14.3504 15.5267 14.2822C15.5204 14.2605 15.5096 14.2388 15.5012 14.2179C15.492 14.1952 15.4874 14.1765 15.4726 14.1582" stroke="#F32D12" stroke-width="0.519772" stroke-linecap="round"/>
<path d="M14.8309 14.274C14.8393 14.2593 14.8497 14.2289 14.8514 14.2098C14.8523 14.2009 14.8571 14.1604 14.8533 14.1807C14.8415 14.2423 14.8186 14.2996 14.7986 14.3552C14.7702 14.4345 14.7395 14.5122 14.7116 14.5919C14.6926 14.646 14.6778 14.7011 14.6531 14.7498C14.6483 14.7593 14.6437 14.7702 14.6368 14.7761C14.6283 14.7834 14.6104 14.6865 14.6087 14.678C14.589 14.5811 14.5746 14.4816 14.562 14.382C14.552 14.3032 14.5431 14.2201 14.5251 14.1445C14.5143 14.0991 14.4939 14.0692 14.4798 14.0281C14.4685 13.995 14.4732 13.9483 14.4428 13.953" stroke="#F32D12" stroke-width="0.519772" stroke-linecap="round"/>
<path d="M14.031 13.7507C14.0166 13.7587 14.0229 13.8439 14.0218 13.8538C14.0096 13.9602 13.9812 14.0646 13.9501 14.1678C13.9168 14.2786 13.8569 14.37 13.7966 14.4698C13.7815 14.4947 13.7675 14.5199 13.752 14.5446C13.749 14.5495 13.7424 14.5703 13.7346 14.5707C13.724 14.5712 13.7168 14.5413 13.7152 14.5369C13.6651 14.4013 13.6222 14.2636 13.5702 14.1284C13.5248 14.0106 13.4754 13.8942 13.4389 13.7738C13.422 13.718 13.4092 13.6589 13.3837 13.6055C13.3707 13.5783 13.3489 13.5567 13.3321 13.5315C13.3172 13.5091 13.3084 13.4847 13.2987 13.4603C13.2783 13.4093 13.2496 13.3725 13.2072 13.335" stroke="#F32D12" stroke-width="0.519772" stroke-linecap="round"/>
<path d="M13.0012 13.1846C13.0012 13.2516 13.0012 13.3185 13.0012 13.3855C13.0012 13.4425 13.0023 13.4999 12.994 13.5564C12.9829 13.6315 12.9595 13.7048 12.9376 13.777C12.9064 13.8798 12.8657 13.9813 12.8223 14.0792C12.8116 14.1035 12.8027 14.1362 12.7838 14.1551C12.7812 14.1576 12.7769 14.161 12.7745 14.1562C12.7711 14.1496 12.7709 14.1396 12.7689 14.1327C12.7614 14.1059 12.7501 14.0803 12.7393 14.0548C12.6917 13.9423 12.6438 13.83 12.599 13.7161C12.5391 13.5637 12.4837 13.4095 12.413 13.262C12.3657 13.1633 12.3166 13.0618 12.242 12.983C12.2216 12.9615 12.1978 12.9444 12.1774 12.9229" stroke="#F32D12" stroke-width="0.519772" stroke-linecap="round"/>
<path d="M12.1595 12.9848C12.1595 12.6771 12.1503 13.6 12.1503 13.9076C12.1503 14.1022 12.1535 14.294 12.1677 14.4881C12.1695 14.5129 12.1731 14.5372 12.1769 14.5618C12.1808 14.5874 12.1526 14.5493 12.1487 14.5452C11.9177 14.301 11.7425 14.0065 11.5817 13.7089C11.5157 13.5869 11.4376 13.461 11.3902 13.3292C11.3752 13.2873 11.3589 13.2567 11.3534 13.2107" stroke="#F32D12" stroke-width="0.519772" stroke-linecap="round"/>
<path d="M11.5571 13.8669C11.5571 13.9479 11.5571 14.0289 11.5571 14.1099C11.5571 14.1165 11.5634 14.151 11.556 14.1562C11.5356 14.1707 11.4483 14.1198 11.4372 14.1141C11.3031 14.0453 11.1906 13.9503 11.0933 13.852C11.0327 13.7909 10.9782 13.7263 10.9305 13.6586C10.8987 13.6135 10.8762 13.5655 10.8489 13.5189C10.82 13.4695 10.7866 13.4218 10.7573 13.3726C10.7499 13.3601 10.74 13.3483 10.7357 13.335" stroke="#F32D12" stroke-width="0.519772" stroke-linecap="round"/>
<path d="M10.6635 13.2327C10.6635 13.3405 10.6635 13.4482 10.6635 13.556C10.6635 13.6791 10.6579 13.8056 10.6796 13.927C10.6914 13.9936 10.7082 14.0627 10.7283 14.1269C10.7378 14.1573 10.7444 14.169 10.7088 14.1479C10.6015 14.0844 10.5059 13.9914 10.4113 13.9079C10.2244 13.7429 10.0609 13.5522 9.91413 13.3424C9.84574 13.2447 9.80576 13.1292 9.74799 13.0242C9.72942 12.9905 9.70603 12.9638 9.70603 12.9229" stroke="#F32D12" stroke-width="0.519772" stroke-linecap="round"/>
<path d="M24.946 14.7516C24.9259 14.9614 24.8566 15.1368 24.7665 15.3228C24.659 15.5446 24.5256 15.7822 24.3634 15.9663C24.2896 16.05 24.2861 16.0101 24.2797 15.9169C24.2606 15.6387 24.2013 15.3728 24.094 15.1177C24.0467 15.0053 23.9774 14.9028 23.9074 14.8092C23.8818 14.775 23.8437 14.7421 23.8133 14.7104C23.7706 14.666 23.7721 14.5917 23.7103 14.5703" stroke="#F32D12" stroke-width="0.519772" stroke-linecap="round"/>
<path d="M23.7102 14.6606C23.7102 14.7621 23.6819 14.8642 23.6555 14.9623C23.6274 15.0671 23.582 15.1605 23.5116 15.2481C23.4197 15.3624 23.3051 15.4635 23.2193 15.5814C23.1962 15.6131 23.1737 15.5979 23.1363 15.5841C23.0575 15.555 22.993 15.5048 22.941 15.4453C22.838 15.3276 22.7691 15.181 22.7047 15.0444C22.6572 14.9435 22.6156 14.8393 22.5704 14.7392C22.5524 14.6993 22.5322 14.6605 22.5134 14.6208C22.5072 14.6076 22.5012 14.5893 22.4894 14.5789C22.4832 14.5734 22.4784 14.5773 22.4744 14.5703" stroke="#F32D12" stroke-width="0.519772" stroke-linecap="round"/>
<path d="M22.4749 14.3974C22.4749 14.5465 22.4749 14.6955 22.4749 14.8446C22.4749 14.959 22.4752 15.07 22.449 15.1813C22.4187 15.3105 22.3806 15.4378 22.3467 15.5658C22.3299 15.6297 22.3123 15.6931 22.3014 15.7589C22.2988 15.7743 22.2956 15.816 22.2743 15.8038C22.2003 15.7614 22.1372 15.6564 22.0862 15.585C21.9801 15.4367 21.8862 15.2797 21.7964 15.1172C21.7218 14.9822 21.6426 14.8477 21.6005 14.6928C21.5801 14.6177 21.5518 14.5491 21.5184 14.481C21.5117 14.4673 21.5078 14.4473 21.4954 14.4387C21.4916 14.436 21.4861 14.4315 21.4842 14.4265C21.4758 14.404 21.4641 14.3755 21.445 14.3643" stroke="#F32D12" stroke-width="0.519772" stroke-linecap="round"/>
<path d="M21.4435 14.5703C21.4435 14.7783 21.4435 14.9864 21.4435 15.1944C21.4435 15.2435 21.4435 15.2927 21.4435 15.3418C21.4435 15.3513 21.4509 15.3999 21.4337 15.3936C21.3272 15.3546 21.2285 15.2661 21.1472 15.1932C21.01 15.0704 20.894 14.9267 20.7529 14.8081C20.7208 14.7811 20.6868 14.7499 20.6501 14.7286C20.638 14.7216 20.6316 14.7184 20.6276 14.705C20.6195 14.6782 20.6105 14.7058 20.6032 14.7177C20.5456 14.8122 20.527 14.9185 20.505 15.0246C20.487 15.1112 20.4777 15.1983 20.4633 15.2854C20.4591 15.311 20.4524 15.3394 20.4524 15.3654C20.4524 15.3894 20.4142 15.3384 20.4128 15.3366C20.3296 15.2282 20.2672 15.1064 20.1828 14.9987C20.1445 14.9497 20.0889 14.9152 20.0514 14.8674C20.0376 14.8498 20.0267 14.8212 20.0033 14.8138" stroke="#F32D12" stroke-width="0.519772" stroke-linecap="round"/>
<path d="M20.0034 14.7764C20.0034 14.7764 19.9877 14.7764 19.7975 14.7764" stroke="#F32D12" stroke-width="0.519772" stroke-linecap="round"/>
<path d="M15.6785 16.1254C15.6718 16.0183 15.5975 15.9076 15.5249 15.8229C15.475 15.7646 15.4471 15.8744 15.4221 15.9135C15.3462 16.0321 15.2671 16.1497 15.2041 16.274C15.1741 16.3332 15.1105 16.2508 15.0848 16.2243C14.9848 16.1209 14.8996 16.0076 14.8175 15.8933C14.8078 15.8798 14.805 15.8699 14.7956 15.8874C14.7597 15.9538 14.7275 16.0217 14.6914 16.0881C14.6228 16.214 14.5673 16.349 14.4939 16.4724C14.4639 16.523 14.3878 16.3593 14.3774 16.3421C14.3004 16.2141 14.2464 16.0772 14.1622 15.9519C14.1044 15.866 14.1081 15.9908 14.0936 16.039C14.0493 16.1869 13.9925 16.3427 13.9154 16.4806C13.8949 16.5174 13.8975 16.5587 13.851 16.5185C13.743 16.4253 13.6218 16.3423 13.5069 16.2557C13.4768 16.233 13.3793 16.1561 13.3286 16.1686C13.3157 16.1718 13.3012 16.2317 13.2985 16.2379C13.2222 16.4085 13.1523 16.5803 13.0956 16.7565C13.0693 16.8383 13.0344 16.9218 13.016 17.0052C13.0122 17.0229 13.0187 17.0342 13.001 17.0419" stroke="#F32D12" stroke-width="0.519772" stroke-linecap="round"/>
<path d="M12.5894 16.9881C12.5778 16.8677 12.5212 16.7487 12.4864 16.6347C12.4366 16.4717 12.396 16.3072 12.359 16.1407C12.3531 16.1139 12.3483 16.0321 12.3253 16.013C12.3226 16.0108 12.3189 16.0139 12.3172 16.0156C12.3 16.0338 12.2913 16.0676 12.2843 16.0903C12.2318 16.2594 12.2037 16.4378 12.1636 16.6105C12.1311 16.7503 12.0977 16.8897 12.0617 17.0286C12.0443 17.0958 12.0313 17.1544 12.0313 17.2231C12.0313 17.3048 12.0089 17.3786 11.9939 17.4575C11.9809 17.5261 11.9768 17.5896 11.9715 17.6599" stroke="#F32D12" stroke-width="0.519772" stroke-linecap="round"/>
<path d="M11.7656 17.635C11.7648 17.5682 11.7593 17.5018 11.7551 17.4352C11.7458 17.2867 11.7454 17.1298 11.7104 16.9845C11.6998 16.9402 11.6741 16.8359 11.6119 16.8359C11.6023 16.8359 11.5989 16.8371 11.5946 16.8476C11.5834 16.8745 11.5774 16.9046 11.5707 16.9328C11.5474 17.0295 11.5283 17.1272 11.5113 17.2252C11.4729 17.4454 11.4361 17.666 11.3988 17.8864C11.3801 17.9968 11.3603 18.1084 11.3468 18.2196C11.3437 18.2453 11.3418 18.2715 11.3352 18.2965C11.3334 18.3034 11.3259 18.2859 11.3221 18.28C11.2781 18.213 11.2342 18.1466 11.1949 18.0765C11.0797 17.8709 10.9854 17.6546 10.8412 17.4677C10.8167 17.4359 10.7904 17.4051 10.7621 17.3768C10.7493 17.3639 10.7312 17.3428 10.7122 17.3389C10.7002 17.3364 10.7062 17.4184 10.7061 17.4228C10.7048 17.6305 10.6941 17.8382 10.6899 18.0459C10.6871 18.1812 10.6872 18.3165 10.6872 18.4519C10.6872 18.4587 10.6827 18.4868 10.6896 18.4925C10.6918 18.4943 10.6924 18.5022 10.6896 18.4993C10.6801 18.4895 10.671 18.4726 10.6631 18.4616C10.6349 18.4229 10.6102 18.3821 10.5855 18.3409C10.4988 18.1961 10.4145 18.0497 10.3351 17.9005C10.2621 17.7633 10.1988 17.6166 10.1039 17.4931C10.0965 17.4836 10.0779 17.4507 10.0629 17.4498C10.0601 17.4497 10.0588 17.4508 10.0584 17.4536C10.0546 17.4828 10.0565 17.5158 10.0558 17.5448C10.0481 17.8739 10.0413 18.2099 10.0931 18.5358C10.0932 18.5365 10.0996 18.5668 10.0928 18.5623C10.0423 18.5292 10.0008 18.47 9.96094 18.4254C9.87333 18.3274 9.78661 18.2287 9.69922 18.1306C9.66777 18.0953 9.62542 18.0351 9.57572 18.0258C9.55608 18.0222 9.54848 18.0223 9.54472 18.0434C9.51698 18.1992 9.52008 18.3652 9.51529 18.5228C9.51017 18.6907 9.51088 18.8587 9.50267 19.0265C9.50145 19.0515 9.50004 19.0765 9.50004 19.1015" stroke="#F32D12" stroke-width="0.519772" stroke-linecap="round"/>
<path d="M18.9581 11.461C18.9581 11.2659 19.0118 10.9843 18.9195 10.8101C18.8111 10.6055 18.6734 10.3614 18.4289 10.2916C18.2564 10.2423 17.9687 10.2189 17.8014 10.2927C17.5375 10.4092 17.4835 10.7492 17.4198 10.9923C17.3465 11.2718 17.2261 11.4478 16.914 11.4814" stroke="#F32D12" stroke-width="0.519772" stroke-linecap="round"/>
<path d="M18.4706 19.7192C18.4706 20.1239 18.4718 20.5044 18.732 20.8377C18.8471 20.9851 19.0199 21.3988 19.2192 21.4236C19.5875 21.4695 19.2398 21.9359 19.1657 22.1279C18.3494 24.2421 18.262 26.7517 18.1498 28.9868" stroke="#F32D12" stroke-width="0.519772" stroke-linecap="round"/>
<path d="M17.532 21.7783C17.1135 21.7783 16.7335 22.108 16.4236 22.3713C16.1473 22.6061 15.9323 22.9158 15.689 23.1876C15.3514 23.5647 14.9724 23.8984 14.6456 24.2864C14.1147 24.9167 13.5874 25.5537 13.0984 26.2224C12.8847 26.5145 12.6933 26.7607 12.3833 26.927" stroke="#F32D12" stroke-width="0.519772" stroke-linecap="round"/>
<path d="M32.9751 24.25C32.9751 24.8786 33.0038 25.5044 32.8806 26.1238C32.7243 26.9087 32.457 27.7482 32.151 28.4885C31.8704 29.1673 31.8091 29.8747 31.6004 30.5627C31.4554 31.0409 31.3322 31.2614 30.9722 31.593C30.6702 31.8712 30.1719 32.4019 29.7394 32.4019C29.0555 32.4019 28.4075 32.5464 27.7331 32.6509C26.4881 32.8436 25.1756 32.8998 23.9164 32.8998" stroke="#F32D12" stroke-width="0.519772" stroke-linecap="round"/>
<path d="M30.9185 20.7485C30.3984 20.7485 29.9914 21.1329 29.6251 21.4808C29.1998 21.8847 28.8015 22.3049 28.4361 22.768C28.0815 23.2174 27.8453 23.7395 27.5629 24.2382C26.9857 25.2578 26.5797 26.3954 26.2943 27.5391C26.1657 28.0539 25.9757 28.6555 25.9757 29.1924" stroke="#F32D12" stroke-width="0.519772" stroke-linecap="round"/>
<path d="M22.4749 16.8359C21.4864 16.8359 20.5026 16.938 19.5235 17.0864C18.5375 17.2359 17.4877 17.2634 16.5221 17.5317C15.9774 17.6831 15.4228 17.7208 14.8921 17.9368C14.5131 18.0911 14.1522 18.2675 13.7627 18.3821C13.5104 18.4563 13.2541 18.6171 12.9894 18.6171C12.8357 18.6171 12.7177 18.6193 12.5861 18.7006C12.3119 18.8699 11.8685 18.781 11.5597 18.8954" stroke="#F32D12" stroke-width="0.519772" stroke-linecap="round"/>
<path d="M22.4749 17.1558C22.4749 17.0514 22.4749 16.947 22.4749 16.8426C22.4749 16.6487 22.3007 16.7785 22.1765 16.8453C22.0639 16.9059 21.7183 17.2308 21.5988 17.2308C21.588 17.2308 21.4213 16.9012 21.4017 16.8667C21.3332 16.7461 21.2997 16.6667 21.169 16.7944C21.0455 16.9152 20.8748 16.9971 20.7256 17.0782C20.5732 17.161 20.6043 16.0522 20.1343 16.8694C20.1128 16.9067 19.9261 17.1723 19.9125 17.0595C19.8933 16.8998 19.7758 16.7652 19.7045 16.6258C19.5846 16.3913 19.4398 16.9096 19.2473 16.9096C19.1902 16.9096 19.1522 16.1375 18.8777 16.5401C18.7743 16.6918 18.5549 17.0669 18.385 17.1451C18.3653 17.1542 18.2271 16.6919 18.1879 16.6365C18.1066 16.5217 17.9715 16.5782 17.9442 16.6981C17.9 16.8927 17.7439 17.0094 17.6458 17.1773C17.6298 17.2047 17.5213 16.8339 17.4871 16.7703C17.4397 16.6823 17.1862 16.7179 17.1038 16.7222C16.9497 16.7301 16.8423 17.0891 16.7835 17.204C16.6683 17.4294 16.7165 17.3994 16.6357 17.2255C16.5658 17.075 16.602 16.9631 16.3893 16.9631C16.2162 16.9631 16.2092 17.1104 16.1648 17.2549C16.1515 17.2984 15.9921 17.605 15.9595 17.5413C15.903 17.4309 15.878 17.3331 15.7843 17.2415C15.7426 17.2007 15.6628 17.0648 15.6009 17.0648C15.56 17.0648 15.4641 17.4119 15.4476 17.4476C15.4316 17.4824 15.1902 17.9178 15.1821 17.7823C15.172 17.6156 15.1072 17.4881 15.0233 17.3486C14.7813 16.9462 14.4665 18.0252 14.4429 18.0714" stroke="#F32D12" stroke-width="0.519772" stroke-linecap="round"/>
<path d="M13.207 28.8168C13.207 29.6617 13.0745 27.126 12.8764 26.2967C12.7168 25.6278 12.5173 24.903 12.2528 24.2567C12.0374 23.7306 11.6553 23.3149 11.336 22.8467C11.1494 22.5732 10.9579 22.2799 10.7532 22.0113C10.6372 21.8591 10.5247 21.6546 10.3238 21.5728" stroke="#F32D12" stroke-width="0.519772" stroke-linecap="round"/>
<path d="M10.1179 21.5728C9.40576 21.874 8.76149 22.346 8.05845 22.675C7.12654 23.111 6.20639 23.561 5.26156 23.9682C4.60838 24.2498 3.95185 24.6595 3.28181 24.8828C3.09474 24.9451 2.9028 25.0739 2.70383 25.0739" stroke="#F32D12" stroke-width="0.519772" stroke-linecap="round"/>
<path d="M2.70384 25.0735C2.70384 23.4707 3.52598 21.8419 4.39719 20.5721C4.87179 19.8803 5.30935 19.1318 5.90746 18.5471C6.04805 18.4097 6.3512 18.2615 6.41089 18.0713" stroke="#F32D12" stroke-width="0.519772" stroke-linecap="round"/>
<path d="M6.41407 18.0713C6.41407 18.5784 6.37925 19.079 6.54288 19.5672C6.61176 19.7727 6.62203 20.1263 6.63143 20.3426C6.64172 20.5795 6.76645 20.7946 6.77633 21.022C6.79277 21.4004 6.92124 21.7545 6.92124 22.1336C6.92124 22.2837 7.10333 23.0587 6.99369 23.012" stroke="#F32D12" stroke-width="0.519772" stroke-linecap="round"/>
<path d="M2.29179 25.8975C2.44422 26.4616 2.72011 27.0203 2.79796 27.6049C2.90102 28.3786 3.13503 29.1998 3.32656 29.9593C3.62359 31.1372 3.91588 32.336 4.37094 33.4588C4.56979 33.9495 4.86766 34.6694 4.88672 35.2136C4.90411 35.7102 4.96775 36.3742 5.17505 36.8126" stroke="#F32D12" stroke-width="0.519772" stroke-linecap="round"/>
<path d="M5.17514 36.8127C5.31944 36.5301 5.64117 36.2863 5.88837 36.1269C6.35893 35.8236 6.80929 35.5142 7.24581 35.1558C7.92675 34.5967 8.68362 34.1673 9.35789 33.6041C9.58711 33.4126 9.8876 33.2211 10.1447 33.0735C10.2936 32.988 10.4145 32.8758 10.5589 32.7931C10.6353 32.7494 11.0071 32.5289 10.9316 32.4878" stroke="#F32D12" stroke-width="0.519772" stroke-linecap="round"/>
<path d="M2.29199 24.7742C2.19922 24.7639 2.16011 24.6671 2.0668 24.6619C1.98337 24.6573 1.96694 24.71 1.8979 24.7181C1.78274 24.7316 1.61151 24.8512 1.50381 24.899C1.36195 24.9618 1.24431 24.9835 1.10972 25.0674C0.908052 25.1931 1.33767 25.2439 1.39121 25.2795" stroke="#F32D12" stroke-width="0.519772" stroke-linecap="round"/>
<path d="M1.46812 25.4854C1.46812 25.9744 1.46212 26.4312 1.61166 26.9003C1.79484 27.4749 1.99161 28.0172 2.09844 28.6167C2.20068 29.1904 2.33342 29.768 2.48224 30.3263C2.62875 30.8759 2.67143 31.491 2.8442 32.0221C2.9734 32.4193 3.00191 32.8612 3.15312 33.2555C3.30595 33.654 3.44378 34.2429 3.49324 34.6773C3.53507 35.0447 3.69793 35.378 3.78343 35.7222C3.82106 35.8737 3.8263 36.3384 3.93945 36.4005" stroke="#F32D12" stroke-width="0.519772" stroke-linecap="round"/>
<path d="M1.46806 24.8678C1.46806 24.2361 1.93169 23.6143 2.22503 23.0847C2.4835 22.6181 2.82534 22.1107 3.01774 21.6075C3.46287 20.4434 4.12126 19.5192 4.81434 18.521C5.04 18.196 5.17729 17.7943 5.38938 17.454C5.5117 17.2577 5.65511 17.0745 5.76624 16.8631C5.79463 16.8091 5.91244 16.4882 5.91244 16.7032C5.91244 17.123 6.20483 18.343 6.20483 17.9232" stroke="#F32D12" stroke-width="0.519772" stroke-linecap="round"/>
<path d="M23.9163 32.8994C22.2179 32.8994 20.5707 33.1163 18.8913 33.4134C18.0261 33.5665 17.1172 33.5162 16.2403 33.5162C15.307 33.5162 14.3689 33.6533 13.4392 33.6533C13.1643 33.6533 12.1773 33.907 12.1773 33.4477" stroke="#F32D12" stroke-width="0.519772" stroke-linecap="round"/>
<path d="M25.564 28.7808C24.8068 28.7808 24.0497 28.7808 23.2925 28.7808C22.464 28.7808 21.6434 29.0789 20.823 29.2041C20.2016 29.2989 19.5699 29.4148 18.9543 29.5441C18.4259 29.6552 17.8122 29.905 17.2771 29.905C16.9467 29.905 16.5469 29.9573 16.2306 30.0612C15.9483 30.1539 15.5701 30.0616 15.3094 30.1861C15.0134 30.3275 14.6197 30.3499 14.3025 30.4012C14.0103 30.4485 13.7188 30.4692 13.619 30.1549" stroke="#F32D12" stroke-width="0.519772" stroke-linecap="round"/>
<path d="M13.207 30.2228C13.207 29.8142 13.1753 29.5263 13.0023 29.1498C12.7954 28.6993 12.383 28.1391 12.0081 27.8315C11.611 27.5057 11.3811 27.0158 10.9033 26.8198C10.5584 26.6783 10.1871 26.4911 9.84735 26.3292C9.73053 26.2736 9.41262 26.3531 9.52243 26.3599C9.75125 26.374 9.93431 26.5084 10.0943 26.6801C10.4009 27.0092 10.5205 27.4806 10.6337 27.9064C10.6719 28.0502 10.75 28.6283 10.8676 28.6899" stroke="#F32D12" stroke-width="0.519772" stroke-linecap="round"/>
<path d="M10.9417 28.6204C10.7712 28.5972 10.394 28.1295 10.2324 28.0082C9.9967 27.8312 9.76759 27.5761 9.51663 27.4391C9.10461 27.2142 8.37343 27.4306 7.94648 27.4824C7.39931 27.5487 6.8332 27.5493 6.32354 27.7633C5.92064 27.9325 6.66202 27.8425 6.79525 27.8425C7.4918 27.8425 8.35133 27.8777 8.96906 28.2963C9.36292 28.5632 9.78028 28.9368 9.99164 29.3983" stroke="#F32D12" stroke-width="0.519772" stroke-linecap="round"/>
<path d="M9.91187 29.28C8.56328 29.28 6.98186 28.9541 5.70181 29.5628C5.45472 29.6803 5.65534 29.6149 5.83687 29.6149C6.56709 29.6149 7.28682 29.6371 8.01437 29.6781C8.60272 29.7114 9.29114 29.8054 9.85257 30.0167" stroke="#F32D12" stroke-width="0.519772" stroke-linecap="round"/>
<path d="M12.1772 33.3115C11.8733 33.3115 11.5618 33.0244 11.3212 32.8514C11.0282 32.6406 10.7302 32.3938 10.4652 32.1459C9.8248 31.547 8.97422 31.2243 8.1037 31.1678C7.84761 31.1511 7.54349 31.1302 7.29031 31.178C7.25786 31.1841 6.96533 31.2563 7.04104 31.2121C7.29526 31.0635 7.53607 30.992 7.8118 30.8917C8.25077 30.7321 8.81204 30.7795 9.2254 30.5986C9.49229 30.4819 9.86495 30.5986 10.111 30.4282" stroke="#F32D12" stroke-width="0.519772" stroke-linecap="round"/>
<path d="M17.9438 27.1328C17.7377 27.1542 17.5465 27.3243 17.3758 27.4338C17.1524 27.5771 16.9211 27.7189 16.7201 27.8933C16.4939 28.0895 16.2397 28.2493 16.0188 28.4513C15.7534 28.694 15.5227 28.9746 15.2614 29.2224C14.838 29.6238 14.4282 30.0289 14.0306 30.4282" stroke="#F32D12" stroke-width="0.519772" stroke-linecap="round"/>
</svg>
