<svg width="36" height="37" viewBox="0 0 36 37" fill="none" xmlns="http://www.w3.org/2000/svg">
<rect x="-0.519772" y="0.519772" width="34.305" height="35.8643" rx="4.67795" transform="matrix(-1 0 0 1 34.6494 0.0390625)" fill="#95B7FF" stroke="black" stroke-width="1.03954"/>
<path d="M2.14136 21.8976C2.14136 21.0459 2.42819 20.548 2.85583 19.8053C3.60923 18.4967 4.511 17.273 5.20334 15.9267C6.8463 12.7321 9.66381 10.2327 12.7647 8.50995C15.1871 7.16421 17.7072 6.12841 20.5132 6.12841C21.7013 6.12841 23.1109 5.92665 24.2642 6.28151C24.8522 6.46243 25.6232 6.57779 26.1439 6.8939C26.602 7.17202 27.0104 7.54946 27.4707 7.8125C28.1881 8.2224 28.3638 9.87913 28.5084 10.6023C29.2372 14.2461 29.2137 18.2892 27.0285 21.5064C25.9177 23.1416 24.721 24.6963 23.5412 26.2694C22.7751 27.2909 21.7992 28.1973 20.5983 28.634C19.6619 28.9745 18.7631 29.6527 17.7575 29.7057C17.0495 29.7429 16.3391 30.3761 15.6141 30.4797C14.8122 30.5942 13.7858 31.2317 13.0879 31.6194C12.4137 31.994 11.5096 31.8684 10.868 32.1893C9.41826 32.9141 8.17332 34.2677 9.03082 35.9827" stroke="black" stroke-width="1.03954" stroke-linecap="round"/>
<path d="M28.207 10.2163C28.181 10.6592 27.6698 11.28 27.4297 11.6572C27.1439 12.1063 26.8118 12.5799 26.4248 12.9465C25.4288 13.8901 24.1977 14.6765 23.3534 15.762C22.6795 16.6285 21.6516 16.8586 20.8697 17.5537C20.655 17.7445 20.0987 18.0301 20.6137 17.6295C21.0231 17.3111 21.33 17.1695 21.7987 16.9564C22.2052 16.7717 23.372 15.8219 23.4292 15.3354C23.5221 14.546 24.6957 13.8982 25.2209 13.3731C25.8171 12.7769 26.2177 12.3778 26.5386 11.5435C26.7766 10.9248 27.0157 10.9628 27.4392 10.6334C28.2619 9.99351 26.873 11.1897 26.6713 11.4202C25.9986 12.1891 25.4286 13.0921 24.7943 13.885C24.2066 14.6196 23.3806 15.1659 22.8794 16.0179C22.7099 16.3061 22.2821 16.4554 21.9883 16.5393C21.6962 16.6228 21.5266 17.0281 21.2963 17.2124C21.0866 17.3801 21.0722 17.883 20.8697 17.8949C20.6092 17.9103 20.2207 17.7237 20.0544 17.5158C19.3753 16.6669 21.354 16.6021 21.6375 16.4445C21.9415 16.2757 20.7852 16.3441 20.5284 16.3592C20.2383 16.3763 20.0165 16.7998 20.0165 17.0418C20.0165 18.2508 21.4449 16.2742 21.6375 16.1886C22.8256 15.6605 23.5498 14.7029 24.453 13.7997" stroke="black" stroke-width="1.03954" stroke-linecap="round"/>
<path d="M25.0635 8.1416V8.29109" stroke="black" stroke-width="1.03954" stroke-linecap="round"/>
<path d="M13.104 8.06701C12.686 8.06701 12.268 8.06701 11.8499 8.06701C11.1965 8.06701 10.6214 7.84277 9.96465 7.84277C9.00155 7.84277 8.04586 7.88149 7.09107 7.91752C6.73738 7.93087 6.35297 7.96826 6.0197 8.08362C5.75922 8.17379 5.92379 8.32019 5.83699 8.51549C5.70098 8.82152 5.91078 9.24529 5.79546 9.62008C5.68915 9.96561 5.57977 10.3278 5.33038 10.6084C3.74996 12.3864 3.67294 15.2009 3.61121 17.4851" stroke="black" stroke-width="1.03954" stroke-linecap="round"/>
<path d="M8.69409 11.1313C8.41117 10.9191 7.97736 10.9818 7.64764 10.9818" stroke="black" stroke-width="1.03954" stroke-linecap="round"/>
<path d="M6.82544 12.3276C5.92874 12.3276 5.34287 12.434 4.58305 12.9256" stroke="black" stroke-width="1.03954" stroke-linecap="round"/>
<path d="M15.2244 15.4844C15.2244 16.9779 15.2244 18.4714 15.2244 19.9649C15.2244 20.6324 16.059 21.0321 16.5835 21.245C17.6974 21.6973 18.8665 22.0794 20.0381 22.3498" stroke="black" stroke-width="1.03954" stroke-linecap="round"/>
<path d="M18.2297 13.7078C18.027 13.7078 17.8244 13.7078 17.6218 13.7078C17.162 13.7078 16.6388 13.7736 16.1913 13.651C14.6661 13.2334 15.1851 10.5722 15.7536 9.63913C16.6271 8.20563 18.5783 7.57716 20.1343 8.19242C20.8148 8.4615 21.4962 8.98994 21.8809 9.61887C22.0893 9.95962 22.1969 10.3331 22.1869 10.7333C22.1761 11.16 21.9988 11.4562 21.8768 11.8477" stroke="black" stroke-width="1.03954" stroke-linecap="round"/>
<path d="M17.9376 10.9724C18.0595 10.9724 18.1865 10.9654 18.3003 10.9157C18.4463 10.8518 18.5772 10.863 18.74 10.863C18.8258 10.863 18.9588 10.8328 18.9588 10.9542C18.9588 11.101 18.3756 11.0841 18.274 11.0818C18.0885 11.0777 18.0932 10.9416 18.2476 10.8812C18.4435 10.8046 18.5853 10.79 18.7967 10.79C18.9236 10.79 19.0275 10.8633 18.9365 11.0048C18.8711 11.1065 18.4408 11.1325 18.3591 11.0433C18.0736 10.7319 18.6395 10.4618 18.8859 10.4618C19.2733 10.4618 19.1812 11.0564 18.9001 11.171C18.516 11.3274 18.1584 11.3153 18.0835 10.8468C18.0698 10.7613 17.9838 10.4979 18.0835 10.4334C18.2796 10.3066 18.5663 10.3363 18.7765 10.3889" stroke="black" stroke-width="1.03954" stroke-linecap="round"/>
<path d="M21.314 29.1548C22.2028 30.0435 23.5667 30.2409 24.7896 30.2409C25.4206 30.2409 25.9634 30.1424 26.473 29.7461C26.91 29.4062 26.8431 29.0709 27.0945 28.6358C27.1367 28.5628 28.114 26.746 28.259 27.6885C28.3038 27.9796 28.2503 29.0651 28.5909 29.0462C28.8047 29.0343 29.677 28.7002 29.677 29.1005C29.677 29.4369 29.2751 30.1178 29.7313 29.915C31.4749 29.1401 31.1611 31.1813 29.9968 31.8217C28.2895 32.7607 26.6333 33.825 24.6266 33.825C23.4765 33.825 22.4858 33.7855 21.4227 33.2819C20.8029 32.9883 19.9515 32.6539 19.522 32.0812C19.3704 31.8791 18.991 31.1346 18.816 31.0253C18.5355 30.85 18.1644 30.2515 18.1644 29.915" stroke="black" stroke-width="1.03954" stroke-linecap="round"/>
<path d="M5.13097 35.7801C5.15929 35.7801 4.73386 35.0219 4.64223 34.8569C4.40828 34.4358 4.42864 34.0472 3.93627 33.801C3.68656 33.6762 1.87467 32.9543 1.9813 32.8477" stroke="black" stroke-width="1.03954" stroke-linecap="round"/>
<path d="M15.8306 23.1627C15.8306 23.9377 15.2355 24.2772 14.4957 24.4622C12.8517 24.8732 11.6356 24.841 10.6209 23.3753C9.92648 22.3723 8.38283 21.8497 7.21865 21.6978C6.8566 21.6506 6.42479 21.778 6.81109 21.3434C7.80007 20.2308 8.84585 19.2342 9.98297 18.272" stroke="black" stroke-width="1.03954" stroke-linecap="round"/>
<path d="M17.957 27.3091C17.2734 27.3091 16.6649 27.2305 16.2795 26.5649C16.0659 26.1959 15.8787 25.6954 16.1496 25.2891" stroke="black" stroke-width="1.03954" stroke-linecap="round"/>
<path d="M13.9167 27.3095C12.9145 27.3095 11.7903 27.2403 11.7903 26.0337" stroke="black" stroke-width="1.03954" stroke-linecap="round"/>
<path d="M11.6841 30.0736C11.0247 30.0736 10.4799 29.9926 10.1483 29.3294C10 29.0328 9.84076 28.5946 9.88255 28.2603C9.91399 28.0088 10.2986 27.2047 10.5146 27.0967" stroke="black" stroke-width="1.03954" stroke-linecap="round"/>
<path d="M10.5146 27.0965C9.63521 27.0965 8.99757 26.7664 8.62452 25.927C8.5417 25.7407 8.53391 25.0923 8.62452 24.9111C8.65508 24.8499 8.87265 24.7575 8.84897 24.7575C8.67057 24.7575 8.53463 24.8573 8.36462 24.8638C7.96201 24.8793 6.53819 25.0863 6.47449 24.5449C6.42535 24.1271 6.17995 23.0973 6.68713 22.8438" stroke="black" stroke-width="1.03954" stroke-linecap="round"/>
<path d="M12.2158 18.0593C11.4518 18.0593 10.9436 17.9136 10.5147 17.2324C10.3418 16.9578 10.3021 16.7362 10.3021 16.4114C10.3021 16.2976 10.2754 16.1454 10.3257 16.0392C10.3723 15.9408 10.5738 15.9355 10.5738 15.8266C10.5738 15.5896 10.1078 15.9329 9.87087 15.9329C9.39565 15.9329 9.09534 15.9696 8.81358 15.5313C8.46473 14.9886 8.85644 14.3699 9.34518 14.1255" stroke="black" stroke-width="1.03954" stroke-linecap="round"/>
<path d="M7.5376 19.2288C7.5376 18.9448 7.22394 18.0035 7.5376 17.8467" stroke="black" stroke-width="1.03954" stroke-linecap="round"/>
<path d="M9.23877 30.0735C9.1971 30.4069 6.5903 30.2381 7.136 29.0103C7.16615 28.9425 7.37529 28.7229 7.26004 28.6972C6.91861 28.6214 6.53849 28.7599 6.19684 28.6795C5.62162 28.5442 5.09229 28.1385 5.09229 27.5218C5.09229 27.1513 5.58961 26.9902 5.13954 26.9902C4.40684 26.9902 3.60381 26.49 3.60381 25.6907C3.60381 25.5144 3.58211 25.1992 3.75739 25.0824C3.82993 25.034 3.58208 25.074 3.49749 25.0528C3.2766 24.9976 3.04329 24.8938 2.86548 24.7516C2.45208 24.4209 2.32971 23.9903 2.58787 23.5053C2.76607 23.1705 3.0231 22.5105 3.39117 22.4185" stroke="black" stroke-width="1.03954" stroke-linecap="round"/>
<path d="M5.73022 33.3694C4.96705 33.3694 4.73343 33.3099 4.24175 32.7314C3.9028 32.3327 3.92279 31.6806 3.92279 31.1839C3.92279 30.6086 4.12179 30.941 4.34807 30.6582C4.44514 30.5369 3.85137 30.7016 3.71015 30.7173C3.21402 30.7724 2.72884 30.8681 2.22167 30.8118C1.38085 30.7183 1.05429 29.1144 1.58375 28.585" stroke="black" stroke-width="1.03954" stroke-linecap="round"/>
</svg>
