<svg width="36" height="38" viewBox="0 0 36 38" fill="none" xmlns="http://www.w3.org/2000/svg">
<rect x="-0.519772" y="0.519772" width="34.305" height="35.8643" rx="4.67795" transform="matrix(-1 0 0 1 34.3049 0.903809)" fill="#F4FF95" stroke="black" stroke-width="1.03954"/>
<path d="M6.82186 16.9609C6.82186 16.2213 7.67372 15.5796 8.22725 15.1971C9.33908 14.4286 10.4332 13.6964 11.6936 13.1833C13.0133 12.646 14.2858 12.2021 15.7211 12.1057C16.3188 12.0655 16.9193 12.0797 17.5179 12.0797C18.0304 12.0797 18.5582 12.0418 19.0648 12.1316C20.3599 12.3612 21.696 12.6488 22.866 13.2682C23.0182 13.3488 23.0812 13.523 23.2503 13.5653C23.5001 13.6278 23.8067 13.7084 24.012 13.8624" stroke="black" stroke-width="0.467313" stroke-linecap="round"/>
<path d="M20.5738 19.0833C20.5738 19.3135 20.6394 19.4229 20.3828 19.4229C20.2043 19.4229 20.0166 19.2973 19.8947 19.1682C19.7461 19.0108 19.7421 18.4053 19.9277 18.2768C20.1351 18.1333 20.4116 18.0613 20.6398 17.9609C20.9542 17.8226 21.2729 17.7272 21.6066 17.6496C21.7276 17.6215 21.9021 17.5284 21.9344 17.7062C21.9685 17.8936 22.0149 18.1045 22.0688 18.2863C22.2308 18.8331 21.5946 19.5502 21.0407 19.5502C20.7498 19.5502 20.3463 19.4269 20.3191 19.0739C20.3078 18.926 20.2767 18.7931 20.2767 18.6376C20.2767 18.4114 20.6129 18.3851 20.8049 18.2792C20.9584 18.1945 21.1569 18.0646 21.3378 18.0646C21.5143 18.0646 21.616 17.8977 21.5948 18.1094C21.5813 18.2444 21.5647 18.8506 21.3803 18.8711C21.2271 18.8881 20.8923 18.9271 20.7672 18.8475C20.5809 18.729 20.7484 18.4654 20.9039 18.4136C21.0756 18.3564 21.2642 18.3617 21.4439 18.3617C21.6459 18.3617 21.6447 18.7653 21.55 18.8711C21.3996 19.0392 21.1826 18.9984 20.977 18.9984C20.8441 18.9984 20.903 18.4958 20.9558 18.4136C21.0637 18.2458 21.4537 18.2181 21.609 18.3217C21.7729 18.4309 21.4958 18.7844 21.4321 18.8711C21.2852 19.0708 21.239 19.2106 20.9723 19.2106C20.7259 19.2106 20.2127 19.236 20.4748 18.8616C20.5062 18.8167 21.0407 18.1917 21.0407 18.4278C21.0407 18.6203 21.0911 18.8761 20.9039 18.9984C20.7027 19.13 20.8195 18.7609 20.9983 18.7013" stroke="black" stroke-width="0.467313" stroke-linecap="round"/>
<path d="M12.6366 18.1495C12.6366 17.6725 12.8222 17.1955 13.1459 16.8337C13.4356 16.51 12.8077 16.2401 12.5942 16.1452C12.343 16.0336 12.3676 16.0215 12.1084 16.1546C11.6446 16.3928 11.2872 16.6234 10.9718 17.0554C10.7287 17.3883 10.4086 17.8451 10.387 18.2768C10.3763 18.4911 10.6506 18.3779 10.769 18.3523C10.9366 18.3161 12.3301 18.3933 12.3395 18.2344C12.3581 17.9177 12.4077 17.623 12.4574 17.31C12.4878 17.1185 12.4931 16.9229 12.5847 16.7488C12.6193 16.6831 12.708 16.7126 12.7545 16.6545C12.7835 16.6182 12.4009 16.4884 12.3395 16.4611C12.2753 16.4326 12.2561 16.4243 12.2027 16.3763C12.1605 16.3383 12.1182 16.2238 12.2027 16.2914C12.3724 16.4271 12.3041 16.7535 12.2546 16.928C12.2116 17.0798 12.0053 17.8739 11.8962 17.3596C11.8582 17.1807 11.6944 16.579 12.0212 16.579C12.2495 16.579 12.0985 17.4675 12.0636 17.593C11.9589 17.97 11.7177 17.3625 11.6816 17.2181C11.6448 17.0707 11.6687 16.9663 11.8467 17.0058C11.9601 17.0311 11.9665 17.3307 11.9787 17.4067C12.0076 17.586 12.0306 17.8168 11.9976 17.9986C11.9787 18.1023 11.7942 18.0646 11.724 18.0646C11.6249 18.0646 11.4382 18.0943 11.4081 17.9585C11.3774 17.8207 11.4751 17.6584 11.6179 17.6425C11.6536 17.6386 11.8587 17.6143 11.8702 17.6661C11.897 17.7866 11.8608 17.9007 11.7429 17.9538C11.3241 18.1422 11.1721 17.7913 11.1958 17.4468C11.2046 17.3199 11.2402 17.1329 11.3444 17.0436C11.3665 17.0246 11.5144 16.839 11.5071 16.8361C11.3039 16.7548 11.0028 17.392 10.9624 17.5364C10.9455 17.5968 10.8568 17.8706 10.861 17.8453C10.8824 17.7169 11.0828 17.5469 11.1935 17.4916C11.301 17.4379 11.4309 17.3438 11.5519 17.3265C11.5944 17.3205 11.3117 17.6424 11.2572 17.6826C11.1746 17.7434 10.8539 18.0117 10.8539 17.8524C10.8539 17.6265 11.2517 17.0489 11.5519 17.2204C11.7267 17.3203 11.4897 17.6878 11.3845 17.7463C11.1561 17.8732 10.9708 17.7113 10.8964 17.5128" stroke="black" stroke-width="0.467313" stroke-linecap="round"/>
<path d="M18.9186 21.6299C18.957 21.6222 18.844 21.5878 18.8431 21.5874C18.6931 21.5231 18.5504 21.4432 18.3998 21.3799C18.2827 21.3307 18.1512 21.2883 18.0272 21.2573C17.7788 21.1952 17.5506 21.0874 17.3057 21.0262C16.7473 20.8866 16.1536 20.824 15.5843 20.7291C15.329 20.6865 15.1133 20.6536 14.8533 20.6536C14.5342 20.6536 14.2602 20.7486 13.9525 20.781C13.7184 20.8056 13.5788 20.9656 13.3819 21.0781C13.3249 21.1106 13.3332 21.114 13.3819 21.1229C13.5577 21.1549 13.701 21.3306 13.8016 21.4624C14.0179 21.7459 14.1865 22.0542 14.4194 22.3278C14.6686 22.6207 14.9347 22.8986 15.1999 23.1767C15.5532 23.5472 15.7926 23.9893 16.1007 24.3911C16.2935 24.6426 16.6015 24.8668 16.7444 25.1528C16.8192 25.3023 16.766 25.3332 16.8057 25.1433C16.8958 24.7133 17.1834 24.2866 17.3811 23.8983C17.6802 23.3107 18.0867 22.6315 18.5578 22.1604C18.613 22.1052 18.9569 21.8827 18.8148 22.0119C18.4507 22.3429 18.2298 22.7571 17.9848 23.1791C17.8113 23.4779 17.6449 23.8192 17.433 24.0917C17.2812 24.2868 17.1075 24.5335 17.018 24.7613C16.9517 24.9301 16.8339 25.0231 16.7114 25.1528C16.5646 25.3083 16.5556 25.1934 16.4473 25.049C16.039 24.5046 15.422 24.1517 15.016 23.6035C14.8337 23.3574 14.6641 23.0942 14.4619 22.8631C14.3442 22.7287 14.1809 22.6056 14.0822 22.4575C13.9562 22.2685 13.8573 22.1004 13.7639 21.8869C13.683 21.7021 13.9258 21.7617 14.0468 21.7242C14.4983 21.5841 14.9073 21.3328 15.3956 21.3328C16.0062 21.3328 16.5382 21.5108 17.1335 21.6299C17.3966 21.6825 17.2124 21.7624 17.3316 21.9081C17.5618 22.1895 17.8363 22.4412 18.0013 22.7712C18.1053 22.9792 18.0713 22.7958 18.1121 22.6226C18.1855 22.3108 18.3938 21.9449 18.6026 21.6983C18.7657 21.5054 18.9115 21.7934 18.8054 21.861C18.6509 21.9592 18.2925 21.8793 18.1168 21.8869C17.9971 21.8921 17.831 21.9588 17.7112 21.9246C17.6355 21.903 17.6616 21.5874 17.7961 21.5874C18.0593 21.5874 18.0272 21.6279 18.0272 21.8751C18.0272 21.9596 18.0106 22.0605 17.8999 22.0543C17.8248 22.0501 17.8553 21.814 17.8574 21.7666C17.8673 21.5501 18.2057 21.4452 18.3573 21.5969C18.4692 21.7088 18.3974 21.8171 18.263 21.8327C17.9663 21.8671 17.7759 21.7341 17.5603 21.5544C17.4044 21.4245 17.1655 21.1765 17.558 21.3139C17.5758 21.3201 17.796 21.3954 17.7608 21.4365C17.641 21.5763 17.051 21.3888 16.9142 21.354C16.7533 21.313 16.1249 21.1205 16.6077 21.1205C16.6499 21.1205 16.9634 21.135 16.8435 21.1158C16.3804 21.0417 15.9092 20.8938 15.4593 20.7645C15.2741 20.7112 14.7293 20.5182 14.9146 20.5711C15.063 20.6135 15.2022 20.5978 15.3532 20.6206C15.4328 20.6326 15.6695 20.6429 15.7258 20.7055C15.7781 20.7636 15.2228 20.781 15.1929 20.781C14.9353 20.781 14.6845 20.748 14.4288 20.7385C14.3926 20.7372 14.628 20.7385 14.6741 20.7385C14.753 20.7385 15.4749 20.6847 15.4805 20.781C15.4943 21.0156 14.398 20.9083 14.2284 20.9083C13.9732 20.9083 14.3149 20.9083 14.384 20.9083C14.64 20.9083 14.9021 20.8918 15.1575 20.9107C15.2257 20.9157 15.4165 20.9522 15.3933 21.0569C15.3667 21.1765 15.0094 21.1574 14.9287 21.1606C14.6724 21.1709 14.4036 21.1336 14.1506 21.1842C14.0391 21.2065 13.9831 21.2314 14.1247 21.1818C14.4674 21.0619 15.5607 20.9932 15.1976 20.9932C14.6675 20.9932 14.0979 21.0993 13.58 21.2054C13.5625 21.209 13.2446 21.2442 13.2498 21.2809C13.2515 21.2925 13.4604 21.2073 13.4856 21.196C13.6289 21.1315 13.7719 21.1497 13.9101 21.0875C14.0003 21.0469 14.3959 20.9295 14.0987 21.0569C13.897 21.1433 13.6794 21.1205 13.4644 21.1205C13.3852 21.1205 13.1991 21.1877 13.2522 21.229C13.6008 21.5001 13.6817 21.9795 13.8676 22.3514" stroke="black" stroke-width="0.467313" stroke-linecap="round"/>
<path d="M17.6028 23.2007C17.0183 23.2007 16.511 23.5916 15.9922 23.8185C15.8895 23.8635 15.8365 23.9222 15.7187 23.9222C15.6173 23.9222 15.9215 23.9222 16.0229 23.9222C16.3736 23.9222 16.5841 24.0409 16.5841 24.4316C16.5841 24.5992 16.5417 24.4105 16.5417 24.3373C16.5417 24.2105 16.5102 24.081 16.6053 23.9859C16.7587 23.8325 17.1389 23.5199 17.0086 23.9435C16.8937 24.3167 16.6306 24.0912 16.7963 23.8279C16.9227 23.6272 17.3264 23.6686 17.433 23.4554" stroke="black" stroke-width="0.467313" stroke-linecap="round"/>
<path d="M12.2971 22.6065C12.1977 22.4947 12.1234 22.3644 12.0354 22.2434C11.7904 21.9065 11.4432 21.6294 11.1511 21.3332C10.7662 20.9429 10.3526 20.5907 9.96266 20.2107C9.69859 19.9534 9.49211 19.6457 9.2411 19.3807C9.09788 19.2295 8.98751 19.1586 8.81665 19.0317C8.63152 18.8942 8.46353 18.7391 8.30732 18.5742C8.20643 18.4678 8.11497 18.3207 7.97719 18.2677C7.7898 18.1956 7.65978 18.0084 7.46785 17.947C7.42646 17.9338 7.35465 18.4985 7.33109 18.5648C7.24447 18.8084 7.15386 19.0202 7.04341 19.2534C6.94351 19.4643 7.22921 19.3571 7.37353 19.3901C7.86838 19.5032 8.30102 19.6617 8.60443 20.0928C8.83906 20.4262 9.16448 20.7735 9.53821 20.9417C9.70862 21.0184 9.91514 21.0287 10.09 21.1115C10.2359 21.1806 10.3869 21.2483 10.5475 21.2483C10.5871 21.2483 10.8642 21.2773 10.887 21.3001C11.0617 21.4749 10.4385 21.0917 10.2079 21.003C9.95849 20.9071 9.73805 20.6555 9.52878 20.4843C9.33262 20.3238 8.75542 19.8618 8.99586 19.9419C9.31582 20.0486 9.60162 20.3599 9.8872 20.5361C10.0046 20.6086 10.2126 20.8191 10.3588 20.8191C10.4072 20.8191 10.2908 20.7504 10.2574 20.7153C10.166 20.6194 10.0607 20.5511 9.95323 20.4748C9.63612 20.2498 9.36853 19.9795 9.03831 19.7721C8.85647 19.658 8.63476 19.4438 8.52897 19.2534C8.40648 19.0329 8.11744 18.8678 7.93475 18.6921C7.90572 18.6642 7.76938 18.5158 7.864 18.619C8.00686 18.7749 8.20245 18.8843 8.34976 19.0506C8.47419 19.191 8.76748 19.4577 8.80958 19.6472C8.81105 19.6538 8.47439 19.4504 8.43465 19.4231C8.16661 19.2395 7.84194 19.0749 7.63763 18.8195C7.57085 18.736 7.71588 18.7445 7.75553 18.77C7.842 18.8255 7.92232 18.9817 7.92531 19.0836C7.92988 19.2388 7.68136 19.4868 7.59519 19.2628C7.53898 19.1166 7.54331 18.6393 7.54331 18.7959C7.54331 19.0953 7.29453 18.9079 7.16131 19.0411" stroke="black" stroke-width="0.467313" stroke-linecap="round"/>
<path d="M11.7029 23.9643C11.2934 23.9643 10.9466 23.6332 10.5805 23.4762C10.254 23.3363 9.94593 23.1347 9.58065 23.1155C9.35412 23.1035 8.95354 23.2057 8.75297 23.0942C8.64606 23.0348 8.47211 23.0106 8.34975 22.9669C8.12762 22.8876 7.88422 22.8241 7.65177 22.7853C7.45513 22.7526 7.26543 22.6271 7.07641 22.6061C6.92813 22.5896 7.03396 22.6709 7.03396 22.7971C7.03396 23.0094 7.11885 23.2645 7.11885 23.4975C7.11885 23.6101 7.12477 23.7246 7.11885 23.837C7.10909 24.0225 7.08665 23.8689 7.22732 23.7922C7.50369 23.6415 7.8839 23.7097 8.19883 23.7097C8.94237 23.7097 9.66412 23.6672 10.4083 23.6672C10.4967 23.6672 10.6181 23.6453 10.7031 23.6696C10.8724 23.718 10.3462 23.6984 10.1749 23.6578C9.83411 23.5771 9.42215 23.5823 9.06895 23.5823C8.84638 23.5823 8.63846 23.5399 8.41342 23.5399C8.22135 23.5399 8.06342 23.4257 7.87342 23.4126C7.63205 23.3959 7.29189 23.3732 7.24854 23.1131C7.18393 22.7254 7.65268 22.9481 7.84984 23.0211C8.10056 23.114 8.37561 23.2605 8.6445 23.2829C8.82831 23.2982 9.07888 23.289 9.24109 23.3701" stroke="black" stroke-width="0.467313" stroke-linecap="round"/>
<path d="M12.8064 25.4499C12.2163 25.4499 11.6537 25.3689 11.0756 25.3226C10.9911 25.3159 10.9993 25.2802 11.085 25.2802C11.2147 25.2802 11.3444 25.2802 11.4741 25.2802C11.6963 25.2802 11.9159 25.2274 12.1367 25.2047C12.2308 25.1951 12.506 25.2442 12.5517 25.1528" stroke="black" stroke-width="0.467313" stroke-linecap="round"/>
<path d="M13.0188 26.0443C12.368 26.0443 11.7172 26.0443 11.0663 26.0443C10.7073 26.0443 10.3148 26.0133 9.96278 26.0961C9.49629 26.2059 9.24147 26.2378 8.94411 26.629C8.85897 26.7411 8.69798 26.8233 8.59512 26.9262C8.56024 26.961 8.27207 26.4365 8.18953 26.3508C8.10038 26.2582 7.93065 26.147 7.87356 26.0443C7.85528 26.0114 7.70167 25.832 7.7981 25.832C7.94259 25.832 8.09025 25.9142 8.24141 25.9169C8.87631 25.9285 9.50673 25.8745 10.1326 25.8745C10.4894 25.8745 10.8463 25.8745 11.2031 25.8745C11.3132 25.8745 11.4232 25.8745 11.5332 25.8745C11.6692 25.8745 11.2636 25.9169 11.1277 25.9169C10.6718 25.9169 10.2159 25.9169 9.75999 25.9169C9.4917 25.9169 9.28437 26.0116 9.029 26.0773C8.98727 26.088 8.45363 26.2563 8.45363 26.2046C8.45363 26.0485 8.79449 26.3615 8.51966 26.0867" stroke="black" stroke-width="0.467313" stroke-linecap="round"/>
<path d="M12.4246 21.0782C12.39 20.9052 12.2013 20.7018 12.0874 20.5689C11.9637 20.4246 11.9109 20.2609 11.8091 20.1043C11.5814 19.7541 11.2205 19.4507 10.8989 19.1894C10.4359 18.8132 9.87401 18.6241 9.41099 18.2769" stroke="black" stroke-width="0.467313" stroke-linecap="round"/>
<path d="M7.79809 17.0038C7.79809 16.545 8.23075 15.9769 8.54087 15.6668C8.66154 15.5462 8.81872 15.4669 8.9441 15.3485C9.02112 15.2757 9.20081 15.2595 9.24121 15.1787" stroke="black" stroke-width="0.467313" stroke-linecap="round"/>
<path d="M13.4856 13.5654C13.7443 13.5654 14.0111 13.3799 14.2496 13.2871C14.3814 13.2359 14.8323 13.0365 14.8862 12.9287" stroke="black" stroke-width="0.467313" stroke-linecap="round"/>
<path d="M26.3464 19.9323C26.3464 19.8151 26.3459 19.5807 26.2191 19.5173C26.0832 19.4494 25.6483 19.7865 25.54 19.8474C25.2545 20.008 24.9585 20.1594 24.6911 20.3473C24.5707 20.4319 24.4164 20.4611 24.2855 20.5265C24.1759 20.5813 24.093 20.666 23.9719 20.6963C23.6518 20.7763 23.312 21.0522 23.0192 21.2033C22.744 21.3454 22.4857 21.5169 22.1963 21.6301C21.8603 21.7616 21.4818 21.7735 21.2083 22.0333C21.0184 22.2137 20.719 22.3607 20.4891 22.4884C20.1642 22.6689 19.8749 22.956 19.5341 23.1133C19.4559 23.1494 19.3774 23.1857 19.3006 23.2241C19.2389 23.255 19.1903 23.3633 19.1308 23.3703C19.0707 23.3774 18.8301 23.5285 18.862 23.5401C19.8709 23.907 20.6869 24.6058 21.5714 25.1955C22.206 25.6185 22.7309 26.1453 23.3352 26.5985C23.4324 26.6714 23.597 26.7353 23.6724 26.8296C23.8 26.9891 23.8286 26.903 23.9601 26.8084C24.2634 26.59 23.9964 26.5364 23.7597 26.3415C23.5801 26.1936 23.4123 26.0389 23.248 25.8746C23.1397 25.7663 23.0488 25.6146 22.9084 25.5444C22.3706 25.2755 21.9455 24.712 21.4912 24.3277C21.2342 24.1102 20.9678 23.8252 20.7626 23.5613C20.6104 23.3657 20.2462 23.3318 20.1165 23.1157C20.0962 23.0818 20.1043 23.1665 20.0552 23.2006C19.9254 23.2904 19.7687 23.3348 19.6237 23.3916C19.383 23.4857 19.4412 23.4977 19.6496 23.4977C20.047 23.4977 20.4908 23.8169 20.7249 24.1249C20.9195 24.3809 21.2757 24.6197 21.529 24.8158C21.8242 25.0444 22.1868 25.2473 22.451 25.502C22.6075 25.6529 22.8004 25.7157 22.9509 25.8746C23.0813 26.0123 23.2667 26.2139 23.3517 26.3839C23.451 26.5824 23.6249 26.8519 23.3517 26.4877C22.9854 25.9993 22.5283 25.556 22.0383 25.1931C21.6847 24.9312 21.4045 24.5831 21.0621 24.3041C20.8318 24.1165 20.5688 23.8863 20.4042 23.6344C20.246 23.3926 20.52 23.1885 20.7107 22.9978C20.7918 22.9167 20.8966 22.8762 20.9984 22.828C21.1603 22.7513 21.2939 22.6235 21.4441 22.5191C21.8799 22.2159 22.417 22.1172 22.8447 21.8211C23.2117 21.567 23.6084 21.4293 23.9908 21.2269C24.3093 21.0582 24.6933 21.0205 25.0094 20.8449C25.3013 20.6827 25.5379 20.5275 25.7852 20.3049C25.8641 20.2339 26.408 19.8474 26.1767 19.8474C25.8866 19.8474 25.5915 19.9177 25.349 20.0856C25.0815 20.2708 24.8916 20.5314 24.6227 20.7175C24.2147 21 23.752 21.2175 23.3423 21.4603C23.1167 21.594 22.8244 21.5951 22.5901 21.7173C22.3708 21.8317 22.1335 21.902 21.9133 22.0121C21.7405 22.0985 21.5802 22.1943 21.4417 22.3328C21.2686 22.5059 21.0413 22.5982 20.8381 22.7337C20.5319 22.9378 20.2192 23.1233 19.8948 23.2854" stroke="black" stroke-width="0.467313" stroke-linecap="round"/>
<path d="M27.5347 23.54C26.5571 23.54 25.5971 23.249 24.639 23.0731C24.0364 22.9624 23.3918 22.776 22.7809 22.776C22.4698 22.776 21.5455 22.6486 21.8565 22.6486C22.286 22.6486 22.7081 22.5809 23.1369 22.6085C23.6894 22.6442 24.26 22.7336 24.7946 22.8844C25.0727 22.9629 25.3353 23.0306 25.6247 23.0636C25.8998 23.0951 26.1796 23.0501 26.4547 23.0825C26.6597 23.1066 26.8636 23.1329 27.0678 23.1556C27.1968 23.1699 27.3396 23.2429 27.4639 23.2429C27.5189 23.2429 27.3538 23.2466 27.2989 23.2429C27.009 23.2231 26.716 23.0577 26.4547 22.9457C25.8324 22.6791 25.2148 22.5019 24.5541 22.3751C23.6694 22.2053 22.7932 22.1578 21.9107 22.3539C21.858 22.3656 21.2314 22.5991 21.3047 22.6816C21.3517 22.7344 21.6443 22.6911 21.7009 22.6911C22.1273 22.6911 22.5463 22.748 22.9695 22.7972C23.9107 22.9066 24.8464 22.9457 25.7944 22.9457C26.1325 22.9457 26.4413 22.9574 26.7707 23.0306C26.9776 23.0766 27.1055 23.158 27.3224 23.158" stroke="black" stroke-width="0.467313" stroke-linecap="round"/>
<path d="M28.8081 19.3804C28.7176 19.3917 28.6751 19.8929 28.6572 19.9746C28.5738 20.356 28.4612 20.7448 28.3601 21.1206C28.1353 21.9554 27.9626 22.8089 27.747 23.6484C27.5182 24.5395 27.1264 25.2867 26.5562 25.9994C26.4759 26.0997 25.7671 26.8806 25.7096 26.7658" stroke="black" stroke-width="0.467313" stroke-linecap="round"/>
<path d="M21.8048 28.8882C21.7283 28.8991 22.0267 29.1836 22.0501 29.2277C22.1028 29.3274 21.8228 29.6166 21.7647 29.6711C21.4448 29.9709 21.071 30.2464 20.6164 30.2464" stroke="black" stroke-width="0.467313" stroke-linecap="round"/>
<path d="M14.7589 25.7471C14.9787 25.7471 15.82 25.6507 15.82 26.0229C15.82 26.5151 15.8625 27.0467 15.8625 27.5533C15.8625 28.0035 15.9503 28.4797 16.3718 28.7276C16.5667 28.8423 16.7017 29.0325 16.933 29.1096C17.1831 29.193 17.5911 29.1789 17.848 29.1332C18.1777 29.0746 18.4795 29.0059 18.7888 28.8667C19.1117 28.7214 19.3664 28.3093 19.5788 28.0391C19.6923 27.8945 19.8699 27.7218 20.0669 27.808C20.2418 27.8845 20.5757 28.1281 20.6587 28.315C20.7761 28.579 20.6802 28.4078 20.5314 28.5484C20.4002 28.6723 20.1876 28.7292 20.0645 28.8455C20.0387 28.8699 19.7125 29.2087 19.7344 29.2087C19.7931 29.2087 19.9393 29.0132 19.9796 28.9729C20.0818 28.8706 20.2199 28.8119 20.3192 28.7182C20.5186 28.5298 20.31 28.9522 20.2579 29.0342C20.0644 29.3381 19.8974 29.6091 19.6636 29.8854C19.4748 30.1086 19.177 30.183 18.9185 30.3122C18.6401 30.4514 18.3457 30.5863 18.0295 30.6258C17.5924 30.6805 16.8449 30.7254 16.4992 30.416C16.2878 30.2269 16.0718 30.0547 15.8719 29.8548C15.7988 29.7816 15.3773 29.2097 15.2777 29.2794C14.9957 29.4768 14.085 29.745 13.8487 29.3737C13.7397 29.2025 13.7403 28.9533 13.7403 28.7583C13.7403 28.6544 13.7029 28.4721 13.7497 28.3786C13.8058 28.2664 13.9601 28.2512 14.0562 28.19C14.2084 28.0931 14.3272 28.0997 14.3345 27.9023C14.3484 27.5266 14.4194 27.1584 14.4194 26.7752C14.4194 26.6178 14.6901 25.9673 14.5043 25.8744" stroke="black" stroke-width="0.467313" stroke-linecap="round"/>
<path d="M19.9371 28.1243C19.9371 28.4864 19.3324 28.3602 19.3901 28.2304C19.4535 28.0878 19.7297 28.1243 19.8499 28.1243C19.9975 28.1243 20.022 28.2686 20.022 28.3979C20.022 28.6451 19.5084 28.4247 19.9796 28.3035C20.0527 28.2847 20.2622 28.2085 20.3097 28.2941C20.3916 28.4415 20.3691 28.5665 20.2343 28.6667C20.0877 28.7756 19.9213 28.761 19.7485 28.761C19.6314 28.761 19.831 28.6761 19.8758 28.6761C20.1004 28.6761 20.0424 28.9102 19.9348 29.0581C19.7687 29.2865 19.6647 29.3552 19.3854 29.3552C19.2334 29.3552 19.1122 29.2698 19.133 29.1029C19.1519 28.9522 19.4428 28.9646 19.5528 28.9756C19.7353 28.9938 19.7249 29.1706 19.7249 29.3128C19.7249 29.501 19.5832 29.5675 19.4089 29.5675C19.0526 29.5675 19.2254 28.8941 19.4278 28.7704C19.5687 28.6844 19.5744 28.6834 19.5033 28.8553C19.4172 29.0634 19.3526 29.267 19.291 29.4826C19.2495 29.6278 18.7042 30.0602 18.5789 29.841C18.4261 29.5736 18.5506 29.2703 18.8548 29.2703C18.9621 29.2703 18.9277 29.5372 18.909 29.6099C18.8647 29.7823 18.6422 29.8743 18.4846 29.8976C18.3432 29.9184 17.923 30.0215 17.8149 29.907C17.688 29.7727 17.8219 29.5355 17.9422 29.4496C18.2838 29.2056 18.74 30.1617 18.1026 30.1617C17.9116 30.1617 17.382 30.2894 17.4801 29.9707C17.5791 29.6488 18.311 29.7145 18.5365 29.7396C18.8055 29.7695 18.7655 30.0298 18.6732 30.2041C18.5641 30.4103 18.1672 30.328 17.9847 30.3315C17.8006 30.3349 17.6188 30.3981 17.4329 30.3715C17.2354 30.3433 17.2387 29.9192 17.2867 29.782C17.3285 29.6625 17.8286 29.454 17.855 29.6123C17.9538 30.205 17.0279 30.3887 16.6925 30.0532C16.4798 29.8405 16.5842 29.424 16.8387 29.3222C17.0029 29.2565 17.3905 29.2696 17.3905 29.492C17.3905 29.8187 17.2024 29.9919 16.8599 29.9919C16.6246 29.9919 16.5456 29.787 16.4803 29.591C16.418 29.4043 16.5799 29.3709 16.7349 29.334C16.9761 29.2766 17.1824 29.427 17.0415 29.6948C16.9606 29.8483 16.6424 29.8464 16.5086 29.8033C16.1787 29.6969 15.9268 29.2731 15.8719 28.9496C15.8344 28.729 16.0694 28.6972 16.2445 28.7799C16.455 28.8793 16.4567 29.013 16.4567 29.2185C16.4567 29.6343 16.0675 29.6695 15.82 29.3364C15.7326 29.2187 15.5076 28.8187 15.6314 28.6596C15.7068 28.5626 15.8877 28.5788 15.9662 28.6573C16.1412 28.8323 16.3277 29.3529 15.9025 29.3104C15.5452 29.2747 15.1961 28.3476 15.5842 28.3366C15.9864 28.3251 15.7661 28.7482 15.5229 28.761C15.2396 28.7759 15.0966 27.9121 15.3319 27.9121C15.4035 27.9121 15.5229 27.8793 15.5229 27.9758C15.5229 28.0348 15.5538 28.1943 15.4781 28.2069C15.1404 28.2631 15.0415 27.615 15.372 27.615C15.661 27.615 15.854 28.0983 15.4569 28.0347C14.9779 27.9581 14.896 27.4073 15.3107 27.2C15.3944 27.1581 15.4997 27.2373 15.4191 27.3179C15.2904 27.4466 15.0618 27.4413 15.056 27.233C15.0531 27.1291 15.0391 26.8778 15.1857 26.8534C15.3229 26.8305 15.4187 26.9251 15.4356 27.0609C15.4457 27.1413 15.4614 27.3556 15.3295 27.3556C15.1203 27.3556 15.056 27.0054 15.056 26.8534C15.056 26.7258 15.1942 26.6781 15.2918 26.6293C15.393 26.5788 15.2177 26.6137 15.1928 26.5444C15.1359 26.3866 15.2231 26.2628 15.3861 26.2568C15.5289 26.2515 15.4758 26.2295 15.4804 26.0681C15.4838 25.9521 15.5582 25.8165 15.6927 25.8323C15.8296 25.8484 15.6355 26.1397 15.6078 26.1813C15.5284 26.3004 15.438 26.3977 15.438 26.5444C15.438 26.6403 15.438 26.928 15.438 26.8321C15.438 26.5505 15.5525 26.2098 15.2682 26.1082C14.823 25.9492 14.9325 26.6317 14.9074 26.8769C14.8617 27.3255 14.7685 27.7926 14.7589 28.2422C14.756 28.3774 14.7164 28.4958 14.7164 28.2847C14.7164 27.9008 14.674 26.7501 14.674 27.134C14.674 27.7455 14.674 28.357 14.674 28.9685C14.674 29.2028 14.6663 28.6438 14.6952 28.5511C14.7278 28.447 14.8302 28.3556 14.9452 28.445C15.0919 28.5591 15.0748 29.0581 14.8414 29.0581C14.4554 29.0581 14.3996 28.1931 14.865 28.2965C15.0915 28.3468 15.1657 28.9864 14.9098 29.0487C14.4082 29.1707 13.9537 28.7525 14.1316 28.2187C14.1615 28.1291 14.3873 28.1585 14.4618 28.1691C14.6313 28.1934 14.6401 28.4444 14.6292 28.57C14.6153 28.7302 14.5623 28.8357 14.4193 28.9072C14.3603 28.9367 14.164 29.0412 14.1222 28.9473C14.0573 28.8012 13.9651 28.5274 14.0892 28.3884C14.2361 28.2239 14.3777 28.3002 14.4618 28.4639C14.6094 28.7513 14.7897 29.1006 14.3439 29.1006C14.1276 29.1006 13.9772 29.2499 13.9949 28.9308C14.0027 28.7901 14.3769 28.7939 14.3769 28.9732" stroke="black" stroke-width="0.467313" stroke-linecap="round"/>
<path d="M14.4618 30.0343C14.1435 30.0343 13.8251 30.0343 13.5068 30.0343C13.4311 30.0343 13.4201 30.033 13.3724 29.9729C13.2067 29.7642 12.9862 29.552 12.764 29.407C12.5963 29.2975 12.4082 29.2187 12.2335 29.1217C12.0878 29.0408 11.8427 28.8729 11.6817 28.8482C11.5374 28.826 11.3745 28.7691 11.236 28.7609C10.9934 28.7466 11.3204 28.8689 11.3822 28.9307C11.572 29.1205 11.6147 29.4491 11.7241 29.6923C11.8004 29.8619 11.8302 29.9335 11.8302 30.1191C11.8302 30.2154 11.794 30.3704 11.7548 30.4587C11.6654 30.6597 12.0451 30.5919 12.1462 30.5766C12.463 30.5288 12.7835 30.5436 13.1036 30.5436C13.2776 30.5436 13.5614 30.4921 13.7214 30.5648C13.8553 30.6257 14.0628 30.586 14.2071 30.586C14.372 30.586 14.3002 30.4958 14.4194 30.4257C14.4914 30.3833 14.6316 30.322 14.6316 30.2253C14.6316 30.0133 14.1763 30.0767 14.0185 30.0767C13.7601 30.0767 13.5286 30.1937 13.2734 30.237C13.1935 30.2506 12.9495 30.2465 13.0305 30.2465C13.1672 30.2465 13.304 30.2465 13.4408 30.2465C13.7128 30.2465 13.9721 30.2683 14.2402 30.2889C14.3918 30.3006 14.0713 30.3314 14.0468 30.3314C13.8739 30.3314 13.701 30.3314 13.528 30.3314C13.3185 30.3314 12.91 30.4163 12.7239 30.3078C12.5586 30.2114 12.5015 29.8483 12.382 29.6947C12.2706 29.5514 12.185 29.4231 12.0519 29.3033C11.8206 29.0951 12.2477 29.2722 12.349 29.3127C12.6149 29.4191 12.8531 29.6187 13.0564 29.822C13.2271 29.9927 13.2466 30.1191 12.9951 30.1191C12.6477 30.1191 12.6108 30.0252 12.3915 29.789C12.3192 29.7112 12.183 29.4589 12.0519 29.4589C12.0212 29.4589 12.2372 29.8777 12.2547 29.9258C12.2951 30.0368 12.3294 30.1866 12.2948 30.3078C12.25 30.4646 12.0152 30.1347 12 30.1097C11.8732 29.9008 12.0264 29.8967 12.0849 29.7796" stroke="black" stroke-width="0.467313" stroke-linecap="round"/>
<path d="M10.4719 29.9066C10.3365 29.8915 10.2304 29.6968 10.1324 29.6189C9.9414 29.4673 9.76298 29.3701 9.66547 29.1426" stroke="black" stroke-width="0.467313" stroke-linecap="round"/>
<path d="M8.22258 9.9576C8.28049 9.9576 8.11603 9.95351 8.09524 9.94817C7.97296 9.91672 7.81761 9.83788 7.71324 9.76896C7.46895 9.60763 7.14024 9.39226 6.99168 9.13228C6.94551 9.05148 6.80574 8.99058 6.73937 8.92006C6.59537 8.76706 6.61622 8.86495 6.66155 9.0191C6.86661 9.71629 6.99499 10.4297 7.22513 11.1201C7.368 11.5487 7.49844 11.9819 7.57647 12.4288C7.65874 12.9 7.87263 13.3446 7.92546 13.8201C7.96405 14.1673 8.08719 14.4985 8.09524 14.8529C8.09597 14.8849 8.09524 15.0563 8.09524 14.9236C8.09524 14.6227 8.09943 14.3214 8.09288 14.0205C8.07802 13.3367 8.04341 12.632 7.96791 11.9525C7.92754 11.5892 7.8062 11.2026 7.79813 10.8395C7.78801 10.3842 7.61448 10.2357 7.29823 9.94817C7.16988 9.83149 6.81413 9.47581 6.97517 9.54023C7.17098 9.61855 7.24539 10.1612 7.30766 10.316C7.48281 10.7514 7.72301 11.1573 7.90188 11.5917C7.93427 11.6704 8.03565 12.2704 7.92546 11.9949" stroke="black" stroke-width="0.467313" stroke-linecap="round"/>
<path d="M27.1101 18.1073C27.1101 18.7385 27.1835 16.8379 27.0889 16.2138C26.9792 15.49 26.8979 14.7221 26.8979 13.9901C26.8979 13.6151 27.0779 13.2857 27.2375 12.9526C27.4073 12.598 27.5321 12.222 27.7044 11.8679C27.7206 11.8346 27.7944 11.5958 27.8505 11.684C27.923 11.7978 27.905 12.0656 27.926 12.198C28.0031 12.6836 28.2458 13.136 28.3505 13.6176C28.4902 14.2604 28.8323 14.9129 28.5084 15.5606C28.3183 15.941 28.1002 16.2936 27.8977 16.6618C27.7564 16.9187 27.6284 17.2032 27.4733 17.447C27.4604 17.4673 27.4318 17.6215 27.4072 17.6215C27.3852 17.6215 27.4072 17.5775 27.4072 17.5555C27.4072 17.4714 27.4072 17.3873 27.4072 17.3032C27.4072 16.6807 27.4072 16.0581 27.4072 15.4356C27.4072 14.823 27.3674 14.1958 27.4096 13.5846C27.4292 13.3007 27.4975 13.0389 27.5322 12.7616C27.5686 12.4704 27.7392 12.8099 27.7798 12.9196C27.8843 13.2017 28.056 13.4957 28.1194 13.7873C28.1684 14.0129 28.2181 14.286 28.308 14.4995C28.4103 14.7424 28.2773 15.0157 28.2231 15.254C28.1611 15.527 27.9544 15.8414 27.7916 16.0652C27.7741 16.0892 27.6459 16.3503 27.6289 16.3482C27.602 16.3448 27.6195 15.9388 27.6195 15.9049C27.6195 15.3311 27.6195 14.7573 27.6195 14.1835C27.6195 14.0175 27.6111 13.8668 27.5864 13.7025C27.5702 13.5944 27.4545 13.2928 27.5181 13.3818C27.6784 13.6063 27.6727 13.8952 27.7138 14.1599C27.7723 14.5368 27.7557 14.922 27.8223 15.2965C27.8513 15.46 27.8552 15.642 27.8718 15.8082C27.875 15.8407 27.857 15.9898 27.8836 15.9426C28.0013 15.7332 28.0439 15.4985 28.0439 15.254C28.0439 14.8044 28.153 13.9501 27.7374 13.6176C27.6319 13.5332 27.4322 13.6216 27.3648 13.693C27.2818 13.7809 27.2799 14.0249 27.2799 13.9477" stroke="black" stroke-width="0.467313" stroke-linecap="round"/>
<path d="M27.068 19.6351C27.068 19.2966 27.0875 18.9688 26.8983 18.6683C26.6335 18.2478 26.3682 17.7852 26.1791 17.3243C25.9652 16.8029 25.6764 16.2764 25.573 15.7208C25.5119 15.3922 25.3634 15.0837 25.3302 14.7516C25.3087 14.5367 25.2572 14.0998 25.3726 13.9075C25.4737 13.739 25.551 13.5626 25.6461 13.3934C25.8296 13.0672 26.0054 12.7564 26.2191 12.4526C26.3105 12.3227 26.4414 12.1653 26.4314 11.9951C26.423 11.8523 26.1327 12.3574 26.1107 12.3983C25.7902 12.9934 25.468 13.605 25.059 14.1409C24.876 14.3807 24.7112 14.6384 24.5308 14.8813C24.4107 15.043 24.2743 15.093 24.1394 15.2209C24.0924 15.2654 23.9294 15.3487 23.979 15.4331C24.0087 15.4837 24.1343 15.5168 24.1842 15.5604C24.3079 15.6687 24.4484 15.7665 24.585 15.8576C25.0506 16.1679 25.5345 16.5312 25.9315 16.9281C26.0124 17.009 26.5699 17.8485 26.5068 17.8643C26.4288 17.8838 26.1411 17.5615 26.0918 17.5035C25.8949 17.2714 25.7703 16.9854 25.6037 16.7324C25.3372 16.3277 25.0477 15.9438 24.7171 15.5887C24.6306 15.4958 24.3386 15.2794 24.3115 15.1572C24.2923 15.071 24.6548 14.8753 24.7241 14.8059C24.7626 14.7675 24.9831 14.5142 24.9882 14.688C24.9968 14.9786 24.9549 15.2754 25.0519 15.5557C25.089 15.6628 25.2382 15.8999 25.2382 16.0038C25.2382 16.0052 25.0718 15.8282 25.0543 15.8057C24.9625 15.6877 24.8949 15.5606 24.8185 15.4331" stroke="black" stroke-width="0.467313" stroke-linecap="round"/>
<path d="M27.2377 12.2498C27.1353 12.2242 27.1953 11.4612 27.1953 11.3585C27.1953 11.0339 27.0895 10.5091 27.3037 10.2337C27.4446 10.0526 27.5134 9.85186 27.6834 9.6819C27.8605 9.50478 28.0526 9.53335 28.2894 9.53335C28.3687 9.53335 28.4531 9.56024 28.5111 9.61824C28.5519 9.65912 28.5959 9.7925 28.5959 9.66068C28.5959 9.54036 28.5174 9.47935 28.478 9.373C28.4224 9.22273 28.4262 9.07307 28.4262 8.91554C28.4262 8.81343 28.5007 7.3566 28.4026 7.32858C28.2783 7.29307 28.227 7.46149 28.1715 7.54081C28.0169 7.76161 27.8673 7.98621 27.6999 8.1987C27.2356 8.78804 26.7435 9.35183 26.2615 9.92478C25.6384 10.6654 25.144 11.5986 24.7123 12.462C24.6778 12.5309 24.0813 13.595 24.0638 13.5892C24.0459 13.5832 24.9398 12.4597 24.9881 12.4007C25.3708 11.9344 25.8955 11.6047 26.2945 11.1462C26.594 10.8021 27.0578 10.5983 27.3226 10.2219C27.4267 10.074 27.6133 10.0113 27.7282 9.89649C27.804 9.82066 28.0442 9.7814 28.0442 9.63946C28.0442 9.55112 27.7913 9.17253 27.7046 9.11833C27.543 9.01733 27.578 8.49428 27.6527 8.3449C27.6926 8.26525 27.7952 8.26001 27.8744 8.26001C28.0184 8.26001 28.019 8.3388 28.0442 8.47695C28.081 8.67946 28.1291 8.87397 28.1291 9.0806C28.1291 9.24447 28.1126 8.75316 28.096 8.59013C28.0654 8.28783 28.0661 7.94311 28.1314 7.64927C28.1989 7.34577 28.2139 8.26743 28.2139 8.57834C28.2139 8.72094 28.2427 8.90046 28.2116 9.04052C28.204 9.0745 28.0081 9.0841 27.9687 9.1089C27.5663 9.36224 27.2715 9.77064 26.983 10.137C26.7232 10.4671 26.3319 10.724 26.1153 11.0849C25.999 11.2787 25.8621 11.4444 25.7121 11.6131C25.673 11.657 25.5449 11.8631 25.4786 11.8631C25.3776 11.8631 25.518 11.3646 25.5423 11.316C25.6911 11.0184 25.9569 10.7645 26.1766 10.519C26.5902 10.0567 27.0715 9.71803 27.424 9.19851C27.4939 9.09555 27.7145 8.80316 27.615 8.87781C27.5561 8.92202 27.4765 8.95858 27.4075 8.98157" stroke="black" stroke-width="0.467313" stroke-linecap="round"/>
<path d="M28.511 9.19385C28.511 9.54424 28.5143 9.88355 28.6572 10.2102C28.7922 10.5189 28.8956 10.8872 28.9566 11.2194C29.0562 11.7618 29.1052 12.3386 29.1052 12.8889C29.1052 13.6745 29.2325 14.4574 29.2325 15.2469C29.2325 16.3033 29.275 17.3588 29.275 18.4138C29.275 19.6104 29.4023 20.791 29.4023 21.9886C29.4023 22.5211 29.5196 23.2206 29.275 23.7099C29.1457 23.9685 28.8402 24.0105 28.5959 24.0919" stroke="black" stroke-width="0.467313" stroke-linecap="round"/>
<path d="M28.7233 7.75049C28.7233 8.34122 28.991 8.92247 29.1454 9.48836C29.3492 10.2359 29.4052 10.9948 29.466 11.7615C29.6119 13.5992 29.7046 15.4376 29.9966 17.2581C30.2565 18.8788 30.1618 20.5662 29.848 22.1699C29.7714 22.5617 29.6086 22.9087 29.4967 23.2853C29.4395 23.4776 29.341 23.837 29.1053 23.837" stroke="black" stroke-width="0.467313" stroke-linecap="round"/>
<path d="M28.4686 8.59961C28.4686 9.11373 28.8099 9.51478 28.9779 9.9767C29.025 10.1062 29.1265 10.1871 29.1453 10.3375C29.1621 10.4719 29.2132 10.6399 29.2656 10.7643C29.3407 10.9427 29.275 11.2735 29.275 11.4646C29.275 11.9488 29.3599 12.4224 29.3599 12.9101C29.3599 13.8771 29.446 14.8559 29.5627 15.8152C29.6804 16.7827 29.6995 17.7935 29.6995 18.7675C29.6995 19.3523 29.6995 19.9371 29.6995 20.5219C29.6995 20.797 29.6243 21.06 29.6146 21.3236C29.6026 21.6461 29.6479 22.1486 29.4023 22.3941" stroke="black" stroke-width="0.467313" stroke-linecap="round"/>
<path d="M28.0442 24.4312C28.0442 25.0909 27.7524 25.6144 27.483 26.1997C27.2927 26.6131 26.9773 26.918 26.7095 27.2749C26.4231 27.6568 26.1687 28.0633 25.8795 28.4445C25.3753 29.1091 24.9212 29.6319 24.2053 30.0763C23.3461 30.6096 22.4124 30.9996 21.569 31.5619C21.2374 31.783 20.8288 31.8952 20.4489 32.0052C20.0028 32.1343 19.5904 32.346 19.1497 32.4862C18.4109 32.7213 17.7118 32.7808 16.9449 32.8376C16.2303 32.8905 15.5062 33.0293 14.8014 33.13C14.646 33.1522 14.023 33.2732 13.9525 33.1323" stroke="black" stroke-width="0.467313" stroke-linecap="round"/>
<path d="M28.1714 24.6436C28.1714 25.1462 27.6924 25.6811 27.4168 26.0678C27.1061 26.5038 26.8321 26.959 26.4524 27.3388C25.8106 27.9806 25.1024 28.5282 24.4032 29.1002C23.7592 29.6272 22.8884 29.9829 22.1254 30.3099C21.4511 30.5989 20.7769 30.8628 20.055 31.0197C19.1729 31.2115 18.3766 31.6933 17.5413 32.0101C17.1155 32.1716 16.6342 32.3862 16.1808 32.4534C15.8698 32.4994 15.4908 32.5254 15.1927 32.6137C14.8437 32.7171 14.3317 32.6232 13.9736 32.6232C13.7805 32.6232 14.116 32.747 14.1646 32.7929C14.4187 33.0329 14.971 32.9203 15.2871 32.9203C15.9886 32.9203 16.5614 32.6201 17.2301 32.4864C17.5757 32.4173 17.9057 32.2844 18.2488 32.2081C18.625 32.1245 19.01 32.093 19.3853 32.0077C19.683 31.9401 19.9824 31.8697 20.279 31.7955C20.5669 31.7235 20.8025 31.5741 21.0831 31.4772C21.573 31.3079 22.0282 31.0365 22.5074 30.8405C22.9717 30.6505 23.3265 30.3187 23.7571 30.0765C24.0922 29.888 24.3988 29.6404 24.6933 29.395C25.0022 29.1375 25.3848 28.9991 25.6341 28.6758C25.7796 28.4872 25.957 28.3721 25.6153 28.5673C24.7434 29.0655 23.888 29.5968 23.0568 30.1614C22.472 30.5586 21.8236 30.8733 21.1515 31.0928C20.6201 31.2663 20.0747 31.3309 19.5221 31.4017C19.3537 31.4233 18.087 31.894 18.0695 31.8592" stroke="black" stroke-width="0.467313" stroke-linecap="round"/>
<path d="M13.9524 32.2837C13.895 32.4368 12.6726 32.312 12.5517 32.2625C12.1622 32.1032 11.7277 31.9949 11.3208 31.8805C10.9772 31.7838 10.5905 31.7506 10.2739 31.5787C9.76657 31.3033 9.35656 31.0516 9.01937 30.5765C8.60622 29.9943 8.20855 29.4019 7.84979 28.7844C7.44357 28.0852 7.21435 27.2833 6.86412 26.5537C6.67704 26.1639 6.61867 25.7171 6.35479 25.3652" stroke="black" stroke-width="0.467313" stroke-linecap="round"/>
<path d="M12.1274 32.0716C11.8214 32.0716 11.4914 32.1093 11.1984 32.0079C10.9262 31.9137 10.6911 31.6586 10.4933 31.4608C9.66867 30.6362 8.89194 29.7018 8.2131 28.7514C7.72452 28.0674 7.27716 27.3761 6.99399 26.5797C6.85776 26.1965 6.68179 25.8518 6.51531 25.4832C6.41572 25.2627 6.3565 25.0273 6.18518 24.856" stroke="black" stroke-width="0.467313" stroke-linecap="round"/>
<path d="M5.97266 24.8134C5.9361 24.3381 5.93021 23.8673 5.93021 23.3892C5.93021 22.6808 5.70581 21.9426 5.54585 21.2528C5.11795 19.4075 4.86965 17.5221 4.79364 15.6312C4.73592 14.1954 4.77857 12.7482 4.7842 11.3113C4.78881 10.1381 4.99643 8.98651 4.99643 7.8096C4.99643 7.20404 5.12376 6.61042 5.12376 6.01042C5.12376 5.81618 5.05152 5.78555 5.20865 5.62842" stroke="black" stroke-width="0.467313" stroke-linecap="round"/>
<path d="M6.65185 25.068C6.63898 24.6173 6.34428 24.1807 6.1661 23.7758C6.07644 23.572 5.99729 23.3646 5.90907 23.1603C5.89284 23.1227 5.75967 22.6715 5.7275 22.6675C5.68531 22.6622 5.79228 23.0956 5.79353 23.1014C5.86626 23.436 5.93268 23.796 5.97274 24.1366C6.00577 24.4173 6.05542 24.6476 6.1661 24.9006C6.30928 25.2278 6.45325 25.6336 6.65185 25.9263C6.84945 26.2175 6.59628 25.5595 6.56696 25.483C6.49175 25.2866 6.22726 24.733 6.37596 24.8817C6.60063 25.1064 6.75668 25.4948 6.90888 25.7707C7.08325 26.0867 7.13639 26.3755 7.23665 26.7139C7.37678 27.1868 6.6802 25.892 6.48679 25.4382C5.95905 24.2 5.79115 22.867 5.41153 21.5875C4.94762 20.024 4.25142 18.4504 4.19242 16.7983C4.1711 16.2015 4.02908 15.6501 4.07216 15.0416C4.10548 14.571 4.09298 14.0446 4.27495 13.6079" stroke="black" stroke-width="0.467313" stroke-linecap="round"/>
<path d="M4.31764 13.5655C4.31764 13.1489 4.31764 12.7323 4.31764 12.3158C4.31764 12.2526 4.33942 11.8635 4.35773 12.1106C4.39785 12.6523 4.43013 13.2016 4.44262 13.7447C4.4726 15.0489 4.40253 16.3575 4.40253 17.6638C4.40253 17.9352 4.36598 18.2393 4.42611 18.5056C4.4741 18.7181 4.59626 18.9202 4.67842 19.1211C4.89093 19.6405 4.79835 18.9104 4.76331 18.7391C4.65412 18.2052 4.57231 17.6663 4.57231 17.1214C4.57231 15.9569 4.50949 14.8116 4.44497 13.6504" stroke="black" stroke-width="0.467313" stroke-linecap="round"/>
<path d="M11.1086 11.1885C11.1063 11.205 10.6885 10.8132 10.6252 10.7452C10.3774 10.479 10.1551 10.1743 9.92251 9.89393C9.36507 9.22171 8.69971 8.60982 8.08089 7.99099C7.56192 7.47202 7.04867 6.93468 6.63069 6.33093C6.38393 5.97449 6.12698 5.51637 5.7818 5.24623C5.7484 5.22009 5.43424 4.94594 5.55778 5.1189C5.76787 5.41301 5.97266 5.70957 6.18031 6.00552C6.50638 6.47027 6.81885 6.94143 7.19426 7.36847C7.48141 7.69509 7.80137 8.01925 8.01958 8.39657C8.50149 9.22987 9.20805 9.89044 9.88714 10.5613C10.3792 11.0474 10.8996 11.5188 11.4387 11.9525C11.5529 12.0443 11.6681 12.1252 11.7689 12.226C11.8637 12.3209 11.4616 12.0642 11.4222 12.0327C10.6094 11.3824 9.84772 10.6581 9.13729 9.89864C8.85706 9.59909 8.53549 9.33838 8.26953 9.02617C8.00195 8.71205 7.74494 8.40421 7.43478 8.13011C7.07721 7.81412 6.78637 7.47775 6.5293 7.07607C6.42603 6.91471 6.3326 6.75027 6.21332 6.59974C6.20185 6.58527 6.10423 6.4435 6.1921 6.53136C6.94084 7.28011 7.74195 7.96955 8.37328 8.82573C8.60186 9.13572 8.90443 9.36337 9.15615 9.65105C9.35457 9.87781 9.53735 10.1266 9.75038 10.3396C10.0442 10.6334 10.5017 10.7761 10.8304 11.0376C11.2322 11.3572 11.6586 11.6245 12.0848 11.9101C12.2839 12.0434 12.6993 12.2052 12.8064 12.4194" stroke="black" stroke-width="0.467313" stroke-linecap="round"/>
</svg>
