<svg width="36" height="38" viewBox="0 0 36 38" fill="none" xmlns="http://www.w3.org/2000/svg">
<rect x="-0.519772" y="0.519772" width="34.305" height="35.8643" rx="4.67795" transform="matrix(-1 0 0 1 34.3384 0.750488)" fill="white" stroke="black" stroke-width="1.03954"/>
<path d="M3.21455 19.6423C3.68491 20.2692 4.72156 20.1472 5.53087 20.1472C5.61439 20.2781 6.11823 20.2546 6.87727 20.1641C7.90473 20.0416 8.11132 19.9743 8.39535 19.9743C9.87822 19.9743 9.50404 19.7251 10.9863 20.0981C12.5376 20.4885 13.8587 19.7972 17.1393 19.6423C19.5912 19.0255 19.9708 18.7673 21.6786 18.0767C23.7463 17.2406 24.209 19.1493 22.9569 20.0981C21.4982 21.2035 21.4889 21.1129 20.967 21.4924C20.213 22.0407 20.1319 21.8601 20.2605 22.0617C20.4957 22.4306 20.8283 22.7115 20.967 23.1345C21.1366 23.6517 21.5244 24.1486 21.8345 24.6175C22.2955 25.3146 22.8073 25.9809 23.2833 26.6684C23.5481 27.0507 23.9784 27.4069 24.0077 27.8674C24.0246 28.1323 24.3101 27.8209 24.4102 27.7272C24.7735 27.3869 23.92 27.7916 24.4102 27.5754C25.5114 27.0898 26.6817 26.6027 27.7282 26.0469C28.3674 25.7074 29.0568 25.4514 29.6778 25.0862C29.9763 24.9107 28.821 25.4039 27.8683 25.8282C28.3314 25.5697 28.8311 25.2649 29.3034 24.9867C29.0758 25.15 29.1432 25.1562 29.3271 25.0928C29.253 25.1462 29.1831 25.1957 29.1186 25.2365C28.8503 25.4061 29.1642 25.2359 29.5873 24.9911C29.9756 24.8274 30.4774 24.5774 30.4064 24.5774C30.3583 24.5774 30.3101 24.582 30.262 24.5906C30.6639 24.3445 30.9374 24.1576 30.6389 24.2787C30.2754 24.4263 29.8048 24.6915 29.3034 24.9867C29.4618 24.8731 29.7632 24.6834 30.2678 24.3881C29.0708 23.1716 27.8346 21.9959 26.7262 20.728C26.1311 20.0473 25.6682 19.2844 25.2327 18.5333C25.1433 18.3792 25.0615 18.2286 24.9943 18.0767C24.8045 15.9893 23.8851 14.5845 22.9569 14.1802C22.0803 13.7984 21.1206 13.5426 20.2605 13.1425C19.5747 12.8234 18.8562 12.5063 18.2035 12.1468C18.1862 12.1373 17.8547 11.9309 17.8547 12.0381C17.8547 12.1545 16.7464 12.1237 16.5401 12.1468C14.5837 12.3659 12.4416 12.3259 10.4944 12.0206C9.74205 11.9026 6.27037 14.8069 5.53087 14.6781C5.50253 14.6731 5.56895 14.7254 5.69732 14.8143C4.86288 15.3257 4.03087 16.0802 3.3174 17.339C3.15936 17.5582 2.76661 17.8495 2.71819 18.0962C2.67216 18.3308 2.73725 18.5605 2.78974 18.7869C2.86138 19.0958 3.00688 19.3655 3.21455 19.6423Z" fill="black" stroke="black" stroke-width="0.759044" stroke-linecap="round"/>
<path d="M10.6726 12.0689C10.6726 11.8731 10.5382 11.7012 10.4075 11.5569C10.1423 11.2639 9.7978 11.0526 9.40274 10.956C9.17775 10.901 8.95016 10.8645 8.71741 10.8652C8.48565 10.8659 8.28854 10.9457 8.09256 11.0601C7.80939 11.2255 7.57419 11.4971 7.44553 11.7871C7.27059 12.1814 7.2204 12.6269 7.28226 13.049C7.3053 13.2062 7.34968 13.3885 7.44352 13.5219" stroke="black" stroke-width="0.759044" stroke-linecap="round"/>
<path d="M19.8128 13.6312C19.8408 13.6673 19.8379 13.6285 19.8274 13.5879C20.0401 12.9565 19.9064 13.4998 20.0534 13.067C20.1957 12.6484 20.1988 12.0932 20.0462 11.6786C19.8067 11.0282 19.1836 10.3668 18.5147 10.193C17.2884 9.87426 15.9106 10.4621 15.2216 11.5253C14.9266 11.9804 14.8256 12.4841 14.8508 13.0271C14.8743 13.5313 14.9753 14.0483 15.2846 14.4542C15.562 14.8183 15.9986 15.0638 16.4162 15.2157C16.7492 15.3368 17.1072 15.4358 17.463 15.4176C17.8119 15.3998 18.1057 15.2944 18.4226 15.1534C18.6823 15.0378 18.9542 14.9568 19.1847 14.7832C19.4375 14.5928 19.6514 14.3645 19.7602 14.0541C19.8169 13.8924 19.7966 13.7072 19.7966 13.5394C19.7966 13.4994 19.8162 13.5447 19.8274 13.5879C19.8227 13.6017 19.8179 13.6162 19.8128 13.6312Z" fill="white" stroke="black" stroke-width="0.379522" stroke-linecap="round"/>
<path d="M19.7808 13.5221C19.7756 13.3351 19.7304 13.1433 19.6502 12.9749C19.5404 12.7445 19.3952 12.5209 19.1894 12.3722C18.9661 12.2108 18.7027 12.0922 18.4517 11.9861C18.0507 11.8167 17.6632 11.664 17.2262 11.6356C17.0197 11.6221 16.796 11.6139 16.5917 11.6539C16.4167 11.6881 16.2367 11.7884 16.0811 11.8741C15.8631 11.9942 15.653 12.1688 15.5029 12.3732C15.4483 12.4475 15.3999 12.5287 15.3484 12.6055C15.3018 12.6751 15.2429 12.7503 15.2265 12.8347" stroke="black" stroke-width="0.379522" stroke-linecap="round"/>
<path d="M19.7808 13.1396C19.3455 13.1396 18.9102 13.1396 18.4749 13.1396C18.1535 13.1396 17.8284 13.1538 17.5082 13.1228C17.145 13.0876 16.7735 13.0502 16.4219 12.9503C16.1973 12.8864 15.964 12.8578 15.7421 12.7854C15.5008 12.7066 15.2629 12.6263 15.0363 12.5136C15.0106 12.5008 14.8185 12.3998 14.8506 12.3838" stroke="black" stroke-width="0.379522" stroke-linecap="round"/>
<path d="M17.4484 12.0351C17.4484 12.1326 17.4499 12.2303 17.4484 12.3278C17.4462 12.4691 17.3808 12.5718 17.312 12.6821C17.2118 12.8428 17.0086 12.9243 16.8532 12.9617C16.6534 13.0098 16.454 13.0089 16.2735 12.8834C16.1305 12.784 16.0168 12.5844 16.0007 12.3837C15.994 12.3003 15.9637 12.0907 16.0147 12.022C16.0509 11.9732 16.0952 11.9334 16.134 11.8878C16.2309 11.7739 16.3687 11.7116 16.4967 11.6622C16.5604 11.6375 16.6396 11.6323 16.706 11.6323C16.8051 11.6323 16.921 11.6125 17.0191 11.6361C17.2262 11.6859 17.4703 11.8244 17.529 12.0929C17.5612 12.2399 17.5693 12.4694 17.529 12.6093C17.5147 12.6592 17.4654 12.7715 17.5243 12.7734C17.5924 12.7757 17.6561 12.8127 17.7243 12.82C17.8654 12.8352 18.0088 12.8255 18.1505 12.8368C18.3518 12.8528 18.5549 12.8355 18.7566 12.8405C18.8458 12.8428 18.9521 12.8466 19.0387 12.8704C19.0685 12.8786 19.098 12.8648 19.1224 12.8909C19.1462 12.9163 19.1671 12.9161 19.127 12.8797C18.9046 12.6779 18.7387 12.4036 18.4869 12.2495C18.3015 12.136 17.6858 11.9793 17.8839 12.0556C18.1482 12.1573 18.3916 12.3519 18.631 12.5217C18.7359 12.5961 18.8376 12.6758 18.941 12.7529C18.9962 12.7941 19.0577 12.8231 19.1053 12.8778C19.1538 12.9336 19.1852 12.9943 19.2479 13.0121C19.2855 13.0227 19.3159 13.0495 19.2603 12.9972C19.0608 12.809 18.8643 12.6168 18.6589 12.4378C18.4029 12.2147 18.1602 12.0226 17.8529 11.9381C17.7538 11.9109 17.8537 11.9317 17.901 11.9549C18.1038 12.0544 18.2891 12.2323 18.4698 12.3781C18.6672 12.5374 18.8564 12.7088 19.0588 12.8592C19.1751 12.9455 19.3034 13.0248 19.4014 13.1426" stroke="black" stroke-width="0.379522" stroke-linecap="round"/>
<path d="M17.2856 11.6356C17.2418 11.6356 17.1376 11.6149 17.1134 11.6524C17.0751 11.7116 17.0145 11.7516 16.9486 11.7704" stroke="black" stroke-width="0.759044" stroke-linecap="round"/>
<path d="M9.72108 11.2451C9.70608 11.2516 9.71341 11.2923 9.71341 11.3022C9.71341 11.5142 9.6908 11.7347 9.63928 11.9417C9.5976 12.1091 9.49793 12.2645 9.3977 12.4102C9.29285 12.5625 9.181 12.7131 9.0496 12.8493C8.81507 13.0924 8.55227 13.3009 8.21537 13.4309C8.05939 13.4911 7.87384 13.5359 7.70154 13.5184C7.68823 13.5171 7.60929 13.5112 7.64615 13.4869C7.82321 13.3703 8.0153 13.274 8.18981 13.1531C8.41308 12.9983 8.59676 12.8143 8.77863 12.6234C8.86593 12.5318 8.94453 12.4389 9.00955 12.3341C9.11208 12.1689 9.21015 11.9893 9.2669 11.8074C9.30114 11.6977 9.31462 11.5805 9.31462 11.4669C9.31462 11.442 9.32361 11.3431 9.29204 11.3293C9.2773 11.3229 9.29161 11.358 9.29161 11.3723C9.29161 11.4622 9.2875 11.5517 9.27031 11.6405C9.24053 11.7942 9.17311 11.9407 9.09732 12.0812C9.00673 12.2491 8.90682 12.4192 8.79184 12.5756C8.64008 12.782 8.45784 12.9318 8.19279 13.0166C8.0809 13.0524 7.9663 13.0674 7.85109 13.0908C7.8415 13.0927 7.8293 13.1065 7.82339 13.0997C7.81101 13.0853 7.91505 13.0197 7.92181 13.0144C8.18286 12.8093 8.42248 12.5893 8.59883 12.3226C8.77669 12.0537 8.85738 11.7633 8.96013 11.4699C8.96953 11.443 8.96232 11.3214 9.00955 11.3186C9.11942 11.312 9.2289 11.3037 9.33933 11.3056C9.47624 11.3079 9.60298 11.3516 9.72151 11.4091C9.87874 11.4853 10.0342 11.5525 10.1804 11.6457C10.286 11.713 10.3692 11.7893 10.4607 11.869C10.4965 11.9001 10.5382 11.9236 10.5741 11.9543C10.5845 11.9633 10.6505 12.0343 10.6704 12.03C10.6763 12.0287 10.6689 12.0191 10.6661 12.0144C10.6542 11.9943 10.6353 11.9763 10.6175 11.9602C10.5462 11.8958 10.4587 11.8413 10.3593 11.8156C10.1681 11.7662 10.0324 11.8869 9.88384 11.9728C9.82919 12.0045 9.77416 12.034 9.71597 12.0604C9.70734 12.0643 9.68041 12.0791 9.70745 12.0797C9.77822 12.0811 9.8321 12.0432 9.88213 12.0047C9.93739 11.9623 9.93085 11.9353 9.92645 11.8697C9.92409 11.8346 9.92579 11.7274 9.87447 11.7125" stroke="black" stroke-width="0.759044" stroke-linecap="round"/>
<path d="M21.6787 13.9019C21.7256 13.9668 21.8084 14.0271 21.8898 14.0866C22.0473 14.2019 22.2198 14.3154 22.4081 14.4238C22.7205 14.6037 23.0624 14.7686 23.4969 14.908C23.6366 14.9528 23.7935 15.0096 23.9558 15.0404" stroke="black" stroke-width="0.759044" stroke-linecap="round"/>
<path d="M8.0799 23.0103C8.56705 23.4467 8.82348 24.1593 9.06059 24.751C9.32225 25.4039 9.57295 26.0462 9.8666 26.6848C10.1658 27.3354 10.2335 28.1089 10.3416 28.8086C10.397 29.1674 10.4453 29.5282 10.5316 29.8812C10.5639 30.0132 10.593 30.1858 10.6726 30.2919" stroke="black" stroke-width="0.759044" stroke-linecap="round"/>
<path d="M10.2285 29.3359C10.2285 29.8384 9.5055 30.3046 9.13217 30.5547C8.83811 30.7517 8.52915 30.9337 8.22742 31.1188C8.13076 31.1781 8.088 31.204 7.97728 31.204" stroke="black" stroke-width="0.759044" stroke-linecap="round"/>
<path d="M22.0582 14.2812C22.4573 14.8845 23.0211 15.4014 23.5666 15.9314C23.925 16.2796 24.3704 16.5743 24.7193 16.9258C24.8565 17.064 24.9846 17.2066 25.13 17.34C25.3357 17.5287 25.4009 17.7061 25.4294 17.9498C25.4954 18.5151 25.4684 19.0865 25.4684 19.6534C25.4684 19.8806 25.4741 20.1082 25.467 20.3353C25.4619 20.4973 25.4017 20.5918 25.3122 20.7331" stroke="black" stroke-width="0.759044" stroke-linecap="round"/>
<path d="M7.09668 13.4731C6.99715 13.4874 6.89456 13.5787 6.8094 13.6282C6.68995 13.6977 6.56943 13.7684 6.45357 13.8437C6.33515 13.9206 6.22019 14.0152 6.11161 14.1056C6.0138 14.1872 5.88769 14.2384 5.77455 14.2958C5.59906 14.3848 5.43521 14.5092 5.26365 14.6076C4.95017 14.7872 4.65779 15.0367 4.37897 15.2654C4.08587 15.5058 3.83265 15.8247 3.57916 16.106C3.34585 16.3649 3.0779 16.587 2.90994 16.8993C2.72658 17.2401 2.58681 17.5844 2.63735 17.9798C2.71224 18.5657 3.32025 18.8725 3.7326 19.2024" stroke="black" stroke-width="0.759044" stroke-linecap="round"/>
<path d="M11.1272 12.0908C11.1272 12.2713 11.146 12.4606 11.0923 12.635C11.0463 12.7846 10.9104 12.932 10.8037 13.0417C10.6177 13.2331 10.3962 13.4397 10.1511 13.5511C9.97575 13.6308 9.79461 13.7012 9.61075 13.7583C9.44224 13.8106 9.27746 13.8866 9.10527 13.921" stroke="white" stroke-width="0.379522" stroke-linecap="round"/>
<path d="M22.1606 13.9561C22.4958 14.2913 22.735 14.6837 22.9556 15.0997C23.1097 15.3904 23.2931 15.7085 23.5898 15.8734" stroke="white" stroke-width="0.379522" stroke-linecap="round"/>
<path d="M21.4982 14.6533C21.7088 14.6991 21.81 15.0165 21.8982 15.184C21.9453 15.2736 21.9883 15.3581 22.0541 15.4357C22.0865 15.4741 22.1136 15.5111 22.1257 15.5597" stroke="white" stroke-width="0.379522" stroke-linecap="round"/>
<path d="M20.6267 15.3332C20.0465 15.39 19.4892 15.5705 18.9069 15.6121C18.6728 15.6288 18.4379 15.6486 18.2068 15.5947C17.9876 15.5435 17.7738 15.4615 17.5658 15.3759C17.297 15.2652 17.0671 15.1202 16.8618 14.9149C16.7938 14.8469 16.7186 14.7126 16.6352 14.6709" stroke="white" stroke-width="0.379522" stroke-linecap="round"/>
<path d="M6.64551 13.1914C6.64551 13.4406 6.57755 13.7008 6.51676 13.9416C6.42623 14.3003 6.3847 14.6731 6.24442 15.0186C6.126 15.3102 5.98817 15.5983 5.84829 15.8802C5.64257 16.2947 5.36213 16.6353 5.10554 17.0166C4.80998 17.4557 4.49105 17.8579 4.15482 18.2669C3.86787 18.6159 3.59963 18.9673 3.27343 19.282C2.96581 19.5787 2.62216 19.8092 2.22862 19.9702C2.08094 20.0306 1.93289 20.0897 1.78174 20.1411C1.70111 20.1684 1.60085 20.1771 1.52673 20.2203C1.46419 20.2568 1.65427 20.1508 1.71241 20.1076C1.9822 19.9075 2.23975 19.7197 2.47621 19.4763C2.73155 19.2135 2.97414 18.9242 3.20163 18.637C3.45574 18.3162 3.64317 17.9521 3.89238 17.6281C4.11474 17.339 4.35736 17.0372 4.54105 16.7219C4.71365 16.4257 4.87366 16.1214 5.05107 15.8282C5.15295 15.6598 5.27803 15.4986 5.36055 15.3194C5.41855 15.1934 5.45614 15.0578 5.5091 14.9294C5.62645 14.6451 5.71448 14.3489 5.79754 14.053C5.83881 13.9059 5.85359 13.7106 5.92133 13.5752C5.93278 13.5523 5.93247 13.6735 5.93247 13.6791C5.93247 13.8512 5.93247 14.0233 5.93247 14.1954C5.93247 14.5709 5.89649 14.8788 5.76411 15.2303C5.65891 15.5096 5.52217 15.7925 5.35436 16.0398C4.97736 16.5954 4.657 17.1967 4.239 17.7234C3.93075 18.1118 3.6495 18.5168 3.25857 18.8239C3.09462 18.9527 2.77221 19.051 2.70646 19.2745C2.70076 19.2939 2.67224 19.3499 2.70398 19.3154C2.87275 19.1319 3.02884 18.9378 3.18925 18.7472C3.67202 18.1733 4.12402 17.5881 4.55714 16.9757C4.93417 16.4427 5.29481 15.9005 5.64403 15.3491C5.91263 14.925 6.24008 14.379 6.26671 13.8599C6.27164 13.7637 6.30907 13.6719 6.31127 13.5752C6.31346 13.479 6.27904 13.5281 6.22214 13.4712C6.11239 13.3614 6.16043 13.382 6.11816 13.5405C6.053 13.7848 5.89029 14.0146 5.76287 14.2288C5.55164 14.5839 5.31516 14.9219 5.08326 15.2637C4.48405 16.1467 3.84326 17.0005 3.24867 17.8856C3.00341 18.2507 2.7412 18.6094 2.51582 18.9873C2.49506 19.0221 2.34963 19.3389 2.31157 19.3389C2.23522 19.3389 2.64608 18.6403 2.65447 18.6271C3.07573 17.9626 3.48434 17.2856 3.93447 16.6402C4.53066 15.7855 5.13369 14.9443 5.45958 13.9416C5.53641 13.7052 5.39016 14.073 5.3655 14.1198C5.06508 14.6903 4.69885 15.2292 4.30832 15.7415C3.50278 16.7984 2.53799 17.7633 1.90182 18.9378C1.86179 19.0117 1.82473 19.0876 1.78793 19.1631C1.7805 19.1784 1.75721 19.2497 1.76936 19.1829C1.81109 18.9534 1.92983 18.734 2.03056 18.5268C2.25127 18.0729 2.48911 17.6273 2.74731 17.1936C3.32148 16.2292 3.94979 15.2974 4.52867 14.3365C4.67011 14.1017 4.84407 13.877 4.97432 13.6371C5.36348 12.9202 4.18871 15.0692 3.8602 15.8158C3.68478 16.2145 3.53474 16.6235 3.35265 17.019C3.34662 17.0322 3.33387 17.0702 3.33037 17.0562C3.31815 17.0073 3.39259 16.8765 3.40588 16.8494C3.61043 16.4325 3.84006 16.0181 4.07931 15.6202C4.28211 15.2829 4.5453 14.9561 4.70569 14.5952C4.73372 14.5321 4.77057 14.3254 4.82825 14.287C4.88704 14.2478 4.74892 14.4041 4.70446 14.459C4.51935 14.6876 4.33166 14.9126 4.1573 15.1498C3.64233 15.8503 3.21692 16.6061 2.84016 17.3879C2.64581 17.7912 2.46385 18.1996 2.30538 18.6184C2.27608 18.6958 2.22268 18.8274 2.33756 18.6977C2.63166 18.3656 2.89955 18.0154 3.13725 17.6405C3.3749 17.2656 3.58873 16.8514 3.86886 16.5053C3.88867 16.4808 3.93895 16.4361 3.91219 16.5041C3.83196 16.7077 3.7468 16.9111 3.65966 17.1119C3.43646 17.6261 3.14918 18.1408 2.98252 18.6778C2.94987 18.7831 3.00888 18.6345 3.01594 18.6209C3.19298 18.2795 3.40273 17.9513 3.60271 17.6231C3.96085 17.0355 4.29014 16.4142 4.68217 15.848C4.83003 15.6344 4.63178 16.1104 4.6178 16.1376C4.26591 16.8241 3.83993 17.4847 3.38855 18.1096C3.26463 18.2812 3.11843 18.4342 2.98128 18.5949C2.90792 18.6808 2.81292 18.7983 2.81292 18.918C2.81292 19.0419 2.78257 19.1041 2.92433 19.0963C3.07012 19.0882 3.20749 18.6977 3.25609 18.606C3.33615 18.455 3.41884 18.3059 3.50863 18.1604C3.52916 18.1271 3.59033 18.0371 3.59033 18.0762C3.59033 18.1456 3.53537 18.2161 3.50863 18.2768C3.45469 18.399 3.40838 18.5293 3.37246 18.658C3.32934 18.8126 3.2709 18.9924 3.25981 19.1532C3.23168 19.5611 3.53271 19.913 3.77602 20.2104C3.84444 20.294 4.13026 20.6682 3.92705 20.3614C3.59836 19.8653 3.45549 19.2317 3.53586 18.6407C3.5571 18.4845 3.58986 18.2562 3.68194 18.1208C3.7057 18.0858 3.70441 18.2036 3.70298 18.2458C3.69654 18.4359 3.66445 18.6236 3.63737 18.8115C3.59113 19.1325 3.54466 19.4666 3.57548 19.792C3.58873 19.9318 3.6553 20.0234 3.71536 20.1435C3.77487 20.2626 3.90811 20.3097 3.97161 20.4208C3.9882 20.4499 3.96054 20.4239 3.932 20.4085C3.78058 20.3265 3.65952 20.2145 3.54824 20.0841C3.35935 19.8628 3.22044 19.6078 3.21401 19.3117C3.20695 18.9873 3.18657 19.9603 3.19172 20.2847C3.19256 20.3377 3.29279 20.4626 3.24867 20.4332C3.10076 20.3346 2.98978 20.0618 2.92681 19.9009C2.92508 19.8965 2.86679 19.7387 2.88967 19.74C2.93595 19.7425 3.03576 19.8964 3.06174 19.9257C3.23099 20.1161 3.38707 20.3294 3.59033 20.4864C3.65759 20.5384 3.62481 20.509 3.5829 20.4629C3.47816 20.3477 3.36559 20.2416 3.25114 20.1361C3.17297 20.0641 3.0911 19.9957 3.02337 19.9133C3.00763 19.8942 2.97941 19.8404 3.01718 19.8947C3.07855 19.9829 3.1515 20.1815 3.24495 20.2376C3.25363 20.2428 3.24295 20.2171 3.23876 20.2079C3.18985 20.1003 3.12897 19.9976 3.07784 19.891C2.92079 19.5637 2.77779 19.2279 2.65942 18.8846C2.35983 18.0158 2.19619 16.9915 2.58514 16.1277C2.66858 15.9424 2.75673 15.7418 2.87482 15.5756C2.9813 15.4258 2.94497 15.5715 2.90948 15.6895C2.75443 16.2052 2.52347 16.7031 2.32271 17.2023C2.27419 17.3229 2.22815 17.4446 2.17911 17.565C2.17357 17.5786 2.12672 17.672 2.16921 17.6083C2.3587 17.324 2.52024 17.0211 2.69779 16.7294C2.7927 16.5735 2.90673 16.4447 3.01346 16.2998C3.17023 16.0871 3.32499 15.8773 3.47644 15.6573C3.48583 15.6437 3.58588 15.4674 3.51111 15.5286C3.38726 15.6299 3.2909 15.7779 3.19049 15.9C3.056 16.0635 2.91427 16.2236 2.79311 16.3976C2.78154 16.4142 2.68619 16.5347 2.70894 16.566C2.76896 16.6485 3.05464 16.5619 3.11497 16.5437C3.87968 16.3129 4.46915 15.7537 5.02631 15.2104C5.18237 15.0583 5.32827 14.8794 5.50786 14.7537C5.54094 14.7305 5.58926 14.6984 5.63165 14.7079C5.76771 14.7381 5.56535 15.6399 5.54871 15.7366C5.48561 16.1031 5.52575 16.5436 5.11297 16.6898C4.66416 16.8487 4.74323 15.1646 4.83196 14.9332C4.8578 14.8657 4.97647 14.5869 5.06593 14.5742C5.17227 14.559 5.22935 14.6251 5.26152 14.7239C5.37881 15.0842 5.19338 15.5535 4.96442 15.8257C4.8486 15.9634 4.66465 16.1347 4.47916 16.1723C4.34774 16.1989 4.19431 16.1773 4.06074 16.1773" stroke="white" stroke-width="0.379522" stroke-linecap="round"/>
<path d="M20.4067 12.5835C20.4274 12.6133 20.4147 12.6005 20.4701 12.6234C20.6438 12.6952 20.8148 12.7644 20.9829 12.8499C21.5689 13.1479 22.087 13.5653 22.6081 13.9611C23.3756 14.5441 24.1434 15.1286 24.8858 15.7436C25.1245 15.9413 25.3657 16.1341 25.6192 16.3127C25.9036 16.5132 26.1642 16.7469 26.4476 16.9464C26.492 16.9776 26.5787 17.011 26.5955 17.0614" stroke="black" stroke-width="0.759044" stroke-linecap="round"/>
<path d="M26.6587 17.3779C26.639 18.5031 26.1445 19.5547 26.072 20.6753C26.0655 20.776 26.0673 21.079 26.0673 20.978C26.0673 20.5226 26.082 20.0649 26.0626 19.6098C26.0428 19.1463 25.9405 18.6858 25.9405 18.2228C25.9405 17.8944 25.8345 17.6672 25.6448 17.4108C25.4613 17.1627 25.3036 16.9217 25.0839 16.702C25.0096 16.6277 24.9344 16.5483 24.8645 16.4697C24.7379 16.3272 24.9711 16.5026 25.0088 16.5307C25.3135 16.7576 25.5962 17.0118 25.8936 17.2477C26.0279 17.3542 26.1484 17.4902 26.2996 17.5727C26.3468 17.5985 26.6138 17.8452 26.6376 17.8215" stroke="black" stroke-width="0.759044" stroke-linecap="round"/>
<path d="M26.9387 17.0557C26.9387 17.3798 26.9387 17.7039 26.9387 18.0281C26.9387 18.2944 26.9309 18.5623 26.9451 18.8284C26.9657 19.2137 27.0663 19.5826 27.2089 19.9399C27.3687 20.3402 27.5763 20.7198 27.7736 21.1022C27.994 21.5293 28.2017 21.9602 28.4605 22.3665C28.773 22.8574 29.1394 23.3207 29.5205 23.7604C29.7061 23.9746 29.9337 24.1498 30.1093 24.3741C30.1702 24.452 30.0743 24.3489 30.0626 24.3379C29.8651 24.1518 29.6626 23.9711 29.4868 23.7636C29.0482 23.2462 28.7575 22.6121 28.3832 22.0488C28.1588 21.711 27.9739 21.3642 27.8363 20.9823C27.7565 20.7608 27.6978 20.5232 27.5902 20.3139C27.4421 20.026 27.2419 19.7835 27.0079 19.5603C26.8408 19.4009 26.6694 19.2475 26.506 19.0841C26.4871 19.0652 26.4682 19.0403 26.4465 19.0246C26.4328 19.0148 26.4372 19.2483 26.4384 19.2627C26.4783 19.727 26.6376 20.1992 26.8156 20.6276C26.9317 20.9069 27.096 21.1907 27.3376 21.3813C27.411 21.4391 27.3228 21.2814 27.3207 21.2775C27.1584 20.9684 26.9734 20.6729 26.8341 20.3517C26.6522 19.9321 26.5456 19.4952 26.5912 19.0391" stroke="black" stroke-width="0.759044" stroke-linecap="round"/>
<path d="M20.3868 12.5205C20.4483 12.5205 20.509 12.5342 20.5687 12.5478C20.9141 12.6263 21.2488 12.7436 21.5753 12.8799C22.4455 13.2431 23.2709 13.6931 24.1559 14.0218C24.6437 14.203 25.1097 14.4134 25.5708 14.6542C25.9277 14.8405 26.2811 15.0426 26.649 15.2069C27.03 15.3771 27.4138 15.5307 27.8057 15.6732C28.1492 15.7981 28.5067 15.9172 28.8282 16.0929C29.0135 16.1942 29.186 16.3264 29.3741 16.4205C29.38 16.4234 29.4784 16.4813 29.4446 16.491C29.1056 16.5878 28.7959 16.789 28.4642 16.922C27.9498 17.1283 27.4225 17.2465 26.8674 17.2655C26.6976 17.2713 25.9625 17.34 25.9393 17.029C25.9322 16.9337 26.1069 16.8673 26.1668 16.8402C26.4193 16.7258 26.686 16.6845 26.9606 16.6684C27.3581 16.6452 27.7344 16.6624 28.1253 16.7276C28.2464 16.7478 28.3791 16.7736 28.5029 16.7571C28.5528 16.7505 28.5972 16.7091 28.6473 16.698C28.7216 16.6815 28.8267 16.6242 28.7304 16.5331C28.5695 16.3809 28.2137 16.4016 28.015 16.3909C27.636 16.3704 27.2639 16.3376 26.8947 16.2453C26.6811 16.1919 26.4641 16.1396 26.2578 16.0622C25.9688 15.9539 25.7399 15.7588 25.5003 15.5709C24.8995 15.0997 24.2104 14.7607 23.6009 14.3016C23.5037 14.2284 23.4056 14.1436 23.2961 14.0889C23.2728 14.0773 23.2447 14.0677 23.2916 14.0855C23.4932 14.162 23.6828 14.286 23.8693 14.3914C24.5516 14.7772 25.2122 15.2055 25.9018 15.5777C26.1819 15.7289 26.4414 15.8045 26.7445 15.8791C27.0639 15.9577 27.3716 16.107 27.6954 16.16C27.8233 16.181 27.9581 16.1989 28.0798 16.2465C28.1445 16.2718 28.1601 16.3007 28.2276 16.2669" stroke="black" stroke-width="0.759044" stroke-linecap="round"/>
<path d="M29.415 16.5332C29.415 17.0614 29.3936 17.5933 29.481 18.1164C29.6506 19.1313 30.1627 20.0406 30.914 20.7414C31.2215 21.0282 31.5583 21.2834 31.8785 21.5557C32.0792 21.7265 32.2709 21.9132 32.4813 22.0721C32.5111 22.0946 32.7497 22.2255 32.7497 22.2757C32.7497 22.3366 32.2546 22.1763 32.2368 22.1699C31.5245 21.9144 30.9224 21.2874 30.5239 20.6652C30.152 20.0844 29.9055 19.4332 29.5344 18.8534C29.2744 18.4472 29.0949 18.0008 28.8509 17.5864C28.7608 17.4334 28.6692 17.2299 28.6416 17.0541C28.6341 17.0062 28.6162 16.9073 28.6621 17.0154C28.7842 17.3033 28.8427 17.6325 28.9282 17.9321C29.1108 18.5721 29.2697 19.219 29.4605 19.8565C29.5865 20.2778 29.7232 20.7096 29.9541 21.0871C30.1425 21.3952 30.3849 21.669 30.6388 21.9242C30.8322 22.1187 31.03 22.3258 31.2586 22.4793C31.6116 22.7163 32.1326 22.8796 32.5654 22.8796C32.6759 22.8796 32.4972 22.8152 32.4756 22.8045C32.0099 22.5759 31.531 22.3758 31.0596 22.1597C30.6176 21.957 30.1618 21.7575 29.7858 21.4431C29.469 21.1783 29.2368 20.8645 29.0306 20.5094C28.6496 19.8535 28.4826 19.0848 28.4414 18.3325C28.4139 17.8296 28.3972 17.2505 28.5597 16.7629C28.6453 16.5063 28.5101 17.3018 28.4778 17.5705C28.4185 18.0636 28.3871 18.5744 28.4392 19.0695C28.5146 19.7879 28.782 20.386 29.2683 20.9188C29.8981 21.6089 30.7205 22.1107 31.4543 22.6806C31.5754 22.7746 31.6992 22.87 31.8159 22.9695C31.8282 22.9799 31.886 23.0167 31.891 23.0343C31.9059 23.0865 31.7897 23.0617 31.775 23.0604C31.3491 23.0239 30.9412 22.7999 30.5865 22.5782C29.4234 21.8513 28.5397 20.7855 28.0274 19.5199C27.7828 18.9154 27.6498 18.2793 27.527 17.641C27.4876 17.4363 27.4927 17.2077 27.4337 17.0086C27.3949 16.8774 27.5034 17.2733 27.5338 17.4067C27.6743 18.0227 27.7759 18.6438 27.875 19.2674C28.0011 20.0607 28.1294 20.865 28.7804 21.4067C29.433 21.9498 30.1837 22.3655 30.8333 22.916C30.9003 22.9728 30.9841 23.0247 31.0403 23.0934C31.0815 23.1438 30.8001 23.1121 30.7957 23.1116C30.3528 23.0648 29.9042 22.9346 29.4935 22.7659C29.1247 22.6143 28.7805 22.4146 28.5381 22.0914C28.2593 21.7196 28.1575 21.2882 28.0866 20.8369C28.0018 20.2974 27.9543 19.7525 27.8887 19.2105C27.8587 18.9629 27.8182 18.7275 27.8182 18.4781C27.8182 18.4432 27.8192 18.3443 27.7977 18.4394C27.7407 18.6913 27.7043 18.9497 27.6749 19.206C27.6361 19.5434 27.5984 19.9086 27.6612 20.2455C27.7307 20.6185 27.9318 20.9622 28.1889 21.2373C28.8125 21.9043 29.6933 22.277 30.3488 22.9137C30.4524 23.0144 30.6141 23.2526 30.7684 23.2697C30.9266 23.2873 31.0408 23.2718 31.1847 23.1969C31.2196 23.1788 31.319 23.1164 31.2893 23.1423C31.1369 23.2757 30.9816 23.4056 30.8264 23.5359C30.6198 23.7093 30.4158 23.8858 30.21 24.0602C30.1657 24.0977 30.1202 24.1334 30.0747 24.1694C30.0184 24.2138 30.1843 24.0771 30.2407 24.0329C30.5705 23.7744 30.9181 23.5432 31.2757 23.3254C31.4212 23.2368 31.5799 23.1056 31.7443 23.0525C31.859 23.0154 31.8011 23.109 31.7579 23.1639C31.5988 23.3667 31.4022 23.5448 31.2075 23.7121C31.1292 23.7793 31.0552 23.8431 30.9868 23.9191C30.934 23.9779 31.1145 23.8259 31.1756 23.7758C31.3482 23.6343 31.5042 23.4733 31.6692 23.3232C31.7278 23.2699 31.8818 23.1914 31.9115 23.1173C31.9436 23.0371 31.8318 23.2721 31.7773 23.3391C31.5844 23.5761 31.3517 23.7803 31.1301 23.9897C31.0549 24.0608 30.8275 24.272 30.9061 24.2046C31.071 24.0632 31.253 23.9388 31.4213 23.8009C31.8332 23.4633 32.2802 23.1519 32.752 22.916C32.7605 22.9118 32.7865 22.9024 32.777 22.9024C32.7582 22.9024 32.6894 22.9445 32.6837 22.9478C32.391 23.1194 32.1131 23.3194 31.8262 23.5006C31.3613 23.7943 30.9011 24.0698 30.4068 24.3081C30.31 24.3548 30.3322 24.3186 30.2908 24.2467C30.1126 23.9379 29.9611 23.6083 29.7448 23.3232C29.6267 23.1675 29.806 23.3369 29.8745 23.3493C29.9461 23.3623 29.856 23.2112 29.854 23.2072C29.6637 22.8075 29.4401 22.4248 29.2467 22.0266C29.1286 21.7835 29.0131 21.5381 28.9066 21.2896C28.8868 21.2434 28.911 21.2698 28.935 21.2941C29.0285 21.3887 29.1149 21.4905 29.1978 21.5944C29.469 21.9347 29.7331 22.2908 29.9689 22.6567C30.0836 22.8347 30.1956 23.0328 30.2657 23.2345C30.2877 23.2977 30.1387 23.2057 30.127 23.1981C29.9993 23.1145 29.8695 23.0274 29.7471 22.9365C29.3724 22.6581 29.0783 22.3797 28.8941 21.9493C28.41 20.818 27.866 19.7277 27.5634 18.5292C27.4759 18.1828 27.3698 17.7965 27.5839 17.4829C27.6083 17.4471 27.8693 17.0166 27.9501 17.0973C27.9787 17.1259 27.9615 17.2205 27.9615 17.2531C27.9615 17.4672 27.9673 17.6822 27.949 17.8957C27.9459 17.9313 27.8816 18.3592 27.8591 18.3143" stroke="black" stroke-width="0.759044" stroke-linecap="round"/>
<path d="M18.0481 12.5665C18.0481 12.5256 18.0436 12.5164 18.0921 12.5159C18.1463 12.5153 18.2047 12.5102 18.257 12.5271C18.3618 12.5609 18.4607 12.6266 18.5438 12.6977C18.557 12.709 18.6106 12.7489 18.5644 12.7567C18.4627 12.7738 18.3424 12.7357 18.2514 12.6949C18.1415 12.6455 18.0356 12.5839 17.9394 12.5112C17.9174 12.4946 17.895 12.4712 17.8897 12.4428C17.8778 12.3793 17.8984 12.3113 17.886 12.2479C17.8813 12.2242 17.8541 12.1465 17.8541 12.2141C17.8541 12.3195 17.8804 12.4845 17.8204 12.5796C17.817 12.5849 17.8323 12.5757 17.8382 12.5735C17.8764 12.5593 17.916 12.5479 17.9553 12.5374C18.1219 12.493 18.2934 12.4746 18.4651 12.4625C18.584 12.4541 18.7067 12.4482 18.8202 12.4906C18.889 12.5163 18.9535 12.5537 19.016 12.5918C19.1254 12.6583 19.231 12.7256 19.3346 12.8007C19.4101 12.8555 19.4785 12.9251 19.5492 12.9863C19.5996 13.0298 19.6826 13.0745 19.7095 13.1381C19.7288 13.1838 19.7227 13.223 19.7282 13.2711C19.7352 13.3325 19.75 13.3949 19.7516 13.4567C19.7522 13.4785 19.7559 13.5437 19.7516 13.5223C19.7437 13.4828 19.696 13.4182 19.6654 13.393C19.6178 13.3536 19.5623 13.3194 19.5071 13.2918C19.4739 13.2752 19.4297 13.2769 19.3937 13.2665C19.2538 13.2258 19.1003 13.232 18.957 13.2224C18.7045 13.2056 18.4524 13.2243 18.1999 13.2243C17.9565 13.2243 17.7214 13.1982 17.4821 13.1531C17.3135 13.1213 17.1409 13.1171 16.9733 13.0809C16.8954 13.0641 16.8259 13.0227 16.7474 13.005C16.6674 12.987 16.5882 12.9917 16.5076 12.9797C16.263 12.9433 16.0374 12.8516 15.7982 12.7923C15.7121 12.771 15.633 12.7388 15.5452 12.7248C15.4825 12.7149 15.4339 12.6853 15.3747 12.6658C15.3041 12.6425 15.2298 12.6063 15.1657 12.5684C15.1503 12.5593 15.1147 12.5414 15.1067 12.5243C15.1008 12.5118 15.1562 12.4859 15.1638 12.4803C15.254 12.4138 15.3497 12.361 15.4468 12.305C15.5434 12.2494 15.6378 12.1922 15.7354 12.1382C15.8224 12.0901 15.9013 12.0295 15.9903 11.9846C16.0861 11.9362 16.178 11.9 16.2817 11.8731C16.3797 11.8477 16.4684 11.8027 16.5703 11.7925C16.7099 11.7785 16.85 11.7822 16.9901 11.7822C17.0907 11.7822 17.1967 11.7882 17.2937 11.8178C17.4041 11.8514 17.5195 11.9134 17.6095 11.9846C17.6436 12.0115 17.6753 12.0413 17.7089 12.0689C17.7224 12.08 17.7447 12.1044 17.7098 12.0848C17.6072 12.0276 17.5197 11.9652 17.3987 11.9527C17.3154 11.9442 17.2325 11.9359 17.1494 11.9274C16.9509 11.9071 16.7416 11.9255 16.5422 11.9255C16.3354 11.9255 16.1581 12.0276 15.9894 12.1429C15.8807 12.2172 15.7673 12.2917 15.667 12.3772C15.599 12.4352 15.6775 12.3872 15.7073 12.3669C15.8544 12.2667 16.0179 12.1827 16.1749 12.0989C16.3138 12.0248 16.463 11.9718 16.6209 11.9611C16.7373 11.9533 16.8557 11.9593 16.9723 11.9593C17.0825 11.9593 17.1904 11.9646 17.2975 11.9911C17.5593 12.056 17.7989 12.1767 18.0209 12.3285C18.1107 12.3899 18.2076 12.4421 18.2964 12.5046C18.3051 12.5108 18.4269 12.6026 18.3732 12.6068C18.163 12.6229 17.9352 12.5402 17.7426 12.4653C17.692 12.4456 17.6827 12.4734 17.6704 12.5234C17.6468 12.62 17.6687 12.7153 17.751 12.7754C17.7822 12.7982 17.8526 12.8345 17.8878 12.8111" stroke="black" stroke-width="0.379522" stroke-linecap="round"/>
<path d="M15.9314 12.6426C15.7338 12.6426 15.5362 12.651 15.3392 12.651C15.263 12.651 15.1677 12.6337 15.1115 12.6913C15.0869 12.7165 15.0614 12.739 15.0309 12.7569C15.0171 12.765 15.0026 12.7545 14.9953 12.7691" stroke="black" stroke-width="0.379522" stroke-linecap="round"/>
<path d="M15.0709 12.3218C15.0893 12.3403 15.2604 12.199 15.2733 12.1897C15.4053 12.0948 15.5424 12.008 15.6828 11.9259C15.7927 11.8617 15.9058 11.7919 16.0258 11.7484C16.1429 11.7059 16.2636 11.6722 16.3823 11.6345C16.6086 11.5626 16.8287 11.4711 17.0509 11.3876C17.2255 11.322 17.4162 11.3307 17.5925 11.3895C17.861 11.479 18.1015 11.6376 18.352 11.7652C18.5133 11.8474 18.6696 11.9381 18.8285 12.0248C18.9735 12.1039 19.122 12.1823 19.2548 12.2811C19.4917 12.4572 19.6778 12.6828 19.8152 12.944C19.8658 13.0403 19.8999 13.1488 19.937 13.2509C19.98 13.3692 20.0189 13.4868 20.0298 13.6122" stroke="black" stroke-width="0.379522" stroke-linecap="round"/>
<path d="M6.80104 13.0747C6.80104 13.1855 6.78304 13.3074 6.8267 13.4093C6.91564 13.6168 7.00789 13.8195 7.10138 14.0252C7.15518 14.1435 7.2265 14.2679 7.31048 14.3673C7.32706 14.3869 7.43899 14.5185 7.41313 14.4909C7.22948 14.2946 7.0633 14.0228 6.96642 13.7704C6.91732 13.6426 6.89548 13.506 6.85332 13.376C6.79401 13.1931 6.88979 13.4203 6.91414 13.4729C7.05125 13.7694 7.12734 14.1208 7.33995 14.3759C7.3699 14.4118 7.33645 14.5251 7.32379 14.5631C7.29719 14.6429 7.24046 14.7113 7.17742 14.7646C7.10126 14.8291 7.00996 14.8712 6.93791 14.9395C6.80547 15.065 6.66169 15.1789 6.514 15.2855C6.31535 15.4288 6.14949 15.603 5.93233 15.7236C5.80302 15.7955 5.68533 15.8729 5.5702 15.965C5.22291 16.2429 6.21995 15.3571 6.53016 15.0383C6.75221 14.8102 6.85929 14.5747 6.86947 14.259C6.8705 14.2273 6.92327 13.7573 6.83906 13.7666C6.81426 13.7694 6.90009 14.2149 6.90464 14.239C6.93108 14.3791 6.9655 14.5159 7.00634 14.6525C7.01382 14.6775 7.05494 14.7646 7.03865 14.7931C7.01231 14.8392 6.70975 14.8026 6.65657 14.8026C6.48661 14.8026 6.44608 14.769 6.46173 14.5916C6.47772 14.4104 6.55462 14.2214 6.65087 14.067C6.68997 14.0042 6.7447 13.9136 6.76682 14.0347C6.8008 14.2205 6.7895 14.3984 6.66037 14.546C6.57826 14.6398 6.46464 14.6687 6.35623 14.6144" stroke="white" stroke-width="0.379522" stroke-linecap="round"/>
<path d="M29.4352 19.9629C29.4912 19.9789 29.5708 20.1334 29.5979 20.172C29.7559 20.3973 29.9092 20.6257 30.0575 20.8575C30.2988 21.2348 30.4935 21.652 30.8992 21.8683" stroke="white" stroke-width="0.379522" stroke-linecap="round"/>
<path d="M30.4346 22.6813C30.1621 22.5127 29.9488 22.185 29.7529 21.9416C29.5019 21.6296 29.3689 21.2768 29.2727 20.8921" stroke="white" stroke-width="0.379522" stroke-linecap="round"/>
<path d="M22.8451 13.8989C23.1508 13.8989 23.3731 13.9233 23.6737 14.0477C25.0494 14.6172 26.3396 15.3936 27.6357 16.1201" stroke="white" stroke-width="0.379522" stroke-linecap="round"/>
<path d="M7.69238 22.8418C7.4713 22.8418 7.25021 22.8418 7.02912 22.8418C6.78257 22.8418 6.54162 22.8365 6.30253 22.7685C6.08366 22.7062 5.87719 22.6082 5.67593 22.5036C5.20384 22.2581 4.86688 21.8287 4.7377 21.312" stroke="black" stroke-width="0.379522" stroke-linecap="round"/>
</svg>
