<svg width="37" height="38" viewBox="0 0 37 38" fill="none" xmlns="http://www.w3.org/2000/svg">
<rect x="-0.519772" y="0.519772" width="34.305" height="35.8643" rx="4.67795" transform="matrix(-1 0 0 1 34.9939 0.942871)" fill="#F32D12" stroke="black" stroke-width="1.03954"/>
<path d="M20.0582 6.15175C20.0582 5.80181 20.3844 5.40658 20.6109 5.16683C20.8142 4.95161 21.0622 4.76568 21.3017 4.59246C21.5264 4.42996 21.7722 4.31983 22.0517 4.29441C22.3506 4.26725 22.5779 4.30588 22.8156 4.49377C23.0132 4.64998 23.1774 4.84175 23.2735 5.07603C23.4356 5.47115 23.5547 5.9226 23.5933 6.34715" stroke="black" stroke-width="1.03954" stroke-linecap="round"/>
<path d="M16.2821 5.92665C16.2821 5.57672 15.956 5.18148 15.7295 4.94173C15.5261 4.72652 15.2781 4.54058 15.0386 4.36736C14.814 4.20486 14.5681 4.09473 14.2886 4.06932C13.9898 4.04215 13.7625 4.08078 13.5247 4.26867C13.3271 4.42489 13.1629 4.61665 13.0668 4.85094C12.9048 5.24605 12.7857 5.69751 12.7471 6.12206" stroke="black" stroke-width="1.03954" stroke-linecap="round"/>
<path d="M27.7587 21.9795C28.8602 21.9795 29.8981 22.6468 30.8306 23.1745C31.7393 23.6887 32.5049 24.2272 33.2447 24.9669C33.7888 25.511 34.3128 26.0769 34.8229 26.6507C34.8774 26.712 35.2104 27.1939 35.1458 27.1939" stroke="black" stroke-width="1.03954" stroke-linecap="round"/>
<path d="M7.27612 21.2861C6.82766 21.5277 6.36836 21.7585 5.94219 22.0391C5.77143 22.1515 5.62066 22.2893 5.44793 22.3989C5.24106 22.5303 5.03309 22.6512 4.81926 22.7704C4.26303 23.0804 3.73212 23.4906 3.24543 23.8991C2.68495 24.3695 2.19487 24.8937 1.85224 25.5408C1.7329 25.7663 1.62011 26.0112 1.52707 26.249C1.40078 26.5717 1.37613 26.9105 1.29295 27.2433" stroke="black" stroke-width="1.03954" stroke-linecap="round"/>
<path d="M22.7426 24.4468C22.7426 24.9178 22.7594 25.3922 22.7387 25.8627C22.6955 26.8465 22.2516 27.8306 21.966 28.7603C21.6878 29.6659 21.3811 30.5562 20.9808 31.4164C20.7396 31.9348 20.4644 32.5017 20.1425 32.9772C19.7103 33.6157 19.2666 34.2656 18.9004 34.9437C18.6719 35.3668 18.2773 35.6649 18.0137 36.0603" stroke="black" stroke-width="1.03954" stroke-linecap="round"/>
<path d="M12.34 24.333C12.34 24.9142 12.2856 25.5225 12.3671 26.0985C12.4886 26.9575 12.9389 27.7434 13.1754 28.573C13.3353 29.1343 13.443 29.684 13.6675 30.2257C13.9289 30.8562 14.1984 31.482 14.5345 32.077C15.0241 32.9437 15.5465 33.8121 15.9388 34.7276C16.0911 35.0829 16.282 35.5638 16.282 35.9558" stroke="black" stroke-width="1.03954" stroke-linecap="round"/>
<path d="M21.5122 27.1102C21.2982 27.1734 21.1176 27.2873 20.9369 27.4171C20.6953 27.5908 20.4512 27.7645 20.2193 27.951C20.1456 28.0103 20.0703 28.0779 20.0163 28.1559C19.9896 28.1945 19.9765 28.2139 19.922 28.1963C19.8254 28.1652 19.7401 28.0751 19.6681 28.0097C19.4243 27.7885 19.1868 27.5595 18.9475 27.3334C18.5691 26.9759 18.2013 26.5995 17.7979 26.2695C17.7602 26.2386 17.6021 26.0713 17.5468 26.0713" stroke="black" stroke-width="1.03954" stroke-linecap="round"/>
<path d="M17.5469 26.0713C17.5064 26.0814 17.4716 26.1167 17.4411 26.1425C17.2985 26.2627 17.1607 26.3895 17.0245 26.5167C16.749 26.774 16.4743 27.038 16.2155 27.3123C15.9751 27.567 15.7037 27.8335 15.5045 28.1223C15.4636 28.1816 15.4213 28.242 15.3862 28.3051C15.3537 28.3636 15.1915 28.2631 15.165 28.2502C14.6583 28.0039 14.1956 27.674 13.7335 27.3546C13.4628 27.1675 13.1762 27.0101 12.8889 26.8505" stroke="black" stroke-width="1.03954" stroke-linecap="round"/>
<path d="M19.4569 28.8357C18.6489 28.8357 17.8373 28.8549 17.0294 28.8344C16.6989 28.8261 16.3704 28.7715 16.0394 28.7647C15.8506 28.7608 15.2875 28.7734 15.4734 28.7396C15.8427 28.6725 16.2296 28.6936 16.6029 28.6936C17.0043 28.6936 17.3601 28.7109 17.7508 28.8068C18.0159 28.8719 18.3191 28.9396 18.592 28.9529C18.8149 28.9638 19.0468 28.9905 19.2568 29.0674C19.402 29.1206 19.5842 29.1245 19.7175 29.1912" stroke="black" stroke-width="1.03954" stroke-linecap="round"/>
<path d="M19.7648 28.9307C19.7648 29.2028 19.7881 29.4845 19.7148 29.7495C19.6209 30.0884 19.448 30.4339 19.2751 30.7394C19.2131 30.8488 19.0663 31.2529 18.8986 31.2529C18.679 31.2529 18.4545 31.3115 18.2351 31.3292C17.7797 31.3659 17.3411 31.395 16.8818 31.395C16.6545 31.395 16.4272 31.395 16.1999 31.395C16.1248 31.395 16.0189 31.1759 15.9853 31.1199C15.7167 30.6721 15.6125 30.117 15.4877 29.6178C15.4645 29.5252 15.4374 29.2995 15.3758 29.2203C15.1867 28.9772 15.8006 29.6666 16.005 29.8969C16.2013 30.118 16.3928 30.3388 16.5606 30.5828C16.6216 30.6716 16.7205 30.7779 16.7528 30.8829C16.7663 30.9268 16.7213 30.9167 16.6975 30.9C16.5479 30.7956 16.4484 30.5968 16.4026 30.4261C16.2758 29.9533 16.808 29.8548 17.1661 29.8548C17.2597 29.8548 17.8528 29.9776 17.5492 30.1484C17.3507 30.2601 16.6568 30.3546 16.6185 30.0101C16.5748 29.6172 17.2539 29.5307 17.5203 29.552C17.8112 29.5753 18.0224 29.7082 18.2035 29.9338C18.2865 30.0372 18.4038 30.2075 18.3799 30.3511C18.3491 30.5361 18.0372 30.5765 17.8954 30.592C17.5678 30.6278 17.0552 30.6025 16.7975 30.3629C16.2893 29.8905 17.1206 29.5369 17.5084 29.4809C17.9491 29.4174 18.4435 29.4487 18.7261 29.8416C18.9346 30.1314 18.7999 30.5054 18.4075 30.434C17.9872 30.3576 17.6401 29.7106 18.035 29.394C18.2404 29.2294 18.7778 29.2129 18.9683 29.4085C19.2963 29.7454 18.8017 29.9533 18.5194 29.9864C18.1286 30.0323 17.7936 30.0169 17.4242 29.8785C17.2039 29.796 17.0058 29.6771 16.8081 29.552C16.7503 29.5155 16.4875 29.3723 16.5237 29.2637C16.5592 29.1574 16.9707 29.2668 17.024 29.3243C17.2432 29.561 16.9124 29.6264 16.7291 29.6126C16.612 29.6037 16.4718 29.5884 16.3815 29.5046C16.3504 29.4757 16.3708 29.4757 16.4 29.4757" stroke="black" stroke-width="1.03954" stroke-linecap="round"/>
<path d="M19.051 32.3856C18.7584 32.3856 18.455 32.3633 18.1634 32.3866C17.9994 32.3997 17.845 32.4215 17.6788 32.4215C17.5979 32.4215 17.4661 32.4373 17.3906 32.4664C17.2837 32.5075 17.1243 32.4867 17.0086 32.5073C16.8774 32.5306 16.7333 32.5067 16.6057 32.5432C16.474 32.5808 16.2169 32.5001 16.1569 32.6489C16.0949 32.8027 16.0356 32.9764 15.9994 33.1395C15.9729 33.2586 15.8917 33.3313 15.8917 33.4627C15.8917 33.7612 16.009 34.0679 16.1779 34.3123C16.3004 34.4896 16.4193 34.6683 16.5459 34.8429C16.5859 34.8981 16.6482 35.0073 16.7094 35.0423C16.7688 35.0763 16.8428 35.1428 16.875 35.2039C16.9317 35.3116 17.0324 35.4148 17.1522 35.4592C17.2433 35.4929 17.308 35.5265 17.4035 35.4831C17.5607 35.4116 17.6989 35.2037 17.8004 35.0722C17.9816 34.8377 18.1741 34.6122 18.3609 34.3821C18.473 34.2441 18.5964 34.0979 18.7388 33.9902C18.8683 33.8923 18.9927 33.7838 19.0869 33.6511C19.2126 33.4739 19.3586 33.3068 19.4718 33.1216C19.5107 33.0579 19.5516 32.9697 19.4718 32.9241C19.3988 32.8824 19.3452 32.8164 19.2764 32.7725C19.1906 32.718 19.0606 32.7267 18.9612 32.7267C18.7046 32.7267 18.4666 32.7474 18.2233 32.8384C18.0457 32.9048 17.8746 32.9618 17.7047 33.0458C17.5739 33.1104 17.4401 33.1763 17.3058 33.2333C17.1046 33.3186 16.9275 33.4537 16.861 33.6741C16.7847 33.927 16.777 34.3305 16.9897 34.5207C17.1423 34.6573 17.4622 34.6766 17.6329 34.5676C17.7928 34.4654 17.9215 34.2995 18.0477 34.1607C18.1413 34.0579 18.2357 33.9549 18.314 33.8396C18.4359 33.6604 18.5621 33.5016 18.5284 33.2742C18.5154 33.1864 18.434 33.0924 18.3389 33.1356C18.1247 33.2329 17.963 33.5414 17.8662 33.7439C17.7641 33.9577 17.6248 34.3279 17.3277 34.3063C17.1865 34.2961 17.0967 34.0881 17.0186 33.9912C16.9531 33.9101 16.9006 33.8327 16.861 33.7359C16.8112 33.6143 16.7449 33.4904 16.6276 33.4267C16.5961 33.4096 16.5457 33.3907 16.5199 33.3649C16.4941 33.3391 16.4793 33.2987 16.4481 33.2831" stroke="black" stroke-width="1.03954" stroke-linecap="round"/>
<path fill-rule="evenodd" clip-rule="evenodd" d="M15.8595 5.66755C16.4823 5.63449 17.1416 5.62109 17.8412 5.62109C18.8944 5.62109 19.8728 5.66585 20.7814 5.77012L19.649 6.71379C19.0806 6.67763 18.4789 6.66064 17.8412 6.66064C17.5613 6.66064 17.2898 6.66289 17.0264 6.66767L15.8595 5.66755ZM12.5171 7.24041L13.3751 5.95339C9.49183 6.71594 7.31987 9.05127 5.36669 15.4968C3.67299 21.086 10.9517 25.3724 17.8412 25.3724C24.7307 25.3724 31.6152 20.9544 30.3158 15.4968C28.9794 9.88424 26.751 7.27671 23.138 6.22685L23.4827 7.43339C24.1715 7.68719 24.7861 8.01058 25.3387 8.4137C27.0733 9.67904 28.3834 11.8692 29.3045 15.7375C29.8224 17.9128 28.7587 20.0008 26.5319 21.6449C24.3073 23.2874 21.0851 24.3329 17.8412 24.3329C14.586 24.3329 11.2622 23.3141 8.99097 21.6857C6.72353 20.0601 5.69293 18.0047 6.36156 15.7982C7.64568 11.5607 8.95954 9.37392 10.6039 8.18534C11.1694 7.77662 11.7971 7.46861 12.5171 7.24041Z" fill="black"/>
<path d="M17.2107 6.11963C17.1046 6.11963 16.9984 6.11963 16.8923 6.11963C16.7548 6.11963 16.6195 6.17348 16.4821 6.17348C16.4308 6.17348 16.3868 6.20676 16.3372 6.20937C16.323 6.21012 16.3054 6.22303 16.2923 6.23031C16.2789 6.23779 16.2813 6.23233 16.299 6.23364C16.3402 6.23669 16.3789 6.24527 16.4209 6.24527C16.5268 6.24527 16.6387 6.25277 16.7427 6.23198C16.7919 6.22213 16.8405 6.21342 16.8906 6.20971C16.9901 6.20234 17.0879 6.175 17.1868 6.16151" stroke="black" stroke-width="1.03954" stroke-linecap="round"/>
<path d="M20.1963 5.96973C20.1963 6.08195 20.1027 6.16099 20.0201 6.22234C19.9724 6.25778 19.946 6.26888 19.8878 6.26888C19.8048 6.26888 19.7232 6.27486 19.6399 6.27486" stroke="black" stroke-width="1.03954" stroke-linecap="round"/>
<path d="M12.9507 5.93555C12.9507 6.04108 12.9414 6.13013 12.919 6.23302C12.897 6.3344 12.8417 6.4695 12.7707 6.54596C12.6951 6.62732 12.6349 6.66186 12.5393 6.71333C12.4895 6.74013 12.4289 6.75318 12.3754 6.771C12.2353 6.81773 12.1056 6.8836 11.9886 6.97353" stroke="black" stroke-width="1.03954" stroke-linecap="round"/>
<path d="M23.8369 6.99854C23.7677 6.99854 23.6623 6.89554 23.6316 6.83398C23.6002 6.77116 23.5964 6.70134 23.5964 6.63145C23.5964 6.47395 23.5758 6.31897 23.5584 6.16309" stroke="black" stroke-width="1.03954" stroke-linecap="round"/>
<path d="M17.8414 11.3386C17.8414 13.0278 19.3196 14.4572 21.2199 14.4572C23.1201 14.4572 24.5984 13.0278 24.5984 11.3386C24.5984 9.64942 23.1201 8.21997 21.2199 8.21997C19.3196 8.21997 17.8414 9.64942 17.8414 11.3386Z" stroke="black" stroke-width="1.03954"/>
<path d="M11.0843 11.3386C11.0843 13.0278 12.5625 14.4572 14.4628 14.4572C16.3631 14.4572 17.8413 13.0278 17.8413 11.3386C17.8413 9.64942 16.3631 8.21997 14.4628 8.21997C12.5625 8.21997 11.0843 9.64942 11.0843 11.3386Z" stroke="black" stroke-width="1.03954"/>
<path d="M19.4418 10.7481C19.4722 10.7481 19.5449 10.7315 19.5508 10.7726C19.5583 10.8255 19.6 10.9386 19.5496 10.9782C19.4854 11.0287 19.3933 11.0454 19.3145 11.0297C19.2816 11.0231 19.1569 10.9599 19.2043 10.9072C19.2825 10.8204 19.4302 10.7991 19.5398 10.8166C19.6785 10.8388 19.7961 11.0285 19.6732 11.1325C19.3635 11.3945 19.0931 10.7574 19.4761 10.6501C19.6931 10.5894 19.9095 10.7017 19.9438 10.9244C19.9804 11.1623 19.786 11.1447 19.5961 11.1447" stroke="black" stroke-width="1.03954" stroke-linecap="round"/>
<path d="M16.0702 10.748C16.2346 10.748 16.0783 11.0469 15.8841 10.977C15.7358 10.9236 15.6515 10.7993 15.6515 10.6501C15.6515 10.5211 16.0151 10.5646 16.0788 10.5974C16.1448 10.6315 16.3194 10.8229 16.2318 10.9072C16.1388 10.9967 15.938 11.0436 15.8106 11.0345C15.6734 11.0247 15.6533 10.7068 15.6515 10.6207C15.6492 10.5132 15.6897 10.4895 15.7617 10.4175" stroke="black" stroke-width="1.03954" stroke-linecap="round"/>
<path d="M15.803 10.3372C15.8985 10.3372 15.9786 10.3132 16.0265 10.4117C16.065 10.491 16.0513 10.5855 16.0513 10.6711C16.0513 10.7834 16.0829 10.952 16.0361 11.056C15.9398 11.27 15.705 11.3381 15.4912 11.3305C15.1827 11.3195 15.0223 10.8916 15.1849 10.6476C15.3519 10.3971 15.7165 10.35 15.992 10.3634C16.3065 10.3787 16.5048 10.5847 16.5425 10.8863C16.555 10.9864 16.562 11.1124 16.5425 11.2119C16.5103 11.3756 16.3096 11.3996 16.1741 11.4174C15.8641 11.4582 15.5992 11.3368 15.436 11.0629C15.3322 10.8886 15.3007 10.5472 15.4305 10.3813C15.5532 10.2245 15.8431 10.0894 16.0389 10.191C16.3001 10.3264 16.5526 10.5515 16.5921 10.8587C16.6243 11.1093 16.5852 11.3303 16.3355 11.4423C15.9857 11.5991 15.5717 11.6159 15.4057 11.2008C15.3449 11.0489 15.2772 10.8916 15.3077 10.7235C15.3277 10.6135 15.588 10.4975 15.6788 10.4862" stroke="black" stroke-width="1.03954" stroke-linecap="round"/>
<path d="M19.4784 11.0322C19.3046 11.0322 19.295 11.0184 19.2053 10.8639C19.0627 10.6184 19.2585 10.4673 19.477 10.399C19.8215 10.2913 19.9377 10.645 19.9889 10.908C20.0548 11.2473 20.0763 11.5516 19.6661 11.5978C19.419 11.6257 19.1557 11.4863 19.0866 11.2309C19.019 10.9808 19.0859 10.8039 19.2673 10.6225C19.644 10.2458 20.1767 10.7475 20.1227 11.1798C20.0999 11.3621 19.7422 11.4069 19.6136 11.4419C19.3427 11.5158 19.1032 11.5299 19.0618 11.2143C19.0261 10.9419 19.0749 10.6917 19.1804 10.4417C19.2505 10.2758 19.4712 10.2885 19.6219 10.2872C19.8532 10.2852 20.0122 10.3137 20.2096 10.4362C20.4199 10.5667 20.6275 10.7841 20.5324 11.0556C20.4653 11.2475 20.2634 11.2874 20.1241 11.4047C19.9848 11.522 19.6088 11.4564 19.4536 11.4047" stroke="black" stroke-width="1.03954" stroke-linecap="round"/>
<path d="M25.0797 14.1626C24.9059 14.1626 24.8963 14.1487 24.8066 13.9943C24.6641 13.7488 24.8598 13.5976 25.0784 13.5293C25.4229 13.4217 25.5391 13.7754 25.5902 14.0384C25.6562 14.3777 25.6776 14.682 25.2674 14.7282C25.0203 14.756 24.757 14.6167 24.6879 14.3612C24.6203 14.1111 24.6872 13.9342 24.8687 13.7528C25.2454 13.3761 25.7781 13.8778 25.724 14.3102C25.7012 14.4925 25.3435 14.5372 25.2149 14.5723C24.944 14.6462 24.7045 14.6603 24.6631 14.3447C24.6274 14.0722 24.6762 13.8221 24.7817 13.5721C24.8518 13.4061 25.0726 13.4189 25.2232 13.4176C25.4545 13.4155 25.6135 13.4441 25.8109 13.5666C26.0212 13.6971 26.2288 13.9144 26.1338 14.186C26.0666 14.3779 25.8647 14.4178 25.7254 14.5351C25.5861 14.6524 25.2101 14.5868 25.0549 14.5351" stroke="black" stroke-width="1.03954" stroke-linecap="round"/>
<path d="M10.6561 14.1626C10.8299 14.1626 10.8396 14.1487 10.9293 13.9943C11.0718 13.7488 10.876 13.5976 10.6575 13.5293C10.313 13.4217 10.1968 13.7754 10.1456 14.0384C10.0797 14.3777 10.0582 14.682 10.4685 14.7282C10.7155 14.756 10.9789 14.6167 11.0479 14.3612C11.1155 14.1111 11.0486 13.9342 10.8672 13.7528C10.4905 13.3761 9.95778 13.8778 10.0118 14.3102C10.0346 14.4925 10.3923 14.5372 10.5209 14.5723C10.7918 14.6462 11.0313 14.6603 11.0727 14.3447C11.1085 14.0722 11.0596 13.8221 10.9541 13.5721C10.884 13.4061 10.6633 13.4189 10.5126 13.4176C10.2814 13.4155 10.1223 13.4441 9.92491 13.5666C9.71462 13.6971 9.50703 13.9144 9.60208 14.186C9.66923 14.3779 9.87116 14.4178 10.0104 14.5351C10.1498 14.6524 10.5258 14.5868 10.6809 14.5351" stroke="black" stroke-width="1.03954" stroke-linecap="round"/>
<path d="M17.8681 13.6343C17.6612 13.6343 17.0403 13.6343 17.2472 13.6343C17.4537 13.6343 17.6602 13.6343 17.8666 13.6343C17.925 13.6343 18.3453 13.6453 18.354 13.7153C18.3766 13.8954 18.2363 13.9885 18.1261 14.1472C18.0556 14.2487 17.9843 14.3609 17.9281 14.4711C17.896 14.5341 17.879 14.6192 17.8276 14.6706C17.8019 14.6964 17.5524 14.3046 17.5112 14.2552C17.3949 14.1156 17.3193 13.9526 17.2082 13.8097C17.1696 13.7601 17.1122 13.727 17.1122 13.6613" stroke="black" stroke-width="1.03954" stroke-linecap="round"/>
<path d="M19.7083 15.1289C19.9087 15.1593 19.9531 15.1709 19.9806 15.3563C20.0048 15.5196 20.0212 15.7829 19.9567 15.9359C19.7894 16.3333 19.2961 16.4931 18.9013 16.4931C18.526 16.4931 18.2395 16.347 18.142 15.9626C18.074 15.6942 18.0638 15.413 18.1673 15.1542" stroke="black" stroke-width="1.03954" stroke-linecap="round"/>
<path d="M17.8389 15.1541C17.8389 14.9876 17.8416 15.4872 17.8389 15.6538C17.8332 16.0114 17.4759 16.2327 17.1849 16.3555C16.6394 16.5858 16.1629 16.5737 15.6831 16.2025C15.2528 15.8696 15.1109 15.2044 15.6663 14.9268" stroke="black" stroke-width="1.03954" stroke-linecap="round"/>
<path d="M16.9691 16.709C16.9691 17.7337 16.8196 18.9141 17.4945 19.7758C17.757 20.111 18.2796 20.178 18.6437 19.9564C19.0396 19.7154 19.0825 19.2932 19.1101 18.8662C19.1444 18.3337 19.1147 17.7891 19.1147 17.2552C19.1147 17.0832 19.1711 16.7936 19.073 16.6465" stroke="black" stroke-width="1.03954" stroke-linecap="round"/>
<path d="M26.9457 13.0249C27.8431 12.8753 28.7461 12.1871 29.6123 11.8999C30.8867 11.4774 32.1806 11.4312 33.5081 11.4312" stroke="black" stroke-width="1.03954" stroke-linecap="round"/>
<path d="M28.1644 15.4624C29.8339 15.4624 31.2462 15.5111 32.8518 16.0249" stroke="black" stroke-width="1.03954" stroke-linecap="round"/>
<path d="M9.32104 11.5248C8.25166 10.3625 7.29644 8.83904 5.66487 8.43115" stroke="black" stroke-width="1.03954" stroke-linecap="round"/>
<path d="M8.29004 13.6812L2.76799 13.4176" stroke="black" stroke-width="1.03954" stroke-linecap="round"/>
<path d="M27.6386 22.5014C27.3856 22.5435 27.1248 22.9124 26.9185 23.0812C26.7005 23.2596 26.4707 23.3854 26.2742 23.5929C25.6993 24.1997 24.7983 24.5725 24.0077 24.836C23.7953 24.9068 23.5878 24.9744 23.3748 25.0217C23.0283 25.0987 23.6538 24.7374 23.7348 24.6844C24.1477 24.4145 24.5981 24.296 25.0879 24.169C25.4976 24.0628 25.9645 24.1035 26.3576 23.9871C26.5943 23.9169 26.7267 23.7147 26.9223 23.5626C27.3045 23.2653 27.6476 23.2518 28.1161 23.2518C28.615 23.2518 28.9421 23.3961 29.4123 23.5398C29.8848 23.6842 30.4093 24.0425 30.8488 24.2751C31.4197 24.5774 31.9213 24.99 32.4444 25.3666C33.0294 25.7879 33.4026 26.4804 33.9491 26.9054C34.1129 27.0328 34.2483 27.1629 34.3394 27.3451C34.4274 27.5211 34.5608 28.1003 34.4986 27.9136C34.3472 27.4593 33.8341 26.9626 33.5511 26.5833C33.2425 26.1696 32.9112 25.7763 32.5543 25.4045C32.044 24.873 31.4393 24.3487 30.7768 24.0174C29.9144 23.5862 29.0065 23.4674 28.1161 23.1495C27.8977 23.0714 27.8433 22.9303 27.8433 22.706C27.8433 22.6318 28.0148 22.8168 28.0555 22.8538C28.4458 23.2086 28.8621 23.5471 29.2418 23.9113C30.5427 25.159 31.465 26.8336 32.5581 28.2547C32.7798 28.5429 33.0002 28.9388 33.2631 29.187C33.7964 29.6908 32.5392 27.9082 32.1185 27.3072C31.538 26.478 30.996 25.615 30.4849 24.7413C30.4166 24.6244 29.9666 24.0402 30.303 24.0894C31.8651 24.318 32.8649 26.0345 33.4905 27.3147C33.588 27.5143 33.6541 27.7194 33.7406 27.9211C33.9056 28.3062 33.1348 27.3412 32.8537 27.0305C32.4755 26.6124 32.0517 26.1498 31.7773 25.6509C31.5688 25.2717 32.553 26.4418 32.5619 26.4544C33.114 27.2312 33.6048 28.0419 34.0059 28.9066C34.1518 29.221 34.246 29.4419 33.9225 28.9975C33.2058 28.013 32.4942 27.0252 31.766 26.0489C31.4078 25.5686 31.0674 25.0739 30.7048 24.5973C30.4572 24.272 30.5959 24.6871 30.6441 24.8209C31.1479 26.2186 31.9244 27.5296 32.5202 28.8914C32.7315 29.3745 32.9514 29.8524 33.1873 30.324C33.2413 30.4322 33.4261 30.741 33.3464 30.65C32.5054 29.6889 31.6117 28.7752 30.7768 27.8074C30.4424 27.4199 30.1241 27.0225 29.8217 26.6098C29.7397 26.498 29.571 26.3332 29.5488 26.1853C29.5359 26.0993 29.6306 26.203 29.636 26.208C30.0592 26.6056 30.454 27.039 30.8336 27.4777C31.5807 28.341 32.2956 29.2214 32.9485 30.1573C32.9907 30.2178 33.366 30.7212 33.1418 30.3771C32.0745 28.7394 31.0413 27.0863 30.0567 25.397C29.8215 24.9934 29.5865 24.5927 29.329 24.2031C29.2697 24.1134 29.0788 23.9049 29.0788 23.7748C29.0788 23.6128 29.2876 24.0234 29.3782 24.1576C29.8047 24.7892 30.2223 25.4271 30.629 26.0716C31.2725 27.0917 31.9345 28.1486 32.3724 29.278C32.4965 29.5982 32.4111 29.5782 32.1715 29.3386C31.6705 28.8376 31.2501 28.2601 30.8488 27.6786C30.1869 26.7195 29.5497 25.723 29.0182 24.6844C29.0033 24.6553 28.751 24.1635 28.8363 24.2599C29.1681 24.635 29.4802 25.0334 29.7686 25.4424C30.3917 26.3261 31.0163 27.271 31.44 28.2698C31.6276 28.7118 31.8147 29.1569 31.2808 28.5503C30.5089 27.6731 29.8015 26.7359 29.1698 25.7532C29.0468 25.5619 28.3083 24.3731 28.9272 25.162C29.6244 26.0505 30.2437 27.1156 30.7768 28.1106C30.7859 28.1277 31.1671 28.8953 31.0951 28.8914C30.7677 28.8737 30.2426 28.0464 30.087 27.8529C29.2516 26.8146 28.5451 25.7059 27.8963 24.5442C27.7441 24.2716 27.2371 23.726 27.8395 23.8544C28.5819 24.0126 29.2168 24.6398 29.6549 25.2302C29.7191 25.3167 30.3211 26.0477 30.2158 26.1853C29.9411 26.5446 28.7595 25.5256 28.6126 25.4008C28.4387 25.2529 27.3171 24.4107 27.4491 24.0477C27.5517 23.7656 28.6805 24.2026 28.8211 24.2865C29.299 24.5715 29.8155 25.2726 29.6246 25.8556C29.1487 27.3082 26.6038 26.6924 26.3955 25.3287C26.3481 25.0186 26.4584 24.836 26.8048 24.836C27.5533 24.836 27.9162 25.4084 27.9683 26.0943C28.024 26.8268 27.9476 27.6897 27.3354 28.1864C26.5037 28.8613 25.8029 28.3286 25.592 27.4133C25.4237 26.683 25.0745 24.5932 26.5319 25.0559C27.3708 25.3222 27.1775 27.6868 26.5167 27.3451C26.081 27.1197 26.0764 26.1329 26.0695 25.7229C26.0617 25.2568 26.0108 24.8784 26.5698 24.836C27.7146 24.7493 27.952 26.9218 27.2748 27.5042C26.7793 27.9303 25.9069 28.0586 25.41 27.5725C24.9851 27.1567 24.9469 26.1547 25.122 25.6168C25.1899 25.4083 25.3193 25.2058 25.5237 25.1089C25.7606 24.9967 25.6393 25.4856 25.6299 25.5561C25.5195 26.3841 25.1895 27.1 24.7581 27.8112C24.6502 27.9891 24.272 28.5953 24.0267 28.2395C23.5736 27.5826 23.6818 26.4126 23.6818 25.6395C23.6818 25.5031 23.6818 25.3666 23.6818 25.2302C23.6818 24.8466 24.0729 25.4132 24.1972 25.5258C24.4807 25.7826 24.7325 25.9847 24.8719 26.3521C25.0214 26.7464 24.9665 26.7273 24.9818 26.2763C24.9946 25.8978 25.0425 25.494 25.1296 25.1241C25.2171 24.7523 24.7907 25.8087 24.6141 26.1474C24.4202 26.5194 24.3563 26.9195 24.1934 27.2996C24.0651 27.599 24.0911 26.9316 24.0911 26.8675C24.0911 26.5605 24.0911 26.2535 24.0911 25.9465C24.0911 25.692 23.9766 26.6534 23.9471 26.7765C23.8216 27.2992 23.6557 27.8357 23.4619 28.3381C23.4536 28.3597 23.2491 28.7497 23.2194 28.6792C23.1302 28.4675 23.3472 26.7462 23.5112 26.7462C23.5924 26.7462 23.2078 27.8665 23.1891 27.9211C22.8913 28.7901 22.6613 29.6786 22.4007 30.559C22.3052 30.8817 22.2721 31.3243 22.0596 31.5899C21.7794 31.9402 22.4868 30.7991 22.6585 30.3847C22.9599 29.657 23.2437 28.9052 23.4392 28.141C23.485 27.9619 23.6113 27.4663 23.4998 27.9628C23.2349 29.1431 22.9587 30.3234 22.6736 31.499C22.4208 32.5415 22.2224 33.6406 21.8171 34.6371C21.4163 35.6223 22.6694 32.6674 22.8555 31.6202C22.8714 31.5309 23.0579 30.8607 22.92 31.0934C22.4656 31.8601 22.1828 32.7463 21.7754 33.5418C21.5711 33.9406 21.3669 34.4178 21.0363 34.7357C20.9479 34.8207 21.3175 33.6515 21.3774 33.5077C21.6507 32.8511 21.8688 32.1684 22.1733 31.5255C22.4074 31.0314 22.1941 31.5784 22.1051 31.7605C21.4668 33.0662 20.8252 34.3736 20.0812 35.6226C19.5113 36.5791 20.8097 33.5172 21.2258 32.4844C21.3029 32.2929 21.9421 30.8085 21.4229 31.6581C20.9064 32.5033 20.4171 33.3828 20.013 34.2885C19.6812 35.0322 19.2131 35.7005 18.4591 36.0433C18.0333 36.2368 17.3502 36.0208 16.8976 36.0812C16.5282 36.1304 16.176 36.1456 15.7984 36.1456C15.169 36.1456 16.1877 36.1456 16.3518 36.1456C17.8253 36.1456 19.319 36.2084 20.7824 36.0812C21.6581 36.005 22.5353 35.8727 23.4165 35.8727C24.048 35.8727 24.6327 35.8399 25.2546 35.7363C25.6696 35.6671 26.1329 35.5484 26.5319 35.4103C26.8552 35.2984 27.1879 35.3035 27.5249 35.2435C27.9668 35.165 28.4046 35.0688 28.8363 34.9479C29.2895 34.821 29.7766 34.4223 30.231 34.3718C30.4073 34.3522 30.231 34.0183 30.231 33.9284C30.231 33.8241 30.4959 33.7505 30.6024 33.6896C31.2986 33.2918 31.5282 32.6572 31.4514 31.8704C31.3447 30.7767 30.4764 30.0784 30.0567 29.134C29.8566 28.6839 30.5558 29.2294 30.6403 29.3538C31.1093 30.0443 31.1289 31.0552 31.0193 31.8552C30.9712 32.2063 30.6984 32.9137 30.231 32.8748C29.4883 32.8129 29.617 30.7895 29.617 30.324C29.617 29.9031 29.489 29.0653 30.0263 28.8762C30.6668 28.6509 30.7846 29.9964 30.8147 30.3316C30.8936 31.2119 30.987 32.4821 30.4774 33.2576C30.2466 33.6087 29.7876 33.9251 29.3479 33.8602C28.674 33.7606 28.3936 32.9317 28.245 32.3783C27.899 31.0899 27.6312 29.2939 28.2867 28.0538C28.5019 27.6467 28.9473 27.0555 29.2835 27.6748C29.8743 28.7631 29.779 30.4066 29.6094 31.5899C29.5363 32.0999 29.2277 33.5785 28.5255 33.6972C27.9133 33.8007 28.0728 31.0588 28.1048 30.7144C28.1714 29.997 28.357 29.2651 28.552 28.573C28.6313 28.2917 28.7264 27.9339 28.931 27.7089C29.1721 27.4437 29.4069 27.7971 29.4806 28.0121C29.9471 29.3743 29.7196 31.1864 29.4048 32.5526C29.3456 32.8093 28.8024 34.2822 28.5255 33.4243C28.2921 32.7012 28.323 31.8687 28.3208 31.12C28.3188 30.4089 28.3469 29.7007 28.4573 28.9975C28.4856 28.8166 28.6 27.6478 28.9727 27.6975C29.4413 27.76 29.3355 29.0076 29.3403 29.2818C29.3587 30.3293 29.3345 31.4281 28.9196 32.4086C28.7237 32.8717 28.0668 33.8269 27.6159 33.0377C27.1137 32.159 27.3497 30.9568 27.7485 30.0966C27.9703 29.6182 28.3624 28.7573 28.8628 28.4821C29.3379 28.2207 29.271 29.9102 29.2721 29.9981C29.2886 31.2615 29.2252 32.5532 28.8325 33.7654C28.6737 34.2554 28.4998 34.5182 28.4042 33.8261C28.2369 32.6149 28.3806 31.2927 28.9121 30.18C29.2878 29.3934 29.8823 29.289 29.8823 30.2824C29.8823 31.0017 29.4139 31.6143 28.8893 32.0675C28.7451 32.1921 27.7046 32.8339 27.5855 32.4768C27.2927 31.5984 28.1352 30.5422 28.6468 29.9299C29.1066 29.3794 29.5798 28.9371 30.3295 28.9293C30.9454 28.9229 30.8521 30.1197 30.8374 30.4946C30.7991 31.471 30.4678 32.4832 29.6132 33.0529C29.1982 33.3296 28.5744 33.4586 28.0782 33.4016C27.437 33.3279 27.8305 32.644 28.101 32.3707C28.8239 31.6401 30.44 31.4548 30.2879 32.8748C30.1852 33.8331 29.1497 34.1836 28.3094 34.243C27.3402 34.3115 26.7886 33.6245 26.8465 32.689C26.9134 31.6067 27.7275 30.8886 28.715 30.5742C29.2922 30.3904 30.3158 30.4426 30.6403 31.0517C31.714 33.0673 27.7532 34.116 26.6039 32.9127C25.7339 32.0017 25.7119 30.8631 26.3045 29.8238C26.6885 29.1502 27.3142 28.5209 28.1161 28.3987C28.7097 28.3082 28.8853 28.8594 28.768 29.3614C28.5786 30.1723 27.6224 30.2176 27.0625 29.8086C26.6511 29.5081 26.4015 28.897 26.4864 28.3873C26.5038 28.2828 26.6132 28.2131 26.7176 28.2585C26.9564 28.3623 26.9636 28.843 26.9829 29.043C27.0653 29.8943 27.2004 31.0474 26.9261 31.8704C26.8955 31.9621 26.5932 32.7673 26.4106 32.4237C26.0755 31.7929 26.1947 30.8176 26.2097 30.1345C26.2173 29.7903 26.2406 29.4456 26.3083 29.1074C26.3097 29.1006 26.3965 28.6907 26.4409 28.9066C26.5329 29.353 26.4788 29.857 26.4788 30.3089C26.4788 30.8273 26.4973 31.3522 26.3689 31.859C26.3145 32.0737 26.1602 32.8352 25.8952 32.9316C25.6031 33.0378 25.6096 31.2074 25.6071 31.1124C25.5811 30.1332 25.6345 29.1694 25.6602 28.194C25.6982 26.7478 25.8205 31.1051 25.592 32.5337C25.5482 32.807 25.5234 31.8713 25.5237 31.8401C25.5348 30.8154 25.729 29.8183 25.8118 28.8004C25.8137 28.7767 25.8387 28.3999 25.8345 28.4063C25.6634 28.6674 25.5594 29.0153 25.4404 29.3007C25.0396 30.2615 24.7817 31.2619 24.4853 32.257C24.2346 33.0985 24.3954 31.4793 24.4095 31.317C24.499 30.2828 24.6245 29.2177 24.8036 28.194C24.8806 27.7543 24.7697 28.1102 24.6748 28.3305C24.2969 29.2074 23.8899 30.0746 23.6135 30.9911C23.5533 31.1908 23.4089 31.7909 23.4089 31.5823C23.4089 30.7777 23.572 29.9824 23.6742 29.187C23.716 28.8617 23.7377 28.5338 23.7841 28.2092C23.8085 28.0387 23.8182 27.9595 23.8182 28.2243C23.8182 29.6703 23.6436 31.0994 23.515 32.5374C23.4652 33.0947 23.363 33.6619 23.3407 34.2202C23.3375 34.2991 23.3535 34.0623 23.371 33.9852C23.461 33.5885 23.6671 33.2194 23.9168 32.9013C25.1595 31.3177 27.356 31.3014 28.7529 32.6625C29.0532 32.9551 29.1892 33.1992 28.7301 33.3788C27.3759 33.9088 25.8137 34.083 24.3716 34.152C23.9677 34.1713 23.5629 34.1672 23.1587 34.1672C23.0803 34.1672 22.8527 34.1854 22.9238 34.152C23.0856 34.0758 23.3173 34.0999 23.4847 34.0989C24.1315 34.0953 24.7784 34.0989 25.4252 34.0989C25.9806 34.0989 26.7404 33.9644 27.2823 34.1368C27.4124 34.1782 27.4258 34.2211 27.2672 34.243C26.5436 34.3428 25.8135 34.3989 25.0879 34.4817C23.7651 34.6327 22.4503 34.8304 21.1424 35.0768C20.2834 35.2386 21.2116 35.0794 21.529 34.9707C23.0058 34.4648 24.5276 33.8064 26.1264 33.9663C27.5565 34.1093 23.2725 34.3476 21.8739 34.6788C20.3135 35.0484 25.0847 34.5859 26.6759 34.387C27.0428 34.3411 27.6566 34.1871 28.029 34.3112C28.1973 34.3673 27.7406 34.5264 27.5742 34.5879C26.893 34.8396 26.182 35.0199 25.4858 35.2246C24.4402 35.5321 23.401 35.7754 22.3249 35.9409C22.2674 35.9498 21.5869 36.0091 21.9535 36.0091C22.6579 36.0091 23.3572 35.9921 24.0608 35.9561C24.3012 35.9438 25.3316 36.0252 25.5086 35.7893C25.6281 35.6299 24.4477 35.1771 24.3905 35.1526C23.7517 34.8788 23.1448 34.5348 22.5031 34.2733C22.1615 34.1341 22.6333 34.0587 22.8025 33.9928C23.5061 33.7188 24.2296 33.5106 24.9477 33.2803C25.2006 33.1992 25.4188 33.1439 25.6829 33.1439C26.1376 33.1439 24.7672 33.1139 24.3261 33.0036C24.2673 32.9889 23.2894 32.6283 23.6363 32.5337C24.2342 32.3706 25.0206 32.4162 25.6299 32.4692C25.7413 32.4789 26.3857 32.6176 26.1226 32.7952C25.6142 33.1383 24.9292 33.2783 24.3564 33.4622C23.5512 33.7207 22.7491 33.9903 21.9308 34.2051C21.5549 34.3037 20.4165 34.5083 20.8051 34.5083C21.4482 34.5083 22.0912 34.5083 22.7343 34.5083C24.0937 34.5083 25.4225 34.5977 26.782 34.5765C27.4596 34.5659 28.0951 34.3978 28.7415 34.2089C29.1465 34.0905 29.5197 34.1159 29.7231 33.701C30.1359 32.859 30.3601 31.9863 30.7237 31.1351C31.1947 30.0325 32.299 29.6955 33.4298 29.8086C33.67 29.8326 33.9571 29.975 34.112 30.1687C34.1958 30.2733 33.9998 29.9251 33.9491 29.801C33.7683 29.3592 33.7535 28.7034 34.0514 28.3153C34.1271 28.2166 34.1909 28.0741 34.2902 27.9969C34.3769 27.9295 34.528 27.9431 34.5972 27.8567C34.6952 27.7341 34.8005 28.1861 34.8018 28.2319C34.8197 28.8771 34.8385 29.5321 34.6654 30.1573C34.4386 30.9761 34.3879 31.7988 34.2219 32.6284C34.1591 32.9428 34.1196 33.2408 34.1196 33.5608C34.1196 33.8132 34.1196 33.6828 34.1196 33.5153C34.1196 33.2678 33.9607 32.1057 34.1575 31.9651C34.2287 31.9143 34.5972 33.4518 34.5972 33.6479C34.5972 34.331 34.8018 32.292 34.8018 31.6089C34.8018 31.441 34.7561 30.9719 34.6502 30.8395C34.5171 30.6731 34.2122 30.2665 33.9832 30.2786C33.6399 30.2966 33.3931 31.4898 33.373 31.7415C33.3641 31.8525 33.4195 32.1651 33.354 32.0751C33.2351 31.9115 33.2253 31.4922 33.1797 31.2867C33.1229 31.0311 33.1291 31.054 33.1948 31.2981C33.3189 31.7589 32.8408 31.4344 32.6453 31.2753C32.3028 30.9967 31.5432 30.2981 31.5083 29.8086C31.4992 29.6813 31.7708 29.8622 31.8645 29.9488C32.3065 30.3574 32.6781 30.8476 33.0205 31.3398C33.548 32.098 34.0595 32.8717 34.4456 33.7124C34.5266 33.8889 34.748 34.2636 34.3622 34.1217C33.6889 33.8742 33.1323 33.2186 32.7931 32.6019C32.5086 32.0846 33.0094 32.1087 33.3843 32.3555C33.7046 32.5663 33.9783 32.8994 34.1044 33.2651C34.2019 33.5478 33.4587 33.3935 33.354 33.3713C32.7687 33.2471 32.2675 32.9459 31.91 32.4692C31.8673 32.4123 31.4694 31.9454 31.675 31.9197C32.458 31.8218 33.181 32.782 33.5587 33.3485C33.6179 33.4374 33.7149 33.7506 33.6307 33.8488C33.5051 33.9953 32.7479 33.1379 32.6642 33.0491C32.6216 33.0039 32.1539 32.401 32.2473 32.401C32.4239 32.401 32.3722 32.5072 32.2132 32.2191C32.0932 32.0016 31.7347 31.2194 32.2246 31.6885C32.9601 32.3927 33.7302 33.1072 34.1499 34.061C34.2999 34.402 34.3548 34.5221 34.1878 34.8873C34.0057 35.2858 33.4007 34.8354 33.1645 34.6599C32.7747 34.3703 32.5014 33.9223 32.1488 33.5949C31.8648 33.3312 32.068 33.4394 32.2776 33.5532C32.798 33.8357 33.4488 34.6447 33.5776 35.2246C33.6097 35.3689 33.7503 35.5998 33.5056 35.5998C32.8745 35.5998 32.4055 35.4075 32.0048 34.9176C31.8934 34.7815 30.4442 32.9072 30.7768 32.7497C30.9874 32.6499 31.6658 32.6787 31.7319 32.943C31.8321 33.3438 31.8001 33.7559 31.8001 34.1672C31.8001 34.5892 31.9158 34.9267 32.0048 35.3269C32.0788 35.6601 32.2619 35.6624 32.5164 35.8386C32.7038 35.9683 32.8863 36.1073 33.0129 36.2972C33.0243 36.3143 32.1174 36.3502 32.0123 36.3502C31.0774 36.3502 30.7074 36.1883 30.5039 35.1829C30.4773 35.0514 30.1899 34.2354 30.4698 34.2354C30.7021 34.2354 30.8841 34.3148 30.9663 34.5613C31.095 34.9476 31.1179 35.494 31.1179 35.9068C31.1179 36.0017 31.2248 36.2761 31.1179 36.282C30.9135 36.2934 30.7049 36.282 30.5001 36.282C30.0431 36.282 29.4213 36.3953 28.9879 36.2669C28.4938 36.1205 27.8505 36.2138 27.3354 36.2138C26.7315 36.2138 26.1276 36.2138 25.5237 36.2138C24.1476 36.2138 22.8107 36.4867 21.4305 36.4867C21.1007 36.4867 20.771 36.4867 20.4413 36.4867C20.276 36.4867 20.8479 36.3502 20.9681 36.3502C22.0411 36.3502 23.0965 36.433 24.1593 36.5511C25.5912 36.7102 27.1396 36.5549 28.5785 36.5549C29.1636 36.5549 29.7962 36.618 30.3295 36.3654C30.4875 36.2906 30.8875 36.2369 30.5645 36.0395C29.9277 35.6503 29.1252 35.4624 28.4383 35.1602C28.3884 35.1382 28.0731 35.0592 28.1465 34.9858C28.3404 34.7919 28.7393 34.7682 28.9879 34.7129C29.1079 34.6863 30.4507 34.4159 30.1931 34.747C29.9568 35.0508 29.3851 35.2213 29.0485 35.3648C28.1537 35.7463 27.2038 36.1572 26.2363 36.3199C25.7559 36.4007 24.983 36.5495 24.7885 36.0243C24.583 35.4696 23.8351 34.9631 23.3141 34.7508C22.9844 34.6165 22.6518 34.6447 22.3022 34.6447C22.0955 34.6447 21.8828 34.6306 21.6768 34.6485C21.4882 34.6649 21.5215 34.8133 21.5707 34.7395C22.0026 34.0916 22.5487 33.4947 23.1284 32.9771C23.6565 32.5056 23.3135 32.8722 22.9692 33.0074C21.8355 33.4528 21.3248 34.4226 20.8885 35.4861C20.6786 35.9978 20.4062 36.0364 19.9448 36.2972C19.6034 36.4901 19.3552 36.6231 18.9593 36.6231C18.194 36.6231 17.4239 36.5097 16.6891 36.3465C15.954 36.1831 15.0998 36.282 14.3355 36.282C13.3552 36.282 12.4065 36.0774 11.4058 36.0774C10.8704 36.0774 10.2281 36.055 9.72675 35.8727C9.19083 35.6778 8.98048 35.2921 8.80956 34.7508C8.51102 33.8055 8.45949 32.7499 8.3737 31.7681C8.29766 30.8979 8.26379 30.0113 8.26379 29.1378C8.26379 27.9777 8.39377 26.9802 8.70723 25.8518C8.83182 25.4032 9.93548 25.361 10.2953 25.2454C10.6106 25.144 10.9997 24.858 11.3337 24.8209C12.0004 24.7468 11.1805 24.4115 10.8903 24.4115C10.2939 24.4115 9.60226 23.9003 9.14687 23.5588C8.65637 23.1909 8.14376 22.8522 7.71802 22.4028C7.63127 22.3112 7.58969 22.2557 7.47924 22.1944C7.3586 22.1273 7.36298 22.2753 7.267 22.327C6.94363 22.5011 6.5469 22.4776 6.23231 22.6757C5.96853 22.8418 5.63747 22.9378 5.40229 23.1495C5.06515 23.4529 4.84047 23.7607 4.54573 24.1008C4.32518 24.3552 4.42491 24.4832 4.22358 24.4798C3.70834 24.471 3.36634 24.3232 2.90843 24.6124C2.41559 24.9237 2.17328 25.3256 1.851 25.7911C1.70287 26.0051 1.57192 26.2176 1.41135 26.4241C1.33097 26.5274 1.01996 27.221 1.30523 26.9357C1.81155 26.4294 2.38802 25.9706 2.86674 25.4387C3.14388 25.1307 3.43515 24.6394 3.86352 24.5442C3.95921 24.5229 3.99768 24.417 4.1023 24.4115C4.2796 24.4022 4.45412 24.456 4.62533 24.4949C5.1234 24.6081 5.51676 24.7526 6.04281 24.7526C6.90189 24.7526 7.76097 24.7526 8.62005 24.7526C9.21258 24.7526 9.66081 25.162 10.2422 25.162C10.7726 25.162 11.1693 25.8341 11.4361 26.2194C11.6943 26.5924 11.9326 26.9546 12.0311 27.3981C12.1065 27.7374 12.2139 28.2757 12.3874 28.573C12.5284 28.8148 12.7456 29.3313 12.7664 29.6115C12.7925 29.9646 13.0314 30.2534 13.1227 30.5818C13.3528 31.4102 13.9692 32.1149 14.1156 32.9771C14.1737 33.3191 14.28 34.8494 14.7789 34.8494C15.1002 34.8494 14.6845 34.8817 14.6235 34.8342C14.5866 34.8055 14.7114 35.1017 14.7448 35.1602C14.8041 35.2639 14.893 35.513 14.9646 35.5847C15.0181 35.6382 15.1043 35.4123 14.813 35.3951C14.5603 35.3803 14.4576 34.1149 14.199 33.8564C14.0064 33.6638 14.2059 34.1929 14.2673 34.2695C14.377 34.4067 14.4258 34.4989 14.5742 34.6144C14.7397 34.7431 14.9397 34.9359 15.0328 35.1223C15.0522 35.1609 15.2543 35.5541 15.2186 35.3572C15.1696 35.088 14.8589 34.827 14.6766 34.6447C14.423 34.3911 14.2235 34.1485 14.0171 33.8488C13.5144 33.1186 13.0367 32.4476 12.4556 31.7718C11.5117 30.6743 10.7964 29.332 10.1891 28.0273C9.83117 27.2582 9.45934 26.5024 9.08623 25.7419C8.9888 25.5432 8.89077 25.2406 8.70723 25.0938C8.62941 25.0315 8.78652 25.0124 8.84367 25.1013C9.13481 25.5542 9.38914 26.0341 9.68127 26.4885C10.2078 27.3075 10.6636 28.1688 11.1973 28.9824C11.4796 29.4126 11.8403 29.8257 12.0842 30.2786C12.2468 30.5805 12.2164 30.4031 12.0652 30.1914C11.5231 29.4324 11.1185 28.5981 10.7652 27.7354C10.4704 27.0156 9.57859 24.8902 10.0375 25.5182C10.233 25.7857 10.5407 26.2748 10.9244 26.2535C11.0708 26.2454 11.0945 26.0664 11.1291 25.9541C11.1675 25.8291 11.2738 25.8623 11.3679 25.8101C11.5306 25.7197 11.7308 25.7035 11.8795 25.5713C11.9644 25.4959 12.0774 25.4665 11.8947 25.4008C11.5179 25.2651 11.1153 25.2161 10.7273 25.1279C10.2627 25.0223 9.95136 24.7388 9.52209 24.548C9.02166 24.3256 8.50971 24.1342 8.12735 23.7293C7.90126 23.49 7.79988 23.3687 7.4186 23.3238C7.07312 23.2831 7.29528 23.6314 7.42997 23.7293C8.09217 24.2109 8.64994 24.8778 9.20372 25.4728C9.93031 26.2534 10.6674 27.0824 11.1973 28.0121C11.5465 28.6247 11.7501 29.1772 11.9098 29.8617C11.9582 30.0688 11.9259 30.2763 11.9629 30.4832C12.0418 30.9252 12.2322 31.3161 12.448 31.7036C12.7236 32.1985 12.9849 32.6447 13.3084 33.1097C13.4206 33.2711 13.838 33.6877 13.7253 33.5266C13.5452 33.2693 13.249 33.0542 13.0355 32.8255C12.6009 32.3599 12.1871 31.8741 11.7658 31.3966C11.3854 30.9655 10.9458 30.5632 10.5985 30.1042C10.4766 29.9432 10.73 30.141 10.7425 30.1497C11.0531 30.3664 11.3617 30.5906 11.6597 30.8243C12.0253 31.1112 12.4109 31.4675 12.6527 31.8704C12.7785 32.0801 12.7577 32.1986 12.4783 32.0447C11.6385 31.582 10.7822 30.8801 10.1512 30.1573C10.1172 30.1183 9.50751 29.3935 9.65853 29.3386C10.0479 29.197 10.6171 29.6951 10.8638 29.9223C11.3249 30.3472 11.6074 30.9562 11.9023 31.499C11.9291 31.5484 12.1813 32.1062 11.9705 31.8552C11.2849 31.0391 10.7792 29.9065 10.3597 28.9369C10.1349 28.4174 9.95842 27.8809 9.77981 27.3451C9.72697 27.1865 10.482 27.4948 10.5151 27.5118C11.1231 27.8242 11.6528 28.2792 12.0804 28.808C12.2612 29.0317 12.4718 29.4673 12.7247 29.6191C12.812 29.6715 12.6284 29.4393 12.5731 29.3538C12.3128 28.9507 12.0751 28.5341 11.8568 28.1069C11.5633 27.5324 11.3854 26.9103 11.0988 26.3369C10.9787 26.0967 10.988 26.3761 11.0078 26.4885C11.0906 26.9577 11.4164 27.4173 11.599 27.8529C11.8984 28.567 12.1527 29.2961 12.4897 29.9943C12.7567 30.5474 13.1037 31.0716 13.3122 31.6506C13.5284 32.2513 13.6771 32.8421 13.9261 33.4319C14.1177 33.8855 14.3231 34.3167 14.4871 34.7812C14.5142 34.8581 13.8734 34.2889 13.82 34.2164C13.2769 33.4786 12.8028 32.6687 12.3267 31.8856C12.2444 31.7501 11.8816 31.3038 12.1448 31.7188C12.6677 32.5434 13.1185 33.4191 13.5623 34.2885C13.6554 34.4708 13.9868 34.8681 13.9868 35.0806C13.9868 35.2655 13.6387 34.9502 13.4789 34.857C12.9564 34.5522 12.4493 34.2237 11.9629 33.864C11.6292 33.6171 10.8754 33.1887 10.697 32.7724C10.6911 32.7587 11.5949 33.1048 11.6711 33.1476C11.8759 33.2628 12.0718 33.3931 12.2813 33.5001C12.4443 33.5834 12.8956 33.6059 12.774 33.7427C12.6855 33.8422 11.9181 33.6524 11.8113 33.6366C11.3962 33.575 10.9891 33.485 10.5833 33.3788C10.4353 33.3401 10.2757 33.3057 10.1323 33.25C9.9837 33.1922 10.4404 33.3386 10.5833 33.4092C11.5356 33.8793 12.5049 34.4393 13.3728 35.054C13.3801 35.0593 13.8863 35.3992 13.8428 35.4482C13.7972 35.4994 13.4737 35.4634 13.4562 35.4634C12.972 35.4634 12.4843 35.4795 12.0008 35.4482C11.6779 35.4273 10.771 35.4644 10.5454 35.1905C10.4559 35.0818 10.8215 35.1223 10.9623 35.1223C11.3604 35.1223 11.7551 35.1321 12.1448 35.2208C12.4834 35.2979 14.1448 35.7363 12.8611 35.7363C12.3697 35.7363 11.8782 35.7363 11.3868 35.7363C11.0673 35.7363 11.0333 35.7363 11.3792 35.7363C11.9286 35.7363 12.5797 35.7975 13.0696 36.0774C13.307 36.213 12.9642 36.3961 12.8725 36.4223C12.6783 36.4778 13.0296 36.732 13.0923 36.6762C13.1527 36.6226 13.1635 36.5244 13.1795 36.4526C13.2055 36.3355 13.3315 36.3622 13.4145 36.3161C13.6283 36.1973 14.3181 36.282 13.5623 36.282C12.9842 36.282 12.4044 36.2952 11.8264 36.282C11.5525 36.2758 11.3328 36.1456 11.0609 36.1456C10.6238 36.1456 10.1959 36.0893 9.76465 36.0774C9.42541 36.0679 9.08451 36.0774 8.74513 36.0774C8.53217 36.0774 7.64855 36.1083 8.34338 36.0736C9.01957 36.0398 9.71081 35.8373 10.3938 35.9561C10.6846 36.0067 10.9464 36.1543 11.2314 36.2176C11.3925 36.2534 11.5135 36.4315 11.6218 36.5397C11.9426 36.8605 11.3305 36.7774 11.1291 36.7444C10.5445 36.6487 9.99986 36.3502 9.40839 36.3502C8.91208 36.3502 8.34712 36.2837 7.85446 36.354C7.37252 36.4229 6.88804 36.4826 6.42182 36.3161C6.20159 36.2375 5.83607 36.2254 5.60316 36.2138C5.38595 36.2029 5.1925 36.0887 4.98917 36.0774C4.83501 36.0688 4.62808 36.0477 4.47751 36.0812C4.28781 36.1233 4.77073 36.2138 4.85273 36.2138C5.03416 36.2138 5.20868 36.2979 5.36439 36.3844C5.53528 36.4793 6.26974 36.6914 5.66759 36.6914C4.98623 36.6914 4.58703 36.3235 4.03408 36.047C3.46744 35.7637 2.90724 35.4659 2.38161 35.1223C1.89847 34.8064 1.98744 34.3259 1.98744 33.7882C1.98744 32.8058 1.95507 31.8633 1.84721 30.8926C1.76314 30.1359 1.78278 29.3721 1.78278 28.6071C1.78278 27.8914 1.78702 27.4177 2.10872 26.7614C2.25027 26.4726 2.43038 26.4048 2.65449 26.2042C2.93501 25.9533 3.21742 25.729 3.54895 25.5486C3.87155 25.373 4.22718 25.3105 4.52678 25.0938C4.64022 25.0117 5.59839 24.6326 5.56147 24.6162C5.04045 24.3846 5.65423 24.0188 5.91774 23.8658C6.21186 23.695 7.1497 23.3243 7.41481 23.7142C7.61273 24.0052 6.96555 23.9479 6.83114 23.8999C6.79663 23.8876 6.60949 23.8198 6.70986 23.7445C6.90712 23.5965 7.42687 23.8295 7.58916 23.9188C7.96279 24.1245 9.27767 25.88 8.07428 25.6092C7.89201 25.5682 7.32385 25.3434 7.32385 25.1013C7.32385 24.7924 8.36136 25.8149 8.39644 25.8593C8.87533 26.4659 9.36989 27.2436 9.52967 28.0121C9.62906 28.4901 9.42223 28.6343 8.99906 28.3381C8.20802 27.7843 7.55987 26.9965 7.05855 26.1777C6.9127 25.9395 6.60887 25.4562 7.05097 25.9465C7.99202 26.9902 8.68502 28.2122 9.28711 29.4751C9.40087 29.7137 9.49189 29.9569 9.55241 30.2141C9.56313 30.2597 9.24171 29.6416 9.23784 29.6343C8.69609 28.6121 8.26832 27.5421 7.79382 26.4885C7.69269 26.2639 7.57628 26.0406 7.49819 25.8063C7.43455 25.6154 7.74773 26.1222 7.8772 26.2763C9.58273 28.3058 11.209 30.5977 12.2017 33.0794C12.218 33.1203 12.2342 33.2012 12.16 33.1363C11.8239 32.8422 11.5912 32.3748 11.402 31.9841C10.7428 30.6232 10.4256 29.1365 9.81014 27.762C9.80194 27.7437 9.5347 27.1716 9.71917 27.5952C10.0136 28.2713 10.3363 28.9345 10.6288 29.6115C10.9227 30.2917 11.2106 30.9762 11.4626 31.6733C11.5635 31.9525 11.7901 32.3487 11.7961 32.6511C11.7989 32.7889 11.5121 32.6877 11.383 32.6398C10.8055 32.4253 10.4346 31.9281 10.0451 31.4762C9.44503 30.7799 9.01785 30.1248 8.65416 29.2856C8.64599 29.2667 8.65346 29.2083 8.66554 29.2249C8.94577 29.6112 9.13459 30.0854 9.31743 30.5211C9.83728 31.7601 10.1464 33.018 10.3483 34.3415C10.4637 35.0976 10.1808 33.7026 10.1702 33.6328C9.96124 32.2537 9.81273 30.8512 9.76844 29.4561C9.76755 29.4278 9.72274 28.8867 9.81392 29.2515C9.96806 29.868 10.1256 30.4836 10.2763 31.101C10.51 32.0586 10.9244 33.1206 10.9244 34.1179C10.9244 34.5338 10.625 33.3383 10.5378 32.9316C10.3862 32.2242 10.2179 31.4998 10.2422 30.7713C10.251 30.5078 10.8616 31.1208 10.8827 31.1427C11.4142 31.6928 11.7528 32.5026 11.8795 33.25C11.9317 33.5579 12.0458 33.9634 11.6748 34.0989C11.3157 34.2302 10.9653 34.1929 10.788 33.8185C10.4942 33.1983 10.41 32.4473 10.3256 31.7718C10.2751 31.3682 10.4627 31.5807 10.6591 31.8022C11.3227 32.5505 11.7541 33.5278 12.088 34.4628C12.1649 34.6782 12.3993 35.4406 11.9515 35.4406C11.0985 35.4406 10.4571 34.5355 10.1133 33.8715C9.52538 32.7362 9.3679 31.3376 9.16582 30.0891C9.15 29.9913 8.96141 28.7556 9.06349 29.3917C9.31392 30.9521 9.43427 32.5156 9.52588 34.0914C9.52961 34.1555 9.56556 35.007 9.51072 34.91C9.00332 34.0123 8.93953 32.8866 8.78303 31.8931C8.68796 31.2896 8.60489 30.7 8.60489 30.0891C8.60489 29.7158 8.75776 30.8202 8.85504 31.1806C9.06032 31.9411 9.1965 32.6976 9.32122 33.4736C9.35098 33.6588 9.56118 34.3671 9.19993 33.9208C8.00473 32.4444 8.08337 30.385 7.8393 28.6034C7.77196 28.1118 7.67835 28.6476 7.66496 28.8232C7.5674 30.1023 7.43005 31.3792 7.33901 32.6587C7.29764 33.2403 7.30869 33.8234 7.30869 34.4059C7.30869 34.6631 7.26063 34.9743 7.3428 35.2208C7.36018 35.2729 7.3571 35.4896 7.44514 35.4482C7.63602 35.3584 7.71379 35.3322 7.94542 35.3269C8.71363 35.3095 8.1128 32.9901 7.9909 32.6549C7.89166 32.382 7.79164 32.0072 7.54747 31.8173C7.31938 31.6399 7.49242 32.0026 7.51715 32.0675C7.72596 32.6156 7.82985 33.2029 7.92268 33.7806C7.94465 33.9173 8.14696 34.6604 7.84688 34.531C7.49916 34.3811 7.21763 34.1321 6.84251 34.0383C6.78654 34.0243 6.34854 33.8829 6.4294 34.0648C6.54544 34.3259 7.16871 34.3158 7.22531 34.6978C7.26097 34.9385 5.24335 34.917 5.08772 34.9176C4.47836 34.9199 2.65302 34.807 3.2609 34.8494C3.80645 34.8874 4.36962 35.1937 4.83757 35.4558C5.04418 35.5715 5.56007 35.7176 5.69792 35.9106C5.81387 36.0729 4.96828 35.8605 4.95885 35.8575C4.59527 35.7442 4.24324 35.5997 3.88247 35.4785C3.76278 35.4383 3.33801 35.3849 3.2609 35.2587C3.2527 35.2453 4.48201 35.191 4.60638 35.2019C5.17266 35.2511 5.70888 35.4915 6.26642 35.596C6.44497 35.6295 6.77684 35.7423 6.37255 35.6453C5.42153 35.4171 4.52918 34.8514 3.65886 34.4249C3.24427 34.2217 2.77065 34.0771 2.38161 33.8261C2.09065 33.6383 2.60651 33.6885 2.71513 33.6896C3.46187 33.6971 4.17487 33.8523 4.89821 34.0269C5.16163 34.0905 5.40979 34.1747 5.65243 34.296C5.73458 34.3371 5.92132 34.4693 6.02007 34.4552C6.16249 34.4349 5.87227 34.2083 5.80025 34.0838C5.419 33.4245 5.11328 32.7234 4.83757 32.0144C4.65237 31.5382 4.37518 30.9001 4.37518 30.3771C4.37518 30.1753 4.67325 30.1651 4.82241 30.2103C5.11573 30.2994 5.24841 30.9376 5.33786 31.173C5.4888 31.5704 5.58634 31.9625 5.67138 32.3783C5.7344 32.6863 5.99043 33.9945 5.83815 32.8748C5.59774 31.1071 5.64125 29.2813 5.67518 27.5004C5.68195 27.1448 5.82383 26.1895 5.86089 27.1859C5.92976 29.0377 5.92945 30.9212 5.86089 32.7724C5.85565 32.9137 5.74784 33.7069 5.74339 33.6669C5.69214 33.2056 5.78234 32.6687 5.81541 32.2153C5.8957 31.1142 6.03018 30.0225 6.18304 28.9293C6.2965 28.1179 6.41904 27.3085 6.55068 26.4999C6.57651 26.3412 6.57613 26.0675 6.66438 25.9162C6.74705 25.7745 6.85846 27.0968 6.86526 27.201C6.99112 29.1309 7.02656 31.0737 7.03581 33.0074C7.03881 33.6344 7.06232 35.5129 7.10403 34.8873C7.19359 33.5439 7.10403 32.1618 7.10403 30.8168C7.10403 29.5774 7.10403 28.3381 7.10403 27.0987C7.10403 26.5865 7.02094 28.1208 6.93727 28.6261C6.66954 30.2428 6.43061 31.8362 6.23231 33.4622C6.19119 33.7994 6.21556 34.8111 6.14893 34.478C5.9121 33.2938 6.08071 31.949 6.08071 30.7485C6.08071 30.2748 6.08071 29.801 6.08071 29.3273C6.08071 29.191 6.00597 28.6752 6.11861 28.5465C6.1551 28.5048 6.17536 28.6439 6.18683 28.6981C6.22783 28.8919 6.27347 29.2267 6.29674 29.3955C6.44101 30.4414 6.55885 31.4908 6.72502 32.5337C6.75163 32.7006 7.34003 35.8045 7.17225 35.8045C6.88435 35.8045 6.25804 35.2302 6.36497 35.4975C6.41743 35.6286 6.91686 35.7985 7.03581 35.8348C7.11981 35.8605 7.8073 36.0091 7.45272 36.0091C6.09145 36.0091 4.71252 35.8695 3.36702 35.6832C2.97431 35.6288 2.58327 35.7105 2.26791 35.3951C2.06814 35.1954 2.05566 34.9601 2.05566 34.6978C2.05566 34.0735 2.47984 34.5674 2.66965 34.8494C2.73752 34.9502 2.80519 35.0546 2.87053 35.1526C2.89926 35.1957 2.87386 35.0489 2.87053 34.9972C2.84628 34.6214 2.79742 34.2475 2.77198 33.8715C2.68908 32.6464 2.66432 31.4227 2.66965 30.1952C2.67231 29.5837 2.8329 29.022 2.87432 28.4214C2.90665 27.9526 2.87432 29.3614 2.87432 29.8313C2.87432 30.4274 2.97999 31.1355 2.84021 31.7226C2.82078 31.8042 2.71061 31.9287 2.66586 31.787C2.44983 31.1029 2.47257 30.3184 2.47257 29.6115C2.47257 28.6995 2.48804 27.194 3.1851 26.4582C3.38482 26.2474 3.86193 26.0467 4.1402 25.9465C4.45434 25.8334 7.41819 24.2408 7.44514 24.7526C7.47713 25.3606 6.87201 25.5093 6.36875 25.7002C5.92445 25.8687 5.48417 26.0766 5.05739 26.2687C4.61051 26.4698 4.33586 26.81 4.0644 27.2048C3.83127 27.5439 3.46886 27.7738 3.18131 28.0614C2.99679 28.2459 3.19114 27.9613 3.23058 27.8984C3.46115 27.5306 3.69817 27.168 3.95069 26.8144C3.97238 26.7841 4.26955 26.3852 4.19705 26.4013C3.94946 26.4563 3.74785 26.9292 3.62475 27.1139C3.38012 27.4808 3.24944 27.9444 3.17752 28.376C3.17045 28.4184 3.08002 29.0025 3.16236 29.0354C3.32023 29.0986 4.24662 26.6606 4.42824 26.3672C4.5482 26.1734 4.57985 26.3009 4.57985 26.4544C4.57985 27.7787 4.0603 29.1465 3.74224 30.4188C3.52468 31.289 3.37456 32.1709 3.17752 33.0453C2.94841 34.062 3.81403 31.0602 4.1023 30.0587C4.38859 29.0641 4.59438 28.0529 4.81104 27.0418C4.83477 26.9311 4.85273 26.5301 4.85273 26.8599C4.85273 27.9412 4.64192 28.985 4.5192 30.0587C4.3537 31.5069 4.2338 32.9787 4.17431 34.4363C4.16137 34.7532 4.16082 34.7827 4.17052 34.4401C4.21796 32.7639 4.59404 31.1113 4.84515 29.4599C4.96673 28.6604 5.01249 27.8755 5.06118 27.0722C5.08552 26.6706 5.22636 27.5922 5.23174 27.6445C5.3543 28.8351 5.31793 30.0327 5.3985 31.2261C5.42098 31.5591 5.62328 32.3116 5.45156 32.636C5.41268 32.7094 5.25687 32.7582 5.19384 32.871C5.12887 32.9872 4.98798 33.16 4.85273 33.1969C3.98194 33.4344 3.96317 29.9454 3.93553 29.5812C3.87511 28.7847 3.82941 27.992 3.82941 27.1935C3.82941 26.9998 3.77577 26.6408 3.9128 26.4733C4.29109 26.011 4.51533 25.4621 5.02707 25.09C5.42567 24.8001 5.94626 24.396 6.20957 23.9681C6.3441 23.7495 6.52175 23.5727 6.70986 23.4034C6.78377 23.3369 6.86727 23.2948 6.93347 23.2139C7.02156 23.1062 7.0684 22.7557 7.20257 22.7174C7.29939 22.6897 7.16842 23.1292 7.15709 23.1532C6.99939 23.4876 6.8524 23.7954 6.76292 24.1614C6.35758 25.8196 6.45895 27.7323 7.32385 29.2249C7.79779 30.0429 8.50384 30.6934 9.11655 31.4004C9.32535 31.6413 9.64172 31.7929 9.87077 32.022C10.6344 32.7856 11.4221 33.6355 12.3912 34.1331C13.0216 34.4568 13.9543 34.8531 14.2331 35.5657C14.6016 36.5072 15.6786 36.6697 16.5792 36.8126C17.0911 36.8939 17.5387 36.9642 18.0573 36.9642C18.3024 36.9642 18.5475 36.9642 18.7926 36.9642C19.1556 36.9642 19.4264 36.8132 19.7628 36.6914C20.4053 36.4587 20.8937 36.0502 21.4267 35.6415C21.9904 35.2093 22.7238 34.8942 23.4203 34.7508C23.9036 34.6513 24.4831 34.6869 24.978 34.7129C26.3204 34.7836 22.2936 34.8784 20.9567 35.0199C19.7593 35.1467 18.4563 35.0156 17.2841 35.3269C16.8999 35.429 16.4967 35.4257 16.1168 35.5316C15.9098 35.5893 15.7879 35.668 15.5635 35.668C14.7279 35.668 14.4052 34.6863 14.1308 34.0156C13.9977 33.6901 13.8447 33.3527 13.7594 33.0112C13.719 32.8497 13.9864 33.007 14.0285 33.0491C14.1977 33.2184 14.3674 33.388 14.5363 33.557C14.8835 33.9041 15.4193 34.2104 15.6658 34.6485C15.8536 34.9824 16.2601 35.3 16.5868 35.4634" stroke="black" stroke-width="1.03954" stroke-linecap="round"/>
</svg>
