<svg width="36" height="38" viewBox="0 0 36 38" fill="none" xmlns="http://www.w3.org/2000/svg">
<rect x="-0.519772" y="0.519772" width="34.305" height="35.8643" rx="4.67795" transform="matrix(-1 0 0 1 34.3049 0.750488)" fill="#F4FF95" stroke="black" stroke-width="1.03954"/>
<path d="M3.1811 19.6423C3.65146 20.2692 4.68811 20.1472 5.49742 20.1472C5.58094 20.2781 6.08478 20.2546 6.84382 20.1641C7.87129 20.0416 8.07787 19.9743 8.3619 19.9743C9.84477 19.9743 9.4706 19.7251 10.9528 20.0981C12.5042 20.4885 13.8253 19.7972 17.1058 19.6423C19.5578 19.0255 19.9373 18.7673 21.6452 18.0767C23.7128 17.2406 24.1755 19.1493 22.9235 20.0981C21.4648 21.2035 21.4554 21.1129 20.9336 21.4924C20.1796 22.0407 20.0985 21.8601 20.227 22.0617C20.4623 22.4306 20.7948 22.7115 20.9336 23.1345C21.1032 23.6517 21.4909 24.1486 21.8011 24.6175C22.2621 25.3146 22.7739 25.9809 23.2499 26.6684C23.5146 27.0507 23.9449 27.4069 23.9743 27.8674C23.9912 28.1323 24.2767 27.8209 24.3767 27.7272C24.7401 27.3869 23.8865 27.7916 24.3767 27.5754C25.478 27.0898 26.6482 26.6027 27.6947 26.0469C28.3339 25.7074 29.0234 25.4514 29.6444 25.0862C29.9428 24.9107 28.7876 25.4039 27.8349 25.8282C28.298 25.5697 28.7976 25.2649 29.2699 24.9867C29.0423 25.15 29.1098 25.1562 29.2937 25.0928C29.2195 25.1462 29.1496 25.1957 29.0851 25.2365C28.8169 25.4061 29.1307 25.2359 29.5538 24.9911C29.9421 24.8274 30.4439 24.5774 30.3729 24.5774C30.3248 24.5774 30.2767 24.582 30.2286 24.5906C30.6304 24.3445 30.904 24.1576 30.6055 24.2787C30.242 24.4263 29.7713 24.6915 29.2699 24.9867C29.4284 24.8731 29.7298 24.6834 30.2343 24.3881C29.0374 23.1716 27.8012 21.9959 26.6928 20.728C26.0977 20.0473 25.6347 19.2844 25.1992 18.5333C25.1099 18.3792 25.0281 18.2286 24.9609 18.0767C24.7711 15.9893 23.8517 14.5845 22.9235 14.1802C22.0469 13.7984 21.0871 13.5426 20.227 13.1425C19.5412 12.8234 18.8227 12.5063 18.1701 12.1468C18.1528 12.1373 17.8213 11.9309 17.8213 12.0381C17.8213 12.1545 16.7129 12.1237 16.5066 12.1468C14.5503 12.3659 12.4081 12.3259 10.4609 12.0206C9.7086 11.9026 6.23692 14.8069 5.49742 14.6781C5.46908 14.6731 5.5355 14.7254 5.66387 14.8143C4.82944 15.3257 3.99743 16.0802 3.28395 17.339C3.12592 17.5582 2.73316 17.8495 2.68475 18.0962C2.63871 18.3308 2.7038 18.5605 2.75629 18.7869C2.82793 19.0958 2.97343 19.3655 3.1811 19.6423Z" fill="black" stroke="black" stroke-width="0.759044" stroke-linecap="round"/>
<path d="M10.6392 12.0689C10.6392 11.8731 10.5047 11.7012 10.3741 11.5569C10.1089 11.2639 9.76435 11.0526 9.36929 10.956C9.1443 10.901 8.91671 10.8645 8.68397 10.8652C8.4522 10.8659 8.25509 10.9457 8.05911 11.0601C7.77594 11.2255 7.54074 11.4971 7.41208 11.7871C7.23715 12.1814 7.18696 12.6269 7.24882 13.049C7.27185 13.2062 7.31624 13.3885 7.41007 13.5219" stroke="black" stroke-width="0.759044" stroke-linecap="round"/>
<path d="M19.7796 13.6312C19.8076 13.6673 19.8047 13.6285 19.7942 13.5879C20.0069 12.9565 19.8732 13.4998 20.0202 13.067C20.1625 12.6484 20.1656 12.0932 20.013 11.6786C19.7735 11.0282 19.1504 10.3668 18.4815 10.193C17.2552 9.87426 15.8774 10.4621 15.1884 11.5253C14.8934 11.9804 14.7924 12.4841 14.8176 13.0271C14.8411 13.5313 14.9421 14.0483 15.2514 14.4542C15.5288 14.8183 15.9654 15.0638 16.383 15.2157C16.716 15.3368 17.074 15.4358 17.4298 15.4176C17.7787 15.3998 18.0725 15.2944 18.3894 15.1534C18.6491 15.0378 18.921 14.9568 19.1515 14.7832C19.4043 14.5928 19.6182 14.3645 19.727 14.0541C19.7837 13.8924 19.7634 13.7072 19.7634 13.5394C19.7634 13.4994 19.783 13.5447 19.7942 13.5879C19.7895 13.6017 19.7846 13.6162 19.7796 13.6312Z" fill="#F4FF95" stroke="black" stroke-width="0.379522" stroke-linecap="round"/>
<path d="M19.7478 13.5221C19.7426 13.3351 19.6975 13.1433 19.6172 12.9749C19.5074 12.7445 19.3622 12.5209 19.1564 12.3722C18.9331 12.2108 18.6697 12.0922 18.4187 11.9861C18.0177 11.8167 17.6303 11.664 17.1933 11.6356C16.9867 11.6221 16.763 11.6139 16.5587 11.6539C16.3837 11.6881 16.2037 11.7884 16.0481 11.8741C15.8301 11.9942 15.62 12.1688 15.4699 12.3732C15.4154 12.4475 15.367 12.5287 15.3155 12.6055C15.2689 12.6751 15.2099 12.7503 15.1935 12.8347" stroke="black" stroke-width="0.379522" stroke-linecap="round"/>
<path d="M19.7478 13.1396C19.3125 13.1396 18.8773 13.1396 18.442 13.1396C18.1205 13.1396 17.7955 13.1538 17.4753 13.1228C17.1121 13.0876 16.7405 13.0502 16.3889 12.9503C16.1643 12.8864 15.931 12.8578 15.7091 12.7854C15.4678 12.7066 15.2299 12.6263 15.0033 12.5136C14.9777 12.5008 14.7855 12.3998 14.8176 12.3838" stroke="black" stroke-width="0.379522" stroke-linecap="round"/>
<path d="M17.4154 12.0351C17.4154 12.1326 17.4169 12.2303 17.4154 12.3278C17.4133 12.4691 17.3478 12.5718 17.279 12.6821C17.1788 12.8428 16.9757 12.9243 16.8202 12.9617C16.6205 13.0098 16.421 13.0089 16.2406 12.8834C16.0975 12.784 15.9838 12.5844 15.9678 12.3837C15.9611 12.3003 15.9307 12.0907 15.9817 12.022C16.018 11.9732 16.0622 11.9334 16.1011 11.8878C16.1979 11.7739 16.3358 11.7116 16.4637 11.6622C16.5274 11.6375 16.6067 11.6323 16.673 11.6323C16.7722 11.6323 16.8881 11.6125 16.9861 11.6361C17.1933 11.6859 17.4373 11.8244 17.496 12.0929C17.5282 12.2399 17.5363 12.4694 17.496 12.6093C17.4817 12.6592 17.4324 12.7715 17.4914 12.7734C17.5594 12.7757 17.6232 12.8127 17.6913 12.82C17.8325 12.8352 17.9759 12.8255 18.1176 12.8368C18.3189 12.8528 18.522 12.8355 18.7236 12.8405C18.8129 12.8428 18.9192 12.8466 19.0057 12.8704C19.0355 12.8786 19.0651 12.8648 19.0894 12.8909C19.1132 12.9163 19.1342 12.9161 19.0941 12.8797C18.8716 12.6779 18.7058 12.4036 18.4539 12.2495C18.2685 12.136 17.6528 11.9793 17.851 12.0556C18.1153 12.1573 18.3586 12.3519 18.5981 12.5217C18.7029 12.5961 18.8047 12.6758 18.9081 12.7529C18.9633 12.7941 19.0247 12.8231 19.0724 12.8778C19.1209 12.9336 19.1523 12.9943 19.215 13.0121C19.2525 13.0227 19.2829 13.0495 19.2274 12.9972C19.0278 12.809 18.8314 12.6168 18.626 12.4378C18.3699 12.2147 18.1272 12.0226 17.82 11.9381C17.7209 11.9109 17.8208 11.9317 17.868 11.9549C18.0708 12.0544 18.2561 12.2323 18.4369 12.3781C18.6343 12.5374 18.8234 12.7088 19.0259 12.8592C19.1421 12.9455 19.2705 13.0248 19.3684 13.1426" stroke="black" stroke-width="0.379522" stroke-linecap="round"/>
<path d="M17.2524 11.6356C17.2086 11.6356 17.1044 11.6149 17.0802 11.6524C17.0419 11.7116 16.9812 11.7516 16.9154 11.7704" stroke="black" stroke-width="0.759044" stroke-linecap="round"/>
<path d="M9.68764 11.2451C9.67264 11.2516 9.67997 11.2923 9.67997 11.3022C9.67997 11.5142 9.65736 11.7347 9.60583 11.9417C9.56415 12.1091 9.46448 12.2645 9.36425 12.4102C9.25941 12.5625 9.14755 12.7131 9.01616 12.8493C8.78163 13.0924 8.51882 13.3009 8.18192 13.4309C8.02594 13.4911 7.84039 13.5359 7.66809 13.5184C7.65478 13.5171 7.57585 13.5112 7.6127 13.4869C7.78976 13.3703 7.98185 13.274 8.15636 13.1531C8.37963 12.9983 8.56331 12.8143 8.74518 12.6234C8.83249 12.5318 8.91108 12.4389 8.97611 12.3341C9.07863 12.1689 9.1767 11.9893 9.23345 11.8074C9.26769 11.6977 9.28117 11.5805 9.28117 11.4669C9.28117 11.442 9.29016 11.3431 9.25859 11.3293C9.24385 11.3229 9.25816 11.358 9.25816 11.3723C9.25816 11.4622 9.25405 11.5517 9.23686 11.6405C9.20709 11.7942 9.13966 11.9407 9.06388 12.0812C8.97329 12.2491 8.87337 12.4192 8.75839 12.5756C8.60664 12.782 8.4244 12.9318 8.15934 13.0166C8.04745 13.0524 7.93286 13.0674 7.81764 13.0908C7.80806 13.0927 7.79585 13.1065 7.78994 13.0997C7.77756 13.0853 7.8816 13.0197 7.88836 13.0144C8.14941 12.8093 8.38903 12.5893 8.56538 12.3226C8.74324 12.0537 8.82393 11.7633 8.92668 11.4699C8.93609 11.443 8.92888 11.3214 8.97611 11.3186C9.08597 11.312 9.19545 11.3037 9.30588 11.3056C9.44279 11.3079 9.56954 11.3516 9.68806 11.4091C9.84529 11.4853 10.0008 11.5525 10.1469 11.6457C10.2525 11.713 10.3358 11.7893 10.4273 11.869C10.463 11.9001 10.5048 11.9236 10.5406 11.9543C10.5511 11.9633 10.617 12.0343 10.6369 12.03C10.6429 12.0287 10.6355 12.0191 10.6326 12.0144C10.6207 11.9943 10.6019 11.9763 10.5841 11.9602C10.5127 11.8958 10.4253 11.8413 10.3259 11.8156C10.1346 11.7662 9.99891 11.8869 9.85039 11.9728C9.79575 12.0045 9.74071 12.034 9.68252 12.0604C9.67389 12.0643 9.64696 12.0791 9.674 12.0797C9.74477 12.0811 9.79865 12.0432 9.84869 12.0047C9.90394 11.9623 9.8974 11.9353 9.893 11.8697C9.89064 11.8346 9.89234 11.7274 9.84102 11.7125" stroke="black" stroke-width="0.759044" stroke-linecap="round"/>
<path d="M21.6452 13.9019C21.6921 13.9668 21.775 14.0271 21.8564 14.0866C22.0139 14.2019 22.1863 14.3154 22.3746 14.4238C22.6871 14.6037 23.029 14.7686 23.4634 14.908C23.6032 14.9528 23.76 15.0096 23.9224 15.0404" stroke="black" stroke-width="0.759044" stroke-linecap="round"/>
<path d="M8.04645 23.0103C8.5336 23.4467 8.79003 24.1593 9.02714 24.751C9.28881 25.4039 9.5395 26.0462 9.83315 26.6848C10.1324 27.3354 10.2001 28.1089 10.3082 28.8086C10.3636 29.1674 10.4119 29.5282 10.4982 29.8812C10.5305 30.0132 10.5596 30.1858 10.6392 30.2919" stroke="black" stroke-width="0.759044" stroke-linecap="round"/>
<path d="M10.1951 29.3359C10.1951 29.8384 9.47206 30.3046 9.09872 30.5547C8.80466 30.7517 8.49571 30.9337 8.19397 31.1188C8.09732 31.1781 8.05455 31.204 7.94383 31.204" stroke="black" stroke-width="0.759044" stroke-linecap="round"/>
<path d="M22.025 14.2812C22.4241 14.8845 22.9879 15.4014 23.5334 15.9314C23.8918 16.2796 24.3372 16.5743 24.6861 16.9258C24.8233 17.064 24.9514 17.2066 25.0968 17.34C25.3025 17.5287 25.3677 17.7061 25.3962 17.9498C25.4622 18.5151 25.4352 19.0865 25.4352 19.6534C25.4352 19.8806 25.4409 20.1082 25.4338 20.3353C25.4287 20.4973 25.3685 20.5918 25.279 20.7331" stroke="black" stroke-width="0.759044" stroke-linecap="round"/>
<path d="M7.06323 13.4731C6.9637 13.4874 6.86111 13.5787 6.77596 13.6282C6.65651 13.6977 6.53599 13.7684 6.42012 13.8437C6.30171 13.9206 6.18674 14.0152 6.07816 14.1056C5.98035 14.1872 5.85424 14.2384 5.7411 14.2958C5.56561 14.3848 5.40176 14.5092 5.23021 14.6076C4.91672 14.7872 4.62434 15.0367 4.34552 15.2654C4.05242 15.5058 3.7992 15.8247 3.54572 16.106C3.3124 16.3649 3.04445 16.587 2.87649 16.8993C2.69314 17.2401 2.55336 17.5844 2.6039 17.9798C2.67879 18.5657 3.28681 18.8725 3.69915 19.2024" stroke="black" stroke-width="0.759044" stroke-linecap="round"/>
<path d="M11.0937 12.0908C11.0937 12.2713 11.1125 12.4606 11.0589 12.635C11.0129 12.7846 10.877 12.932 10.7703 13.0417C10.5842 13.2331 10.3627 13.4397 10.1176 13.5511C9.9423 13.6308 9.76116 13.7012 9.5773 13.7583C9.4088 13.8106 9.24401 13.8866 9.07183 13.921" stroke="#F4FF95" stroke-width="0.379522" stroke-linecap="round"/>
<path d="M22.1271 13.9561C22.4624 14.2913 22.7016 14.6837 22.9221 15.0997C23.0763 15.3904 23.2597 15.7085 23.5564 15.8734" stroke="#F4FF95" stroke-width="0.379522" stroke-linecap="round"/>
<path d="M21.4648 14.6533C21.6753 14.6991 21.7766 15.0165 21.8647 15.184C21.9119 15.2736 21.9549 15.3581 22.0206 15.4357C22.0531 15.4741 22.0801 15.5111 22.0923 15.5597" stroke="#F4FF95" stroke-width="0.379522" stroke-linecap="round"/>
<path d="M20.5933 15.3332C20.0131 15.39 19.4558 15.5705 18.8735 15.6121C18.6394 15.6288 18.4044 15.6486 18.1734 15.5947C17.9541 15.5435 17.7404 15.4615 17.5323 15.3759C17.2636 15.2652 17.0337 15.1202 16.8283 14.9149C16.7603 14.8469 16.6852 14.7126 16.6017 14.6709" stroke="#F4FF95" stroke-width="0.379522" stroke-linecap="round"/>
<path d="M6.61206 13.1914C6.61206 13.4406 6.5441 13.7008 6.48332 13.9416C6.39278 14.3003 6.35125 14.6731 6.21098 15.0186C6.09255 15.3102 5.95472 15.5983 5.81484 15.8802C5.60912 16.2947 5.32868 16.6353 5.07209 17.0166C4.77653 17.4557 4.4576 17.8579 4.12137 18.2669C3.83442 18.6159 3.56618 18.9673 3.23998 19.282C2.93236 19.5787 2.58871 19.8092 2.19518 19.9702C2.04749 20.0306 1.89944 20.0897 1.74829 20.1411C1.66767 20.1684 1.5674 20.1771 1.49328 20.2203C1.43075 20.2568 1.62083 20.1508 1.67897 20.1076C1.94876 19.9075 2.20631 19.7197 2.44276 19.4763C2.6981 19.2135 2.94069 18.9242 3.16818 18.637C3.42229 18.3162 3.60972 17.9521 3.85894 17.6281C4.08129 17.339 4.32391 17.0372 4.5076 16.7219C4.6802 16.4257 4.84021 16.1214 5.01763 15.8282C5.11951 15.6598 5.24458 15.4986 5.3271 15.3194C5.3851 15.1934 5.42269 15.0578 5.47565 14.9294C5.593 14.6451 5.68104 14.3489 5.76409 14.053C5.80536 13.9059 5.82014 13.7106 5.88788 13.5752C5.89933 13.5523 5.89902 13.6735 5.89902 13.6791C5.89902 13.8512 5.89902 14.0233 5.89902 14.1954C5.89902 14.5709 5.86304 14.8788 5.73066 15.2303C5.62546 15.5096 5.48873 15.7925 5.32091 16.0398C4.94391 16.5954 4.62355 17.1967 4.20555 17.7234C3.89731 18.1118 3.61605 18.5168 3.22512 18.8239C3.06117 18.9527 2.73876 19.051 2.67301 19.2745C2.66731 19.2939 2.63879 19.3499 2.67054 19.3154C2.8393 19.1319 2.9954 18.9378 3.1558 18.7472C3.63857 18.1733 4.09057 17.5881 4.5237 16.9757C4.90073 16.4427 5.26137 15.9005 5.61059 15.3491C5.87919 14.925 6.20664 14.379 6.23326 13.8599C6.23819 13.7637 6.27563 13.6719 6.27782 13.5752C6.28001 13.479 6.2456 13.5281 6.18869 13.4712C6.07895 13.3614 6.12699 13.382 6.08471 13.5405C6.01955 13.7848 5.85684 14.0146 5.72943 14.2288C5.51819 14.5839 5.28171 14.9219 5.04981 15.2637C4.4506 16.1467 3.80982 17.0005 3.21522 17.8856C2.96997 18.2507 2.70775 18.6094 2.48237 18.9873C2.46161 19.0221 2.31618 19.3389 2.27812 19.3389C2.20178 19.3389 2.61264 18.6403 2.62102 18.6271C3.04228 17.9626 3.4509 17.2856 3.90103 16.6402C4.49721 15.7855 5.10024 14.9443 5.42614 13.9416C5.50296 13.7052 5.35671 14.073 5.33206 14.1198C5.03164 14.6903 4.6654 15.2292 4.27488 15.7415C3.46934 16.7984 2.50454 17.7633 1.86837 18.9378C1.82835 19.0117 1.79128 19.0876 1.75448 19.1631C1.74705 19.1784 1.72376 19.2497 1.73591 19.1829C1.77764 18.9534 1.89638 18.734 1.99711 18.5268C2.21783 18.0729 2.45567 17.6273 2.71386 17.1936C3.28803 16.2292 3.91634 15.2974 4.49522 14.3365C4.63666 14.1017 4.81062 13.877 4.94087 13.6371C5.33003 12.9202 4.15526 15.0692 3.82675 15.8158C3.65134 16.2145 3.50129 16.6235 3.31921 17.019C3.31317 17.0322 3.30042 17.0702 3.29692 17.0562C3.28471 17.0073 3.35915 16.8765 3.37244 16.8494C3.57698 16.4325 3.80661 16.0181 4.04586 15.6202C4.24867 15.2829 4.51185 14.9561 4.67225 14.5952C4.70028 14.5321 4.73712 14.3254 4.7948 14.287C4.85359 14.2478 4.71548 14.4041 4.67101 14.459C4.4859 14.6876 4.29821 14.9126 4.12385 15.1498C3.60889 15.8503 3.18348 16.6061 2.80671 17.3879C2.61237 17.7912 2.4304 18.1996 2.27193 18.6184C2.24263 18.6958 2.18923 18.8274 2.30411 18.6977C2.59821 18.3656 2.8661 18.0154 3.10381 17.6405C3.34145 17.2656 3.55528 16.8514 3.83542 16.5053C3.85522 16.4808 3.9055 16.4361 3.87874 16.5041C3.79851 16.7077 3.71335 16.9111 3.62621 17.1119C3.40301 17.6261 3.11573 18.1408 2.94907 18.6778C2.91642 18.7831 2.97543 18.6345 2.98249 18.6209C3.15953 18.2795 3.36928 17.9513 3.56926 17.6231C3.9274 17.0355 4.2567 16.4142 4.64873 15.848C4.79658 15.6344 4.59833 16.1104 4.58435 16.1376C4.23247 16.8241 3.80648 17.4847 3.3551 18.1096C3.23118 18.2812 3.08498 18.4342 2.94783 18.5949C2.87448 18.6808 2.77947 18.7983 2.77947 18.918C2.77947 19.0419 2.74912 19.1041 2.89089 19.0963C3.03667 19.0882 3.17404 18.6977 3.22265 18.606C3.30271 18.455 3.38539 18.3059 3.47518 18.1604C3.49572 18.1271 3.55688 18.0371 3.55688 18.0762C3.55688 18.1456 3.50192 18.2161 3.47518 18.2768C3.42125 18.399 3.37493 18.5293 3.33901 18.658C3.29589 18.8126 3.23745 18.9924 3.22636 19.1532C3.19823 19.5611 3.49927 19.913 3.74257 20.2104C3.811 20.294 4.09682 20.6682 3.8936 20.3614C3.56492 19.8653 3.42204 19.2317 3.50242 18.6407C3.52366 18.4845 3.55642 18.2562 3.64849 18.1208C3.67226 18.0858 3.67097 18.2036 3.66954 18.2458C3.66309 18.4359 3.631 18.6236 3.60393 18.8115C3.55768 19.1325 3.51121 19.4666 3.54203 19.792C3.55528 19.9318 3.62186 20.0234 3.68191 20.1435C3.74142 20.2626 3.87466 20.3097 3.93816 20.4208C3.95476 20.4499 3.9271 20.4239 3.89855 20.4085C3.74713 20.3265 3.62607 20.2145 3.5148 20.0841C3.32591 19.8628 3.187 19.6078 3.18056 19.3117C3.17351 18.9873 3.15313 19.9603 3.15828 20.2847C3.15912 20.3377 3.25934 20.4626 3.21522 20.4332C3.06731 20.3346 2.95633 20.0618 2.89336 19.9009C2.89163 19.8965 2.83334 19.7387 2.85622 19.74C2.9025 19.7425 3.00231 19.8964 3.02829 19.9257C3.19755 20.1161 3.35363 20.3294 3.55688 20.4864C3.62414 20.5384 3.59136 20.509 3.54946 20.4629C3.44471 20.3477 3.33214 20.2416 3.2177 20.1361C3.13952 20.0641 3.05766 19.9957 2.98992 19.9133C2.97419 19.8942 2.94596 19.8404 2.98373 19.8947C3.04511 19.9829 3.11805 20.1815 3.21151 20.2376C3.22018 20.2428 3.2095 20.2171 3.20532 20.2079C3.15641 20.1003 3.09553 19.9976 3.04439 19.891C2.88734 19.5637 2.74434 19.2279 2.62597 18.8846C2.32639 18.0158 2.16274 16.9915 2.5517 16.1277C2.63513 15.9424 2.72328 15.7418 2.84137 15.5756C2.94786 15.4258 2.91152 15.5715 2.87603 15.6895C2.72098 16.2052 2.49002 16.7031 2.28926 17.2023C2.24074 17.3229 2.19471 17.4446 2.14566 17.565C2.14012 17.5786 2.09328 17.672 2.13576 17.6083C2.32525 17.324 2.48679 17.0211 2.66435 16.7294C2.75925 16.5735 2.87328 16.4447 2.98002 16.2998C3.13679 16.0871 3.29155 15.8773 3.443 15.6573C3.45239 15.6437 3.55243 15.4674 3.47766 15.5286C3.35381 15.6299 3.25745 15.7779 3.15704 15.9C3.02255 16.0635 2.88082 16.2236 2.75967 16.3976C2.7481 16.4142 2.65274 16.5347 2.67549 16.566C2.73551 16.6485 3.02119 16.5619 3.08153 16.5437C3.84623 16.3129 4.4357 15.7537 4.99287 15.2104C5.14893 15.0583 5.29483 14.8794 5.47442 14.7537C5.5075 14.7305 5.55582 14.6984 5.59821 14.7079C5.73427 14.7381 5.53191 15.6399 5.51527 15.7366C5.45216 16.1031 5.4923 16.5436 5.07952 16.6898C4.63071 16.8487 4.70979 15.1646 4.79851 14.9332C4.82436 14.8657 4.94302 14.5869 5.03248 14.5742C5.13883 14.559 5.1959 14.6251 5.22807 14.7239C5.34537 15.0842 5.15994 15.5535 4.93097 15.8257C4.81515 15.9634 4.63121 16.1347 4.44571 16.1723C4.31429 16.1989 4.16086 16.1773 4.02729 16.1773" stroke="#F4FF95" stroke-width="0.379522" stroke-linecap="round"/>
<path d="M20.373 12.5835C20.3937 12.6133 20.381 12.6005 20.4364 12.6234C20.6101 12.6952 20.7811 12.7644 20.9492 12.8499C21.5353 13.1479 22.0533 13.5653 22.5744 13.9611C23.3419 14.5441 24.1097 15.1286 24.8521 15.7436C25.0908 15.9413 25.332 16.1341 25.5855 16.3127C25.8699 16.5132 26.1305 16.7469 26.4139 16.9464C26.4583 16.9776 26.545 17.011 26.5618 17.0614" stroke="black" stroke-width="0.759044" stroke-linecap="round"/>
<path d="M26.6252 17.3779C26.6055 18.5031 26.111 19.5547 26.0385 20.6753C26.032 20.776 26.0338 21.079 26.0338 20.978C26.0338 20.5226 26.0485 20.0649 26.0291 19.6098C26.0094 19.1463 25.9071 18.6858 25.9071 18.2228C25.9071 17.8944 25.8011 17.6672 25.6114 17.4108C25.4279 17.1627 25.2702 16.9217 25.0505 16.702C24.9762 16.6277 24.901 16.5483 24.8311 16.4697C24.7044 16.3272 24.9377 16.5026 24.9754 16.5307C25.28 16.7576 25.5628 17.0118 25.8602 17.2477C25.9945 17.3542 26.1149 17.4902 26.2662 17.5727C26.3134 17.5985 26.5804 17.8452 26.6041 17.8215" stroke="black" stroke-width="0.759044" stroke-linecap="round"/>
<path d="M26.905 17.0557C26.905 17.3798 26.905 17.7039 26.905 18.0281C26.905 18.2944 26.8972 18.5623 26.9114 18.8284C26.932 19.2137 27.0326 19.5826 27.1753 19.9399C27.335 20.3402 27.5426 20.7198 27.7399 21.1022C27.9603 21.5293 28.1681 21.9602 28.4268 22.3665C28.7393 22.8574 29.1058 23.3207 29.4868 23.7604C29.6724 23.9746 29.9 24.1498 30.0756 24.3741C30.1365 24.452 30.0406 24.3489 30.029 24.3379C29.8314 24.1518 29.6289 23.9711 29.4531 23.7636C29.0145 23.2462 28.7238 22.6121 28.3496 22.0488C28.1251 21.711 27.9402 21.3642 27.8026 20.9823C27.7228 20.7608 27.6641 20.5232 27.5565 20.3139C27.4084 20.026 27.2082 19.7835 26.9742 19.5603C26.8071 19.4009 26.6357 19.2475 26.4723 19.0841C26.4534 19.0652 26.4345 19.0403 26.4128 19.0246C26.3991 19.0148 26.4035 19.2483 26.4047 19.2627C26.4446 19.727 26.604 20.1992 26.7819 20.6276C26.898 20.9069 27.0623 21.1907 27.3039 21.3813C27.3773 21.4391 27.2891 21.2814 27.2871 21.2775C27.1247 20.9684 26.9397 20.6729 26.8004 20.3517C26.6185 19.9321 26.5119 19.4952 26.5575 19.0391" stroke="black" stroke-width="0.759044" stroke-linecap="round"/>
<path d="M20.3533 12.5205C20.4148 12.5205 20.4755 12.5342 20.5353 12.5478C20.8806 12.6263 21.2153 12.7436 21.5418 12.8799C22.4121 13.2431 23.2374 13.6931 24.1225 14.0218C24.6102 14.203 25.0763 14.4134 25.5374 14.6542C25.8943 14.8405 26.2477 15.0426 26.6156 15.2069C26.9966 15.3771 27.3804 15.5307 27.7722 15.6732C28.1157 15.7981 28.4733 15.9172 28.7947 16.0929C28.98 16.1942 29.1525 16.3264 29.3406 16.4205C29.3465 16.4234 29.445 16.4813 29.4112 16.491C29.0722 16.5878 28.7624 16.789 28.4308 16.922C27.9164 17.1283 27.389 17.2465 26.8339 17.2655C26.6642 17.2713 25.9291 17.34 25.9059 17.029C25.8987 16.9337 26.0734 16.8673 26.1333 16.8402C26.3858 16.7258 26.6526 16.6845 26.9272 16.6684C27.3246 16.6452 27.7009 16.6624 28.0918 16.7276C28.213 16.7478 28.3456 16.7736 28.4694 16.7571C28.5194 16.7505 28.5637 16.7091 28.6139 16.698C28.6881 16.6815 28.7933 16.6242 28.6969 16.5331C28.5361 16.3809 28.1803 16.4016 27.9815 16.3909C27.6026 16.3704 27.2305 16.3376 26.8612 16.2453C26.6476 16.1919 26.4307 16.1396 26.2243 16.0622C25.9354 15.9539 25.7065 15.7588 25.4668 15.5709C24.866 15.0997 24.1769 14.7607 23.5675 14.3016C23.4703 14.2284 23.3721 14.1436 23.2627 14.0889C23.2394 14.0773 23.2112 14.0677 23.2581 14.0855C23.4597 14.162 23.6494 14.286 23.8359 14.3914C24.5181 14.7772 25.1788 15.2055 25.8683 15.5777C26.1484 15.7289 26.4079 15.8045 26.7111 15.8791C27.0305 15.9577 27.3381 16.107 27.6619 16.16C27.7898 16.181 27.9247 16.1989 28.0463 16.2465C28.1111 16.2718 28.1266 16.3007 28.1942 16.2669" stroke="black" stroke-width="0.759044" stroke-linecap="round"/>
<path d="M29.3815 16.5332C29.3815 17.0614 29.3601 17.5933 29.4475 18.1164C29.6171 19.1313 30.1292 20.0406 30.8806 20.7414C31.1881 21.0282 31.5249 21.2834 31.845 21.5557C32.0458 21.7265 32.2374 21.9132 32.4478 22.0721C32.4776 22.0946 32.7163 22.2255 32.7163 22.2757C32.7163 22.3366 32.2212 22.1763 32.2033 22.1699C31.491 21.9144 30.889 21.2874 30.4905 20.6652C30.1185 20.0844 29.872 19.4332 29.501 18.8534C29.241 18.4472 29.0615 18.0008 28.8174 17.5864C28.7273 17.4334 28.6358 17.2299 28.6082 17.0541C28.6006 17.0062 28.5828 16.9073 28.6286 17.0154C28.7508 17.3033 28.8092 17.6325 28.8948 17.9321C29.0774 18.5721 29.2363 19.219 29.427 19.8565C29.5531 20.2778 29.6898 20.7096 29.9207 21.0871C30.109 21.3952 30.3514 21.669 30.6053 21.9242C30.7987 22.1187 30.9966 22.3258 31.2252 22.4793C31.5782 22.7163 32.0992 22.8796 32.532 22.8796C32.6425 22.8796 32.4638 22.8152 32.4422 22.8045C31.9765 22.5759 31.4976 22.3758 31.0262 22.1597C30.5842 21.957 30.1284 21.7575 29.7523 21.4431C29.4356 21.1783 29.2034 20.8645 28.9971 20.5094C28.6162 19.8535 28.4492 19.0848 28.408 18.3325C28.3804 17.8296 28.3637 17.2505 28.5263 16.7629C28.6118 16.5063 28.4767 17.3018 28.4444 17.5705C28.385 18.0636 28.3537 18.5744 28.4057 19.0695C28.4812 19.7879 28.7486 20.386 29.2348 20.9188C29.8646 21.6089 30.6871 22.1107 31.4208 22.6806C31.5419 22.7746 31.6657 22.87 31.7825 22.9695C31.7947 22.9799 31.8525 23.0167 31.8576 23.0343C31.8725 23.0865 31.7563 23.0617 31.7415 23.0604C31.3157 23.0239 30.9077 22.7999 30.553 22.5782C29.39 21.8513 28.5062 20.7855 27.994 19.5199C27.7493 18.9154 27.6163 18.2793 27.4936 17.641C27.4542 17.4363 27.4593 17.2077 27.4003 17.0086C27.3614 16.8774 27.47 17.2733 27.5004 17.4067C27.6408 18.0227 27.7425 18.6438 27.8416 19.2674C27.9677 20.0607 28.0959 20.865 28.7469 21.4067C29.3996 21.9498 30.1503 22.3655 30.7998 22.916C30.8668 22.9728 30.9506 23.0247 31.0068 23.0934C31.0481 23.1438 30.7667 23.1121 30.7623 23.1116C30.3194 23.0648 29.8707 22.9346 29.46 22.7659C29.0912 22.6143 28.7471 22.4146 28.5047 22.0914C28.2258 21.7196 28.1241 21.2882 28.0531 20.8369C27.9683 20.2974 27.9209 19.7525 27.8552 19.2105C27.8252 18.9629 27.7847 18.7275 27.7847 18.4781C27.7847 18.4432 27.7858 18.3443 27.7642 18.4394C27.7073 18.6913 27.6708 18.9497 27.6414 19.206C27.6027 19.5434 27.565 19.9086 27.6278 20.2455C27.6972 20.6185 27.8983 20.9622 28.1555 21.2373C28.7791 21.9043 29.6598 22.277 30.3153 22.9137C30.419 23.0144 30.5807 23.2526 30.735 23.2697C30.8931 23.2873 31.0073 23.2718 31.1513 23.1969C31.1862 23.1788 31.2855 23.1164 31.2559 23.1423C31.1035 23.2757 30.9482 23.4056 30.793 23.5359C30.5863 23.7093 30.3824 23.8858 30.1766 24.0602C30.1323 24.0977 30.0868 24.1334 30.0412 24.1694C29.985 24.2138 30.1509 24.0771 30.2073 24.0329C30.537 23.7744 30.8846 23.5432 31.2422 23.3254C31.3878 23.2368 31.5464 23.1056 31.7108 23.0525C31.8255 23.0154 31.7676 23.109 31.7245 23.1639C31.5653 23.3667 31.3688 23.5448 31.174 23.7121C31.0958 23.7793 31.0218 23.8431 30.9534 23.9191C30.9005 23.9779 31.0811 23.8259 31.1422 23.7758C31.3148 23.6343 31.4708 23.4733 31.6358 23.3232C31.6943 23.2699 31.8484 23.1914 31.878 23.1173C31.9101 23.0371 31.7984 23.2721 31.7438 23.3391C31.5509 23.5761 31.3182 23.7803 31.0967 23.9897C31.0215 24.0608 30.794 24.272 30.8726 24.2046C31.0376 24.0632 31.2195 23.9388 31.3878 23.8009C31.7997 23.4633 32.2468 23.1519 32.7185 22.916C32.727 22.9118 32.753 22.9024 32.7435 22.9024C32.7247 22.9024 32.6559 22.9445 32.6503 22.9478C32.3576 23.1194 32.0796 23.3194 31.7927 23.5006C31.3279 23.7943 30.8677 24.0698 30.3733 24.3081C30.2765 24.3548 30.2988 24.3186 30.2573 24.2467C30.0791 23.9379 29.9277 23.6083 29.7114 23.3232C29.5933 23.1675 29.7726 23.3369 29.841 23.3493C29.9126 23.3623 29.8225 23.2112 29.8206 23.2072C29.6303 22.8075 29.4067 22.4248 29.2132 22.0266C29.0951 21.7835 28.9797 21.5381 28.8732 21.2896C28.8534 21.2434 28.8775 21.2698 28.9016 21.2941C28.995 21.3887 29.0815 21.4905 29.1643 21.5944C29.4355 21.9347 29.6996 22.2908 29.9354 22.6567C30.0502 22.8347 30.1621 23.0328 30.2323 23.2345C30.2543 23.2977 30.1053 23.2057 30.0935 23.1981C29.9659 23.1145 29.8361 23.0274 29.7137 22.9365C29.3389 22.6581 29.0448 22.3797 28.8606 21.9493C28.3766 20.818 27.8326 19.7277 27.5299 18.5292C27.4425 18.1828 27.3364 17.7965 27.5504 17.4829C27.5748 17.4471 27.8359 17.0166 27.9166 17.0973C27.9452 17.1259 27.928 17.2205 27.928 17.2531C27.928 17.4672 27.9338 17.6822 27.9155 17.8957C27.9125 17.9313 27.8481 18.3592 27.8257 18.3143" stroke="black" stroke-width="0.759044" stroke-linecap="round"/>
<path d="M18.0149 12.5665C18.0149 12.5256 18.0104 12.5164 18.0589 12.5159C18.1131 12.5153 18.1715 12.5102 18.2238 12.5271C18.3286 12.5609 18.4275 12.6266 18.5106 12.6977C18.5238 12.709 18.5774 12.7489 18.5312 12.7567C18.4295 12.7738 18.3092 12.7357 18.2182 12.6949C18.1083 12.6455 18.0024 12.5839 17.9062 12.5112C17.8842 12.4946 17.8618 12.4712 17.8565 12.4428C17.8446 12.3793 17.8652 12.3113 17.8528 12.2479C17.8481 12.2242 17.8209 12.1465 17.8209 12.2141C17.8209 12.3195 17.8472 12.4845 17.7872 12.5796C17.7838 12.5849 17.7991 12.5757 17.805 12.5735C17.8432 12.5593 17.8828 12.5479 17.9221 12.5374C18.0887 12.493 18.2602 12.4746 18.4318 12.4625C18.5508 12.4541 18.6735 12.4482 18.787 12.4906C18.8558 12.5163 18.9203 12.5537 18.9828 12.5918C19.0922 12.6583 19.1978 12.7256 19.3014 12.8007C19.3769 12.8555 19.4453 12.9251 19.516 12.9863C19.5664 13.0298 19.6494 13.0745 19.6763 13.1381C19.6956 13.1838 19.6895 13.223 19.695 13.2711C19.702 13.3325 19.7168 13.3949 19.7184 13.4567C19.719 13.4785 19.7227 13.5437 19.7184 13.5223C19.7105 13.4828 19.6628 13.4182 19.6322 13.393C19.5846 13.3536 19.5291 13.3194 19.4738 13.2918C19.4407 13.2752 19.3965 13.2769 19.3605 13.2665C19.2206 13.2258 19.0671 13.232 18.9238 13.2224C18.6713 13.2056 18.4192 13.2243 18.1667 13.2243C17.9233 13.2243 17.6882 13.1982 17.4489 13.1531C17.2803 13.1213 17.1077 13.1171 16.9401 13.0809C16.8622 13.0641 16.7927 13.0227 16.7142 13.005C16.6342 12.987 16.5549 12.9917 16.4744 12.9797C16.2298 12.9433 16.0042 12.8516 15.765 12.7923C15.6789 12.771 15.5998 12.7388 15.512 12.7248C15.4493 12.7149 15.4007 12.6853 15.3415 12.6658C15.2709 12.6425 15.1966 12.6063 15.1325 12.5684C15.1171 12.5593 15.0815 12.5414 15.0735 12.5243C15.0676 12.5118 15.123 12.4859 15.1306 12.4803C15.2208 12.4138 15.3165 12.361 15.4136 12.305C15.5102 12.2494 15.6046 12.1922 15.7022 12.1382C15.7892 12.0901 15.8681 12.0295 15.9571 11.9846C16.0529 11.9362 16.1448 11.9 16.2485 11.8731C16.3465 11.8477 16.4352 11.8027 16.5371 11.7925C16.6767 11.7785 16.8168 11.7822 16.9569 11.7822C17.0575 11.7822 17.1635 11.7882 17.2605 11.8178C17.3709 11.8514 17.4863 11.9134 17.5763 11.9846C17.6104 12.0115 17.6421 12.0413 17.6756 12.0689C17.6891 12.08 17.7115 12.1044 17.6766 12.0848C17.574 12.0276 17.4865 11.9652 17.3655 11.9527C17.2822 11.9442 17.1993 11.9359 17.1162 11.9274C16.9177 11.9071 16.7084 11.9255 16.509 11.9255C16.3022 11.9255 16.1249 12.0276 15.9562 12.1429C15.8474 12.2172 15.7341 12.2917 15.6338 12.3772C15.5658 12.4352 15.6443 12.3872 15.6741 12.3669C15.8212 12.2667 15.9847 12.1827 16.1417 12.0989C16.2806 12.0248 16.4298 11.9718 16.5877 11.9611C16.7041 11.9533 16.8225 11.9593 16.9391 11.9593C17.0493 11.9593 17.1572 11.9646 17.2643 11.9911C17.526 12.056 17.7657 12.1767 17.9877 12.3285C18.0775 12.3899 18.1744 12.4421 18.2632 12.5046C18.2719 12.5108 18.3937 12.6026 18.34 12.6068C18.1298 12.6229 17.902 12.5402 17.7094 12.4653C17.6588 12.4456 17.6495 12.4734 17.6372 12.5234C17.6136 12.62 17.6355 12.7153 17.7178 12.7754C17.749 12.7982 17.8194 12.8345 17.8546 12.8111" stroke="black" stroke-width="0.379522" stroke-linecap="round"/>
<path d="M15.8979 12.6426C15.7004 12.6426 15.5027 12.651 15.3057 12.651C15.2295 12.651 15.1343 12.6337 15.078 12.6913C15.0534 12.7165 15.0279 12.739 14.9974 12.7569C14.9837 12.765 14.9691 12.7545 14.9618 12.7691" stroke="black" stroke-width="0.379522" stroke-linecap="round"/>
<path d="M15.0377 12.3218C15.0561 12.3403 15.2272 12.199 15.2401 12.1897C15.3721 12.0948 15.5092 12.008 15.6496 11.9259C15.7595 11.8617 15.8726 11.7919 15.9926 11.7484C16.1097 11.7059 16.2304 11.6722 16.3491 11.6345C16.5754 11.5626 16.7955 11.4711 17.0177 11.3876C17.1923 11.322 17.383 11.3307 17.5593 11.3895C17.8278 11.479 18.0683 11.6376 18.3188 11.7652C18.4801 11.8474 18.6364 11.9381 18.7953 12.0248C18.9403 12.1039 19.0888 12.1823 19.2216 12.2811C19.4585 12.4572 19.6446 12.6828 19.782 12.944C19.8326 13.0403 19.8667 13.1488 19.9038 13.2509C19.9468 13.3692 19.9857 13.4868 19.9966 13.6122" stroke="black" stroke-width="0.379522" stroke-linecap="round"/>
<path d="M6.76759 13.0747C6.76759 13.1855 6.74959 13.3074 6.79326 13.4093C6.8822 13.6168 6.97444 13.8195 7.06794 14.0252C7.12173 14.1435 7.19305 14.2679 7.27704 14.3673C7.29361 14.3869 7.40554 14.5185 7.37969 14.4909C7.19603 14.2946 7.02985 14.0228 6.93297 13.7704C6.88387 13.6426 6.86203 13.506 6.81987 13.376C6.76056 13.1931 6.85635 13.4203 6.8807 13.4729C7.0178 13.7694 7.0939 14.1208 7.3065 14.3759C7.33646 14.4118 7.303 14.5251 7.29034 14.5631C7.26374 14.6429 7.20702 14.7113 7.14397 14.7646C7.06781 14.8291 6.97652 14.8712 6.90446 14.9395C6.77202 15.065 6.62824 15.1789 6.48056 15.2855C6.28191 15.4288 6.11605 15.603 5.89888 15.7236C5.76957 15.7955 5.65188 15.8729 5.53676 15.965C5.18946 16.2429 6.1865 15.3571 6.49671 15.0383C6.71876 14.8102 6.82584 14.5747 6.83603 14.259C6.83705 14.2273 6.88982 13.7573 6.80561 13.7666C6.78081 13.7694 6.86664 14.2149 6.87119 14.239C6.89763 14.3791 6.93205 14.5159 6.97289 14.6525C6.98038 14.6775 7.0215 14.7646 7.00521 14.7931C6.97886 14.8392 6.6763 14.8026 6.62312 14.8026C6.45316 14.8026 6.41263 14.769 6.42828 14.5916C6.44427 14.4104 6.52117 14.2214 6.61742 14.067C6.65653 14.0042 6.71125 13.9136 6.73338 14.0347C6.76735 14.2205 6.75605 14.3984 6.62693 14.546C6.54482 14.6398 6.4312 14.6687 6.32278 14.6144" stroke="#F4FF95" stroke-width="0.379522" stroke-linecap="round"/>
<path d="M29.402 19.9629C29.458 19.9789 29.5376 20.1334 29.5647 20.172C29.7227 20.3973 29.876 20.6257 30.0243 20.8575C30.2656 21.2348 30.4603 21.652 30.866 21.8683" stroke="#F4FF95" stroke-width="0.379522" stroke-linecap="round"/>
<path d="M30.4011 22.6813C30.1287 22.5127 29.9154 22.185 29.7195 21.9416C29.4685 21.6296 29.3354 21.2768 29.2393 20.8921" stroke="#F4FF95" stroke-width="0.379522" stroke-linecap="round"/>
<path d="M22.8118 13.8989C23.1176 13.8989 23.3399 13.9233 23.6405 14.0477C25.0162 14.6172 26.3064 15.3936 27.6025 16.1201" stroke="#F4FF95" stroke-width="0.379522" stroke-linecap="round"/>
<path d="M7.65894 22.8418C7.43785 22.8418 7.21676 22.8418 6.99567 22.8418C6.74912 22.8418 6.50817 22.8365 6.26909 22.7685C6.05021 22.7062 5.84374 22.6082 5.64249 22.5036C5.1704 22.2581 4.83343 21.8287 4.70425 21.312" stroke="black" stroke-width="0.379522" stroke-linecap="round"/>
</svg>
