<svg width="37" height="38" viewBox="0 0 37 38" fill="none" xmlns="http://www.w3.org/2000/svg">
<rect x="-0.519772" y="0.519772" width="34.305" height="35.8643" rx="4.67795" transform="matrix(-1 0 0 1 34.9939 0.807617)" fill="#F32D12" stroke="black" stroke-width="1.03954"/>
<path d="M16.7996 11.8015C17.0754 11.7454 17.3513 11.6893 17.6271 11.6332C18.1711 11.5226 18.5189 11.258 18.9723 10.9535C19.4616 10.6249 19.9181 10.2469 20.4168 9.92976C21.4638 9.26386 22.8003 8.95256 24.024 8.84152C26.3728 8.62838 28.8931 10.3828 29.4444 12.7183C29.5839 13.3091 29.6854 13.8912 29.5575 14.492C29.3819 15.3168 29.0625 16.1177 28.7137 16.8794C27.8272 18.8155 26.4656 20.6044 25.0359 22.1564C23.623 23.6901 22.1167 25.1061 20.5025 26.4199C19.4017 27.3159 18.3242 28.24 17.2609 29.1817C16.5392 29.8209 15.854 30.5197 15.0835 31.0999C14.4106 31.6066 13.6547 32.0955 12.8789 32.4247C12.7114 32.4958 12.5207 32.654 12.3283 32.6498C11.9731 32.6421 11.6765 31.5849 11.6008 31.3711C11.2493 30.3794 11.0432 29.3379 10.8316 28.3093C10.6269 27.3146 10.4275 26.3239 10.3233 25.3127C10.0252 22.4179 9.69814 19.5393 9.30364 16.6571C9.1643 15.639 9.01313 14.6251 8.98691 13.5958C8.95595 12.3802 9.13557 11.1116 9.38843 9.92834C9.60112 8.93305 9.96642 7.92918 10.454 7.04095C10.88 6.2648 11.4088 5.66941 12.2824 5.41988C12.9831 5.21976 13.68 5.10451 14.3768 5.37958C14.9612 5.61028 15.4855 5.92538 15.9778 6.31868C16.6942 6.89099 17.3898 7.55036 17.9113 8.30833C18.1691 8.68311 18.3994 9.03408 18.5956 9.44926C18.6835 9.63506 18.95 9.88768 19.1571 9.92373C19.3661 9.9601 19.5507 9.91639 19.7577 9.90699C20.1223 9.89044 20.4677 9.92383 20.7837 9.69579" stroke="black" stroke-width="1.03954" stroke-linecap="round"/>
<path d="M21.7197 15.5442C21.2707 15.5442 22.6177 15.5371 23.0667 15.5442C23.7352 15.5547 24.4738 15.7446 24.9302 16.269C25.1879 16.5652 25.4073 16.8919 25.569 17.2494C25.6221 17.3669 25.6555 17.4854 25.6939 17.6076C25.6974 17.6188 25.726 17.7417 25.7314 17.7396C25.8217 17.7034 25.2427 16.8012 25.2079 16.755C24.929 16.3848 24.5379 16.1645 24.1442 15.9441C23.5559 15.6146 22.7334 15.5692 22.071 15.5692C21.8034 15.5692 21.5457 15.6254 21.299 15.7302C21.2511 15.7506 21.013 15.819 21.0449 15.8747C21.0958 15.9638 21.1024 16.0765 21.1254 16.1746C21.1763 16.3913 21.2492 16.6002 21.3323 16.8064C21.5214 17.2757 21.8139 17.5646 22.2085 17.8743C22.9209 18.4332 23.6719 18.817 24.583 18.8991C24.9333 18.9306 25.3587 18.8288 25.6189 18.5686" stroke="black" stroke-width="1.03954" stroke-linecap="round"/>
<path d="M23.8944 16.8186C23.8944 17.3136 23.9734 17.9655 23.4806 18.2641C23.382 18.3239 23.1178 18.3679 23.0334 18.2614C22.8448 18.0231 22.9011 17.5813 23.0001 17.3241C23.0859 17.1013 23.2029 16.8697 23.4445 16.7936C23.5474 16.7612 23.7725 16.7294 23.8694 16.7867C24.031 16.8822 24.0345 17.2648 23.9777 17.4185C23.9057 17.613 23.6569 17.6758 23.4722 17.667C23.2209 17.6551 23.1671 17.3518 23.1737 17.1463C23.1818 16.8949 23.3648 16.5859 23.6194 16.5187C23.7299 16.4895 23.9069 16.4658 24.0194 16.5048C24.2107 16.571 24.1693 16.7973 24.1693 16.9561C24.1693 17.4324 23.8249 17.8517 23.3445 17.9128C23.1301 17.9401 23.077 17.7009 23.0709 17.5421C23.0612 17.2888 23.128 17.0974 23.2195 16.8686" stroke="black" stroke-width="1.03954" stroke-linecap="round"/>
<path d="M17.4454 15.4941C17.4454 14.6217 17.5192 13.7838 16.9982 13.0279C16.6588 12.5355 16.2124 12.0224 15.6596 11.7699C15.1762 11.549 14.589 11.4507 14.0572 11.4449C13.935 11.4436 13.8128 11.4449 13.6906 11.4449C13.3891 11.4449 13.2064 11.8172 13.0713 12.0393C12.8833 12.348 12.8193 12.6439 12.8213 13.0057C12.8254 13.7641 13.0383 14.5517 13.4115 15.2136C13.9354 16.1429 15.0682 16.6387 16.0818 16.755C16.3959 16.791 16.776 16.7409 16.983 16.4925C17.1145 16.3347 17.0771 16.1237 17.1343 15.944C17.1839 15.7881 17.1893 15.6422 17.1968 15.4802C17.206 15.2831 17.2454 15.0929 17.2454 14.8942" stroke="black" stroke-width="1.03954" stroke-linecap="round"/>
<path d="M16.7959 13.8943C16.5744 14.0651 16.3961 14.2817 16.1571 14.4317C15.9175 14.5822 15.6557 14.6686 15.3795 14.7247C14.9983 14.8021 14.4498 14.7769 14.3464 14.2998C14.1311 13.3071 15.5906 12.8993 16.3154 12.8945C16.5652 12.8929 16.9168 12.8694 16.9431 13.1972C16.979 13.6466 16.7305 13.9975 16.4098 14.2901C16.1106 14.563 15.7216 14.6821 15.3212 14.7136C15.1269 14.7289 14.8225 14.7601 14.7616 14.5164C14.6875 14.22 15.0549 13.8637 15.2573 13.6999C15.4997 13.5037 15.7557 13.3616 16.071 13.3458C16.1325 13.3427 16.396 13.3056 16.396 13.4139C16.396 13.5664 16.0793 13.6671 15.9724 13.718C15.7806 13.8093 15.5833 13.8723 15.3878 13.9499C15.3157 13.9785 15.2231 14.0443 15.1462 14.0443" stroke="black" stroke-width="1.03954" stroke-linecap="round"/>
<path d="M15.121 19.693C15.3587 19.5483 15.5887 19.4144 15.8542 19.3223C16.2954 19.1691 16.7614 19.17 17.2233 19.1681C17.6658 19.1664 18.0895 19.1747 18.4967 19.3737C18.8988 19.5701 19.2778 19.9261 19.5159 20.304C19.5579 20.3706 19.8218 20.7161 19.7534 20.8095C19.4623 21.2064 19.2426 21.6166 18.8063 21.8898C18.4842 22.0916 18.0711 22.1484 17.6996 22.1786C17.2693 22.2137 16.8271 22.2395 16.3957 22.2064C15.7618 22.1578 15.1632 21.9343 14.7224 21.4677C14.4914 21.223 14.4696 20.8398 14.4989 20.5179C14.5192 20.2941 14.6775 20.1236 14.746 19.918" stroke="black" stroke-width="1.03954" stroke-linecap="round"/>
<path d="M17.0456 19.6684C17.2441 19.6684 17.1956 20.3606 17.1956 20.471C17.1956 20.7253 17.2263 21.2213 16.9151 21.343C16.7224 21.4184 16.6087 21.2488 16.5346 21.0931C16.3653 20.7369 16.2566 20.3103 16.2999 19.9128C16.3464 19.4864 17.0585 19.4337 17.3289 19.6489C17.5018 19.7865 17.5925 20.0434 17.6205 20.2544C17.6531 20.4995 17.684 20.805 17.6302 21.05C17.5943 21.2137 17.4207 21.2554 17.2706 21.2347C16.9217 21.1866 16.7525 20.7396 16.7012 20.4432C16.6563 20.1833 16.6301 19.6434 17.0206 19.6434C17.3419 19.6434 17.36 20.086 17.3706 20.3182" stroke="black" stroke-width="1.03954" stroke-linecap="round"/>
<path d="M10.9468 19.4434C11.115 19.4434 11.2986 19.4218 11.4606 19.474C11.7618 19.571 12.0182 19.9466 12.1938 20.1905C12.6513 20.826 12.7878 21.5538 12.7714 22.3289C12.7624 22.7565 12.539 23.1209 12.3493 23.4898C12.3074 23.5712 12.1988 23.8549 12.2229 23.6259C12.2315 23.5441 12.2413 23.4635 12.2479 23.3815C12.2502 23.3525 12.2735 23.2272 12.2715 23.3287C12.2662 23.6012 12.1197 23.9336 11.9605 24.1508C11.8723 24.2711 11.7997 24.1724 11.6911 24.0855C11.3756 23.8332 11.1493 23.5215 10.8912 23.2177C10.5315 22.7941 10.1686 22.3995 10.0595 21.8415C9.9597 21.3317 9.94189 20.7733 10.1469 20.2877C10.1989 20.1647 10.2686 20.0368 10.3344 19.9197C10.372 19.8528 10.4469 19.7708 10.4469 19.6934" stroke="black" stroke-width="1.03954" stroke-linecap="round"/>
<path d="M12.2966 21.4428C12.1737 21.4428 12.0444 21.5976 11.9481 21.665C11.8534 21.7313 11.6575 21.6928 11.5468 21.6928C11.3346 21.6928 11.1408 21.5754 11.2024 21.3234C11.2578 21.0966 11.8109 20.8116 12.0342 20.9318C12.1991 21.0206 12.1717 21.1767 12.1717 21.3373C12.1717 21.5525 12.001 21.8716 11.7703 21.9177C11.5938 21.953 11.3139 22.0568 11.2274 21.8233C11.0284 21.286 11.7805 20.7848 12.2466 21.0179" stroke="black" stroke-width="1.03954" stroke-linecap="round"/>
<path d="M15.1461 26.6167C15.1461 26.3687 15.3138 26.1661 15.4835 25.9919C15.7891 25.6782 16.3428 25.5728 16.7625 25.5475C17.4238 25.5077 18.1096 25.5762 18.6649 25.9669C19.1157 26.2842 18.6768 26.9836 18.4913 27.3083C17.9594 28.2391 16.7061 28.8564 15.7738 28.1053C15.4083 27.811 15.2869 27.3389 15.1461 26.9167" stroke="black" stroke-width="1.03954" stroke-linecap="round"/>
<path d="M16.8705 26.2168C16.9409 26.3664 16.8955 26.6063 16.8955 26.7653C16.8955 26.7994 16.9128 27.267 16.8205 27.1055C16.7154 26.9215 16.6479 26.7521 16.6011 26.5417C16.5785 26.4398 16.5595 26.164 16.6705 26.3806C16.7762 26.5867 16.8322 26.8294 16.9455 27.0277C16.9861 27.0988 17.1349 27.0772 17.1829 27.0291C17.2973 26.9147 17.4822 26.179 17.2204 26.0918" stroke="black" stroke-width="1.03954" stroke-linecap="round"/>
<path d="M26.1937 11.5449C26.1831 11.6404 26.0482 11.7641 25.9909 11.8324C25.8649 11.9827 25.6678 12.2096 25.4896 12.2934C25.2484 12.4069 24.9909 12.4672 24.7287 12.5072C24.4718 12.5464 24.1399 12.6094 23.9066 12.4711C23.5541 12.2622 23.3094 11.9314 23.0499 11.6199C22.8875 11.4251 22.6796 11.0944 22.7888 10.8395C22.8781 10.6311 22.9688 10.3985 23.1318 10.2355C23.3338 10.0334 23.6025 9.93509 23.8677 9.84667C24.4735 9.64475 25.1765 9.65498 25.7535 9.93277C26.2366 10.1654 26.2187 10.7233 26.2187 11.17" stroke="black" stroke-width="1.03954" stroke-linecap="round"/>
<path d="M24.9192 10.4448C24.9192 10.6422 24.9759 10.9402 24.8748 11.1142C24.7886 11.2624 24.632 11.2783 24.4887 11.1891C24.123 10.9616 24.2443 10.418 24.2443 10.0449" stroke="black" stroke-width="1.03954" stroke-linecap="round"/>
<path d="M18.0672 10.2744C18.1246 10.2744 18.481 10.2744 18.3448 10.2744C18.2445 10.2744 17.9537 10.2614 17.9537 10.1041C17.9537 10.0398 18.1718 10.0698 18.2111 10.0751C18.4043 10.1009 18.3935 10.3169 18.2489 10.4056C18.161 10.4597 17.9228 10.5134 17.8982 10.3653C17.8743 10.2223 18.4813 10.2709 18.5744 10.2757C18.6706 10.2806 18.7258 10.2979 18.7258 10.4006C18.7258 10.6636 18.0989 10.6111 17.9562 10.5659C17.5655 10.442 17.2413 10.0759 17.1058 9.69405C17.053 9.54535 17.047 9.38369 17.0175 9.22974C16.9748 9.00731 16.911 8.78997 16.8232 8.58123C16.7726 8.46101 16.5552 8.00389 16.8333 8.30618C17.2414 8.7498 17.4803 9.29902 17.7442 9.83283C17.7476 9.83972 17.8123 9.98593 17.825 9.98171C17.8315 9.97953 17.5522 9.44753 17.5398 9.42404C17.3976 9.15457 17.2385 8.88949 17.1159 8.61025C17.056 8.47376 17.1375 8.50615 17.2244 8.5888C17.5459 8.89444 17.7504 9.3539 17.9247 9.75209C18.1215 10.202 18.2915 10.6747 18.4117 11.1513C18.4139 11.16 18.4944 11.4999 18.4659 11.4869C18.3933 11.4539 18.3233 11.3465 18.2792 11.2888C18.1531 11.1241 18.0401 10.9493 17.9335 10.7715C17.6005 10.2166 17.3495 9.6144 17.0907 9.02282C17.079 8.99618 16.8529 8.63025 16.8459 8.64431C16.828 8.68006 16.8447 8.78808 16.8472 8.81212C16.8685 9.02367 16.9169 9.23126 16.9595 9.43918C17.0725 9.99126 17.1626 10.548 17.2774 11.0996C17.3049 11.2316 17.3309 11.3639 17.3581 11.4958C17.3819 11.6107 17.1295 11.4328 17.0276 11.3746C16.601 11.1313 16.1905 10.854 15.7861 10.576C15.5908 10.4417 15.3964 10.3051 15.2082 10.1609C15.1905 10.1473 15.0579 10.0607 15.0467 10.0196C15.0351 9.97696 15.134 10.039 15.1729 10.0599C15.325 10.142 15.4689 10.2424 15.612 10.3388C15.9636 10.5756 16.3103 10.8223 16.6503 11.0756C16.7619 11.1587 16.9783 11.2756 17.0528 11.3999C17.094 11.4686 16.9072 11.3327 16.8358 11.2964C16.5793 11.1659 16.321 11.0392 16.0624 10.9128C15.6808 10.7264 15.2887 10.5511 14.9218 10.3363C14.8992 10.323 14.7879 10.2716 14.7717 10.2391C14.7375 10.1708 14.9164 10.2888 14.9862 10.3199C15.3666 10.4893 15.7966 10.7099 16.1217 10.9785C16.262 11.0944 15.7658 10.9005 15.5918 10.8472C15.2823 10.7525 14.9846 10.6436 14.6833 10.5268C14.5329 10.4684 14.694 10.5014 14.7616 10.5116C14.9071 10.5336 15.0554 10.5796 15.1905 10.6378C15.1972 10.6407 15.3365 10.6964 15.2789 10.7009C14.7976 10.7379 14.2696 10.63 13.8002 10.5394C13.5614 10.4933 13.3248 10.4295 13.0961 10.3463C12.9459 10.2917 13.0422 10.3 13.1352 10.3363C13.3133 10.4057 13.4873 10.4855 13.6652 10.5558C13.701 10.57 13.8266 10.6037 13.8393 10.6479C13.8444 10.6657 13.8036 10.6614 13.785 10.6605C13.6667 10.6551 13.5517 10.6261 13.438 10.5949C13.0125 10.478 12.587 10.3442 12.1713 10.1962C11.9824 10.1289 11.7847 10.0616 11.6048 9.97162C11.5221 9.93028 11.7754 10.0431 11.8584 10.0839C12.0931 10.1994 12.3259 10.3254 12.5662 10.4284C12.7433 10.5043 12.2099 10.2794 12.0413 10.1861C11.7212 10.009 11.3877 9.82543 11.1329 9.55778C10.9477 9.36323 10.8775 9.17671 11.1758 9.0632C11.6462 8.8842 12.0612 9.25304 12.1473 9.70162C12.167 9.80381 12.1933 9.9822 12.107 10.0637C11.8923 10.2665 11.591 10.0113 11.4698 9.8404C11.155 9.39652 11.191 8.75336 11.191 8.23426C11.191 8.08355 11.1699 7.74434 11.2641 7.60972C11.2907 7.57176 11.2754 7.70232 11.2717 7.74851C11.2583 7.91838 11.2202 8.08098 11.1682 8.24309C11.0538 8.60035 10.9034 8.96949 10.7052 9.28904C10.6716 9.34325 10.5501 9.54027 10.5071 9.38367C10.4287 9.09805 10.4788 8.73012 10.5298 8.44496C10.5685 8.22914 10.612 8.00329 10.6863 7.79645C10.6915 7.78186 10.7923 7.58449 10.7948 7.5971C10.8472 7.86672 10.6389 8.24374 10.5324 8.47272C10.3934 8.77126 10.2224 9.05184 10.0655 9.34077C10.0574 9.35582 10.0492 9.37088 10.0415 9.38619C10.0294 9.41045 10.0688 9.33927 10.0819 9.31554C10.1671 9.16182 10.2463 9.00562 10.3204 8.84618C10.5499 8.35222 10.7374 7.84541 10.931 7.33719C10.9674 7.24173 11.0034 7.14684 11.0345 7.04952C11.0429 7.02332 11.0532 6.95024 11.0673 6.97382C11.0866 7.0059 11.0724 7.14586 11.0724 7.16434C11.0724 7.37782 11.0694 7.59079 11.0572 7.80402C11.0379 8.14226 11.0021 8.47862 10.9601 8.81464C10.9594 8.81996 10.9071 9.17099 10.9575 9.02913C11.2483 8.21234 11.4511 7.36724 11.7474 6.55241C11.8298 6.32576 11.796 6.70364 11.7953 6.75807C11.7877 7.39247 11.7062 8.02109 11.5846 8.64305C11.5437 8.85213 11.495 9.05924 11.4509 9.26759C11.4335 9.34941 11.4273 9.45129 11.3916 9.52876C11.3755 9.56352 11.3664 9.45473 11.3676 9.41647C11.3752 9.16673 11.42 8.91837 11.4647 8.67333C11.5466 8.22498 11.6496 7.78259 11.7663 7.34224C11.8063 7.19113 11.8345 7.03013 11.9076 6.89055C11.9263 6.85488 11.9359 6.87986 11.9404 6.91074C11.9735 7.13898 11.962 7.38023 11.953 7.60972C11.9419 7.89502 11.912 8.18307 11.8395 8.4601C11.7923 8.64025 11.7743 8.50421 11.7764 8.39702C11.7847 7.97528 11.8548 7.53648 12.0313 7.15046C12.1345 6.92465 12.3011 6.6597 12.5889 6.71644C12.9475 6.78711 13.0885 7.13126 13.192 7.44191C13.3519 7.92151 13.4239 8.41846 13.409 8.92315C13.4039 9.09848 13.4072 9.33385 13.2374 9.44045C13.078 9.54053 12.9178 9.45117 12.8047 9.32689C12.4519 8.93937 12.1205 8.14916 12.5183 7.68164C12.6246 7.55664 12.7759 7.44576 12.9447 7.43939C13.1505 7.43162 13.1581 7.60133 13.1706 7.77248C13.1923 8.07183 13.1876 8.38294 13.0986 8.67207C13.0572 8.80681 12.9862 8.98566 12.8438 9.04301C12.4101 9.21768 12.4953 7.72122 12.594 7.51888C12.7168 7.26698 12.9589 6.94318 13.2753 6.96373C13.5671 6.98268 13.8016 7.27058 13.9415 7.49869C14.1066 7.76794 14.2092 8.08345 14.2417 8.39702C14.2543 8.51791 14.2945 8.76417 14.1181 8.80076C13.8056 8.86558 13.4744 8.35247 13.3674 8.12954C13.2328 7.84924 13.0917 7.32303 13.2627 7.02934C13.4374 6.72924 13.8494 6.88928 14.0727 7.02681C14.5294 7.30812 14.8032 7.86694 15.0038 8.34529C15.1237 8.6312 15.1957 8.94717 15.2044 9.2575C15.206 9.31395 15.2474 9.5335 15.13 9.44171C14.9646 9.31239 14.8356 9.10696 14.7212 8.93703C14.4827 8.58274 14.269 8.2121 14.0727 7.83304C13.9532 7.60246 13.8336 7.36685 13.7724 7.11261C13.7475 7.00907 13.6616 6.73991 13.761 6.64578C13.833 6.57771 13.9877 6.64999 14.0411 6.67228C14.3619 6.80608 14.6429 7.04103 14.8953 7.27411C15.6454 7.96682 16.2682 8.80303 16.8232 9.6562C17.0112 9.94516 17.2004 10.2414 17.3657 10.5444C17.4207 10.6453 17.417 10.6645 17.3228 10.5848C16.7948 10.1384 16.3126 9.6366 15.9047 9.07834C15.8826 9.04812 15.7264 8.81909 15.7558 8.85502C15.9392 9.07913 16.1017 9.32285 16.2264 9.58428C16.3093 9.75806 16.3842 9.93629 16.4548 10.1155C16.4815 10.1833 16.5382 10.3159 16.4194 10.2164C15.9997 9.86468 15.615 9.44438 15.2587 9.03039C15.0366 8.77245 14.7268 8.46371 14.6076 8.13206C14.5595 7.99822 14.9773 8.15662 14.9988 8.16487C15.2991 8.28029 15.5958 8.41911 15.882 8.56609C15.9117 8.58137 16.1722 8.76014 16.1949 8.67207C16.2588 8.4236 16.1757 8.09965 16.1091 7.86206C16.0512 7.65583 15.9802 7.4504 15.8782 7.26149C15.8432 7.19679 15.7472 7.10274 15.8807 7.15551C16.0709 7.23069 16.2559 7.33699 16.4308 7.44191C16.5168 7.49351 16.6302 7.54389 16.7084 7.60467C17.022 7.84858 16.0551 7.1519 15.7394 6.91074C15.4675 6.70305 15.1815 6.539 14.8587 6.42372C14.6303 6.34213 14.403 6.25961 14.1761 6.1739C14.0748 6.13561 13.9252 6.16381 13.8203 6.16381C13.5985 6.16381 13.3838 6.20923 13.1617 6.20923C13.0255 6.20923 12.8892 6.20923 12.7529 6.20923C12.4357 6.20923 12.1161 6.28297 11.8445 6.44895C11.7311 6.51824 11.6482 6.66111 11.572 6.7669C11.4172 6.9819 11.4357 7.27424 11.5493 7.50374C11.7671 7.94409 12.0787 8.43005 12.5233 8.6645C12.884 8.85468 13.3043 8.88275 13.6664 9.07077C13.9356 9.21053 14.1878 9.35057 14.4335 9.53003C14.4712 9.55756 14.7714 9.79479 14.6001 9.79751C14.0405 9.80639 13.2859 9.64801 12.9472 10.2202C12.7153 10.612 12.5847 11.1105 12.4691 11.5475C12.35 11.9972 12.2232 12.4423 12.0969 12.8899C12.0543 13.0408 11.9895 13.2296 11.9808 13.3858C11.9789 13.4192 12.0167 13.3287 12.0287 13.2975C12.1761 12.9133 12.406 12.589 12.6621 12.2679C12.9906 11.856 13.3669 11.5203 13.8254 11.2686C14.0041 11.1705 14.1387 11.0282 14.2922 10.8977C14.3354 10.861 14.3769 10.8349 14.431 10.8195C14.4865 10.8036 14.2465 10.7859 14.2392 10.7854C13.5909 10.7449 12.9124 10.8507 12.4489 11.3507C12.0293 11.8032 11.8599 12.4839 11.7007 13.0678C11.6993 13.073 11.6662 13.2446 11.6275 13.1953C11.5886 13.1457 11.5859 13.0384 11.5821 12.9846C11.5645 12.7368 11.5687 12.4842 11.5783 12.2364C11.6053 11.5403 11.7771 10.8728 11.9606 10.2038C12.0415 9.90882 12.1153 9.55626 12.276 9.2903C12.299 9.25225 12.3457 9.18712 12.3896 9.16666C12.3986 9.16243 12.3874 9.18727 12.382 9.19568C12.3171 9.29658 12.2633 9.40346 12.2129 9.51236C11.6526 10.7235 11.3168 12.0159 10.873 13.2697C10.8403 13.3622 10.8065 13.5734 10.7317 13.6482C10.731 13.6489 10.718 13.1098 10.7191 13.088C10.7551 12.3679 10.8797 11.6563 10.979 10.9431C11.0607 10.3557 11.123 9.763 11.2212 9.17801C11.2238 9.16297 11.2864 8.73768 11.3108 8.73768C11.3426 8.73768 11.3122 9.28862 11.3121 9.2903C11.2518 10.0438 11.0777 10.796 10.9475 11.5399C10.8496 12.0983 10.7527 12.6577 10.6446 13.2142C10.6375 13.2512 10.6232 13.4841 10.5715 13.5056C10.4817 13.543 10.4304 12.6639 10.4302 12.6578C10.3951 11.8174 10.4067 10.9714 10.4188 10.1306C10.4257 9.65357 10.4754 9.17874 10.4819 8.70235C10.4819 8.70184 10.4819 8.49426 10.4819 8.59132C10.4819 8.78281 10.4453 8.96198 10.4011 9.14899C10.089 10.4707 9.79933 11.7851 9.59112 13.1284C9.57927 13.2049 9.58775 13.4587 9.52299 13.517C9.45597 13.5773 9.48221 13.3397 9.48262 13.2495C9.48629 12.4262 9.6331 11.6077 9.77659 10.7993C9.81383 10.5895 9.86985 10.3864 9.91286 10.1785C9.92545 10.1177 9.95182 10.0995 9.97216 10.1735C10.0682 10.5227 10.1182 10.8924 10.1791 11.2485C10.3048 11.9841 10.4116 12.7224 10.5147 13.4615C10.564 13.8149 10.6219 14.167 10.6737 14.52C10.6807 14.5681 10.6831 14.7196 10.7317 14.756C10.7722 14.7864 11.2145 13.0432 11.6124 14.0292C11.8324 14.5747 11.8965 15.1791 12.0237 15.7502C12.0636 15.9293 12.0752 16.1934 12.1801 16.3508C12.2024 16.3841 12.2472 16.3969 12.2811 16.3684C12.3414 16.3177 12.3617 16.2144 12.3782 16.1451C12.4264 15.9435 12.4517 15.7347 12.4653 15.5281C12.5084 14.8721 12.4194 14.202 12.4817 13.5485C12.4963 13.395 12.5679 13.8447 12.6066 13.9939C12.7046 14.3721 12.756 14.7514 12.7971 15.1395C12.824 15.3935 12.8361 15.6498 12.8879 15.9003C12.8974 15.9462 12.9321 16.0259 12.9321 16.0732C12.9321 16.1119 12.8871 16.0101 12.8665 15.9773C12.7365 15.7704 12.6169 15.5583 12.5019 15.3427C12.1187 14.6246 11.7648 13.8913 11.4294 13.1498C11.3501 12.9745 11.3643 13.0052 11.2944 12.8546C11.2699 12.8017 11.2337 12.6447 11.2137 12.6994C11.1837 12.7812 11.2329 13.0214 11.2402 13.0817C11.2806 13.4154 11.3442 13.7448 11.408 14.0747C11.5296 14.7043 11.6401 15.3318 11.6401 15.9748C11.6401 16.0801 11.4759 15.9764 11.4357 15.947C11.2547 15.8144 11.1972 15.5337 11.0496 15.3616" stroke="black" stroke-width="1.03954" stroke-linecap="round"/>
<path d="M11.0497 15.3613C11.0497 15.6919 11.0497 16.0224 11.0497 16.353C11.0497 16.6011 11.0497 16.8493 11.0497 17.0974C11.0497 17.1897 11.0797 17.3436 11.0472 17.433C11.0284 17.4848 10.9597 17.3643 10.9261 17.3207C10.7013 17.0294 10.5096 16.712 10.3356 16.3883C9.99777 15.7602 9.67169 15.071 9.50917 14.3721C9.48974 14.2886 9.47676 14.2031 9.45113 14.1211C9.44786 14.1106 9.52765 14.2605 9.53819 14.2838C9.76892 14.7954 9.84029 15.3742 9.91165 15.9253C9.93415 16.099 9.95514 16.2731 9.96969 16.4476C9.98244 16.6006 9.98554 16.7542 9.97726 16.4792C9.95044 15.5872 9.9697 14.6953 9.95834 13.8031C9.9564 13.6513 9.92985 13.4891 9.94067 13.3375C9.94304 13.3044 10.0291 13.5497 10.0315 13.5571C10.2376 14.1873 10.4351 14.8238 10.5955 15.4673C10.7411 16.0516 10.8998 16.5999 10.9235 17.2059C10.9245 17.2311 10.9523 18.0433 10.9034 18.0311C10.8078 18.0072 10.7605 17.7328 10.7444 17.6727C10.6259 17.2327 10.5689 16.7811 10.5198 16.329C10.5072 16.213 10.4888 16.0963 10.4832 15.9795C10.481 15.9339 10.4775 15.8435 10.487 15.9518C10.5395 16.5529 10.5329 17.1581 10.5261 17.7611C10.5224 18.0937 10.5359 18.5249 10.3911 18.8386C10.3695 18.8855 10.3233 18.8857 10.2952 18.8486C10.1276 18.6271 10.1102 18.3018 10.087 18.0361C10.0827 17.987 10.0261 17.4532 10.0832 17.433C10.1525 17.4086 10.164 18.2859 10.164 18.3528C10.164 18.3914 10.2025 18.9858 10.1186 18.99C9.96408 18.9977 9.9167 17.3845 9.9167 17.2021C9.9167 17.1566 9.90591 16.4461 10.0328 16.5069C10.1285 16.5528 10.2048 16.6845 10.2599 16.7668C10.4599 17.0662 10.5889 17.3979 10.7078 17.7358C10.8404 18.1129 10.9342 18.5364 11.1178 18.8941C11.1475 18.9519 11.1405 18.8377 11.1406 18.836C11.1433 18.4786 11.1406 18.121 11.1406 17.7636C11.1406 17.5255 11.1406 17.2875 11.1406 17.0495C11.1406 17.0326 11.1179 16.7869 11.1506 16.7744C11.2012 16.7552 11.2936 16.8914 11.3096 16.9132C11.4714 17.133 11.5929 17.3892 11.6818 17.6462C11.8257 18.0623 11.9195 18.515 11.9127 18.9572C11.9119 19.0102 11.9181 19.1231 11.8294 19.0985C11.6243 19.0413 11.5416 18.7257 11.4976 18.5547C11.4033 18.1878 11.3819 17.805 11.3714 17.428C11.3636 17.1462 11.3664 16.8835 11.4484 16.6129C11.5168 16.3873 11.607 16.2515 11.7449 16.5435C11.9831 17.0479 12.0236 17.6409 12.1386 18.1812C12.1761 18.3578 12.2071 18.5377 12.2534 18.7124C12.2709 18.7785 12.3187 18.8526 12.3215 18.9218C12.3237 18.9757 12.2745 18.8244 12.2584 18.7729C12.0963 18.2526 11.9997 17.7195 11.9531 17.1769C11.9322 16.9343 11.9184 16.6899 11.914 16.4464C11.9126 16.3701 11.8779 16.1685 11.9354 16.0981C12.037 15.974 12.3837 16.8517 12.3884 16.8653C12.7048 17.7843 12.8034 18.7801 12.8388 19.747C12.8438 19.8849 12.8438 20.0228 12.8438 20.1608C12.8438 20.1743 12.8471 20.2142 12.8438 20.2012C12.8331 20.1583 12.8342 20.096 12.8287 20.0548C12.7151 19.1977 12.4548 18.3597 12.2912 17.5112C12.1977 17.0263 12.0944 16.5146 12.0944 16.0174C12.0944 15.9954 12.086 15.906 12.1322 15.9543C12.2613 16.0891 12.3375 16.2983 12.4161 16.4628C12.7323 17.1239 12.8939 17.8093 12.9524 18.5383C12.989 18.9948 12.9787 19.4785 13.0823 19.9274C13.0871 19.948 13.1112 20.0343 13.1277 19.9627C13.1887 19.6984 13.1737 19.3974 13.1795 19.1287C13.1951 18.4039 13.2042 17.6794 13.1088 16.9599C13.1043 16.9259 13.0744 16.8049 13.0962 16.7668C13.0963 16.7667 13.2332 16.9299 13.24 16.9384C13.4512 17.2006 13.5666 17.5113 13.7384 17.7977C13.7504 17.8177 13.8406 17.9615 13.8406 17.9528C13.8406 17.6509 13.6876 17.3222 13.5933 17.0419C13.5526 16.921 13.51 16.8017 13.4621 16.6836C13.4507 16.6556 13.4263 16.61 13.4356 16.5776C13.4429 16.5521 13.8363 16.9001 13.8507 16.9132C14.0556 17.099 14.2402 17.3028 14.4311 17.5024C14.503 17.5776 14.554 17.5444 14.5093 17.4456C14.4161 17.2399 14.1857 17.0902 14.0071 16.9662C13.824 16.839 14.0042 16.9474 14.1055 16.994C14.5671 17.206 15.0475 17.4507 15.5641 17.4507C15.8466 17.4507 16.1207 17.3886 16.4044 17.3826C16.765 17.3749 17.1158 17.2236 17.4768 17.2236" stroke="black" stroke-width="1.03954" stroke-linecap="round"/>
<path d="M17.5674 17.7914C17.5674 17.4297 17.5674 18.5148 17.5674 18.8765C17.5674 19.0177 17.4373 18.8166 17.4198 18.7781C17.3832 18.6975 17.4085 18.5655 17.4085 18.4803C17.4085 18.2946 17.42 18.1139 17.4652 17.9327C17.4941 17.8173 17.5097 17.6098 17.6696 17.6098C17.7062 17.6098 17.7787 17.5955 17.8046 17.6262C17.9047 17.7444 17.787 17.9643 17.7264 18.069C17.5658 18.3466 17.1636 18.6999 16.8129 18.6999C16.5483 18.6999 16.5741 18.1657 16.5959 17.9958C16.6002 17.9625 16.6243 17.8088 16.6931 17.8394C16.7671 17.8723 16.7239 18.1059 16.707 18.1548C16.5964 18.4743 16.2378 18.6367 15.9247 18.6746C15.6857 18.7036 15.7052 18.5469 15.7052 18.3554C15.7052 18.31 15.6712 18.0805 15.7102 18.0463C15.7279 18.0308 15.7275 18.091 15.7279 18.1144C15.7292 18.1966 15.7325 18.2811 15.7254 18.363C15.6959 18.7015 15.3862 18.88 15.0693 18.8008C14.8323 18.7416 14.7549 18.5049 14.7513 18.286C14.7488 18.1296 14.7514 18.1399 14.7854 18.2911C14.8227 18.4568 14.8353 18.639 14.8144 18.8084C14.7852 19.0447 14.4649 19.2386 14.234 19.1667C14.0694 19.1154 14.0121 18.848 13.9918 18.7062C13.9823 18.6397 13.8907 18.2014 13.9842 18.1599C14.073 18.1204 14.2436 18.1548 14.3375 18.1548C14.5062 18.1548 14.6983 18.1295 14.8636 18.1687C14.9786 18.1959 15.0852 18.2572 15.2005 18.286C15.279 18.3056 15.1161 18.1143 15.1109 18.1094C14.9935 17.9989 14.7972 17.8575 14.6252 17.8873C14.4213 17.9227 14.2718 18.3518 14.2088 18.5182C14.0575 18.9181 14.1361 19.3518 14.1142 19.7685C14.1053 19.9362 14.0267 20.0927 13.9666 20.2467C13.8804 20.4673 13.7942 20.6855 13.7193 20.9104C13.656 21.1002 13.6163 21.2747 13.5805 21.4693C13.5735 21.5069 13.5272 21.771 13.525 21.6194C13.5215 21.3781 13.489 21.1367 13.4808 20.8952C13.4762 20.7604 13.5145 20.5669 13.4291 20.4486C13.3584 20.3507 13.3638 20.4627 13.3672 20.5205C13.3823 20.776 13.432 21.0336 13.4568 21.2889C13.528 22.0197 13.7065 22.7229 13.6587 23.464C13.6561 23.5042 13.6294 23.7817 13.5477 23.7769C13.4725 23.7725 13.5571 23.1893 13.5615 23.1587C13.6355 22.649 13.7204 22.14 13.8429 21.6396C13.8489 21.6149 13.8732 21.3436 13.9464 21.3835C14.1147 21.4753 14.2033 21.8185 14.2618 21.9828C14.3883 22.3378 14.5148 22.7081 14.5785 23.0805C14.6061 23.242 14.6717 23.5211 14.576 23.671C14.4555 23.8596 14.1568 23.8706 13.9615 23.8451C13.5697 23.7938 13.3924 23.467 13.3572 23.107C13.3478 23.011 13.2901 22.7012 13.4114 22.6338C13.4887 22.5909 13.5285 22.8069 13.5338 22.8408C13.6045 23.2962 13.3695 23.7529 13.1616 24.1403C12.9889 24.462 12.797 24.8018 12.4348 24.9226" stroke="black" stroke-width="1.03954" stroke-linecap="round"/>
<path d="M10.7089 24.0595C10.7128 24.0326 10.7982 24.2593 10.8036 24.274C10.9236 24.602 10.9988 24.9412 11.0672 25.2833C11.1782 25.8382 11.3283 26.3742 11.4016 26.9361C11.5107 27.7724 11.6193 28.6052 11.6804 29.4469C11.7294 30.1211 11.7319 30.8189 11.8545 31.4846C11.8847 31.6481 11.8837 31.8206 11.9239 31.9817C11.948 32.0781 12.0508 32.0061 12.117 31.9905C12.1954 31.9721 12.2313 32.0091 12.276 32.0649C12.2835 32.0744 12.289 32.043 12.2886 32.0309C12.2822 31.8484 12.2334 31.6637 12.1977 31.4858C12.048 30.7395 11.9382 29.9934 11.8495 29.2375C11.7663 28.5281 11.7319 27.8223 11.5997 27.1203C11.5314 26.7577 11.5319 26.3793 11.471 26.0138C11.4352 25.7993 11.4171 25.5497 11.413 25.3313C11.4102 25.1871 11.3926 25.0216 11.4243 24.8821C11.4652 24.7022 11.712 25.0022 11.741 25.0385C12.1752 25.5834 12.4047 26.2365 12.4904 26.9223C12.6336 28.0673 12.5878 29.2346 12.7415 30.3793C12.7832 30.6894 12.8777 30.9781 12.9459 31.2814C12.9631 31.3576 12.9831 31.7241 13.0708 31.4707C13.1917 31.1216 13.2335 30.7223 13.2613 30.3566C13.2999 29.8497 13.3125 29.3345 13.2954 28.8262C13.2731 28.1614 13.0932 27.5092 13.0027 26.8529C12.9161 26.2248 12.5542 25.5512 12.7933 24.9225C12.8986 24.6456 13.07 24.4617 13.2765 24.2512C13.3887 24.1369 13.506 24.0317 13.6108 23.9106C13.6502 23.865 13.706 23.8121 13.7698 23.8096C13.9598 23.8023 13.7979 24.3191 13.7749 24.4127C13.6583 24.8855 13.3888 25.3582 13.3888 25.8536C13.3888 26.2948 13.4107 26.7302 13.4291 27.1708C13.4568 27.8305 13.4342 28.4952 13.4342 29.1555C13.4342 29.5201 13.4115 29.8842 13.4115 30.2494C13.4115 30.3491 13.3667 30.5679 13.4241 30.6582C13.4977 30.7739 13.3731 31.0255 13.5515 31.0076C13.7964 30.9832 14.0873 30.7476 14.253 30.585C14.4211 30.4201 14.5763 30.2345 14.7287 30.0551C14.835 29.9298 14.9625 29.8198 15.0643 29.6917C15.1542 29.5786 15.2525 29.5344 15.3772 29.4646C15.5084 29.3911 15.638 29.2473 15.7784 29.1971C15.8738 29.163 15.9689 29.1693 16.0686 29.1693C16.1214 29.1693 16.1546 29.1696 16.0989 29.2173C15.9863 29.3138 15.8841 29.4097 15.7545 29.4848C15.4456 29.6636 15.1334 29.8037 14.8372 30.0096C14.6625 30.1311 14.4835 30.2583 14.2896 30.3478C14.0697 30.4493 14.3747 30.2703 14.4272 30.233C14.9671 29.8484 15.4981 29.4401 16.0775 29.1151C16.215 29.0379 16.3522 29.035 16.4951 28.9927C16.5374 28.9802 16.5806 28.9836 16.6225 28.965C16.6265 28.9632 16.3692 28.935 16.3248 28.9309C16.036 28.9042 15.8429 28.7936 15.6094 28.6369C15.1338 28.3178 14.7775 27.7582 14.6101 27.2238C14.5116 26.9094 14.5016 26.5977 14.5016 26.2712C14.5016 26.0599 14.4862 25.8405 14.5521 25.6366C14.6092 25.4597 14.6766 25.2796 14.7514 25.1092C14.8266 24.938 14.8687 24.7468 14.9558 24.5818C14.9784 24.5389 15.0236 24.4938 15.058 24.4594C15.0951 24.4224 15.113 24.4497 15.0202 24.4443C14.8939 24.4369 14.7811 24.3821 14.658 24.3597C14.5431 24.3388 14.5495 24.4571 14.5193 24.5465C14.3193 25.1369 14.1376 25.7404 14.0259 26.3545C13.8536 27.3025 13.764 28.4069 14.3515 29.2337C14.4646 29.3929 14.6021 29.5047 14.7741 29.5958C14.7877 29.603 14.7876 29.6038 14.7804 29.5895C14.7332 29.4951 14.7046 29.3913 14.6707 29.2917C14.5779 29.0198 14.4915 28.746 14.388 28.4779C14.2879 28.2184 14.1519 27.9778 14.0486 27.7197C14.0136 27.6321 14.0519 27.6424 14.0979 27.7083C14.2877 27.9807 14.4373 28.2983 14.5975 28.589C14.7306 28.8306 14.8836 29.0629 15 29.3132C15.0355 29.3896 15.0784 29.4518 15.1501 29.4974C15.1735 29.5123 15.2229 29.531 15.251 29.5327C15.3498 29.5389 15.0548 29.5681 14.9634 29.6059C14.5669 29.7698 14.2035 30.0174 13.9591 30.3705C13.9373 30.4019 13.9154 30.4829 13.8834 30.5042C13.874 30.5104 13.826 30.1077 13.8253 30.0929C13.8068 29.685 13.8369 29.3069 13.9212 28.9094C13.9445 28.7995 13.9565 28.6908 13.9565 28.5789" stroke="black" stroke-width="1.03954" stroke-linecap="round"/>
<path d="M19.2708 26.7622C19.2708 26.4998 19.2708 26.2374 19.2708 25.9749C19.2708 25.7829 19.2835 25.6871 19.1572 25.5409C19.043 25.4086 18.8071 25.3226 18.6551 25.2457C18.4499 25.1419 18.2379 25.0951 18.0154 25.0451C17.4988 24.9288 16.9635 24.9454 16.437 24.9454C16.1584 24.9454 15.9067 24.9324 15.6699 25.1044C15.5128 25.2184 15.3863 25.3637 15.2195 25.4652C15.0789 25.5508 14.9373 25.5415 14.9835 25.3163C15.0228 25.1251 15.2824 24.9922 15.4339 24.9038C15.6826 24.7587 15.9579 24.6649 16.2364 24.5959C16.7636 24.4653 17.32 24.4706 17.8602 24.4962C18.2578 24.5151 18.6093 24.6454 18.9856 24.7587C19.2262 24.8311 19.4477 24.9204 19.6442 25.0817C19.9146 25.3035 19.884 25.6494 19.884 25.9674C19.884 26.0355 19.9224 26.066 19.9521 25.98C20.0418 25.7202 20.0826 25.407 20.0152 25.1372C19.9423 24.8458 19.6163 24.5775 19.3742 24.4281C18.8358 24.0957 18.2063 23.9664 17.5851 23.8919C17.3029 23.858 17.0013 23.8681 16.7171 23.8793C16.4193 23.8909 16.1556 24.0256 15.9046 24.1682C15.7571 24.2519 15.6075 24.3491 15.4554 24.423C15.4024 24.4488 15.2783 24.5071 15.2182 24.4899C15.1323 24.4654 15.2014 24.1928 15.2182 24.1493C15.3187 23.8892 15.4075 23.7972 15.6699 23.6913C16.5491 23.3364 17.5695 23.4108 18.4519 23.7089C19.0302 23.9043 19.6778 24.2596 19.9975 24.8041C20.0861 24.955 20.1111 25.0451 20.1111 25.223C20.1111 25.2792 20.0731 25.4784 20.1464 25.4917C20.2561 25.5116 20.2732 25.6274 20.3483 25.681C20.3665 25.694 20.3609 25.5405 20.3609 25.5308C20.3609 25.3527 20.3672 25.1731 20.3457 24.9959C20.2513 24.2143 19.944 23.5264 19.2279 23.1437C18.9961 23.0198 18.7748 22.9875 18.5213 22.9469C18.2211 22.8987 17.9265 22.8656 17.6217 22.8573C16.8007 22.8348 15.931 22.8975 15.1829 23.2648C15.0346 23.3376 14.8771 23.4416 14.7059 23.4465C14.5683 23.4504 14.5924 23.2999 14.5924 23.1967C14.5924 22.9682 14.6695 22.7513 14.9154 22.7021C15.0571 22.6737 15.1926 22.6743 15.3368 22.6743C15.6207 22.6743 15.8617 22.7335 16.1392 22.7765C16.5307 22.8373 16.9095 22.9582 17.3 23.0226C17.694 23.0875 18.1042 23.1319 18.5037 23.1285C18.7602 23.1264 19.0077 23.0983 19.2329 22.9696C19.3392 22.9088 19.414 22.8067 19.5206 22.7475C19.5854 22.7115 19.5071 22.6322 19.4701 22.6062C19.3794 22.5424 19.2616 22.5517 19.156 22.5734C19.0366 22.598 18.6907 22.6797 18.8115 22.6958C19.1615 22.7424 19.523 22.5688 19.8713 22.5431C20.2541 22.5149 20.4373 22.7689 20.588 23.0781C20.7196 23.3482 20.846 23.5978 20.9274 23.8893C21.0278 24.2491 21.0649 24.5793 21.0649 24.953C21.0649 25.0623 21.0649 25.1717 21.0649 25.281C21.0649 25.3024 21.0371 25.3593 21.0523 25.3441C21.1055 25.2909 21.1303 25.1914 21.157 25.1246C21.2635 24.8584 21.5192 24.4458 21.8598 24.4458C21.9179 24.4458 21.9692 24.4102 22.0188 24.3827C22.1465 24.3117 21.8259 24.0445 21.7841 23.989C21.552 23.6806 21.3542 23.3516 21.1494 23.0251C21.0389 22.8488 20.9288 22.6714 20.7722 22.5318C20.6318 22.4066 20.445 22.3442 20.3155 22.2088C20.2009 22.089 20.0618 21.9892 19.9433 21.8706C19.8351 21.7625 19.8133 21.7832 19.7023 21.8921C19.5726 22.0192 19.53 22.0099 19.6594 22.1646C19.8346 22.3741 19.9836 22.5981 20.1413 22.8207C20.3174 23.069 20.5277 23.2964 20.6851 23.5575C20.9105 23.9313 20.9741 24.4409 20.9741 24.8722C20.9741 24.9983 20.9936 25.1374 20.9564 25.2583C20.9498 25.2796 20.9451 25.3071 20.9741 25.3088C21.0396 25.3126 21.0536 25.2162 21.07 25.17C21.2166 24.7556 21.3894 24.2519 21.7033 23.9335C21.8183 23.8169 21.9707 23.7321 22.0982 23.6282C22.2891 23.4727 22.442 23.27 22.6307 23.1084C22.7552 23.0016 22.8899 22.9135 23.0067 22.7967C23.2493 22.5541 23.4213 22.2605 23.5833 21.9602C23.8043 21.5506 24.0009 21.1235 24.2444 20.7263C24.302 20.6323 24.3335 20.5198 24.3958 20.4222C24.5376 20.2003 24.7452 20.0258 24.9371 19.8481C25.0274 19.7645 25.1352 19.7044 25.255 19.6778C25.2947 19.669 25.3885 19.6226 25.4165 19.6463C25.5413 19.7518 25.6347 20.078 25.5793 20.2393C25.5306 20.3808 25.2488 20.5146 25.1352 20.6026C24.8312 20.8382 24.5252 21.0738 24.2431 21.3357C23.7355 21.8071 23.4011 22.4279 22.9448 22.9469C22.7959 23.1162 22.6406 23.274 22.5184 23.4642C22.4749 23.5318 22.5512 23.4929 22.589 23.4717C22.96 23.2644 23.2986 22.975 23.6173 22.697C23.9657 22.3932 24.3324 22.1036 24.6393 21.7571C24.7825 21.5954 24.9388 21.4484 25.0897 21.294C25.1797 21.2021 25.2936 21.1001 25.3295 20.971C25.378 20.7961 25.3643 20.5955 25.356 20.4159C25.3522 20.3352 25.2788 20.1725 25.3383 20.1055C25.4797 19.9465 25.6846 19.8405 25.8013 19.6589C25.9318 19.456 25.0837 19.4667 24.9989 19.4772C24.5247 19.5355 24.0348 19.4667 23.5618 19.5289C23.5237 19.5339 23.2113 19.5395 23.201 19.5756C23.1904 19.6126 23.1997 19.6657 23.1997 19.703C23.1997 19.8705 23.1945 20.0292 23.1593 20.1938C23.1023 20.4609 22.9973 20.6906 22.8767 20.9357C22.5733 21.5523 22.2736 22.1653 21.8913 22.7387C21.7452 22.9579 21.626 23.1916 21.4863 23.4112C21.2456 23.7894 22.0214 22.6908 22.2635 22.3135C22.5996 21.7899 22.9967 21.3097 23.3562 20.8032C23.4687 20.6446 23.5611 20.5193 23.7107 20.3919C23.8101 20.3072 23.9958 20.2544 24.0577 20.1307C24.1127 20.0206 23.9693 19.8465 23.9113 19.7749C23.6853 19.4961 23.3778 19.3795 23.066 19.2236C22.9136 19.1474 22.7471 19.0935 22.589 19.0293C22.558 19.0167 22.3414 18.8823 22.338 18.8943C22.3242 18.9425 22.3559 19.0191 22.3582 19.0684C22.3692 19.3105 22.3459 19.5597 22.3115 19.7989C22.2247 20.4019 22.0877 21.0274 21.8825 21.6019C21.7595 21.9464 21.5603 22.2593 21.4636 22.6138C21.4465 22.6767 21.4056 22.8657 21.4056 22.8005C21.4056 22.6485 21.4796 22.4737 21.509 22.3248C21.6261 21.7335 21.7786 21.169 21.8245 20.566C21.8503 20.2262 21.8483 19.9295 21.7084 19.616C21.6401 19.4629 21.57 19.3552 21.5645 19.1819C21.5559 18.9067 21.5266 18.6152 21.4737 18.3454C21.445 18.1989 21.4188 18.03 21.3261 17.9064C21.2589 17.8168 21.3264 17.9581 21.3374 17.9833C21.3877 18.0985 21.3909 18.2416 21.4056 18.3644C21.4294 18.5643 21.4539 18.7646 21.4737 18.9649C21.5241 19.4752 21.4964 19.9955 21.4964 20.508C21.4964 20.9332 21.4964 21.3584 21.4964 21.7836C21.4964 21.9943 21.4793 22.2624 21.3374 22.4245" stroke="black" stroke-width="1.03954" stroke-linecap="round"/>
<path d="M22.1552 18.6088C22.1203 18.5292 22.0454 18.4599 21.9911 18.3944C21.8594 18.2354 21.7264 18.0772 21.5987 17.9149C21.4754 17.7581 21.3679 17.5767 21.2291 17.4329C21.0508 17.2483 20.9239 17.0122 20.7711 16.8059C20.7308 16.7516 20.671 16.7267 20.6335 16.6734C20.5891 16.6103 20.5457 16.538 20.4985 16.4791C20.4574 16.4277 20.5322 16.6063 20.5503 16.6696C20.6848 17.1405 20.7842 17.623 20.843 18.1092C20.9387 18.9009 20.9449 19.6915 21.002 20.4837C21.03 20.8734 21.0939 21.2622 21.1281 21.6521C21.1393 21.7791 21.1332 21.9082 21.1332 22.0356C21.1332 22.1329 21.1031 22.0732 21.0499 22.0243C20.8506 21.8409 20.6524 21.6453 20.4405 21.4805C20.4204 21.4648 20.3624 21.4482 20.361 21.425C20.3567 21.3508 20.3319 21.2711 20.3156 21.1979C20.1272 20.35 20.1793 19.4396 20.1793 18.5786C20.1793 17.795 20.1793 17.0115 20.1793 16.228C20.1793 15.9197 20.1793 15.6115 20.1793 15.3032C20.1793 15.1472 20.2039 14.965 20.1667 14.8111C20.1641 14.8004 20.1093 14.6915 20.1112 14.7253C20.1132 14.7614 20.1445 14.7972 20.1617 14.8263C20.2362 14.9528 20.2916 15.0919 20.337 15.2313C20.4587 15.6042 20.5232 16.0537 20.4241 16.4387C20.3856 16.5883 20.3023 16.7214 20.2374 16.8601C20.1484 17.0503 20.102 17.2528 20.0759 17.4607C19.9837 18.1931 19.9749 18.9601 19.9749 19.699C19.9749 19.7281 19.9523 19.6827 19.9447 19.6737C19.7899 19.4918 19.6375 19.3083 19.4677 19.14C19.0994 18.7748 18.7132 18.4105 18.2868 18.113C18.2627 18.0962 18.1245 18.0177 18.1354 18.0184C18.1783 18.0211 18.2331 18.0496 18.2716 18.0688C18.3995 18.1328 18.5312 18.1936 18.6602 18.2581C18.7629 18.3094 18.8623 18.3668 18.9656 18.4171C19.0342 18.4504 19.0202 18.4702 18.987 18.4259C18.9338 18.3549 18.8167 18.3249 18.7385 18.2909C18.4616 18.1706 18.1858 18.0933 17.9007 18.0007C17.8316 17.9783 17.7647 17.9689 17.7733 17.8872C17.8004 17.6297 17.9153 17.3757 17.989 17.1301C18.1408 16.6243 18.2472 16.1026 18.3839 15.5921C18.4571 15.319 18.5429 15.024 18.5656 14.7405C18.5687 14.702 18.5724 14.622 18.5114 14.6723C18.421 14.7469 18.3494 14.8582 18.2792 14.9499C18.0718 15.2211 17.8709 15.5014 17.7051 15.8003C17.6086 15.9744 17.5203 16.165 17.4591 16.3554C17.4177 16.4844 17.4541 16.2804 17.4541 16.2242C17.4541 15.4734 17.4994 14.7293 17.5197 13.9797C17.5277 13.6832 17.5548 13.3903 17.4326 13.1154C17.3314 12.8878 17.3632 12.63 17.3632 12.3861C17.3632 12.2751 17.3824 12.0061 17.4591 12.26C17.6359 12.8454 17.752 13.45 17.8502 14.0528C17.9846 14.8777 18.0045 15.7154 18.1354 16.5384C18.1676 16.7407 18.2035 16.94 18.2035 17.1453C18.2035 17.2637 18.1127 17.3516 18.0433 17.4405C17.9673 17.5378 17.8685 17.7234 17.7493 17.7736C17.6512 17.8149 17.6855 17.2277 17.6862 17.2084C17.6974 16.9152 17.7573 16.6358 17.7935 16.3466C17.8168 16.1601 17.7947 16.7226 17.7947 16.9106C17.7947 17.2568 17.7702 17.6131 17.8073 17.9578C17.828 18.1498 17.8483 18.3646 17.9915 18.5079C18.0904 18.6068 18.2064 18.6522 18.3221 18.7224C18.4163 18.7796 18.3838 18.5083 18.3865 18.3981C18.411 17.371 18.4496 16.3448 18.4937 15.3183C18.5417 14.2004 18.5669 13.0848 18.5669 11.966C18.5669 11.6958 18.5783 11.3983 18.5101 11.1333C18.488 11.0471 18.4754 10.9541 18.4483 10.8696C18.4205 10.783 18.4324 10.8866 18.4294 10.9213C18.4246 10.9761 18.3999 11.0274 18.3827 11.079C18.3122 11.2904 18.2531 11.5068 18.2086 11.725C18.0773 12.3684 18.018 13.1001 18.1278 13.7513C18.1942 14.145 18.3531 14.5223 18.4521 14.9083C18.5444 15.2685 18.6163 15.6344 18.6981 15.9971C18.7839 16.3773 18.9303 16.7968 18.9303 17.1894C18.9303 17.3446 18.9318 17.4999 18.9252 17.655C18.917 17.8469 18.8621 18.0394 18.8621 18.2303C18.8621 18.7956 18.8599 17.0997 18.8722 16.5346C18.8921 15.6223 18.9422 14.7112 18.9732 13.7992C18.9971 13.0943 18.9905 12.3897 19.0034 11.6846C19.0128 11.1734 19.0206 10.6625 19.0438 10.1529C19.0777 9.40816 19.1817 11.6377 19.2381 12.3811C19.3451 13.7919 19.3453 15.2115 19.4854 16.6191C19.5281 17.0479 19.6272 17.4693 19.662 17.8972C19.6781 18.0949 19.6804 18.3119 19.7201 18.5054C19.7422 18.6131 19.7228 18.5938 19.6683 18.5193C19.5345 18.3361 19.4472 18.1871 19.4021 17.9578C19.2648 17.2584 19.2786 16.5141 19.2722 15.8041C19.266 15.1226 19.3259 14.4479 19.3744 13.769C19.4086 13.2903 19.5193 12.8249 19.6015 12.3533C19.6644 11.9918 19.7124 11.6266 19.792 11.2683C19.8128 11.1745 19.8735 11.0996 19.9295 11.0235C20.1026 10.7883 20.2696 10.5639 20.5074 10.3876C20.7788 10.1864 21.0934 10.0774 21.4158 9.99017C21.687 9.91679 21.9462 9.82235 22.2107 9.729C22.4823 9.63312 22.751 9.54569 23.0182 9.43881C23.1275 9.39507 23.2603 9.41105 23.3765 9.41105C23.4213 9.41105 23.4654 9.40703 23.4484 9.46657C23.431 9.52735 23.0376 9.58938 23.0018 9.60031C22.5776 9.72971 22.1176 9.93026 21.7691 10.211C21.4548 10.4641 21.2144 10.7995 20.9717 11.1181C20.5244 11.7052 20.1604 12.3016 20.0885 13.0498C20.0519 13.4304 20.0156 13.8093 19.9863 14.1904C19.9776 14.3028 19.9749 14.6413 19.9749 14.5285C19.9749 14.1229 20.0985 13.7796 20.2803 13.4195C20.5785 12.8286 20.9197 12.2307 21.4246 11.7906C21.5953 11.6419 21.7784 11.5002 21.9558 11.3591C22.0729 11.2661 22.1912 11.154 22.3318 11.0967C22.4037 11.0674 22.3116 11.2365 22.3015 11.2695C22.1959 11.6147 22.0673 11.9508 21.9533 12.2928C21.9488 12.3062 21.8826 12.5435 21.8826 12.4618C21.8826 12.1404 21.914 11.8233 21.9848 11.5093C22.0372 11.2768 22.0945 11.0097 22.2662 10.8317C22.3246 10.7712 22.5486 10.6001 22.3267 10.751C21.4681 11.3351 20.8491 12.4175 20.5528 13.398C20.4663 13.6844 20.4364 13.9743 20.3938 14.2686C20.3616 14.4915 20.2935 14.6994 20.2374 14.9158C20.1762 15.1517 20.422 14.7155 20.4392 14.6875C20.7195 14.2329 21.0134 13.7874 21.3439 13.3677C21.5398 13.1189 21.7318 12.8874 21.9659 12.6738C22.1416 12.5136 22.298 12.3452 22.4504 12.1641C22.4895 12.1177 22.5682 12.0475 22.5854 11.9874C22.6009 11.933 22.6019 11.9762 22.5627 12.0114C22.5194 12.0504 22.4711 12.0275 22.4277 12.0505C22.3777 12.077 22.4469 12.1031 22.4504 12.1363C22.4915 12.5269 22.8991 12.782 23.1431 13.0447C23.3854 13.3057 23.8435 13.5377 24.1991 13.5444C24.3496 13.5472 24.5003 13.5444 24.6508 13.5444C24.8597 13.5444 25.0281 13.4746 25.216 13.3905C25.5494 13.2411 25.7576 13.0019 26.0387 12.7823C26.1885 12.6653 26.2685 12.5901 26.3566 12.4202C26.4868 12.1691 26.4717 11.914 26.4979 11.6417C26.5366 11.2404 26.5595 10.7569 26.4475 10.3649C26.4146 10.2498 26.3658 10.2206 26.4954 10.2854C26.8458 10.4606 27.1402 10.8 27.424 11.0689C27.7498 11.3775 28.0593 11.7267 28.3097 12.1023C28.4042 12.244 28.5325 12.3521 28.5646 12.5224C28.6406 12.9251 28.6541 13.329 28.5936 13.7387C28.5248 14.2051 28.501 14.6764 28.3665 15.1316C28.2749 15.4415 28.1034 15.6099 27.9136 15.8583C27.6648 16.184 27.4634 16.5406 27.2196 16.8702C26.8329 17.3933 26.4913 17.9714 26.2443 18.5735C26.2104 18.6563 26.1722 18.7331 26.1346 18.8132C26.1253 18.833 26.1755 18.7965 26.1926 18.783C26.3582 18.6516 26.5264 18.5208 26.6834 18.3792C27.1416 17.966 27.5542 17.4636 27.9413 16.9838C28.2352 16.6195 28.5108 16.23 28.7261 15.8129C28.8609 15.5517 28.89 15.2952 28.9696 15.0168C29.0274 14.8146 29.0777 14.6118 29.145 14.4124C29.1897 14.28 29.2461 14.1536 29.2636 14.0137C29.2688 13.972 29.2541 14.0984 29.2383 14.1374C29.1196 14.4306 28.9285 14.7061 28.7715 14.9789C28.3621 15.6906 27.9626 16.4027 27.4972 17.0797C27.1526 17.5809 26.7912 18.0718 26.4689 18.5874C26.3505 18.7768 26.2918 19.0028 26.1636 19.188C26.1182 19.2535 25.963 19.5313 26.0488 19.6081C26.2619 19.7988 26.6766 19.0788 26.7553 18.9596C26.9167 18.7151 27.0002 18.5314 27.014 18.2354C27.0191 18.1247 27.0352 17.9947 26.9698 17.8998C26.8921 17.7871 26.8105 17.6787 26.7427 17.5591C26.6177 17.3385 26.5027 17.1197 26.4134 16.8816C26.3058 16.5947 26.0992 16.3496 25.9125 16.1107C25.7909 15.955 25.6323 15.8369 25.4734 15.7221C25.2844 15.5854 25.0983 15.423 24.9031 15.2981C24.6081 15.1093 24.2625 14.9339 23.9367 14.8036C23.5977 14.668 23.228 14.6799 22.8705 14.6799C22.5437 14.6799 22.2212 14.7268 21.8952 14.7493C21.7683 14.7581 21.6546 14.8465 21.547 14.907C21.4142 14.9817 21.2615 15.044 21.1155 15.0887C21.0301 15.1149 20.7792 15.1935 20.7017 15.1114C20.5043 14.9024 21.195 14.5269 21.3098 14.449C21.6469 14.2205 21.9381 14.0731 22.3507 14.0907C22.597 14.1012 22.8469 14.1491 23.0913 14.1803C23.4312 14.2237 23.7651 14.2543 24.0982 14.3393C25.0738 14.5882 26.048 14.9736 26.6493 15.8255C26.8028 16.0429 26.9081 16.299 27.0707 16.5081C27.1241 16.5767 27.1755 16.4599 27.207 16.4084C27.3567 16.1645 27.5164 15.9339 27.6284 15.6691C27.7206 15.4512 27.819 15.2197 27.8656 14.9865C27.8957 14.8361 27.8782 14.67 27.8782 14.5172C27.8782 13.9513 27.7061 13.4188 27.6284 12.8631C27.5954 12.6273 27.5538 12.3769 27.4783 12.1502C27.4105 11.9468 27.272 11.7783 27.1565 11.6014C27.1072 11.5258 27.0426 11.4234 26.961 11.378C26.9337 11.3629 26.9675 11.427 26.9698 11.4323C27.0217 11.5497 27.0524 11.6786 27.0808 11.8032C27.2594 12.5868 27.248 13.4277 27.2184 14.2282C27.1963 14.8237 26.9792 15.4082 26.8613 15.987C26.8266 16.1574 26.8133 15.8623 26.8121 15.8255C26.8019 15.5039 26.7904 15.1828 26.7705 14.8616C26.7371 14.324 26.6153 13.7596 26.4361 13.2504C26.408 13.1706 26.3566 13.0094 26.3566 13.0094C26.3566 13.0094 26.3566 13.2231 26.3566 13.3299C26.3566 13.4561 26.374 13.6154 26.2759 13.7134C26.1712 13.8182 26.035 13.8888 25.9276 13.9961C25.8548 14.0689 25.7543 14.2281 25.6576 14.2661C25.5245 14.3184 25.4759 13.9972 25.4608 13.9317C25.4355 13.8213 25.3564 13.5092 25.5365 13.4813C25.7466 13.4488 26.0837 13.4462 26.2683 13.552C26.615 13.7505 26.6064 14.0993 26.6064 14.4528C26.6064 14.5101 26.6212 14.5436 26.5547 14.5436C26.1466 14.5436 25.7836 14.5013 25.3876 14.3986C24.7465 14.2321 24.0824 14.1792 23.4459 13.9999C22.9793 13.8684 22.4881 13.7289 22.0416 13.5393C21.9903 13.5175 21.6414 13.3573 21.6833 13.263C21.7109 13.2009 22.21 13.2491 22.2813 13.2491C22.5334 13.2491 22.7539 13.3006 22.9955 13.3627C23.0491 13.3765 23.1567 13.4331 23.0863 13.3627" stroke="black" stroke-width="1.03954" stroke-linecap="round"/>
<path d="M18.892 18.8667C18.2854 19.5415 17.6788 20.2149 17.0958 20.91C17.0316 20.9866 16.7347 21.2754 16.7516 21.0007C16.7777 20.5773 18.1291 17.8222 18.5759 18.9981C18.8265 19.6577 18.6804 20.6323 18.2035 21.1509C17.4624 21.9571 16.1578 21.6186 15.7628 20.6378C15.5475 20.1029 15.3208 19.0879 16.0851 18.9605C16.8921 18.8261 17.7226 18.9387 18.141 19.7209C18.5061 20.4036 18.4746 21.2762 17.753 21.7016C16.9367 22.1829 15.9263 21.8042 15.4499 21.0445C15.0029 20.3318 15.608 19.9109 16.2823 19.7804C17.1122 19.6197 18.1511 19.6277 18.8794 20.1027C19.1483 20.278 19.4039 20.553 19.0046 20.7629C18.294 21.1366 16.644 21.5215 16.082 20.7254C15.4874 19.883 16.7007 19.505 17.3337 19.505C18.6213 19.505 19.5117 20.1355 19.6429 21.4357C19.9184 24.1654 17.4959 25.66 16.4825 27.9098C16.3924 28.1098 16.1884 28.4052 16.1884 28.6326C16.1884 28.7883 16.4016 28.405 16.5201 28.3041C16.8608 28.014 17.2316 27.752 17.6153 27.5218C17.6562 27.4972 18.405 27.0638 18.2348 27.3278C18.0127 27.6725 17.4563 28.1477 17.0583 28.2728C16.9264 28.3142 17.0792 27.9904 17.1397 27.866C17.3633 27.406 17.6985 26.9982 18.0095 26.5956C18.291 26.2313 18.5198 25.7406 18.917 25.4879C19.0846 25.3812 18.5547 26.3197 18.4977 26.4016C18.1926 26.8399 17.8981 27.2455 17.6403 27.7095C17.614 27.7569 17.597 27.6072 17.5965 27.5531C17.5927 27.1579 17.5965 26.7624 17.5965 26.3672C17.5965 26.2309 17.5819 25.4378 17.559 25.4754C17.2811 25.93 16.9793 26.369 16.7078 26.8271C16.5847 27.035 16.4185 27.2904 16.4137 26.9085C16.4079 26.4476 16.4137 25.9863 16.4137 25.5254C16.4137 25.3935 16.4188 25.3295 16.4137 25.5067C16.4049 25.8154 16.3226 26.0906 16.2197 26.3797C16.1513 26.5718 16.07 27.1431 15.8505 27.2464C15.7872 27.2762 15.7931 26.4861 15.7941 26.4016C15.7947 26.358 15.8162 25.8008 15.8786 25.8008C16.1423 25.8008 15.3939 27.5871 15.2872 27.7471C14.88 28.3579 14.4829 28.1927 14.1607 27.6032C13.2404 25.9188 12.9965 23.8819 12.4397 22.0646C12.2236 21.3593 12.0112 20.6503 11.7138 19.9744C11.6423 19.8119 11.5091 19.6965 11.4321 19.5426C11.2659 19.2101 11.3444 20.1538 11.3445 20.1934C11.3495 21.3445 11.308 22.5455 11.4134 23.6918C11.4154 23.714 11.4703 23.9431 11.4447 23.7731C11.3962 23.4523 11.3368 23.1328 11.2851 22.8125C11.1579 22.0258 11.1412 21.1036 10.872 20.3499C10.7376 19.9734 11.2361 21.062 11.4009 21.4263C11.6391 21.953 11.9557 22.4657 12.1206 23.0221C12.259 23.4895 11.5853 22.2058 11.3539 21.7767C11.1786 21.4517 11.0359 21.1205 10.9065 20.7754C10.9053 20.7724 10.7919 20.516 10.8846 20.5814C11.2822 20.8621 11.6283 21.568 11.8264 22.0083C12.0183 22.4348 11.7583 22.5199 11.5448 22.1022C10.9742 20.9859 11.0653 17.1106 11.2037 18.3566C11.3028 19.2488 11.2832 20.2476 11.1067 21.1259C11.0958 21.1802 10.7737 22.3613 10.7125 21.8581C10.6165 21.0692 10.6474 20.2398 10.6968 19.4487C10.6995 19.4062 10.8049 18.4195 10.919 18.6476C10.9268 18.6634 10.9618 18.8317 10.9878 18.7916C11.0359 18.7173 11.1088 18.4337 11.113 18.4192C11.2757 17.8619 11.4412 17.3059 11.6136 16.7514C11.9274 15.7425 12.2573 14.7385 12.568 13.7287C12.6695 13.3988 12.7276 12.8967 12.9216 12.5959C13.0995 12.3202 13.5915 12.8855 13.6538 12.9777C13.9403 13.4012 14.1079 13.9196 14.2358 14.4108C14.2615 14.5094 14.336 15.1375 14.3234 14.996C14.2353 14.0048 14.0289 13.0281 13.8791 12.0452C13.8096 11.5887 14.087 12.2286 14.1294 12.3143C14.506 13.0745 14.8243 13.8703 15.0369 14.6924C15.0646 14.7997 15.2751 15.9927 15.2403 15.9722C14.8728 15.7561 14.6072 15.2066 14.4111 14.8552C14.1024 14.3023 13.8331 13.7155 13.6131 13.1216C13.5676 12.9987 13.4493 12.6348 13.5318 12.7367C13.8415 13.1193 14.0278 13.6551 14.192 14.1104C14.4167 14.7334 14.6836 15.5282 14.6082 16.2069C14.5901 16.3694 14.3077 16.0628 14.192 15.9472C13.7046 15.4598 13.3421 14.8579 13.1406 14.198C13.0556 13.9195 12.9412 13.4965 12.9936 13.1999C13.034 12.9706 13.546 13.0644 13.6914 13.0778C14.8244 13.1826 15.8903 13.9639 16.517 14.8896C16.5874 14.9937 16.8617 15.3156 16.7954 15.4747C16.7026 15.6976 16.4504 15.1238 16.348 14.9052C15.9113 13.9731 15.7022 13.0085 15.4812 12.0139C15.4212 11.7438 15.6278 12.056 15.669 12.1203C16.0055 12.6466 16.2063 13.2595 16.3636 13.8601C16.4063 14.0228 16.6673 15.5388 16.3699 15.3777C15.3021 14.7993 14.8494 13.1662 14.6176 12.0734C14.4043 11.0676 15.4084 12.5321 15.525 12.7336C15.9307 13.4345 16.1971 14.1754 16.4043 14.9553C16.5133 15.3656 16.6657 15.8246 16.639 16.257C16.6275 16.4433 16.3068 16.0582 16.2072 15.9003C15.6362 14.9953 15.2447 13.9541 14.918 12.9401C14.7351 12.3727 14.5739 11.7901 14.4236 11.2129C14.4125 11.1703 14.3822 11.0482 14.4111 11.0814C14.5428 11.233 14.6427 11.5693 14.7146 11.7354C15.3639 13.2347 15.9119 14.7608 16.2885 16.3509C16.2975 16.3887 16.5012 17.1566 16.445 17.1707C16.1696 17.2395 15.744 16.2634 15.7003 16.1694C14.9997 14.6629 14.5543 13.1021 14.2796 11.4695C14.1578 10.7453 14.1574 9.98338 13.9636 9.27281C13.8115 8.71511 13.7507 8.29822 13.8103 7.702C13.8277 7.5279 13.8989 7.10596 13.7852 6.95101C13.641 6.75438 13.4471 6.59437 13.3472 6.36587C13.3172 6.29739 13.0421 5.8913 13.0343 6.0248C13.009 6.45408 12.9876 6.88707 12.9811 7.31712C12.9675 8.20351 12.9492 9.11012 13.1469 9.97999C13.4097 11.1364 13.9358 12.2272 14.53 13.2468C15.7436 15.3292 17.5098 16.9128 19.8682 17.5024C20.5679 17.6773 21.2389 17.9187 21.9272 18.1282C22.1551 18.1976 22.5306 18.3348 22.7721 18.3003C23.0064 18.2668 22.7386 16.661 22.7095 16.5011C22.6804 16.3417 22.2724 15.0542 22.5906 15.1055C23.1904 15.2022 23.7178 15.6614 24.1113 16.0943C24.3327 16.3378 24.5882 16.9047 24.3147 17.202C23.9348 17.615 23.2383 17.3173 22.8972 17.0205C22.8167 16.9505 21.731 15.881 22.2651 15.8377C23.0799 15.7716 23.9525 16.4297 24.5337 16.9204C24.5626 16.9447 25.3756 17.7663 25.1314 17.7934C24.5608 17.8568 24.0175 17.5001 23.6169 17.1331C23.4441 16.9749 22.8496 16.2889 23.4229 16.2758C24.0712 16.2609 24.5945 16.5156 24.9092 17.0987C25.0799 17.4149 25.3147 18.209 25.1314 18.5757C25.0754 18.6877 24.802 18.639 24.7184 18.6289C24.097 18.5535 23.4936 18.2673 22.9786 17.9217C22.3598 17.5064 21.5023 16.7739 21.2701 16.0192C21.1982 15.7856 21.4822 15.8252 21.6331 15.8252C22.1858 15.8252 22.6583 16.0131 22.9942 16.4666C23.2446 16.8046 22.8021 16.8265 22.5155 16.8265C20.5278 16.8265 20.5254 14.5995 20.8821 13.1529C21.0977 12.2784 21.6683 11.232 22.4372 10.7059C22.7497 10.4921 23.0122 10.2091 23.3416 10.0238C23.9973 9.65494 25.5025 9.34518 26.0138 10.0739C26.0859 10.1766 26.3532 10.6744 26.1703 10.7842C25.9552 10.9132 25.5918 10.8672 25.3567 10.8687C24.9955 10.8709 24.5826 10.9214 24.2521 10.7435C23.9352 10.5729 23.6876 10.2661 24.1676 10.1615C24.5361 10.0812 25.1354 10.0277 25.3442 10.3993C26.2237 11.9648 23.2704 12.1301 22.431 11.5477C22.1164 11.3294 21.9553 11.1048 22.4216 11.0376C23.102 10.9396 24.1019 10.8076 24.7121 11.2066C24.8126 11.2723 25.2297 11.6178 25.0751 11.7917C24.9474 11.9354 24.3918 11.6733 24.2803 11.6196C23.9544 11.4628 23.7035 11.2224 23.4917 10.9344C23.1848 10.5169 23.6205 10.6601 23.9173 10.781C24.4699 11.0063 24.8999 11.3456 25.1439 11.8825" stroke="black" stroke-width="1.03954" stroke-linecap="round"/>
<path d="M20.5263 13.3167C20.8834 13.3167 21.2388 13.2888 21.5952 13.2696C22.0122 13.2472 22.4305 13.2562 22.8479 13.2562C23.2317 13.2562 23.6105 13.2484 23.9796 13.3705C24.336 13.4883 24.6813 13.6665 25.0037 13.8568C25.5534 14.181 26.053 14.5662 26.355 15.1363C26.4504 15.3163 26.5491 15.4975 26.6329 15.6831C26.6512 15.7236 26.6777 15.7525 26.6777 15.7974" stroke="#F32D12" stroke-width="1.03954" stroke-linecap="round"/>
<path d="M24.923 14.4662C24.923 14.6649 24.923 14.8635 24.923 15.0622C24.923 15.1854 24.925 15.289 24.8625 15.3984C24.7552 15.5862 24.543 15.7681 24.3179 15.7771C23.6959 15.802 23.3889 14.9697 23.6221 14.4774C23.6853 14.3441 23.7722 14.2171 23.8977 14.1345C24.0324 14.0459 24.1925 14.0628 24.3459 14.0628C24.6811 14.0628 24.9573 14.3126 25.0306 14.6409C25.1089 14.9923 24.89 15.2281 24.6048 15.4051C24.4451 15.5042 24.2752 15.5737 24.0871 15.5911C23.944 15.6044 23.867 15.4884 23.7935 15.3805C23.5977 15.0928 23.4763 14.5654 23.6815 14.2611C23.8638 13.9908 24.3286 14.0052 24.5577 14.1961C24.8461 14.4364 24.9467 14.8664 24.6877 15.153C24.5308 15.3266 24.331 15.4729 24.1454 15.6146C23.9795 15.7413 23.81 15.8086 23.6008 15.7973C23.2153 15.7764 23.1468 14.9707 23.1325 14.7082C23.1205 14.49 23.0944 14.2254 23.2378 14.0426C23.3511 13.8981 23.5065 13.8264 23.686 13.8107C23.8863 13.7931 24.0967 13.7898 24.2821 13.8801C24.538 14.0049 24.8152 14.2838 24.9185 14.5536C25.0349 14.8574 24.9219 15.2044 24.6854 15.4163C24.4702 15.6092 24.0701 15.6105 23.807 15.5508C23.4478 15.4693 23.2533 15.0576 23.3431 14.7082C23.4279 14.3784 23.8965 14.2612 24.188 14.3138C24.4587 14.3626 24.7823 14.7972 24.6675 15.0791C24.63 15.1711 24.4682 15.2102 24.3796 15.2102C24.2664 15.2102 24.1969 15.1007 24.17 15.0006C24.0757 14.6491 24.4189 14.6239 24.681 14.6275C25.0137 14.6321 25.044 14.9932 25.044 15.2628C25.044 15.5532 24.9241 15.8318 24.6126 15.878C24.4916 15.8959 24.3591 15.9183 24.2373 15.9183C24.137 15.9183 24.0475 15.8851 23.9504 15.878C23.7893 15.866 23.5453 15.7455 23.4608 15.6046C23.3955 15.4958 23.3424 15.3712 23.3005 15.2516C23.2586 15.1317 23.249 15.0019 23.249 14.8762C23.249 14.5707 23.3405 14.3736 23.5112 14.1233" stroke="#F32D12" stroke-width="1.03954" stroke-linecap="round"/>
<path d="M16.186 12.0207C16.2422 12.0628 16.0557 11.6721 16.0414 11.6466C15.91 11.4127 15.7343 11.1146 15.518 10.9472C15.3022 10.78 15.0351 10.6607 14.7997 10.5228C14.4978 10.3458 14.1828 10.1941 13.863 10.0528C13.2802 9.79551 12.6582 9.64418 12.0193 9.64418C11.8259 9.64418 11.6378 9.63942 11.4488 9.68505C11.3729 9.70337 11.2851 9.72906 11.2067 9.72906" stroke="#F32D12" stroke-width="1.03954" stroke-linecap="round"/>
<path d="M15.3672 11.3148C15.3672 11.0655 15.4082 11.8341 15.3027 12.06C15.1226 12.446 14.6474 12.5718 14.2549 12.5475C13.8207 12.5206 13.4122 12.0254 13.4495 11.592C13.4652 11.4089 13.572 11.1852 13.7106 11.0613C13.8371 10.9482 14.0313 10.9597 14.1887 10.9638C14.3787 10.9688 14.5457 11.071 14.6703 11.2114C14.8018 11.3596 14.9447 11.5395 14.9373 11.7489C14.9318 11.9076 14.786 12.028 14.6559 12.0973C14.5272 12.1658 14.2635 12.2445 14.1379 12.1287C13.989 11.9914 13.9426 11.3871 14.2243 11.3614C14.3112 11.3535 14.4134 11.3578 14.4897 11.403C14.6445 11.4946 14.6799 11.6216 14.6957 11.7879" stroke="#F32D12" stroke-width="1.03954" stroke-linecap="round"/>
</svg>
