<svg width="37" height="38" viewBox="0 0 37 38" fill="none" xmlns="http://www.w3.org/2000/svg">
<rect x="-0.519772" y="0.519772" width="34.305" height="35.8643" rx="4.67795" transform="matrix(-1 0 0 1 34.9939 0.750488)" fill="#F32D12" stroke="black" stroke-width="1.03954"/>
<path d="M3.87006 19.6423C4.34043 20.2692 5.37707 20.1472 6.18638 20.1472C6.26991 20.2781 6.77374 20.2546 7.53279 20.1641C8.56025 20.0416 8.76684 19.9743 9.05087 19.9743C10.5337 19.9743 10.1596 19.7251 11.6418 20.0981C13.1931 20.4885 14.5143 19.7972 17.7948 19.6423C20.2468 19.0255 20.6263 18.7673 22.3341 18.0767C24.4018 17.2406 24.8645 19.1493 23.6124 20.0981C22.1537 21.2035 22.1444 21.1129 21.6225 21.4924C20.8685 22.0407 20.7875 21.8601 20.916 22.0617C21.1512 22.4306 21.4838 22.7115 21.6225 23.1345C21.7922 23.6517 22.1799 24.1486 22.49 24.6175C22.9511 25.3146 23.4628 25.9809 23.9389 26.6684C24.2036 27.0507 24.6339 27.4069 24.6633 27.8674C24.6802 28.1323 24.9656 27.8209 25.0657 27.7272C25.429 27.3869 24.5755 27.7916 25.0657 27.5754C26.167 27.0898 27.3372 26.6027 28.3837 26.0469C29.0229 25.7074 29.7123 25.4514 30.3333 25.0862C30.6318 24.9107 29.4766 25.4039 28.5239 25.8282C28.9869 25.5697 29.4866 25.2649 29.9589 24.9867C29.7313 25.15 29.7987 25.1562 29.9826 25.0928C29.9085 25.1462 29.8386 25.1957 29.7741 25.2365C29.5058 25.4061 29.8197 25.2359 30.2428 24.9911C30.6311 24.8274 31.1329 24.5774 31.0619 24.5774C31.0138 24.5774 30.9656 24.582 30.9176 24.5906C31.3194 24.3445 31.5929 24.1576 31.2945 24.2787C30.9309 24.4263 30.4603 24.6915 29.9589 24.9867C30.1173 24.8731 30.4187 24.6834 30.9233 24.3881C29.7263 23.1716 28.4902 21.9959 27.3817 20.728C26.7866 20.0473 26.3237 19.2844 25.8882 18.5333C25.7988 18.3792 25.717 18.2286 25.6498 18.0767C25.4601 15.9893 24.5407 14.5845 23.6124 14.1802C22.7358 13.7984 21.7761 13.5426 20.916 13.1425C20.2302 12.8234 19.5117 12.5063 18.859 12.1468C18.8417 12.1373 18.5102 11.9309 18.5102 12.0381C18.5102 12.1545 17.4019 12.1237 17.1956 12.1468C15.2393 12.3659 13.0971 12.3259 11.1499 12.0206C10.3976 11.9026 6.92589 14.8069 6.18638 14.6781C6.15804 14.6731 6.22446 14.7254 6.35283 14.8143C5.5184 15.3257 4.68639 16.0802 3.97291 17.339C3.81488 17.5582 3.42212 17.8495 3.37371 18.0962C3.32768 18.3308 3.39276 18.5605 3.44526 18.7869C3.5169 19.0958 3.6624 19.3655 3.87006 19.6423Z" fill="black" stroke="black" stroke-width="0.759044" stroke-linecap="round"/>
<path d="M11.3279 12.0694C11.3279 11.8735 11.1934 11.7017 11.0628 11.5574C10.7976 11.2643 10.4531 11.053 10.058 10.9565C9.83302 10.9015 9.60543 10.865 9.37269 10.8657C9.14092 10.8664 8.94381 10.9462 8.74783 11.0606C8.46466 11.226 8.22946 11.4976 8.1008 11.7876C7.92587 12.1819 7.87568 12.6274 7.93754 13.0495C7.96057 13.2067 8.00496 13.389 8.09879 13.5224" stroke="black" stroke-width="0.759044" stroke-linecap="round"/>
<path d="M20.4683 13.6312C20.4964 13.6673 20.4934 13.6285 20.4829 13.5879C20.6957 12.9565 20.5619 13.4998 20.709 13.067C20.8512 12.6484 20.8543 12.0932 20.7017 11.6786C20.4622 11.0282 19.8391 10.3668 19.1702 10.193C17.9439 9.87426 16.5661 10.4621 15.8771 11.5253C15.5821 11.9804 15.4811 12.4841 15.5063 13.0271C15.5298 13.5313 15.6308 14.0483 15.9401 14.4542C16.2176 14.8183 16.6541 15.0638 17.0717 15.2157C17.4047 15.3368 17.7627 15.4358 18.1185 15.4176C18.4674 15.3998 18.7612 15.2944 19.0781 15.1534C19.3379 15.0378 19.6097 14.9568 19.8402 14.7832C20.0931 14.5928 20.3069 14.3645 20.4157 14.0541C20.4724 13.8924 20.4521 13.7072 20.4521 13.5394C20.4521 13.4994 20.4717 13.5447 20.4829 13.5879C20.4782 13.6017 20.4734 13.6162 20.4683 13.6312Z" fill="#F32D12" stroke="black" stroke-width="0.379522" stroke-linecap="round"/>
<path d="M20.4365 13.5221C20.4313 13.3351 20.3862 13.1433 20.306 12.9749C20.1962 12.7445 20.0509 12.5209 19.8451 12.3722C19.6218 12.2108 19.3584 12.0922 19.1074 11.9861C18.7065 11.8167 18.319 11.664 17.882 11.6356C17.6754 11.6221 17.4517 11.6139 17.2474 11.6539C17.0725 11.6881 16.8925 11.7884 16.7368 11.8741C16.5189 11.9942 16.3087 12.1688 16.1586 12.3732C16.1041 12.4475 16.0557 12.5287 16.0042 12.6055C15.9576 12.6751 15.8986 12.7503 15.8823 12.8347" stroke="black" stroke-width="0.379522" stroke-linecap="round"/>
<path d="M20.4365 13.1396C20.0013 13.1396 19.566 13.1396 19.1307 13.1396C18.8093 13.1396 18.4842 13.1538 18.164 13.1228C17.8008 13.0876 17.4292 13.0502 17.0776 12.9503C16.853 12.8864 16.6197 12.8578 16.3979 12.7854C16.1565 12.7066 15.9186 12.6263 15.692 12.5136C15.6664 12.5008 15.4742 12.3998 15.5063 12.3838" stroke="black" stroke-width="0.379522" stroke-linecap="round"/>
<path d="M18.1039 12.0351C18.1039 12.1326 18.1054 12.2303 18.1039 12.3278C18.1017 12.4691 18.0363 12.5718 17.9675 12.6821C17.8673 12.8428 17.6641 12.9243 17.5087 12.9617C17.3089 13.0098 17.1095 13.0089 16.929 12.8834C16.786 12.784 16.6723 12.5844 16.6562 12.3837C16.6496 12.3003 16.6192 12.0907 16.6702 12.022C16.7064 11.9732 16.7507 11.9334 16.7895 11.8878C16.8864 11.7739 17.0242 11.7116 17.1522 11.6622C17.2159 11.6375 17.2951 11.6323 17.3615 11.6323C17.4606 11.6323 17.5766 11.6125 17.6746 11.6361C17.8818 11.6859 18.1258 11.8244 18.1845 12.0929C18.2167 12.2399 18.2248 12.4694 18.1845 12.6093C18.1702 12.6592 18.1209 12.7715 18.1799 12.7734C18.2479 12.7757 18.3116 12.8127 18.3798 12.82C18.5209 12.8352 18.6643 12.8255 18.8061 12.8368C19.0074 12.8528 19.2104 12.8355 19.4121 12.8405C19.5013 12.8428 19.6076 12.8466 19.6942 12.8704C19.724 12.8786 19.7535 12.8648 19.7779 12.8909C19.8017 12.9163 19.8226 12.9161 19.7825 12.8797C19.5601 12.6779 19.3943 12.4036 19.1424 12.2495C18.957 12.136 18.3413 11.9793 18.5395 12.0556C18.8037 12.1573 19.0471 12.3519 19.2865 12.5217C19.3914 12.5961 19.4932 12.6758 19.5965 12.7529C19.6517 12.7941 19.7132 12.8231 19.7608 12.8778C19.8094 12.9336 19.8407 12.9943 19.9034 13.0121C19.941 13.0227 19.9714 13.0495 19.9158 12.9972C19.7163 12.809 19.5198 12.6168 19.3144 12.4378C19.0584 12.2147 18.8157 12.0226 18.5085 11.9381C18.4094 11.9109 18.5092 11.9317 18.5565 11.9549C18.7593 12.0544 18.9446 12.2323 19.1253 12.3781C19.3228 12.5374 19.5119 12.7088 19.7143 12.8592C19.8306 12.9455 19.9589 13.0248 20.0569 13.1426" stroke="black" stroke-width="0.379522" stroke-linecap="round"/>
<path d="M17.9412 11.6356C17.8973 11.6356 17.7932 11.6149 17.7689 11.6524C17.7306 11.7116 17.67 11.7516 17.6041 11.7704" stroke="black" stroke-width="0.759044" stroke-linecap="round"/>
<path d="M10.3764 11.2451C10.3614 11.2516 10.3687 11.2923 10.3687 11.3022C10.3687 11.5142 10.3461 11.7347 10.2946 11.9417C10.2529 12.1091 10.1532 12.2645 10.053 12.4102C9.94813 12.5625 9.83627 12.7131 9.70488 12.8493C9.47035 13.0924 9.20754 13.3009 8.87064 13.4309C8.71466 13.4911 8.52911 13.5359 8.35681 13.5184C8.3435 13.5171 8.26457 13.5112 8.30142 13.4869C8.47848 13.3703 8.67057 13.274 8.84508 13.1531C9.06835 12.9983 9.25203 12.8143 9.4339 12.6234C9.52121 12.5318 9.5998 12.4389 9.66483 12.3341C9.76736 12.1689 9.86542 11.9893 9.92217 11.8074C9.95641 11.6977 9.96989 11.5805 9.96989 11.4669C9.96989 11.442 9.97888 11.3431 9.94731 11.3293C9.93257 11.3229 9.94688 11.358 9.94688 11.3723C9.94688 11.4622 9.94277 11.5517 9.92558 11.6405C9.89581 11.7942 9.82838 11.9407 9.7526 12.0812C9.66201 12.2491 9.5621 12.4192 9.44711 12.5756C9.29536 12.782 9.11312 12.9318 8.84806 13.0166C8.73617 13.0524 8.62158 13.0674 8.50636 13.0908C8.49678 13.0927 8.48457 13.1065 8.47866 13.0997C8.46628 13.0853 8.57033 13.0197 8.57709 13.0144C8.83813 12.8093 9.07775 12.5893 9.2541 12.3226C9.43196 12.0537 9.51265 11.7633 9.6154 11.4699C9.62481 11.443 9.6176 11.3214 9.66483 11.3186C9.7747 11.312 9.88418 11.3037 9.9946 11.3056C10.1315 11.3079 10.2583 11.3516 10.3768 11.4091C10.534 11.4853 10.6895 11.5525 10.8357 11.6457C10.9412 11.713 11.0245 11.7893 11.116 11.869C11.1517 11.9001 11.1935 11.9236 11.2293 11.9543C11.2398 11.9633 11.3058 12.0343 11.3256 12.03C11.3316 12.0287 11.3242 12.0191 11.3214 12.0144C11.3094 11.9943 11.2906 11.9763 11.2728 11.9602C11.2015 11.8958 11.114 11.8413 11.0146 11.8156C10.8234 11.7662 10.6876 11.8869 10.5391 11.9728C10.4845 12.0045 10.4294 12.034 10.3712 12.0604C10.3626 12.0643 10.3357 12.0791 10.3627 12.0797C10.4335 12.0811 10.4874 12.0432 10.5374 12.0047C10.5927 11.9623 10.5861 11.9353 10.5817 11.8697C10.5794 11.8346 10.5811 11.7274 10.5297 11.7125" stroke="black" stroke-width="0.759044" stroke-linecap="round"/>
<path d="M22.334 13.9019C22.3808 13.9668 22.4637 14.0271 22.5451 14.0866C22.7026 14.2019 22.875 14.3154 23.0633 14.4238C23.3758 14.6037 23.7177 14.7686 24.1522 14.908C24.2919 14.9528 24.4488 15.0096 24.6111 15.0404" stroke="black" stroke-width="0.759044" stroke-linecap="round"/>
<path d="M8.73517 23.0103C9.22232 23.4467 9.47875 24.1593 9.71587 24.751C9.97753 25.4039 10.2282 26.0462 10.5219 26.6848C10.8211 27.3354 10.8888 28.1089 10.9969 28.8086C11.0523 29.1674 11.1006 29.5282 11.1869 29.8812C11.2192 30.0132 11.2483 30.1858 11.3279 30.2919" stroke="black" stroke-width="0.759044" stroke-linecap="round"/>
<path d="M10.884 29.3364C10.884 29.8389 10.161 30.3051 9.78769 30.5552C9.49362 30.7521 9.18467 30.9342 8.88293 31.1193C8.78628 31.1786 8.74352 31.2045 8.6328 31.2045" stroke="black" stroke-width="0.759044" stroke-linecap="round"/>
<path d="M22.7137 14.2812C23.1129 14.8845 23.6766 15.4014 24.2221 15.9314C24.5805 16.2796 25.0259 16.5743 25.3748 16.9258C25.512 17.064 25.6401 17.2066 25.7855 17.34C25.9912 17.5287 26.0564 17.7061 26.0849 17.9498C26.1509 18.5151 26.1239 19.0865 26.1239 19.6534C26.1239 19.8806 26.1297 20.1082 26.1225 20.3353C26.1174 20.4973 26.0572 20.5918 25.9677 20.7331" stroke="black" stroke-width="0.759044" stroke-linecap="round"/>
<path d="M7.75244 13.4731C7.65291 13.4874 7.55032 13.5787 7.46516 13.6282C7.34571 13.6977 7.22519 13.7684 7.10933 13.8437C6.99092 13.9206 6.87595 14.0152 6.76737 14.1056C6.66956 14.1872 6.54345 14.2384 6.43031 14.2958C6.25482 14.3848 6.09097 14.5092 5.91942 14.6076C5.60593 14.7872 5.31355 15.0367 5.03473 15.2654C4.74163 15.5058 4.48841 15.8247 4.23493 16.106C4.00161 16.3649 3.73366 16.587 3.5657 16.8993C3.38234 17.2401 3.24257 17.5844 3.29311 17.9798C3.368 18.5657 3.97601 18.8725 4.38836 19.2024" stroke="black" stroke-width="0.759044" stroke-linecap="round"/>
<path d="M11.7827 12.0913C11.7827 12.2718 11.8015 12.4611 11.7478 12.6355C11.7018 12.7851 11.566 12.9325 11.4593 13.0422C11.2732 13.2336 11.0517 13.4402 10.8066 13.5516C10.6313 13.6313 10.4501 13.7017 10.2663 13.7588C10.0978 13.8111 9.93298 13.887 9.76079 13.9215" stroke="#F32D12" stroke-width="0.379522" stroke-linecap="round"/>
<path d="M22.8161 13.9561C23.1513 14.2913 23.3906 14.6837 23.6111 15.0997C23.7652 15.3904 23.9486 15.7085 24.2454 15.8734" stroke="#F32D12" stroke-width="0.379522" stroke-linecap="round"/>
<path d="M22.1538 14.6533C22.3643 14.6991 22.4655 15.0165 22.5537 15.184C22.6009 15.2736 22.6439 15.3581 22.7096 15.4357C22.7421 15.4741 22.7691 15.5111 22.7812 15.5597" stroke="#F32D12" stroke-width="0.379522" stroke-linecap="round"/>
<path d="M21.2822 15.3332C20.702 15.39 20.1447 15.5705 19.5624 15.6121C19.3284 15.6288 19.0934 15.6486 18.8623 15.5947C18.6431 15.5435 18.4294 15.4615 18.2213 15.3759C17.9525 15.2652 17.7226 15.1202 17.5173 14.9149C17.4493 14.8469 17.3742 14.7126 17.2907 14.6709" stroke="#F32D12" stroke-width="0.379522" stroke-linecap="round"/>
<path d="M7.30078 13.1919C7.30078 13.4411 7.23282 13.7013 7.17204 13.9421C7.0815 14.3007 7.03997 14.6736 6.8997 15.0191C6.78127 15.3107 6.64344 15.5988 6.50356 15.8806C6.29784 16.2952 6.0174 16.6358 5.76081 17.0171C5.46525 17.4562 5.14632 17.8584 4.81009 18.2673C4.52315 18.6164 4.2549 18.9678 3.9287 19.2824C3.62108 19.5792 3.27743 19.8097 2.8839 19.9707C2.73621 20.0311 2.58816 20.0902 2.43701 20.1416C2.35639 20.1689 2.25612 20.1775 2.182 20.2208C2.11947 20.2573 2.30955 20.1513 2.36769 20.1081C2.63748 19.908 2.89503 19.7202 3.13148 19.4768C3.38682 19.2139 3.62941 18.9246 3.8569 18.6375C4.11101 18.3167 4.29844 17.9526 4.54766 17.6286C4.77001 17.3395 5.01263 17.0377 5.19632 16.7224C5.36892 16.4262 5.52893 16.1219 5.70635 15.8287C5.80823 15.6603 5.93331 15.4991 6.01582 15.3199C6.07382 15.1939 6.11141 15.0583 6.16437 14.9299C6.28172 14.6456 6.36976 14.3494 6.45281 14.0535C6.49409 13.9064 6.50886 13.7111 6.5766 13.5756C6.58805 13.5527 6.58774 13.674 6.58774 13.6796C6.58774 13.8517 6.58774 14.0238 6.58774 14.1958C6.58774 14.5713 6.55176 14.8793 6.41939 15.2307C6.31418 15.5101 6.17745 15.793 6.00964 16.0403C5.63263 16.5959 5.31227 17.1972 4.89427 17.7239C4.58603 18.1123 4.30477 18.5173 3.91384 18.8244C3.74989 18.9532 3.42748 19.0515 3.36173 19.275C3.35603 19.2944 3.32751 19.3504 3.35926 19.3159C3.52802 19.1324 3.68412 18.9383 3.84452 18.7477C4.32729 18.1738 4.7793 17.5885 5.21242 16.9762C5.58945 16.4432 5.95009 15.901 6.29931 15.3496C6.56791 14.9255 6.89536 14.3795 6.92198 13.8604C6.92691 13.7642 6.96435 13.6724 6.96654 13.5756C6.96873 13.4795 6.93432 13.5286 6.87741 13.4717C6.76767 13.3619 6.81571 13.3824 6.77343 13.541C6.70827 13.7853 6.54556 14.015 6.41815 14.2293C6.20691 14.5844 5.97043 14.9224 5.73853 15.2642C5.13932 16.1472 4.49854 17.001 3.90394 17.8861C3.65869 18.2511 3.39647 18.6099 3.17109 18.9878C3.15033 19.0226 3.0049 19.3394 2.96684 19.3394C2.8905 19.3394 3.30136 18.6408 3.30974 18.6276C3.731 17.9631 4.13962 17.2861 4.58975 16.6407C5.18593 15.786 5.78896 14.9448 6.11486 13.9421C6.19168 13.7057 6.04543 14.0735 6.02078 14.1203C5.72036 14.6908 5.35412 15.2296 4.9636 15.742C4.15806 16.7988 3.19326 17.7638 2.55709 18.9383C2.51707 19.0122 2.48001 19.0881 2.4432 19.1636C2.43577 19.1789 2.41248 19.2502 2.42463 19.1834C2.46636 18.9539 2.5851 18.7345 2.68583 18.5273C2.90655 18.0734 3.14439 17.6278 3.40259 17.1941C3.97675 16.2297 4.60506 15.2979 5.18395 14.337C5.32538 14.1022 5.49934 13.8775 5.6296 13.6375C6.01875 12.9207 4.84398 15.0697 4.51547 15.8163C4.34006 16.2149 4.19001 16.624 4.00793 17.0195C4.00189 17.0326 3.98914 17.0707 3.98564 17.0567C3.97343 17.0078 4.04787 16.877 4.06116 16.8499C4.2657 16.433 4.49533 16.0186 4.73458 15.6207C4.93739 15.2834 5.20057 14.9566 5.36097 14.5957C5.389 14.5326 5.42584 14.3259 5.48352 14.2874C5.54231 14.2483 5.4042 14.4046 5.35973 14.4595C5.17462 14.6881 4.98693 14.9131 4.81257 15.1503C4.29761 15.8508 3.8722 16.6066 3.49543 17.3884C3.30109 17.7917 3.11912 18.2001 2.96065 18.6189C2.93136 18.6963 2.87795 18.8278 2.99284 18.6981C3.28693 18.3661 3.55482 18.0159 3.79253 17.641C4.03017 17.2661 4.244 16.8518 4.52414 16.5058C4.54394 16.4813 4.59422 16.4366 4.56746 16.5046C4.48723 16.7082 4.40207 16.9116 4.31493 17.1124C4.09173 17.6266 3.80445 18.1413 3.63779 18.6783C3.60514 18.7835 3.66416 18.635 3.67121 18.6214C3.84826 18.28 4.058 17.9518 4.25798 17.6236C4.61612 17.036 4.94542 16.4147 5.33745 15.8485C5.4853 15.6349 5.28705 16.1109 5.27308 16.1381C4.92119 16.8246 4.4952 17.4851 4.04383 18.1101C3.9199 18.2817 3.7737 18.4347 3.63655 18.5954C3.5632 18.6813 3.46819 18.7988 3.46819 18.9185C3.46819 19.0424 3.43784 19.1046 3.57961 19.0968C3.72539 19.0887 3.86276 18.6982 3.91137 18.6065C3.99143 18.4555 4.07411 18.3064 4.1639 18.1609C4.18444 18.1276 4.24561 18.0376 4.24561 18.0767C4.24561 18.1461 4.19065 18.2166 4.1639 18.2773C4.10997 18.3995 4.06366 18.5298 4.02773 18.6585C3.98461 18.813 3.92617 18.9929 3.91508 19.1537C3.88695 19.5616 4.18799 19.9135 4.43129 20.2109C4.49972 20.2945 4.78554 20.6686 4.58232 20.3619C4.25364 19.8658 4.11076 19.2322 4.19114 18.6412C4.21238 18.485 4.24514 18.2567 4.33721 18.1213C4.36098 18.0863 4.35969 18.2041 4.35826 18.2463C4.35181 18.4364 4.31972 18.6241 4.29265 18.812C4.24641 19.133 4.19993 19.4671 4.23075 19.7925C4.244 19.9323 4.31058 20.0239 4.37064 20.144C4.43014 20.263 4.56338 20.3102 4.62688 20.4213C4.64348 20.4504 4.61582 20.4244 4.58727 20.4089C4.43585 20.327 4.31479 20.215 4.20352 20.0846C4.01463 19.8633 3.87572 19.6082 3.86928 19.3121C3.86223 18.9878 3.84185 19.9608 3.847 20.2852C3.84784 20.3382 3.94806 20.4631 3.90394 20.4337C3.75603 20.3351 3.64505 20.0623 3.58208 19.9014C3.58035 19.897 3.52206 19.7392 3.54495 19.7405C3.59123 19.743 3.69103 19.8969 3.71702 19.9262C3.88627 20.1166 4.04235 20.3299 4.24561 20.4869C4.31286 20.5389 4.28009 20.5095 4.23818 20.4634C4.13343 20.3482 4.02086 20.2421 3.90642 20.1366C3.82824 20.0646 3.74638 19.9962 3.67864 19.9138C3.66291 19.8946 3.63468 19.8409 3.67245 19.8952C3.73383 19.9834 3.80677 20.182 3.90023 20.2381C3.9089 20.2433 3.89822 20.2176 3.89404 20.2084C3.84513 20.1008 3.78425 19.9981 3.73311 19.8915C3.57607 19.5642 3.43307 19.2283 3.31469 18.8851C3.01511 18.0163 2.85146 16.992 3.24042 16.1282C3.32385 15.9429 3.412 15.7423 3.53009 15.5761C3.63658 15.4263 3.60025 15.572 3.56475 15.69C3.40971 16.2057 3.17874 16.7036 2.97798 17.2027C2.92946 17.3234 2.88343 17.4451 2.83438 17.5654C2.82884 17.579 2.782 17.6725 2.82448 17.6088C3.01397 17.3245 3.17552 17.0216 3.35307 16.7299C3.44797 16.5739 3.562 16.4452 3.66874 16.3003C3.82551 16.0875 3.98027 15.8778 4.13172 15.6578C4.14111 15.6442 4.24115 15.4679 4.16638 15.5291C4.04253 15.6304 3.94617 15.7784 3.84576 15.9005C3.71128 16.064 3.56954 16.2241 3.44839 16.3981C3.43682 16.4147 3.34146 16.5352 3.36421 16.5665C3.42423 16.649 3.70991 16.5624 3.77025 16.5442C4.53495 16.3134 5.12442 15.7542 5.68159 15.2109C5.83765 15.0588 5.98355 14.8799 6.16314 14.7541C6.19622 14.731 6.24454 14.6989 6.28693 14.7083C6.42299 14.7386 6.22063 15.6404 6.20399 15.737C6.14088 16.1035 6.18102 16.5441 5.76824 16.6902C5.31943 16.8492 5.39851 15.1651 5.48723 14.9336C5.51308 14.8662 5.63174 14.5874 5.7212 14.5746C5.82755 14.5595 5.88462 14.6256 5.91679 14.7244C6.03409 15.0847 5.84866 15.554 5.61969 15.8262C5.50387 15.9639 5.31993 16.1352 5.13443 16.1728C5.00301 16.1994 4.84958 16.1777 4.71601 16.1777" stroke="#F32D12" stroke-width="0.379522" stroke-linecap="round"/>
<path d="M21.0622 12.5835C21.0829 12.6133 21.0702 12.6005 21.1256 12.6234C21.2993 12.6952 21.4704 12.7644 21.6384 12.8499C22.2245 13.1479 22.7425 13.5653 23.2636 13.9611C24.0311 14.5441 24.7989 15.1286 25.5413 15.7436C25.78 15.9413 26.0212 16.1341 26.2747 16.3127C26.5591 16.5132 26.8197 16.7469 27.1031 16.9464C27.1475 16.9776 27.2342 17.011 27.251 17.0614" stroke="black" stroke-width="0.759044" stroke-linecap="round"/>
<path d="M27.3142 17.3784C27.2945 18.5036 26.8 19.5552 26.7275 20.6758C26.721 20.7765 26.7228 21.0795 26.7228 20.9785C26.7228 20.5231 26.7375 20.0654 26.7181 19.6103C26.6983 19.1468 26.5961 18.6863 26.5961 18.2233C26.5961 17.8949 26.4901 17.6677 26.3004 17.4113C26.1168 17.1632 25.9591 16.9222 25.7394 16.7025C25.6651 16.6282 25.5899 16.5488 25.52 16.4702C25.3934 16.3277 25.6266 16.5031 25.6643 16.5312C25.969 16.758 26.2518 17.0123 26.5491 17.2482C26.6834 17.3547 26.8039 17.4907 26.9551 17.5732C27.0024 17.599 27.2693 17.8457 27.2931 17.822" stroke="black" stroke-width="0.759044" stroke-linecap="round"/>
<path d="M27.5942 17.0557C27.5942 17.3798 27.5942 17.7039 27.5942 18.0281C27.5942 18.2944 27.5865 18.5623 27.6007 18.8284C27.6212 19.2137 27.7218 19.5826 27.8645 19.9399C28.0242 20.3402 28.2318 20.7198 28.4291 21.1022C28.6495 21.5293 28.8573 21.9602 29.116 22.3665C29.4285 22.8574 29.795 23.3207 30.1761 23.7604C30.3617 23.9746 30.5893 24.1498 30.7648 24.3741C30.8257 24.452 30.7298 24.3489 30.7182 24.3379C30.5206 24.1518 30.3182 23.9711 30.1423 23.7636C29.7037 23.2462 29.413 22.6121 29.0388 22.0488C28.8143 21.711 28.6294 21.3642 28.4918 20.9823C28.412 20.7608 28.3533 20.5232 28.2457 20.3139C28.0976 20.026 27.8974 19.7835 27.6634 19.5603C27.4963 19.4009 27.3249 19.2475 27.1615 19.0841C27.1426 19.0652 27.1237 19.0403 27.102 19.0246C27.0884 19.0148 27.0927 19.2483 27.0939 19.2627C27.1338 19.727 27.2932 20.1992 27.4712 20.6276C27.5872 20.9069 27.7515 21.1907 27.9932 21.3813C28.0666 21.4391 27.9783 21.2814 27.9763 21.2775C27.8139 20.9684 27.6289 20.6729 27.4897 20.3517C27.3077 19.9321 27.2011 19.4952 27.2468 19.0391" stroke="black" stroke-width="0.759044" stroke-linecap="round"/>
<path d="M21.0423 12.521C21.1038 12.521 21.1645 12.5347 21.2243 12.5483C21.5696 12.6268 21.9043 12.7441 22.2308 12.8804C23.101 13.2436 23.9264 13.6936 24.8115 14.0223C25.2992 14.2035 25.7652 14.4139 26.2263 14.6547C26.5833 14.841 26.9366 15.0431 27.3045 15.2074C27.6856 15.3776 28.0693 15.5312 28.4612 15.6737C28.8047 15.7986 29.1622 15.9177 29.4837 16.0934C29.669 16.1947 29.8415 16.3269 30.0296 16.421C30.0355 16.4239 30.1339 16.4818 30.1001 16.4915C29.7611 16.5883 29.4514 16.7895 29.1197 16.9225C28.6054 17.1288 28.078 17.247 27.5229 17.266C27.3531 17.2718 26.618 17.3405 26.5948 17.0294C26.5877 16.9341 26.7624 16.8678 26.8223 16.8406C27.0748 16.7263 27.3416 16.685 27.6162 16.6689C28.0136 16.6457 28.3899 16.6629 28.7808 16.728C28.902 16.7482 29.0346 16.7741 29.1584 16.7576C29.2083 16.751 29.2527 16.7096 29.3028 16.6985C29.3771 16.682 29.4822 16.6247 29.3859 16.5336C29.225 16.3814 28.8692 16.4021 28.6705 16.3914C28.2916 16.3709 27.9195 16.3381 27.5502 16.2458C27.3366 16.1924 27.1196 16.1401 26.9133 16.0627C26.6243 15.9543 26.3955 15.7593 26.1558 15.5714C25.555 15.1002 24.8659 14.7612 24.2564 14.3021C24.1592 14.2289 24.0611 14.1441 23.9516 14.0894C23.9283 14.0778 23.9002 14.0682 23.9471 14.086C24.1487 14.1625 24.3383 14.2865 24.5248 14.3919C25.2071 14.7777 25.8678 15.206 26.5573 15.5782C26.8374 15.7294 27.0969 15.805 27.4001 15.8796C27.7195 15.9582 28.0271 16.1075 28.3509 16.1605C28.4788 16.1814 28.6137 16.1993 28.7353 16.2469C28.8 16.2723 28.8156 16.3012 28.8832 16.2674" stroke="black" stroke-width="0.759044" stroke-linecap="round"/>
<path d="M30.0705 16.5332C30.0705 17.0614 30.0491 17.5933 30.1365 18.1164C30.3061 19.1313 30.8182 20.0406 31.5695 20.7414C31.877 21.0282 32.2139 21.2834 32.534 21.5557C32.7348 21.7265 32.9264 21.9132 33.1368 22.0721C33.1666 22.0946 33.4052 22.2255 33.4052 22.2757C33.4052 22.3366 32.9102 22.1763 32.8923 22.1699C32.18 21.9144 31.5779 21.2874 31.1794 20.6652C30.8075 20.0844 30.561 19.4332 30.1899 18.8534C29.93 18.4472 29.7504 18.0008 29.5064 17.5864C29.4163 17.4334 29.3247 17.2299 29.2971 17.0541C29.2896 17.0062 29.2717 16.9073 29.3176 17.0154C29.4397 17.3033 29.4982 17.6325 29.5837 17.9321C29.7664 18.5721 29.9252 19.219 30.116 19.8565C30.242 20.2778 30.3787 20.7096 30.6096 21.0871C30.798 21.3952 31.0404 21.669 31.2943 21.9242C31.4877 22.1187 31.6856 22.3258 31.9142 22.4793C32.2671 22.7163 32.7881 22.8796 33.221 22.8796C33.3315 22.8796 33.1528 22.8152 33.1311 22.8045C32.6655 22.5759 32.1865 22.3758 31.7151 22.1597C31.2731 21.957 30.8173 21.7575 30.4413 21.4431C30.1246 21.1783 29.8924 20.8645 29.6861 20.5094C29.3052 19.8535 29.1382 19.0848 29.0969 18.3325C29.0694 17.8296 29.0527 17.2505 29.2152 16.7629C29.3008 16.5063 29.1657 17.3018 29.1333 17.5705C29.074 18.0636 29.0426 18.5744 29.0947 19.0695C29.1702 19.7879 29.4375 20.386 29.9238 20.9188C30.5536 21.6089 31.376 22.1107 32.1098 22.6806C32.2309 22.7746 32.3547 22.87 32.4715 22.9695C32.4837 22.9799 32.5415 23.0167 32.5465 23.0343C32.5614 23.0865 32.4452 23.0617 32.4305 23.0604C32.0046 23.0239 31.5967 22.7999 31.242 22.5782C30.079 21.8513 29.1952 20.7855 28.6829 19.5199C28.4383 18.9154 28.3053 18.2793 28.1825 17.641C28.1432 17.4363 28.1482 17.2077 28.0893 17.0086C28.0504 16.8774 28.1589 17.2733 28.1893 17.4067C28.3298 18.0227 28.4314 18.6438 28.5305 19.2674C28.6566 20.0607 28.7849 20.865 29.4359 21.4067C30.0885 21.9498 30.8392 22.3655 31.4888 22.916C31.5558 22.9728 31.6396 23.0247 31.6958 23.0934C31.737 23.1438 31.4557 23.1121 31.4513 23.1116C31.0083 23.0648 30.5597 22.9346 30.149 22.7659C29.7802 22.6143 29.436 22.4146 29.1936 22.0914C28.9148 21.7196 28.813 21.2882 28.7421 20.8369C28.6573 20.2974 28.6098 19.7525 28.5442 19.2105C28.5142 18.9629 28.4737 18.7275 28.4737 18.4781C28.4737 18.4432 28.4747 18.3443 28.4532 18.4394C28.3962 18.6913 28.3598 18.9497 28.3304 19.206C28.2916 19.5434 28.254 19.9086 28.3167 20.2455C28.3862 20.6185 28.5873 20.9622 28.8445 21.2373C29.468 21.9043 30.3488 22.277 31.0043 22.9137C31.1079 23.0144 31.2696 23.2526 31.424 23.2697C31.5821 23.2873 31.6963 23.2718 31.8402 23.1969C31.8751 23.1788 31.9745 23.1164 31.9449 23.1423C31.7924 23.2757 31.6371 23.4056 31.482 23.5359C31.2753 23.7093 31.0713 23.8858 30.8655 24.0602C30.8212 24.0977 30.7757 24.1334 30.7302 24.1694C30.6739 24.2138 30.8398 24.0771 30.8962 24.0329C31.226 23.7744 31.5736 23.5432 31.9312 23.3254C32.0767 23.2368 32.2354 23.1056 32.3998 23.0525C32.5145 23.0154 32.4566 23.109 32.4135 23.1639C32.2543 23.3667 32.0578 23.5448 31.863 23.7121C31.7848 23.7793 31.7107 23.8431 31.6423 23.9191C31.5895 23.9779 31.77 23.8259 31.8311 23.7758C32.0037 23.6343 32.1597 23.4733 32.3247 23.3232C32.3833 23.2699 32.5374 23.1914 32.567 23.1173C32.5991 23.0371 32.4873 23.2721 32.4328 23.3391C32.2399 23.5761 32.0072 23.7803 31.7856 23.9897C31.7104 24.0608 31.483 24.272 31.5616 24.2046C31.7265 24.0632 31.9085 23.9388 32.0768 23.8009C32.4887 23.4633 32.9357 23.1519 33.4075 22.916C33.416 22.9118 33.442 22.9024 33.4325 22.9024C33.4137 22.9024 33.3449 22.9445 33.3393 22.9478C33.0465 23.1194 32.7686 23.3194 32.4817 23.5006C32.0168 23.7943 31.5566 24.0698 31.0623 24.3081C30.9655 24.3548 30.9878 24.3186 30.9463 24.2467C30.7681 23.9379 30.6166 23.6083 30.4003 23.3232C30.2822 23.1675 30.4615 23.3369 30.53 23.3493C30.6016 23.3623 30.5115 23.2112 30.5095 23.2072C30.3192 22.8075 30.0956 22.4248 29.9022 22.0266C29.7841 21.7835 29.6686 21.5381 29.5621 21.2896C29.5423 21.2434 29.5665 21.2698 29.5906 21.2941C29.684 21.3887 29.7705 21.4905 29.8533 21.5944C30.1245 21.9347 30.3886 22.2908 30.6244 22.6567C30.7391 22.8347 30.8511 23.0328 30.9212 23.2345C30.9433 23.2977 30.7942 23.2057 30.7825 23.1981C30.6548 23.1145 30.525 23.0274 30.4026 22.9365C30.0279 22.6581 29.7338 22.3797 29.5496 21.9493C29.0655 20.818 28.5215 19.7277 28.2189 18.5292C28.1314 18.1828 28.0253 17.7965 28.2394 17.4829C28.2638 17.4471 28.5249 17.0166 28.6056 17.0973C28.6342 17.1259 28.617 17.2205 28.617 17.2531C28.617 17.4672 28.6228 17.6822 28.6045 17.8957C28.6014 17.9313 28.5371 18.3592 28.5146 18.3143" stroke="black" stroke-width="0.759044" stroke-linecap="round"/>
<path d="M18.7036 12.5665C18.7036 12.5256 18.6991 12.5164 18.7476 12.5159C18.8019 12.5153 18.8602 12.5102 18.9125 12.5271C19.0173 12.5609 19.1162 12.6266 19.1993 12.6977C19.2125 12.709 19.2661 12.7489 19.2199 12.7567C19.1182 12.7738 18.9979 12.7357 18.9069 12.6949C18.797 12.6455 18.6911 12.5839 18.5949 12.5112C18.5729 12.4946 18.5505 12.4712 18.5452 12.4428C18.5333 12.3793 18.5539 12.3113 18.5415 12.2479C18.5368 12.2242 18.5096 12.1465 18.5096 12.2141C18.5096 12.3195 18.5359 12.4845 18.4759 12.5796C18.4725 12.5849 18.4878 12.5757 18.4937 12.5735C18.5319 12.5593 18.5715 12.5479 18.6108 12.5374C18.7774 12.493 18.9489 12.4746 19.1206 12.4625C19.2395 12.4541 19.3622 12.4482 19.4757 12.4906C19.5445 12.5163 19.609 12.5537 19.6716 12.5918C19.7809 12.6583 19.8866 12.7256 19.9902 12.8007C20.0656 12.8555 20.134 12.9251 20.2047 12.9863C20.2551 13.0298 20.3381 13.0745 20.365 13.1381C20.3843 13.1838 20.3782 13.223 20.3837 13.2711C20.3907 13.3325 20.4055 13.3949 20.4071 13.4567C20.4077 13.4785 20.4114 13.5437 20.4071 13.5223C20.3992 13.4828 20.3515 13.4182 20.3209 13.393C20.2733 13.3536 20.2178 13.3194 20.1626 13.2918C20.1294 13.2752 20.0852 13.2769 20.0492 13.2665C19.9093 13.2258 19.7559 13.232 19.6125 13.2224C19.36 13.2056 19.1079 13.2243 18.8554 13.2243C18.612 13.2243 18.3769 13.1982 18.1376 13.1531C17.969 13.1213 17.7964 13.1171 17.6288 13.0809C17.551 13.0641 17.4814 13.0227 17.403 13.005C17.323 12.987 17.2437 12.9917 17.1631 12.9797C16.9185 12.9433 16.6929 12.8516 16.4537 12.7923C16.3676 12.771 16.2885 12.7388 16.2007 12.7248C16.138 12.7149 16.0894 12.6853 16.0302 12.6658C15.9596 12.6425 15.8853 12.6063 15.8212 12.5684C15.8058 12.5593 15.7702 12.5414 15.7622 12.5243C15.7563 12.5118 15.8117 12.4859 15.8193 12.4803C15.9095 12.4138 16.0052 12.361 16.1023 12.305C16.1989 12.2494 16.2933 12.1922 16.3909 12.1382C16.4779 12.0901 16.5568 12.0295 16.6458 11.9846C16.7416 11.9362 16.8335 11.9 16.9372 11.8731C17.0352 11.8477 17.1239 11.8027 17.2259 11.7925C17.3655 11.7785 17.5055 11.7822 17.6457 11.7822C17.7463 11.7822 17.8522 11.7882 17.9493 11.8178C18.0596 11.8514 18.175 11.9134 18.265 11.9846C18.2991 12.0115 18.3308 12.0413 18.3644 12.0689C18.3779 12.08 18.4003 12.1044 18.3653 12.0848C18.2627 12.0276 18.1752 11.9652 18.0542 11.9527C17.971 11.9442 17.888 11.9359 17.805 11.9274C17.6065 11.9071 17.3972 11.9255 17.1977 11.9255C16.9909 11.9255 16.8136 12.0276 16.6449 12.1429C16.5362 12.2172 16.4229 12.2917 16.3225 12.3772C16.2546 12.4352 16.333 12.3872 16.3628 12.3669C16.5099 12.2667 16.6734 12.1827 16.8304 12.0989C16.9693 12.0248 17.1185 11.9718 17.2765 11.9611C17.3928 11.9533 17.5112 11.9593 17.6278 11.9593C17.738 11.9593 17.8459 11.9646 17.953 11.9911C18.2148 12.056 18.4544 12.1767 18.6764 12.3285C18.7663 12.3899 18.8631 12.4421 18.9519 12.5046C18.9606 12.5108 19.0824 12.6026 19.0287 12.6068C18.8186 12.6229 18.5907 12.5402 18.3981 12.4653C18.3475 12.4456 18.3382 12.4734 18.326 12.5234C18.3023 12.62 18.3242 12.7153 18.4065 12.7754C18.4377 12.7982 18.5082 12.8345 18.5433 12.8111" stroke="black" stroke-width="0.379522" stroke-linecap="round"/>
<path d="M16.5867 12.6426C16.3891 12.6426 16.1914 12.651 15.9945 12.651C15.9182 12.651 15.823 12.6337 15.7668 12.6913C15.7421 12.7165 15.7166 12.739 15.6862 12.7569C15.6724 12.765 15.6578 12.7545 15.6506 12.7691" stroke="black" stroke-width="0.379522" stroke-linecap="round"/>
<path d="M15.7264 12.3218C15.7449 12.3403 15.9159 12.199 15.9288 12.1897C16.0609 12.0948 16.1979 12.008 16.3383 11.9259C16.4483 11.8617 16.5613 11.7919 16.6813 11.7484C16.7984 11.7059 16.9191 11.6722 17.0378 11.6345C17.2641 11.5626 17.4843 11.4711 17.7064 11.3876C17.881 11.322 18.0717 11.3307 18.248 11.3895C18.5165 11.479 18.757 11.6376 19.0075 11.7652C19.1688 11.8474 19.3251 11.9381 19.484 12.0248C19.629 12.1039 19.7775 12.1823 19.9104 12.2811C20.1472 12.4572 20.3333 12.6828 20.4707 12.944C20.5214 13.0403 20.5554 13.1488 20.5925 13.2509C20.6356 13.3692 20.6744 13.4868 20.6853 13.6122" stroke="black" stroke-width="0.379522" stroke-linecap="round"/>
<path d="M7.4568 13.0747C7.4568 13.1855 7.4388 13.3074 7.48246 13.4093C7.57141 13.6168 7.66365 13.8195 7.75715 14.0252C7.81094 14.1435 7.88226 14.2679 7.96625 14.3673C7.98282 14.3869 8.09475 14.5185 8.06889 14.4909C7.88524 14.2946 7.71906 14.0228 7.62218 13.7704C7.57308 13.6426 7.55124 13.506 7.50908 13.376C7.44977 13.1931 7.54555 13.4203 7.56991 13.4729C7.70701 13.7694 7.7831 14.1208 7.99571 14.3759C8.02566 14.4118 7.99221 14.5251 7.97955 14.5631C7.95295 14.6429 7.89623 14.7113 7.83318 14.7646C7.75702 14.8291 7.66573 14.8712 7.59367 14.9395C7.46123 15.065 7.31745 15.1789 7.16976 15.2855C6.97112 15.4288 6.80526 15.603 6.58809 15.7236C6.45878 15.7955 6.34109 15.8729 6.22596 15.965C5.87867 16.2429 6.87571 15.3571 7.18592 15.0383C7.40797 14.8102 7.51505 14.5747 7.52523 14.259C7.52626 14.2273 7.57903 13.7573 7.49482 13.7666C7.47002 13.7694 7.55585 14.2149 7.5604 14.239C7.58684 14.3791 7.62126 14.5159 7.6621 14.6525C7.66959 14.6775 7.71071 14.7646 7.69442 14.7931C7.66807 14.8392 7.36551 14.8026 7.31233 14.8026C7.14237 14.8026 7.10184 14.769 7.11749 14.5916C7.13348 14.4104 7.21038 14.2214 7.30663 14.067C7.34574 14.0042 7.40046 13.9136 7.42259 14.0347C7.45656 14.2205 7.44526 14.3984 7.31613 14.546C7.23403 14.6398 7.12041 14.6687 7.01199 14.6144" stroke="#F32D12" stroke-width="0.379522" stroke-linecap="round"/>
<path d="M30.0908 19.9629C30.1467 19.9789 30.2263 20.1334 30.2534 20.172C30.4115 20.3973 30.5647 20.6257 30.713 20.8575C30.9543 21.2348 31.149 21.652 31.5547 21.8683" stroke="#F32D12" stroke-width="0.379522" stroke-linecap="round"/>
<path d="M31.0901 22.6813C30.8176 22.5127 30.6043 22.185 30.4085 21.9416C30.1574 21.6296 30.0244 21.2768 29.9282 20.8921" stroke="#F32D12" stroke-width="0.379522" stroke-linecap="round"/>
<path d="M23.5006 13.8989C23.8063 13.8989 24.0286 13.9233 24.3293 14.0477C25.7049 14.6172 26.9951 15.3936 28.2913 16.1201" stroke="#F32D12" stroke-width="0.379522" stroke-linecap="round"/>
<path d="M8.3479 22.8418C8.12681 22.8418 7.90573 22.8418 7.68464 22.8418C7.43809 22.8418 7.19714 22.8365 6.95805 22.7685C6.73918 22.7062 6.53271 22.6082 6.33145 22.5036C5.85936 22.2581 5.52239 21.8287 5.39322 21.312" stroke="black" stroke-width="0.379522" stroke-linecap="round"/>
</svg>
