<svg width="37" height="38" viewBox="0 0 37 38" fill="none" xmlns="http://www.w3.org/2000/svg">
<rect x="-0.519772" y="0.519772" width="34.305" height="35.8643" rx="4.67795" transform="matrix(-1 0 0 1 35.3049 0.942871)" fill="#F4FF95" stroke="black" stroke-width="1.03954"/>
<path d="M20.3697 6.15175C20.3697 5.80181 20.6959 5.40658 20.9224 5.16683C21.1257 4.95161 21.3737 4.76568 21.6132 4.59246C21.8379 4.42996 22.0837 4.31983 22.3633 4.29441C22.6621 4.26725 22.8894 4.30588 23.1271 4.49377C23.3248 4.64998 23.4889 4.84175 23.585 5.07603C23.7471 5.47115 23.8662 5.9226 23.9048 6.34715" stroke="black" stroke-width="1.03954" stroke-linecap="round"/>
<path d="M16.5934 5.92665C16.5934 5.57672 16.2672 5.18148 16.0407 4.94173C15.8374 4.72652 15.5894 4.54058 15.3499 4.36736C15.1252 4.20486 14.8794 4.09473 14.5999 4.06932C14.301 4.04215 14.0737 4.08078 13.836 4.26867C13.6384 4.42489 13.4742 4.61665 13.3781 4.85094C13.2161 5.24605 13.0969 5.69751 13.0583 6.12206" stroke="black" stroke-width="1.03954" stroke-linecap="round"/>
<path d="M28.0702 21.9795C29.1717 21.9795 30.2096 22.6468 31.1421 23.1745C32.0508 23.6887 32.8164 24.2272 33.5562 24.9669C34.1003 25.511 34.6243 26.0769 35.1344 26.6507C35.1889 26.712 35.5219 27.1939 35.4573 27.1939" stroke="black" stroke-width="1.03954" stroke-linecap="round"/>
<path d="M7.58716 21.2856C7.1387 21.5272 6.67939 21.758 6.25323 22.0386C6.08247 22.151 5.9317 22.2888 5.75897 22.3985C5.5521 22.5298 5.34413 22.6507 5.1303 22.7699C4.57406 23.0799 4.04316 23.4901 3.55646 23.8986C2.99598 24.369 2.5059 24.8932 2.16328 25.5403C2.04393 25.7658 1.93114 26.0107 1.83811 26.2485C1.71182 26.5712 1.68717 26.9101 1.60398 27.2428" stroke="black" stroke-width="1.03954" stroke-linecap="round"/>
<path d="M23.0539 24.4463C23.0539 24.9173 23.0707 25.3917 23.05 25.8622C23.0067 26.846 22.5629 27.8301 22.2773 28.7598C21.9991 29.6654 21.6924 30.5558 21.2921 31.4159C21.0509 31.9343 20.7757 32.5012 20.4538 32.9767C20.0216 33.6152 19.5779 34.2651 19.2117 34.9432C18.9832 35.3663 18.5886 35.6644 18.325 36.0598" stroke="black" stroke-width="1.03954" stroke-linecap="round"/>
<path d="M12.6513 24.3325C12.6513 24.9137 12.5969 25.5221 12.6784 26.0981C12.7999 26.957 13.2502 27.7429 13.4866 28.5725C13.6466 29.1339 13.7543 29.6835 13.9788 30.2252C14.2401 30.8557 14.5096 31.4815 14.8458 32.0765C15.3354 32.9432 15.8577 33.8116 16.2501 34.7271C16.4024 35.0824 16.5933 35.5633 16.5933 35.9553" stroke="black" stroke-width="1.03954" stroke-linecap="round"/>
<path d="M21.8235 27.1102C21.6095 27.1734 21.4289 27.2873 21.2482 27.4171C21.0066 27.5908 20.7625 27.7645 20.5306 27.951C20.4569 28.0103 20.3816 28.0779 20.3276 28.1559C20.3009 28.1945 20.2878 28.2139 20.2333 28.1963C20.1367 28.1652 20.0514 28.0751 19.9793 28.0097C19.7355 27.7885 19.4981 27.5595 19.2588 27.3334C18.8804 26.9759 18.5126 26.5995 18.1092 26.2695C18.0714 26.2386 17.9134 26.0713 17.8581 26.0713" stroke="black" stroke-width="1.03954" stroke-linecap="round"/>
<path d="M17.8582 26.0713C17.8177 26.0814 17.7828 26.1167 17.7523 26.1425C17.6098 26.2627 17.472 26.3895 17.3358 26.5167C17.0602 26.774 16.7855 27.038 16.5267 27.3123C16.2864 27.567 16.015 27.8335 15.8158 28.1223C15.7749 28.1816 15.7325 28.242 15.6975 28.3051C15.665 28.3636 15.5028 28.2631 15.4762 28.2502C14.9696 28.0039 14.5068 27.674 14.0448 27.3546C13.774 27.1675 13.4874 27.0101 13.2001 26.8505" stroke="black" stroke-width="1.03954" stroke-linecap="round"/>
<path d="M19.7682 28.8357C18.9601 28.8357 18.1486 28.8549 17.3407 28.8344C17.0102 28.8261 16.6817 28.7715 16.3507 28.7647C16.1619 28.7608 15.5988 28.7734 15.7846 28.7396C16.154 28.6725 16.5408 28.6936 16.9141 28.6936C17.3156 28.6936 17.6714 28.7109 18.0621 28.8068C18.3272 28.8719 18.6304 28.9396 18.9033 28.9529C19.1262 28.9638 19.3581 28.9905 19.5681 29.0674C19.7133 29.1206 19.8955 29.1245 20.0288 29.1912" stroke="black" stroke-width="1.03954" stroke-linecap="round"/>
<path d="M20.0763 28.9307C20.0763 29.2028 20.0997 29.4845 20.0263 29.7495C19.9324 30.0884 19.7595 30.4339 19.5866 30.7394C19.5247 30.8488 19.3778 31.2529 19.2101 31.2529C18.9905 31.2529 18.766 31.3115 18.5466 31.3292C18.0913 31.3659 17.6527 31.395 17.1933 31.395C16.966 31.395 16.7387 31.395 16.5114 31.395C16.4363 31.395 16.3304 31.1759 16.2968 31.1199C16.0282 30.6721 15.924 30.117 15.7992 29.6178C15.7761 29.5252 15.7489 29.2995 15.6873 29.2203C15.4982 28.9772 16.1121 29.6666 16.3166 29.8969C16.5129 30.118 16.7044 30.3388 16.8721 30.5828C16.9332 30.6716 17.032 30.7779 17.0643 30.8829C17.0778 30.9268 17.0329 30.9167 17.009 30.9C16.8594 30.7956 16.7599 30.5968 16.7141 30.4261C16.5873 29.9533 17.1196 29.8548 17.4777 29.8548C17.5712 29.8548 18.1643 29.9776 17.8607 30.1484C17.6622 30.2601 16.9683 30.3546 16.93 30.0101C16.8864 29.6172 17.5655 29.5307 17.8318 29.552C18.1228 29.5753 18.3339 29.7082 18.515 29.9338C18.598 30.0372 18.7153 30.2075 18.6914 30.3511C18.6606 30.5361 18.3487 30.5765 18.207 30.592C17.8793 30.6278 17.3667 30.6025 17.1091 30.3629C16.6009 29.8905 17.4321 29.5369 17.8199 29.4809C18.2606 29.4174 18.755 29.4487 19.0376 29.8416C19.2461 30.1314 19.1114 30.5054 18.7191 30.434C18.2988 30.3576 17.9516 29.7106 18.3465 29.394C18.5519 29.2294 19.0894 29.2129 19.2799 29.4085C19.6078 29.7454 19.1132 29.9533 18.831 29.9864C18.4401 30.0323 18.1051 30.0169 17.7357 29.8785C17.5154 29.796 17.3173 29.6771 17.1196 29.552C17.0619 29.5155 16.7991 29.3723 16.8352 29.2637C16.8707 29.1574 17.2822 29.2668 17.3355 29.3243C17.5547 29.561 17.224 29.6264 17.0406 29.6126C16.9235 29.6037 16.7833 29.5884 16.6931 29.5046C16.6619 29.4757 16.6823 29.4757 16.7115 29.4757" stroke="black" stroke-width="1.03954" stroke-linecap="round"/>
<path d="M19.362 32.3856C19.0695 32.3856 18.7661 32.3633 18.4745 32.3866C18.3105 32.3997 18.156 32.4215 17.9898 32.4215C17.9089 32.4215 17.7772 32.4373 17.7016 32.4664C17.5947 32.5075 17.4354 32.4867 17.3196 32.5073C17.1884 32.5306 17.0443 32.5067 16.9167 32.5432C16.7851 32.5808 16.528 32.5001 16.468 32.6489C16.406 32.8027 16.3467 32.9764 16.3104 33.1395C16.284 33.2586 16.2027 33.3313 16.2027 33.4627C16.2027 33.7612 16.32 34.0679 16.4889 34.3123C16.6114 34.4896 16.7303 34.6683 16.8569 34.8429C16.897 34.8981 16.9592 35.0073 17.0205 35.0423C17.0799 35.0763 17.1539 35.1428 17.186 35.2039C17.2427 35.3116 17.3434 35.4148 17.4632 35.4592C17.5543 35.4929 17.619 35.5265 17.7146 35.4831C17.8718 35.4116 18.0099 35.2037 18.1115 35.0722C18.2926 34.8377 18.4851 34.6122 18.6719 34.3821C18.784 34.2441 18.9074 34.0979 19.0499 33.9902C19.1793 33.8923 19.3038 33.7838 19.3979 33.6511C19.5237 33.4739 19.6697 33.3068 19.7829 33.1216C19.8218 33.0579 19.8626 32.9697 19.7829 32.9241C19.7099 32.8824 19.6562 32.8164 19.5874 32.7725C19.5016 32.718 19.3717 32.7267 19.2723 32.7267C19.0156 32.7267 18.7776 32.7474 18.5343 32.8384C18.3567 32.9048 18.1856 32.9618 18.0157 33.0458C17.885 33.1104 17.7511 33.1763 17.6168 33.2333C17.4156 33.3186 17.2385 33.4537 17.172 33.6741C17.0958 33.927 17.0881 34.3305 17.3007 34.5207C17.4533 34.6573 17.7733 34.6766 17.9439 34.5676C18.1039 34.4654 18.2325 34.2995 18.3588 34.1607C18.4524 34.0579 18.5467 33.9549 18.625 33.8396C18.7469 33.6604 18.8731 33.5016 18.8395 33.2742C18.8265 33.1864 18.745 33.0924 18.65 33.1356C18.4358 33.2329 18.274 33.5414 18.1773 33.7439C18.0752 33.9577 17.9358 34.3279 17.6388 34.3063C17.4975 34.2961 17.4078 34.0881 17.3296 33.9912C17.2642 33.9101 17.2116 33.8327 17.172 33.7359C17.1223 33.6143 17.0559 33.4904 16.9387 33.4267C16.9071 33.4096 16.8567 33.3907 16.831 33.3649C16.8051 33.3391 16.7903 33.2987 16.7592 33.2831" stroke="black" stroke-width="1.03954" stroke-linecap="round"/>
<path fill-rule="evenodd" clip-rule="evenodd" d="M16.171 5.66706C16.7938 5.634 17.4532 5.62061 18.1527 5.62061C19.2057 5.62061 20.1839 5.66535 21.0924 5.76958L19.96 6.71327C19.3918 6.67714 18.7902 6.66015 18.1527 6.66015C17.8728 6.66015 17.6013 6.6624 17.3378 6.66718L16.171 5.66706ZM12.8281 7.24008L13.6861 5.95299C9.80317 6.71564 7.63132 9.05103 5.67822 15.4963C3.98451 21.0855 11.2633 25.3719 18.1527 25.3719C25.0422 25.3719 31.9267 20.9539 30.6273 15.4963C29.2909 9.88353 27.0624 7.27602 23.4491 6.22624L23.7938 7.43275C24.4827 7.68657 25.0975 8.01001 25.6502 8.41322C27.3848 9.67855 28.695 11.8687 29.616 15.7371C30.1339 17.9123 29.0702 20.0003 26.8434 21.6444C24.6188 23.287 21.3966 24.3324 18.1527 24.3324C14.8975 24.3324 11.5737 23.3136 9.3025 21.6852C7.03506 20.0596 6.00445 18.0042 6.67308 15.7977C7.9572 11.5602 9.27106 9.37344 10.9155 8.18485C11.4808 7.77623 12.1084 7.46827 12.8281 7.24008Z" fill="black"/>
<path d="M17.5222 6.11914C17.4161 6.11914 17.3099 6.11914 17.2038 6.11914C17.0663 6.11914 16.9311 6.17299 16.7936 6.17299C16.7423 6.17299 16.6983 6.20628 16.6487 6.20889C16.6345 6.20963 16.6169 6.22254 16.6038 6.22983C16.5904 6.2373 16.5929 6.23185 16.6105 6.23315C16.6517 6.23621 16.6904 6.24478 16.7325 6.24478C16.8383 6.24478 16.9502 6.25228 17.0542 6.23149C17.1034 6.22164 17.152 6.21293 17.2021 6.20922C17.3016 6.20185 17.3994 6.17451 17.4983 6.16102" stroke="black" stroke-width="1.03954" stroke-linecap="round"/>
<path d="M20.5076 5.96973C20.5076 6.08195 20.414 6.16099 20.3314 6.22234C20.2837 6.25778 20.2573 6.26888 20.1991 6.26888C20.116 6.26888 20.0345 6.27486 19.9511 6.27486" stroke="black" stroke-width="1.03954" stroke-linecap="round"/>
<path d="M13.262 5.93506C13.262 6.04059 13.2527 6.12964 13.2303 6.23253C13.2083 6.33391 13.1529 6.46901 13.0819 6.54547C13.0064 6.62683 12.9462 6.66137 12.8506 6.71285C12.8008 6.73964 12.7402 6.75269 12.6867 6.77051C12.5465 6.81724 12.4168 6.88312 12.2999 6.97305" stroke="black" stroke-width="1.03954" stroke-linecap="round"/>
<path d="M24.1479 6.99854C24.0788 6.99854 23.9734 6.89554 23.9426 6.83398C23.9112 6.77116 23.9074 6.70134 23.9074 6.63145C23.9074 6.47395 23.8868 6.31897 23.8695 6.16309" stroke="black" stroke-width="1.03954" stroke-linecap="round"/>
<path d="M18.1526 11.3381C18.1526 13.0273 19.6309 14.4567 21.5312 14.4567C23.4314 14.4567 24.9097 13.0273 24.9097 11.3381C24.9097 9.64893 23.4314 8.21948 21.5312 8.21948C19.6309 8.21948 18.1526 9.64893 18.1526 11.3381Z" stroke="black" stroke-width="1.03954"/>
<path d="M11.3956 11.3381C11.3956 13.0273 12.8738 14.4567 14.7741 14.4567C16.6743 14.4567 18.1526 13.0273 18.1526 11.3381C18.1526 9.64893 16.6743 8.21948 14.7741 8.21948C12.8738 8.21948 11.3956 9.64893 11.3956 11.3381Z" stroke="black" stroke-width="1.03954"/>
<path d="M19.7529 10.7476C19.7832 10.7476 19.8559 10.731 19.8618 10.7721C19.8694 10.825 19.911 10.9381 19.8606 10.9777C19.7964 11.0282 19.7043 11.0449 19.6255 11.0292C19.5927 11.0226 19.468 10.9594 19.5154 10.9067C19.5935 10.8199 19.7413 10.7986 19.8508 10.8161C19.9896 10.8383 20.1071 11.028 19.9842 11.132C19.6746 11.394 19.4041 10.7569 19.7871 10.6496C20.0041 10.5889 20.2205 10.7012 20.2548 10.9239C20.2914 11.1618 20.097 11.1442 19.9071 11.1442" stroke="black" stroke-width="1.03954" stroke-linecap="round"/>
<path d="M16.3815 10.7475C16.5459 10.7475 16.3896 11.0464 16.1954 10.9765C16.047 10.9231 15.9628 10.7988 15.9628 10.6496C15.9628 10.5207 16.3264 10.5641 16.39 10.597C16.4561 10.6311 16.6306 10.8224 16.5431 10.9067C16.4501 10.9963 16.2492 11.0431 16.1219 11.034C15.9847 11.0242 15.9646 10.7063 15.9628 10.6202C15.9605 10.5127 16.001 10.489 16.0729 10.417" stroke="black" stroke-width="1.03954" stroke-linecap="round"/>
<path d="M16.1145 10.3367C16.21 10.3367 16.2902 10.3127 16.338 10.4112C16.3765 10.4905 16.3628 10.585 16.3628 10.6706C16.3628 10.7829 16.3945 10.9515 16.3477 11.0555C16.2514 11.2695 16.0165 11.3377 15.8027 11.33C15.4942 11.319 15.3338 10.8911 15.4965 10.6471C15.6634 10.3966 16.028 10.3495 16.3035 10.3629C16.618 10.3783 16.8163 10.5842 16.854 10.8858C16.8665 10.9859 16.8735 11.1119 16.854 11.2114C16.8218 11.3751 16.6212 11.3991 16.4856 11.4169C16.1756 11.4577 15.9108 11.3364 15.7475 11.0624C15.6437 10.8881 15.6122 10.5467 15.742 10.3809C15.8648 10.224 16.1546 10.0889 16.3504 10.1905C16.6116 10.3259 16.8641 10.551 16.9036 10.8582C16.9359 11.1088 16.8968 11.3298 16.647 11.4418C16.2972 11.5986 15.8832 11.6154 15.7172 11.2003C15.6564 11.0484 15.5887 10.8911 15.6192 10.723C15.6392 10.613 15.8995 10.4971 15.9903 10.4857" stroke="black" stroke-width="1.03954" stroke-linecap="round"/>
<path d="M19.7895 11.0322C19.6156 11.0322 19.606 11.0184 19.5163 10.8639C19.3738 10.6184 19.5695 10.4673 19.7881 10.399C20.1326 10.2913 20.2488 10.645 20.2999 10.908C20.3659 11.2473 20.3873 11.5516 19.9771 11.5978C19.73 11.6257 19.4667 11.4863 19.3977 11.2309C19.3301 10.9808 19.397 10.8039 19.5784 10.6225C19.9551 10.2458 20.4878 10.7475 20.4337 11.1798C20.4109 11.3621 20.0533 11.4069 19.9247 11.4419C19.6537 11.5158 19.4142 11.5299 19.3728 11.2143C19.3371 10.9419 19.3859 10.6917 19.4915 10.4417C19.5615 10.2758 19.7823 10.2885 19.9329 10.2872C20.1642 10.2852 20.3232 10.3137 20.5206 10.4362C20.7309 10.5667 20.9385 10.7841 20.8435 11.0556C20.7763 11.2475 20.5744 11.2874 20.4351 11.4047C20.2958 11.522 19.9198 11.4564 19.7646 11.4047" stroke="black" stroke-width="1.03954" stroke-linecap="round"/>
<path d="M25.3913 14.1626C25.2174 14.1626 25.2078 14.1487 25.1181 13.9943C24.9756 13.7488 25.1713 13.5976 25.3899 13.5293C25.7344 13.4217 25.8506 13.7754 25.9017 14.0384C25.9677 14.3777 25.9891 14.682 25.5789 14.7282C25.3318 14.756 25.0685 14.6167 24.9995 14.3612C24.9319 14.1111 24.9988 13.9342 25.1802 13.7528C25.5569 13.3761 26.0896 13.8778 26.0355 14.3102C26.0128 14.4925 25.6551 14.5372 25.5265 14.5723C25.2555 14.6462 25.016 14.6603 24.9746 14.3447C24.9389 14.0722 24.9877 13.8221 25.0933 13.5721C25.1633 13.4061 25.3841 13.4189 25.5347 13.4176C25.766 13.4155 25.9251 13.4441 26.1225 13.5666C26.3327 13.6971 26.5403 13.9144 26.4453 14.186C26.3781 14.3779 26.1762 14.4178 26.0369 14.5351C25.8976 14.6524 25.5216 14.5868 25.3664 14.5351" stroke="black" stroke-width="1.03954" stroke-linecap="round"/>
<path d="M10.9674 14.1626C11.1412 14.1626 11.1508 14.1487 11.2405 13.9943C11.3831 13.7488 11.1873 13.5976 10.9688 13.5293C10.6243 13.4217 10.5081 13.7754 10.4569 14.0384C10.391 14.3777 10.3695 14.682 10.7797 14.7282C11.0268 14.756 11.2901 14.6167 11.3592 14.3612C11.4268 14.1111 11.3599 13.9342 11.1785 13.7528C10.8018 13.3761 10.2691 13.8778 10.3231 14.3102C10.3459 14.4925 10.7036 14.5372 10.8322 14.5723C11.1031 14.6462 11.3426 14.6603 11.384 14.3447C11.4197 14.0722 11.3709 13.8221 11.2654 13.5721C11.1953 13.4061 10.9746 13.4189 10.8239 13.4176C10.5926 13.4155 10.4336 13.4441 10.2362 13.5666C10.0259 13.6971 9.81831 13.9144 9.91336 14.186C9.98051 14.3779 10.1824 14.4178 10.3217 14.5351C10.461 14.6524 10.837 14.5868 10.9922 14.5351" stroke="black" stroke-width="1.03954" stroke-linecap="round"/>
<path d="M18.1792 13.6343C17.9722 13.6343 17.3513 13.6343 17.5583 13.6343C17.7647 13.6343 17.9712 13.6343 18.1777 13.6343C18.236 13.6343 18.6563 13.6453 18.6651 13.7153C18.6876 13.8954 18.5473 13.9885 18.4371 14.1472C18.3666 14.2487 18.2953 14.3609 18.2391 14.4711C18.2071 14.5341 18.1901 14.6192 18.1387 14.6706C18.1129 14.6964 17.8634 14.3046 17.8222 14.2552C17.7059 14.1156 17.6304 13.9526 17.5193 13.8097C17.4807 13.7601 17.4233 13.727 17.4233 13.6613" stroke="black" stroke-width="1.03954" stroke-linecap="round"/>
<path d="M20.0196 15.1284C20.2199 15.1588 20.2644 15.1704 20.2919 15.3558C20.3161 15.5192 20.3324 15.7824 20.268 15.9354C20.1007 16.3328 19.6074 16.4926 19.2126 16.4926C18.8373 16.4926 18.5508 16.3465 18.4533 15.9621C18.3853 15.6937 18.375 15.4125 18.4786 15.1537" stroke="black" stroke-width="1.03954" stroke-linecap="round"/>
<path d="M18.1499 15.1541C18.1499 14.9876 18.1526 15.4872 18.1499 15.6538C18.1443 16.0114 17.7869 16.2327 17.4959 16.3555C16.9505 16.5858 16.4739 16.5737 15.9942 16.2025C15.5638 15.8696 15.422 15.2044 15.9773 14.9268" stroke="black" stroke-width="1.03954" stroke-linecap="round"/>
<path d="M17.2803 16.7085C17.2803 17.7332 17.1309 18.9136 17.8058 19.7753C18.0683 20.1105 18.5909 20.1775 18.955 19.9559C19.3509 19.7149 19.3938 19.2927 19.4214 18.8657C19.4557 18.3332 19.426 17.7886 19.426 17.2547C19.426 17.0827 19.4824 16.7931 19.3843 16.646" stroke="black" stroke-width="1.03954" stroke-linecap="round"/>
<path d="M27.257 13.0249C28.1543 12.8753 29.0574 12.1871 29.9236 11.8999C31.198 11.4774 32.4919 11.4312 33.8193 11.4312" stroke="black" stroke-width="1.03954" stroke-linecap="round"/>
<path d="M28.4759 15.4619C30.1454 15.4619 31.5577 15.5106 33.1633 16.0244" stroke="black" stroke-width="1.03954" stroke-linecap="round"/>
<path d="M9.63257 11.5243C8.56318 10.362 7.60796 8.83856 5.9764 8.43066" stroke="black" stroke-width="1.03954" stroke-linecap="round"/>
<path d="M8.60132 13.6807L3.07927 13.4171" stroke="black" stroke-width="1.03954" stroke-linecap="round"/>
<path d="M27.9501 22.5014C27.6971 22.5435 27.4363 22.9124 27.23 23.0812C27.0121 23.2596 26.7823 23.3854 26.5857 23.5929C26.0108 24.1997 25.1098 24.5725 24.3192 24.836C24.1068 24.9068 23.8994 24.9744 23.6863 25.0217C23.3398 25.0987 23.9653 24.7374 24.0464 24.6844C24.4592 24.4145 24.9096 24.296 25.3994 24.169C25.8091 24.0628 26.276 24.1035 26.6691 23.9871C26.9059 23.9169 27.0382 23.7147 27.2338 23.5626C27.616 23.2653 27.9591 23.2518 28.4277 23.2518C28.9265 23.2518 29.2536 23.3961 29.7239 23.5398C30.1964 23.6842 30.7209 24.0425 31.1603 24.2751C31.7312 24.5774 32.2328 24.99 32.7559 25.3666C33.3409 25.7879 33.7141 26.4804 34.2606 26.9054C34.4244 27.0328 34.5599 27.1629 34.651 27.3451C34.739 27.5211 34.8724 28.1003 34.8101 27.9136C34.6587 27.4593 34.1456 26.9626 33.8626 26.5833C33.554 26.1696 33.2227 25.7763 32.8658 25.4045C32.3555 24.873 31.7509 24.3487 31.0883 24.0174C30.2259 23.5862 29.318 23.4674 28.4277 23.1495C28.2092 23.0714 28.1548 22.9303 28.1548 22.706C28.1548 22.6318 28.3263 22.8168 28.367 22.8538C28.7573 23.2086 29.1737 23.5471 29.5533 23.9113C30.8542 25.159 31.7765 26.8336 32.8696 28.2547C33.0914 28.5429 33.3118 28.9388 33.5746 29.187C34.1079 29.6908 32.8507 27.9082 32.43 27.3072C31.8495 26.478 31.3075 25.615 30.7965 24.7413C30.7281 24.6244 30.2781 24.0402 30.6145 24.0894C32.1766 24.318 33.1764 26.0345 33.802 27.3147C33.8995 27.5143 33.9657 27.7194 34.0521 27.9211C34.2172 28.3062 33.4463 27.3412 33.1652 27.0305C32.787 26.6124 32.3632 26.1498 32.0889 25.6509C31.8803 25.2717 32.8645 26.4418 32.8734 26.4544C33.4255 27.2312 33.9163 28.0419 34.3174 28.9066C34.4633 29.221 34.5575 29.4419 34.234 28.9975C33.5173 28.013 32.8057 27.0252 32.0775 26.0489C31.7193 25.5686 31.379 25.0739 31.0163 24.5973C30.7688 24.272 30.9074 24.6871 30.9556 24.8209C31.4595 26.2186 32.2359 27.5296 32.8317 28.8914C33.0431 29.3745 33.263 29.8524 33.4988 30.324C33.5528 30.4322 33.7376 30.741 33.658 30.65C32.817 29.6889 31.9232 28.7752 31.0883 27.8074C30.754 27.4199 30.4356 27.0225 30.1332 26.6098C30.0513 26.498 29.8825 26.3332 29.8603 26.1853C29.8474 26.0993 29.9421 26.203 29.9475 26.208C30.3707 26.6056 30.7655 27.039 31.1451 27.4777C31.8922 28.341 32.6071 29.2214 33.26 30.1573C33.3022 30.2178 33.6775 30.7212 33.4533 30.3771C32.386 28.7394 31.3528 27.0863 30.3682 25.397C30.133 24.9934 29.898 24.5927 29.6405 24.2031C29.5812 24.1134 29.3903 23.9049 29.3903 23.7748C29.3903 23.6128 29.5991 24.0234 29.6898 24.1576C30.1163 24.7892 30.5339 25.4271 30.9405 26.0716C31.5841 27.0917 32.246 28.1486 32.6839 29.278C32.8081 29.5982 32.7226 29.5782 32.483 29.3386C31.982 28.8376 31.5616 28.2601 31.1603 27.6786C30.4984 26.7195 29.8612 25.723 29.3297 24.6844C29.3148 24.6553 29.0625 24.1635 29.1478 24.2599C29.4796 24.635 29.7917 25.0334 30.0801 25.4424C30.7032 26.3261 31.3278 27.271 31.7516 28.2698C31.9391 28.7118 32.1262 29.1569 31.5924 28.5503C30.8204 27.6731 30.113 26.7359 29.4813 25.7532C29.3583 25.5619 28.6198 24.3731 29.2387 25.162C29.9359 26.0505 30.5552 27.1156 31.0883 28.1106C31.0974 28.1277 31.4786 28.8953 31.4067 28.8914C31.0792 28.8737 30.5541 28.0464 30.3985 27.8529C29.5631 26.8146 28.8566 25.7059 28.2078 24.5442C28.0556 24.2716 27.5486 23.726 28.151 23.8544C28.8934 24.0126 29.5284 24.6398 29.9664 25.2302C30.0306 25.3167 30.6326 26.0477 30.5274 26.1853C30.2526 26.5446 29.0711 25.5256 28.9242 25.4008C28.7502 25.2529 27.6286 24.4107 27.7606 24.0477C27.8632 23.7656 28.992 24.2026 29.1326 24.2865C29.6105 24.5715 30.1271 25.2726 29.9361 25.8556C29.4602 27.3082 26.9153 26.6924 26.707 25.3287C26.6596 25.0186 26.7699 24.836 27.1163 24.836C27.8648 24.836 28.2278 25.4084 28.2799 26.0943C28.3355 26.8268 28.2591 27.6897 27.6469 28.1864C26.8152 28.8613 26.1144 28.3286 25.9035 27.4133C25.7352 26.683 25.3861 24.5932 26.8434 25.0559C27.6824 25.3222 27.4891 27.6868 26.8283 27.3451C26.3925 27.1197 26.3879 26.1329 26.381 25.7229C26.3732 25.2568 26.3223 24.8784 26.8813 24.836C28.0262 24.7493 28.2635 26.9218 27.5863 27.5042C27.0908 27.9303 26.2185 28.0586 25.7216 27.5725C25.2966 27.1567 25.2584 26.1547 25.4335 25.6168C25.5014 25.4083 25.6308 25.2058 25.8353 25.1089C26.0722 24.9967 25.9508 25.4856 25.9414 25.5561C25.831 26.3841 25.5011 27.1 25.0697 27.8112C24.9618 27.9891 24.5835 28.5953 24.3382 28.2395C23.8852 27.5826 23.9933 26.4126 23.9933 25.6395C23.9933 25.5031 23.9933 25.3666 23.9933 25.2302C23.9933 24.8466 24.3844 25.4132 24.5087 25.5258C24.7922 25.7826 25.044 25.9847 25.1834 26.3521C25.333 26.7464 25.278 26.7273 25.2933 26.2763C25.3061 25.8978 25.3541 25.494 25.4411 25.1241C25.5286 24.7523 25.1022 25.8087 24.9256 26.1474C24.7317 26.5194 24.6679 26.9195 24.505 27.2996C24.3766 27.599 24.4026 26.9316 24.4026 26.8675C24.4026 26.5605 24.4026 26.2535 24.4026 25.9465C24.4026 25.692 24.2881 26.6534 24.2586 26.7765C24.1332 27.2992 23.9672 27.8357 23.7735 28.3381C23.7651 28.3597 23.5606 28.7497 23.5309 28.6792C23.4418 28.4675 23.6587 26.7462 23.8227 26.7462C23.9039 26.7462 23.5193 27.8665 23.5006 27.9211C23.2028 28.7901 22.9728 29.6786 22.7123 30.559C22.6168 30.8817 22.5837 31.3243 22.3711 31.5899C22.0909 31.9402 22.7983 30.7991 22.97 30.3847C23.2714 29.657 23.5552 28.9052 23.7507 28.141C23.7965 27.9619 23.9228 27.4663 23.8114 27.9628C23.5464 29.1431 23.2702 30.3234 22.9851 31.499C22.7323 32.5415 22.534 33.6406 22.1286 34.6371C21.7278 35.6223 22.9809 32.6674 23.1671 31.6202C23.1829 31.5309 23.3694 30.8607 23.2315 31.0934C22.7772 31.8601 22.4943 32.7463 22.0869 33.5418C21.8826 33.9406 21.6784 34.4178 21.3478 34.7357C21.2594 34.8207 21.6291 33.6515 21.6889 33.5077C21.9622 32.8511 22.1803 32.1684 22.4848 31.5255C22.7189 31.0314 22.5057 31.5784 22.4166 31.7605C21.7783 33.0662 21.1368 34.3736 20.3927 35.6226C19.8229 36.5791 21.1212 33.5172 21.5373 32.4844C21.6145 32.2929 22.2536 30.8085 21.7344 31.6581C21.218 32.5033 20.7286 33.3828 20.3245 34.2885C19.9927 35.0322 19.5246 35.7005 18.7706 36.0433C18.3448 36.2368 17.6617 36.0208 17.2091 36.0812C16.8397 36.1304 16.4875 36.1456 16.11 36.1456C15.4806 36.1456 16.4992 36.1456 16.6633 36.1456C18.1369 36.1456 19.6306 36.2084 21.0939 36.0812C21.9696 36.005 22.8468 35.8727 23.728 35.8727C24.3595 35.8727 24.9442 35.8399 25.5662 35.7363C25.9812 35.6671 26.4444 35.5484 26.8434 35.4103C27.1667 35.2984 27.4994 35.3035 27.8364 35.2435C28.2783 35.165 28.7161 35.0688 29.1478 34.9479C29.601 34.821 30.0881 34.4223 30.5425 34.3718C30.7188 34.3522 30.5425 34.0183 30.5425 33.9284C30.5425 33.8241 30.8074 33.7505 30.914 33.6896C31.6102 33.2918 31.8397 32.6572 31.7629 31.8704C31.6562 30.7767 30.7879 30.0784 30.3682 29.134C30.1681 28.6839 30.8673 29.2294 30.9519 29.3538C31.4209 30.0443 31.4404 31.0552 31.3309 31.8552C31.2828 32.2063 31.0099 32.9137 30.5425 32.8748C29.7998 32.8129 29.9285 30.7895 29.9285 30.324C29.9285 29.9031 29.8006 29.0653 30.3379 28.8762C30.9783 28.6509 31.0961 29.9964 31.1262 30.3316C31.2051 31.2119 31.2985 32.4821 30.7889 33.2576C30.5581 33.6087 30.0991 33.9251 29.6594 33.8602C28.9855 33.7606 28.7052 32.9317 28.5565 32.3783C28.2105 31.0899 27.9427 29.2939 28.5982 28.0538C28.8134 27.6467 29.2588 27.0555 29.595 27.6748C30.1858 28.7631 30.0906 30.4066 29.921 31.5899C29.8479 32.0999 29.5393 33.5785 28.837 33.6972C28.2248 33.8007 28.3843 31.0588 28.4163 30.7144C28.4829 29.997 28.6685 29.2651 28.8635 28.573C28.9428 28.2917 29.038 27.9339 29.2425 27.7089C29.4837 27.4437 29.7185 27.7971 29.7921 28.0121C30.2586 29.3743 30.0311 31.1864 29.7163 32.5526C29.6571 32.8093 29.1139 34.2822 28.837 33.4243C28.6036 32.7012 28.6345 31.8687 28.6323 31.12C28.6303 30.4089 28.6584 29.7007 28.7688 28.9975C28.7972 28.8166 28.9116 27.6478 29.2842 27.6975C29.7528 27.76 29.647 29.0076 29.6519 29.2818C29.6702 30.3293 29.646 31.4281 29.2312 32.4086C29.0352 32.8717 28.3783 33.8269 27.9274 33.0377C27.4253 32.159 27.6612 30.9568 28.06 30.0966C28.2818 29.6182 28.6739 28.7573 29.1743 28.4821C29.6495 28.2207 29.5825 29.9102 29.5836 29.9981C29.6002 31.2615 29.5367 32.5532 29.144 33.7654C28.9853 34.2554 28.8113 34.5182 28.7157 33.8261C28.5484 32.6149 28.6922 31.2927 29.2236 30.18C29.5993 29.3934 30.1938 29.289 30.1938 30.2824C30.1938 31.0017 29.7254 31.6143 29.2008 32.0675C29.0566 32.1921 28.0161 32.8339 27.8971 32.4768C27.6043 31.5984 28.4467 30.5422 28.9583 29.9299C29.4181 29.3794 29.8913 28.9371 30.6411 28.9293C31.2569 28.9229 31.1636 30.1197 31.1489 30.4946C31.1106 31.471 30.7793 32.4832 29.9247 33.0529C29.5097 33.3296 28.8859 33.4586 28.3898 33.4016C27.7485 33.3279 28.1421 32.644 28.4125 32.3707C29.1354 31.6401 30.7515 31.4548 30.5994 32.8748C30.4967 33.8331 29.4612 34.1836 28.621 34.243C27.6517 34.3115 27.1001 33.6245 27.158 32.689C27.2249 31.6067 28.039 30.8886 29.0265 30.5742C29.6037 30.3904 30.6274 30.4426 30.9519 31.0517C32.0255 33.0673 28.0647 34.116 26.9154 32.9127C26.0454 32.0017 26.0234 30.8631 26.616 29.8238C27.0001 29.1502 27.6257 28.5209 28.4277 28.3987C29.0212 28.3082 29.1968 28.8594 29.0796 29.3614C28.8901 30.1723 27.9339 30.2176 27.374 29.8086C26.9626 29.5081 26.713 28.897 26.7979 28.3873C26.8154 28.2828 26.9248 28.2131 27.0291 28.2585C27.2679 28.3623 27.2751 28.843 27.2944 29.043C27.3768 29.8943 27.5119 31.0474 27.2376 31.8704C27.207 31.9621 26.9047 32.7673 26.7221 32.4237C26.387 31.7929 26.5063 30.8176 26.5213 30.1345C26.5288 29.7903 26.5522 29.4456 26.6198 29.1074C26.6212 29.1006 26.708 28.6907 26.7525 28.9066C26.8444 29.353 26.7904 29.857 26.7904 30.3089C26.7904 30.8273 26.8088 31.3522 26.6804 31.859C26.6261 32.0737 26.4717 32.8352 26.2067 32.9316C25.9146 33.0378 25.9212 31.2074 25.9186 31.1124C25.8927 30.1332 25.946 29.1694 25.9717 28.194C26.0098 26.7478 26.1321 31.1051 25.9035 32.5337C25.8598 32.807 25.8349 31.8713 25.8353 31.8401C25.8463 30.8154 26.0406 29.8183 26.1233 28.8004C26.1252 28.7767 26.1502 28.3999 26.146 28.4063C25.975 28.6674 25.8709 29.0153 25.7519 29.3007C25.3511 30.2615 25.0932 31.2619 24.7968 32.257C24.5461 33.0985 24.7069 31.4793 24.721 31.317C24.8106 30.2828 24.936 29.2177 25.1152 28.194C25.1921 27.7543 25.0812 28.1102 24.9863 28.3305C24.6084 29.2074 24.2015 30.0746 23.9251 30.9911C23.8649 31.1908 23.7204 31.7909 23.7204 31.5823C23.7204 30.7777 23.8836 29.9824 23.9857 29.187C24.0275 28.8617 24.0493 28.5338 24.0956 28.2092C24.12 28.0387 24.1297 27.9595 24.1297 28.2243C24.1297 29.6703 23.9551 31.0994 23.8265 32.5374C23.7767 33.0947 23.6745 33.6619 23.6522 34.2202C23.649 34.2991 23.665 34.0623 23.6825 33.9852C23.7725 33.5885 23.9786 33.2194 24.2283 32.9013C25.4711 31.3177 27.6675 31.3014 29.0644 32.6625C29.3647 32.9551 29.5007 33.1992 29.0417 33.3788C27.6874 33.9088 26.1253 34.083 24.6831 34.152C24.2792 34.1713 23.8744 34.1672 23.4703 34.1672C23.3918 34.1672 23.1643 34.1854 23.2353 34.152C23.3972 34.0758 23.6288 34.0999 23.7962 34.0989C24.443 34.0953 25.0899 34.0989 25.7367 34.0989C26.2921 34.0989 27.0519 33.9644 27.5939 34.1368C27.7239 34.1782 27.7374 34.2211 27.5787 34.243C26.8551 34.3428 26.125 34.3989 25.3994 34.4817C24.0766 34.6327 22.7618 34.8304 21.4539 35.0768C20.5949 35.2386 21.5231 35.0794 21.8405 34.9707C23.3174 34.4648 24.8391 33.8064 26.4379 33.9663C27.868 34.1093 23.584 34.3476 22.1854 34.6788C20.625 35.0484 25.3962 34.5859 26.9874 34.387C27.3544 34.3411 27.9681 34.1871 28.3405 34.3112C28.5088 34.3673 28.0521 34.5264 27.8857 34.5879C27.2046 34.8396 26.4935 35.0199 25.7974 35.2246C24.7518 35.5321 23.7126 35.7754 22.6365 35.9409C22.5789 35.9498 21.8984 36.0091 22.265 36.0091C22.9694 36.0091 23.6687 35.9921 24.3723 35.9561C24.6128 35.9438 25.6432 36.0252 25.8201 35.7893C25.9397 35.6299 24.7592 35.1771 24.702 35.1526C24.0632 34.8788 23.4564 34.5348 22.8146 34.2733C22.473 34.1341 22.9448 34.0587 23.114 33.9928C23.8176 33.7188 24.5411 33.5106 25.2592 33.2803C25.5121 33.1992 25.7303 33.1439 25.9944 33.1439C26.4491 33.1439 25.0787 33.1139 24.6376 33.0036C24.5789 32.9889 23.6009 32.6283 23.9478 32.5337C24.5457 32.3706 25.3322 32.4162 25.9414 32.4692C26.0528 32.4789 26.6972 32.6176 26.4341 32.7952C25.9257 33.1383 25.2408 33.2783 24.6679 33.4622C23.8627 33.7207 23.0606 33.9903 22.2423 34.2051C21.8664 34.3037 20.728 34.5083 21.1166 34.5083C21.7597 34.5083 22.4027 34.5083 23.0458 34.5083C24.4052 34.5083 25.7341 34.5977 27.0936 34.5765C27.7712 34.5659 28.4067 34.3978 29.053 34.2089C29.458 34.0905 29.8312 34.1159 30.0347 33.701C30.4474 32.859 30.6716 31.9863 31.0352 31.1351C31.5062 30.0325 32.6105 29.6955 33.7413 29.8086C33.9816 29.8326 34.2687 29.975 34.4236 30.1687C34.5073 30.2733 34.3113 29.9251 34.2606 29.801C34.0798 29.3592 34.0651 28.7034 34.3629 28.3153C34.4386 28.2166 34.5025 28.0741 34.6017 27.9969C34.6884 27.9295 34.8396 27.9431 34.9087 27.8567C35.0067 27.7341 35.1121 28.1861 35.1133 28.2319C35.1313 28.8771 35.15 29.5321 34.9769 30.1573C34.7502 30.9761 34.6994 31.7988 34.5335 32.6284C34.4706 32.9428 34.4311 33.2408 34.4311 33.5608C34.4311 33.8132 34.4311 33.6828 34.4311 33.5153C34.4311 33.2678 34.2722 32.1057 34.469 31.9651C34.5402 31.9143 34.9087 33.4518 34.9087 33.6479C34.9087 34.331 35.1133 32.292 35.1133 31.6089C35.1133 31.441 35.0676 30.9719 34.9617 30.8395C34.8286 30.6731 34.5237 30.2665 34.2947 30.2786C33.9514 30.2966 33.7046 31.4898 33.6845 31.7415C33.6756 31.8525 33.731 32.1651 33.6655 32.0751C33.5466 31.9115 33.5369 31.4922 33.4912 31.2867C33.4344 31.0311 33.4406 31.054 33.5064 31.2981C33.6304 31.7589 33.1523 31.4344 32.9568 31.2753C32.6143 30.9967 31.8547 30.2981 31.8198 29.8086C31.8107 29.6813 32.0823 29.8622 32.176 29.9488C32.618 30.3574 32.9896 30.8476 33.332 31.3398C33.8595 32.098 34.371 32.8717 34.7571 33.7124C34.8381 33.8889 35.0596 34.2636 34.6737 34.1217C34.0005 33.8742 33.4438 33.2186 33.1046 32.6019C32.8201 32.0846 33.3209 32.1087 33.6959 32.3555C34.0161 32.5663 34.2899 32.8994 34.416 33.2651C34.5135 33.5478 33.7702 33.3935 33.6655 33.3713C33.0803 33.2471 32.5791 32.9459 32.2215 32.4692C32.1788 32.4123 31.7809 31.9454 31.9865 31.9197C32.7695 31.8218 33.4925 32.782 33.8702 33.3485C33.9294 33.4374 34.0264 33.7506 33.9422 33.8488C33.8167 33.9953 33.0595 33.1379 32.9757 33.0491C32.9331 33.0039 32.4654 32.401 32.5588 32.401C32.7354 32.401 32.6837 32.5072 32.5247 32.2191C32.4047 32.0016 32.0462 31.2194 32.5361 31.6885C33.2716 32.3927 34.0417 33.1072 34.4615 34.061C34.6115 34.402 34.6663 34.5221 34.4994 34.8873C34.3172 35.2858 33.7123 34.8354 33.476 34.6599C33.0863 34.3703 32.8129 33.9223 32.4603 33.5949C32.1764 33.3312 32.3795 33.4394 32.5892 33.5532C33.1095 33.8357 33.7603 34.6447 33.8892 35.2246C33.9212 35.3689 34.0619 35.5998 33.8171 35.5998C33.186 35.5998 32.7171 35.4075 32.3163 34.9176C32.2049 34.7815 30.7557 32.9072 31.0883 32.7497C31.299 32.6499 31.9773 32.6787 32.0434 32.943C32.1436 33.3438 32.1116 33.7559 32.1116 34.1672C32.1116 34.5892 32.2273 34.9267 32.3163 35.3269C32.3903 35.6601 32.5734 35.6624 32.8279 35.8386C33.0153 35.9683 33.1978 36.1073 33.3244 36.2972C33.3358 36.3143 32.4289 36.3502 32.3239 36.3502C31.3889 36.3502 31.0189 36.1883 30.8154 35.1829C30.7888 35.0514 30.5014 34.2354 30.7813 34.2354C31.0137 34.2354 31.1956 34.3148 31.2778 34.5613C31.4065 34.9476 31.4294 35.494 31.4294 35.9068C31.4294 36.0017 31.5363 36.2761 31.4294 36.282C31.2251 36.2934 31.0164 36.282 30.8116 36.282C30.3546 36.282 29.7328 36.3953 29.2994 36.2669C28.8053 36.1205 28.162 36.2138 27.6469 36.2138C27.043 36.2138 26.4391 36.2138 25.8353 36.2138C24.4591 36.2138 23.1222 36.4867 21.742 36.4867C21.4123 36.4867 21.0825 36.4867 20.7528 36.4867C20.5875 36.4867 21.1595 36.3502 21.2796 36.3502C22.3527 36.3502 23.4081 36.433 24.4708 36.5511C25.9027 36.7102 27.4511 36.5549 28.8901 36.5549C29.4751 36.5549 30.1078 36.618 30.6411 36.3654C30.799 36.2906 31.1991 36.2369 30.876 36.0395C30.2393 35.6503 29.4367 35.4624 28.7498 35.1602C28.6999 35.1382 28.3846 35.0592 28.458 34.9858C28.6519 34.7919 29.0509 34.7682 29.2994 34.7129C29.4195 34.6863 30.7622 34.4159 30.5046 34.747C30.2684 35.0508 29.6966 35.2213 29.36 35.3648C28.4652 35.7463 27.5153 36.1572 26.5478 36.3199C26.0674 36.4007 25.2945 36.5495 25.1 36.0243C24.8945 35.4696 24.1466 34.9631 23.6257 34.7508C23.2959 34.6165 22.9633 34.6447 22.6137 34.6447C22.407 34.6447 22.1943 34.6306 21.9883 34.6485C21.7997 34.6649 21.833 34.8133 21.8822 34.7395C22.3142 34.0916 22.8602 33.4947 23.4399 32.9771C23.968 32.5056 23.6251 32.8722 23.2808 33.0074C22.147 33.4528 21.6363 34.4226 21.2 35.4861C20.9901 35.9978 20.7178 36.0364 20.2563 36.2972C19.9149 36.4901 19.6668 36.6231 19.2709 36.6231C18.5055 36.6231 17.7354 36.5097 17.0006 36.3465C16.2655 36.1831 15.4113 36.282 14.647 36.282C13.6667 36.282 12.718 36.0774 11.7173 36.0774C11.182 36.0774 10.5397 36.055 10.0383 35.8727C9.50235 35.6778 9.292 35.2921 9.12108 34.7508C8.82254 33.8055 8.77102 32.7499 8.68522 31.7681C8.60919 30.8979 8.57531 30.0113 8.57531 29.1378C8.57531 27.9777 8.70529 26.9802 9.01875 25.8518C9.14335 25.4032 10.247 25.361 10.6068 25.2454C10.9221 25.144 11.3112 24.858 11.6453 24.8209C12.312 24.7468 11.4921 24.4115 11.2018 24.4115C10.6055 24.4115 9.91378 23.9003 9.4584 23.5588C8.9679 23.1909 8.45529 22.8522 8.02954 22.4028C7.94279 22.3112 7.90121 22.2557 7.79077 22.1944C7.67012 22.1273 7.67451 22.2753 7.57852 22.327C7.25515 22.5011 6.85842 22.4776 6.54384 22.6757C6.28005 22.8418 5.94899 22.9378 5.71381 23.1495C5.37667 23.4529 5.152 23.7607 4.85726 24.1008C4.6367 24.3552 4.73644 24.4832 4.5351 24.4798C4.01986 24.471 3.67786 24.3232 3.21995 24.6124C2.72711 24.9237 2.4848 25.3256 2.16252 25.7911C2.01439 26.0051 1.88345 26.2176 1.72288 26.4241C1.6425 26.5274 1.33148 27.221 1.61675 26.9357C2.12307 26.4294 2.69954 25.9706 3.17826 25.4387C3.4554 25.1307 3.74667 24.6394 4.17505 24.5442C4.27073 24.5229 4.3092 24.417 4.41382 24.4115C4.59113 24.4022 4.76565 24.456 4.93685 24.4949C5.43493 24.6081 5.82829 24.7526 6.35433 24.7526C7.21342 24.7526 8.0725 24.7526 8.93158 24.7526C9.52411 24.7526 9.97234 25.162 10.5537 25.162C11.0841 25.162 11.4808 25.8341 11.7476 26.2194C12.0058 26.5924 12.2441 26.9546 12.3426 27.3981C12.418 27.7374 12.5254 28.2757 12.6989 28.573C12.8399 28.8148 13.0572 29.3313 13.0779 29.6115C13.1041 29.9646 13.343 30.2534 13.4342 30.5818C13.6643 31.4102 14.2808 32.1149 14.4272 32.9771C14.4853 33.3191 14.5916 34.8494 15.0904 34.8494C15.4117 34.8494 14.9961 34.8817 14.935 34.8342C14.8982 34.8055 15.0229 35.1017 15.0563 35.1602C15.1156 35.2639 15.2045 35.513 15.2761 35.5847C15.3297 35.6382 15.4158 35.4123 15.1245 35.3951C14.8718 35.3803 14.7691 34.1149 14.5106 33.8564C14.318 33.6638 14.5175 34.1929 14.5788 34.2695C14.6886 34.4067 14.7373 34.4989 14.8858 34.6144C15.0512 34.7431 15.2512 34.9359 15.3444 35.1223C15.3637 35.1609 15.5659 35.5541 15.5301 35.3572C15.4811 35.088 15.1704 34.827 14.9881 34.6447C14.7345 34.3911 14.535 34.1485 14.3286 33.8488C13.8259 33.1186 13.3483 32.4476 12.7671 31.7718C11.8232 30.6743 11.1079 29.332 10.5007 28.0273C10.1427 27.2582 9.77086 26.5024 9.39776 25.7419C9.30032 25.5432 9.2023 25.2406 9.01875 25.0938C8.94093 25.0315 9.09805 25.0124 9.15519 25.1013C9.44634 25.5542 9.70066 26.0341 9.9928 26.4885C10.5193 27.3075 10.9751 28.1688 11.5088 28.9824C11.7911 29.4126 12.1518 29.8257 12.3957 30.2786C12.5583 30.5805 12.5279 30.4031 12.3767 30.1914C11.8346 29.4324 11.43 28.5981 11.0768 27.7354C10.782 27.0156 9.89012 24.8902 10.3491 25.5182C10.5445 25.7857 10.8523 26.2748 11.2359 26.2535C11.3823 26.2454 11.406 26.0664 11.4406 25.9541C11.479 25.8291 11.5853 25.8623 11.6794 25.8101C11.8421 25.7197 12.0424 25.7035 12.191 25.5713C12.2759 25.4959 12.3889 25.4665 12.2062 25.4008C11.8295 25.2651 11.4269 25.2161 11.0389 25.1279C10.5742 25.0223 10.2629 24.7388 9.83361 24.548C9.33318 24.3256 8.82124 24.1342 8.43887 23.7293C8.21279 23.49 8.1114 23.3687 7.73013 23.3238C7.38464 23.2831 7.6068 23.6314 7.7415 23.7293C8.40369 24.2109 8.96146 24.8778 9.51525 25.4728C10.2418 26.2534 10.9789 27.0824 11.5088 28.0121C11.858 28.6247 12.0617 29.1772 12.2214 29.8617C12.2697 30.0688 12.2375 30.2763 12.2744 30.4832C12.3533 30.9252 12.5437 31.3161 12.7595 31.7036C13.0352 32.1985 13.2964 32.6447 13.6199 33.1097C13.7321 33.2711 14.1495 33.6877 14.0368 33.5266C13.8567 33.2693 13.5605 33.0542 13.347 32.8255C12.9124 32.3599 12.4987 31.8741 12.0773 31.3966C11.6969 30.9655 11.2573 30.5632 10.91 30.1042C10.7881 29.9432 11.0415 30.141 11.054 30.1497C11.3646 30.3664 11.6733 30.5906 11.9712 30.8243C12.3369 31.1112 12.7225 31.4675 12.9642 31.8704C13.09 32.0801 13.0692 32.1986 12.7899 32.0447C11.95 31.582 11.0937 30.8801 10.4628 30.1573C10.4287 30.1183 9.81903 29.3935 9.97006 29.3386C10.3595 29.197 10.9287 29.6951 11.1753 29.9223C11.6364 30.3472 11.919 30.9562 12.2138 31.499C12.2406 31.5484 12.4928 32.1062 12.282 31.8552C11.5964 31.0391 11.0908 29.9065 10.6712 28.9369C10.4464 28.4174 10.2699 27.8809 10.0913 27.3451C10.0385 27.1865 10.7935 27.4948 10.8266 27.5118C11.4347 27.8242 11.9643 28.2792 12.3919 28.808C12.5727 29.0317 12.7833 29.4673 13.0362 29.6191C13.1236 29.6715 12.9399 29.4393 12.8846 29.3538C12.6243 28.9507 12.3866 28.5341 12.1683 28.1069C11.8748 27.5324 11.697 26.9103 11.4103 26.3369C11.2902 26.0967 11.2995 26.3761 11.3193 26.4885C11.4021 26.9577 11.728 27.4173 11.9106 27.8529C12.2099 28.567 12.4642 29.2961 12.8012 29.9943C13.0683 30.5474 13.4152 31.0716 13.6237 31.6506C13.8399 32.2513 13.9887 32.8421 14.2377 33.4319C14.4292 33.8855 14.6347 34.3167 14.7986 34.7812C14.8257 34.8581 14.1849 34.2889 14.1315 34.2164C13.5884 33.4786 13.1143 32.6687 12.6383 31.8856C12.5559 31.7501 12.1932 31.3038 12.4563 31.7188C12.9792 32.5434 13.43 33.4191 13.8738 34.2885C13.9669 34.4708 14.2983 34.8681 14.2983 35.0806C14.2983 35.2655 13.9502 34.9502 13.7904 34.857C13.268 34.5522 12.7608 34.2237 12.2744 33.864C11.9407 33.6171 11.1869 33.1887 11.0085 32.7724C11.0027 32.7587 11.9064 33.1048 11.9826 33.1476C12.1874 33.2628 12.3834 33.3931 12.5928 33.5001C12.7558 33.5834 13.2071 33.6059 13.0855 33.7427C12.997 33.8422 12.2296 33.6524 12.1228 33.6366C11.7077 33.575 11.3006 33.485 10.8948 33.3788C10.7469 33.3401 10.5872 33.3057 10.4438 33.25C10.2952 33.1922 10.7519 33.3386 10.8948 33.4092C11.8472 33.8793 12.8164 34.4393 13.6843 35.054C13.6917 35.0593 14.1978 35.3992 14.1543 35.4482C14.1088 35.4994 13.7852 35.4634 13.7677 35.4634C13.2835 35.4634 12.7958 35.4795 12.3123 35.4482C11.9895 35.4273 11.0825 35.4644 10.8569 35.1905C10.7674 35.0818 11.133 35.1223 11.2738 35.1223C11.6719 35.1223 12.0666 35.1321 12.4563 35.2208C12.795 35.2979 14.4563 35.7363 13.1727 35.7363C12.6812 35.7363 12.1898 35.7363 11.6983 35.7363C11.3788 35.7363 11.3448 35.7363 11.6907 35.7363C12.2401 35.7363 12.8913 35.7975 13.3811 36.0774C13.6185 36.213 13.2757 36.3961 13.184 36.4223C12.9898 36.4778 13.3411 36.732 13.4039 36.6762C13.4642 36.6226 13.4751 36.5244 13.491 36.4526C13.517 36.3355 13.6431 36.3622 13.726 36.3161C13.9398 36.1973 14.6296 36.282 13.8738 36.282C13.2957 36.282 12.7159 36.2952 12.138 36.282C11.8641 36.2758 11.6443 36.1456 11.3724 36.1456C10.9353 36.1456 10.5074 36.0893 10.0762 36.0774C9.73693 36.0679 9.39604 36.0774 9.05665 36.0774C8.84369 36.0774 7.96008 36.1083 8.6549 36.0736C9.33109 36.0398 10.0223 35.8373 10.7053 35.9561C10.9962 36.0067 11.2579 36.1543 11.5429 36.2176C11.704 36.2534 11.825 36.4315 11.9333 36.5397C12.2541 36.8605 11.642 36.7774 11.4406 36.7444C10.856 36.6487 10.3114 36.3502 9.71991 36.3502C9.22361 36.3502 8.65864 36.2837 8.16598 36.354C7.68404 36.4229 7.19956 36.4826 6.73334 36.3161C6.51312 36.2375 6.1476 36.2254 5.91469 36.2138C5.69747 36.2029 5.50402 36.0887 5.3007 36.0774C5.14653 36.0688 4.9396 36.0477 4.78904 36.0812C4.59933 36.1233 5.08225 36.2138 5.16425 36.2138C5.34568 36.2138 5.5202 36.2979 5.67591 36.3844C5.8468 36.4793 6.58126 36.6914 5.97912 36.6914C5.29775 36.6914 4.89855 36.3235 4.3456 36.047C3.77896 35.7637 3.21876 35.4659 2.69313 35.1223C2.21 34.8064 2.29896 34.3259 2.29896 33.7882C2.29896 32.8058 2.26659 31.8633 2.15873 30.8926C2.07466 30.1359 2.0943 29.3721 2.0943 28.6071C2.0943 27.8914 2.09854 27.4177 2.42025 26.7614C2.56179 26.4726 2.74191 26.4048 2.96602 26.2042C3.24653 25.9533 3.52895 25.729 3.86047 25.5486C4.18308 25.373 4.5387 25.3105 4.83831 25.0938C4.95174 25.0117 5.90991 24.6326 5.873 24.6162C5.35198 24.3846 5.96575 24.0188 6.22926 23.8658C6.52338 23.695 7.46123 23.3243 7.72634 23.7142C7.92426 24.0052 7.27707 23.9479 7.14267 23.8999C7.10816 23.8876 6.92101 23.8198 7.02138 23.7445C7.21864 23.5965 7.73839 23.8295 7.90068 23.9188C8.27431 24.1245 9.58919 25.88 8.38581 25.6092C8.20353 25.5682 7.63538 25.3434 7.63538 25.1013C7.63538 24.7924 8.67289 25.8149 8.70796 25.8593C9.18685 26.4659 9.68141 27.2436 9.84119 28.0121C9.94058 28.4901 9.73375 28.6343 9.31058 28.3381C8.51955 27.7843 7.87139 26.9965 7.37007 26.1777C7.22422 25.9395 6.92039 25.4562 7.36249 25.9465C8.30354 26.9902 8.99654 28.2122 9.59863 29.4751C9.7124 29.7137 9.80341 29.9569 9.86393 30.2141C9.87465 30.2597 9.55323 29.6416 9.54936 29.6343C9.00761 28.6121 8.57984 27.5421 8.10534 26.4885C8.00421 26.2639 7.88781 26.0406 7.80972 25.8063C7.74608 25.6154 8.05925 26.1222 8.18872 26.2763C9.89426 28.3058 11.5205 30.5977 12.5132 33.0794C12.5295 33.1203 12.5458 33.2012 12.4715 33.1363C12.1354 32.8422 11.9027 32.3748 11.7135 31.9841C11.0544 30.6232 10.7371 29.1365 10.1217 27.762C10.1135 27.7437 9.84622 27.1716 10.0307 27.5952C10.3251 28.2713 10.6478 28.9345 10.9403 29.6115C11.2342 30.2917 11.5222 30.9762 11.7741 31.6733C11.875 31.9525 12.1016 32.3487 12.1077 32.6511C12.1104 32.7889 11.8237 32.6877 11.6945 32.6398C11.117 32.4253 10.7461 31.9281 10.3566 31.4762C9.75655 30.7799 9.32937 30.1248 8.96569 29.2856C8.95751 29.2667 8.96498 29.2083 8.97706 29.2249C9.25729 29.6112 9.44612 30.0854 9.62895 30.5211C10.1488 31.7601 10.458 33.018 10.6598 34.3415C10.7752 35.0976 10.4923 33.7026 10.4817 33.6328C10.2728 32.2537 10.1243 30.8512 10.08 29.4561C10.0791 29.4278 10.0343 28.8867 10.1254 29.2515C10.2796 29.868 10.4372 30.4836 10.5878 31.101C10.8215 32.0586 11.2359 33.1206 11.2359 34.1179C11.2359 34.5338 10.9365 33.3383 10.8494 32.9316C10.6978 32.2242 10.5294 31.4998 10.5537 30.7713C10.5625 30.5078 11.1731 31.1208 11.1942 31.1427C11.7257 31.6928 12.0644 32.5026 12.191 33.25C12.2432 33.5579 12.3574 33.9634 11.9864 34.0989C11.6272 34.2302 11.2769 34.1929 11.0995 33.8185C10.8057 33.1983 10.7215 32.4473 10.6371 31.7718C10.5866 31.3682 10.7742 31.5807 10.9706 31.8022C11.6343 32.5505 12.0656 33.5278 12.3995 34.4628C12.4764 34.6782 12.7108 35.4406 12.263 35.4406C11.41 35.4406 10.7687 34.5355 10.4249 33.8715C9.8369 32.7362 9.67942 31.3376 9.47735 30.0891C9.46152 29.9913 9.27294 28.7556 9.37502 29.3917C9.62545 30.9521 9.74579 32.5156 9.8374 34.0914C9.84113 34.1555 9.87708 35.007 9.82224 34.91C9.31484 34.0123 9.25105 32.8866 9.09455 31.8931C8.99948 31.2896 8.91642 30.7 8.91642 30.0891C8.91642 29.7158 9.06928 30.8202 9.16656 31.1806C9.37184 31.9411 9.50802 32.6976 9.63274 33.4736C9.66251 33.6588 9.87271 34.3671 9.51146 33.9208C8.31625 32.4444 8.39489 30.385 8.15082 28.6034C8.08349 28.1118 7.98987 28.6476 7.97648 28.8232C7.87892 30.1023 7.74157 31.3792 7.65054 32.6587C7.60916 33.2403 7.62022 33.8234 7.62022 34.4059C7.62022 34.6631 7.57215 34.9743 7.65433 35.2208C7.6717 35.2729 7.66862 35.4896 7.75666 35.4482C7.94755 35.3584 8.02532 35.3322 8.25695 35.3269C9.02515 35.3095 8.42432 32.9901 8.30243 32.6549C8.20318 32.382 8.10316 32.0072 7.85899 31.8173C7.63091 31.6399 7.80395 32.0026 7.82867 32.0675C8.03748 32.6156 8.14137 33.2029 8.23421 33.7806C8.25618 33.9173 8.45849 34.6604 8.1584 34.531C7.81068 34.3811 7.52915 34.1321 7.15404 34.0383C7.09806 34.0243 6.66006 33.8829 6.74092 34.0648C6.85697 34.3259 7.48024 34.3158 7.53683 34.6978C7.5725 34.9385 5.55488 34.917 5.39924 34.9176C4.78988 34.9199 2.96454 34.807 3.57243 34.8494C4.11798 34.8874 4.68114 35.1937 5.14909 35.4558C5.3557 35.5715 5.87159 35.7176 6.00944 35.9106C6.1254 36.0729 5.27981 35.8605 5.27038 35.8575C4.9068 35.7442 4.55476 35.5997 4.194 35.4785C4.0743 35.4383 3.64953 35.3849 3.57243 35.2587C3.56423 35.2453 4.79354 35.191 4.9179 35.2019C5.48418 35.2511 6.02041 35.4915 6.57795 35.596C6.75649 35.6295 7.08836 35.7423 6.68407 35.6453C5.73306 35.4171 4.84071 34.8514 3.97038 34.4249C3.55579 34.2217 3.08217 34.0771 2.69313 33.8261C2.40218 33.6383 2.91803 33.6885 3.02666 33.6896C3.7734 33.6971 4.48639 33.8523 5.20973 34.0269C5.47315 34.0905 5.72131 34.1747 5.96396 34.296C6.0461 34.3371 6.23284 34.4693 6.33159 34.4552C6.47402 34.4349 6.18379 34.2083 6.11177 34.0838C5.73052 33.4245 5.4248 32.7234 5.14909 32.0144C4.9639 31.5382 4.68671 30.9001 4.68671 30.3771C4.68671 30.1753 4.98477 30.1651 5.13393 30.2103C5.42725 30.2994 5.55993 30.9376 5.64938 31.173C5.80032 31.5704 5.89786 31.9625 5.98291 32.3783C6.04592 32.6863 6.30195 33.9945 6.14967 32.8748C5.90926 31.1071 5.95278 29.2813 5.9867 27.5004C5.99347 27.1448 6.13536 26.1895 6.17241 27.1859C6.24128 29.0377 6.24098 30.9212 6.17241 32.7724C6.16718 32.9137 6.05936 33.7069 6.05492 33.6669C6.00366 33.2056 6.09387 32.6687 6.12693 32.2153C6.20722 31.1142 6.34171 30.0225 6.49457 28.9293C6.60803 28.1179 6.73057 27.3085 6.8622 26.4999C6.88803 26.3412 6.88765 26.0675 6.9759 25.9162C7.05858 25.7745 7.16998 27.0968 7.17678 27.201C7.30264 29.1309 7.33808 31.0737 7.34733 33.0074C7.35033 33.6344 7.37384 35.5129 7.41555 34.8873C7.50511 33.5439 7.41555 32.1618 7.41555 30.8168C7.41555 29.5774 7.41555 28.3381 7.41555 27.0987C7.41555 26.5865 7.33247 28.1208 7.24879 28.6261C6.98106 30.2428 6.74214 31.8362 6.54384 33.4622C6.50271 33.7994 6.52708 34.8111 6.46046 34.478C6.22362 33.2938 6.39224 31.949 6.39224 30.7485C6.39224 30.2748 6.39224 29.801 6.39224 29.3273C6.39224 29.191 6.31749 28.6752 6.43014 28.5465C6.46663 28.5048 6.48689 28.6439 6.49836 28.6981C6.53936 28.8919 6.58499 29.2267 6.60827 29.3955C6.75253 30.4414 6.87037 31.4908 7.03655 32.5337C7.06315 32.7006 7.65156 35.8045 7.48377 35.8045C7.19588 35.8045 6.56957 35.2302 6.67649 35.4975C6.72895 35.6286 7.22839 35.7985 7.34733 35.8348C7.43133 35.8605 8.11882 36.0091 7.76424 36.0091C6.40297 36.0091 5.02404 35.8695 3.67855 35.6832C3.28583 35.6288 2.89479 35.7105 2.57943 35.3951C2.37967 35.1954 2.36719 34.9601 2.36719 34.6978C2.36719 34.0735 2.79136 34.5674 2.98118 34.8494C3.04904 34.9502 3.11671 35.0546 3.18205 35.1526C3.21078 35.1957 3.18538 35.0489 3.18205 34.9972C3.15781 34.6214 3.10895 34.2475 3.08351 33.8715C3.00061 32.6464 2.97584 31.4227 2.98118 30.1952C2.98384 29.5837 3.14442 29.022 3.18584 28.4214C3.21817 27.9526 3.18584 29.3614 3.18584 29.8313C3.18584 30.4274 3.29151 31.1355 3.15173 31.7226C3.1323 31.8042 3.02213 31.9287 2.97739 31.787C2.76135 31.1029 2.78409 30.3184 2.78409 29.6115C2.78409 28.6995 2.79956 27.194 3.49662 26.4582C3.69635 26.2474 4.17345 26.0467 4.45172 25.9465C4.76586 25.8334 7.72972 24.2408 7.75666 24.7526C7.78866 25.3606 7.18353 25.5093 6.68028 25.7002C6.23597 25.8687 5.79569 26.0766 5.36892 26.2687C4.92204 26.4698 4.64738 26.81 4.37592 27.2048C4.14279 27.5439 3.78038 27.7738 3.49284 28.0614C3.30831 28.2459 3.50267 27.9613 3.54211 27.8984C3.77267 27.5306 4.00969 27.168 4.26222 26.8144C4.2839 26.7841 4.58107 26.3852 4.50857 26.4013C4.26099 26.4563 4.05938 26.9292 3.93627 27.1139C3.69165 27.4808 3.56097 27.9444 3.48904 28.376C3.48197 28.4184 3.39154 29.0025 3.47388 29.0354C3.63175 29.0986 4.55814 26.6606 4.73977 26.3672C4.85973 26.1734 4.89137 26.3009 4.89137 26.4544C4.89137 27.7787 4.37183 29.1465 4.05376 30.4188C3.8362 31.289 3.68609 32.1709 3.48904 33.0453C3.25994 34.062 4.12556 31.0602 4.41382 30.0587C4.70011 29.0641 4.9059 28.0529 5.12256 27.0418C5.14629 26.9311 5.16425 26.5301 5.16425 26.8599C5.16425 27.9412 4.95344 28.985 4.83073 30.0587C4.66523 31.5069 4.54532 32.9787 4.48583 34.4363C4.4729 34.7532 4.47234 34.7827 4.48204 34.4401C4.52948 32.7639 4.90556 31.1113 5.15667 29.4599C5.27825 28.6604 5.32402 27.8755 5.37271 27.0722C5.39705 26.6706 5.53788 27.5922 5.54326 27.6445C5.66582 28.8351 5.62945 30.0327 5.71002 31.2261C5.7325 31.5591 5.9348 32.3116 5.76308 32.636C5.7242 32.7094 5.56839 32.7582 5.50536 32.871C5.44039 32.9872 5.2995 33.16 5.16425 33.1969C4.29346 33.4344 4.27469 29.9454 4.24706 29.5812C4.18663 28.7847 4.14094 27.992 4.14094 27.1935C4.14094 26.9998 4.0873 26.6408 4.22432 26.4733C4.60261 26.011 4.82686 25.4621 5.3386 25.09C5.73719 24.8001 6.25778 24.396 6.5211 23.9681C6.65562 23.7495 6.83327 23.5727 7.02138 23.4034C7.09529 23.3369 7.1788 23.2948 7.245 23.2139C7.33309 23.1062 7.37992 22.7557 7.51409 22.7174C7.61091 22.6897 7.47994 23.1292 7.46861 23.1532C7.31091 23.4876 7.16392 23.7954 7.07445 24.1614C6.6691 25.8196 6.77047 27.7323 7.63538 29.2249C8.10932 30.0429 8.81537 30.6934 9.42808 31.4004C9.63687 31.6413 9.95325 31.7929 10.1823 32.022C10.9459 32.7856 11.7337 33.6355 12.7027 34.1331C13.3332 34.4568 14.2658 34.8531 14.5447 35.5657C14.9131 36.5072 15.9901 36.6697 16.8907 36.8126C17.4026 36.8939 17.8502 36.9642 18.3688 36.9642C18.6139 36.9642 18.859 36.9642 19.1041 36.9642C19.4671 36.9642 19.738 36.8132 20.0744 36.6914C20.7168 36.4587 21.2052 36.0502 21.7382 35.6415C22.302 35.2093 23.0353 34.8942 23.7318 34.7508C24.2151 34.6513 24.7947 34.6869 25.2895 34.7129C26.632 34.7836 22.6051 34.8784 21.2682 35.0199C20.0709 35.1467 18.7678 35.0156 17.5957 35.3269C17.2114 35.429 16.8082 35.4257 16.4283 35.5316C16.2213 35.5893 16.0994 35.668 15.875 35.668C15.0394 35.668 14.7167 34.6863 14.4423 34.0156C14.3092 33.6901 14.1563 33.3527 14.0709 33.0112C14.0305 32.8497 14.2979 33.007 14.34 33.0491C14.5093 33.2184 14.6789 33.388 14.8479 33.557C15.195 33.9041 15.7309 34.2104 15.9773 34.6485C16.1651 34.9824 16.5716 35.3 16.8983 35.4634" stroke="black" stroke-width="1.03954" stroke-linecap="round"/>
</svg>
