<svg width="37" height="38" viewBox="0 0 37 38" fill="none" xmlns="http://www.w3.org/2000/svg">
<rect x="-0.519772" y="0.519772" width="34.305" height="35.8643" rx="4.67795" transform="matrix(-1 0 0 1 34.9768 0.615234)" fill="white" stroke="black" stroke-width="1.03954"/>
<path d="M27.245 11.2757C27.245 11.038 27.2535 10.7987 27.245 10.5613C27.2421 10.4798 27.1852 10.4026 27.1437 10.3399C27.0616 10.2157 26.9283 10.1395 26.8095 10.0684C26.4436 9.8498 26.0574 9.79928 25.6469 9.85364C25.2041 9.91229 24.8562 10.1928 24.5798 10.5746C24.4413 10.7661 24.3257 10.9733 24.2064 11.1799C24.1298 11.3125 24.0468 11.4479 23.9971 11.597C23.9952 11.6028 23.9621 11.698 23.9579 11.6861C23.9491 11.6613 23.9553 11.6064 23.9586 11.5812C23.97 11.4953 24.0302 11.4046 24.0696 11.3323C24.1382 11.206 24.2096 11.0802 24.3047 10.9768C24.4522 10.8165 24.6409 10.6974 24.8106 10.5697C24.9153 10.4908 24.9906 10.424 25.1152 10.4065" stroke="black" stroke-width="0.519772" stroke-linecap="round"/>
<path d="M25.9949 10.6458C26.0001 10.9145 26.0375 11.1824 25.9863 11.4503C25.9443 11.6701 25.8666 11.8931 25.7553 12.0966C25.7427 12.1196 25.7047 11.958 25.702 11.9484C25.6319 11.6961 25.6035 11.4374 25.6013 11.1785C25.5997 11.0018 25.6046 10.8302 25.644 10.6558C25.6592 10.5888 25.6739 10.5086 25.721 10.4512" stroke="black" stroke-width="0.519772" stroke-linecap="round"/>
<path d="M22.5119 10.3387C22.5149 10.3593 22.549 10.2835 22.557 10.2739C22.6101 10.2109 22.6728 10.1496 22.7308 10.0926C22.9126 9.9137 23.1255 9.75978 23.3344 9.62761C23.7818 9.34466 24.3136 9.2127 24.8114 9.10302C25.045 9.05156 25.254 9.00977 25.4929 9.00977C25.6995 9.00977 25.901 9.01419 26.1067 9.03308C26.5044 9.06961 26.9046 9.0564 27.3038 9.0564C27.4838 9.0564 27.7376 9.08097 27.8285 9.28954C27.9057 9.46686 28.1444 9.49544 28.2888 9.58227C28.3736 9.63323 28.4271 9.82087 28.4524 9.91775C28.4907 10.0643 28.4848 10.2095 28.4829 10.362C28.4767 10.8679 28.2765 11.2108 27.9142 11.4811" stroke="black" stroke-width="0.519772" stroke-linecap="round"/>
<path d="M23.1153 12.9228C22.8442 12.8262 22.7109 12.6083 22.5558 12.3688C22.2428 11.8852 22.0218 11.4063 21.9534 10.8198C21.8543 9.97118 21.8233 9.10632 22.3239 8.38441C22.8871 7.5723 23.8922 6.86262 24.8032 6.54984C25.6789 6.2492 26.9135 6.22684 27.732 6.69759C28.4733 7.124 28.9962 7.84957 29.2692 8.6676C29.5029 9.36758 29.5772 10.1921 29.4581 10.9282C29.39 11.3492 29.1869 11.5973 28.8819 11.859" stroke="black" stroke-width="0.519772" stroke-linecap="round"/>
<path d="M21.2764 9.71205C21.0253 9.71205 20.8041 9.72085 20.5642 9.64409C20.314 9.56404 20.0806 9.4656 19.8539 9.32882C19.5158 9.12487 19.2342 8.85485 18.8781 8.67942C18.689 8.58626 18.4317 8.58503 18.2281 8.61523C18.0802 8.63718 17.9384 8.72142 17.8199 8.81156C17.6396 8.94861 17.4541 9.09288 17.2944 9.2552C16.7907 9.7674 16.7707 10.5927 16.7452 11.2752" stroke="black" stroke-width="0.519772" stroke-linecap="round"/>
<path d="M19.4163 8.58595C19.4163 8.5027 19.4351 8.42413 19.4091 8.34226C19.3508 8.15899 19.1951 8.0133 19.0497 7.90361C18.5743 7.54483 18.0153 7.2239 17.4211 7.16221C16.9049 7.10862 16.3687 7.42484 15.9893 7.76957C15.6892 8.04216 15.5108 8.52424 15.4097 8.91588C15.3372 9.19667 15.2709 9.51151 15.3212 9.80255C15.3435 9.9315 15.4314 10.0708 15.4963 10.1812C15.5509 10.2741 15.6096 10.3751 15.6868 10.4493C15.8152 10.5727 15.937 10.6734 16.1003 10.737C16.2213 10.7841 16.3288 10.7928 16.4425 10.8636" stroke="black" stroke-width="0.519772" stroke-linecap="round"/>
<path d="M15.7214 9.00977C15.6956 9.00977 15.7673 9.02189 15.7762 9.02641C15.8743 9.07625 15.9722 9.152 16.0533 9.22613C16.1545 9.31859 16.2464 9.42265 16.3483 9.51323C16.427 9.58314 16.513 9.64149 16.5897 9.71711C16.6384 9.7652 16.6986 9.78723 16.7456 9.83361" stroke="black" stroke-width="0.519772" stroke-linecap="round"/>
<path d="M29.5139 10.0396C29.7118 10.1318 29.8674 10.3771 30.0274 10.5252C30.2468 10.7282 30.4437 10.9439 30.6376 11.1743C30.8489 11.4254 31.0259 11.7076 31.2432 11.9523C31.3482 12.0705 31.495 12.1658 31.5735 12.3051" stroke="black" stroke-width="0.519772" stroke-linecap="round"/>
<path d="M29.514 11.8931C29.8188 11.8931 30.0829 12.1015 30.3196 12.2797C30.6335 12.5159 30.9203 12.7873 31.1737 13.0899C31.3407 13.2894 31.45 13.5253 31.5844 13.7472C31.7433 14.0095 31.8483 14.2988 32.0091 14.5593C32.0973 14.7023 32.2087 14.845 32.3397 14.9497C32.3662 14.9709 32.3975 15.0095 32.3975 14.9535" stroke="black" stroke-width="0.519772" stroke-linecap="round"/>
<path d="M32.4044 14.9824C32.4044 15.0847 32.4044 15.1869 32.4044 15.2892C32.4044 15.4573 32.3796 15.6533 32.4228 15.8166C32.4894 16.068 32.7106 16.2713 32.8657 16.4596C33.0132 16.6384 33.2209 16.8408 33.292 17.075C33.4115 17.4687 33.16 17.873 33.371 18.2548C33.5615 18.5997 33.8105 18.9051 34.0051 19.2491C34.1419 19.4909 34.2844 19.7125 34.4568 19.9251" stroke="black" stroke-width="0.519772" stroke-linecap="round"/>
<path d="M29.7202 14.7719C29.4259 14.7719 29.1315 14.7719 28.8372 14.7719C28.6625 14.7719 28.4808 14.7868 28.3074 14.7622C28.0734 14.729 27.8334 14.6221 27.6147 14.5325C27.4058 14.447 27.1892 14.3954 26.9794 14.3149C26.9178 14.2913 26.8007 14.2523 26.7523 14.2013C26.7483 14.197 26.7684 14.1861 26.7684 14.2327C26.7684 14.3743 26.6621 14.3985 26.5447 14.4358C26.0892 14.5804 25.6509 14.5978 25.1789 14.5978C24.7911 14.5978 24.4215 14.5958 24.0436 14.4999C23.6108 14.3901 23.148 14.3612 22.7053 14.3258C22.443 14.3049 22.255 14.2416 22 14.3319C21.5527 14.4903 20.9819 14.6054 20.5092 14.518C20.2551 14.4711 20.0121 14.3476 19.7752 14.2448C19.5219 14.1349 19.2563 14.0463 19.0161 13.9064C18.8485 13.8087 18.5 13.6404 18.5 13.6404C18.5 13.6404 18.5235 13.66 18.5161 13.667C18.4969 13.6852 18.4776 13.6846 18.4518 13.6888C18.2612 13.7197 18.0729 13.7664 17.883 13.8024C17.4642 13.8818 17.0353 13.9792 16.6112 14.0176C16.241 14.0511 15.8011 14.0757 15.4461 13.9426C15.1973 13.8494 14.9671 13.6884 14.7316 13.5643C14.4837 13.4336 14.2313 13.3118 13.9862 13.175C13.8383 13.0925 13.7377 12.9638 13.5791 12.9429C13.5611 12.9406 13.3876 12.8982 13.4748 12.9441" stroke="black" stroke-width="0.519772" stroke-linecap="round"/>
<path d="M13.3959 12.9255C13.218 12.9255 13.0402 12.9255 12.8624 12.9255C12.7452 12.9255 12.5943 12.8966 12.4925 12.9661C12.2567 13.1273 11.8931 13.1287 11.6206 13.1287C11.2743 13.1287 10.9799 13.0362 10.6523 12.9458C10.4718 12.896 10.2211 12.8355 10.0773 12.7121C10.0331 12.6743 9.97524 12.6358 9.95066 12.5801C9.93947 12.5547 10.0008 12.557 10.0157 12.5462C10.2295 12.3916 10.5754 12.1384 10.5906 11.8474C10.6005 11.6576 10.5312 11.4851 10.5312 11.2999C10.5312 11.1978 10.5311 11.0358 10.6612 11.0358C10.9337 11.0358 11.2095 11.1116 11.4794 11.1475C11.9016 11.2038 12.375 11.3351 12.7817 11.1374C12.9331 11.0638 13.071 10.9347 13.2345 10.8936C13.49 10.8292 13.7526 10.8684 13.9753 11.0019C14.1658 11.1162 14.3544 11.2206 14.5794 11.2435C14.9588 11.2821 15.3369 11.239 15.7158 11.239" stroke="black" stroke-width="0.519772" stroke-linecap="round"/>
<path d="M19.8347 19.1011C19.517 19.1011 19.1993 19.1011 18.8816 19.1011C18.4514 19.1011 18.0386 19.1409 17.6109 19.189C16.8668 19.2726 16.092 19.0809 15.356 19.2669C14.9486 19.3699 14.5657 19.5849 14.1506 19.6624C13.8441 19.7196 13.5425 19.7134 13.2331 19.7134C12.821 19.7134 12.3758 19.7506 11.9715 19.6312C11.8679 19.6006 11.7517 19.5328 11.663 19.4597C11.6391 19.44 11.5589 19.4073 11.6183 19.4073" stroke="black" stroke-width="0.519772" stroke-linecap="round"/>
<path d="M20.8643 15.188C20.856 15.2587 19.7153 15.2102 19.5404 15.2102C19.3041 15.2102 19.0887 15.2075 18.8773 15.3358C18.6668 15.4637 18.5042 15.662 18.2925 15.7856C18.0607 15.9209 17.8144 15.9292 17.5672 16.0086C17.1915 16.1293 16.7871 16.1878 16.4011 16.2649C15.7917 16.3866 15.1774 16.4293 14.5787 16.6124C14.1911 16.7309 13.8045 16.8828 13.4448 17.0781C13.0413 17.2972 12.7453 17.6161 12.4214 17.9443C12.1604 18.2089 11.7526 18.6541 11.3485 18.5099C11.221 18.4644 11.0719 18.5028 10.9801 18.6072C10.8973 18.7014 10.7729 18.9096 10.7729 19.0471C10.7729 19.138 10.9469 19.2322 11.0112 19.2566C11.1337 19.3031 11.2637 19.2838 11.3899 19.3083C11.525 19.3346 11.577 19.4013 11.6639 19.5129" stroke="black" stroke-width="0.519772" stroke-linecap="round"/>
<path d="M17.7702 13.9526C17.7702 14.0681 17.7839 14.189 17.7667 14.3038C17.7622 14.3339 17.741 14.3636 17.7258 14.3906C17.6925 14.4492 17.6529 14.5033 17.6091 14.5572C17.5545 14.6244 17.4937 14.6873 17.4364 14.753C17.4199 14.7719 17.4071 14.7919 17.4071 14.7586C17.4071 14.6674 17.4013 14.576 17.3945 14.485C17.3853 14.3608 17.3808 14.2285 17.3164 14.1134C17.2886 14.0638 17.247 14.0247 17.1997 13.9869C17.1871 13.9769 17.1743 13.9664 17.1575 13.9619" stroke="black" stroke-width="0.519772" stroke-linecap="round"/>
<path d="M18.8048 14.006C18.8048 14.0447 18.805 14.0835 18.8048 14.1222C18.8045 14.194 18.7931 14.2549 18.7689 14.3226C18.7472 14.3833 18.7118 14.4388 18.6771 14.4929C18.6514 14.5331 18.6266 14.5756 18.5976 14.6135C18.5173 14.7188 18.3987 14.805 18.2869 14.8743C18.2297 14.9097 18.1665 14.9375 18.1108 14.9749C18.0948 14.9856 18.0927 14.9867 18.0998 14.9662C18.1592 14.7944 18.1855 14.5996 18.1792 14.4183C18.1756 14.3139 18.122 14.2378 18.0656 14.1536C18.0264 14.0951 18.0469 13.9957 17.9811 13.9526" stroke="black" stroke-width="0.519772" stroke-linecap="round"/>
<path d="M16.5396 14.2067C16.5396 14.2686 16.5073 14.3255 16.4818 14.3763C16.4321 14.4752 16.38 14.5717 16.3324 14.6722C16.3203 14.6979 16.3101 14.7252 16.2973 14.7502C16.289 14.7664 16.2797 14.7916 16.2706 14.7633C16.2434 14.6778 16.2304 14.585 16.2172 14.4949C16.2067 14.424 16.2015 14.3504 16.1817 14.2822C16.1755 14.2605 16.1646 14.2388 16.1562 14.2179C16.1471 14.1952 16.1424 14.1765 16.1276 14.1582" stroke="black" stroke-width="0.519772" stroke-linecap="round"/>
<path d="M15.4859 14.274C15.4943 14.2593 15.5047 14.2289 15.5065 14.2098C15.5073 14.2009 15.5122 14.1604 15.5083 14.1807C15.4965 14.2423 15.4736 14.2996 15.4536 14.3552C15.4252 14.4345 15.3945 14.5122 15.3666 14.5919C15.3477 14.646 15.3328 14.7011 15.3082 14.7498C15.3034 14.7593 15.2988 14.7702 15.2919 14.7761C15.2833 14.7834 15.2655 14.6865 15.2637 14.678C15.244 14.5811 15.2296 14.4816 15.217 14.382C15.207 14.3032 15.1981 14.2201 15.1801 14.1445C15.1693 14.0991 15.1489 14.0692 15.1349 14.0281C15.1236 13.995 15.1283 13.9483 15.0978 13.953" stroke="black" stroke-width="0.519772" stroke-linecap="round"/>
<path d="M14.686 13.7507C14.6717 13.7587 14.678 13.8439 14.6768 13.8538C14.6646 13.9602 14.6362 14.0646 14.6052 14.1678C14.5718 14.2786 14.5119 14.37 14.4516 14.4698C14.4366 14.4947 14.4225 14.5199 14.4071 14.5446C14.404 14.5495 14.3975 14.5703 14.3896 14.5707C14.3791 14.5712 14.3719 14.5413 14.3703 14.5369C14.3201 14.4013 14.2772 14.2636 14.2252 14.1284C14.1799 14.0106 14.1304 13.8942 14.0939 13.7738C14.077 13.718 14.0642 13.6589 14.0387 13.6055C14.0257 13.5783 14.004 13.5567 13.9871 13.5315C13.9722 13.5091 13.9635 13.4847 13.9537 13.4603C13.9333 13.4093 13.9047 13.3725 13.8622 13.335" stroke="black" stroke-width="0.519772" stroke-linecap="round"/>
<path d="M13.6562 13.1846C13.6562 13.2516 13.6562 13.3185 13.6562 13.3855C13.6562 13.4425 13.6573 13.4999 13.649 13.5564C13.6379 13.6315 13.6145 13.7048 13.5926 13.777C13.5615 13.8798 13.5207 13.9813 13.4774 14.0792C13.4666 14.1035 13.4577 14.1362 13.4388 14.1551C13.4363 14.1576 13.4319 14.161 13.4295 14.1562C13.4261 14.1496 13.4259 14.1396 13.424 14.1327C13.4164 14.1059 13.4051 14.0803 13.3943 14.0548C13.3467 13.9423 13.2988 13.83 13.254 13.7161C13.1941 13.5637 13.1387 13.4095 13.068 13.262C13.0207 13.1633 12.9716 13.0618 12.897 12.983C12.8766 12.9615 12.8528 12.9444 12.8324 12.9229" stroke="black" stroke-width="0.519772" stroke-linecap="round"/>
<path d="M12.8147 12.9848C12.8147 12.6771 12.8055 13.6 12.8055 13.9076C12.8055 14.1022 12.8087 14.294 12.8229 14.4881C12.8248 14.5129 12.8284 14.5372 12.8321 14.5618C12.8361 14.5874 12.8078 14.5493 12.804 14.5452C12.573 14.301 12.3977 14.0065 12.2369 13.7089C12.171 13.5869 12.0929 13.461 12.0455 13.3292C12.0305 13.2873 12.0142 13.2567 12.0087 13.2107" stroke="black" stroke-width="0.519772" stroke-linecap="round"/>
<path d="M12.2121 13.8669C12.2121 13.9479 12.2121 14.0289 12.2121 14.1099C12.2121 14.1165 12.2184 14.151 12.211 14.1562C12.1907 14.1707 12.1034 14.1198 12.0923 14.1141C11.9581 14.0453 11.8456 13.9503 11.7483 13.852C11.6877 13.7909 11.6333 13.7263 11.5855 13.6586C11.5538 13.6135 11.5312 13.5655 11.5039 13.5189C11.475 13.4695 11.4416 13.4218 11.4124 13.3726C11.405 13.3601 11.395 13.3483 11.3908 13.335" stroke="black" stroke-width="0.519772" stroke-linecap="round"/>
<path d="M11.3185 13.2327C11.3185 13.3405 11.3185 13.4482 11.3185 13.556C11.3185 13.6791 11.3129 13.8056 11.3346 13.927C11.3465 13.9936 11.3633 14.0627 11.3833 14.1269C11.3929 14.1573 11.3994 14.169 11.3638 14.1479C11.2566 14.0844 11.1609 13.9914 11.0663 13.9079C10.8794 13.7429 10.716 13.5522 10.5692 13.3424C10.5008 13.2447 10.4608 13.1292 10.403 13.0242C10.3844 12.9905 10.3611 12.9638 10.3611 12.9229" stroke="black" stroke-width="0.519772" stroke-linecap="round"/>
<path d="M25.6013 14.7516C25.5811 14.9614 25.5119 15.1368 25.4218 15.3228C25.3142 15.5446 25.1809 15.7822 25.0186 15.9663C24.9449 16.05 24.9414 16.0101 24.935 15.9169C24.9159 15.6387 24.8566 15.3728 24.7493 15.1177C24.702 15.0053 24.6327 14.9028 24.5627 14.8092C24.5371 14.775 24.499 14.7421 24.4685 14.7104C24.4258 14.666 24.4273 14.5917 24.3655 14.5703" stroke="black" stroke-width="0.519772" stroke-linecap="round"/>
<path d="M24.3655 14.6606C24.3655 14.7621 24.3372 14.8642 24.3108 14.9623C24.2827 15.0671 24.2373 15.1605 24.1668 15.2481C24.075 15.3624 23.9604 15.4635 23.8746 15.5814C23.8514 15.6131 23.829 15.5979 23.7916 15.5841C23.7128 15.555 23.6483 15.5048 23.5963 15.4453C23.4933 15.3276 23.4243 15.181 23.36 15.0444C23.3125 14.9435 23.2709 14.8393 23.2257 14.7392C23.2077 14.6993 23.1875 14.6605 23.1687 14.6208C23.1624 14.6076 23.1565 14.5893 23.1447 14.5789C23.1385 14.5734 23.1337 14.5773 23.1297 14.5703" stroke="black" stroke-width="0.519772" stroke-linecap="round"/>
<path d="M23.1299 14.3974C23.1299 14.5465 23.1299 14.6955 23.1299 14.8446C23.1299 14.959 23.1302 15.07 23.1041 15.1813C23.0737 15.3105 23.0356 15.4378 23.0018 15.5658C22.9849 15.6297 22.9674 15.6931 22.9564 15.7589C22.9538 15.7743 22.9506 15.816 22.9293 15.8038C22.8554 15.7614 22.7922 15.6564 22.7412 15.585C22.6352 15.4367 22.5412 15.2797 22.4514 15.1172C22.3768 14.9822 22.2977 14.8477 22.2555 14.6928C22.2351 14.6177 22.2068 14.5491 22.1735 14.481C22.1667 14.4673 22.1628 14.4473 22.1504 14.4387C22.1466 14.436 22.1411 14.4315 22.1393 14.4265C22.1308 14.404 22.1191 14.3755 22.1001 14.3643" stroke="black" stroke-width="0.519772" stroke-linecap="round"/>
<path d="M22.0985 14.5703C22.0985 14.7783 22.0985 14.9864 22.0985 15.1944C22.0985 15.2435 22.0985 15.2927 22.0985 15.3418C22.0985 15.3513 22.1059 15.3999 22.0888 15.3936C21.9822 15.3546 21.8835 15.2661 21.8022 15.1932C21.6651 15.0704 21.549 14.9267 21.4079 14.8081C21.3759 14.7811 21.3419 14.7499 21.3051 14.7286C21.293 14.7216 21.2866 14.7184 21.2826 14.705C21.2745 14.6782 21.2656 14.7058 21.2583 14.7177C21.2006 14.8122 21.1821 14.9185 21.16 15.0246C21.142 15.1112 21.1327 15.1983 21.1183 15.2854C21.1141 15.311 21.1074 15.3394 21.1074 15.3654C21.1074 15.3894 21.0692 15.3384 21.0678 15.3366C20.9847 15.2282 20.9222 15.1064 20.8378 14.9987C20.7995 14.9497 20.7439 14.9152 20.7064 14.8674C20.6927 14.8498 20.6817 14.8212 20.6584 14.8138" stroke="black" stroke-width="0.519772" stroke-linecap="round"/>
<path d="M20.6584 14.7764C20.6584 14.7764 20.6427 14.7764 20.4525 14.7764" stroke="black" stroke-width="0.519772" stroke-linecap="round"/>
<path d="M16.3335 16.1254C16.3268 16.0183 16.2525 15.9076 16.1799 15.8229C16.1301 15.7646 16.1021 15.8744 16.0771 15.9135C16.0012 16.0321 15.9221 16.1497 15.8591 16.274C15.8292 16.3332 15.7655 16.2508 15.7399 16.2243C15.6398 16.1209 15.5546 16.0076 15.4725 15.8933C15.4629 15.8798 15.4601 15.8699 15.4506 15.8874C15.4147 15.9538 15.3826 16.0217 15.3464 16.0881C15.2778 16.214 15.2223 16.349 15.149 16.4724C15.1189 16.523 15.0428 16.3593 15.0324 16.3421C14.9554 16.2141 14.9014 16.0772 14.8172 15.9519C14.7595 15.866 14.7631 15.9908 14.7487 16.039C14.7043 16.1869 14.6475 16.3427 14.5704 16.4806C14.5499 16.5174 14.5525 16.5587 14.506 16.5185C14.398 16.4253 14.2768 16.3423 14.1619 16.2557C14.1318 16.233 14.0343 16.1561 13.9837 16.1686C13.9707 16.1718 13.9562 16.2317 13.9535 16.2379C13.8772 16.4085 13.8073 16.5803 13.7506 16.7565C13.7243 16.8383 13.6894 16.9218 13.6711 17.0052C13.6672 17.0229 13.6738 17.0342 13.656 17.0419" stroke="black" stroke-width="0.519772" stroke-linecap="round"/>
<path d="M13.2444 16.9881C13.2328 16.8677 13.1762 16.7487 13.1414 16.6347C13.0916 16.4717 13.0511 16.3072 13.0141 16.1407C13.0081 16.1139 13.0033 16.0321 12.9803 16.013C12.9776 16.0108 12.9739 16.0139 12.9723 16.0156C12.955 16.0338 12.9464 16.0676 12.9393 16.0903C12.8868 16.2594 12.8587 16.4378 12.8186 16.6105C12.7861 16.7503 12.7527 16.8897 12.7167 17.0286C12.6993 17.0958 12.6863 17.1544 12.6863 17.2231C12.6863 17.3048 12.6639 17.3786 12.6489 17.4575C12.6359 17.5261 12.6318 17.5896 12.6265 17.6599" stroke="black" stroke-width="0.519772" stroke-linecap="round"/>
<path d="M12.4207 17.635C12.4198 17.5682 12.4143 17.5018 12.4101 17.4352C12.4008 17.2867 12.4004 17.1298 12.3655 16.9845C12.3548 16.9402 12.3291 16.8359 12.2669 16.8359C12.2574 16.8359 12.2539 16.8371 12.2496 16.8476C12.2385 16.8745 12.2325 16.9046 12.2257 16.9328C12.2024 17.0295 12.1834 17.1272 12.1663 17.2252C12.128 17.4454 12.0911 17.666 12.0538 17.8864C12.0352 17.9968 12.0153 18.1084 12.0018 18.2196C11.9987 18.2453 11.9969 18.2715 11.9902 18.2965C11.9884 18.3034 11.981 18.2859 11.9771 18.28C11.9331 18.213 11.8892 18.1466 11.8499 18.0765C11.7347 17.8709 11.6404 17.6546 11.4962 17.4677C11.4717 17.4359 11.4454 17.4051 11.4171 17.3768C11.4043 17.3639 11.3862 17.3428 11.3672 17.3389C11.3553 17.3364 11.3612 17.4184 11.3612 17.4228C11.3598 17.6305 11.3492 17.8382 11.3449 18.0459C11.3421 18.1812 11.3423 18.3165 11.3423 18.4519C11.3423 18.4587 11.3378 18.4868 11.3446 18.4925C11.3469 18.4943 11.3475 18.5022 11.3446 18.4993C11.3351 18.4895 11.3261 18.4726 11.3181 18.4616C11.2899 18.4229 11.2652 18.3821 11.2406 18.3409C11.1538 18.1961 11.0696 18.0497 10.9901 17.9005C10.9171 17.7633 10.8538 17.6166 10.7589 17.4931C10.7516 17.4836 10.7329 17.4507 10.7179 17.4498C10.7151 17.4497 10.7138 17.4508 10.7135 17.4536C10.7097 17.4828 10.7115 17.5158 10.7108 17.5448C10.7031 17.8739 10.6964 18.2099 10.7481 18.5358C10.7483 18.5365 10.7547 18.5668 10.7479 18.5623C10.6973 18.5292 10.6559 18.47 10.616 18.4254C10.5284 18.3274 10.4416 18.2287 10.3543 18.1306C10.3228 18.0953 10.2805 18.0351 10.2308 18.0258C10.2111 18.0222 10.2035 18.0223 10.1997 18.0434C10.172 18.1992 10.1751 18.3652 10.1703 18.5228C10.1652 18.6907 10.1659 18.8587 10.1577 19.0265C10.1565 19.0515 10.1551 19.0765 10.1551 19.1015" stroke="black" stroke-width="0.519772" stroke-linecap="round"/>
<path d="M19.6132 11.461C19.6132 11.2659 19.6668 10.9843 19.5745 10.8101C19.4662 10.6055 19.3284 10.3614 19.084 10.2916C18.9114 10.2423 18.6237 10.2189 18.4565 10.2927C18.1926 10.4092 18.1386 10.7492 18.0748 10.9923C18.0015 11.2718 17.8811 11.4478 17.569 11.4814" stroke="black" stroke-width="0.519772" stroke-linecap="round"/>
<path d="M19.1259 19.7192C19.1259 20.1239 19.127 20.5044 19.3873 20.8377C19.5023 20.9851 19.6752 21.3988 19.8744 21.4236C20.2428 21.4695 19.8951 21.9359 19.821 22.1279C19.0047 24.2421 18.9173 26.7517 18.8051 28.9868" stroke="black" stroke-width="0.519772" stroke-linecap="round"/>
<path d="M18.187 21.7783C17.7685 21.7783 17.3885 22.108 17.0786 22.3713C16.8023 22.6061 16.5873 22.9158 16.344 23.1876C16.0064 23.5647 15.6274 23.8984 15.3006 24.2864C14.7697 24.9167 14.2424 25.5537 13.7534 26.2224C13.5398 26.5145 13.3483 26.7607 13.0383 26.927" stroke="black" stroke-width="0.519772" stroke-linecap="round"/>
<path d="M33.6302 24.25C33.6302 24.8786 33.6589 25.5044 33.5356 26.1238C33.3794 26.9087 33.112 27.7482 32.806 28.4885C32.5254 29.1673 32.4641 29.8747 32.2555 30.5627C32.1105 31.0409 31.9872 31.2614 31.6272 31.593C31.3252 31.8712 30.8269 32.4019 30.3944 32.4019C29.7105 32.4019 29.0625 32.5464 28.3881 32.6509C27.1431 32.8436 25.8306 32.8998 24.5714 32.8998" stroke="black" stroke-width="0.519772" stroke-linecap="round"/>
<path d="M31.5735 20.7485C31.0534 20.7485 30.6464 21.1329 30.2801 21.4808C29.8549 21.8847 29.4565 22.3049 29.0911 22.768C28.7365 23.2174 28.5003 23.7395 28.2179 24.2382C27.6407 25.2578 27.2347 26.3954 26.9493 27.5391C26.8208 28.0539 26.6308 28.6555 26.6308 29.1924" stroke="black" stroke-width="0.519772" stroke-linecap="round"/>
<path d="M23.1299 16.8359C22.1414 16.8359 21.1577 16.938 20.1786 17.0864C19.1926 17.2359 18.1427 17.2634 17.1772 17.5317C16.6324 17.6831 16.0778 17.7208 15.5471 17.9368C15.1682 18.0911 14.8072 18.2675 14.4178 18.3821C14.1655 18.4563 13.9091 18.6171 13.6445 18.6171C13.4907 18.6171 13.3728 18.6193 13.2411 18.7006C12.967 18.8699 12.5235 18.781 12.2147 18.8954" stroke="black" stroke-width="0.519772" stroke-linecap="round"/>
<path d="M23.1299 17.1558C23.1299 17.0514 23.1299 16.947 23.1299 16.8426C23.1299 16.6487 22.9558 16.7785 22.8315 16.8453C22.7189 16.9059 22.3733 17.2308 22.2539 17.2308C22.2431 17.2308 22.0763 16.9012 22.0568 16.8667C21.9882 16.7461 21.9547 16.6667 21.8241 16.7944C21.7006 16.9152 21.5298 16.9971 21.3806 17.0782C21.2282 17.161 21.2594 16.0522 20.7893 16.8694C20.7678 16.9067 20.5811 17.1723 20.5675 17.0595C20.5483 16.8998 20.4308 16.7652 20.3595 16.6258C20.2396 16.3913 20.0948 16.9096 19.9023 16.9096C19.8452 16.9096 19.8072 16.1375 19.5328 16.5401C19.4293 16.6918 19.21 17.0669 19.04 17.1451C19.0203 17.1542 18.8821 16.6919 18.8429 16.6365C18.7616 16.5217 18.6265 16.5782 18.5993 16.6981C18.555 16.8927 18.3989 17.0094 18.3009 17.1773C18.2848 17.2047 18.1763 16.8339 18.1421 16.7703C18.0947 16.6823 17.8412 16.7179 17.7588 16.7222C17.6047 16.7301 17.4973 17.0891 17.4385 17.204C17.3233 17.4294 17.3716 17.3994 17.2907 17.2255C17.2208 17.075 17.2571 16.9631 17.0443 16.9631C16.8713 16.9631 16.8642 17.1104 16.8199 17.2549C16.8065 17.2984 16.6471 17.605 16.6145 17.5413C16.5581 17.4309 16.533 17.3331 16.4393 17.2415C16.3976 17.2007 16.3178 17.0648 16.2559 17.0648C16.215 17.0648 16.1191 17.4119 16.1026 17.4476C16.0866 17.4824 15.8452 17.9178 15.8371 17.7823C15.8271 17.6156 15.7622 17.4881 15.6783 17.3486C15.4363 16.9462 15.1216 18.0252 15.098 18.0714" stroke="black" stroke-width="0.519772" stroke-linecap="round"/>
<path d="M13.8623 28.8168C13.8623 29.6617 13.7297 27.126 13.5317 26.2967C13.372 25.6278 13.1726 24.903 12.908 24.2567C12.6927 23.7306 12.3106 23.3149 11.9913 22.8467C11.8047 22.5732 11.6132 22.2799 11.4085 22.0113C11.2925 21.8591 11.1799 21.6546 10.979 21.5728" stroke="black" stroke-width="0.519772" stroke-linecap="round"/>
<path d="M10.7732 21.5728C10.061 21.874 9.41676 22.346 8.71372 22.675C7.78181 23.111 6.86166 23.561 5.91683 23.9682C5.26365 24.2498 4.60712 24.6595 3.93709 24.8828C3.75001 24.9451 3.55807 25.0739 3.35911 25.0739" stroke="black" stroke-width="0.519772" stroke-linecap="round"/>
<path d="M3.35887 25.0735C3.35887 23.4707 4.18101 21.8419 5.05222 20.5721C5.52682 19.8803 5.96438 19.1318 6.56249 18.5471C6.70308 18.4097 7.00623 18.2615 7.06592 18.0713" stroke="black" stroke-width="0.519772" stroke-linecap="round"/>
<path d="M7.0691 18.0713C7.0691 18.5784 7.03428 19.079 7.19791 19.5672C7.26679 19.7727 7.27706 20.1263 7.28646 20.3426C7.29675 20.5795 7.42148 20.7946 7.43136 21.022C7.4478 21.4004 7.57627 21.7545 7.57627 22.1336C7.57627 22.2837 7.75836 23.0587 7.64872 23.012" stroke="black" stroke-width="0.519772" stroke-linecap="round"/>
<path d="M2.94707 25.8975C3.09949 26.4616 3.37538 27.0203 3.45324 27.6049C3.5563 28.3786 3.79031 29.1998 3.98183 29.9593C4.27886 31.1372 4.57116 32.336 5.02621 33.4588C5.22506 33.9495 5.52294 34.6694 5.542 35.2136C5.55939 35.7102 5.62302 36.3742 5.83032 36.8126" stroke="black" stroke-width="0.519772" stroke-linecap="round"/>
<path d="M5.83041 36.8127C5.97471 36.5301 6.29644 36.2863 6.54364 36.1269C7.0142 35.8236 7.46457 35.5142 7.90108 35.1558C8.58203 34.5967 9.33889 34.1673 10.0132 33.6041C10.2424 33.4126 10.5429 33.2211 10.8 33.0735C10.9489 32.988 11.0698 32.8758 11.2141 32.7931C11.2906 32.7494 11.6624 32.5289 11.5869 32.4878" stroke="black" stroke-width="0.519772" stroke-linecap="round"/>
<path d="M2.94702 24.7742C2.85425 24.7639 2.81514 24.6671 2.72183 24.6619C2.6384 24.6573 2.62197 24.71 2.55293 24.7181C2.43777 24.7316 2.26654 24.8512 2.15884 24.899C2.01698 24.9618 1.89933 24.9835 1.76475 25.0674C1.56308 25.1931 1.9927 25.2439 2.04624 25.2795" stroke="black" stroke-width="0.519772" stroke-linecap="round"/>
<path d="M2.12315 25.4854C2.12315 25.9744 2.11715 26.4312 2.26669 26.9003C2.44987 27.4749 2.64664 28.0172 2.75347 28.6167C2.85571 29.1904 2.98845 29.768 3.13727 30.3263C3.28378 30.8759 3.32646 31.491 3.49923 32.0221C3.62843 32.4193 3.65694 32.8612 3.80815 33.2555C3.96098 33.654 4.09881 34.2429 4.14827 34.6773C4.1901 35.0447 4.35296 35.378 4.43846 35.7222C4.47609 35.8737 4.48133 36.3384 4.59448 36.4005" stroke="black" stroke-width="0.519772" stroke-linecap="round"/>
<path d="M2.12309 24.8678C2.12309 24.2361 2.58672 23.6143 2.88006 23.0847C3.13852 22.6181 3.48037 22.1107 3.67277 21.6075C4.1179 20.4434 4.77629 19.5192 5.46937 18.521C5.69503 18.196 5.83232 17.7943 6.04441 17.454C6.16673 17.2577 6.31014 17.0745 6.42127 16.8631C6.44966 16.8091 6.56747 16.4882 6.56747 16.7032C6.56747 17.123 6.85986 18.343 6.85986 17.9232" stroke="black" stroke-width="0.519772" stroke-linecap="round"/>
<path d="M24.5715 32.8994C22.8732 32.8994 21.226 33.1163 19.5466 33.4134C18.6814 33.5665 17.7724 33.5162 16.8955 33.5162C15.9623 33.5162 15.0242 33.6533 14.0945 33.6533C13.8196 33.6533 12.8326 33.907 12.8326 33.4477" stroke="black" stroke-width="0.519772" stroke-linecap="round"/>
<path d="M26.219 28.7808C25.4618 28.7808 24.7047 28.7808 23.9475 28.7808C23.119 28.7808 22.2984 29.0789 21.478 29.2041C20.8566 29.2989 20.2249 29.4148 19.6093 29.5441C19.081 29.6552 18.4673 29.905 17.9322 29.905C17.6017 29.905 17.2019 29.9573 16.8856 30.0612C16.6034 30.1539 16.2251 30.0616 15.9645 30.1861C15.6685 30.3275 15.2748 30.3499 14.9575 30.4012C14.6653 30.4485 14.3738 30.4692 14.2741 30.1549" stroke="black" stroke-width="0.519772" stroke-linecap="round"/>
<path d="M13.8623 30.2228C13.8623 29.8142 13.8305 29.5263 13.6576 29.1498C13.4507 28.6993 13.0382 28.1391 12.6633 27.8315C12.2662 27.5057 12.0364 27.0158 11.5586 26.8198C11.2137 26.6783 10.8423 26.4911 10.5026 26.3292C10.3858 26.2736 10.0679 26.3531 10.1777 26.3599C10.4065 26.374 10.5896 26.5084 10.7496 26.6801C11.0562 27.0092 11.1757 27.4806 11.2889 27.9064C11.3272 28.0502 11.4052 28.6283 11.5229 28.6899" stroke="black" stroke-width="0.519772" stroke-linecap="round"/>
<path d="M11.5969 28.6204C11.4265 28.5972 11.0493 28.1295 10.8877 28.0082C10.652 27.8312 10.4229 27.5761 10.1719 27.4391C9.75988 27.2142 9.0287 27.4306 8.60175 27.4824C8.05459 27.5487 7.48847 27.5493 6.97882 27.7633C6.57591 27.9325 7.3173 27.8425 7.45052 27.8425C8.14707 27.8425 9.00661 27.8777 9.62433 28.2963C10.0182 28.5632 10.4356 28.9368 10.6469 29.3983" stroke="black" stroke-width="0.519772" stroke-linecap="round"/>
<path d="M10.5671 29.28C9.21855 29.28 7.63714 28.9541 6.35708 29.5628C6.11 29.6803 6.31062 29.6149 6.49214 29.6149C7.22237 29.6149 7.9421 29.6371 8.66965 29.6781C9.258 29.7114 9.94641 29.8054 10.5078 30.0167" stroke="black" stroke-width="0.519772" stroke-linecap="round"/>
<path d="M12.8325 33.3115C12.5286 33.3115 12.217 33.0244 11.9765 32.8514C11.6835 32.6406 11.3855 32.3938 11.1205 32.1459C10.4801 31.547 9.62949 31.2243 8.75898 31.1678C8.50289 31.1511 8.19877 31.1302 7.94558 31.178C7.91313 31.1841 7.62061 31.2563 7.69631 31.2121C7.95053 31.0635 8.19134 30.992 8.46707 30.8917C8.90604 30.7321 9.46731 30.7795 9.88068 30.5986C10.1476 30.4819 10.5202 30.5986 10.7662 30.4282" stroke="black" stroke-width="0.519772" stroke-linecap="round"/>
<path d="M18.5989 27.1328C18.3927 27.1542 18.2016 27.3243 18.0308 27.4338C17.8075 27.5771 17.5761 27.7189 17.3751 27.8933C17.1489 28.0895 16.8947 28.2493 16.6738 28.4513C16.4084 28.694 16.1777 28.9746 15.9164 29.2224C15.493 29.6238 15.0833 30.0289 14.6856 30.4282" stroke="black" stroke-width="0.519772" stroke-linecap="round"/>
</svg>
