<svg width="36" height="38" viewBox="0 0 36 38" fill="none" xmlns="http://www.w3.org/2000/svg">
<rect x="-0.519772" y="0.519772" width="34.305" height="35.8643" rx="4.67795" transform="matrix(-1 0 0 1 34.6829 0.711426)" fill="white" stroke="#F32D12" stroke-width="1.03954"/>
<path d="M16.4886 11.7053C16.7644 11.6492 17.0402 11.5931 17.3161 11.537C17.8601 11.4264 18.2079 11.1618 18.6612 10.8573C19.1506 10.5287 19.6071 10.1507 20.1058 9.83357C21.1528 9.16767 22.4893 8.85637 23.713 8.74532C26.0617 8.53219 28.5821 10.2866 29.1334 12.6221C29.2729 13.2129 29.3743 13.795 29.2464 14.3959C29.0709 15.2206 28.7514 16.0215 28.4027 16.7832C27.5162 18.7193 26.1546 20.5082 24.7249 22.0602C23.312 23.5939 21.8057 25.0099 20.1915 26.3237C19.0906 27.2197 18.0131 28.1438 16.9499 29.0855C16.2282 29.7247 15.543 30.4235 14.7725 31.0037C14.0996 31.5104 13.3437 31.9994 12.5679 32.3285C12.4004 32.3996 12.2097 32.5578 12.0173 32.5536C11.6621 32.5459 11.3655 31.4887 11.2897 31.2749C10.9383 30.2832 10.7322 29.2417 10.5206 28.2131C10.3159 27.2184 10.1164 26.2277 10.0123 25.2165C9.71418 22.3217 9.3871 19.4431 8.99261 16.5609C8.85326 15.5428 8.70209 14.5289 8.67588 13.4996C8.64491 12.284 8.82453 11.0154 9.07739 9.83215C9.29008 8.83686 9.65539 7.83299 10.1429 6.94476C10.569 6.16861 11.0978 5.57322 11.9714 5.32369C12.6721 5.12356 13.369 5.00832 14.0657 5.28339C14.6501 5.51409 15.1745 5.82919 15.6668 6.22248C16.3832 6.7948 17.0788 7.45417 17.6003 8.21214C17.8581 8.58692 18.0883 8.93789 18.2846 9.35307C18.3724 9.53887 18.6389 9.79149 18.8461 9.82754C19.055 9.86391 19.2397 9.8202 19.4466 9.8108C19.8113 9.79424 20.1567 9.82764 20.4726 9.5996" stroke="#F32D12" stroke-width="1.03954" stroke-linecap="round"/>
<path d="M21.4084 15.448C20.9595 15.448 22.3065 15.4409 22.7554 15.448C23.424 15.4585 24.1625 15.6484 24.6189 16.1728C24.8767 16.469 25.096 16.7957 25.2577 17.1532C25.3108 17.2707 25.3442 17.3892 25.3826 17.5115C25.3862 17.5226 25.4147 17.6455 25.4201 17.6434C25.5104 17.6073 24.9314 16.705 24.8966 16.6588C24.6177 16.2886 24.2266 16.0683 23.833 15.8479C23.2446 15.5184 22.4221 15.473 21.7598 15.473C21.4921 15.473 21.2344 15.5292 20.9877 15.6341C20.9398 15.6544 20.7018 15.7228 20.7336 15.7785C20.7845 15.8676 20.7911 15.9803 20.8141 16.0784C20.865 16.2951 20.9379 16.504 21.021 16.7102C21.2101 17.1795 21.5026 17.4684 21.8972 17.7781C22.6096 18.337 23.3606 18.7208 24.2718 18.8029C24.6221 18.8344 25.0475 18.7326 25.3077 18.4724" stroke="#F32D12" stroke-width="1.03954" stroke-linecap="round"/>
<path d="M23.5831 16.7224C23.5831 17.2174 23.6621 17.8693 23.1693 18.168C23.0707 18.2277 22.8065 18.2717 22.7222 18.1652C22.5335 17.9269 22.5898 17.4851 22.6888 17.2279C22.7746 17.0051 22.8916 16.7735 23.1332 16.6974C23.2361 16.665 23.4613 16.6332 23.5581 16.6905C23.7197 16.786 23.7233 17.1686 23.6664 17.3223C23.5945 17.5168 23.3456 17.5796 23.161 17.5709C22.9096 17.5589 22.8558 17.2556 22.8624 17.0501C22.8705 16.7988 23.0535 16.4897 23.3082 16.4225C23.4186 16.3933 23.5956 16.3697 23.7081 16.4086C23.8994 16.4748 23.858 16.7011 23.858 16.8599C23.858 17.3362 23.5136 17.7555 23.0332 17.8166C22.8188 17.8439 22.7658 17.6047 22.7597 17.4459C22.7499 17.1926 22.8167 17.0012 22.9082 16.7724" stroke="#F32D12" stroke-width="1.03954" stroke-linecap="round"/>
<path d="M17.1343 15.3979C17.1343 14.5255 17.2081 13.6876 16.6872 12.9318C16.3478 12.4393 15.9014 11.9262 15.3486 11.6737C14.8651 11.4528 14.278 11.3545 13.7461 11.3487C13.624 11.3474 13.5017 11.3487 13.3795 11.3487C13.078 11.3487 12.8954 11.721 12.7602 11.9431C12.5723 12.2518 12.5083 12.5477 12.5103 12.9095C12.5144 13.6679 12.7272 14.4555 13.1004 15.1174C13.6244 16.0467 14.7571 16.5425 15.7707 16.6588C16.0849 16.6948 16.465 16.6447 16.6719 16.3963C16.8035 16.2385 16.7661 16.0275 16.8233 15.8478C16.8729 15.6919 16.8782 15.546 16.8858 15.384C16.895 15.1869 16.9344 14.9967 16.9344 14.798" stroke="#F32D12" stroke-width="1.03954" stroke-linecap="round"/>
<path d="M16.4846 13.7981C16.2631 13.969 16.0848 14.1855 15.8458 14.3355C15.6062 14.486 15.3445 14.5724 15.0682 14.6285C14.687 14.7059 14.1386 14.6807 14.0351 14.2036C13.8198 13.2109 15.2794 12.8031 16.0041 12.7983C16.2539 12.7967 16.6056 12.7732 16.6318 13.101C16.6677 13.5504 16.4192 13.9013 16.0986 14.1939C15.7994 14.4668 15.4103 14.5859 15.0099 14.6174C14.8156 14.6327 14.5112 14.6639 14.4503 14.4202C14.3762 14.1238 14.7436 13.7675 14.946 13.6037C15.1884 13.4075 15.4444 13.2654 15.7597 13.2496C15.8212 13.2465 16.0847 13.2094 16.0847 13.3177C16.0847 13.4702 15.768 13.5709 15.6612 13.6218C15.4693 13.7131 15.272 13.7761 15.0765 13.8537C15.0044 13.8823 14.9118 13.9481 14.8349 13.9481" stroke="#F32D12" stroke-width="1.03954" stroke-linecap="round"/>
<path d="M14.8099 19.5968C15.0477 19.4521 15.2777 19.3182 15.5431 19.2261C15.9843 19.0729 16.4504 19.0738 16.9123 19.0719C17.3547 19.0702 17.7785 19.0785 18.1856 19.2775C18.5877 19.4739 18.9667 19.8299 19.2049 20.2078C19.2468 20.2744 19.5108 20.6199 19.4423 20.7133C19.1513 21.1102 18.9315 21.5204 18.4953 21.7936C18.1732 21.9954 17.76 22.0522 17.3886 22.0825C16.9583 22.1175 16.516 22.1433 16.0847 22.1102C15.4508 22.0617 14.8521 21.8382 14.4114 21.3715C14.1803 21.1268 14.1586 20.7436 14.1878 20.4217C14.2082 20.1979 14.3665 20.0274 14.435 19.8218" stroke="#F32D12" stroke-width="1.03954" stroke-linecap="round"/>
<path d="M16.7346 19.5722C16.9331 19.5722 16.8846 20.2644 16.8846 20.3748C16.8846 20.6291 16.9152 21.1251 16.6041 21.2468C16.4113 21.3222 16.2976 21.1526 16.2236 20.9969C16.0542 20.6407 15.9455 20.2142 15.9889 19.8166C16.0354 19.3902 16.7474 19.3375 17.0179 19.5527C17.1908 19.6904 17.2814 19.9472 17.3095 20.1582C17.342 20.4033 17.373 20.7088 17.3192 20.9538C17.2833 21.1175 17.1097 21.1592 16.9595 21.1385C16.6107 21.0904 16.4414 20.6435 16.3902 20.347C16.3453 20.0871 16.3191 19.5472 16.7096 19.5472C17.0308 19.5472 17.049 19.9898 17.0595 20.222" stroke="#F32D12" stroke-width="1.03954" stroke-linecap="round"/>
<path d="M10.6357 19.3467C10.8039 19.3467 10.9876 19.3251 11.1495 19.3773C11.4508 19.4743 11.7071 19.8499 11.8827 20.0938C12.3403 20.7293 12.4768 21.4571 12.4604 22.2323C12.4513 22.6599 12.228 23.0242 12.0382 23.3931C11.9964 23.4745 11.8878 23.7582 11.9119 23.5292C11.9205 23.4474 11.9303 23.3669 11.9369 23.2848C11.9392 23.2558 11.9625 23.1306 11.9605 23.2321C11.9551 23.5045 11.8087 23.837 11.6494 24.0541C11.5612 24.1744 11.4886 24.0757 11.38 23.9889C11.0646 23.7365 10.8382 23.4248 10.5802 23.121C10.2205 22.6974 9.8576 22.3029 9.74842 21.7449C9.64866 21.235 9.63086 20.6766 9.83591 20.191C9.88782 20.0681 9.95752 19.9401 10.0234 19.823C10.061 19.7562 10.1358 19.6741 10.1358 19.5967" stroke="#F32D12" stroke-width="1.03954" stroke-linecap="round"/>
<path d="M11.9856 21.3466C11.8627 21.3466 11.7334 21.5014 11.6371 21.5688C11.5424 21.6351 11.3465 21.5966 11.2357 21.5966C11.0236 21.5966 10.8298 21.4792 10.8914 21.2272C10.9468 21.0004 11.4999 20.7154 11.7231 20.8356C11.8881 20.9244 11.8606 21.0805 11.8606 21.2411C11.8606 21.4563 11.69 21.7754 11.4593 21.8215C11.2828 21.8568 11.0029 21.9606 10.9164 21.7271C10.7174 21.1898 11.4695 20.6887 11.9356 20.9217" stroke="#F32D12" stroke-width="1.03954" stroke-linecap="round"/>
<path d="M14.8351 26.5206C14.8351 26.2725 15.0028 26.0699 15.1725 25.8957C15.4781 25.582 16.0317 25.4766 16.4514 25.4513C17.1127 25.4115 17.7986 25.48 18.3538 25.8707C18.8047 26.188 18.3658 26.8874 18.1802 27.2121C17.6484 28.1429 16.3951 28.7602 15.4627 28.0091C15.0973 27.7148 14.9758 27.2427 14.8351 26.8205" stroke="#F32D12" stroke-width="1.03954" stroke-linecap="round"/>
<path d="M16.5595 26.1206C16.6299 26.2702 16.5845 26.5101 16.5845 26.6691C16.5845 26.7032 16.6018 27.1709 16.5095 27.0093C16.4043 26.8253 16.3368 26.6559 16.2901 26.4455C16.2674 26.3436 16.2484 26.0678 16.3595 26.2844C16.4652 26.4905 16.5211 26.7332 16.6344 26.9315C16.6751 27.0027 16.8238 26.981 16.8719 26.9329C16.9863 26.8185 17.1711 26.0829 16.9094 25.9956" stroke="#F32D12" stroke-width="1.03954" stroke-linecap="round"/>
<path d="M25.8826 11.4488C25.872 11.5442 25.7372 11.6679 25.6799 11.7362C25.5538 11.8865 25.3567 12.1134 25.1786 12.1972C24.9374 12.3107 24.6799 12.3711 24.4177 12.4111C24.1608 12.4502 23.8289 12.5132 23.5956 12.375C23.243 12.166 22.9984 11.8352 22.7388 11.5237C22.5764 11.3289 22.3685 10.9982 22.4778 10.7433C22.5671 10.5349 22.6577 10.3023 22.8207 10.1393C23.0228 9.93724 23.2914 9.8389 23.5567 9.75048C24.1625 9.54856 24.8655 9.55879 25.4424 9.83657C25.9255 10.0692 25.9076 10.6271 25.9076 11.0738" stroke="#F32D12" stroke-width="1.03954" stroke-linecap="round"/>
<path d="M24.6079 10.3487C24.6079 10.546 24.6646 10.844 24.5635 11.018C24.4773 11.1662 24.3207 11.1821 24.1775 11.0929C23.8118 10.8654 23.9331 10.3218 23.9331 9.94873" stroke="#F32D12" stroke-width="1.03954" stroke-linecap="round"/>
<path d="M17.7559 10.1782C17.8133 10.1782 18.1697 10.1782 18.0335 10.1782C17.9332 10.1782 17.6424 10.1653 17.6424 10.0079C17.6424 9.94356 17.8605 9.97365 17.8998 9.97889C18.0931 10.0047 18.0822 10.2207 17.9376 10.3095C17.8497 10.3635 17.6116 10.4172 17.5869 10.2691C17.563 10.1261 18.17 10.1747 18.2631 10.1795C18.3593 10.1844 18.4146 10.2017 18.4146 10.3044C18.4146 10.5674 17.7877 10.515 17.6449 10.4697C17.2542 10.3458 16.93 9.97971 16.7945 9.59786C16.7418 9.44916 16.7357 9.2875 16.7062 9.13355C16.6636 8.91112 16.5997 8.69377 16.5119 8.48504C16.4613 8.36482 16.2439 7.9077 16.522 8.20999C16.9301 8.65361 17.169 9.20283 17.4329 9.73664C17.4364 9.74353 17.501 9.88974 17.5137 9.88552C17.5202 9.88334 17.241 9.35134 17.2286 9.32785C17.0863 9.05838 16.9272 8.7933 16.8046 8.51406C16.7447 8.37757 16.8262 8.40995 16.9131 8.49261C17.2346 8.79825 17.4392 9.25771 17.6134 9.65589C17.8102 10.1058 17.9803 10.5785 18.1004 11.0551C18.1026 11.0638 18.1831 11.4037 18.1546 11.3907C18.0821 11.3577 18.012 11.2503 17.9679 11.1926C17.8418 11.0279 17.7288 10.8531 17.6222 10.6753C17.2892 10.1204 17.0382 9.51821 16.7794 8.92663C16.7677 8.89999 16.5416 8.53406 16.5346 8.54812C16.5167 8.58387 16.5335 8.69189 16.5359 8.71593C16.5572 8.92748 16.6056 9.13507 16.6482 9.34299C16.7612 9.89507 16.8513 10.4518 16.9661 11.0034C16.9936 11.1354 17.0196 11.2677 17.0469 11.3996C17.0706 11.5145 16.8182 11.3366 16.7163 11.2784C16.2897 11.0351 15.8792 10.7578 15.4748 10.4798C15.2795 10.3455 15.0851 10.2089 14.8969 10.0647C14.8792 10.0511 14.7467 9.96451 14.7354 9.92337C14.7238 9.88077 14.8227 9.94278 14.8616 9.96375C15.0137 10.0458 15.1576 10.1462 15.3007 10.2426C15.6523 10.4794 15.999 10.7261 16.3391 10.9794C16.4506 11.0625 16.667 11.1794 16.7415 11.3037C16.7828 11.3724 16.596 11.2365 16.5245 11.2002C16.268 11.0697 16.0097 10.943 15.7511 10.8167C15.3695 10.6302 14.9774 10.4549 14.6105 10.2401C14.5879 10.2268 14.4766 10.1754 14.4604 10.1429C14.4262 10.0746 14.6051 10.1926 14.6749 10.2237C15.0554 10.3931 15.4853 10.6137 15.8104 10.8823C15.9507 10.9982 15.4545 10.8043 15.2805 10.751C14.971 10.6563 14.6733 10.5475 14.3721 10.4306C14.2216 10.3722 14.3828 10.4052 14.4503 10.4154C14.5958 10.4374 14.7441 10.4834 14.8793 10.5416C14.8859 10.5445 15.0252 10.6003 14.9676 10.6047C14.4863 10.6417 13.9584 10.5338 13.4889 10.4432C13.2501 10.3971 13.0135 10.3333 12.7848 10.2502C12.6346 10.1955 12.7309 10.2038 12.824 10.2401C13.002 10.3095 13.1761 10.3893 13.3539 10.4596C13.3897 10.4738 13.5154 10.5075 13.528 10.5517C13.5331 10.5696 13.4923 10.5652 13.4737 10.5643C13.3554 10.5589 13.2404 10.5299 13.1268 10.4987C12.7012 10.3818 12.2758 10.248 11.86 10.1C11.6711 10.0327 11.4734 9.96539 11.2935 9.87543C11.2108 9.83408 11.4642 9.9469 11.5471 9.98772C11.7818 10.1032 12.0146 10.2292 12.2549 10.3322C12.432 10.4081 11.8987 10.1832 11.7301 10.0899C11.41 9.91277 11.0764 9.72924 10.8216 9.46159C10.6364 9.26704 10.5662 9.08052 10.8645 8.96701C11.3349 8.788 11.7499 9.15684 11.836 9.60543C11.8557 9.70762 11.882 9.88601 11.7957 9.96753C11.581 10.1703 11.2797 9.91509 11.1585 9.74421C10.8437 9.30033 10.8797 8.65717 10.8797 8.13807C10.8797 7.98735 10.8586 7.64815 10.9529 7.51353C10.9794 7.47557 10.9641 7.60613 10.9604 7.65231C10.947 7.82219 10.9089 7.98479 10.857 8.1469C10.7426 8.50416 10.5921 8.8733 10.3939 9.19285C10.3603 9.24705 10.2388 9.44408 10.1958 9.28748C10.1174 9.00186 10.1675 8.63393 10.2185 8.34877C10.2572 8.13295 10.3007 7.9071 10.375 7.70026C10.3802 7.68567 10.4811 7.4883 10.4835 7.50091C10.5359 7.77053 10.3276 8.14755 10.2211 8.37653C10.0822 8.67507 9.91109 8.95565 9.75424 9.24458C9.74607 9.25963 9.73793 9.27469 9.73027 9.29C9.71814 9.31426 9.7575 9.24307 9.77064 9.21935C9.85578 9.06563 9.93503 8.90942 10.0091 8.74999C10.2386 8.25603 10.4262 7.74922 10.6198 7.241C10.6561 7.14554 10.6922 7.05065 10.7232 6.95333C10.7316 6.92713 10.7419 6.85405 10.756 6.87763C10.7753 6.90971 10.7611 7.04967 10.7611 7.06815C10.7611 7.28163 10.7581 7.4946 10.7459 7.70783C10.7266 8.04607 10.6908 8.38243 10.6488 8.71845C10.6481 8.72377 10.5958 9.0748 10.6463 8.93294C10.937 8.11615 11.1398 7.27105 11.4361 6.45622C11.5185 6.22957 11.4847 6.60745 11.484 6.66188C11.4764 7.29628 11.3949 7.9249 11.2733 8.54686C11.2325 8.75594 11.1837 8.96305 11.1396 9.1714C11.1223 9.25322 11.116 9.3551 11.0803 9.43257C11.0643 9.46732 11.0551 9.35854 11.0563 9.32028C11.064 9.07054 11.1088 8.82217 11.1535 8.57714C11.2353 8.12879 11.3384 7.6864 11.455 7.24605C11.495 7.09494 11.5232 6.93394 11.5963 6.79436C11.615 6.75869 11.6246 6.78366 11.6291 6.81455C11.6623 7.04279 11.6507 7.28403 11.6417 7.51353C11.6306 7.79882 11.6007 8.08688 11.5282 8.36391C11.4811 8.54406 11.463 8.40802 11.4651 8.30083C11.4735 7.87909 11.5435 7.44029 11.72 7.05427C11.8232 6.82846 11.9898 6.56351 12.2776 6.62024C12.6362 6.69092 12.7772 7.03506 12.8807 7.34572C13.0406 7.82532 13.1126 8.32227 13.0977 8.82696C13.0926 9.00229 13.0959 9.23766 12.9262 9.34425C12.7668 9.44433 12.6065 9.35498 12.4934 9.2307C12.1406 8.84318 11.8092 8.05297 12.207 7.58544C12.3133 7.46045 12.4646 7.34957 12.6334 7.3432C12.8392 7.33543 12.8469 7.50513 12.8593 7.67629C12.881 7.97563 12.8763 8.28674 12.7874 8.57588C12.7459 8.71062 12.6749 8.88947 12.5325 8.94682C12.0988 9.12149 12.184 7.62503 12.2827 7.42268C12.4055 7.17079 12.6476 6.84699 12.964 6.86754C13.2558 6.88649 13.4903 7.17439 13.6302 7.4025C13.7953 7.67175 13.8979 7.98726 13.9305 8.30083C13.943 8.42172 13.9833 8.66798 13.8068 8.70457C13.4943 8.76939 13.1631 8.25628 13.0561 8.03335C12.9216 7.75305 12.7804 7.22684 12.9514 6.93315C13.1261 6.63304 13.5381 6.79309 13.7614 6.93062C14.2181 7.21193 14.4919 7.77075 14.6925 8.2491C14.8124 8.53501 14.8844 8.85098 14.8931 9.16131C14.8947 9.21776 14.9361 9.43731 14.8187 9.34552C14.6533 9.2162 14.5243 9.01076 14.4099 8.84084C14.1714 8.48655 13.9578 8.11591 13.7614 7.73685C13.642 7.50627 13.5223 7.27065 13.4611 7.01642C13.4362 6.91288 13.3503 6.64371 13.4498 6.54959C13.5217 6.48152 13.6764 6.5538 13.7299 6.57608C14.0506 6.70989 14.3316 6.94484 14.584 7.17792C15.3341 7.87063 15.9569 8.70684 16.5119 9.56C16.6999 9.84897 16.8891 10.1452 17.0544 10.4482C17.1094 10.5491 17.1058 10.5683 17.0115 10.4886C16.4836 10.0422 16.0013 9.54041 15.5934 8.98215C15.5713 8.95193 15.4151 8.7229 15.4445 8.75883C15.6279 8.98294 15.7904 9.22666 15.9151 9.48809C15.998 9.66187 16.073 9.8401 16.1435 10.0193C16.1702 10.0871 16.227 10.2197 16.1082 10.1202C15.6884 9.76849 15.3038 9.34819 14.9474 8.9342C14.7254 8.67626 14.4155 8.36752 14.2964 8.03587C14.2483 7.90203 14.666 8.06042 14.6875 8.06868C14.9878 8.1841 15.2845 8.32292 15.5707 8.4699C15.6004 8.48518 15.8609 8.66395 15.8836 8.57588C15.9475 8.32741 15.8644 8.00345 15.7978 7.76587C15.74 7.55964 15.6689 7.35421 15.5669 7.1653C15.532 7.1006 15.436 7.00655 15.5694 7.05932C15.7596 7.13449 15.9446 7.2408 16.1195 7.34572C16.2055 7.39732 16.3189 7.4477 16.3971 7.50848C16.7107 7.75239 15.7438 7.05571 15.4281 6.81455C15.1562 6.60686 14.8702 6.44281 14.5474 6.32753C14.319 6.24594 14.0917 6.16342 13.8649 6.07771C13.7635 6.03942 13.6139 6.06762 13.5091 6.06762C13.2873 6.06762 13.0725 6.11304 12.8505 6.11304C12.7142 6.11304 12.5779 6.11304 12.4417 6.11304C12.1244 6.11304 11.8048 6.18678 11.5332 6.35276C11.4199 6.42205 11.3369 6.56492 11.2607 6.67071C11.1059 6.88571 11.1245 7.17805 11.238 7.40754C11.4559 7.8479 11.7674 8.33386 12.212 8.56831C12.5727 8.75848 12.993 8.78656 13.3551 8.97458C13.6243 9.11434 13.8765 9.25438 14.1222 9.43383C14.1599 9.46137 14.4602 9.69859 14.2888 9.70131C13.7293 9.7102 12.9746 9.55182 12.636 10.124C12.4041 10.5158 12.2734 11.0143 12.1578 11.4513C12.0387 11.901 11.912 12.3461 11.7856 12.7937C11.743 12.9446 11.6782 13.1334 11.6695 13.2896C11.6676 13.323 11.7054 13.2325 11.7174 13.2013C11.8648 12.8171 12.0948 12.4928 12.3508 12.1717C12.6794 11.7598 13.0556 11.4241 13.5141 11.1725C13.6929 11.0744 13.8274 10.932 13.9809 10.8015C14.0241 10.7648 14.0657 10.7387 14.1197 10.7233C14.1752 10.7074 13.9352 10.6897 13.9279 10.6892C13.2796 10.6487 12.6011 10.7545 12.1376 11.2545C11.718 11.707 11.5487 12.3877 11.3894 12.9716C11.388 12.9768 11.355 13.1484 11.3162 13.0991C11.2773 13.0495 11.2746 12.9422 11.2708 12.8884C11.2533 12.6406 11.2574 12.388 11.267 12.1402C11.294 11.4441 11.4658 10.7766 11.6493 10.1076C11.7302 9.81263 11.804 9.46007 11.9647 9.19411C11.9877 9.15606 12.0344 9.09093 12.0783 9.07046C12.0874 9.06624 12.0761 9.09108 12.0707 9.09948C12.0059 9.20039 11.952 9.30727 11.9017 9.41617C11.3413 10.6273 11.0056 11.9197 10.5617 13.1735C10.529 13.266 10.4952 13.4773 10.4204 13.552C10.4197 13.5527 10.4067 13.0136 10.4078 12.9918C10.4438 12.2717 10.5685 11.5601 10.6677 10.8469C10.7495 10.2595 10.8117 9.6668 10.91 9.08182C10.9125 9.06677 10.9751 8.64149 10.9995 8.64149C11.0314 8.64149 11.0009 9.19243 11.0008 9.19411C10.9405 9.94762 10.7665 10.6999 10.6362 11.4437C10.5384 12.0021 10.4414 12.5615 10.3334 13.118C10.3262 13.155 10.3119 13.3879 10.2602 13.4095C10.1705 13.4468 10.1191 12.5677 10.1189 12.5616C10.0839 11.7212 10.0954 10.8752 10.1075 10.0344C10.1144 9.55738 10.1641 9.08255 10.1706 8.60616C10.1706 8.60565 10.1706 8.39806 10.1706 8.49513C10.1706 8.68661 10.134 8.86579 10.0899 9.0528C9.77768 10.3745 9.48805 11.6889 9.27984 13.0322C9.26799 13.1087 9.27647 13.3625 9.21171 13.4208C9.14469 13.4811 9.17093 13.2435 9.17134 13.1533C9.17501 12.33 9.32182 11.5115 9.46531 10.7031C9.50255 10.4933 9.55857 10.2902 9.60158 10.0823C9.61417 10.0215 9.64054 10.0034 9.66088 10.0773C9.75691 10.4265 9.80694 10.7962 9.8678 11.1523C9.99352 11.8879 10.1004 12.6262 10.2034 13.3653C10.2527 13.7187 10.3106 14.0708 10.3624 14.4239C10.3694 14.4719 10.3719 14.6234 10.4204 14.6598C10.4609 14.6902 10.9033 12.947 11.3011 13.9331C11.5211 14.4785 11.5853 15.0829 11.7124 15.654C11.7523 15.8331 11.7639 16.0972 11.8689 16.2546C11.8911 16.2879 11.9359 16.3008 11.9698 16.2722C12.0301 16.2215 12.0504 16.1182 12.0669 16.0489C12.1151 15.8473 12.1404 15.6385 12.154 15.432C12.1971 14.7759 12.1082 14.1058 12.1704 13.4523C12.185 13.2989 12.2566 13.7485 12.2953 13.8977C12.3934 14.2759 12.4447 14.6553 12.4858 15.0434C12.5127 15.2973 12.5248 15.5536 12.5767 15.8042C12.5862 15.8501 12.6208 15.9297 12.6208 15.977C12.6208 16.0157 12.5758 15.9139 12.5552 15.8811C12.4252 15.6742 12.3056 15.4621 12.1906 15.2465C11.8074 14.5284 11.4536 13.7951 11.1181 13.0537C11.0388 12.8783 11.0531 12.909 10.9831 12.7584C10.9586 12.7055 10.9225 12.5485 10.9024 12.6032C10.8724 12.685 10.9216 12.9252 10.9289 12.9855C10.9693 13.3192 11.033 13.6486 11.0967 13.9785C11.2183 14.6081 11.3288 15.2356 11.3288 15.8786C11.3288 15.9839 11.1646 15.8802 11.1244 15.8508C10.9434 15.7182 10.8859 15.4375 10.7384 15.2654" stroke="#F32D12" stroke-width="1.03954" stroke-linecap="round"/>
<path d="M10.7384 15.2651C10.7384 15.5957 10.7384 15.9263 10.7384 16.2568C10.7384 16.505 10.7384 16.7531 10.7384 17.0012C10.7384 17.0935 10.7684 17.2475 10.7359 17.3368C10.7171 17.3886 10.6484 17.2681 10.6148 17.2245C10.39 16.9332 10.1983 16.6158 10.0243 16.2921C9.68649 15.664 9.36041 14.9748 9.19789 14.2759C9.17846 14.1924 9.16548 14.1069 9.13985 14.0249C9.13658 14.0144 9.21637 14.1643 9.22691 14.1876C9.45764 14.6992 9.52901 15.278 9.60038 15.8291C9.62287 16.0028 9.64387 16.1769 9.65841 16.3514C9.67116 16.5044 9.67426 16.658 9.66598 16.383C9.63916 15.491 9.65842 14.5991 9.64706 13.7069C9.64512 13.5551 9.61857 13.3929 9.62939 13.2414C9.63176 13.2082 9.71784 13.4536 9.72024 13.4609C9.92628 14.0912 10.1239 14.7276 10.2842 15.3711C10.4298 15.9555 10.5886 16.5037 10.6123 17.1097C10.6132 17.135 10.641 17.9471 10.5921 17.9349C10.4965 17.911 10.4493 17.6366 10.4331 17.5766C10.3146 17.1365 10.2576 16.6849 10.2085 16.2328C10.1959 16.1168 10.1775 16.0001 10.1719 15.8834C10.1698 15.8377 10.1662 15.7473 10.1757 15.8556C10.2282 16.4567 10.2216 17.0619 10.2148 17.6649C10.2111 17.9975 10.2246 18.4287 10.0798 18.7424C10.0582 18.7893 10.012 18.7896 9.98393 18.7525C9.8163 18.5309 9.79897 18.2056 9.77575 17.9399C9.77146 17.8908 9.71484 17.357 9.77197 17.3368C9.84121 17.3124 9.85272 18.1897 9.85272 18.2566C9.85272 18.2952 9.89127 18.8896 9.80729 18.8938C9.6528 18.9015 9.60542 17.2883 9.60542 17.1059C9.60542 17.0604 9.59463 16.35 9.7215 16.4107C9.81719 16.4566 9.89354 16.5883 9.9486 16.6707C10.1487 16.97 10.2776 17.3017 10.3965 17.6396C10.5292 18.0167 10.6229 18.4402 10.8066 18.7979C10.8363 18.8557 10.8293 18.7415 10.8293 18.7398C10.8321 18.3824 10.8293 18.0248 10.8293 17.6674C10.8293 17.4294 10.8293 17.1913 10.8293 16.9533C10.8293 16.9364 10.8066 16.6907 10.8394 16.6782C10.8899 16.659 10.9823 16.7952 10.9983 16.817C11.1602 17.0369 11.2816 17.293 11.3705 17.5501C11.5144 17.9661 11.6082 18.4188 11.6014 18.861C11.6006 18.914 11.6068 19.027 11.5182 19.0023C11.3131 18.9452 11.2303 18.6295 11.1863 18.4585C11.092 18.0916 11.0706 17.7088 11.0602 17.3318C11.0523 17.05 11.0551 16.7873 11.1371 16.5167C11.2055 16.2911 11.2957 16.1553 11.4336 16.4473C11.6718 16.9517 11.7123 17.5447 11.8273 18.085C11.8649 18.2616 11.8959 18.4415 11.9421 18.6162C11.9596 18.6823 12.0075 18.7564 12.0102 18.8256C12.0124 18.8795 11.9632 18.7282 11.9471 18.6768C11.785 18.1564 11.6885 17.6233 11.6418 17.0807C11.6209 16.8381 11.6072 16.5937 11.6027 16.3502C11.6013 16.2739 11.5666 16.0723 11.6241 16.002C11.7257 15.8778 12.0724 16.7555 12.0771 16.7691C12.3935 17.6881 12.4921 18.6839 12.5275 19.6508C12.5326 19.7887 12.5326 19.9267 12.5326 20.0646C12.5326 20.0781 12.5358 20.1181 12.5326 20.105C12.5218 20.0621 12.5229 19.9998 12.5174 19.9586C12.4038 19.1015 12.1435 18.2635 11.9799 17.4151C11.8864 16.9302 11.7831 16.4184 11.7831 15.9212C11.7831 15.8993 11.7748 15.8099 11.821 15.8581C11.95 15.9929 12.0262 16.2021 12.1048 16.3666C12.4211 17.0278 12.5826 17.7131 12.6411 18.4421C12.6777 18.8986 12.6674 19.3823 12.771 19.8312C12.7758 19.8518 12.7999 19.9381 12.8164 19.8665C12.8774 19.6022 12.8624 19.3013 12.8682 19.0326C12.8838 18.3077 12.8929 17.5832 12.7975 16.8637C12.793 16.8297 12.7632 16.7087 12.7849 16.6707C12.785 16.6705 12.9219 16.8337 12.9287 16.8422C13.1399 17.1044 13.2553 17.4151 13.4271 17.7015C13.4392 17.7215 13.5293 17.8653 13.5293 17.8567C13.5293 17.5547 13.3763 17.226 13.282 16.9457C13.2413 16.8248 13.1987 16.7055 13.1508 16.5874C13.1395 16.5595 13.115 16.5138 13.1243 16.4814C13.1316 16.4559 13.525 16.8039 13.5394 16.817C13.7443 17.0028 13.9289 17.2067 14.1198 17.4062C14.1917 17.4814 14.2427 17.4482 14.198 17.3494C14.1048 17.1437 13.8744 16.994 13.6959 16.87C13.5127 16.7428 13.6929 16.8512 13.7943 16.8978C14.2558 17.1098 14.7363 17.3545 15.2528 17.3545C15.5354 17.3545 15.8094 17.2924 16.0931 17.2864C16.4537 17.2787 16.8045 17.1274 17.1655 17.1274" stroke="#F32D12" stroke-width="1.03954" stroke-linecap="round"/>
<path d="M17.2564 17.6952C17.2564 17.3336 17.2564 18.4186 17.2564 18.7803C17.2564 18.9215 17.1263 18.7204 17.1088 18.6819C17.0722 18.6013 17.0974 18.4693 17.0974 18.3841C17.0974 18.1984 17.1089 18.0177 17.1542 17.8366C17.1831 17.7211 17.1987 17.5136 17.3586 17.5136C17.3952 17.5136 17.4677 17.4993 17.4936 17.53C17.5937 17.6482 17.476 17.8681 17.4154 17.9728C17.2548 18.2504 16.8526 18.6037 16.5019 18.6037C16.2373 18.6037 16.2631 18.0696 16.2849 17.8996C16.2892 17.8663 16.3133 17.7126 16.3821 17.7432C16.456 17.7761 16.4129 18.0097 16.3959 18.0586C16.2853 18.3781 15.9268 18.5405 15.6137 18.5784C15.3747 18.6074 15.3941 18.4507 15.3941 18.2592C15.3941 18.2138 15.3601 17.9843 15.3992 17.9501C15.4168 17.9347 15.4165 17.9948 15.4169 18.0182C15.4182 18.1004 15.4214 18.1849 15.4143 18.2668C15.3849 18.6053 15.0751 18.7838 14.7582 18.7046C14.5213 18.6454 14.4439 18.4087 14.4403 18.1898C14.4377 18.0335 14.4404 18.0437 14.4744 18.1949C14.5116 18.3606 14.5243 18.5428 14.5034 18.7122C14.4742 18.9485 14.1539 19.1424 13.923 19.0705C13.7583 19.0192 13.701 18.7518 13.6808 18.61C13.6713 18.5435 13.5797 18.1052 13.6732 18.0637C13.762 18.0242 13.9325 18.0586 14.0265 18.0586C14.1952 18.0586 14.3873 18.0333 14.5526 18.0725C14.6676 18.0997 14.7741 18.161 14.8895 18.1898C14.968 18.2095 14.8051 18.0181 14.7999 18.0132C14.6825 17.9027 14.4862 17.7613 14.3141 17.7911C14.1102 17.8265 13.9607 18.2556 13.8978 18.422C13.7464 18.8219 13.8251 19.2556 13.8031 19.6723C13.7943 19.84 13.7157 19.9965 13.6555 20.1505C13.5693 20.3711 13.4832 20.5893 13.4082 20.8142C13.3449 21.004 13.3053 21.1785 13.2694 21.3731C13.2625 21.4107 13.2161 21.6748 13.2139 21.5232C13.2104 21.2819 13.1779 21.0405 13.1698 20.799C13.1652 20.6642 13.2035 20.4707 13.118 20.3524C13.0474 20.2545 13.0528 20.3665 13.0562 20.4243C13.0712 20.6798 13.1209 20.9374 13.1458 21.1927C13.217 21.9235 13.3955 22.6267 13.3477 23.3678C13.3451 23.408 13.3184 23.6856 13.2366 23.6807C13.1615 23.6763 13.2461 23.0931 13.2505 23.0625C13.3244 22.5528 13.4094 22.0439 13.5319 21.5434C13.5379 21.5188 13.5621 21.2474 13.6353 21.2873C13.8036 21.3791 13.8922 21.7223 13.9508 21.8866C14.0772 22.2416 14.2037 22.6119 14.2674 22.9843C14.2951 23.1458 14.3607 23.4249 14.2649 23.5748C14.1444 23.7634 13.8458 23.7745 13.6505 23.7489C13.2587 23.6976 13.0813 23.3708 13.0461 23.0108C13.0367 22.9148 12.9791 22.605 13.1004 22.5376C13.1777 22.4947 13.2175 22.7107 13.2228 22.7446C13.2934 23.2 13.0585 23.6567 12.8506 24.0441C12.6779 24.3658 12.486 24.7056 12.1238 24.8264" stroke="#F32D12" stroke-width="1.03954" stroke-linecap="round"/>
<path d="M10.3979 23.9633C10.4017 23.9364 10.4872 24.1631 10.4925 24.1778C10.6125 24.5058 10.6878 24.845 10.7562 25.1871C10.8672 25.742 11.0173 26.278 11.0906 26.8399C11.1996 27.6762 11.3083 28.509 11.3694 29.3507C11.4183 30.0249 11.4209 30.7227 11.5435 31.3884C11.5736 31.5519 11.5726 31.7244 11.6129 31.8855C11.637 31.9819 11.7397 31.9099 11.8059 31.8943C11.8844 31.8759 11.9203 31.913 11.9649 31.9688C11.9725 31.9782 11.978 31.9468 11.9775 31.9347C11.9712 31.7522 11.9224 31.5675 11.8867 31.3896C11.737 30.6433 11.6272 29.8972 11.5385 29.1413C11.4552 28.4319 11.4209 27.7262 11.2886 27.0242C11.2203 26.6615 11.2209 26.2831 11.16 25.9176C11.1242 25.7031 11.106 25.4535 11.1019 25.2351C11.0992 25.0909 11.0816 24.9254 11.1133 24.7859C11.1541 24.606 11.401 24.906 11.43 24.9424C11.8642 25.4872 12.0937 26.1403 12.1794 26.8261C12.3225 27.9711 12.2767 29.1384 12.4305 30.2831C12.4721 30.5932 12.5666 30.8819 12.6349 31.1852C12.652 31.2614 12.6721 31.6279 12.7598 31.3745C12.8806 31.0254 12.9225 30.6261 12.9503 30.2604C12.9888 29.7535 13.0015 29.2383 12.9844 28.73C12.962 28.0652 12.7822 27.413 12.6917 26.7567C12.605 26.1286 12.2431 25.455 12.4822 24.8263C12.5875 24.5494 12.759 24.3655 12.9654 24.1551C13.0776 24.0407 13.195 23.9355 13.2998 23.8144C13.3392 23.7689 13.3949 23.7159 13.4588 23.7135C13.6487 23.7061 13.4869 24.2229 13.4638 24.3165C13.3473 24.7893 13.0777 25.262 13.0777 25.7574C13.0777 26.1986 13.0997 26.6341 13.1181 27.0746C13.1457 27.7343 13.1232 28.399 13.1232 29.0593C13.1232 29.424 13.1005 29.788 13.1005 30.1532C13.1005 30.2529 13.0557 30.4717 13.1131 30.562C13.1867 30.6777 13.0621 30.9293 13.2405 30.9115C13.4854 30.887 13.7762 30.6514 13.942 30.4888C14.1101 30.3239 14.2653 30.1383 14.4177 29.9589C14.524 29.8336 14.6515 29.7236 14.7533 29.5955C14.8432 29.4824 14.9414 29.4382 15.0662 29.3684C15.1973 29.295 15.327 29.1511 15.4674 29.1009C15.5628 29.0669 15.6578 29.0732 15.7576 29.0732C15.8104 29.0732 15.8435 29.0734 15.7879 29.1211C15.6752 29.2176 15.5731 29.3135 15.4434 29.3886C15.1346 29.5674 14.8223 29.7075 14.5262 29.9134C14.3515 30.0349 14.1725 30.1621 13.9786 30.2516C13.7587 30.3531 14.0637 30.1741 14.1161 30.1368C14.656 29.7522 15.1871 29.3439 15.7664 29.0189C15.904 28.9417 16.0412 28.9388 16.184 28.8965C16.2264 28.884 16.2696 28.8874 16.3115 28.8688C16.3155 28.867 16.0582 28.8388 16.0137 28.8347C15.725 28.808 15.5319 28.6974 15.2983 28.5407C14.8228 28.2216 14.4665 27.662 14.2991 27.1276C14.2006 26.8132 14.1906 26.5015 14.1906 26.175C14.1906 25.9637 14.1752 25.7443 14.241 25.5404C14.2982 25.3635 14.3656 25.1834 14.4404 25.013C14.5155 24.8418 14.5577 24.6506 14.6448 24.4856C14.6674 24.4427 14.7126 24.3976 14.747 24.3632C14.784 24.3262 14.8019 24.3535 14.7091 24.3481C14.5828 24.3407 14.4701 24.2859 14.347 24.2636C14.232 24.2427 14.2385 24.3609 14.2082 24.4503C14.0082 25.0407 13.8266 25.6442 13.7149 26.2583C13.5425 27.2063 13.453 28.3107 14.0404 29.1375C14.1536 29.2968 14.2911 29.4085 14.4631 29.4996C14.4767 29.5068 14.4766 29.5076 14.4694 29.4933C14.4222 29.3989 14.3936 29.2951 14.3596 29.1955C14.2668 28.9236 14.1805 28.6499 14.077 28.3817C13.9768 28.1222 13.8409 27.8816 13.7376 27.6235C13.7026 27.5359 13.7409 27.5462 13.7868 27.6121C13.9766 27.8845 14.1263 28.2021 14.2864 28.4928C14.4196 28.7344 14.5725 28.9668 14.6889 29.217C14.7245 29.2934 14.7674 29.3556 14.8391 29.4012C14.8625 29.4161 14.9118 29.4348 14.94 29.4365C15.0388 29.4427 14.7438 29.4719 14.6523 29.5097C14.2559 29.6736 13.8925 29.9212 13.648 30.2743C13.6263 30.3057 13.6043 30.3867 13.5723 30.408C13.563 30.4142 13.515 30.0115 13.5143 29.9967C13.4957 29.5888 13.5259 29.2107 13.6102 28.8132C13.6335 28.7033 13.6455 28.5946 13.6455 28.4827" stroke="#F32D12" stroke-width="1.03954" stroke-linecap="round"/>
<path d="M18.9597 26.666C18.9597 26.4036 18.9597 26.1412 18.9597 25.8787C18.9597 25.6867 18.9724 25.5909 18.8462 25.4447C18.7319 25.3124 18.4961 25.2264 18.344 25.1495C18.1388 25.0457 17.9269 24.999 17.7043 24.9489C17.1878 24.8326 16.6525 24.8492 16.126 24.8492C15.8474 24.8492 15.5957 24.8362 15.3588 25.0082C15.2018 25.1222 15.0752 25.2675 14.9084 25.369C14.7679 25.4546 14.6263 25.4454 14.6725 25.2201C14.7117 25.0289 14.9714 24.896 15.1229 24.8076C15.3716 24.6625 15.6469 24.5687 15.9254 24.4997C16.4526 24.3691 17.009 24.3744 17.5492 24.4C17.9468 24.4189 18.2983 24.5492 18.6746 24.6625C18.9152 24.7349 19.1367 24.8242 19.3332 24.9855C19.6036 25.2073 19.5729 25.5532 19.5729 25.8712C19.5729 25.9393 19.6114 25.9698 19.6411 25.8838C19.7308 25.624 19.7716 25.3109 19.7041 25.041C19.6313 24.7496 19.3053 24.4813 19.0632 24.3319C18.5248 23.9995 17.8953 23.8702 17.2741 23.7957C16.9919 23.7618 16.6902 23.7719 16.4061 23.7831C16.1083 23.7947 15.8445 23.9294 15.5935 24.072C15.4461 24.1557 15.2965 24.2529 15.1444 24.3269C15.0914 24.3526 14.9673 24.4109 14.9072 24.3937C14.8213 24.3692 14.8903 24.0966 14.9072 24.0531C15.0077 23.793 15.0965 23.701 15.3588 23.5951C16.238 23.2402 17.2584 23.3146 18.1409 23.6127C18.7191 23.8081 19.3667 24.1634 19.6865 24.7079C19.7751 24.8588 19.8 24.9489 19.8 25.1268C19.8 25.183 19.762 25.3822 19.8354 25.3955C19.945 25.4155 19.9622 25.5312 20.0372 25.5848C20.0554 25.5978 20.0498 25.4444 20.0498 25.4346C20.0498 25.2565 20.0561 25.0769 20.0347 24.8997C19.9402 24.1181 19.633 23.4302 18.9168 23.0475C18.6851 22.9236 18.4637 22.8913 18.2103 22.8507C17.91 22.8025 17.6154 22.7694 17.3107 22.7611C16.4897 22.7386 15.62 22.8013 14.8718 23.1686C14.7236 23.2414 14.566 23.3454 14.3949 23.3503C14.2573 23.3542 14.2814 23.2037 14.2814 23.1005C14.2814 22.872 14.3585 22.6551 14.6044 22.6059C14.7461 22.5776 14.8815 22.5781 15.0258 22.5781C15.3097 22.5781 15.5507 22.6373 15.8282 22.6803C16.2196 22.7411 16.5984 22.862 16.989 22.9264C17.383 22.9913 17.7932 23.0357 18.1926 23.0324C18.4492 23.0302 18.6967 23.0021 18.9219 22.8734C19.0282 22.8126 19.103 22.7105 19.2096 22.6513C19.2744 22.6153 19.196 22.536 19.1591 22.51C19.0684 22.4462 18.9505 22.4555 18.8449 22.4772C18.7256 22.5018 18.3797 22.5835 18.5005 22.5996C18.8505 22.6463 19.2119 22.4726 19.5603 22.4469C19.943 22.4187 20.1263 22.6727 20.277 22.9819C20.4085 23.252 20.535 23.5016 20.6164 23.7932C20.7167 24.1529 20.7539 24.4831 20.7539 24.8568C20.7539 24.9661 20.7539 25.0755 20.7539 25.1848C20.7539 25.2063 20.7261 25.2631 20.7413 25.2479C20.7945 25.1947 20.8193 25.0952 20.846 25.0284C20.9524 24.7622 21.2082 24.3496 21.5487 24.3496C21.6069 24.3496 21.6582 24.314 21.7077 24.2865C21.8355 24.2155 21.5148 23.9484 21.473 23.8928C21.2409 23.5844 21.0432 23.2554 20.8384 22.9289C20.7278 22.7526 20.6178 22.5752 20.4612 22.4356C20.3208 22.3105 20.1339 22.248 20.0044 22.1126C19.8898 21.9928 19.7508 21.893 19.6322 21.7744C19.5241 21.6663 19.5022 21.687 19.3912 21.7959C19.2616 21.9231 19.2189 21.9137 19.3483 22.0684C19.5235 22.2779 19.6726 22.5019 19.8303 22.7245C20.0063 22.9729 20.2166 23.2002 20.3741 23.4613C20.5995 23.8351 20.663 24.3447 20.663 24.776C20.663 24.9021 20.6826 25.0412 20.6454 25.1621C20.6388 25.1834 20.6341 25.2109 20.663 25.2126C20.7286 25.2164 20.7426 25.1201 20.7589 25.0738C20.9056 24.6594 21.0784 24.1557 21.3923 23.8373C21.5073 23.7207 21.6597 23.6359 21.7872 23.532C21.9781 23.3765 22.131 23.1739 22.3196 23.0122C22.4442 22.9054 22.5789 22.8173 22.6956 22.7005C22.9382 22.4579 23.1102 22.1643 23.2722 21.864C23.4933 21.4544 23.6899 21.0274 23.9334 20.6301C23.9909 20.5362 24.0224 20.4236 24.0848 20.326C24.2265 20.1041 24.4342 19.9296 24.626 19.7519C24.7163 19.6683 24.8242 19.6082 24.944 19.5816C24.9837 19.5728 25.0775 19.5264 25.1055 19.5501C25.2303 19.6556 25.3237 19.9818 25.2682 20.1431C25.2196 20.2846 24.9377 20.4184 24.8241 20.5064C24.5201 20.742 24.2141 20.9776 23.9321 21.2395C23.4244 21.7109 23.0901 22.3317 22.6338 22.8507C22.4849 23.0201 22.3296 23.1778 22.2074 23.368C22.1639 23.4356 22.2402 23.3967 22.278 23.3755C22.649 23.1682 22.9876 22.8788 23.3063 22.6009C23.6547 22.297 24.0213 22.0074 24.3283 21.6609C24.4715 21.4992 24.6277 21.3522 24.7787 21.1978C24.8687 21.1059 24.9826 21.0039 25.0184 20.8748C25.067 20.7 25.0533 20.4993 25.0449 20.3197C25.0412 20.239 24.9677 20.0763 25.0273 20.0093C25.1686 19.8503 25.3735 19.7443 25.4903 19.5627C25.6207 19.3598 24.7727 19.3706 24.6879 19.381C24.2137 19.4394 23.7238 19.3705 23.2508 19.4327C23.2126 19.4377 22.9003 19.4433 22.8899 19.4794C22.8794 19.5164 22.8887 19.5695 22.8887 19.6068C22.8887 19.7743 22.8835 19.933 22.8483 20.0976C22.7912 20.3647 22.6863 20.5944 22.5657 20.8395C22.2623 21.4561 21.9625 22.0691 21.5803 22.6425C21.4341 22.8617 21.315 23.0954 21.1753 23.315C20.9346 23.6932 21.7103 22.5946 21.9525 22.2173C22.2885 21.6937 22.6857 21.2135 23.0451 20.707C23.1577 20.5484 23.2501 20.4231 23.3997 20.2957C23.4991 20.211 23.6848 20.1582 23.7466 20.0346C23.8017 19.9244 23.6583 19.7503 23.6003 19.6788C23.3742 19.3999 23.0667 19.2833 22.7549 19.1274C22.6026 19.0512 22.436 18.9973 22.278 18.9331C22.247 18.9205 22.0304 18.7861 22.0269 18.7981C22.0132 18.8463 22.0449 18.9229 22.0471 18.9722C22.0581 19.2143 22.0349 19.4635 22.0004 19.7027C21.9136 20.3057 21.7766 20.9312 21.5715 21.5057C21.4484 21.8502 21.2492 22.1631 21.1526 22.5176C21.1354 22.5805 21.0945 22.7695 21.0945 22.7043C21.0945 22.5523 21.1685 22.3775 21.198 22.2287C21.315 21.6373 21.4675 21.0728 21.5134 20.4698C21.5393 20.13 21.5372 19.8333 21.3973 19.5198C21.329 19.3667 21.2589 19.259 21.2535 19.0858C21.2449 18.8105 21.2156 18.519 21.1627 18.2492C21.1339 18.1027 21.1078 17.9338 21.015 17.8102C20.9478 17.7206 21.0154 17.8619 21.0264 17.8871C21.0766 18.0024 21.0799 18.1454 21.0945 18.2682C21.1184 18.4681 21.1429 18.6684 21.1627 18.8687C21.2131 19.379 21.1854 19.8993 21.1854 20.4118C21.1854 20.837 21.1854 21.2622 21.1854 21.6874C21.1854 21.8981 21.1683 22.1662 21.0264 22.3283" stroke="#F32D12" stroke-width="1.03954" stroke-linecap="round"/>
<path d="M21.8441 18.5127C21.8093 18.433 21.7344 18.3637 21.6801 18.2982C21.5483 18.1392 21.4154 17.981 21.2877 17.8187C21.1644 17.662 21.0569 17.4805 20.918 17.3367C20.7397 17.1521 20.6129 16.916 20.46 16.7097C20.4198 16.6554 20.36 16.6305 20.3225 16.5772C20.2781 16.5141 20.2347 16.4419 20.1875 16.3829C20.1464 16.3315 20.2212 16.5101 20.2392 16.5734C20.3738 17.0444 20.4732 17.5268 20.532 18.013C20.6276 18.8047 20.6338 19.5953 20.6909 20.3875C20.719 20.7772 20.7828 21.166 20.8171 21.5559C20.8283 21.6829 20.8221 21.812 20.8221 21.9394C20.8221 22.0367 20.7921 21.977 20.7389 21.9281C20.5396 21.7447 20.3414 21.5491 20.1295 21.3843C20.1093 21.3686 20.0514 21.352 20.05 21.3288C20.0456 21.2546 20.0208 21.1749 20.0046 21.1017C19.8162 20.2538 19.8683 19.3434 19.8683 18.4824C19.8683 17.6989 19.8683 16.9153 19.8683 16.1318C19.8683 15.8235 19.8683 15.5153 19.8683 15.207C19.8683 15.051 19.8928 14.8688 19.8557 14.7149C19.8531 14.7042 19.7983 14.5953 19.8002 14.6291C19.8022 14.6652 19.8335 14.701 19.8506 14.7301C19.9252 14.8566 19.9806 14.9957 20.026 15.1351C20.1476 15.508 20.2121 15.9575 20.1131 16.3425C20.0746 16.4921 19.9912 16.6252 19.9263 16.7639C19.8374 16.9541 19.791 17.1566 19.7648 17.3645C19.6726 18.0969 19.6639 18.8639 19.6639 19.6028C19.6639 19.6319 19.6413 19.5865 19.6336 19.5775C19.4789 19.3956 19.3265 19.2122 19.1567 19.0438C18.7884 18.6786 18.4021 18.3143 17.9758 18.0168C17.9517 18 17.8134 17.9215 17.8243 17.9222C17.8673 17.9249 17.9221 17.9534 17.9606 17.9726C18.0885 18.0366 18.2201 18.0974 18.3492 18.1619C18.4519 18.2132 18.5513 18.2706 18.6545 18.3209C18.7232 18.3543 18.7092 18.374 18.676 18.3297C18.6227 18.2587 18.5056 18.2287 18.4274 18.1947C18.1506 18.0744 17.8747 17.9972 17.5897 17.9045C17.5206 17.8821 17.4536 17.8727 17.4622 17.791C17.4893 17.5335 17.6043 17.2796 17.678 17.0339C17.8298 16.5281 17.9362 16.0064 18.0729 15.4959C18.1461 15.2228 18.2319 14.9278 18.2546 14.6443C18.2577 14.6058 18.2614 14.5258 18.2003 14.5761C18.1099 14.6507 18.0384 14.762 17.9682 14.8537C17.7607 15.1249 17.5599 15.4052 17.3941 15.7041C17.2976 15.8782 17.2093 16.0688 17.1481 16.2593C17.1066 16.3882 17.143 16.1842 17.143 16.128C17.143 15.3772 17.1884 14.6331 17.2086 13.8835C17.2166 13.587 17.2438 13.2941 17.1216 13.0192C17.0204 12.7916 17.0522 12.5338 17.0522 12.2899C17.0522 12.1789 17.0714 11.9099 17.1481 12.1638C17.3249 12.7492 17.441 13.3538 17.5392 13.9567C17.6736 14.7815 17.6934 15.6192 17.8243 16.4422C17.8565 16.6445 17.8925 16.8438 17.8925 17.0491C17.8925 17.1675 17.8016 17.2554 17.7322 17.3443C17.6563 17.4416 17.5575 17.6272 17.4383 17.6774C17.3402 17.7187 17.3744 17.1315 17.3752 17.1122C17.3863 16.819 17.4463 16.5396 17.4824 16.2504C17.5057 16.0639 17.4837 16.6264 17.4837 16.8144C17.4837 17.1606 17.4592 17.517 17.4963 17.8616C17.517 18.0536 17.5372 18.2684 17.6805 18.4117C17.7794 18.5106 17.8954 18.556 18.0111 18.6262C18.1053 18.6834 18.0728 18.4121 18.0754 18.3019C18.1 17.2748 18.1386 16.2486 18.1827 15.2221C18.2307 14.1042 18.2558 12.9886 18.2558 11.8698C18.2558 11.5996 18.2672 11.3021 18.1991 11.0371C18.1769 10.9509 18.1644 10.8579 18.1372 10.7734C18.1094 10.6868 18.1213 10.7904 18.1183 10.8251C18.1136 10.8799 18.0888 10.9312 18.0716 10.9828C18.0012 11.1942 17.9421 11.4106 17.8975 11.6288C17.7663 12.2722 17.707 13.0039 17.8168 13.6551C17.8832 14.0488 18.0421 14.4261 18.141 14.8121C18.2334 15.1723 18.3052 15.5382 18.3871 15.9009C18.4729 16.2812 18.6192 16.7006 18.6192 17.0932C18.6192 17.2484 18.6208 17.4037 18.6142 17.5588C18.606 17.7507 18.5511 17.9432 18.5511 18.1341C18.5511 18.6994 18.5489 17.0035 18.5612 16.4384C18.581 15.5261 18.6311 14.615 18.6621 13.7031C18.6861 12.9981 18.6795 12.2935 18.6924 11.5884C18.7018 11.0772 18.7096 10.5663 18.7328 10.0567C18.7666 9.31197 18.8707 11.5415 18.9271 12.2849C19.0341 13.6957 19.0343 15.1153 19.1744 16.523C19.217 16.9517 19.3161 17.3731 19.351 17.8011C19.3671 17.9987 19.3693 18.2157 19.409 18.4092C19.4311 18.5169 19.4118 18.4976 19.3573 18.4231C19.2234 18.2399 19.1361 18.0909 19.0911 17.8616C18.9537 17.1622 18.9676 16.4179 18.9611 15.7079C18.955 15.0265 19.0148 14.3517 19.0633 13.6728C19.0975 13.1941 19.2083 12.7287 19.2904 12.2571C19.3534 11.8956 19.4013 11.5305 19.481 11.1721C19.5018 11.0783 19.5625 11.0034 19.6185 10.9273C19.7916 10.6921 19.9586 10.4677 20.1963 10.2914C20.4677 10.0902 20.7824 9.98121 21.1048 9.89398C21.3759 9.8206 21.6351 9.72616 21.8996 9.63281C22.1713 9.53693 22.4399 9.4495 22.7071 9.34262C22.8165 9.29888 22.9493 9.31486 23.0654 9.31486C23.1103 9.31486 23.1544 9.31084 23.1374 9.37037C23.12 9.43116 22.7265 9.49319 22.6907 9.50412C22.2666 9.63352 21.8066 9.83407 21.458 10.1148C21.1438 10.3679 20.9034 10.7033 20.6606 11.0219C20.2134 11.609 19.8494 12.2054 19.7775 12.9536C19.7409 13.3342 19.7046 13.7131 19.6753 14.0942C19.6666 14.2066 19.6639 14.5451 19.6639 14.4323C19.6639 14.0267 19.7875 13.6834 19.9692 13.3233C20.2674 12.7324 20.6086 12.1345 21.1136 11.6944C21.2843 11.5457 21.4673 11.404 21.6448 11.2629C21.7618 11.1699 21.8802 11.0578 22.0208 11.0005C22.0927 10.9712 22.0006 11.1403 21.9905 11.1733C21.8848 11.5185 21.7563 11.8546 21.6423 12.1966C21.6378 12.21 21.5716 12.4473 21.5716 12.3657C21.5716 12.0442 21.603 11.7271 21.6738 11.4131C21.7262 11.1806 21.7834 10.9135 21.9552 10.7355C22.0136 10.675 22.2375 10.5039 22.0157 10.6548C21.1571 11.2389 20.5381 12.3213 20.2418 13.3018C20.1552 13.5882 20.1254 13.8781 20.0828 14.1724C20.0505 14.3953 19.9824 14.6032 19.9263 14.8197C19.8652 15.0555 20.1109 14.6193 20.1282 14.5913C20.4085 14.1367 20.7023 13.6912 21.0328 13.2716C21.2288 13.0227 21.4207 12.7912 21.6549 12.5776C21.8305 12.4174 21.987 12.249 22.1394 12.0679C22.1784 12.0215 22.2572 11.9513 22.2744 11.8913C22.2899 11.8368 22.2908 11.88 22.2517 11.9152C22.2083 11.9542 22.1601 11.9313 22.1167 11.9543C22.0667 11.9808 22.1359 12.0069 22.1394 12.0401C22.1805 12.4307 22.588 12.6858 22.832 12.9486C23.0743 13.2095 23.5325 13.4415 23.8881 13.4482C24.0385 13.451 24.1893 13.4482 24.3398 13.4482C24.5486 13.4482 24.7171 13.3784 24.905 13.2943C25.2384 13.1449 25.4466 12.9057 25.7276 12.6861C25.8775 12.5691 25.9575 12.4939 26.0456 12.324C26.1758 12.0729 26.1607 11.8178 26.1869 11.5455C26.2256 11.1442 26.2484 10.6607 26.1364 10.2687C26.1035 10.1536 26.0547 10.1244 26.1844 10.1892C26.5347 10.3644 26.8291 10.7038 27.113 10.9727C27.4387 11.2814 27.7483 11.6305 27.9987 12.0061C28.0932 12.1478 28.2214 12.2559 28.2536 12.4262C28.3295 12.8289 28.343 13.2328 28.2826 13.6425C28.2138 14.1089 28.19 14.5802 28.0555 15.0354C27.9639 15.3454 27.7923 15.5137 27.6025 15.7621C27.3538 16.0878 27.1523 16.4444 26.9086 16.774C26.5218 17.2971 26.1803 17.8752 25.9333 18.4773C25.8993 18.5601 25.8612 18.637 25.8235 18.717C25.8142 18.7368 25.8645 18.7003 25.8816 18.6868C26.0472 18.5554 26.2154 18.4246 26.3724 18.283C26.8306 17.8698 27.2432 17.3674 27.6303 16.8876C27.9241 16.5233 28.1998 16.1338 28.4151 15.7167C28.5499 15.4555 28.579 15.199 28.6586 14.9206C28.7163 14.7184 28.7667 14.5156 28.8339 14.3162C28.8786 14.1838 28.9351 14.0574 28.9525 13.9175C28.9578 13.8758 28.9431 14.0022 28.9273 14.0412C28.8086 14.3344 28.6174 14.6099 28.4605 14.8827C28.0511 15.5944 27.6516 16.3065 27.1862 16.9835C26.8415 17.4847 26.4801 17.9756 26.1579 18.4912C26.0395 18.6807 25.9808 18.9066 25.8525 19.0918C25.8072 19.1573 25.6519 19.4351 25.7377 19.5119C25.9508 19.7026 26.3656 18.9826 26.4443 18.8634C26.6057 18.6189 26.6892 18.4352 26.7029 18.1392C26.7081 18.0286 26.7242 17.8985 26.6588 17.8036C26.5811 17.6909 26.4995 17.5825 26.4317 17.4629C26.3066 17.2423 26.1917 17.0235 26.1024 16.7854C25.9948 16.4986 25.7882 16.2534 25.6015 16.0145C25.4798 15.8588 25.3213 15.7407 25.1624 15.6259C24.9734 15.4893 24.7872 15.3268 24.5921 15.202C24.2971 15.0131 23.9514 14.8377 23.6256 14.7074C23.2867 14.5718 22.917 14.5837 22.5595 14.5837C22.2327 14.5837 21.9101 14.6306 21.5842 14.6531C21.4572 14.6619 21.3435 14.7503 21.236 14.8108C21.1032 14.8855 20.9504 14.9478 20.8045 14.9925C20.7191 15.0187 20.4682 15.0973 20.3906 15.0152C20.1933 14.8062 20.884 14.4307 20.9988 14.3528C21.3359 14.1243 21.6271 13.9769 22.0397 13.9945C22.286 14.005 22.5359 14.0529 22.7803 14.0841C23.1202 14.1275 23.4541 14.1581 23.7871 14.2431C24.7628 14.492 25.737 14.8775 26.3383 15.7293C26.4917 15.9467 26.5971 16.2028 26.7597 16.4119C26.8131 16.4805 26.8644 16.3637 26.896 16.3122C27.0456 16.0683 27.2053 15.8377 27.3174 15.5729C27.4096 15.355 27.5079 15.1235 27.5546 14.8903C27.5847 14.7399 27.5672 14.5738 27.5672 14.421C27.5672 13.8551 27.3951 13.3227 27.3174 12.7669C27.2844 12.5311 27.2428 12.2807 27.1672 12.054C27.0994 11.8507 26.961 11.6821 26.8455 11.5052C26.7962 11.4296 26.7315 11.3272 26.6499 11.2819C26.6226 11.2667 26.6564 11.3308 26.6588 11.3361C26.7106 11.4535 26.7414 11.5824 26.7698 11.707C26.9483 12.4906 26.937 13.3315 26.9073 14.132C26.8853 14.7275 26.6682 15.312 26.5503 15.8908C26.5156 16.0612 26.5022 15.7661 26.5011 15.7293C26.4908 15.4077 26.4794 15.0866 26.4594 14.7654C26.426 14.2278 26.3042 13.6634 26.1251 13.1542C26.097 13.0744 26.0456 12.9132 26.0456 12.9132C26.0456 12.9132 26.0456 13.1269 26.0456 13.2337C26.0456 13.3599 26.0629 13.5192 25.9648 13.6173C25.8601 13.722 25.7239 13.7926 25.6166 13.8999C25.5437 13.9727 25.4433 14.1319 25.3466 14.1699C25.2135 14.2222 25.1648 13.9011 25.1498 13.8355C25.1244 13.7251 25.0454 13.413 25.2255 13.3851C25.4355 13.3526 25.7726 13.35 25.9573 13.4558C26.3039 13.6543 26.2954 14.0031 26.2954 14.3566C26.2954 14.4139 26.3101 14.4475 26.2437 14.4475C25.8356 14.4475 25.4725 14.4051 25.0766 14.3024C24.4354 14.1359 23.7714 14.083 23.1348 13.9037C22.6683 13.7722 22.177 13.6327 21.7306 13.4431C21.6792 13.4214 21.3303 13.2611 21.3722 13.1668C21.3998 13.1048 21.899 13.153 21.9703 13.153C22.2223 13.153 22.4429 13.2044 22.6844 13.2665C22.7381 13.2803 22.8457 13.3369 22.7753 13.2665" stroke="#F32D12" stroke-width="1.03954" stroke-linecap="round"/>
</svg>
