<svg width="36" height="37" viewBox="0 0 36 37" fill="none" xmlns="http://www.w3.org/2000/svg">
<rect x="-0.519772" y="0.519772" width="34.305" height="35.8643" rx="4.67795" transform="matrix(-1 0 0 1 34.3384 0.0390625)" fill="white" stroke="black" stroke-width="1.03954"/>
<path d="M1.83008 21.8971C1.83008 21.0454 2.11691 20.5475 2.54455 19.8048C3.29795 18.4962 4.19972 17.2725 4.89207 15.9263C6.53502 12.7316 9.35253 10.2322 12.4535 8.50946C14.8758 7.16372 17.3959 6.12792 20.202 6.12792C21.39 6.12792 22.7996 5.92616 23.9529 6.28102C24.5409 6.46194 25.3119 6.5773 25.8326 6.89341C26.2907 7.17153 26.6992 7.54897 27.1595 7.81201C27.8768 8.22191 28.0525 9.87864 28.1971 10.6018C28.9259 14.2456 28.9024 18.2887 26.7172 21.5059C25.6064 23.1411 24.4097 24.6958 23.2299 26.2689C22.4638 27.2904 21.4879 28.1968 20.287 28.6335C19.3506 28.974 18.4518 29.6522 17.4462 29.7052C16.7383 29.7424 16.0278 30.3756 15.3028 30.4792C14.501 30.5937 13.4746 31.2312 12.7767 31.6189C12.1024 31.9935 11.1984 31.868 10.5567 32.1888C9.10699 32.9136 7.86204 34.2672 8.71954 35.9822" stroke="black" stroke-width="1.03954" stroke-linecap="round"/>
<path d="M27.896 10.2158C27.8699 10.6587 27.3587 11.2795 27.1187 11.6568C26.8329 12.1058 26.5008 12.5794 26.1138 12.946C25.1178 13.8896 23.8866 14.676 23.0423 15.7615C22.3684 16.628 21.3406 16.8581 20.5586 17.5532C20.344 17.744 19.7876 18.0296 20.3027 17.629C20.712 17.3106 21.019 17.169 21.4876 16.956C21.8941 16.7712 23.0609 15.8214 23.1182 15.3349C23.211 14.5455 24.3847 13.8977 24.9099 13.3726C25.5061 12.7764 25.9067 12.3773 26.2276 11.543C26.4655 10.9243 26.7047 10.9623 27.1281 10.6329C27.9509 9.99302 26.562 11.1893 26.3603 11.4198C25.6876 12.1886 25.1176 13.0916 24.4833 13.8845C23.8956 14.6191 23.0696 15.1654 22.5683 16.0175C22.3988 16.3057 21.9711 16.4549 21.6772 16.5388C21.3852 16.6223 21.2156 17.0276 20.9852 17.2119C20.7755 17.3797 20.7612 17.8825 20.5586 17.8945C20.2981 17.9098 19.9097 17.7232 19.7434 17.5153C19.0642 16.6664 21.043 16.6016 21.3265 16.444C21.6305 16.2752 20.4742 16.3436 20.2174 16.3587C19.9272 16.3758 19.7054 16.7993 19.7054 17.0413C19.7054 18.2503 21.1339 16.2737 21.3265 16.1881C22.5146 15.6601 23.2388 14.7024 24.142 13.7992" stroke="black" stroke-width="1.03954" stroke-linecap="round"/>
<path d="M24.7524 8.14111V8.29061" stroke="black" stroke-width="1.03954" stroke-linecap="round"/>
<path d="M12.793 8.06652C12.3749 8.06652 11.9569 8.06652 11.5389 8.06652C10.8855 8.06652 10.3104 7.84229 9.65362 7.84229C8.69052 7.84229 7.73483 7.881 6.78003 7.91703C6.42634 7.93038 6.04194 7.96777 5.70867 8.08313C5.44818 8.1733 5.61275 8.3197 5.52595 8.515C5.38994 8.82104 5.59975 9.2448 5.48443 9.61959C5.37811 9.96512 5.26874 10.3273 5.01934 10.6079C3.43893 12.3859 3.36191 15.2004 3.30017 17.4846" stroke="black" stroke-width="1.03954" stroke-linecap="round"/>
<path d="M8.38306 11.1313C8.10013 10.9191 7.66633 10.9818 7.33661 10.9818" stroke="black" stroke-width="1.03954" stroke-linecap="round"/>
<path d="M6.51465 12.3271C5.61795 12.3271 5.03207 12.4335 4.27226 12.9251" stroke="black" stroke-width="1.03954" stroke-linecap="round"/>
<path d="M14.9134 15.4844C14.9134 16.9779 14.9134 18.4714 14.9134 19.9649C14.9134 20.6324 15.748 21.0321 16.2724 21.245C17.3864 21.6973 18.5555 22.0794 19.7271 22.3498" stroke="black" stroke-width="1.03954" stroke-linecap="round"/>
<path d="M17.9184 13.7073C17.7158 13.7073 17.5131 13.7073 17.3105 13.7073C16.8507 13.7073 16.3275 13.7731 15.88 13.6505C14.3548 13.2329 14.8738 10.5718 15.4424 9.63864C16.3158 8.20514 18.267 7.57667 19.823 8.19193C20.5035 8.46101 21.1849 8.98945 21.5696 9.61838C21.778 9.95913 21.8856 10.3326 21.8756 10.7328C21.8649 11.1595 21.6875 11.4557 21.5656 11.8472" stroke="black" stroke-width="1.03954" stroke-linecap="round"/>
<path d="M17.6266 10.9724C17.7485 10.9724 17.8755 10.9654 17.9893 10.9157C18.1353 10.8518 18.2662 10.863 18.4289 10.863C18.5148 10.863 18.6478 10.8328 18.6478 10.9542C18.6478 11.101 18.0646 11.0841 17.9629 11.0818C17.7774 11.0777 17.7822 10.9416 17.9366 10.8812C18.1325 10.8046 18.2743 10.79 18.4857 10.79C18.6125 10.79 18.7165 10.8633 18.6255 11.0048C18.5601 11.1065 18.1298 11.1325 18.048 11.0433C17.7625 10.7319 18.3285 10.4618 18.5748 10.4618C18.9623 10.4618 18.8701 11.0564 18.589 11.171C18.2049 11.3274 17.8474 11.3153 17.7725 10.8468C17.7588 10.7613 17.6728 10.4979 17.7725 10.4334C17.9685 10.3066 18.2553 10.3363 18.4654 10.3889" stroke="black" stroke-width="1.03954" stroke-linecap="round"/>
<path d="M21.0028 29.1548C21.8915 30.0435 23.2554 30.2409 24.4783 30.2409C25.1093 30.2409 25.6521 30.1424 26.1617 29.7461C26.5987 29.4062 26.5318 29.0709 26.7832 28.6358C26.8254 28.5628 27.8027 26.746 27.9477 27.6885C27.9925 27.9796 27.9391 29.0651 28.2796 29.0462C28.4934 29.0343 29.3657 28.7002 29.3657 29.1005C29.3657 29.4369 28.9639 30.1178 29.42 29.915C31.1636 29.1401 30.8498 31.1813 29.6855 31.8217C27.9782 32.7607 26.3221 33.825 24.3154 33.825C23.1653 33.825 22.1745 33.7855 21.1114 33.2819C20.4916 32.9883 19.6402 32.6539 19.2107 32.0812C19.0591 31.8791 18.6797 31.1346 18.5048 31.0253C18.2243 30.85 17.8531 30.2515 17.8531 29.915" stroke="black" stroke-width="1.03954" stroke-linecap="round"/>
<path d="M4.81994 35.7796C4.84825 35.7796 4.42283 35.0214 4.3312 34.8564C4.09725 34.4353 4.11761 34.0467 3.62523 33.8005C3.37553 33.6757 1.56363 32.9538 1.67026 32.8472" stroke="black" stroke-width="1.03954" stroke-linecap="round"/>
<path d="M15.5195 23.1627C15.5195 23.9377 14.9244 24.2772 14.1846 24.4622C12.5406 24.8732 11.3246 24.841 10.3099 23.3753C9.61545 22.3723 8.0718 21.8497 6.90762 21.6978C6.54556 21.6506 6.11375 21.778 6.50006 21.3434C7.48904 20.2308 8.53481 19.2342 9.67193 18.272" stroke="black" stroke-width="1.03954" stroke-linecap="round"/>
<path d="M17.6458 27.3091C16.9621 27.3091 16.3536 27.2305 15.9683 26.5649C15.7546 26.1959 15.5674 25.6954 15.8383 25.2891" stroke="black" stroke-width="1.03954" stroke-linecap="round"/>
<path d="M13.6057 27.309C12.6035 27.309 11.4793 27.2398 11.4793 26.0332" stroke="black" stroke-width="1.03954" stroke-linecap="round"/>
<path d="M11.3728 30.0736C10.7134 30.0736 10.1687 29.9926 9.83707 29.3294C9.68877 29.0328 9.52948 28.5946 9.57127 28.2603C9.60271 28.0088 9.9873 27.2047 10.2033 27.0967" stroke="black" stroke-width="1.03954" stroke-linecap="round"/>
<path d="M10.2036 27.0965C9.32418 27.0965 8.68653 26.7664 8.31348 25.927C8.23066 25.7407 8.22287 25.0923 8.31348 24.9111C8.34405 24.8499 8.56161 24.7575 8.53793 24.7575C8.35953 24.7575 8.2236 24.8573 8.05359 24.8638C7.65098 24.8793 6.22715 25.0863 6.16346 24.5449C6.11431 24.1271 5.86892 23.0973 6.3761 22.8438" stroke="black" stroke-width="1.03954" stroke-linecap="round"/>
<path d="M11.9045 18.0593C11.1405 18.0593 10.6323 17.9136 10.2034 17.2324C10.0306 16.9578 9.99078 16.7362 9.99078 16.4114C9.99078 16.2976 9.9641 16.1454 10.0144 16.0392C10.061 15.9408 10.2625 15.9355 10.2625 15.8266C10.2625 15.5896 9.79656 15.9329 9.5596 15.9329C9.08437 15.9329 8.78406 15.9696 8.5023 15.5313C8.15345 14.9886 8.54516 14.3699 9.0339 14.1255" stroke="black" stroke-width="1.03954" stroke-linecap="round"/>
<path d="M7.22656 19.2288C7.22656 18.9448 6.9129 18.0035 7.22656 17.8467" stroke="black" stroke-width="1.03954" stroke-linecap="round"/>
<path d="M8.92749 30.0735C8.88582 30.4069 6.27902 30.2381 6.82472 29.0103C6.85487 28.9425 7.06401 28.7229 6.94876 28.6972C6.60733 28.6214 6.22722 28.7599 5.88556 28.6795C5.31034 28.5442 4.78101 28.1385 4.78101 27.5218C4.78101 27.1513 5.27833 26.9902 4.82827 26.9902C4.09556 26.9902 3.29253 26.49 3.29253 25.6907C3.29253 25.5144 3.27083 25.1992 3.44611 25.0824C3.51865 25.034 3.2708 25.074 3.18621 25.0528C2.96532 24.9976 2.73201 24.8938 2.5542 24.7516C2.1408 24.4209 2.01843 23.9903 2.27659 23.5053C2.45479 23.1705 2.71182 22.5105 3.07989 22.4185" stroke="black" stroke-width="1.03954" stroke-linecap="round"/>
<path d="M5.41919 33.3694C4.65602 33.3694 4.42239 33.3099 3.93071 32.7314C3.59177 32.3327 3.61175 31.6806 3.61175 31.1839C3.61175 30.6086 3.81075 30.941 4.03703 30.6582C4.1341 30.5369 3.54034 30.7016 3.39911 30.7173C2.90299 30.7724 2.4178 30.8681 1.91063 30.8118C1.06982 30.7183 0.74326 29.1144 1.27271 28.585" stroke="black" stroke-width="1.03954" stroke-linecap="round"/>
</svg>
