<svg width="36" height="38" viewBox="0 0 36 38" fill="none" xmlns="http://www.w3.org/2000/svg">
<rect x="-0.519772" y="0.519772" width="34.305" height="35.8643" rx="4.67795" transform="matrix(-1 0 0 1 34.3049 0.84668)" fill="#F4FF95" stroke="black" stroke-width="1.03954"/>
<path d="M15.4485 10.546C16.2699 10.546 18.7344 10.546 17.9129 10.546C16.4871 10.546 15.1759 10.9371 13.821 11.1668C13.3958 11.2389 14.339 11.0188 14.4022 11.0018C15.4583 10.7167 16.4535 10.44 17.599 10.349C17.9513 10.321 18.3029 10.3243 18.6569 10.3243C19.1464 10.3243 18.1972 10.3817 18.1221 10.3884C16.7056 10.5142 15.2864 10.6968 13.9217 10.9697C13.5297 11.0482 13.0453 11.1624 12.7438 11.354C12.6502 11.4135 12.9576 11.255 13.0654 11.2062C13.5685 10.9788 14.1465 10.805 14.689 10.6199C15.5439 10.3283 16.3757 10.137 17.3278 10.0361C17.6726 9.9996 18.0288 10.014 18.3779 10.014C18.5844 10.014 18.8004 10.0019 19.0056 10.0164C19.2311 10.0324 19.4773 10.087 19.0754 10.014" stroke="black" stroke-width="0.452638" stroke-linecap="round"/>
<path d="M12.7261 11.3669C12.3768 10.9713 12.105 10.5124 11.8112 10.0676C11.3875 9.42605 10.8698 8.86846 10.2967 8.38594C9.68546 7.87134 9.07926 7.37699 8.40121 6.97682C8.29183 6.91227 8.26622 6.87602 8.14756 6.83804C7.9551 6.77644 7.74165 6.77689 7.5519 6.71408C7.43402 6.67506 7.30818 6.59667 7.1732 6.58905C6.95212 6.57656 6.77572 6.52384 6.56357 6.4424C6.45298 6.39995 6.23091 6.37629 6.1757 6.24984" stroke="black" stroke-width="0.452638" stroke-linecap="round"/>
<path d="M5.9931 6.38818C5.9931 6.89508 5.83244 7.37449 5.77805 7.87631C5.69088 8.68058 5.67053 9.47123 5.67053 10.2794C5.67053 11.1095 5.563 11.9354 5.563 12.7623C5.563 13.2738 5.57092 13.7696 5.49729 14.2752C5.41105 14.8676 5.76409 15.2914 6.10063 15.7744C6.29841 16.0582 6.50165 16.3545 6.66514 16.6562C6.75783 16.8273 6.88208 17.1656 7.06836 17.2515" stroke="black" stroke-width="0.452638" stroke-linecap="round"/>
<path d="M7.00805 17.7041C7.00805 18.4949 7.0376 19.2862 7.05468 20.0719C7.06205 20.4107 7.2175 21.3295 7.521 21.4812" stroke="black" stroke-width="0.452638" stroke-linecap="round"/>
<path d="M7.52072 21.5513C7.52072 21.8922 7.84797 22.2274 8.0488 22.5177C8.65027 23.387 9.11331 24.3012 9.70034 25.1743C10.434 26.2656 11.7692 27.4407 13.4435 27.7173C14.4051 27.8763 15.3883 27.8977 16.3531 28.0331C17.0812 28.1352 17.776 28.3368 18.5094 28.4277C18.9303 28.4799 19.3399 28.545 19.7235 28.6876C19.8683 28.7414 20.0305 28.7935 20.1946 28.7935" stroke="black" stroke-width="0.452638" stroke-linecap="round"/>
<path d="M19.0864 10.2354C18.9476 10.2027 19.4685 9.43623 19.4994 9.38257C20.1404 8.26949 20.9929 7.33141 21.8626 6.37436C22.3346 5.85493 22.8389 5.33721 23.3651 4.86557C23.7526 4.51817 24.2029 4.26816 24.6536 4.0034C24.9144 3.85021 25.2939 3.74521 25.3999 3.4458" stroke="black" stroke-width="0.452638" stroke-linecap="round"/>
<path d="M25.4001 3.4458C25.4001 4.57104 25.6177 5.66801 25.7573 6.73071C25.8414 7.37097 25.9046 8.01376 25.9739 8.66158C26.0107 9.00443 26.0747 9.32858 26.0747 9.68524C26.0747 9.93359 26.0861 10.1995 26.0723 10.4462C26.055 10.7568 25.9667 11.1108 25.906 11.3913C25.8223 11.7784 25.7428 12.165 25.6648 12.5585C25.632 12.724 25.6125 12.9512 25.5266 12.9512" stroke="black" stroke-width="0.452638" stroke-linecap="round"/>
<path d="M25.9318 12.4985C25.9318 12.8509 26.1014 13.2201 26.2126 13.5494C26.3627 13.9938 26.4889 14.4592 26.589 14.9204C26.9124 16.4101 27.2492 17.7984 26.6676 19.2808C26.3263 20.1508 25.9072 20.929 25.4739 21.7521C24.9712 22.7073 24.5162 23.684 23.9488 24.6019C23.1767 25.851 22.2199 26.9175 21.2834 28.0308C21.0345 28.3267 20.7929 28.6651 20.4211 28.7935" stroke="black" stroke-width="0.452638" stroke-linecap="round"/>
<path d="M14.4879 17.9691C14.3583 17.6005 14.2741 17.4753 13.9347 17.2543C13.5743 17.0195 13.2067 16.882 12.7954 16.7217C12.3237 16.538 11.7868 16.3452 11.2501 16.3582C10.6726 16.3722 10.1062 16.4979 9.5436 16.6185C9.07817 16.7183 8.71697 17.041 8.50751 17.4132C8.3769 17.6452 8.41316 17.7148 8.47142 17.9724C8.55188 18.3281 8.67923 18.457 8.96467 18.6955C9.32461 18.9962 9.72423 19.2275 10.1822 19.4116C11.2865 19.8558 12.7744 19.6574 13.9478 19.4178C14.2828 19.3494 14.919 19.2771 14.8959 18.872C14.8772 18.5443 14.7131 18.236 14.6421 17.9219C14.6039 17.7529 14.3416 17.4953 14.1615 17.4369" stroke="black" stroke-width="0.452638" stroke-linecap="round"/>
<path d="M19.3462 17.0097C19.2923 16.675 19.3088 16.548 19.5027 16.2609C19.7087 15.9559 19.9646 15.7256 20.2481 15.4629C20.5731 15.1616 20.9506 14.8316 21.4204 14.6648C21.9259 14.4852 22.4721 14.3978 23.0128 14.3076C23.4601 14.2329 23.9176 14.3693 24.2661 14.5949C24.4834 14.7356 24.4834 14.8027 24.549 15.0259C24.6395 15.3343 24.5874 15.4784 24.4479 15.7616C24.2721 16.1186 24.0307 16.4337 23.7177 16.7308C22.9628 17.4472 21.5873 17.7812 20.465 17.9789C20.1446 18.0353 19.5621 18.1881 19.3998 17.8596C19.2685 17.5939 19.2716 17.2955 19.1916 17.0233C19.1486 16.8768 19.2594 16.5861 19.3889 16.4804" stroke="black" stroke-width="0.452638" stroke-linecap="round"/>
<path d="M19.6479 23.8145C20.049 23.8145 20.3722 24.0582 20.6754 24.3048C21.7834 25.2059 22.7768 26.2441 23.8863 27.1445C24.4665 27.6152 25.04 28.1007 25.6471 28.5362C25.7824 28.6333 25.9204 28.7635 26.0791 28.8165" stroke="black" stroke-width="0.452638" stroke-linecap="round"/>
<path d="M19.024 24.9463C19.1393 24.9463 19.2158 24.9582 19.3183 25.021C19.9841 25.4291 20.6342 25.8918 21.2261 26.4011C22.0084 27.0743 22.7287 27.8682 23.2367 28.7714C23.5423 29.3146 23.761 29.8981 24.0657 30.4434C24.314 30.8877 24.682 31.3022 25.0559 31.6483C25.3591 31.9291 25.528 32.0338 25.8989 32.1714C26.3493 32.3386 26.7513 32.5712 27.2439 32.5941C27.655 32.6132 28.0701 32.5964 28.4816 32.5964C29.3362 32.5964 29.7384 31.9133 30.184 31.2934C30.4461 30.9286 30.605 30.5862 30.7001 30.1585C30.7448 29.9569 30.7094 29.7149 30.7094 29.5093C30.7094 29.1892 30.7317 28.86 30.7724 28.5425C30.8252 28.1309 30.8831 27.7374 30.7514 27.3422C30.422 26.3538 29.3239 25.8206 28.3345 25.7473C27.6924 25.6997 26.8003 25.9371 26.8003 26.7117C26.8003 26.7881 26.7815 26.874 26.8329 26.9312C26.9315 27.0407 26.8449 27.0164 26.7816 27.0526C26.675 27.1136 26.6319 27.4509 26.5901 27.5617C26.5287 27.7242 26.43 27.8636 26.3706 28.0241C26.2847 28.256 26.0016 28.4322 26.0016 28.7083C26.0016 28.7933 25.9642 28.8563 25.9596 28.9395C25.9549 29.0245 25.9362 29.1566 25.8755 29.0656" stroke="black" stroke-width="0.452638" stroke-linecap="round"/>
<path d="M30.2891 27.6784C30.1205 27.6784 29.9811 27.6709 29.8244 27.7414C29.5332 27.8724 29.2033 27.8465 28.8926 27.8465C28.6241 27.8465 28.0192 27.8684 28.0192 27.5103" stroke="black" stroke-width="0.452638" stroke-linecap="round"/>
<path d="M24.2686 30.6111C23.5929 29.7367 22.7554 28.9978 22.0548 28.1428C21.4695 27.4286 20.8732 26.7296 20.2637 26.0364C20.1139 25.8661 19.9824 25.6758 19.8223 25.5157C19.7671 25.4604 19.7159 25.486 19.6869 25.3989" stroke="black" stroke-width="0.452638" stroke-linecap="round"/>
<path d="M18.5697 22.6468C18.5805 22.453 18.6859 22.2369 18.751 22.0565C18.8428 21.8022 18.9041 21.5272 18.9408 21.2597C18.9522 21.1762 19.0455 20.871 18.9787 20.7959C18.965 20.7805 18.8713 20.8558 18.8522 20.8612C18.6805 20.9103 18.4416 20.9956 18.2662 21.0151C18.0225 21.0422 17.7888 21.168 17.5452 21.2027C17.2885 21.2394 17.0537 21.2714 16.8243 21.3861C16.6292 21.4837 16.9914 21.1103 17.0941 21.0699C17.5533 20.8895 17.9145 20.7875 18.4095 20.7875C18.6049 20.7875 18.8002 20.7875 18.9956 20.7875C19.1476 20.7875 19.0787 20.7495 18.9682 20.7495C18.5154 20.7495 18.1414 20.7663 17.7139 20.9203C17.3934 21.0356 17.0489 21.2172 16.7568 21.3946C16.7376 21.4062 16.5778 21.4634 16.6345 21.4705C16.703 21.479 16.78 21.5183 16.8432 21.5464C16.9409 21.5898 17.0484 21.7385 17.1299 21.812C17.2637 21.9323 17.4151 22.0271 17.5452 22.1535C17.8143 22.4148 18.0801 22.6138 18.3969 22.8154C18.4905 22.875 18.3178 22.827 18.283 22.8154C18.1035 22.7556 17.9069 22.6285 17.7602 22.5118C17.4213 22.2423 17.2072 21.8552 16.976 21.5084" stroke="black" stroke-width="0.452638" stroke-linecap="round"/>
<path d="M22.0051 14.7617C22.3404 14.8065 22.5287 15.1102 22.6441 15.3263C22.7309 15.4888 22.7993 15.6668 22.8483 15.8379C22.9004 16.02 22.9104 16.186 22.9104 16.3719C22.9104 16.5923 22.818 16.8159 22.6658 17.0038C22.6124 17.0697 22.5409 17.1334 22.4942 17.2009C22.4879 17.2101 22.4311 17.2633 22.4311 17.2487" stroke="black" stroke-width="0.452638" stroke-linecap="round"/>
<path d="M22.0054 17.2512C21.7268 17.2512 21.4618 17.1037 21.2396 16.9739C20.8158 16.7263 20.7148 16.1912 20.6736 15.7975C20.6601 15.6682 20.6157 15.4924 20.6866 15.3706C20.7523 15.2575 20.8361 15.1522 20.94 15.0594C20.9989 15.0067 21.0619 14.9085 21.1564 14.897C21.2046 14.8911 21.3183 14.7962 21.3395 14.7617" stroke="black" stroke-width="0.452638" stroke-linecap="round"/>
<path d="M12.0471 16.1196C12.3824 16.1807 12.5707 16.5949 12.6861 16.8896C12.7729 17.1112 12.8413 17.3539 12.8903 17.5872C12.9424 17.8355 12.9524 18.0618 12.9524 18.3154C12.9524 18.6159 12.86 18.9208 12.7078 19.177C12.6544 19.2668 12.5829 19.3538 12.5362 19.4458C12.5299 19.4584 12.4731 19.5308 12.4731 19.511" stroke="black" stroke-width="0.452638" stroke-linecap="round"/>
<path d="M12.2734 19.5147C11.902 19.5147 11.5487 19.3269 11.2524 19.1616C10.6874 18.8466 10.5527 18.1655 10.4978 17.6645C10.4797 17.4999 10.4206 17.2761 10.515 17.1211C10.6027 16.9772 10.7144 16.8432 10.8529 16.725C10.9315 16.6579 11.0155 16.533 11.1415 16.5184C11.2058 16.5109 11.3573 16.3901 11.3856 16.3462" stroke="black" stroke-width="0.452638" stroke-linecap="round"/>
<path d="M6.89236 10.0464C6.97476 10.0464 7.03391 10.043 7.10639 10.0892C7.15139 10.1178 7.2965 10.2128 7.28712 10.2009C7.07596 9.93469 6.82815 9.61392 6.82815 9.2592C6.82815 8.95904 6.87095 8.66646 6.87095 8.36741C6.87095 8.18513 6.94261 7.88888 6.76394 7.79429C6.7568 7.79051 6.70211 7.73304 6.70211 7.72414C6.70211 7.69773 6.78932 7.77699 6.7901 7.77764C6.88184 7.8541 6.98537 7.90992 7.08498 7.97503C7.45484 8.21674 7.78258 8.52095 8.148 8.76456C8.56972 9.04571 8.93824 9.44524 9.26452 9.82876C9.54184 10.1547 9.84706 10.4572 10.1242 10.7836C10.2164 10.8922 10.2867 11.0328 10.3929 11.1284C10.5313 11.2529 10.2222 10.7975 10.1337 10.6337C9.88206 10.1681 9.62858 9.71971 9.29068 9.31033C9.12285 9.10701 8.97238 8.89139 8.80673 8.68608C8.69319 8.54536 8.57076 8.42632 8.44407 8.29964C8.32792 8.18349 8.23583 8.0575 8.10162 7.95957C8.03557 7.91137 7.81327 7.80528 7.88641 7.84185C7.96591 7.8816 8.03427 7.91259 8.10995 7.96789C8.50919 8.25964 8.88292 8.60199 9.25144 8.93102C9.88885 9.50014 10.4672 10.1321 10.9328 10.8502C11.1813 11.2336 11.3707 11.6483 11.601 12.0416C11.7625 12.3174 11.94 12.585 12.1349 12.8383C12.1479 12.8552 12.3028 13.0405 12.2383 13.0428C12.1533 13.0458 12.0825 13.0193 12.0077 12.9786C11.6575 12.788 11.3386 12.4712 11.0897 12.1641C10.6376 11.6061 10.3922 10.829 9.82219 10.3698C9.49702 10.1078 9.09031 9.96179 8.67594 9.9227C8.48475 9.90466 8.86118 10.1194 8.86975 10.126C9.4229 10.5566 9.94181 11.0259 10.4024 11.5553C11.0466 12.2955 11.7097 13.1751 11.9506 14.1486C11.9642 14.2034 12.0661 14.5007 11.9756 14.541C11.7969 14.6204 11.8094 15.0936 11.9542 15.1938C12.0178 15.2379 12.099 15.2473 12.1741 15.2473C12.2004 15.2473 12.3693 15.2549 12.2764 15.2045C12.0147 15.0624 11.7293 15.0063 11.4298 15.0761C11.2133 15.1265 10.9998 15.155 10.7806 15.1843C10.4433 15.2292 10.0979 15.2562 9.75916 15.3008C9.59796 15.322 9.44753 15.3222 9.28711 15.3543C9.15676 15.3804 9.03742 15.428 8.90899 15.4566C8.72487 15.4975 8.57976 15.6112 8.41197 15.692C8.31885 15.7368 8.23072 15.7547 8.14443 15.8145C8.09327 15.8499 8.02891 15.9074 7.97321 15.9322C7.83236 15.9948 7.83138 16.1483 7.65216 16.0392C7.43399 15.9064 7.22881 15.7156 7.08498 15.5041C6.86725 15.1839 6.79985 14.8317 6.71043 14.4542C6.61311 14.0433 6.6434 13.581 6.65811 13.1617C6.6696 12.8343 6.72718 12.5266 6.8115 12.2104C6.90992 11.8414 6.98791 11.468 7.12779 11.1117C7.2158 10.8876 7.29789 10.5778 7.51185 10.4352C7.63077 10.3559 7.69517 10.4067 7.80555 10.4792C8.58929 10.9937 9.27795 11.9461 9.28949 12.9096C9.29289 13.1933 9.31527 13.4216 9.06714 13.6064C8.89381 13.7355 8.5779 13.8565 8.37392 13.7205C8.18585 13.5952 8.11184 13.3138 8.07784 13.107C8.03678 12.8572 7.98429 12.4576 8.11708 12.2259C8.26814 11.9623 8.58898 11.9037 8.86143 11.868C9.23397 11.8191 9.61519 11.7959 9.96844 11.9477C10.5152 12.1826 10.6903 12.6323 10.6545 13.1973C10.626 13.6478 10.1287 14.0055 9.70685 14.0226C9.38109 14.0357 9.02142 13.8682 8.93515 13.5231C8.8849 13.3221 10.1896 13.4534 10.3097 13.4851C10.7991 13.6143 11.2018 13.9522 11.6617 14.1522C11.8695 14.2425 12.0017 14.1912 12.098 13.9964C12.174 13.8426 12.2736 13.6935 12.3168 13.5267C12.3547 13.3806 12.4431 13.3025 12.5844 13.2378C13.1928 12.9589 13.8794 12.8759 14.4916 12.6135C14.8905 12.4426 15.2887 12.2692 15.689 12.101C16.3342 11.8301 17.0114 11.6729 17.6961 11.5398C18.639 11.3565 19.5737 11.2663 20.5332 11.2663C20.5489 11.2663 20.779 11.2775 20.6711 11.2116C20.5594 11.1434 20.4175 11.1356 20.2918 11.1165C20.0065 11.0731 19.7219 11.0577 19.4333 11.0535C18.914 11.0459 18.3885 11.0372 17.8721 11.0999C17.3608 11.1619 16.8639 11.326 16.3655 11.4506C15.7705 11.5994 15.1767 11.722 14.5879 11.8941C14.0093 12.0633 13.4308 12.2328 12.8614 12.4316C12.5898 12.5264 12.2717 12.6307 12.0517 12.8287C11.9017 12.9637 12.0507 12.9358 12.1908 12.9358C12.9704 12.9358 13.7389 12.9254 14.513 13.0321C15.0707 13.1089 15.622 13.1664 16.186 13.1664C16.9649 13.1664 17.683 13.0073 18.4214 12.7681C19.155 12.5305 19.857 12.2972 20.6283 12.2295C20.8585 12.2093 21.0873 12.2081 21.318 12.2081C21.4117 12.2081 21.5238 12.1999 21.5962 12.2723C21.6577 12.3338 21.234 12.5294 21.1907 12.5553C20.7785 12.8018 20.3476 13.0371 19.9054 13.2259C19.4425 13.4234 18.9249 13.4901 18.4381 13.6028C17.7018 13.7733 16.9662 13.8917 16.224 14.0273C15.8776 14.0906 15.5324 14.1801 15.1991 14.2937C14.8696 14.4059 14.5401 14.5231 14.1931 14.5671C13.8554 14.6101 13.4982 14.6704 13.1563 14.6468C13.1041 14.6432 12.975 14.5844 12.9708 14.6742C12.9612 14.8803 12.9922 15.0839 12.9922 15.2901C12.9922 15.454 12.9784 15.4843 13.1432 15.5255C13.3585 15.5793 13.5753 15.6962 13.7794 15.7824C13.9137 15.8391 14.0196 15.9419 14.1527 15.9964C14.3156 16.063 14.4711 16.1357 14.6414 16.1783C14.9123 16.246 15.167 16.2967 15.4298 16.4018C15.8688 16.5775 16.3887 16.5837 16.8233 16.3983C17.3022 16.194 17.7632 15.942 18.2098 15.6753C18.364 15.5832 18.4833 15.454 18.6224 15.3436C18.8154 15.1903 19.0216 15.0495 19.2205 14.9036C19.4644 14.7247 19.6895 14.5054 19.922 14.3103C20.2302 14.0517 20.5199 13.8052 20.8625 13.5921C21.0893 13.4511 21.3175 13.3245 21.5058 13.1331C21.5729 13.065 21.6604 12.9743 21.6604 12.8715" stroke="black" stroke-width="2.48951" stroke-linecap="round"/>
<path d="M20.5474 11.2875C20.5474 11.0274 20.5406 10.8018 20.6545 10.5598C20.741 10.3758 20.3414 10.5487 20.2954 10.624C20.109 10.929 20.6603 10.0009 20.9113 9.7465C21.091 9.56438 21.2868 9.39923 21.4701 9.22094C21.6401 9.05567 21.8337 8.93973 21.991 8.75721C22.324 8.37067 22.6507 8.00205 22.9065 7.55864C23.1346 7.1633 23.4962 6.8557 23.727 6.46471C23.7885 6.36052 23.8537 6.07854 24.0147 6.08659C24.2021 6.09597 24.3786 6.22111 24.3786 6.40764C24.3786 6.55464 24.4818 6.70813 24.5022 6.8571C24.5456 7.17361 24.6031 7.48605 24.6342 7.80478C24.6724 8.19569 24.7279 8.58708 24.7591 8.97837C24.7906 9.37371 24.7638 9.7804 24.7638 10.1769C24.7638 10.4026 24.7159 10.6349 24.6782 10.8571C24.6346 11.1139 24.5991 11.3753 24.5391 11.6288C24.5071 11.764 24.4954 12.0004 24.3572 12.0794C24.0904 12.2318 23.6736 12.2401 23.3774 12.2245C22.3171 12.1687 22.4639 10.7578 22.7567 10.0675C22.9224 9.67704 23.1518 9.24202 23.4559 8.93794C23.5584 8.83545 23.6723 8.75974 23.6723 8.9427C23.6723 9.22746 23.5675 9.37311 23.2621 9.41238C22.978 9.44889 22.6138 9.43346 22.5474 9.08777C22.4216 8.43231 22.9346 7.9058 23.1075 7.32083C23.1162 7.29134 23.2386 6.98939 23.1967 6.94747C23.1535 6.90431 23.0635 6.98269 23.0397 7.00811C22.7878 7.27681 22.623 7.57346 22.4404 7.89515C22.3011 8.1407 22.1391 8.37157 22.0028 8.61928C21.8877 8.82868 21.7863 9.07086 21.6497 9.26493C21.5974 9.33926 21.5544 9.49468 21.4844 9.54912C21.4597 9.56836 21.4887 9.46006 21.4892 9.45875C21.5458 9.29197 21.6319 9.13505 21.7044 8.97481C21.8499 8.6532 22.0127 8.33589 22.2002 8.03664C22.2673 7.92968 22.4133 7.78127 22.4297 7.6502C22.4385 7.58025 22.3541 7.72758 22.3191 7.75603C22.1071 7.9286 21.9269 8.17253 21.7579 8.38622C21.5122 8.6968 21.2636 9.00526 21.0718 9.35055C21.0477 9.39398 21.0886 9.45998 21.1039 9.50037C21.1689 9.67204 21.2268 9.8447 21.3013 10.0128C21.6193 10.7302 21.9436 11.4451 22.2549 12.165C22.3227 12.3217 22.3881 12.4219 22.3881 12.5931C22.3881 12.6643 22.3583 12.7892 22.4143 12.8452C22.4756 12.9065 22.4756 13.056 22.3833 13.0901C22.341 13.1058 22.172 13.1282 22.2728 13.1282C22.5847 13.1282 22.8967 13.1256 23.2085 13.1282C23.4872 13.1305 23.7557 13.1924 24.0349 13.1924C24.2092 13.1924 24.3811 13.2384 24.5486 13.2887C24.5701 13.2952 24.7597 13.3587 24.7543 13.4017C24.7542 13.4029 24.5726 13.3432 24.5688 13.3422C24.3632 13.2867 24.1561 13.2627 23.9434 13.2578C23.5651 13.2491 23.1906 13.2491 22.8162 13.2946C22.6495 13.3149 22.468 13.2944 22.3049 13.3315C22.2023 13.3548 22.1036 13.3832 22.0028 13.4112C21.8924 13.4419 21.8007 13.5134 21.6818 13.5134" stroke="black" stroke-width="2.48951" stroke-linecap="round"/>
<path d="M18.1716 16.2319C18.1716 16.9549 18.1074 17.6694 18.1074 18.3924C18.1074 18.4498 18.1513 18.7314 18.0622 18.6528C17.8752 18.488 17.7557 18.2574 17.6032 18.0631C17.2028 17.5528 16.5766 17.3001 16.1062 16.8645C15.9426 16.713 15.7747 16.5658 15.5806 16.4567C15.4531 16.3849 15.31 16.333 15.1859 16.264C15.0716 16.2006 14.8141 16.2533 14.6841 16.2533C14.6594 16.2533 14.5684 16.2458 14.6401 16.2533C14.7144 16.2612 14.8086 16.4012 14.866 16.4472C15.0094 16.5618 15.117 16.6936 15.1966 16.8526C15.2704 17.0003 15.3133 17.161 15.3939 17.3068C15.6012 17.6816 15.6994 18.1063 15.8862 18.4888C15.8952 18.5071 16.0013 18.7382 15.9552 18.6065C15.8923 18.4269 15.8578 18.2359 15.8125 18.0512C15.7322 17.7241 15.6306 17.3208 15.3892 17.0666C15.2291 16.8981 15.3836 17.1779 15.4058 17.2379C15.4579 17.3779 15.4668 17.5401 15.5283 17.6754C15.5531 17.73 15.5883 17.7755 15.608 17.8324C15.6623 17.9894 15.71 18.1372 15.7364 18.3033C15.763 18.4709 15.7887 18.6609 15.8696 18.811C15.9094 18.8851 15.9427 19.0119 16.0218 19.0571C16.1267 19.1171 16.1516 19.2928 16.212 19.3877C16.2938 19.5162 16.5033 19.5331 16.6413 19.6148C16.8176 19.7193 16.867 19.7539 17.0693 19.7099C17.3086 19.6579 17.5507 19.6564 17.7946 19.6564C17.9449 19.6564 17.8193 19.6581 17.734 19.6517C17.419 19.6279 17.1033 19.635 16.7875 19.635C16.6204 19.635 16.4404 19.6479 16.2881 19.7254C16.1334 19.8041 16.0225 19.9649 15.9017 20.0857C15.6642 20.3231 15.3957 20.4144 15.0705 20.4697C14.8561 20.5062 14.6423 20.5149 14.4284 20.5446C14.3036 20.562 14.2296 20.5553 14.4142 20.5553C14.9119 20.5553 15.4125 20.486 15.9064 20.4269C16.2502 20.3858 16.6187 20.3731 16.9516 20.2723C17.3226 20.16 17.6906 20.0409 18.0622 19.9299C18.1953 19.8901 18.342 19.8286 18.4795 19.8074C18.6311 19.7841 18.166 19.8017 18.0217 19.8538C17.8414 19.9189 17.6655 20.0127 17.4914 20.0928C17.1985 20.2275 16.8693 20.2793 16.5545 20.3365C15.9924 20.4387 15.4146 20.4869 14.847 20.5506C14.2079 20.6222 13.5492 20.5767 12.9064 20.5767" stroke="black" stroke-width="2.48951" stroke-linecap="round"/>
<path d="M7.94125 16.4458C7.93234 16.4859 7.86887 16.5336 7.84375 16.5659C7.78011 16.6477 7.72779 16.7418 7.68441 16.8358C7.57053 17.0826 7.47826 17.3333 7.42758 17.6016C7.38554 17.8241 7.40618 18.0608 7.40618 18.2865C7.40618 18.6621 7.49653 18.9813 7.71652 19.29C7.92102 19.577 8.14464 19.793 8.45373 19.9654C8.6742 20.0884 8.89506 20.2176 9.12079 20.3304C9.46869 20.5044 9.85774 20.571 10.2326 20.6622C10.874 20.8182 11.5455 20.8535 12.2004 20.919" stroke="black" stroke-width="2.48951" stroke-linecap="round"/>
<path d="M18.7274 18.771C18.7128 18.7543 18.993 18.7389 19.0525 18.7497C19.0908 18.7567 19.1217 18.8025 19.155 18.821C19.2216 18.858 19.2897 18.8833 19.3575 18.9172C19.591 19.034 19.8978 19.0635 20.1551 19.0635C20.5231 19.0635 20.882 19.0592 21.2478 19.0185C22.0028 18.9346 22.7599 18.6745 23.4294 18.3222C23.5686 18.2489 23.7105 18.1488 23.8582 18.0959C23.9351 18.0683 24.0011 18.0358 24.0507 17.9721C24.1571 17.8354 24.2635 17.713 24.387 17.5896C24.5732 17.4033 24.7617 17.2183 25.0408 17.2183C25.2018 17.2183 25.3084 17.2767 25.4109 17.4033C25.5418 17.5651 25.5234 17.7383 25.5234 17.9384C25.5234 18.2004 25.454 18.4649 25.3159 18.691C25.2005 18.8798 25.0291 19.0142 24.8808 19.176C24.7078 19.3648 24.5187 19.5715 24.3132 19.7236C24.0827 19.8943 23.8013 20.0635 23.5031 20.0499C23.0085 20.0274 23.6489 19.198 23.7331 19.0935C24.014 18.7453 24.3318 18.4401 24.6808 18.1609C24.8572 18.0198 25.019 17.9199 25.2471 17.8971C25.452 17.8766 25.6318 17.8888 25.7659 18.0609C26.1306 18.5287 25.755 19.2165 25.5346 19.6474C25.3347 20.0385 25.1537 20.4011 24.7533 20.6162C24.4529 20.7776 24.1369 20.8789 23.8157 20.9875C23.6023 21.0597 23.3966 21.1539 23.1831 21.2238C23.016 21.2785 22.9281 21.2077 22.9155 21.0288C22.8901 20.6664 23.0346 20.4622 23.4156 20.4412C23.8755 20.4158 23.8968 20.897 23.9019 21.2476C23.9108 21.848 23.7795 22.4251 23.3431 22.8665C23.1504 23.0615 22.7783 23.3556 22.4792 23.1878C22.3864 23.1358 22.3568 23.0267 22.3555 22.9266C22.3511 22.6114 22.5955 22.3717 22.828 22.1915C23.1596 21.9345 23.6263 21.7864 24.0444 21.7864C24.2008 21.7864 24.3327 21.7671 24.3307 21.9589C24.3287 22.151 24.2191 22.461 23.9832 22.4677C23.694 22.476 23.9426 21.6315 23.9982 21.5164C24.0967 21.312 24.2169 21.1168 24.347 20.9313C24.3937 20.8646 24.547 20.6921 24.4107 20.8738C24.1346 21.2419 23.7865 21.6326 23.4094 21.8977C23.1848 22.0555 22.928 22.1819 22.6705 22.2765C22.5149 22.3336 22.311 22.3876 22.1479 22.324C21.7394 22.1646 21.7848 21.4101 21.8941 21.0888C21.9098 21.0427 22.1887 20.5321 22.3004 20.6662C22.3319 20.704 22.2849 20.8296 22.2704 20.86C22.1626 21.0864 21.9155 21.2554 21.6929 21.3538C21.5046 21.4371 21.2489 21.5108 21.0453 21.4363C20.8209 21.3543 20.7396 21.0929 20.7777 20.8738C20.8116 20.6792 21.1257 20.3022 21.3678 20.4087C21.4539 20.4466 21.4235 20.6011 21.3978 20.6637C21.2659 20.9853 20.9235 21.2402 20.6302 21.4038C20.5174 21.4668 19.8484 21.8058 19.8339 21.4776C19.8234 21.2428 19.9911 20.9938 20.1852 20.8688C20.2894 20.8016 20.3252 20.8515 20.3252 20.9575C20.3252 21.3501 20.1763 21.6988 19.9976 22.0439C19.9738 22.09 19.7911 22.504 19.7076 22.504C19.6529 22.504 19.8596 21.9953 19.8751 21.9564C19.888 21.9243 20.0301 21.5878 20.0301 21.6814C20.0301 21.7462 20.0316 21.9332 19.9651 21.9664" stroke="black" stroke-width="2.48951" stroke-linecap="round"/>
<path d="M24.8257 13.4375C24.8818 13.5146 24.8822 13.6629 24.9032 13.755C24.9424 13.927 25.0285 14.0469 25.1133 14.1976C25.2045 14.3598 25.3203 14.5272 25.3833 14.7027C25.4663 14.9338 25.5414 15.1684 25.6358 15.3953C25.8208 15.84 25.9954 16.3565 25.7983 16.8255C25.3948 17.7855 24.5772 18.3825 23.7231 18.9283" stroke="black" stroke-width="2.48951" stroke-linecap="round"/>
<path d="M20.1313 22.6433C20.1313 23.0582 19.7399 23.3672 19.3992 23.5627C19.1546 23.703 18.9361 23.7265 18.6603 23.7265C18.4252 23.7265 18.1222 23.7089 17.9047 23.6062C17.3658 23.3517 16.8919 22.966 16.4303 22.5898C16.0579 22.2864 15.6493 22.0625 15.2567 21.8008" stroke="black" stroke-width="2.48951" stroke-linecap="round"/>
<path d="M17.7241 24.3882C17.5829 24.3882 17.6602 24.4603 17.5854 24.5102C17.3887 24.6414 17.2025 24.8174 16.9852 24.9148C16.8165 24.9904 16.5878 25.1652 16.4002 25.1706C16.0109 25.1817 15.7158 24.4834 15.5376 24.2244C15.2257 23.771 14.8322 23.3827 14.5195 22.9288C14.2539 22.5432 13.9388 22.1916 13.6603 21.8155C13.5872 21.7168 13.4614 21.6164 13.6252 21.8005C14.1128 22.3485 14.517 22.9715 14.899 23.5958C15.224 24.1271 15.5281 24.6777 15.8084 25.2341C15.895 25.4059 15.9968 25.5911 16.0324 25.7824C16.0572 25.9158 15.623 25.6863 15.5927 25.6704C14.9529 25.3343 14.3657 24.8058 13.8676 24.2879C13.4394 23.8428 13.0108 23.39 12.664 22.877C12.4653 22.5832 12.2972 22.2693 12.1006 21.9743C12.0976 21.9699 11.9697 21.8095 12.0371 21.8372C12.1169 21.8701 12.1161 21.9479 12.1541 22.0211C12.5283 22.7423 13.104 23.3532 13.3911 24.1241C13.5636 24.587 13.662 24.9828 13.662 25.4698C13.662 25.7121 13.0856 25.9411 12.8495 25.9529C12.6272 25.964 12.3655 25.9795 12.1558 25.9061C11.6874 25.7422 11.4114 25.2584 11.1177 24.883C10.8505 24.5417 10.5591 24.2321 10.2751 23.9051C10.0157 23.6063 9.77257 23.2831 9.47943 23.0174C9.20204 22.7661 8.96559 22.4352 8.75058 22.1315C8.51224 21.7948 8.21062 21.4308 8.05516 21.0449C8.00239 20.9138 7.84606 20.6213 8.09528 20.7089C8.48983 20.8475 8.88594 21.0691 9.24038 21.2906C9.39063 21.3845 9.53407 21.4881 9.68337 21.5832C9.86599 21.6994 9.47963 21.5911 9.44265 21.5765C9.15578 21.4626 8.88029 21.3047 8.60682 21.1619C8.48138 21.0964 8.33959 20.9951 8.25911 20.8744C8.22028 20.8161 8.20089 20.7373 8.17051 20.6704C8.15533 20.637 8.11636 20.5607 8.12705 20.5233C8.1366 20.4899 8.19737 20.5358 8.20729 20.5417C8.43463 20.6764 8.66285 20.8095 8.891 20.9429C9.88523 21.5242 10.8983 22.1356 11.6994 22.974C12.0936 23.3865 12.3882 23.8968 12.7893 24.2979" stroke="black" stroke-width="2.48951" stroke-linecap="round"/>
<path d="M23.4415 22.7637C23.5718 22.78 23.2959 23.3248 23.276 23.3755C23.1445 23.7093 22.8743 23.994 22.7026 24.3083C22.2938 25.0564 21.7321 25.7103 21.2449 26.4062C21.123 26.5803 21.061 26.7857 20.9072 26.9395C20.7973 27.0495 20.7011 27.1384 20.5762 27.217C20.4528 27.2947 20.3358 27.4423 20.1884 27.426C19.9286 27.3971 19.6573 27.2936 19.4044 27.2304C18.8866 27.1009 18.3677 26.9792 17.8514 26.8442C17.3367 26.7097 16.807 26.7348 16.28 26.6821C15.7455 26.6286 15.2037 26.6921 14.6719 26.6303C14.2047 26.5759 12.8141 26.3745 13.2844 26.3745C13.5979 26.3745 13.908 26.428 14.2222 26.433C14.9279 26.4443 15.6141 26.4516 16.2934 26.2357C16.87 26.0525 17.4079 25.8517 18.0085 25.7576C18.5249 25.6768 19.0562 25.5893 19.5532 25.425C20.1981 25.2117 20.9964 24.8626 21.382 24.2816C21.6207 23.9218 21.6236 23.4632 21.7564 23.0646" stroke="black" stroke-width="2.48951" stroke-linecap="round"/>
<path d="M30.0611 27.3974C29.9099 27.3974 29.7789 27.2813 29.6566 27.2035C29.5075 27.1086 29.322 27.0603 29.1601 26.9895C28.9537 26.8992 28.7483 26.8384 28.5332 26.7722C28.3695 26.7218 28.0748 26.7091 28.4062 26.8257C28.6314 26.9049 28.8332 27.0271 29.0615 27.1032C29.2728 27.1736 29.4583 27.2527 29.6265 27.4007C29.8652 27.6108 30.0717 27.9792 30.1648 28.285C30.2601 28.5983 30.241 29.0003 30.1146 29.2997C29.9861 29.6044 29.845 30.0171 29.6165 30.2626C29.4449 30.4469 29.308 30.6297 29.0832 30.7508C28.7956 30.9056 28.4599 30.948 28.137 30.948C27.935 30.948 27.7371 31.0082 27.5336 31.0082C27.215 31.0082 26.8872 30.8979 26.6075 30.7441C26.2398 30.5419 25.8734 30.2808 25.576 29.9835C25.1059 29.5134 24.5591 29.1486 24.0765 28.6929C23.5116 28.1594 22.9575 27.6518 22.3113 27.2168C22.2906 27.203 22.0705 27.0878 22.0705 27.0731C22.0705 27.0188 22.4554 27.1767 22.4818 27.1884C22.9113 27.3793 23.377 27.6335 23.7255 27.9541C24.046 28.2489 24.3486 28.6451 24.7653 28.8049C25.2394 28.9868 25.7455 29.1336 26.2564 29.1426C26.6484 29.1495 26.8613 28.9733 27.0354 28.6194C27.1815 28.3224 27.2443 27.9265 27.5051 27.6983C27.8331 27.4113 28.4546 27.5398 28.8141 27.6682C29.1116 27.7745 29.4297 28.0198 29.5011 28.3452C29.5956 28.7754 29.3021 29.0276 28.9712 29.2563C28.6289 29.4928 28.2618 29.6274 27.8646 29.7377C27.7422 29.7717 27.4606 29.8705 27.3998 29.7143C27.3022 29.4634 27.8389 29.4704 27.9548 29.4736C28.4572 29.4873 28.6085 30.0253 28.6736 30.4348C28.7289 30.7821 28.8041 31.3446 28.4898 31.5732C28.446 31.6051 28.3112 31.6346 28.2574 31.6535C28.0672 31.72 27.845 31.7027 27.6472 31.7003C27.1346 31.6939 26.4885 31.3576 26.0876 31.0517C25.8094 30.8393 25.5846 30.5889 25.3604 30.3228C25.0349 29.9365 24.645 29.607 24.3273 29.2145C23.9368 28.7321 23.5187 28.2715 23.1438 27.7769C22.7676 27.2806 22.3571 26.888 21.8833 26.488C21.5699 26.2234 21.282 25.9302 20.9923 25.6405C20.9069 25.5551 20.7893 25.4201 20.673 25.3813" stroke="black" stroke-width="2.48951" stroke-linecap="round"/>
<path d="M22.3268 16.9162C22.3268 16.4607 22.3835 15.9659 22.1749 15.5487C22.0244 15.2477 21.6189 15.0248 21.321 14.8923C21.2407 14.8566 21.1036 14.6921 21.1265 14.8984C21.1696 15.2861 21.4342 15.7634 21.6188 16.0957C21.9313 16.6582 22.4303 17.1251 22.7644 17.6819" stroke="black" stroke-width="2.48951" stroke-linecap="round"/>
<path d="M11.825 19.9794C11.825 18.8044 11.825 17.6294 11.825 16.4544C11.825 16.247 11.6751 16.4742 11.6487 16.5456C11.476 17.0119 11.2935 17.4864 11.2354 17.9859C11.139 18.815 11.4968 19.5483 11.4968 20.3623" stroke="black" stroke-width="2.48951" stroke-linecap="round"/>
<path d="M25.2224 5.78716C25.2224 5.31368 25.2224 4.84019 25.2224 4.36671C25.2224 4.32192 25.2478 4.21826 25.1856 4.21826C25.1074 4.21826 25.023 4.34936 24.98 4.40076C24.8826 4.51708 24.7761 4.62032 24.6736 4.73169C24.4952 4.9254 24.2935 5.10572 24.0811 5.26147C23.9809 5.33496 23.8783 5.39589 23.8006 5.49299" stroke="black" stroke-width="1.35791" stroke-linecap="round"/>
<path d="M7.29517 20.8046C7.29517 20.5568 7.02305 20.2344 6.91148 20.0113C6.73703 19.6624 6.7242 19.3184 6.61853 18.938C6.50395 18.5255 6.36187 18.0811 6.36187 17.6521C6.36187 17.3935 6.58132 15.9048 6.87518 15.9048" stroke="black" stroke-width="1.35791" stroke-linecap="round"/>
<path d="M16.6983 25.1462C16.9489 25.133 17.1701 24.9176 17.3834 24.8047C17.7324 24.62 18.0585 24.3926 18.3889 24.1765C18.7973 23.9095 19.3278 24.0996 19.7697 24.2166C20.1057 24.3055 20.4438 24.4086 20.7752 24.5033C20.8618 24.528 20.8606 24.5771 20.9776 24.5771C21.1677 24.5771 21.13 24.619 20.9101 24.5391" stroke="#F4FF95" stroke-width="0.452638" stroke-linecap="round"/>
<path d="M18.6104 23.8147C18.6104 23.2932 18.4859 22.7192 18.384 22.2305" stroke="#F4FF95" stroke-width="0.452638" stroke-linecap="round"/>
<path d="M21.4402 28.3257C21.4402 28.1485 21.3305 27.9683 21.2048 27.8508C20.9905 27.6507 20.815 27.3921 20.6686 27.1398C20.3917 26.6625 20.0935 26.2023 19.7881 25.7427C19.5896 25.444 19.4011 25.1362 19.1975 24.8413C19.1484 24.7702 19.1013 24.6967 19.0401 24.6355C18.9924 24.5878 18.9857 24.4965 18.9459 24.4397C18.9302 24.4172 18.8815 24.3385 18.8544 24.3307C18.8248 24.3223 18.8165 24.2835 18.7885 24.2695" stroke="#F4FF95" stroke-width="0.452638" stroke-linecap="round"/>
<path d="M23.3291 25.9042C23.3067 25.9019 23.2884 25.8932 23.2686 25.8827C23.1137 25.8011 22.9688 25.6993 22.8273 25.5968C22.6853 25.4941 22.5511 25.3807 22.4116 25.2746C22.1959 25.1106 22.0039 24.9013 21.7725 24.7594C21.6176 24.6643 21.1445 24.3942 21.3071 24.4755" stroke="#F4FF95" stroke-width="0.452638" stroke-linecap="round"/>
<path d="M21.3191 24.4753C21.2041 24.4753 21.0889 24.4572 20.9747 24.4451C20.8658 24.4335 20.7557 24.4345 20.6464 24.4242C20.3359 24.3949 20.0339 24.2967 19.7262 24.2513C19.4854 24.2158 19.2408 24.19 19.0017 24.1484C18.9632 24.1417 18.8501 24.1274 18.8369 24.0879" stroke="#F4FF95" stroke-width="0.452638" stroke-linecap="round"/>
<path d="M23.8362 27.6602C23.7046 27.7209 23.685 27.9349 23.6443 28.0585C23.5965 28.2037 23.5546 28.351 23.5546 28.5048" stroke="#F4FF95" stroke-width="0.452638" stroke-linecap="round"/>
<path d="M21.9678 27.5358C21.9678 27.4605 21.9678 27.3851 21.9678 27.3098C21.9678 27.265 21.9626 27.2163 21.972 27.1722C21.9885 27.0948 22.0331 27.021 22.0613 26.9473C22.1105 26.819 22.1818 26.7021 22.2673 26.5947C22.3453 26.4968 22.438 26.4583 22.5542 26.4292" stroke="#F4FF95" stroke-width="0.452638" stroke-linecap="round"/>
<path d="M30.7756 28.2399C30.4435 28.2399 30.1113 28.2399 29.7791 28.2399C29.6123 28.2399 29.4424 28.249 29.2765 28.2293C28.8886 28.1831 28.5368 28.0341 28.1669 27.9221C27.9104 27.8445 27.6747 27.7246 27.4498 27.5811C27.3304 27.5049 27.1982 27.4079 27.1339 27.2793" stroke="#F4FF95" stroke-width="0.452638" stroke-linecap="round"/>
<path d="M28.7845 26.4148C28.7743 26.4031 28.7895 26.4061 28.7991 26.4061C28.9623 26.4061 29.1255 26.4056 29.2886 26.4066C29.4311 26.4074 29.57 26.4036 29.7083 26.4391C29.8214 26.4682 29.9347 26.4986 30.045 26.5371C30.2256 26.6001 30.3981 26.7065 30.5413 26.8331C30.629 26.9105 30.7058 27.0097 30.7058 27.131C30.7058 27.2459 30.6327 27.3093 30.5273 27.3493C30.3063 27.4331 30.0398 27.3643 29.8233 27.3051C29.6758 27.2648 29.5333 27.2104 29.3881 27.163C29.2164 27.1069 29.039 27.0675 28.8612 27.0368C28.5651 26.9858 28.2922 26.9224 28.0248 26.7816" stroke="#F4FF95" stroke-width="0.452638" stroke-linecap="round"/>
<path d="M30.9718 26.8638C31.0447 26.8638 31.1011 26.9254 31.1535 26.9691C31.2115 27.0174 31.2708 27.0641 31.3302 27.1108C31.3707 27.1426 31.4114 27.1716 31.4472 27.209C31.4831 27.2463 31.517 27.2861 31.5553 27.3211C31.5995 27.3616 31.6446 27.4036 31.6805 27.4521C31.7051 27.4852 31.7104 27.5173 31.7104 27.558C31.7104 27.7452 31.7145 27.9288 31.6661 28.1119C31.618 28.2934 31.5156 28.458 31.4355 28.6264C31.3759 28.7515 31.3212 28.8797 31.2708 29.0088C31.2247 29.1269 31.1919 29.2476 31.1567 29.369C31.1558 29.3722 31.1398 29.4202 31.1392 29.4032C31.1378 29.3545 31.1467 29.3056 31.1595 29.2588C31.2033 29.098 31.2698 28.9435 31.3198 28.7845C31.4012 28.5254 31.4556 28.2574 31.4937 27.9885C31.5059 27.9027 31.5292 27.8166 31.5282 27.7292C31.5278 27.6996 31.5162 27.6729 31.5096 27.6444C31.501 27.6075 31.4911 27.573 31.4729 27.5394C31.4573 27.5104 31.413 27.4227 31.3756 27.4163C31.3538 27.4126 31.3559 27.7535 31.3559 27.7757C31.3559 27.9099 31.3627 28.047 31.3367 28.1794C31.3167 28.2816 31.2867 28.3824 31.2623 28.4836" stroke="black" stroke-width="0.452638" stroke-linecap="round"/>
<path d="M26.1168 28.2286C26.1168 28.1374 26.1152 28.046 26.1168 27.9548C26.1196 27.7884 26.1598 27.6306 26.1811 27.4667C26.203 27.2973 26.2239 27.1425 26.2786 26.9796C26.3538 26.7557 26.4285 26.5183 26.5545 26.3175C26.6394 26.1822 26.7555 26.0752 26.8693 25.9645C26.9336 25.9019 27.0098 25.8383 27.0926 25.801C27.1349 25.782 27.1987 25.7742 27.2438 25.7628C27.4076 25.7215 27.585 25.7 27.7536 25.6958C27.9035 25.692 28.0799 25.6748 28.2257 25.7157C28.3558 25.7522 28.4799 25.8024 28.6003 25.8625C28.6519 25.8883 28.8109 25.9434 28.7532 25.9434C28.7332 25.9434 28.7031 25.9248 28.6839 25.9191C28.6015 25.8945 28.5216 25.864 28.4363 25.8492C28.1596 25.8013 27.9078 25.8494 27.6721 26.0005C27.2802 26.2519 26.9288 26.5588 26.6005 26.8871C26.4205 27.0671 26.3362 27.3587 26.3362 27.6102" stroke="black" stroke-width="0.452638" stroke-linecap="round"/>
<path d="M26.7592 25.8632C27.3721 25.8632 27.9978 25.8901 28.6027 25.7853C28.9584 25.7236 29.3182 25.7206 29.6781 25.729C29.8234 25.7325 30.0092 25.7189 30.151 25.7583C30.3581 25.8158 30.539 26.0526 30.6906 26.1937C30.7585 26.2569 30.8109 26.3343 30.8764 26.3998C30.9518 26.4752 31.0342 26.5439 31.1102 26.6186C31.2947 26.7996 31.4934 26.9651 31.6528 27.1717C31.6904 27.2205 31.7853 27.3491 31.6745 27.2301C31.4944 27.0366 31.3137 26.843 31.1267 26.6561C31.0565 26.5858 30.9873 26.5184 30.9086 26.4575C30.8464 26.4093 30.795 26.342 30.7258 26.3031C30.6406 26.2552 30.538 26.2199 30.4448 26.1899C30.1956 26.1098 29.9296 26.0501 29.6669 26.0356C29.238 26.0119 28.8078 25.9576 28.3779 25.9576C28.1077 25.9576 27.8583 26.013 27.5955 26.0655" stroke="black" stroke-width="0.452638" stroke-linecap="round"/>
<path d="M24.0483 5.35498C24.0234 5.40215 23.9624 5.45436 23.9291 5.48895C23.8274 5.59461 23.7241 5.69932 23.6268 5.80917C22.9805 6.53924 22.435 7.35761 22.0363 8.2476C21.7111 8.97349 21.4388 9.7263 21.1982 10.4842C21.0914 10.8206 21.0092 11.1525 20.9605 11.5013" stroke="#F4FF95" stroke-width="0.452638" stroke-linecap="round"/>
<path d="M8.07975 8.91293C8.1018 8.85414 8.49965 9.02024 8.54048 9.03628C8.99475 9.21475 9.4245 9.4894 9.81157 9.78292C10.2276 10.0984 10.5792 10.4824 10.9454 10.8522C11.2564 11.1663 11.5513 11.4935 11.844 11.8243" stroke="#F4FF95" stroke-width="0.452638" stroke-linecap="round"/>
<path d="M19.0879 13.6587C19.0879 14.0621 19.0347 14.4794 18.8316 14.8348" stroke="#F4FF95" stroke-width="0.452638" stroke-linecap="round"/>
<path d="M17.248 13.4478V14.6088" stroke="#F4FF95" stroke-width="0.452638" stroke-linecap="round"/>
<path d="M15.5594 13.8696C15.5619 14.0365 15.6397 14.1676 15.6918 14.3237C15.7094 14.3767 15.7322 14.4345 15.7705 14.4728" stroke="#F4FF95" stroke-width="0.452638" stroke-linecap="round"/>
<path d="M13.7499 14.0356C13.8629 14.1044 13.9707 14.1537 14.0683 14.2484C14.1687 14.3458 14.2525 14.4593 14.3531 14.5567C14.443 14.6437 14.5624 14.7048 14.6848 14.7293" stroke="#F4FF95" stroke-width="0.452638" stroke-linecap="round"/>
<path d="M12.8149 15.6642C12.7867 15.6642 12.8714 15.6634 12.8995 15.6659C12.99 15.6739 13.07 15.719 13.1534 15.7513C13.2664 15.7951 13.3894 15.8515 13.5085 15.8753" stroke="#F4FF95" stroke-width="0.452638" stroke-linecap="round"/>
<path d="M25.2966 11.4155C25.1025 11.7761 24.8235 12.1075 24.6828 12.4943" stroke="#F4FF95" stroke-width="0.452638" stroke-linecap="round"/>
<path d="M23.4924 11.4341V11.7875" stroke="#F4FF95" stroke-width="0.452638" stroke-linecap="round"/>
<path d="M9.09616 11.6948C9.55083 12.099 9.98585 12.5287 10.4167 12.9596" stroke="#F4FF95" stroke-width="0.452638" stroke-linecap="round"/>
<path d="M7.42212 13.6291C7.62188 13.6291 7.8217 13.6275 8.02145 13.6291C8.15831 13.6303 8.29052 13.6663 8.42651 13.6663" stroke="#F4FF95" stroke-width="0.452638" stroke-linecap="round"/>
<path d="M23.3171 13.4014C23.2816 13.4974 23.2143 13.5755 23.1827 13.6702" stroke="#F4FF95" stroke-width="0.452638" stroke-linecap="round"/>
<path d="M22.0178 12.5723V13.1099" stroke="#F4FF95" stroke-width="0.452638" stroke-linecap="round"/>
<path d="M18.949 11.0269C18.949 11.265 18.949 11.5031 18.949 11.7412C18.949 11.9839 18.8858 12.1583 18.7698 12.3709" stroke="#F4FF95" stroke-width="0.452638" stroke-linecap="round"/>
<path d="M16.8208 10.8472V12.1465" stroke="#F4FF95" stroke-width="0.452638" stroke-linecap="round"/>
<path d="M14.8269 11.2056C14.8269 11.4062 14.7991 11.6277 14.8493 11.8229C14.9052 12.0402 15.0957 12.2334 15.0957 12.46" stroke="#F4FF95" stroke-width="0.452638" stroke-linecap="round"/>
<path d="M12.8557 12.1016C12.9555 12.2138 12.9816 12.4002 13.0585 12.5284C13.1394 12.6633 13.2046 12.8066 13.3037 12.9304" stroke="#F4FF95" stroke-width="0.452638" stroke-linecap="round"/>
<path d="M11.3325 14.0507C11.4114 13.8928 12.0835 14.243 12.1389 14.4091" stroke="#F4FF95" stroke-width="0.452638" stroke-linecap="round"/>
<path d="M10.6829 15.126H9.22677" stroke="#F4FF95" stroke-width="0.452638" stroke-linecap="round"/>
<path d="M12.6021 22.998C12.305 23.5922 12.0045 24.1716 11.7595 24.7908C11.6581 25.0471 11.7063 25.2098 11.4225 25.2729" stroke="#F4FF95" stroke-width="0.452638" stroke-linecap="round"/>
<path d="M11.3801 22.2397C10.8292 22.7907 10.5368 23.5465 9.98994 24.0933" stroke="#F4FF95" stroke-width="0.452638" stroke-linecap="round"/>
<path d="M9.86353 21.6079C9.65969 21.7201 9.33439 21.836 9.1895 22.0292" stroke="#F4FF95" stroke-width="0.452638" stroke-linecap="round"/>
<path d="M22.0803 22.0293C22.3447 22.0293 22.6436 22.1891 22.8807 22.2914C23.1601 22.4119 23.4377 22.605 23.6812 22.7876" stroke="#F4FF95" stroke-width="0.452638" stroke-linecap="round"/>
<path d="M23.2179 20.3861C22.8855 20.3861 23.8826 20.3787 24.2149 20.3861C24.4629 20.3917 24.6982 20.4704 24.9451 20.4704" stroke="#F4FF95" stroke-width="0.452638" stroke-linecap="round"/>
<path d="M25.9563 18.4902H23.3023" stroke="#F4FF95" stroke-width="0.452638" stroke-linecap="round"/>
<path d="M9.47935 18.4537C9.47147 18.5167 9.27552 18.4003 9.2636 18.3914C9.16699 18.3189 9.09089 18.235 9.01011 18.1457C8.95798 18.0881 8.90677 18.0216 8.86688 17.9551C8.81938 17.876 8.75681 17.8004 8.71346 17.7202C8.63487 17.5748 8.5679 17.421 8.47615 17.2833C8.39717 17.1649 8.33252 17.0506 8.27599 16.9214C8.24695 16.855 8.24686 16.8465 8.31914 16.8465C8.50531 16.8465 8.69149 16.8465 8.87767 16.8465C9.04325 16.8465 9.18836 16.8971 9.3487 16.9328C9.44858 16.955 9.55338 16.9336 9.65434 16.9519C9.75212 16.9697 9.84117 16.9867 9.94079 16.9867C9.99499 16.9867 9.95236 16.9602 9.98154 16.9435C10.0058 16.9297 10.0428 16.8953 10.0073 16.8842C9.90687 16.8528 9.78816 16.868 9.6843 16.868C9.57786 16.868 9.47153 16.866 9.36668 16.8465C9.17481 16.8108 8.9856 16.7817 8.78957 16.7817C8.72173 16.7817 8.65231 16.8286 8.58642 16.8441C8.5633 16.8495 8.42074 16.9043 8.44499 16.9112C8.49401 16.9252 8.53133 16.956 8.56724 16.9915C8.66914 17.0923 8.76019 17.2041 8.85489 17.3115C9.01411 17.4921 9.17263 17.7096 9.26121 17.936C9.2619 17.9377 9.28917 18.0024 9.28398 18.0037C9.27395 18.0062 9.21908 17.9216 9.21866 17.921C9.16615 17.8471 9.1282 17.7696 9.0964 17.6849C9.03973 17.5337 8.93324 17.2477 9.05266 17.0958C9.11231 17.0198 9.21069 17.2616 9.21806 17.2827C9.29174 17.4946 9.33911 17.7424 9.33911 17.9683" stroke="#F4FF95" stroke-width="0.452638" stroke-linecap="round"/>
<path d="M24.0974 15.6281C24.1923 15.5333 24.239 15.3699 24.2937 15.2484C24.3812 15.0539 24.4388 14.8367 24.5004 14.6326C24.5241 14.5544 24.5967 14.4465 24.5967 14.3642C24.5967 14.3433 24.4416 14.3607 24.4298 14.3627C24.2721 14.3899 24.1229 14.4578 23.9689 14.492C23.8367 14.5214 23.7125 14.578 23.5831 14.6161C23.5258 14.633 23.4672 14.6733 23.4072 14.68C23.2797 14.6942 23.4356 14.699 23.4816 14.7153C23.5967 14.7562 23.7097 14.8246 23.8162 14.8838C23.9313 14.9477 23.9449 14.9075 24.0192 14.8101C24.0462 14.7748 24.1678 14.6466 24.2237 14.6928C24.2696 14.7306 24.1001 14.9438 24.0704 14.9785" stroke="#F4FF95" stroke-width="0.452638" stroke-linecap="round"/>
<path d="M12.6887 27.1533C10.5781 29.321 9.39791 32.0601 8.22686 34.7926" stroke="black" stroke-width="0.452638" stroke-linecap="round"/>
<path d="M10.1196 25.8687C9.85757 25.8687 9.67436 26.035 9.46612 26.1804C8.97465 26.5235 8.64214 26.8076 8.32437 27.3259C8.07545 27.7319 7.68589 28.4004 7.68589 28.9108" stroke="black" stroke-width="0.452638" stroke-linecap="round"/>
<path d="M9.71411 24.5166C9.40737 24.5166 9.13211 24.5713 8.83902 24.6743C7.78025 25.0467 6.76201 25.6158 5.83064 26.2367C4.765 26.9472 3.2462 27.9285 2.88611 29.2489" stroke="black" stroke-width="0.452638" stroke-linecap="round"/>
<path d="M24.7896 22.6235C26.945 22.6235 29.8072 23.5735 30.6711 25.7333" stroke="black" stroke-width="0.452638" stroke-linecap="round"/>
<path d="M26.3448 20.5279C27.5574 20.5279 28.9662 20.3143 30.1005 20.8283C31.4702 21.449 31.9311 22.964 32.2263 24.3137" stroke="black" stroke-width="0.452638" stroke-linecap="round"/>
</svg>
