<svg width="37" height="38" viewBox="0 0 37 38" fill="none" xmlns="http://www.w3.org/2000/svg">
<rect x="-0.519772" y="0.519772" width="34.305" height="35.8643" rx="4.67795" transform="matrix(-1 0 0 1 34.9939 0.903809)" fill="#F32D12" stroke="black" stroke-width="1.03954"/>
<path d="M7.51058 16.9609C7.51058 16.2213 8.36244 15.5796 8.91597 15.1971C10.0278 14.4286 11.122 13.6964 12.3823 13.1833C13.702 12.646 14.9745 12.2021 16.4098 12.1057C17.0075 12.0655 17.608 12.0797 18.2066 12.0797C18.7191 12.0797 19.2469 12.0418 19.7535 12.1316C21.0486 12.3612 22.3847 12.6488 23.5547 13.2682C23.707 13.3488 23.7699 13.523 23.939 13.5653C24.1888 13.6278 24.4954 13.7084 24.7007 13.8624" stroke="black" stroke-width="0.467313" stroke-linecap="round"/>
<path d="M21.2628 19.0833C21.2628 19.3135 21.3284 19.4229 21.0718 19.4229C20.8933 19.4229 20.7056 19.2973 20.5837 19.1682C20.435 19.0108 20.4311 18.4053 20.6167 18.2768C20.8241 18.1333 21.1006 18.0613 21.3288 17.9609C21.6432 17.8226 21.9619 17.7272 22.2956 17.6496C22.4165 17.6215 22.591 17.5284 22.6234 17.7062C22.6574 17.8936 22.7039 18.1045 22.7578 18.2863C22.9198 18.8331 22.2836 19.5502 21.7297 19.5502C21.4387 19.5502 21.0353 19.4269 21.0081 19.0739C20.9967 18.926 20.9657 18.7931 20.9657 18.6376C20.9657 18.4114 21.3019 18.3851 21.4939 18.2792C21.6474 18.1945 21.8458 18.0646 22.0268 18.0646C22.2033 18.0646 22.305 17.8977 22.2838 18.1094C22.2703 18.2444 22.2537 18.8506 22.0692 18.8711C21.9161 18.8881 21.5813 18.9271 21.4561 18.8475C21.2699 18.729 21.4374 18.4654 21.5929 18.4136C21.7645 18.3564 21.9532 18.3617 22.1329 18.3617C22.3348 18.3617 22.3336 18.7653 22.239 18.8711C22.0886 19.0392 21.8716 18.9984 21.666 18.9984C21.533 18.9984 21.5919 18.4958 21.6448 18.4136C21.7527 18.2458 22.1426 18.2181 22.298 18.3217C22.4619 18.4309 22.1848 18.7844 22.1211 18.8711C21.9742 19.0708 21.928 19.2106 21.6613 19.2106C21.4149 19.2106 20.9017 19.236 21.1637 18.8616C21.1952 18.8167 21.7297 18.1917 21.7297 18.4278C21.7297 18.6203 21.78 18.8761 21.5929 18.9984C21.3916 19.13 21.5085 18.7609 21.6872 18.7013" stroke="black" stroke-width="0.467313" stroke-linecap="round"/>
<path d="M13.3256 18.1495C13.3256 17.6725 13.5112 17.1955 13.8349 16.8337C14.1246 16.51 13.4966 16.2401 13.2831 16.1452C13.032 16.0336 13.0566 16.0215 12.7974 16.1546C12.3336 16.3928 11.9762 16.6234 11.6608 17.0554C11.4177 17.3883 11.0976 17.8451 11.076 18.2768C11.0653 18.4911 11.3396 18.3779 11.458 18.3523C11.6255 18.3161 13.0191 18.3933 13.0285 18.2344C13.0471 17.9177 13.0967 17.623 13.1464 17.31C13.1768 17.1185 13.1821 16.9229 13.2737 16.7488C13.3083 16.6831 13.397 16.7126 13.4435 16.6545C13.4725 16.6182 13.0898 16.4884 13.0285 16.4611C12.9643 16.4326 12.9451 16.4243 12.8917 16.3763C12.8495 16.3383 12.8072 16.2238 12.8917 16.2914C13.0614 16.4271 12.993 16.7535 12.9436 16.928C12.9006 17.0798 12.6942 17.8739 12.5851 17.3596C12.5472 17.1807 12.3833 16.579 12.7101 16.579C12.9384 16.579 12.7874 17.4675 12.7526 17.593C12.6478 17.97 12.4067 17.3625 12.3706 17.2181C12.3337 17.0707 12.3577 16.9663 12.5356 17.0058C12.6491 17.0311 12.6554 17.3307 12.6677 17.4067C12.6966 17.586 12.7196 17.8168 12.6865 17.9986C12.6677 18.1023 12.4831 18.0646 12.413 18.0646C12.3139 18.0646 12.1272 18.0943 12.097 17.9585C12.0664 17.8207 12.1641 17.6584 12.3069 17.6425C12.3426 17.6386 12.5477 17.6143 12.5592 17.6661C12.586 17.7866 12.5497 17.9007 12.4319 17.9538C12.0131 18.1422 11.8611 17.7913 11.8848 17.4468C11.8936 17.3199 11.9292 17.1329 12.0334 17.0436C12.0555 17.0246 12.2033 16.839 12.1961 16.8361C11.9928 16.7548 11.6918 17.392 11.6514 17.5364C11.6345 17.5968 11.5458 17.8706 11.55 17.8453C11.5714 17.7169 11.7718 17.5469 11.8825 17.4916C11.9899 17.4379 12.1198 17.3438 12.2409 17.3265C12.2834 17.3205 12.0007 17.6424 11.9461 17.6826C11.8636 17.7434 11.5429 18.0117 11.5429 17.8524C11.5429 17.6265 11.9407 17.0489 12.2409 17.2204C12.4157 17.3203 12.1787 17.6878 12.0735 17.7463C11.845 17.8732 11.6598 17.7113 11.5853 17.5128" stroke="black" stroke-width="0.467313" stroke-linecap="round"/>
<path d="M19.6075 21.6299C19.6459 21.6222 19.533 21.5878 19.5321 21.5874C19.382 21.5231 19.2394 21.4432 19.0887 21.3799C18.9717 21.3307 18.8401 21.2883 18.7162 21.2573C18.4677 21.1952 18.2396 21.0874 17.9946 21.0262C17.4362 20.8866 16.8426 20.824 16.2732 20.7291C16.018 20.6865 15.8023 20.6536 15.5423 20.6536C15.2232 20.6536 14.9491 20.7486 14.6415 20.781C14.4073 20.8056 14.2678 20.9656 14.0708 21.0781C14.0139 21.1106 14.0222 21.114 14.0708 21.1229C14.2467 21.1549 14.3899 21.3306 14.4906 21.4624C14.7069 21.7459 14.8754 22.0542 15.1084 22.3278C15.3576 22.6207 15.6237 22.8986 15.8889 23.1767C16.2421 23.5472 16.4816 23.9893 16.7897 24.3911C16.9825 24.6426 17.2904 24.8668 17.4334 25.1528C17.5081 25.3023 17.455 25.3332 17.4947 25.1433C17.5847 24.7133 17.8724 24.2866 18.0701 23.8983C18.3692 23.3107 18.7757 22.6315 19.2467 22.1604C19.3019 22.1052 19.6459 21.8827 19.5038 22.0119C19.1396 22.3429 18.9188 22.7571 18.6737 23.1791C18.5003 23.4779 18.3339 23.8192 18.122 24.0917C17.9702 24.2868 17.7964 24.5335 17.7069 24.7613C17.6407 24.9301 17.5229 25.0231 17.4004 25.1528C17.2535 25.3083 17.2446 25.1934 17.1363 25.049C16.728 24.5046 16.111 24.1517 15.705 23.6035C15.5226 23.3574 15.353 23.0942 15.1508 22.8631C15.0332 22.7287 14.8699 22.6056 14.7712 22.4575C14.6452 22.2685 14.5462 22.1004 14.4528 21.8869C14.372 21.7021 14.6148 21.7617 14.7358 21.7242C15.1873 21.5841 15.5962 21.3328 16.0846 21.3328C16.6952 21.3328 17.2272 21.5108 17.8225 21.6299C18.0856 21.6825 17.9014 21.7624 18.0206 21.9081C18.2508 22.1895 18.5253 22.4412 18.6902 22.7712C18.7942 22.9792 18.7603 22.7958 18.8011 22.6226C18.8744 22.3108 19.0828 21.9449 19.2915 21.6983C19.4547 21.5054 19.6005 21.7934 19.4943 21.861C19.3399 21.9592 18.9815 21.8793 18.8058 21.8869C18.6861 21.8921 18.5199 21.9588 18.4002 21.9246C18.3244 21.903 18.3506 21.5874 18.4851 21.5874C18.7483 21.5874 18.7162 21.6279 18.7162 21.8751C18.7162 21.9596 18.6995 22.0605 18.5888 22.0543C18.5138 22.0501 18.5442 21.814 18.5464 21.7666C18.5562 21.5501 18.8947 21.4452 19.0463 21.5969C19.1582 21.7088 19.0863 21.8171 18.952 21.8327C18.6552 21.8671 18.4649 21.7341 18.2493 21.5544C18.0934 21.4245 17.8545 21.1765 18.2469 21.3139C18.2648 21.3201 18.485 21.3954 18.4497 21.4365C18.3299 21.5763 17.74 21.3888 17.6032 21.354C17.4423 21.313 16.8139 21.1205 17.2966 21.1205C17.3388 21.1205 17.6524 21.135 17.5324 21.1158C17.0694 21.0417 16.5981 20.8938 16.1483 20.7645C15.9631 20.7112 15.4183 20.5182 15.6036 20.5711C15.7519 20.6135 15.8911 20.5978 16.0422 20.6206C16.1218 20.6326 16.3584 20.6429 16.4147 20.7055C16.467 20.7636 15.9118 20.781 15.8818 20.781C15.6243 20.781 15.3735 20.748 15.1178 20.7385C15.0816 20.7372 15.317 20.7385 15.363 20.7385C15.442 20.7385 16.1638 20.6847 16.1695 20.781C16.1833 21.0156 15.087 20.9083 14.9174 20.9083C14.6622 20.9083 15.0038 20.9083 15.073 20.9083C15.3289 20.9083 15.5911 20.8918 15.8464 20.9107C15.9147 20.9157 16.1055 20.9522 16.0822 21.0569C16.0557 21.1765 15.6984 21.1574 15.6177 21.1606C15.3614 21.1709 15.0925 21.1336 14.8396 21.1842C14.728 21.2065 14.6721 21.2314 14.8136 21.1818C15.1564 21.0619 16.2497 20.9932 15.8865 20.9932C15.3565 20.9932 14.7869 21.0993 14.2689 21.2054C14.2515 21.209 13.9336 21.2442 13.9388 21.2809C13.9405 21.2925 14.1494 21.2073 14.1746 21.196C14.3179 21.1315 14.4609 21.1497 14.599 21.0875C14.6892 21.0469 15.0849 20.9295 14.7877 21.0569C14.5859 21.1433 14.3684 21.1205 14.1534 21.1205C14.0741 21.1205 13.8881 21.1877 13.9411 21.229C14.2897 21.5001 14.3706 21.9795 14.5566 22.3514" stroke="black" stroke-width="0.467313" stroke-linecap="round"/>
<path d="M18.2915 23.2002C17.707 23.2002 17.1997 23.5911 16.681 23.818C16.5782 23.863 16.5253 23.9218 16.4074 23.9218C16.306 23.9218 16.6102 23.9218 16.7116 23.9218C17.0623 23.9218 17.2728 24.0404 17.2728 24.4311C17.2728 24.5987 17.2304 24.41 17.2304 24.3368C17.2304 24.21 17.1989 24.0805 17.2941 23.9854C17.4474 23.832 17.8276 23.5195 17.6973 23.943C17.5824 24.3162 17.3193 24.0907 17.4851 23.8274C17.6114 23.6268 18.0151 23.6681 18.1217 23.4549" stroke="black" stroke-width="0.467313" stroke-linecap="round"/>
<path d="M12.9861 22.606C12.8867 22.4942 12.8124 22.3639 12.7243 22.2429C12.4793 21.906 12.1322 21.6289 11.8401 21.3327C11.4552 20.9424 11.0416 20.5902 10.6516 20.2102C10.3876 19.9529 10.1811 19.6452 9.93006 19.3802C9.78685 19.229 9.67648 19.1581 9.50562 19.0312C9.32048 18.8937 9.15249 18.7386 8.99628 18.5738C8.8954 18.4673 8.80394 18.3202 8.66616 18.2672C8.47876 18.1951 8.34875 18.0079 8.15682 17.9465C8.11543 17.9333 8.04361 18.4981 8.02005 18.5643C7.93344 18.8079 7.84282 19.0197 7.73237 19.2529C7.63247 19.4638 7.91818 19.3567 8.0625 19.3896C8.55735 19.5027 8.98998 19.6612 9.29339 20.0923C9.52802 20.4258 9.85345 20.7731 10.2272 20.9412C10.3976 21.0179 10.6041 21.0282 10.779 21.111C10.9249 21.1801 11.0759 21.2478 11.2364 21.2478C11.276 21.2478 11.5531 21.2768 11.576 21.2997C11.7507 21.4744 11.1275 21.0912 10.8969 21.0025C10.6475 20.9066 10.427 20.655 10.2177 20.4838C10.0216 20.3233 9.44438 19.8613 9.68483 19.9414C10.0048 20.0481 10.2906 20.3594 10.5762 20.5356C10.6936 20.6081 10.9016 20.8186 11.0478 20.8186C11.0961 20.8186 10.9797 20.7499 10.9464 20.7149C10.855 20.6189 10.7497 20.5506 10.6422 20.4743C10.3251 20.2493 10.0575 19.979 9.72727 19.7716C9.54543 19.6575 9.32372 19.4433 9.21794 19.2529C9.09545 19.0324 8.8064 18.8673 8.62371 18.6917C8.59469 18.6638 8.45835 18.5153 8.55297 18.6186C8.69583 18.7744 8.89141 18.8838 9.03873 19.0501C9.16316 19.1905 9.45644 19.4572 9.49854 19.6467C9.50002 19.6533 9.16335 19.4499 9.12361 19.4227C8.85557 19.239 8.5309 19.0744 8.3266 18.819C8.25981 18.7355 8.40484 18.744 8.4445 18.7695C8.53097 18.8251 8.61128 18.9812 8.61428 19.0831C8.61884 19.2383 8.37032 19.4863 8.28415 19.2623C8.22794 19.1162 8.23228 18.6388 8.23228 18.7954C8.23228 19.0948 7.98349 18.9074 7.85027 19.0406" stroke="black" stroke-width="0.467313" stroke-linecap="round"/>
<path d="M12.3918 23.9643C11.9823 23.9643 11.6356 23.6332 11.2694 23.4762C10.943 23.3363 10.6349 23.1347 10.2696 23.1155C10.0431 23.1035 9.6425 23.2057 9.44194 23.0942C9.33503 23.0348 9.16108 23.0106 9.03871 22.9669C8.81659 22.8876 8.57318 22.8241 8.34073 22.7853C8.1441 22.7526 7.9544 22.6271 7.76537 22.6061C7.6171 22.5896 7.72293 22.6709 7.72293 22.7971C7.72293 23.0094 7.80782 23.2645 7.80782 23.4975C7.80782 23.6101 7.81373 23.7246 7.80782 23.837C7.79805 24.0225 7.77562 23.8689 7.91629 23.7922C8.19265 23.6415 8.57286 23.7097 8.8878 23.7097C9.63133 23.7097 10.3531 23.6672 11.0973 23.6672C11.1857 23.6672 11.3071 23.6453 11.392 23.6696C11.5614 23.718 11.0352 23.6984 10.8638 23.6578C10.5231 23.5771 10.1111 23.5823 9.75792 23.5823C9.53535 23.5823 9.32743 23.5399 9.10238 23.5399C8.91031 23.5399 8.75238 23.4257 8.56239 23.4126C8.32101 23.3959 7.98085 23.3732 7.93751 23.1131C7.8729 22.7254 8.34165 22.9481 8.53881 23.0211C8.78952 23.114 9.06458 23.2605 9.33347 23.2829C9.51727 23.2982 9.76784 23.289 9.93005 23.3701" stroke="black" stroke-width="0.467313" stroke-linecap="round"/>
<path d="M13.4954 25.4499C12.9053 25.4499 12.3427 25.3689 11.7646 25.3226C11.6801 25.3159 11.6883 25.2802 11.774 25.2802C11.9037 25.2802 12.0334 25.2802 12.1631 25.2802C12.3852 25.2802 12.6049 25.2274 12.8257 25.2047C12.9197 25.1951 13.195 25.2442 13.2407 25.1528" stroke="black" stroke-width="0.467313" stroke-linecap="round"/>
<path d="M13.7075 26.0443C13.0567 26.0443 12.4059 26.0443 11.7551 26.0443C11.396 26.0443 11.0035 26.0133 10.6515 26.0961C10.185 26.2059 9.9302 26.2378 9.63283 26.629C9.54769 26.7411 9.3867 26.8233 9.28384 26.9262C9.24896 26.961 8.96079 26.4365 8.87825 26.3508C8.7891 26.2582 8.61937 26.147 8.56228 26.0443C8.54401 26.0114 8.3904 25.832 8.48682 25.832C8.63131 25.832 8.77897 25.9142 8.93013 25.9169C9.56503 25.9285 10.1955 25.8745 10.8213 25.8745C11.1781 25.8745 11.535 25.8745 11.8918 25.8745C12.0019 25.8745 12.1119 25.8745 12.222 25.8745C12.3579 25.8745 11.9523 25.9169 11.8164 25.9169C11.3605 25.9169 10.9046 25.9169 10.4487 25.9169C10.1804 25.9169 9.97309 26.0116 9.71772 26.0773C9.67599 26.088 9.14236 26.2563 9.14236 26.2046C9.14236 26.0485 9.48321 26.3615 9.20838 26.0867" stroke="black" stroke-width="0.467313" stroke-linecap="round"/>
<path d="M13.1135 21.0782C13.0789 20.9052 12.8903 20.7018 12.7763 20.5689C12.6527 20.4246 12.5999 20.2609 12.4981 20.1043C12.2704 19.7541 11.9094 19.4507 11.5879 19.1894C11.1248 18.8132 10.563 18.6241 10.1 18.2769" stroke="black" stroke-width="0.467313" stroke-linecap="round"/>
<path d="M8.48706 17.0033C8.48706 16.5445 8.91972 15.9765 9.22984 15.6663C9.35051 15.5457 9.50768 15.4664 9.63306 15.348C9.71008 15.2753 9.88977 15.259 9.93018 15.1782" stroke="black" stroke-width="0.467313" stroke-linecap="round"/>
<path d="M14.1745 13.5654C14.4333 13.5654 14.7 13.3799 14.9385 13.2871C15.0704 13.2359 15.5213 13.0365 15.5752 12.9287" stroke="black" stroke-width="0.467313" stroke-linecap="round"/>
<path d="M27.0352 19.9318C27.0352 19.8146 27.0346 19.5802 26.9078 19.5168C26.772 19.4489 26.337 19.786 26.2287 19.8469C25.9433 20.0075 25.6472 20.1589 25.3798 20.3468C25.2594 20.4314 25.1051 20.4606 24.9742 20.526C24.8646 20.5808 24.7818 20.6655 24.6606 20.6958C24.3406 20.7758 24.0007 21.0517 23.708 21.2028C23.4327 21.3449 23.1744 21.5164 22.885 21.6296C22.5491 21.7611 22.1705 21.773 21.897 22.0328C21.7071 22.2132 21.4077 22.3602 21.1778 22.4879C20.8529 22.6684 20.5636 22.9555 20.2228 23.1128C20.1446 23.1489 20.0662 23.1852 19.9893 23.2236C19.9276 23.2545 19.879 23.3628 19.8196 23.3698C19.7594 23.3769 19.5188 23.528 19.5507 23.5396C20.5597 23.9065 21.3757 24.6053 22.2601 25.195C22.8947 25.618 23.4196 26.1448 24.0239 26.598C24.1211 26.6709 24.2857 26.7348 24.3611 26.8291C24.4887 26.9886 24.5173 26.9025 24.6488 26.8079C24.9521 26.5895 24.6852 26.536 24.4484 26.341C24.2689 26.1931 24.1011 26.0385 23.9367 25.8741C23.8284 25.7658 23.7375 25.6141 23.5971 25.544C23.0593 25.275 22.6342 24.7116 22.18 24.3272C21.9229 24.1097 21.6565 23.8247 21.4513 23.5608C21.2992 23.3652 20.9349 23.3313 20.8052 23.1152C20.7849 23.0814 20.7931 23.166 20.7439 23.2001C20.6141 23.2899 20.4574 23.3343 20.3124 23.3911C20.0717 23.4852 20.13 23.4972 20.3383 23.4972C20.7357 23.4972 21.1795 23.8164 21.4136 24.1244C21.6082 24.3805 21.9644 24.6192 22.2177 24.8153C22.5129 25.0439 22.8755 25.2468 23.1397 25.5015C23.2962 25.6524 23.4891 25.7152 23.6396 25.8741C23.77 26.0118 23.9555 26.2134 24.0404 26.3834C24.1397 26.5819 24.3136 26.8514 24.0404 26.4872C23.6742 25.9988 23.217 25.5555 22.727 25.1926C22.3734 24.9307 22.0932 24.5826 21.7508 24.3036C21.5205 24.116 21.2576 23.8858 21.0929 23.6339C20.9347 23.3921 21.2087 23.188 21.3994 22.9973C21.4805 22.9162 21.5853 22.8757 21.6871 22.8275C21.849 22.7508 21.9826 22.6231 22.1328 22.5186C22.5686 22.2154 23.1058 22.1167 23.5335 21.8206C23.9004 21.5666 24.2971 21.4288 24.6795 21.2264C24.998 21.0577 25.3821 21.02 25.6981 20.8444C25.99 20.6822 26.2266 20.527 26.4739 20.3044C26.5528 20.2334 27.0968 19.8469 26.8654 19.8469C26.5753 19.8469 26.2802 19.9172 26.0377 20.0851C25.7702 20.2703 25.5803 20.5309 25.3114 20.717C24.9034 20.9995 24.4408 21.217 24.031 21.4598C23.8054 21.5935 23.5131 21.5946 23.2788 21.7169C23.0596 21.8312 22.8222 21.9015 22.602 22.0116C22.4292 22.098 22.2689 22.1938 22.1304 22.3323C21.9573 22.5054 21.73 22.5977 21.5268 22.7332C21.2206 22.9373 20.9079 23.1228 20.5836 23.285" stroke="black" stroke-width="0.467313" stroke-linecap="round"/>
<path d="M28.2236 23.54C27.246 23.54 26.286 23.249 25.328 23.0731C24.7254 22.9624 24.0807 22.776 23.4698 22.776C23.1588 22.776 22.2344 22.6486 22.5455 22.6486C22.9749 22.6486 23.3971 22.5809 23.8259 22.6085C24.3784 22.6442 24.949 22.7336 25.4836 22.8844C25.7617 22.9629 26.0243 23.0306 26.3136 23.0636C26.5888 23.0951 26.8686 23.0501 27.1437 23.0825C27.3486 23.1066 27.5526 23.1329 27.7567 23.1556C27.8857 23.1699 28.0286 23.2429 28.1529 23.2429C28.2079 23.2429 28.0427 23.2466 27.9878 23.2429C27.6979 23.2231 27.4049 23.0577 27.1437 22.9457C26.5214 22.6791 25.9038 22.5019 25.2431 22.3751C24.3584 22.2053 23.4822 22.1578 22.5997 22.3539C22.547 22.3656 21.9203 22.5991 21.9937 22.6816C22.0406 22.7344 22.3333 22.6911 22.3898 22.6911C22.8163 22.6911 23.2352 22.748 23.6585 22.7972C24.5997 22.9066 25.5353 22.9457 26.4834 22.9457C26.8215 22.9457 27.1303 22.9574 27.4596 23.0306C27.6665 23.0766 27.7945 23.158 28.0114 23.158" stroke="black" stroke-width="0.467313" stroke-linecap="round"/>
<path d="M29.4971 19.3804C29.4065 19.3917 29.364 19.8929 29.3462 19.9746C29.2627 20.356 29.1502 20.7448 29.049 21.1206C28.8243 21.9554 28.6515 22.8089 28.436 23.6484C28.2072 24.5395 27.8153 25.2867 27.2451 25.9994C27.1649 26.0997 26.456 26.8806 26.3986 26.7658" stroke="black" stroke-width="0.467313" stroke-linecap="round"/>
<path d="M22.4938 28.8877C22.4173 28.8986 22.7156 29.1831 22.739 29.2273C22.7918 29.327 22.5118 29.6161 22.4537 29.6706C22.1338 29.9705 21.76 30.2459 21.3053 30.2459" stroke="black" stroke-width="0.467313" stroke-linecap="round"/>
<path d="M15.4479 25.7471C15.6677 25.7471 16.509 25.6507 16.509 26.0229C16.509 26.5151 16.5515 27.0467 16.5515 27.5533C16.5515 28.0035 16.6392 28.4797 17.0608 28.7276C17.2557 28.8423 17.3906 29.0325 17.622 29.1096C17.8721 29.193 18.2801 29.1789 18.5369 29.1332C18.8667 29.0746 19.1685 29.0059 19.4778 28.8667C19.8007 28.7214 20.0554 28.3093 20.2677 28.0391C20.3813 27.8945 20.5589 27.7218 20.7558 27.808C20.9308 27.8845 21.2646 28.1281 21.3477 28.315C21.465 28.579 21.3692 28.4078 21.2204 28.5484C21.0892 28.6723 20.8766 28.7292 20.7535 28.8455C20.7276 28.8699 20.4015 29.2087 20.4234 29.2087C20.4821 29.2087 20.6283 29.0132 20.6686 28.9729C20.7708 28.8706 20.9089 28.8119 21.0081 28.7182C21.2076 28.5298 20.999 28.9522 20.9468 29.0342C20.7534 29.3381 20.5864 29.6091 20.3526 29.8854C20.1637 30.1086 19.8659 30.183 19.6075 30.3122C19.3291 30.4514 19.0347 30.5863 18.7185 30.6258C18.2814 30.6805 17.5339 30.7254 17.1881 30.416C16.9768 30.2269 16.7608 30.0547 16.5609 29.8548C16.4878 29.7816 16.0662 29.2097 15.9667 29.2794C15.6847 29.4768 14.7739 29.745 14.5377 29.3737C14.4287 29.2025 14.4292 28.9533 14.4292 28.7583C14.4292 28.6544 14.3919 28.4721 14.4386 28.3786C14.4948 28.2664 14.649 28.2512 14.7452 28.19C14.8974 28.0931 15.0161 28.0997 15.0234 27.9023C15.0374 27.5266 15.1083 27.1584 15.1083 26.7752C15.1083 26.6178 15.379 25.9673 15.1932 25.8744" stroke="black" stroke-width="0.467313" stroke-linecap="round"/>
<path d="M20.6261 28.1238C20.6261 28.4859 20.0214 28.3598 20.079 28.23C20.1424 28.0874 20.4187 28.1238 20.5389 28.1238C20.6865 28.1238 20.711 28.2681 20.711 28.3974C20.711 28.6446 20.1974 28.4242 20.6686 28.3031C20.7417 28.2843 20.9511 28.2081 20.9987 28.2936C21.0806 28.441 21.0581 28.566 20.9232 28.6662C20.7766 28.7751 20.6103 28.7605 20.4375 28.7605C20.3203 28.7605 20.5199 28.6756 20.5648 28.6756C20.7894 28.6756 20.7314 28.9097 20.6237 29.0576C20.4576 29.286 20.3537 29.3547 20.0743 29.3547C19.9224 29.3547 19.8012 29.2693 19.822 29.1024C19.8409 28.9517 20.1318 28.9641 20.2417 28.9751C20.4242 28.9933 20.4139 29.1701 20.4139 29.3123C20.4139 29.5005 20.2721 29.567 20.0979 29.567C19.7415 29.567 19.9144 28.8936 20.1168 28.7699C20.2576 28.6839 20.2634 28.6829 20.1922 28.8548C20.1061 29.0629 20.0416 29.2665 19.98 29.4821C19.9385 29.6273 19.3931 30.0597 19.2679 29.8405C19.1151 29.5731 19.2396 29.2699 19.5438 29.2699C19.6511 29.2699 19.6167 29.5367 19.598 29.6094C19.5537 29.7818 19.3312 29.8738 19.1736 29.8971C19.0322 29.918 18.612 30.021 18.5039 29.9065C18.377 29.7722 18.5109 29.535 18.6312 29.4491C18.9728 29.2051 19.429 30.1612 18.7916 30.1612C18.6006 30.1612 18.071 30.2889 18.169 29.9702C18.2681 29.6483 19 29.7141 19.2254 29.7391C19.4944 29.769 19.4545 30.0294 19.3622 30.2036C19.253 30.4099 18.8561 30.3275 18.6736 30.331C18.4896 30.3344 18.3077 30.3976 18.1219 30.3711C17.9243 30.3428 17.9276 29.9188 17.9757 29.7815C18.0175 29.662 18.5176 29.4535 18.544 29.6118C18.6427 30.2045 17.7169 30.3882 17.3814 30.0527C17.1688 29.84 17.2731 29.4235 17.5276 29.3217C17.6919 29.256 18.0794 29.2691 18.0794 29.4915C18.0794 29.8182 17.8914 29.9914 17.5489 29.9914C17.3135 29.9914 17.2346 29.7866 17.1692 29.5905C17.107 29.4038 17.2689 29.3704 17.4239 29.3335C17.6651 29.2761 17.8714 29.4265 17.7304 29.6943C17.6496 29.8479 17.3314 29.846 17.1975 29.8028C16.8677 29.6964 16.6158 29.2726 16.5608 28.9492C16.5234 28.7285 16.7584 28.6967 16.9334 28.7794C17.1439 28.8788 17.1456 29.0125 17.1456 29.218C17.1456 29.6338 16.7565 29.669 16.509 29.3359C16.4216 29.2182 16.1966 28.8182 16.3203 28.6591C16.3958 28.5621 16.5767 28.5783 16.6552 28.6568C16.8302 28.8318 17.0166 29.3525 16.5915 29.3099C16.2342 29.2742 15.885 28.3472 16.2732 28.3361C16.6754 28.3246 16.4551 28.7477 16.2119 28.7605C15.9286 28.7754 15.7856 27.9116 16.0209 27.9116C16.0924 27.9116 16.2119 27.8788 16.2119 27.9753C16.2119 28.0343 16.2427 28.1938 16.1671 28.2064C15.8294 28.2627 15.7305 27.6145 16.0609 27.6145C16.35 27.6145 16.543 28.0978 16.1458 28.0342C15.6669 27.9576 15.5849 27.4069 15.9996 27.1995C16.0834 27.1576 16.1887 27.2368 16.1081 27.3174C15.9794 27.4461 15.7508 27.4409 15.745 27.2325C15.7421 27.1287 15.7281 26.8773 15.8747 26.8529C16.0119 26.83 16.1076 26.9247 16.1246 27.0604C16.1347 27.1408 16.1503 27.3551 16.0185 27.3551C15.8092 27.3551 15.745 27.0049 15.745 26.8529C15.745 26.7253 15.8831 26.6777 15.9808 26.6288C16.0819 26.5783 15.9067 26.6132 15.8817 26.544C15.8249 26.3861 15.9121 26.2623 16.0751 26.2563C16.2178 26.251 16.1648 26.2291 16.1694 26.0676C16.1727 25.9516 16.2471 25.816 16.3816 25.8318C16.5186 25.8479 16.3245 26.1392 16.2967 26.1808C16.2173 26.2999 16.127 26.3972 16.127 26.544C16.127 26.6399 16.127 26.9275 16.127 26.8316C16.127 26.55 16.2415 26.2093 15.9572 26.1077C15.512 25.9487 15.6214 26.6312 15.5964 26.8764C15.5506 27.325 15.4574 27.7921 15.4479 28.2417C15.445 28.3769 15.4054 28.4953 15.4054 28.2842C15.4054 27.9004 15.363 26.7496 15.363 27.1335C15.363 27.745 15.363 28.3565 15.363 28.968C15.363 29.2023 15.3552 28.6433 15.3842 28.5507C15.4167 28.4465 15.5192 28.3552 15.6341 28.4445C15.7808 28.5586 15.7637 29.0576 15.5304 29.0576C15.1444 29.0576 15.0886 28.1926 15.554 28.296C15.7804 28.3463 15.8547 28.9859 15.5988 29.0482C15.0972 29.1702 14.6427 28.752 14.8206 28.2182C14.8505 28.1286 15.0762 28.158 15.1507 28.1686C15.3202 28.1929 15.3291 28.4439 15.3182 28.5695C15.3042 28.7297 15.2512 28.8353 15.1083 28.9067C15.0492 28.9362 14.8529 29.0408 14.8112 28.9468C14.7462 28.8007 14.6541 28.5269 14.7782 28.3879C14.9251 28.2234 15.0667 28.2997 15.1507 28.4634C15.2983 28.7508 15.4786 29.1001 15.0328 29.1001C14.8165 29.1001 14.6661 29.2494 14.6838 28.9303C14.6917 28.7896 15.0658 28.7935 15.0658 28.9727" stroke="black" stroke-width="0.467313" stroke-linecap="round"/>
<path d="M15.1508 30.0338C14.8324 30.0338 14.5141 30.0338 14.1958 30.0338C14.12 30.0338 14.1091 30.0325 14.0614 29.9725C13.8956 29.7637 13.6752 29.5516 13.453 29.4065C13.2852 29.297 13.0971 29.2183 12.9224 29.1212C12.7768 29.0403 12.5317 28.8724 12.3706 28.8477C12.2264 28.8255 12.0635 28.7686 11.925 28.7604C11.6824 28.7462 12.0094 28.8684 12.0712 28.9302C12.261 29.12 12.3036 29.4486 12.4131 29.6919C12.4894 29.8614 12.5192 29.933 12.5192 30.1187C12.5192 30.2149 12.483 30.3699 12.4437 30.4582C12.3544 30.6592 12.7341 30.5914 12.8352 30.5761C13.152 30.5283 13.4725 30.5431 13.7925 30.5431C13.9666 30.5431 14.2504 30.4916 14.4104 30.5643C14.5442 30.6252 14.7517 30.5855 14.8961 30.5855C15.061 30.5855 14.9891 30.4953 15.1083 30.4252C15.1803 30.3828 15.3206 30.3215 15.3206 30.2248C15.3206 30.0128 14.8653 30.0762 14.7075 30.0762C14.4491 30.0762 14.2176 30.1932 13.9623 30.2366C13.8824 30.2501 13.6384 30.246 13.7194 30.246C13.8562 30.246 13.993 30.246 14.1297 30.246C14.4018 30.246 14.6611 30.2678 14.9291 30.2884C15.0807 30.3001 14.7603 30.3309 14.7358 30.3309C14.5628 30.3309 14.3899 30.3309 14.217 30.3309C14.0075 30.3309 13.599 30.4158 13.4129 30.3073C13.2476 30.2109 13.1904 29.8478 13.071 29.6942C12.9596 29.5509 12.874 29.4226 12.7409 29.3028C12.5096 29.0946 12.9366 29.2717 13.038 29.3122C13.3039 29.4186 13.542 29.6182 13.7454 29.8215C13.916 29.9922 13.9356 30.1187 13.6841 30.1187C13.3366 30.1187 13.2997 30.0247 13.0804 29.7885C13.0082 29.7107 12.8719 29.4584 12.7409 29.4584C12.7102 29.4584 12.9262 29.8772 12.9437 29.9253C12.984 30.0363 13.0184 30.1861 12.9837 30.3073C12.9389 30.4641 12.7042 30.1342 12.689 30.1092C12.5621 29.9003 12.7153 29.8962 12.7739 29.7791" stroke="black" stroke-width="0.467313" stroke-linecap="round"/>
<path d="M11.1609 29.9066C11.0254 29.8915 10.9194 29.6968 10.8213 29.6189C10.6304 29.4673 10.4519 29.3701 10.3544 29.1426" stroke="black" stroke-width="0.467313" stroke-linecap="round"/>
<path d="M8.9113 9.9576C8.96921 9.9576 8.80475 9.95351 8.78396 9.94817C8.66168 9.91672 8.50633 9.83788 8.40196 9.76896C8.15767 9.60763 7.82896 9.39226 7.6804 9.13228C7.63423 9.05148 7.49446 8.99058 7.42809 8.92006C7.28409 8.76706 7.30494 8.86495 7.35028 9.0191C7.55533 9.71629 7.68371 10.4297 7.91385 11.1201C8.05672 11.5487 8.18716 11.9819 8.26519 12.4288C8.34746 12.9 8.56135 13.3446 8.61418 13.8201C8.65277 14.1673 8.77591 14.4985 8.78396 14.8529C8.78469 14.8849 8.78396 15.0563 8.78396 14.9236C8.78396 14.6227 8.78815 14.3214 8.78161 14.0205C8.76674 13.3367 8.73213 12.632 8.65663 11.9525C8.61626 11.5892 8.49492 11.2026 8.48685 10.8395C8.47673 10.3842 8.3032 10.2357 7.98695 9.94817C7.8586 9.83149 7.50285 9.47581 7.66389 9.54023C7.8597 9.61855 7.93411 10.1612 7.99638 10.316C8.17153 10.7514 8.41173 11.1573 8.5906 11.5917C8.62299 11.6704 8.72438 12.2704 8.61418 11.9949" stroke="black" stroke-width="0.467313" stroke-linecap="round"/>
<path d="M27.7991 18.1068C27.7991 18.738 27.8724 16.8374 27.7779 16.2133C27.6682 15.4895 27.5869 14.7216 27.5869 13.9896C27.5869 13.6146 27.7669 13.2852 27.9264 12.9521C28.0962 12.5975 28.2211 12.2215 28.3933 11.8674C28.4095 11.8341 28.4834 11.5953 28.5395 11.6835C28.612 11.7974 28.5939 12.0651 28.615 12.1975C28.692 12.6831 28.9347 13.1355 29.0394 13.6171C29.1792 14.2599 29.5212 14.9124 29.1974 15.5601C29.0072 15.9405 28.7892 16.2931 28.5867 16.6613C28.4454 16.9182 28.3174 17.2027 28.1622 17.4465C28.1493 17.4668 28.1208 17.621 28.0962 17.621C28.0742 17.621 28.0962 17.577 28.0962 17.555C28.0962 17.4709 28.0962 17.3868 28.0962 17.3027C28.0962 16.6802 28.0962 16.0576 28.0962 15.4351C28.0962 14.8225 28.0564 14.1953 28.0986 13.5841C28.1181 13.3002 28.1865 13.0384 28.2212 12.7611C28.2576 12.4699 28.4281 12.8094 28.4688 12.9191C28.5733 13.2013 28.7449 13.4952 28.8083 13.7869C28.8574 14.0125 28.9071 14.2855 28.997 14.499C29.0993 14.7419 28.9662 15.0152 28.9121 15.2536C28.8501 15.5265 28.6433 15.8409 28.4806 16.0647C28.4631 16.0887 28.3349 16.3498 28.3179 16.3477C28.2909 16.3443 28.3084 15.9383 28.3084 15.9044C28.3084 15.3306 28.3084 14.7568 28.3084 14.183C28.3084 14.017 28.3001 13.8663 28.2754 13.702C28.2592 13.5939 28.1435 13.2923 28.207 13.3813C28.3674 13.6058 28.3617 13.8947 28.4027 14.1594C28.4612 14.5363 28.4446 14.9215 28.5112 15.296C28.5403 15.4595 28.5441 15.6416 28.5607 15.8077C28.564 15.8402 28.546 15.9893 28.5725 15.9421C28.6903 15.7327 28.7329 15.498 28.7329 15.2536C28.7329 14.804 28.842 13.9496 28.4263 13.6171C28.3209 13.5327 28.1212 13.6211 28.0538 13.6925C27.9708 13.7804 27.9689 14.0244 27.9689 13.9472" stroke="black" stroke-width="0.467313" stroke-linecap="round"/>
<path d="M27.7568 19.6351C27.7568 19.2966 27.7762 18.9688 27.587 18.6683C27.3222 18.2478 27.0569 17.7852 26.8678 17.3243C26.6539 16.8029 26.3651 16.2764 26.2618 15.7208C26.2006 15.3922 26.0521 15.0837 26.0189 14.7516C25.9974 14.5367 25.9459 14.0998 26.0613 13.9075C26.1624 13.739 26.2397 13.5626 26.3349 13.3934C26.5184 13.0672 26.6941 12.7564 26.9079 12.4526C26.9993 12.3227 27.1301 12.1653 27.1201 11.9951C27.1117 11.8523 26.8214 12.3574 26.7994 12.3983C26.479 12.9934 26.1567 13.605 25.7477 14.1409C25.5647 14.3807 25.3999 14.6384 25.2195 14.8813C25.0994 15.043 24.963 15.093 24.8281 15.2209C24.7811 15.2654 24.6181 15.3487 24.6677 15.4331C24.6975 15.4837 24.823 15.5168 24.8729 15.5604C24.9966 15.6687 25.1371 15.7665 25.2737 15.8576C25.7393 16.1679 26.2232 16.5312 26.6202 16.9281C26.7011 17.009 27.2586 17.8485 27.1955 17.8643C27.1175 17.8838 26.8298 17.5615 26.7805 17.5035C26.5836 17.2714 26.459 16.9854 26.2924 16.7324C26.0259 16.3277 25.7364 15.9438 25.4058 15.5887C25.3193 15.4958 25.0274 15.2794 25.0002 15.1572C24.9811 15.071 25.3435 14.8753 25.4129 14.8059C25.4513 14.7675 25.6719 14.5142 25.677 14.688C25.6855 14.9786 25.6436 15.2754 25.7406 15.5557C25.7777 15.6628 25.9269 15.8999 25.9269 16.0038C25.9269 16.0052 25.7605 15.8282 25.743 15.8057C25.6512 15.6877 25.5837 15.5606 25.5072 15.4331" stroke="black" stroke-width="0.467313" stroke-linecap="round"/>
<path d="M27.9264 12.2498C27.824 12.2242 27.884 11.4612 27.884 11.3585C27.884 11.0339 27.7782 10.5091 27.9925 10.2337C28.1333 10.0526 28.2021 9.85186 28.3721 9.6819C28.5492 9.50478 28.7413 9.53335 28.9781 9.53335C29.0574 9.53335 29.1418 9.56024 29.1998 9.61824C29.2407 9.65912 29.2847 9.7925 29.2847 9.66068C29.2847 9.54036 29.2062 9.47935 29.1668 9.373C29.1111 9.22273 29.1149 9.07307 29.1149 8.91554C29.1149 8.81343 29.1894 7.3566 29.0913 7.32858C28.967 7.29307 28.9157 7.46149 28.8602 7.54081C28.7057 7.76161 28.556 7.98621 28.3886 8.1987C27.9243 8.78804 27.4322 9.35183 26.9502 9.92478C26.3272 10.6654 25.8327 11.5986 25.401 12.462C25.3665 12.5309 24.77 13.595 24.7525 13.5892C24.7346 13.5832 25.6285 12.4597 25.6769 12.4007C26.0595 11.9344 26.5842 11.6047 26.9832 11.1462C27.2827 10.8021 27.7465 10.5983 28.0113 10.2219C28.1154 10.074 28.3021 10.0113 28.4169 9.89649C28.4927 9.82066 28.7329 9.7814 28.7329 9.63946C28.7329 9.55112 28.48 9.17253 28.3933 9.11833C28.2317 9.01733 28.2668 8.49428 28.3415 8.3449C28.3813 8.26525 28.4839 8.26001 28.5631 8.26001C28.7071 8.26001 28.7078 8.3388 28.7329 8.47695C28.7697 8.67946 28.8178 8.87397 28.8178 9.0806C28.8178 9.24447 28.8013 8.75316 28.7848 8.59013C28.7542 8.28783 28.7548 7.94311 28.8201 7.64927C28.8876 7.34577 28.9027 8.26743 28.9027 8.57834C28.9027 8.72094 28.9314 8.90046 28.9003 9.04052C28.8928 9.0745 28.6968 9.0841 28.6574 9.1089C28.2551 9.36224 27.9602 9.77064 27.6718 10.137C27.4119 10.4671 27.0206 10.724 26.804 11.0849C26.6878 11.2787 26.5508 11.4444 26.4008 11.6131C26.3618 11.657 26.2336 11.8631 26.1673 11.8631C26.0663 11.8631 26.2067 11.3646 26.231 11.316C26.3798 11.0184 26.6456 10.7645 26.8653 10.519C27.2789 10.0567 27.7602 9.71803 28.1127 9.19851C28.1826 9.09555 28.4033 8.80316 28.3037 8.87781C28.2448 8.92202 28.1652 8.95858 28.0962 8.98157" stroke="black" stroke-width="0.467313" stroke-linecap="round"/>
<path d="M29.1999 9.19336C29.1999 9.54375 29.2032 9.88306 29.3461 10.2097C29.4812 10.5184 29.5846 10.8867 29.6456 11.2189C29.7452 11.7613 29.7942 12.3381 29.7942 12.8884C29.7942 13.674 29.9215 14.4569 29.9215 15.2464C29.9215 16.3028 29.9639 17.3583 29.9639 18.4133C29.9639 19.6099 30.0913 20.7905 30.0913 21.9881C30.0913 22.5206 30.2086 23.2201 29.9639 23.7094C29.8347 23.968 29.5292 24.01 29.2848 24.0915" stroke="black" stroke-width="0.467313" stroke-linecap="round"/>
<path d="M29.4122 7.75049C29.4122 8.34122 29.68 8.92247 29.8343 9.48836C30.0382 10.2359 30.0942 10.9948 30.155 11.7615C30.3009 13.5992 30.3936 15.4376 30.6856 17.2581C30.9455 18.8788 30.8508 20.5662 30.537 22.1699C30.4604 22.5617 30.2976 22.9087 30.1857 23.2853C30.1285 23.4776 30.03 23.837 29.7942 23.837" stroke="black" stroke-width="0.467313" stroke-linecap="round"/>
<path d="M29.1575 8.59912C29.1575 9.11324 29.4989 9.51429 29.6669 9.97622C29.714 10.1057 29.8155 10.1866 29.8343 10.337C29.8511 10.4714 29.9022 10.6394 29.9545 10.7638C30.0297 10.9422 29.964 11.273 29.964 11.4641C29.964 11.9483 30.0489 12.4219 30.0489 12.9096C30.0489 13.8766 30.135 14.8554 30.2517 15.8147C30.3693 16.7822 30.3884 17.793 30.3884 18.767C30.3884 19.3518 30.3884 19.9366 30.3884 20.5214C30.3884 20.7966 30.3133 21.0595 30.3035 21.3231C30.2916 21.6456 30.3369 22.1481 30.0913 22.3937" stroke="black" stroke-width="0.467313" stroke-linecap="round"/>
<path d="M28.7329 24.4312C28.7329 25.0909 28.4411 25.6144 28.1717 26.1997C27.9814 26.6131 27.666 26.918 27.3983 27.2749C27.1119 27.6568 26.8574 28.0633 26.5682 28.4445C26.0641 29.1091 25.61 29.6319 24.894 30.0763C24.0348 30.6096 23.1011 30.9996 22.2577 31.5619C21.9261 31.783 21.5175 31.8952 21.1377 32.0052C20.6915 32.1343 20.2791 32.346 19.8384 32.4862C19.0996 32.7213 18.4005 32.7808 17.6336 32.8376C16.919 32.8905 16.1949 33.0293 15.4902 33.13C15.3347 33.1522 14.7117 33.2732 14.6413 33.1323" stroke="black" stroke-width="0.467313" stroke-linecap="round"/>
<path d="M28.8604 24.6436C28.8604 25.1462 28.3814 25.6811 28.1058 26.0678C27.7951 26.5038 27.5211 26.959 27.1413 27.3388C26.4996 27.9806 25.7914 28.5282 25.0922 29.1002C24.4481 29.6272 23.5773 29.9829 22.8143 30.3099C22.14 30.5989 21.4659 30.8628 20.744 31.0197C19.8618 31.2115 19.0655 31.6933 18.2303 32.0101C17.8044 32.1716 17.3231 32.3862 16.8697 32.4534C16.5588 32.4994 16.1798 32.5254 15.8817 32.6137C15.5327 32.7171 15.0207 32.6232 14.6626 32.6232C14.4694 32.6232 14.8049 32.747 14.8536 32.7929C15.1077 33.0329 15.66 32.9203 15.976 32.9203C16.6775 32.9203 17.2504 32.6201 17.919 32.4864C18.2647 32.4173 18.5947 32.2844 18.9377 32.2081C19.314 32.1245 19.699 32.093 20.0743 32.0077C20.372 31.9401 20.6713 31.8697 20.968 31.7955C21.2559 31.7235 21.4914 31.5741 21.7721 31.4772C22.262 31.3079 22.7172 31.0365 23.1963 30.8405C23.6606 30.6505 24.0155 30.3187 24.4461 30.0765C24.7812 29.888 25.0877 29.6404 25.3822 29.395C25.6912 29.1375 26.0737 28.9991 26.3231 28.6758C26.4686 28.4872 26.6459 28.3721 26.3042 28.5673C25.4324 29.0655 24.5769 29.5968 23.7458 30.1614C23.1609 30.5586 22.5125 30.8733 21.8405 31.0928C21.3091 31.2663 20.7636 31.3309 20.2111 31.4017C20.0427 31.4233 18.7759 31.894 18.7585 31.8592" stroke="black" stroke-width="0.467313" stroke-linecap="round"/>
<path d="M14.6416 32.2832C14.5842 32.4363 13.3618 32.3115 13.2409 32.262C12.8514 32.1027 12.417 31.9945 12.01 31.88C11.6664 31.7834 11.2797 31.7501 10.9631 31.5782C10.4558 31.3028 10.0458 31.0511 9.70858 30.576C9.29542 29.9938 8.89776 29.4015 8.53899 28.7839C8.13278 28.0847 7.90356 27.2828 7.55333 26.5532C7.36625 26.1634 7.30788 25.7166 7.044 25.3647" stroke="black" stroke-width="0.467313" stroke-linecap="round"/>
<path d="M12.8164 32.0711C12.5103 32.0711 12.1804 32.1088 11.8873 32.0074C11.6152 31.9132 11.3801 31.6581 11.1823 31.4603C10.3576 30.6357 9.58091 29.7013 8.90206 28.751C8.41348 28.0669 7.96613 27.3756 7.68295 26.5792C7.54672 26.196 7.37076 25.8514 7.20427 25.4827C7.10469 25.2622 7.04547 25.0268 6.87415 24.8555" stroke="black" stroke-width="0.467313" stroke-linecap="round"/>
<path d="M6.66187 24.8134C6.62531 24.3381 6.61942 23.8673 6.61942 23.3892C6.61942 22.6808 6.39502 21.9426 6.23506 21.2528C5.80716 19.4075 5.55886 17.5221 5.48285 15.6312C5.42513 14.1954 5.46778 12.7482 5.47341 11.3113C5.47801 10.1381 5.68564 8.98651 5.68564 7.8096C5.68564 7.20404 5.81297 6.61042 5.81297 6.01042C5.81297 5.81618 5.74073 5.78555 5.89786 5.62842" stroke="black" stroke-width="0.467313" stroke-linecap="round"/>
<path d="M7.34106 25.068C7.32819 24.6173 7.03349 24.1807 6.85531 23.7758C6.76564 23.572 6.68649 23.3646 6.59828 23.1603C6.58205 23.1227 6.44888 22.6715 6.41671 22.6675C6.37452 22.6622 6.48148 23.0956 6.48274 23.1014C6.55547 23.436 6.62189 23.796 6.66195 24.1366C6.69497 24.4173 6.74462 24.6476 6.85531 24.9006C6.99849 25.2278 7.14246 25.6336 7.34106 25.9263C7.53866 26.2175 7.28548 25.5595 7.25617 25.483C7.18096 25.2866 6.91647 24.733 7.06517 24.8817C7.28984 25.1064 7.44589 25.4948 7.59809 25.7707C7.77246 26.0867 7.8256 26.3755 7.92586 26.7139C8.06598 27.1868 7.3694 25.892 7.176 25.4382C6.64826 24.2 6.48036 22.867 6.10073 21.5875C5.63683 20.024 4.94063 18.4504 4.88163 16.7983C4.86031 16.2015 4.71829 15.6501 4.76137 15.0416C4.79468 14.571 4.78219 14.0446 4.96416 13.6079" stroke="black" stroke-width="0.467313" stroke-linecap="round"/>
<path d="M5.0066 13.5655C5.0066 13.1489 5.0066 12.7323 5.0066 12.3158C5.0066 12.2526 5.02838 11.8635 5.04669 12.1106C5.08682 12.6523 5.1191 13.2016 5.13158 13.7447C5.16156 15.0489 5.09149 16.3575 5.09149 17.6638C5.09149 17.9352 5.05495 18.2393 5.11507 18.5056C5.16306 18.7181 5.28522 18.9202 5.36738 19.1211C5.5799 19.6405 5.48732 18.9104 5.45227 18.7391C5.34308 18.2052 5.26127 17.6663 5.26127 17.1214C5.26127 15.9569 5.19845 14.8116 5.13394 13.6504" stroke="black" stroke-width="0.467313" stroke-linecap="round"/>
<path d="M11.7976 11.1885C11.7952 11.205 11.3775 10.8132 11.3142 10.7452C11.0664 10.479 10.844 10.1743 10.6115 9.89393C10.054 9.22171 9.38868 8.60982 8.76985 7.99099C8.25089 7.47202 7.73764 6.93468 7.31966 6.33093C7.07289 5.97449 6.81594 5.51637 6.47076 5.24623C6.43737 5.22009 6.12321 4.94594 6.24675 5.1189C6.45683 5.41301 6.66163 5.70957 6.86927 6.00552C7.19534 6.47027 7.50781 6.94143 7.88323 7.36847C8.17037 7.69509 8.49033 8.01925 8.70854 8.39657C9.19045 9.22987 9.89702 9.89044 10.5761 10.5613C11.0682 11.0474 11.5885 11.5188 12.1277 11.9525C12.2419 12.0443 12.357 12.1252 12.4578 12.226C12.5527 12.3209 12.1506 12.0642 12.1112 12.0327C11.2984 11.3824 10.5367 10.6581 9.82625 9.89864C9.54603 9.59909 9.22445 9.33838 8.95849 9.02617C8.69091 8.71205 8.43391 8.40421 8.12375 8.13011C7.76618 7.81412 7.47534 7.47775 7.21826 7.07607C7.11499 6.91471 7.02157 6.75027 6.90228 6.59974C6.89081 6.58527 6.7932 6.4435 6.88106 6.53136C7.6298 7.28011 8.43092 7.96955 9.06225 8.82573C9.29083 9.13572 9.5934 9.36337 9.84512 9.65105C10.0435 9.87781 10.2263 10.1266 10.4393 10.3396C10.7331 10.6334 11.1907 10.7761 11.5193 11.0376C11.9212 11.3572 12.3476 11.6245 12.7738 11.9101C12.9728 12.0434 13.3882 12.2052 13.4954 12.4194" stroke="black" stroke-width="0.467313" stroke-linecap="round"/>
</svg>
