<svg width="36" height="38" viewBox="0 0 36 38" fill="none" xmlns="http://www.w3.org/2000/svg">
<rect x="-0.519772" y="0.519772" width="34.305" height="35.8643" rx="4.67795" transform="matrix(-1 0 0 1 34.6829 0.750488)" fill="white" stroke="#F32D12" stroke-width="1.03954"/>
<path d="M3.55927 19.6418C4.02963 20.2688 5.06628 20.1467 5.87559 20.1467C5.95912 20.2777 6.46295 20.2541 7.222 20.1636C8.24946 20.0411 8.45605 19.9738 8.74007 19.9738C10.2229 19.9738 9.84877 19.7246 11.331 20.0976C12.8824 20.488 14.2035 19.7967 17.484 19.6418C19.936 19.025 20.3155 18.7668 22.0233 18.0762C24.091 17.2401 24.5537 19.1488 23.3016 20.0976C21.843 21.203 21.8336 21.1124 21.3117 21.4919C20.5578 22.0403 20.4767 21.8596 20.6052 22.0612C20.8405 22.4301 21.173 22.711 21.3117 23.134C21.4814 23.6512 21.8691 24.1481 22.1792 24.617C22.6403 25.3141 23.152 25.9804 23.6281 26.6679C23.8928 27.0502 24.3231 27.4064 24.3525 27.8669C24.3694 28.1318 24.6548 27.8204 24.7549 27.7267C25.1183 27.3864 24.2647 27.7911 24.7549 27.5749C25.8562 27.0893 27.0264 26.6022 28.0729 26.0464C28.7121 25.7069 29.4015 25.4509 30.0225 25.0858C30.321 24.9103 29.1658 25.4034 28.2131 25.8277C28.6761 25.5693 29.1758 25.2644 29.6481 24.9862C29.4205 25.1495 29.4879 25.1557 29.6718 25.0923C29.5977 25.1457 29.5278 25.1952 29.4633 25.236C29.195 25.4057 29.5089 25.2354 29.932 24.9906C30.3203 24.8269 30.8221 24.5769 30.7511 24.5769C30.703 24.5769 30.6548 24.5816 30.6068 24.5901C31.0086 24.344 31.2821 24.1571 30.9837 24.2782C30.6201 24.4258 30.1495 24.691 29.6481 24.9862C29.8066 24.8726 30.1079 24.6829 30.6125 24.3876C29.4156 23.1711 28.1794 21.9954 27.071 20.7275C26.4759 20.0468 26.0129 19.2839 25.5774 18.5328C25.4881 18.3787 25.4063 18.2281 25.339 18.0762C25.1493 15.9889 24.2299 14.584 23.3016 14.1797C22.4251 13.7979 21.4653 13.5421 20.6052 13.142C19.9194 12.8229 19.2009 12.5059 18.5482 12.1463C18.5309 12.1368 18.1994 11.9305 18.1994 12.0376C18.1994 12.154 17.0911 12.1232 16.8848 12.1463C14.9285 12.3654 12.7863 12.3254 10.8391 12.0201C10.0868 11.9021 6.6151 14.8064 5.87559 14.6776C5.84725 14.6727 5.91367 14.7249 6.04204 14.8138C5.20761 15.3252 4.3756 16.0797 3.66212 17.3385C3.50409 17.5577 3.11133 17.849 3.06292 18.0958C3.01689 18.3303 3.08197 18.5601 3.13447 18.7864C3.20611 19.0953 3.35161 19.3651 3.55927 19.6418Z" fill="#F32D12" stroke="#F32D12" stroke-width="0.759044" stroke-linecap="round"/>
<path d="M11.0171 12.0689C11.0171 11.8731 10.8827 11.7012 10.752 11.5569C10.4868 11.2639 10.1423 11.0526 9.74722 10.956C9.52223 10.901 9.29464 10.8645 9.0619 10.8652C8.83013 10.8659 8.63302 10.9457 8.43704 11.0601C8.15387 11.2255 7.91867 11.4971 7.79001 11.7871C7.61508 12.1814 7.56489 12.6269 7.62675 13.049C7.64978 13.2062 7.69417 13.3885 7.788 13.5219" stroke="#F32D12" stroke-width="0.759044" stroke-linecap="round"/>
<path d="M20.1576 13.6312C20.1856 13.6673 20.1826 13.6285 20.1721 13.5879C20.3849 12.9565 20.2511 13.4998 20.3982 13.067C20.5404 12.6484 20.5435 12.0932 20.3909 11.6786C20.1514 11.0282 19.5283 10.3668 18.8594 10.193C17.6331 9.87426 16.2553 10.4621 15.5663 11.5253C15.2714 11.9804 15.1703 12.4841 15.1955 13.0271C15.219 13.5313 15.32 14.0483 15.6293 14.4542C15.9068 14.8183 16.3433 15.0638 16.7609 15.2157C17.094 15.3368 17.4519 15.4358 17.8078 15.4176C18.1567 15.3998 18.4504 15.2944 18.7673 15.1534C19.0271 15.0378 19.2989 14.9568 19.5294 14.7832C19.7823 14.5928 19.9961 14.3645 20.105 14.0541C20.1617 13.8924 20.1413 13.7072 20.1413 13.5394C20.1413 13.4994 20.161 13.5447 20.1721 13.5879C20.1674 13.6017 20.1626 13.6162 20.1576 13.6312Z" fill="white" stroke="#F32D12" stroke-width="0.379522" stroke-linecap="round"/>
<path d="M20.1257 13.5221C20.1205 13.3351 20.0754 13.1433 19.9952 12.9749C19.8854 12.7445 19.7402 12.5209 19.5343 12.3722C19.311 12.2108 19.0476 12.0922 18.7966 11.9861C18.3957 11.8167 18.0082 11.664 17.5712 11.6356C17.3646 11.6221 17.1409 11.6139 16.9366 11.6539C16.7617 11.6881 16.5817 11.7884 16.426 11.8741C16.2081 11.9942 15.9979 12.1688 15.8479 12.3732C15.7933 12.4475 15.7449 12.5287 15.6934 12.6055C15.6468 12.6751 15.5879 12.7503 15.5715 12.8347" stroke="#F32D12" stroke-width="0.379522" stroke-linecap="round"/>
<path d="M20.1257 13.1391C19.6905 13.1391 19.2552 13.1391 18.8199 13.1391C18.4985 13.1391 18.1734 13.1533 17.8532 13.1223C17.49 13.0871 17.1184 13.0497 16.7668 12.9498C16.5422 12.8859 16.3089 12.8573 16.0871 12.7849C15.8457 12.7061 15.6078 12.6258 15.3812 12.5131C15.3556 12.5003 15.1634 12.3993 15.1956 12.3833" stroke="#F32D12" stroke-width="0.379522" stroke-linecap="round"/>
<path d="M17.7931 12.0351C17.7931 12.1326 17.7946 12.2303 17.7931 12.3278C17.7909 12.4691 17.7255 12.5718 17.6567 12.6821C17.5565 12.8428 17.3533 12.9243 17.1979 12.9617C16.9981 13.0098 16.7987 13.0089 16.6182 12.8834C16.4752 12.784 16.3615 12.5844 16.3454 12.3837C16.3388 12.3003 16.3084 12.0907 16.3594 12.022C16.3957 11.9732 16.4399 11.9334 16.4787 11.8878C16.5756 11.7739 16.7134 11.7116 16.8414 11.6622C16.9051 11.6375 16.9843 11.6323 17.0507 11.6323C17.1498 11.6323 17.2658 11.6125 17.3638 11.6361C17.571 11.6859 17.815 11.8244 17.8737 12.0929C17.9059 12.2399 17.914 12.4694 17.8737 12.6093C17.8594 12.6592 17.8101 12.7715 17.8691 12.7734C17.9371 12.7757 18.0009 12.8127 18.069 12.82C18.2101 12.8352 18.3536 12.8255 18.4953 12.8368C18.6966 12.8528 18.8996 12.8355 19.1013 12.8405C19.1905 12.8428 19.2969 12.8466 19.3834 12.8704C19.4132 12.8786 19.4427 12.8648 19.4671 12.8909C19.4909 12.9163 19.5119 12.9161 19.4717 12.8797C19.2493 12.6779 19.0835 12.4036 18.8316 12.2495C18.6462 12.136 18.0305 11.9793 18.2287 12.0556C18.4929 12.1573 18.7363 12.3519 18.9758 12.5217C19.0806 12.5961 19.1824 12.6758 19.2858 12.7529C19.3409 12.7941 19.4024 12.8231 19.45 12.8778C19.4986 12.9336 19.5299 12.9943 19.5926 13.0121C19.6302 13.0227 19.6606 13.0495 19.605 12.9972C19.4055 12.809 19.2091 12.6168 19.0037 12.4378C18.7476 12.2147 18.5049 12.0226 18.1977 11.9381C18.0986 11.9109 18.1984 11.9317 18.2457 11.9549C18.4485 12.0544 18.6338 12.2323 18.8146 12.3781C19.012 12.5374 19.2011 12.7088 19.4035 12.8592C19.5198 12.9455 19.6482 13.0248 19.7461 13.1426" stroke="#F32D12" stroke-width="0.379522" stroke-linecap="round"/>
<path d="M17.6304 11.6356C17.5865 11.6356 17.4824 11.6149 17.4581 11.6524C17.4198 11.7116 17.3592 11.7516 17.2933 11.7704" stroke="#F32D12" stroke-width="0.759044" stroke-linecap="round"/>
<path d="M10.0656 11.2451C10.0506 11.2516 10.0579 11.2923 10.0579 11.3022C10.0579 11.5142 10.0353 11.7347 9.98376 11.9417C9.94208 12.1091 9.84241 12.2645 9.74218 12.4102C9.63734 12.5625 9.52548 12.7131 9.39409 12.8493C9.15956 13.0924 8.89675 13.3009 8.55985 13.4309C8.40387 13.4911 8.21832 13.5359 8.04602 13.5184C8.03271 13.5171 7.95377 13.5112 7.99063 13.4869C8.16769 13.3703 8.35978 13.274 8.53429 13.1531C8.75756 12.9983 8.94124 12.8143 9.12311 12.6234C9.21042 12.5318 9.28901 12.4389 9.35404 12.3341C9.45656 12.1689 9.55463 11.9893 9.61138 11.8074C9.64562 11.6977 9.6591 11.5805 9.6591 11.4669C9.6591 11.442 9.66809 11.3431 9.63652 11.3293C9.62178 11.3229 9.63609 11.358 9.63609 11.3723C9.63609 11.4622 9.63198 11.5517 9.61479 11.6405C9.58501 11.7942 9.51759 11.9407 9.44181 12.0812C9.35122 12.2491 9.2513 12.4192 9.13632 12.5756C8.98457 12.782 8.80233 12.9318 8.53727 13.0166C8.42538 13.0524 8.31079 13.0674 8.19557 13.0908C8.18598 13.0927 8.17378 13.1065 8.16787 13.0997C8.15549 13.0853 8.25953 13.0197 8.26629 13.0144C8.52734 12.8093 8.76696 12.5893 8.94331 12.3226C9.12117 12.0537 9.20186 11.7633 9.30461 11.4699C9.31402 11.443 9.30681 11.3214 9.35404 11.3186C9.4639 11.312 9.57338 11.3037 9.68381 11.3056C9.82072 11.3079 9.94747 11.3516 10.066 11.4091C10.2232 11.4853 10.3787 11.5525 10.5249 11.6457C10.6304 11.713 10.7137 11.7893 10.8052 11.869C10.8409 11.9001 10.8827 11.9236 10.9185 11.9543C10.929 11.9633 10.995 12.0343 11.0148 12.03C11.0208 12.0287 11.0134 12.0191 11.0106 12.0144C10.9986 11.9943 10.9798 11.9763 10.962 11.9602C10.8907 11.8958 10.8032 11.8413 10.7038 11.8156C10.5126 11.7662 10.3768 11.8869 10.2283 11.9728C10.1737 12.0045 10.1186 12.034 10.0605 12.0604C10.0518 12.0643 10.0249 12.0791 10.0519 12.0797C10.1227 12.0811 10.1766 12.0432 10.2266 12.0047C10.2819 11.9623 10.2753 11.9353 10.2709 11.8697C10.2686 11.8346 10.2703 11.7274 10.2189 11.7125" stroke="#F32D12" stroke-width="0.759044" stroke-linecap="round"/>
<path d="M22.0232 13.9019C22.07 13.9668 22.1529 14.0271 22.2343 14.0866C22.3918 14.2019 22.5643 14.3154 22.7525 14.4238C23.065 14.6037 23.4069 14.7686 23.8414 14.908C23.9811 14.9528 24.138 15.0096 24.3003 15.0404" stroke="#F32D12" stroke-width="0.759044" stroke-linecap="round"/>
<path d="M8.42438 23.0103C8.91153 23.4467 9.16796 24.1593 9.40507 24.751C9.66674 25.4039 9.91743 26.0462 10.2111 26.6848C10.5103 27.3354 10.578 28.1089 10.6861 28.8086C10.7415 29.1674 10.7898 29.5282 10.8761 29.8812C10.9084 30.0132 10.9375 30.1858 11.0171 30.2919" stroke="#F32D12" stroke-width="0.759044" stroke-linecap="round"/>
<path d="M10.573 29.3364C10.573 29.8389 9.84999 30.3051 9.47665 30.5552C9.18259 30.7521 8.87364 30.9342 8.5719 31.1193C8.47525 31.1786 8.43248 31.2045 8.32176 31.2045" stroke="#F32D12" stroke-width="0.759044" stroke-linecap="round"/>
<path d="M22.4029 14.2812C22.8021 14.8845 23.3658 15.4014 23.9113 15.9314C24.2697 16.2796 24.7151 16.5743 25.064 16.9258C25.2012 17.064 25.3293 17.2066 25.4747 17.34C25.6804 17.5287 25.7456 17.7061 25.7741 17.9498C25.8401 18.5151 25.8132 19.0865 25.8132 19.6534C25.8132 19.8806 25.8189 20.1082 25.8117 20.3353C25.8066 20.4973 25.7464 20.5918 25.657 20.7331" stroke="#F32D12" stroke-width="0.759044" stroke-linecap="round"/>
<path d="M7.44141 13.4731C7.34187 13.4874 7.23929 13.5787 7.15413 13.6282C7.03468 13.6977 6.91416 13.7684 6.7983 13.8437C6.67988 13.9206 6.56491 14.0152 6.45634 14.1056C6.35853 14.1872 6.23242 14.2384 6.11928 14.2958C5.94378 14.3848 5.77994 14.5092 5.60838 14.6076C5.2949 14.7872 5.00251 15.0367 4.7237 15.2654C4.43059 15.5058 4.17738 15.8247 3.92389 16.106C3.69058 16.3649 3.42263 16.587 3.25467 16.8993C3.07131 17.2401 2.93154 17.5844 2.98208 17.9798C3.05696 18.5657 3.66498 18.8725 4.07732 19.2024" stroke="#F32D12" stroke-width="0.759044" stroke-linecap="round"/>
<path d="M11.4719 12.0913C11.4719 12.2718 11.4907 12.4611 11.437 12.6355C11.391 12.7851 11.2552 12.9325 11.1485 13.0422C10.9624 13.2336 10.7409 13.4402 10.4958 13.5516C10.3205 13.6313 10.1393 13.7017 9.95548 13.7588C9.78697 13.8111 9.62219 13.887 9.45 13.9215" stroke="white" stroke-width="0.379522" stroke-linecap="round"/>
<path d="M22.5053 13.9561C22.8405 14.2913 23.0798 14.6837 23.3003 15.0997C23.4545 15.3904 23.6378 15.7085 23.9346 15.8734" stroke="white" stroke-width="0.379522" stroke-linecap="round"/>
<path d="M21.843 14.6533C22.0535 14.6991 22.1547 15.0165 22.2429 15.184C22.2901 15.2736 22.3331 15.3581 22.3988 15.4357C22.4313 15.4741 22.4583 15.5111 22.4705 15.5597" stroke="white" stroke-width="0.379522" stroke-linecap="round"/>
<path d="M20.9712 15.3328C20.391 15.3895 19.8337 15.57 19.2514 15.6116C19.0173 15.6284 18.7824 15.6481 18.5513 15.5942C18.332 15.543 18.1183 15.461 17.9103 15.3754C17.6415 15.2647 17.4116 15.1198 17.2063 14.9144C17.1382 14.8464 17.0631 14.7121 16.9797 14.6704" stroke="white" stroke-width="0.379522" stroke-linecap="round"/>
<path d="M6.98999 13.1914C6.98999 13.4406 6.92203 13.7008 6.86125 13.9416C6.77071 14.3003 6.72918 14.6731 6.58891 15.0186C6.47048 15.3102 6.33265 15.5983 6.19277 15.8802C5.98705 16.2947 5.70661 16.6353 5.45002 17.0166C5.15446 17.4557 4.83553 17.8579 4.4993 18.2669C4.21235 18.6159 3.94411 18.9673 3.61791 19.282C3.31029 19.5787 2.96664 19.8092 2.57311 19.9702C2.42542 20.0306 2.27737 20.0897 2.12622 20.1411C2.0456 20.1684 1.94533 20.1771 1.87121 20.2203C1.80868 20.2568 1.99876 20.1508 2.0569 20.1076C2.32669 19.9075 2.58424 19.7197 2.82069 19.4763C3.07603 19.2135 3.31862 18.9242 3.54611 18.637C3.80022 18.3162 3.98765 17.9521 4.23687 17.6281C4.45922 17.339 4.70184 17.0372 4.88553 16.7219C5.05813 16.4257 5.21814 16.1214 5.39555 15.8282C5.49744 15.6598 5.62251 15.4986 5.70503 15.3194C5.76303 15.1934 5.80062 15.0578 5.85358 14.9294C5.97093 14.6451 6.05897 14.3489 6.14202 14.053C6.18329 13.9059 6.19807 13.7106 6.26581 13.5752C6.27726 13.5523 6.27695 13.6735 6.27695 13.6791C6.27695 13.8512 6.27695 14.0233 6.27695 14.1954C6.27695 14.5709 6.24097 14.8788 6.10859 15.2303C6.00339 15.5096 5.86666 15.7925 5.69884 16.0398C5.32184 16.5954 5.00148 17.1967 4.58348 17.7234C4.27523 18.1118 3.99398 18.5168 3.60305 18.8239C3.4391 18.9527 3.11669 19.051 3.05094 19.2745C3.04524 19.2939 3.01672 19.3499 3.04847 19.3154C3.21723 19.1319 3.37333 18.9378 3.53373 18.7472C4.0165 18.1733 4.4685 17.5881 4.90163 16.9757C5.27866 16.4427 5.6393 15.9005 5.98852 15.3491C6.25712 14.925 6.58457 14.379 6.61119 13.8599C6.61612 13.7637 6.65356 13.6719 6.65575 13.5752C6.65794 13.479 6.62353 13.5281 6.56662 13.4712C6.45688 13.3614 6.50492 13.382 6.46264 13.5405C6.39748 13.7848 6.23477 14.0146 6.10736 14.2288C5.89612 14.5839 5.65964 14.9219 5.42774 15.2637C4.82853 16.1467 4.18774 17.0005 3.59315 17.8856C3.3479 18.2507 3.08568 18.6094 2.8603 18.9873C2.83954 19.0221 2.69411 19.3389 2.65605 19.3389C2.57971 19.3389 2.99057 18.6403 2.99895 18.6271C3.42021 17.9626 3.82883 17.2856 4.27896 16.6402C4.87514 15.7855 5.47817 14.9443 5.80407 13.9416C5.88089 13.7052 5.73464 14.073 5.70999 14.1198C5.40957 14.6903 5.04333 15.2292 4.65281 15.7415C3.84727 16.7984 2.88247 17.7633 2.2463 18.9378C2.20628 19.0117 2.16921 19.0876 2.13241 19.1631C2.12498 19.1784 2.10169 19.2497 2.11384 19.1829C2.15557 18.9534 2.27431 18.734 2.37504 18.5268C2.59576 18.0729 2.83359 17.6273 3.09179 17.1936C3.66596 16.2292 4.29427 15.2974 4.87315 14.3365C5.01459 14.1017 5.18855 13.877 5.3188 13.6371C5.70796 12.9202 4.53319 15.0692 4.20468 15.8158C4.02927 16.2145 3.87922 16.6235 3.69713 17.019C3.6911 17.0322 3.67835 17.0702 3.67485 17.0562C3.66263 17.0073 3.73708 16.8765 3.75036 16.8494C3.95491 16.4325 4.18454 16.0181 4.42379 15.6202C4.6266 15.2829 4.88978 14.9561 5.05018 14.5952C5.0782 14.5321 5.11505 14.3254 5.17273 14.287C5.23152 14.2478 5.09341 14.4041 5.04894 14.459C4.86383 14.6876 4.67614 14.9126 4.50178 15.1498C3.98682 15.8503 3.56141 16.6061 3.18464 17.3879C2.9903 17.7912 2.80833 18.1996 2.64986 18.6184C2.62056 18.6958 2.56716 18.8274 2.68204 18.6977C2.97614 18.3656 3.24403 18.0154 3.48174 17.6405C3.71938 17.2656 3.93321 16.8514 4.21335 16.5053C4.23315 16.4808 4.28343 16.4361 4.25667 16.5041C4.17644 16.7077 4.09128 16.9111 4.00414 17.1119C3.78094 17.6261 3.49366 18.1408 3.327 18.6778C3.29435 18.7831 3.35336 18.6345 3.36042 18.6209C3.53746 18.2795 3.74721 17.9513 3.94719 17.6231C4.30533 17.0355 4.63463 16.4142 5.02666 15.848C5.17451 15.6344 4.97626 16.1104 4.96228 16.1376C4.6104 16.8241 4.18441 17.4847 3.73303 18.1096C3.60911 18.2812 3.46291 18.4342 3.32576 18.5949C3.25241 18.6808 3.1574 18.7983 3.1574 18.918C3.1574 19.0419 3.12705 19.1041 3.26882 19.0963C3.4146 19.0882 3.55197 18.6977 3.60058 18.606C3.68063 18.455 3.76332 18.3059 3.85311 18.1604C3.87365 18.1271 3.93481 18.0371 3.93481 18.0762C3.93481 18.1456 3.87985 18.2161 3.85311 18.2768C3.79917 18.399 3.75286 18.5293 3.71694 18.658C3.67382 18.8126 3.61538 18.9924 3.60429 19.1532C3.57616 19.5611 3.8772 19.913 4.1205 20.2104C4.18892 20.294 4.47475 20.6682 4.27153 20.3614C3.94285 19.8653 3.79997 19.2317 3.88035 18.6407C3.90159 18.4845 3.93435 18.2562 4.02642 18.1208C4.05019 18.0858 4.0489 18.2036 4.04746 18.2458C4.04102 18.4359 4.00893 18.6236 3.98186 18.8115C3.93561 19.1325 3.88914 19.4666 3.91996 19.792C3.93321 19.9318 3.99979 20.0234 4.05984 20.1435C4.11935 20.2626 4.25259 20.3097 4.31609 20.4208C4.33269 20.4499 4.30503 20.4239 4.27648 20.4085C4.12506 20.3265 4.004 20.2145 3.89273 20.0841C3.70384 19.8628 3.56492 19.6078 3.55849 19.3117C3.55144 18.9873 3.53106 19.9603 3.53621 20.2847C3.53705 20.3377 3.63727 20.4626 3.59315 20.4332C3.44524 20.3346 3.33426 20.0618 3.27129 19.9009C3.26956 19.8965 3.21127 19.7387 3.23415 19.74C3.28043 19.7425 3.38024 19.8964 3.40622 19.9257C3.57548 20.1161 3.73156 20.3294 3.93481 20.4864C4.00207 20.5384 3.96929 20.509 3.92739 20.4629C3.82264 20.3477 3.71007 20.2416 3.59563 20.1361C3.51745 20.0641 3.43559 19.9957 3.36785 19.9133C3.35212 19.8942 3.32389 19.8404 3.36166 19.8947C3.42304 19.9829 3.49598 20.1815 3.58944 20.2376C3.59811 20.2428 3.58743 20.2171 3.58325 20.2079C3.53434 20.1003 3.47346 19.9976 3.42232 19.891C3.26527 19.5637 3.12227 19.2279 3.0039 18.8846C2.70432 18.0158 2.54067 16.9915 2.92963 16.1277C3.01306 15.9424 3.10121 15.7418 3.2193 15.5756C3.32579 15.4258 3.28945 15.5715 3.25396 15.6895C3.09891 16.2052 2.86795 16.7031 2.66719 17.2023C2.61867 17.3229 2.57264 17.4446 2.52359 17.565C2.51805 17.5786 2.47121 17.672 2.51369 17.6083C2.70318 17.324 2.86472 17.0211 3.04228 16.7294C3.13718 16.5735 3.25121 16.4447 3.35795 16.2998C3.51472 16.0871 3.66947 15.8773 3.82093 15.6573C3.83032 15.6437 3.93036 15.4674 3.85559 15.5286C3.73174 15.6299 3.63538 15.7779 3.53497 15.9C3.40048 16.0635 3.25875 16.2236 3.1376 16.3976C3.12603 16.4142 3.03067 16.5347 3.05342 16.566C3.11344 16.6485 3.39912 16.5619 3.45945 16.5437C4.22416 16.3129 4.81363 15.7537 5.3708 15.2104C5.52686 15.0583 5.67276 14.8794 5.85235 14.7537C5.88543 14.7305 5.93375 14.6984 5.97614 14.7079C6.1122 14.7381 5.90984 15.6399 5.8932 15.7366C5.83009 16.1031 5.87023 16.5436 5.45745 16.6898C5.00864 16.8487 5.08772 15.1646 5.17644 14.9332C5.20229 14.8657 5.32095 14.5869 5.41041 14.5742C5.51676 14.559 5.57383 14.6251 5.606 14.7239C5.7233 15.0842 5.53787 15.5535 5.3089 15.8257C5.19308 15.9634 5.00913 16.1347 4.82364 16.1723C4.69222 16.1989 4.53879 16.1773 4.40522 16.1773" stroke="white" stroke-width="0.379522" stroke-linecap="round"/>
<path d="M20.751 12.5835C20.7716 12.6133 20.7589 12.6005 20.8143 12.6234C20.9881 12.6952 21.1591 12.7644 21.3271 12.8499C21.9132 13.1479 22.4313 13.5653 22.9523 13.9611C23.7198 14.5441 24.4877 15.1286 25.23 15.7436C25.4687 15.9413 25.71 16.1341 25.9634 16.3127C26.2478 16.5132 26.5084 16.7469 26.7918 16.9464C26.8362 16.9776 26.9229 17.011 26.9397 17.0614" stroke="#F32D12" stroke-width="0.759044" stroke-linecap="round"/>
<path d="M27.0034 17.3779C26.9837 18.5031 26.4892 19.5547 26.4167 20.6753C26.4102 20.776 26.412 21.079 26.412 20.978C26.412 20.5226 26.4267 20.0649 26.4073 19.6098C26.3875 19.1463 26.2853 18.6858 26.2853 18.2228C26.2853 17.8944 26.1793 17.6672 25.9896 17.4108C25.806 17.1627 25.6483 16.9217 25.4287 16.702C25.3544 16.6277 25.2791 16.5483 25.2092 16.4697C25.0826 16.3272 25.3158 16.5026 25.3536 16.5307C25.6582 16.7576 25.941 17.0118 26.2383 17.2477C26.3726 17.3542 26.4931 17.4902 26.6443 17.5727C26.6916 17.5985 26.9585 17.8452 26.9823 17.8215" stroke="#F32D12" stroke-width="0.759044" stroke-linecap="round"/>
<path d="M27.2832 17.0557C27.2832 17.3798 27.2832 17.7039 27.2832 18.0281C27.2832 18.2944 27.2754 18.5623 27.2896 18.8284C27.3102 19.2137 27.4108 19.5826 27.5534 19.9399C27.7132 20.3402 27.9208 20.7198 28.1181 21.1022C28.3385 21.5293 28.5462 21.9602 28.8049 22.3665C29.1175 22.8574 29.4839 23.3207 29.865 23.7604C30.0506 23.9746 30.2782 24.1498 30.4538 24.3741C30.5147 24.452 30.4188 24.3489 30.4071 24.3379C30.2096 24.1518 30.0071 23.9711 29.8312 23.7636C29.3926 23.2462 29.1019 22.6121 28.7277 22.0488C28.5033 21.711 28.3184 21.3642 28.1808 20.9823C28.101 20.7608 28.0423 20.5232 27.9347 20.3139C27.7866 20.026 27.5864 19.7835 27.3524 19.5603C27.1853 19.4009 27.0138 19.2475 26.8505 19.0841C26.8316 19.0652 26.8127 19.0403 26.7909 19.0246C26.7773 19.0148 26.7817 19.2483 26.7829 19.2627C26.8228 19.727 26.9821 20.1992 27.1601 20.6276C27.2762 20.9069 27.4405 21.1907 27.6821 21.3813C27.7555 21.4391 27.6673 21.2814 27.6652 21.2775C27.5029 20.9684 27.3179 20.6729 27.1786 20.3517C26.9967 19.9321 26.8901 19.4952 26.9357 19.0391" stroke="#F32D12" stroke-width="0.759044" stroke-linecap="round"/>
<path d="M20.7312 12.5205C20.7927 12.5205 20.8535 12.5342 20.9132 12.5478C21.2586 12.6263 21.5933 12.7436 21.9198 12.8799C22.79 13.2431 23.6154 13.6931 24.5004 14.0218C24.9882 14.203 25.4542 14.4134 25.9153 14.6542C26.2722 14.8405 26.6256 15.0426 26.9935 15.2069C27.3745 15.3771 27.7583 15.5307 28.1502 15.6732C28.4936 15.7981 28.8512 15.9172 29.1726 16.0929C29.358 16.1942 29.5305 16.3264 29.7186 16.4205C29.7245 16.4234 29.8229 16.4813 29.7891 16.491C29.4501 16.5878 29.1403 16.789 28.8087 16.922C28.2943 17.1283 27.767 17.2465 27.2119 17.2655C27.0421 17.2713 26.307 17.34 26.2838 17.029C26.2767 16.9337 26.4513 16.8673 26.5113 16.8402C26.7638 16.7258 27.0305 16.6845 27.3051 16.6684C27.7026 16.6452 28.0789 16.6624 28.4698 16.7276C28.5909 16.7478 28.7235 16.7736 28.8474 16.7571C28.8973 16.7505 28.9417 16.7091 28.9918 16.698C29.0661 16.6815 29.1712 16.6242 29.0748 16.5331C28.914 16.3809 28.5582 16.4016 28.3594 16.3909C27.9805 16.3704 27.6084 16.3376 27.2392 16.2453C27.0256 16.1919 26.8086 16.1396 26.6022 16.0622C26.3133 15.9539 26.0844 15.7588 25.8448 15.5709C25.2439 15.0997 24.5549 14.7607 23.9454 14.3016C23.8482 14.2284 23.7501 14.1436 23.6406 14.0889C23.6173 14.0773 23.5892 14.0677 23.636 14.0855C23.8376 14.162 24.0273 14.286 24.2138 14.3914C24.8961 14.7772 25.5567 15.2055 26.2462 15.5777C26.5263 15.7289 26.7859 15.8045 27.089 15.8791C27.4084 15.9577 27.7161 16.107 28.0398 16.16C28.1678 16.181 28.3026 16.1989 28.4243 16.2465C28.489 16.2718 28.5046 16.3007 28.5721 16.2669" stroke="#F32D12" stroke-width="0.759044" stroke-linecap="round"/>
<path d="M29.7595 16.5332C29.7595 17.0614 29.738 17.5933 29.8254 18.1164C29.995 19.1313 30.5072 20.0406 31.2585 20.7414C31.566 21.0282 31.9028 21.2834 32.223 21.5557C32.4237 21.7265 32.6154 21.9132 32.8258 22.0721C32.8556 22.0946 33.0942 22.2255 33.0942 22.2757C33.0942 22.3366 32.5991 22.1763 32.5812 22.1699C31.869 21.9144 31.2669 21.2874 30.8684 20.6652C30.4964 20.0844 30.25 19.4332 29.8789 18.8534C29.6189 18.4472 29.4394 18.0008 29.1954 17.5864C29.1053 17.4334 29.0137 17.2299 28.9861 17.0541C28.9786 17.0062 28.9607 16.9073 29.0066 17.0154C29.1287 17.3033 29.1872 17.6325 29.2727 17.9321C29.4553 18.5721 29.6142 19.219 29.805 19.8565C29.931 20.2778 30.0677 20.7096 30.2986 21.0871C30.487 21.3952 30.7293 21.669 30.9833 21.9242C31.1767 22.1187 31.3745 22.3258 31.6031 22.4793C31.9561 22.7163 32.4771 22.8796 32.9099 22.8796C33.0204 22.8796 32.8417 22.8152 32.8201 22.8045C32.3544 22.5759 31.8755 22.3758 31.4041 22.1597C30.9621 21.957 30.5063 21.7575 30.1303 21.4431C29.8135 21.1783 29.5813 20.8645 29.3751 20.5094C28.9941 19.8535 28.8271 19.0848 28.7859 18.3325C28.7584 17.8296 28.7417 17.2505 28.9042 16.7629C28.9897 16.5063 28.8546 17.3018 28.8223 17.5705C28.763 18.0636 28.7316 18.5744 28.7836 19.0695C28.8591 19.7879 29.1265 20.386 29.6128 20.9188C30.2426 21.6089 31.065 22.1107 31.7987 22.6806C31.9198 22.7746 32.0437 22.87 32.1604 22.9695C32.1727 22.9799 32.2305 23.0167 32.2355 23.0343C32.2504 23.0865 32.1342 23.0617 32.1195 23.0604C31.6936 23.0239 31.2856 22.7999 30.9309 22.5782C29.7679 21.8513 28.8842 20.7855 28.3719 19.5199C28.1272 18.9154 27.9942 18.2793 27.8715 17.641C27.8321 17.4363 27.8372 17.2077 27.7782 17.0086C27.7393 16.8774 27.8479 17.2733 27.8783 17.4067C28.0188 18.0227 28.1204 18.6438 28.2195 19.2674C28.3456 20.0607 28.4738 20.865 29.1248 21.4067C29.7775 21.9498 30.5282 22.3655 31.1778 22.916C31.2448 22.9728 31.3286 23.0247 31.3847 23.0934C31.426 23.1438 31.1446 23.1121 31.1402 23.1116C30.6973 23.0648 30.2487 22.9346 29.838 22.7659C29.4691 22.6143 29.125 22.4146 28.8826 22.0914C28.6037 21.7196 28.502 21.2882 28.4311 20.8369C28.3462 20.2974 28.2988 19.7525 28.2332 19.2105C28.2032 18.9629 28.1626 18.7275 28.1626 18.4781C28.1626 18.4432 28.1637 18.3443 28.1422 18.4394C28.0852 18.6913 28.0487 18.9497 28.0193 19.206C27.9806 19.5434 27.9429 19.9086 28.0057 20.2455C28.0752 20.6185 28.2763 20.9622 28.5334 21.2373C29.157 21.9043 30.0377 22.277 30.6932 22.9137C30.7969 23.0144 30.9586 23.2526 31.1129 23.2697C31.2711 23.2873 31.3853 23.2718 31.5292 23.1969C31.5641 23.1788 31.6634 23.1164 31.6338 23.1423C31.4814 23.2757 31.3261 23.4056 31.1709 23.5359C30.9643 23.7093 30.7603 23.8858 30.5545 24.0602C30.5102 24.0977 30.4647 24.1334 30.4191 24.1694C30.3629 24.2138 30.5288 24.0771 30.5852 24.0329C30.915 23.7744 31.2626 23.5432 31.6202 23.3254C31.7657 23.2368 31.9243 23.1056 32.0888 23.0525C32.2034 23.0154 32.1455 23.109 32.1024 23.1639C31.9433 23.3667 31.7467 23.5448 31.5519 23.7121C31.4737 23.7793 31.3997 23.8431 31.3313 23.9191C31.2784 23.9779 31.459 23.8259 31.5201 23.7758C31.6927 23.6343 31.8487 23.4733 32.0137 23.3232C32.0722 23.2699 32.2263 23.1914 32.256 23.1173C32.288 23.0371 32.1763 23.2721 32.1217 23.3391C31.9289 23.5761 31.6961 23.7803 31.4746 23.9897C31.3994 24.0608 31.172 24.272 31.2505 24.2046C31.4155 24.0632 31.5974 23.9388 31.7658 23.8009C32.1776 23.4633 32.6247 23.1519 33.0965 22.916C33.105 22.9118 33.131 22.9024 33.1215 22.9024C33.1026 22.9024 33.0339 22.9445 33.0282 22.9478C32.7355 23.1194 32.4575 23.3194 32.1707 23.5006C31.7058 23.7943 31.2456 24.0698 30.7512 24.3081C30.6545 24.3548 30.6767 24.3186 30.6352 24.2467C30.4571 23.9379 30.3056 23.6083 30.0893 23.3232C29.9712 23.1675 30.1505 23.3369 30.219 23.3493C30.2906 23.3623 30.2004 23.2112 30.1985 23.2072C30.0082 22.8075 29.7846 22.4248 29.5912 22.0266C29.473 21.7835 29.3576 21.5381 29.2511 21.2896C29.2313 21.2434 29.2555 21.2698 29.2795 21.2941C29.373 21.3887 29.4594 21.4905 29.5422 21.5944C29.8135 21.9347 30.0776 22.2908 30.3134 22.6567C30.4281 22.8347 30.5401 23.0328 30.6102 23.2345C30.6322 23.2977 30.4832 23.2057 30.4715 23.1981C30.3438 23.1145 30.214 23.0274 30.0916 22.9365C29.7169 22.6581 29.4227 22.3797 29.2386 21.9493C28.7545 20.818 28.2105 19.7277 27.9079 18.5292C27.8204 18.1828 27.7143 17.7965 27.9283 17.4829C27.9528 17.4471 28.2138 17.0166 28.2946 17.0973C28.3231 17.1259 28.3059 17.2205 28.3059 17.2531C28.3059 17.4672 28.3117 17.6822 28.2934 17.8957C28.2904 17.9313 28.226 18.3592 28.2036 18.3143" stroke="#F32D12" stroke-width="0.759044" stroke-linecap="round"/>
<path d="M18.3928 12.5665C18.3928 12.5256 18.3883 12.5164 18.4368 12.5159C18.4911 12.5153 18.5494 12.5102 18.6018 12.5271C18.7065 12.5609 18.8054 12.6266 18.8885 12.6977C18.9017 12.709 18.9553 12.7489 18.9091 12.7567C18.8075 12.7738 18.6871 12.7357 18.5961 12.6949C18.4863 12.6455 18.3803 12.5839 18.2841 12.5112C18.2621 12.4946 18.2398 12.4712 18.2344 12.4428C18.2225 12.3793 18.2431 12.3113 18.2307 12.2479C18.226 12.2242 18.1988 12.1465 18.1988 12.2141C18.1988 12.3195 18.2251 12.4845 18.1651 12.5796C18.1617 12.5849 18.177 12.5757 18.1829 12.5735C18.2211 12.5593 18.2607 12.5479 18.3 12.5374C18.4666 12.493 18.6381 12.4746 18.8098 12.4625C18.9287 12.4541 19.0514 12.4482 19.1649 12.4906C19.2337 12.5163 19.2982 12.5537 19.3608 12.5918C19.4701 12.6583 19.5758 12.7256 19.6794 12.8007C19.7548 12.8555 19.8233 12.9251 19.8939 12.9863C19.9443 13.0298 20.0274 13.0745 20.0542 13.1381C20.0735 13.1838 20.0674 13.223 20.0729 13.2711C20.0799 13.3325 20.0947 13.3949 20.0963 13.4567C20.0969 13.4785 20.1006 13.5437 20.0963 13.5223C20.0884 13.4828 20.0407 13.4182 20.0101 13.393C19.9625 13.3536 19.907 13.3194 19.8518 13.2918C19.8186 13.2752 19.7744 13.2769 19.7384 13.2665C19.5985 13.2258 19.4451 13.232 19.3017 13.2224C19.0492 13.2056 18.7971 13.2243 18.5446 13.2243C18.3012 13.2243 18.0661 13.1982 17.8268 13.1531C17.6582 13.1213 17.4856 13.1171 17.318 13.0809C17.2402 13.0641 17.1706 13.0227 17.0922 13.005C17.0122 12.987 16.9329 12.9917 16.8523 12.9797C16.6077 12.9433 16.3821 12.8516 16.1429 12.7923C16.0568 12.771 15.9778 12.7388 15.8899 12.7248C15.8272 12.7149 15.7786 12.6853 15.7194 12.6658C15.6488 12.6425 15.5746 12.6063 15.5104 12.5684C15.495 12.5593 15.4594 12.5414 15.4514 12.5243C15.4455 12.5118 15.5009 12.4859 15.5085 12.4803C15.5988 12.4138 15.6945 12.361 15.7915 12.305C15.8881 12.2494 15.9825 12.1922 16.0802 12.1382C16.1671 12.0901 16.246 12.0295 16.335 11.9846C16.4308 11.9362 16.5227 11.9 16.6265 11.8731C16.7244 11.8477 16.8131 11.8027 16.9151 11.7925C17.0547 11.7785 17.1947 11.7822 17.3349 11.7822C17.4355 11.7822 17.5414 11.7882 17.6385 11.8178C17.7488 11.8514 17.8643 11.9134 17.9543 11.9846C17.9883 12.0115 18.02 12.0413 18.0536 12.0689C18.0671 12.08 18.0895 12.1044 18.0545 12.0848C17.9519 12.0276 17.8644 11.9652 17.7434 11.9527C17.6602 11.9442 17.5772 11.9359 17.4942 11.9274C17.2957 11.9071 17.0864 11.9255 16.887 11.9255C16.6801 11.9255 16.5028 12.0276 16.3341 12.1429C16.2254 12.2172 16.1121 12.2917 16.0117 12.3772C15.9438 12.4352 16.0222 12.3872 16.052 12.3669C16.1992 12.2667 16.3626 12.1827 16.5196 12.0989C16.6585 12.0248 16.8077 11.9718 16.9657 11.9611C17.082 11.9533 17.2004 11.9593 17.3171 11.9593C17.4272 11.9593 17.5351 11.9646 17.6422 11.9911C17.904 12.056 18.1436 12.1767 18.3656 12.3285C18.4555 12.3899 18.5523 12.4421 18.6411 12.5046C18.6498 12.5108 18.7717 12.6026 18.7179 12.6068C18.5078 12.6229 18.2799 12.5402 18.0873 12.4653C18.0367 12.4456 18.0274 12.4734 18.0152 12.5234C17.9915 12.62 18.0134 12.7153 18.0957 12.7754C18.1269 12.7982 18.1974 12.8345 18.2326 12.8111" stroke="#F32D12" stroke-width="0.379522" stroke-linecap="round"/>
<path d="M16.2759 12.6426C16.0783 12.6426 15.8806 12.651 15.6837 12.651C15.6074 12.651 15.5122 12.6337 15.456 12.6913C15.4313 12.7165 15.4058 12.739 15.3754 12.7569C15.3616 12.765 15.347 12.7545 15.3398 12.7691" stroke="#F32D12" stroke-width="0.379522" stroke-linecap="round"/>
<path d="M15.4156 12.3218C15.4341 12.3403 15.6051 12.199 15.618 12.1897C15.7501 12.0948 15.8871 12.008 16.0275 11.9259C16.1375 11.8617 16.2505 11.7919 16.3705 11.7484C16.4876 11.7059 16.6083 11.6722 16.727 11.6345C16.9534 11.5626 17.1735 11.4711 17.3956 11.3876C17.5702 11.322 17.761 11.3307 17.9372 11.3895C18.2057 11.479 18.4463 11.6376 18.6967 11.7652C18.858 11.8474 19.0143 11.9381 19.1732 12.0248C19.3182 12.1039 19.4667 12.1823 19.5996 12.2811C19.8365 12.4572 20.0225 12.6828 20.1599 12.944C20.2106 13.0403 20.2446 13.1488 20.2817 13.2509C20.3248 13.3692 20.3636 13.4868 20.3745 13.6122" stroke="#F32D12" stroke-width="0.379522" stroke-linecap="round"/>
<path d="M7.14577 13.0747C7.14577 13.1855 7.12777 13.3074 7.17143 13.4093C7.26037 13.6168 7.35261 13.8195 7.44611 14.0252C7.49991 14.1435 7.57122 14.2679 7.65521 14.3673C7.67179 14.3869 7.78372 14.5185 7.75786 14.4909C7.57421 14.2946 7.40803 14.0228 7.31115 13.7704C7.26205 13.6426 7.24021 13.506 7.19804 13.376C7.13874 13.1931 7.23452 13.4203 7.25887 13.4729C7.39597 13.7694 7.47207 14.1208 7.68467 14.3759C7.71463 14.4118 7.68118 14.5251 7.66852 14.5631C7.64192 14.6429 7.58519 14.7113 7.52215 14.7646C7.44598 14.8291 7.35469 14.8712 7.28263 14.9395C7.1502 15.065 7.00641 15.1789 6.85873 15.2855C6.66008 15.4288 6.49422 15.603 6.27705 15.7236C6.14775 15.7955 6.03006 15.8729 5.91493 15.965C5.56763 16.2429 6.56467 15.3571 6.87489 15.0383C7.09694 14.8102 7.20401 14.5747 7.2142 14.259C7.21522 14.2273 7.268 13.7573 7.18378 13.7666C7.15898 13.7694 7.24481 14.2149 7.24937 14.239C7.2758 14.3791 7.31023 14.5159 7.35106 14.6525C7.35855 14.6775 7.39967 14.7646 7.38338 14.7931C7.35704 14.8392 7.05448 14.8026 7.0013 14.8026C6.83134 14.8026 6.79081 14.769 6.80645 14.5916C6.82245 14.4104 6.89935 14.2214 6.99559 14.067C7.0347 14.0042 7.08943 13.9136 7.11155 14.0347C7.14553 14.2205 7.13423 14.3984 7.0051 14.546C6.92299 14.6398 6.80937 14.6687 6.70095 14.6144" stroke="white" stroke-width="0.379522" stroke-linecap="round"/>
<path d="M29.78 19.9629C29.8359 19.9789 29.9155 20.1334 29.9426 20.172C30.1007 20.3973 30.2539 20.6257 30.4022 20.8575C30.6435 21.2348 30.8382 21.652 31.2439 21.8683" stroke="white" stroke-width="0.379522" stroke-linecap="round"/>
<path d="M30.7791 22.6813C30.5066 22.5127 30.2933 22.185 30.0974 21.9416C29.8464 21.6296 29.7134 21.2768 29.6172 20.8921" stroke="white" stroke-width="0.379522" stroke-linecap="round"/>
<path d="M23.1898 13.8989C23.4955 13.8989 23.7178 13.9233 24.0185 14.0477C25.3941 14.6172 26.6843 15.3936 27.9805 16.1201" stroke="white" stroke-width="0.379522" stroke-linecap="round"/>
<path d="M8.03687 22.8418C7.81578 22.8418 7.59469 22.8418 7.3736 22.8418C7.12705 22.8418 6.8861 22.8365 6.64701 22.7685C6.42814 22.7062 6.22167 22.6082 6.02042 22.5036C5.54833 22.2581 5.21136 21.8287 5.08218 21.312" stroke="#F32D12" stroke-width="0.379522" stroke-linecap="round"/>
</svg>
