<svg width="36" height="38" viewBox="0 0 36 38" fill="none" xmlns="http://www.w3.org/2000/svg">
<rect x="-0.519772" y="0.519772" width="34.305" height="35.8643" rx="4.67795" transform="matrix(-1 0 0 1 34.3384 0.903809)" fill="white" stroke="black" stroke-width="1.03954"/>
<path d="M6.85506 16.9609C6.85506 16.2213 7.70692 15.5796 8.26045 15.1971C9.37228 14.4286 10.4665 13.6964 11.7268 13.1833C13.0465 12.646 14.319 12.2021 15.7543 12.1057C16.352 12.0655 16.9525 12.0797 17.5511 12.0797C18.0636 12.0797 18.5914 12.0418 19.098 12.1316C20.3931 12.3612 21.7292 12.6488 22.8992 13.2682C23.0514 13.3488 23.1144 13.523 23.2835 13.5653C23.5333 13.6278 23.8399 13.7084 24.0452 13.8624" stroke="black" stroke-width="0.467313" stroke-linecap="round"/>
<path d="M20.6073 19.0833C20.6073 19.3135 20.6728 19.4229 20.4163 19.4229C20.2378 19.4229 20.0501 19.2973 19.9281 19.1682C19.7795 19.0108 19.7755 18.4053 19.9612 18.2768C20.1685 18.1333 20.4451 18.0613 20.6733 17.9609C20.9876 17.8226 21.3064 17.7272 21.6401 17.6496C21.761 17.6215 21.9355 17.5284 21.9678 17.7062C22.0019 17.8936 22.0484 18.1045 22.1023 18.2863C22.2643 18.8331 21.6281 19.5502 21.0741 19.5502C20.7832 19.5502 20.3797 19.4269 20.3526 19.0739C20.3412 18.926 20.3101 18.7931 20.3101 18.6376C20.3101 18.4114 20.6464 18.3851 20.8383 18.2792C20.9919 18.1945 21.1903 18.0646 21.3713 18.0646C21.5477 18.0646 21.6495 17.8977 21.6283 18.1094C21.6148 18.2444 21.5982 18.8506 21.4137 18.8711C21.2605 18.8881 20.9257 18.9271 20.8006 18.8475C20.6144 18.729 20.7819 18.4654 20.9374 18.4136C21.109 18.3564 21.2977 18.3617 21.4774 18.3617C21.6793 18.3617 21.6781 18.7653 21.5835 18.8711C21.4331 19.0392 21.2161 18.9984 21.0105 18.9984C20.8775 18.9984 20.9364 18.4958 20.9893 18.4136C21.0972 18.2458 21.4871 18.2181 21.6424 18.3217C21.8064 18.4309 21.5293 18.7844 21.4656 18.8711C21.3187 19.0708 21.2725 19.2106 21.0058 19.2106C20.7594 19.2106 20.2462 19.236 20.5082 18.8616C20.5397 18.8167 21.0741 18.1917 21.0741 18.4278C21.0741 18.6203 21.1245 18.8761 20.9374 18.9984C20.7361 19.13 20.853 18.7609 21.0317 18.7013" stroke="black" stroke-width="0.467313" stroke-linecap="round"/>
<path d="M12.6701 18.1495C12.6701 17.6725 12.8556 17.1955 13.1794 16.8337C13.4691 16.51 12.8411 16.2401 12.6276 16.1452C12.3765 16.0336 12.4011 16.0215 12.1419 16.1546C11.6781 16.3928 11.3207 16.6234 11.0053 17.0554C10.7622 17.3883 10.4421 17.8451 10.4205 18.2768C10.4098 18.4911 10.6841 18.3779 10.8025 18.3523C10.97 18.3161 12.3636 18.3933 12.3729 18.2344C12.3916 17.9177 12.4412 17.623 12.4908 17.31C12.5212 17.1185 12.5266 16.9229 12.6182 16.7488C12.6528 16.6831 12.7415 16.7126 12.788 16.6545C12.817 16.6182 12.4343 16.4884 12.3729 16.4611C12.3088 16.4326 12.2896 16.4243 12.2362 16.3763C12.194 16.3383 12.1517 16.2238 12.2362 16.2914C12.4058 16.4271 12.3375 16.7535 12.2881 16.928C12.245 17.0798 12.0387 17.8739 11.9296 17.3596C11.8917 17.1807 11.7278 16.579 12.0546 16.579C12.2829 16.579 12.1319 17.4675 12.0971 17.593C11.9923 17.97 11.7511 17.3625 11.715 17.2181C11.6782 17.0707 11.7022 16.9663 11.8801 17.0058C11.9936 17.0311 11.9999 17.3307 12.0122 17.4067C12.0411 17.586 12.0641 17.8168 12.031 17.9986C12.0122 18.1023 11.8276 18.0646 11.7575 18.0646C11.6584 18.0646 11.4717 18.0943 11.4415 17.9585C11.4109 17.8207 11.5086 17.6584 11.6514 17.6425C11.6871 17.6386 11.8922 17.6143 11.9037 17.6661C11.9305 17.7866 11.8942 17.9007 11.7764 17.9538C11.3576 18.1422 11.2055 17.7913 11.2293 17.4468C11.238 17.3199 11.2737 17.1329 11.3778 17.0436C11.3999 17.0246 11.5478 16.839 11.5406 16.8361C11.3373 16.7548 11.0363 17.392 10.9958 17.5364C10.9789 17.5968 10.8902 17.8706 10.8945 17.8453C10.9159 17.7169 11.1163 17.5469 11.2269 17.4916C11.3344 17.4379 11.4643 17.3438 11.5854 17.3265C11.6278 17.3205 11.3452 17.6424 11.2906 17.6826C11.2081 17.7434 10.8874 18.0117 10.8874 17.8524C10.8874 17.6265 11.2852 17.0489 11.5854 17.2204C11.7601 17.3203 11.5232 17.6878 11.4179 17.7463C11.1895 17.8732 11.0042 17.7113 10.9298 17.5128" stroke="black" stroke-width="0.467313" stroke-linecap="round"/>
<path d="M18.9518 21.6299C18.9902 21.6222 18.8772 21.5878 18.8763 21.5874C18.7263 21.5231 18.5836 21.4432 18.433 21.3799C18.3159 21.3307 18.1844 21.2883 18.0604 21.2573C17.812 21.1952 17.5838 21.0874 17.3389 21.0262C16.7805 20.8866 16.1868 20.824 15.6175 20.7291C15.3622 20.6865 15.1465 20.6536 14.8865 20.6536C14.5674 20.6536 14.2934 20.7486 13.9857 20.781C13.7516 20.8056 13.612 20.9656 13.4151 21.0781C13.3582 21.1106 13.3664 21.114 13.4151 21.1229C13.591 21.1549 13.7342 21.3306 13.8348 21.4624C14.0511 21.7459 14.2197 22.0542 14.4526 22.3278C14.7019 22.6207 14.9679 22.8986 15.2331 23.1767C15.5864 23.5472 15.8258 23.9893 16.1339 24.3911C16.3267 24.6426 16.6347 24.8668 16.7776 25.1528C16.8524 25.3023 16.7992 25.3332 16.839 25.1433C16.929 24.7133 17.2166 24.2866 17.4143 23.8983C17.7134 23.3107 18.1199 22.6315 18.591 22.1604C18.6462 22.1052 18.9901 21.8827 18.848 22.0119C18.4839 22.3429 18.263 22.7571 18.018 23.1791C17.8445 23.4779 17.6781 23.8192 17.4662 24.0917C17.3144 24.2868 17.1407 24.5335 17.0512 24.7613C16.9849 24.9301 16.8671 25.0231 16.7446 25.1528C16.5978 25.3083 16.5888 25.1934 16.4805 25.049C16.0722 24.5046 15.4552 24.1517 15.0492 23.6035C14.8669 23.3574 14.6973 23.0942 14.4951 22.8631C14.3774 22.7287 14.2141 22.6056 14.1154 22.4575C13.9894 22.2685 13.8905 22.1004 13.7971 21.8869C13.7162 21.7021 13.959 21.7617 14.08 21.7242C14.5315 21.5841 14.9405 21.3328 15.4288 21.3328C16.0394 21.3328 16.5714 21.5108 17.1667 21.6299C17.4298 21.6825 17.2456 21.7624 17.3648 21.9081C17.595 22.1895 17.8695 22.4412 18.0345 22.7712C18.1385 22.9792 18.1045 22.7958 18.1453 22.6226C18.2187 22.3108 18.427 21.9449 18.6358 21.6983C18.7989 21.5054 18.9448 21.7934 18.8386 21.861C18.6841 21.9592 18.3257 21.8793 18.15 21.8869C18.0303 21.8921 17.8642 21.9588 17.7444 21.9246C17.6687 21.903 17.6948 21.5874 17.8293 21.5874C18.0925 21.5874 18.0604 21.6279 18.0604 21.8751C18.0604 21.9596 18.0438 22.0605 17.9331 22.0543C17.858 22.0501 17.8885 21.814 17.8906 21.7666C17.9005 21.5501 18.2389 21.4452 18.3905 21.5969C18.5024 21.7088 18.4306 21.8171 18.2962 21.8327C17.9995 21.8671 17.8091 21.7341 17.5935 21.5544C17.4376 21.4245 17.1987 21.1765 17.5912 21.3139C17.609 21.3201 17.8292 21.3954 17.794 21.4365C17.6742 21.5763 17.0842 21.3888 16.9474 21.354C16.7865 21.313 16.1581 21.1205 16.6409 21.1205C16.6831 21.1205 16.9966 21.135 16.8767 21.1158C16.4136 21.0417 15.9424 20.8938 15.4925 20.7645C15.3073 20.7112 14.7625 20.5182 14.9478 20.5711C15.0962 20.6135 15.2354 20.5978 15.3864 20.6206C15.466 20.6326 15.7027 20.6429 15.759 20.7055C15.8113 20.7636 15.256 20.781 15.2261 20.781C14.9685 20.781 14.7177 20.748 14.462 20.7385C14.4258 20.7372 14.6612 20.7385 14.7073 20.7385C14.7862 20.7385 15.5081 20.6847 15.5137 20.781C15.5275 21.0156 14.4312 20.9083 14.2616 20.9083C14.0064 20.9083 14.3481 20.9083 14.4172 20.9083C14.6732 20.9083 14.9353 20.8918 15.1907 20.9107C15.2589 20.9157 15.4497 20.9522 15.4265 21.0569C15.3999 21.1765 15.0426 21.1574 14.962 21.1606C14.7056 21.1709 14.4368 21.1336 14.1838 21.1842C14.0723 21.2065 14.0163 21.2314 14.1579 21.1818C14.5006 21.0619 15.5939 20.9932 15.2308 20.9932C14.7007 20.9932 14.1311 21.0993 13.6132 21.2054C13.5957 21.209 13.2778 21.2442 13.283 21.2809C13.2847 21.2925 13.4936 21.2073 13.5188 21.196C13.6621 21.1315 13.8051 21.1497 13.9433 21.0875C14.0335 21.0469 14.4291 20.9295 14.1319 21.0569C13.9302 21.1433 13.7126 21.1205 13.4976 21.1205C13.4184 21.1205 13.2323 21.1877 13.2854 21.229C13.634 21.5001 13.7149 21.9795 13.9008 22.3514" stroke="black" stroke-width="0.467313" stroke-linecap="round"/>
<path d="M17.636 23.2002C17.0515 23.2002 16.5442 23.5911 16.0254 23.818C15.9227 23.863 15.8697 23.9218 15.7519 23.9218C15.6505 23.9218 15.9547 23.9218 16.0561 23.9218C16.4068 23.9218 16.6173 24.0404 16.6173 24.4311C16.6173 24.5987 16.5749 24.41 16.5749 24.3368C16.5749 24.21 16.5434 24.0805 16.6385 23.9854C16.7919 23.832 17.1721 23.5195 17.0418 23.943C16.9269 24.3162 16.6638 24.0907 16.8295 23.8274C16.9559 23.6268 17.3596 23.6681 17.4662 23.4549" stroke="black" stroke-width="0.467313" stroke-linecap="round"/>
<path d="M12.3306 22.606C12.2312 22.4942 12.1568 22.3639 12.0688 22.2429C11.8238 21.906 11.4767 21.6289 11.1846 21.3327C10.7997 20.9424 10.3861 20.5902 9.99611 20.2102C9.73204 19.9529 9.52556 19.6452 9.27455 19.3802C9.13133 19.229 9.02096 19.1581 8.8501 19.0312C8.66497 18.8937 8.49697 18.7386 8.34076 18.5738C8.23988 18.4673 8.14842 18.3202 8.01064 18.2672C7.82325 18.1951 7.69323 18.0079 7.5013 17.9465C7.45991 17.9333 7.3881 18.4981 7.36453 18.5643C7.27792 18.8079 7.18731 19.0197 7.07685 19.2529C6.97695 19.4638 7.26266 19.3567 7.40698 19.3896C7.90183 19.5027 8.33447 19.6612 8.63788 20.0923C8.87251 20.4258 9.19793 20.7731 9.57166 20.9412C9.74207 21.0179 9.94859 21.0282 10.1234 21.111C10.2694 21.1801 10.4204 21.2478 10.5809 21.2478C10.6205 21.2478 10.8976 21.2768 10.9205 21.2997C11.0952 21.4744 10.472 21.0912 10.2413 21.0025C9.99194 20.9066 9.7715 20.655 9.56223 20.4838C9.36607 20.3233 8.78886 19.8613 9.02931 19.9414C9.34927 20.0481 9.63506 20.3594 9.92065 20.5356C10.0381 20.6081 10.2461 20.8186 10.3923 20.8186C10.4406 20.8186 10.3242 20.7499 10.2909 20.7149C10.1995 20.6189 10.0942 20.5506 9.98667 20.4743C9.66957 20.2493 9.40198 19.979 9.07176 19.7716C8.88991 19.6575 8.66821 19.4433 8.56242 19.2529C8.43993 19.0324 8.15088 18.8673 7.96819 18.6917C7.93917 18.6638 7.80283 18.5153 7.89745 18.6186C8.04031 18.7744 8.23589 18.8838 8.38321 19.0501C8.50764 19.1905 8.80092 19.4572 8.84303 19.6467C8.8445 19.6533 8.50783 19.4499 8.4681 19.4227C8.20006 19.239 7.87538 19.0744 7.67108 18.819C7.60429 18.7355 7.74932 18.744 7.78898 18.7695C7.87545 18.8251 7.95576 18.9812 7.95876 19.0831C7.96333 19.2383 7.71481 19.4863 7.62864 19.2623C7.57242 19.1162 7.57676 18.6388 7.57676 18.7954C7.57676 19.0948 7.32797 18.9074 7.19476 19.0406" stroke="black" stroke-width="0.467313" stroke-linecap="round"/>
<path d="M11.7363 23.9643C11.3268 23.9643 10.9801 23.6332 10.6139 23.4762C10.2875 23.3363 9.97938 23.1347 9.61409 23.1155C9.38756 23.1035 8.98699 23.2057 8.78642 23.0942C8.67951 23.0348 8.50556 23.0106 8.3832 22.9669C8.16107 22.8876 7.91766 22.8241 7.68522 22.7853C7.48858 22.7526 7.29888 22.6271 7.10985 22.6061C6.96158 22.5896 7.06741 22.6709 7.06741 22.7971C7.06741 23.0094 7.1523 23.2645 7.1523 23.4975C7.1523 23.6101 7.15822 23.7246 7.1523 23.837C7.14254 24.0225 7.1201 23.8689 7.26077 23.7922C7.53713 23.6415 7.91735 23.7097 8.23228 23.7097C8.97582 23.7097 9.69756 23.6672 10.4418 23.6672C10.5302 23.6672 10.6516 23.6453 10.7365 23.6696C10.9059 23.718 10.3797 23.6984 10.2083 23.6578C9.86756 23.5771 9.4556 23.5823 9.1024 23.5823C8.87983 23.5823 8.67191 23.5399 8.44686 23.5399C8.25479 23.5399 8.09687 23.4257 7.90687 23.4126C7.6655 23.3959 7.32533 23.3732 7.28199 23.1131C7.21738 22.7254 7.68613 22.9481 7.88329 23.0211C8.13401 23.114 8.40906 23.2605 8.67795 23.2829C8.86176 23.2982 9.11233 23.289 9.27453 23.3701" stroke="black" stroke-width="0.467313" stroke-linecap="round"/>
<path d="M12.8396 25.4499C12.2495 25.4499 11.6869 25.3689 11.1088 25.3226C11.0244 25.3159 11.0325 25.2802 11.1182 25.2802C11.2479 25.2802 11.3776 25.2802 11.5073 25.2802C11.7295 25.2802 11.9491 25.2274 12.1699 25.2047C12.264 25.1951 12.5393 25.2442 12.5849 25.1528" stroke="black" stroke-width="0.467313" stroke-linecap="round"/>
<path d="M13.052 26.0443C12.4012 26.0443 11.7504 26.0443 11.0995 26.0443C10.7405 26.0443 10.348 26.0133 9.99598 26.0961C9.52949 26.2059 9.27468 26.2378 8.97731 26.629C8.89217 26.7411 8.73119 26.8233 8.62832 26.9262C8.59344 26.961 8.30527 26.4365 8.22274 26.3508C8.13359 26.2582 7.96385 26.147 7.90676 26.0443C7.88849 26.0114 7.73488 25.832 7.8313 25.832C7.9758 25.832 8.12345 25.9142 8.27461 25.9169C8.90951 25.9285 9.53993 25.8745 10.1658 25.8745C10.5226 25.8745 10.8795 25.8745 11.2363 25.8745C11.3464 25.8745 11.4564 25.8745 11.5664 25.8745C11.7024 25.8745 11.2968 25.9169 11.1609 25.9169C10.705 25.9169 10.2491 25.9169 9.79319 25.9169C9.5249 25.9169 9.31757 26.0116 9.0622 26.0773C9.02048 26.088 8.48684 26.2563 8.48684 26.2046C8.48684 26.0485 8.82769 26.3615 8.55286 26.0867" stroke="black" stroke-width="0.467313" stroke-linecap="round"/>
<path d="M12.4578 21.0782C12.4232 20.9052 12.2345 20.7018 12.1206 20.5689C11.9969 20.4246 11.9441 20.2609 11.8423 20.1043C11.6146 19.7541 11.2537 19.4507 10.9321 19.1894C10.4691 18.8132 9.90722 18.6241 9.44419 18.2769" stroke="black" stroke-width="0.467313" stroke-linecap="round"/>
<path d="M7.83129 17.0033C7.83129 16.5445 8.26395 15.9765 8.57408 15.6663C8.69474 15.5457 8.85192 15.4664 8.9773 15.348C9.05432 15.2753 9.23401 15.259 9.27441 15.1782" stroke="black" stroke-width="0.467313" stroke-linecap="round"/>
<path d="M13.519 13.5654C13.7778 13.5654 14.0445 13.3799 14.283 13.2871C14.4149 13.2359 14.8658 13.0365 14.9197 12.9287" stroke="black" stroke-width="0.467313" stroke-linecap="round"/>
<path d="M26.3796 19.9318C26.3796 19.8146 26.3791 19.5802 26.2523 19.5168C26.1164 19.4489 25.6815 19.786 25.5732 19.8469C25.2877 20.0075 24.9917 20.1589 24.7243 20.3468C24.6039 20.4314 24.4496 20.4606 24.3187 20.526C24.2091 20.5808 24.1262 20.6655 24.0051 20.6958C23.685 20.7758 23.3452 21.0517 23.0524 21.2028C22.7772 21.3449 22.5189 21.5164 22.2295 21.6296C21.8935 21.7611 21.515 21.773 21.2415 22.0328C21.0516 22.2132 20.7522 22.3602 20.5223 22.4879C20.1974 22.6684 19.9081 22.9555 19.5673 23.1128C19.4891 23.1489 19.4106 23.1852 19.3338 23.2236C19.2721 23.2545 19.2235 23.3628 19.164 23.3698C19.1039 23.3769 18.8633 23.528 18.8952 23.5396C19.9041 23.9065 20.7201 24.6053 21.6046 25.195C22.2392 25.618 22.7641 26.1448 23.3684 26.598C23.4656 26.6709 23.6302 26.7348 23.7056 26.8291C23.8332 26.9886 23.8618 26.9025 23.9933 26.8079C24.2966 26.5895 24.0296 26.536 23.7929 26.341C23.6133 26.1931 23.4456 26.0385 23.2812 25.8741C23.1729 25.7658 23.082 25.6141 22.9416 25.544C22.4038 25.275 21.9787 24.7116 21.5244 24.3272C21.2674 24.1097 21.001 23.8247 20.7958 23.5608C20.6436 23.3652 20.2794 23.3313 20.1497 23.1152C20.1294 23.0814 20.1375 23.166 20.0884 23.2001C19.9586 23.2899 19.8019 23.3343 19.6569 23.3911C19.4162 23.4852 19.4744 23.4972 19.6828 23.4972C20.0802 23.4972 20.524 23.8164 20.7581 24.1244C20.9527 24.3805 21.3089 24.6192 21.5622 24.8153C21.8574 25.0439 22.22 25.2468 22.4842 25.5015C22.6407 25.6524 22.8336 25.7152 22.9841 25.8741C23.1145 26.0118 23.2999 26.2134 23.3849 26.3834C23.4842 26.5819 23.6581 26.8514 23.3849 26.4872C23.0186 25.9988 22.5615 25.5555 22.0715 25.1926C21.7179 24.9307 21.4377 24.5826 21.0953 24.3036C20.865 24.116 20.602 23.8858 20.4374 23.6339C20.2792 23.3921 20.5532 23.188 20.7439 22.9973C20.825 22.9162 20.9298 22.8757 21.0316 22.8275C21.1935 22.7508 21.3271 22.6231 21.4773 22.5186C21.9131 22.2154 22.4502 22.1167 22.8779 21.8206C23.2449 21.5666 23.6416 21.4288 24.024 21.2264C24.3425 21.0577 24.7265 21.02 25.0426 20.8444C25.3345 20.6822 25.5711 20.527 25.8184 20.3044C25.8973 20.2334 26.4412 19.8469 26.2099 19.8469C25.9198 19.8469 25.6247 19.9172 25.3822 20.0851C25.1147 20.2703 24.9248 20.5309 24.6559 20.717C24.2479 20.9995 23.7852 21.217 23.3755 21.4598C23.1499 21.5935 22.8576 21.5946 22.6233 21.7169C22.404 21.8312 22.1667 21.9015 21.9465 22.0116C21.7737 22.098 21.6134 22.1938 21.4749 22.3323C21.3018 22.5054 21.0745 22.5977 20.8713 22.7332C20.5651 22.9373 20.2524 23.1228 19.928 23.285" stroke="black" stroke-width="0.467313" stroke-linecap="round"/>
<path d="M27.5681 23.54C26.5905 23.54 25.6305 23.249 24.6724 23.0731C24.0699 22.9624 23.4252 22.776 22.8143 22.776C22.5033 22.776 21.5789 22.6486 21.89 22.6486C22.3194 22.6486 22.7415 22.5809 23.1704 22.6085C23.7229 22.6442 24.2935 22.7336 24.8281 22.8844C25.1061 22.9629 25.3688 23.0306 25.6581 23.0636C25.9333 23.0951 26.2131 23.0501 26.4881 23.0825C26.6931 23.1066 26.8971 23.1329 27.1012 23.1556C27.2302 23.1699 27.373 23.2429 27.4974 23.2429C27.5524 23.2429 27.3872 23.2466 27.3323 23.2429C27.0424 23.2231 26.7494 23.0577 26.4881 22.9457C25.8659 22.6791 25.2483 22.5019 24.5876 22.3751C23.7029 22.2053 22.8267 22.1578 21.9442 22.3539C21.8915 22.3656 21.2648 22.5991 21.3382 22.6816C21.3851 22.7344 21.6777 22.6911 21.7343 22.6911C22.1608 22.6911 22.5797 22.748 23.003 22.7972C23.9442 22.9066 24.8798 22.9457 25.8279 22.9457C26.166 22.9457 26.4747 22.9574 26.8041 23.0306C27.011 23.0766 27.139 23.158 27.3559 23.158" stroke="black" stroke-width="0.467313" stroke-linecap="round"/>
<path d="M28.8416 19.3804C28.751 19.3917 28.7085 19.8929 28.6906 19.9746C28.6072 20.356 28.4947 20.7448 28.3935 21.1206C28.1688 21.9554 27.996 22.8089 27.7804 23.6484C27.5516 24.5395 27.1598 25.2867 26.5896 25.9994C26.5093 26.0997 25.8005 26.8806 25.7431 26.7658" stroke="black" stroke-width="0.467313" stroke-linecap="round"/>
<path d="M21.8383 28.8877C21.7617 28.8986 22.0601 29.1831 22.0835 29.2273C22.1363 29.327 21.8563 29.6161 21.7982 29.6706C21.4783 29.9705 21.1045 30.2459 20.6498 30.2459" stroke="black" stroke-width="0.467313" stroke-linecap="round"/>
<path d="M14.7924 25.7471C15.0122 25.7471 15.8535 25.6507 15.8535 26.0229C15.8535 26.5151 15.8959 27.0467 15.8959 27.5533C15.8959 28.0035 15.9837 28.4797 16.4053 28.7276C16.6002 28.8423 16.7351 29.0325 16.9665 29.1096C17.2166 29.193 17.6245 29.1789 17.8814 29.1332C18.2112 29.0746 18.513 29.0059 18.8223 28.8667C19.1451 28.7214 19.3999 28.3093 19.6122 28.0391C19.7258 27.8945 19.9034 27.7218 20.1003 27.808C20.2753 27.8845 20.6091 28.1281 20.6922 28.315C20.8095 28.579 20.7137 28.4078 20.5649 28.5484C20.4337 28.6723 20.2211 28.7292 20.098 28.8455C20.0721 28.8699 19.746 29.2087 19.7678 29.2087C19.8266 29.2087 19.9728 29.0132 20.0131 28.9729C20.1153 28.8706 20.2534 28.8119 20.3526 28.7182C20.5521 28.5298 20.3435 28.9522 20.2913 29.0342C20.0979 29.3381 19.9309 29.6091 19.6971 29.8854C19.5082 30.1086 19.2104 30.183 18.952 30.3122C18.6736 30.4514 18.3792 30.5863 18.063 30.6258C17.6259 30.6805 16.8784 30.7254 16.5326 30.416C16.3213 30.2269 16.1053 30.0547 15.9054 29.8548C15.8322 29.7816 15.4107 29.2097 15.3111 29.2794C15.0292 29.4768 14.1184 29.745 13.8822 29.3737C13.7732 29.2025 13.7737 28.9533 13.7737 28.7583C13.7737 28.6544 13.7364 28.4721 13.7831 28.3786C13.8392 28.2664 13.9935 28.2512 14.0897 28.19C14.2419 28.0931 14.3606 28.0997 14.3679 27.9023C14.3818 27.5266 14.4528 27.1584 14.4528 26.7752C14.4528 26.6178 14.7235 25.9673 14.5377 25.8744" stroke="black" stroke-width="0.467313" stroke-linecap="round"/>
<path d="M19.9706 28.1238C19.9706 28.4859 19.3658 28.3598 19.4235 28.23C19.4869 28.0874 19.7632 28.1238 19.8833 28.1238C20.031 28.1238 20.0555 28.2681 20.0555 28.3974C20.0555 28.6446 19.5418 28.4242 20.013 28.3031C20.0861 28.2843 20.2956 28.2081 20.3432 28.2936C20.4251 28.441 20.4025 28.566 20.2677 28.6662C20.1211 28.7751 19.9548 28.7605 19.7819 28.7605C19.6648 28.7605 19.8644 28.6756 19.9093 28.6756C20.1338 28.6756 20.0758 28.9097 19.9682 29.0576C19.8021 29.286 19.6982 29.3547 19.4188 29.3547C19.2669 29.3547 19.1456 29.2693 19.1665 29.1024C19.1853 28.9517 19.4763 28.9641 19.5862 28.9751C19.7687 28.9933 19.7584 29.1701 19.7584 29.3123C19.7584 29.5005 19.6166 29.567 19.4424 29.567C19.086 29.567 19.2589 28.8936 19.4613 28.7699C19.6021 28.6839 19.6079 28.6829 19.5367 28.8548C19.4506 29.0629 19.3861 29.2665 19.3245 29.4821C19.283 29.6273 18.7376 30.0597 18.6124 29.8405C18.4595 29.5731 18.5841 29.2699 18.8882 29.2699C18.9956 29.2699 18.9612 29.5367 18.9425 29.6094C18.8981 29.7818 18.6757 29.8738 18.518 29.8971C18.3767 29.918 17.9565 30.021 17.8484 29.9065C17.7215 29.7722 17.8554 29.535 17.9757 29.4491C18.3172 29.2051 18.7735 30.1612 18.136 30.1612C17.9451 30.1612 17.4154 30.2889 17.5135 29.9702C17.6125 29.6483 18.3445 29.7141 18.5699 29.7391C18.8389 29.769 18.7989 30.0294 18.7067 30.2036C18.5975 30.4099 18.2006 30.3275 18.0181 30.331C17.8341 30.3344 17.6522 30.3976 17.4664 30.3711C17.2688 30.3428 17.2721 29.9188 17.3202 29.7815C17.362 29.662 17.8621 29.4535 17.8884 29.6118C17.9872 30.2045 17.0614 30.3882 16.7259 30.0527C16.5132 29.84 16.6176 29.4235 16.8721 29.3217C17.0364 29.256 17.4239 29.2691 17.4239 29.4915C17.4239 29.8182 17.2359 29.9914 16.8933 29.9914C16.658 29.9914 16.579 29.7866 16.5137 29.5905C16.4514 29.4038 16.6134 29.3704 16.7684 29.3335C17.0095 29.2761 17.2159 29.4265 17.0749 29.6943C16.9941 29.8479 16.6759 29.846 16.542 29.8028C16.2122 29.6964 15.9602 29.2726 15.9053 28.9492C15.8679 28.7285 16.1029 28.6967 16.2779 28.7794C16.4884 28.8788 16.4901 29.0125 16.4901 29.218C16.4901 29.6338 16.1009 29.669 15.8535 29.3359C15.766 29.2182 15.5411 28.8182 15.6648 28.6591C15.7403 28.5621 15.9212 28.5783 15.9996 28.6568C16.1747 28.8318 16.3611 29.3525 15.936 29.3099C15.5787 29.2742 15.2295 28.3472 15.6176 28.3361C16.0199 28.3246 15.7996 28.7477 15.5563 28.7605C15.273 28.7754 15.1301 27.9116 15.3653 27.9116C15.4369 27.9116 15.5563 27.8788 15.5563 27.9753C15.5563 28.0343 15.5872 28.1938 15.5115 28.2064C15.1739 28.2627 15.0749 27.6145 15.4054 27.6145C15.6945 27.6145 15.8875 28.0978 15.4903 28.0342C15.0114 27.9576 14.9294 27.4069 15.3441 27.1995C15.4279 27.1576 15.5332 27.2368 15.4526 27.3174C15.3239 27.4461 15.0952 27.4409 15.0894 27.2325C15.0866 27.1287 15.0726 26.8773 15.2191 26.8529C15.3564 26.83 15.4521 26.9247 15.4691 27.0604C15.4791 27.1408 15.4948 27.3551 15.363 27.3551C15.1537 27.3551 15.0894 27.0049 15.0894 26.8529C15.0894 26.7253 15.2276 26.6777 15.3253 26.6288C15.4264 26.5783 15.2511 26.6132 15.2262 26.544C15.1694 26.3861 15.2566 26.2623 15.4196 26.2563C15.5623 26.251 15.5093 26.2291 15.5139 26.0676C15.5172 25.9516 15.5916 25.816 15.7261 25.8318C15.8631 25.8479 15.669 26.1392 15.6412 26.1808C15.5618 26.2999 15.4714 26.3972 15.4714 26.544C15.4714 26.6399 15.4714 26.9275 15.4714 26.8316C15.4714 26.55 15.586 26.2093 15.3017 26.1077C14.8565 25.9487 14.9659 26.6312 14.9409 26.8764C14.8951 27.325 14.8019 27.7921 14.7923 28.2417C14.7895 28.3769 14.7499 28.4953 14.7499 28.2842C14.7499 27.9004 14.7074 26.7496 14.7074 27.1335C14.7074 27.745 14.7074 28.3565 14.7074 28.968C14.7074 29.2023 14.6997 28.6433 14.7287 28.5507C14.7612 28.4465 14.8637 28.3552 14.9786 28.4445C15.1253 28.5586 15.1082 29.0576 14.8749 29.0576C14.4889 29.0576 14.4331 28.1926 14.8984 28.296C15.1249 28.3463 15.1992 28.9859 14.9432 29.0482C14.4417 29.1702 13.9871 28.752 14.1651 28.2182C14.195 28.1286 14.4207 28.158 14.4952 28.1686C14.6647 28.1929 14.6736 28.4439 14.6626 28.5695C14.6487 28.7297 14.5957 28.8353 14.4528 28.9067C14.3937 28.9362 14.1974 29.0408 14.1557 28.9468C14.0907 28.8007 13.9986 28.5269 14.1226 28.3879C14.2696 28.2234 14.4112 28.2997 14.4952 28.4634C14.6428 28.7508 14.8231 29.1001 14.3773 29.1001C14.161 29.1001 14.0106 29.2494 14.0283 28.9303C14.0361 28.7896 14.4103 28.7935 14.4103 28.9727" stroke="black" stroke-width="0.467313" stroke-linecap="round"/>
<path d="M14.495 30.0338C14.1767 30.0338 13.8583 30.0338 13.54 30.0338C13.4643 30.0338 13.4533 30.0325 13.4056 29.9725C13.2399 29.7637 13.0194 29.5516 12.7972 29.4065C12.6295 29.297 12.4414 29.2183 12.2667 29.1212C12.121 29.0403 11.8759 28.8724 11.7149 28.8477C11.5706 28.8255 11.4077 28.7686 11.2692 28.7604C11.0266 28.7462 11.3536 28.8684 11.4154 28.9302C11.6052 29.12 11.6479 29.4486 11.7573 29.6919C11.8336 29.8614 11.8634 29.933 11.8634 30.1187C11.8634 30.2149 11.8272 30.3699 11.788 30.4582C11.6986 30.6592 12.0783 30.5914 12.1794 30.5761C12.4962 30.5283 12.8167 30.5431 13.1368 30.5431C13.3108 30.5431 13.5946 30.4916 13.7546 30.5643C13.8885 30.6252 14.096 30.5855 14.2403 30.5855C14.4052 30.5855 14.3334 30.4953 14.4526 30.4252C14.5246 30.3828 14.6648 30.3215 14.6648 30.2248C14.6648 30.0128 14.2095 30.0762 14.0517 30.0762C13.7933 30.0762 13.5618 30.1932 13.3066 30.2366C13.2267 30.2501 12.9827 30.246 13.0637 30.246C13.2005 30.246 13.3372 30.246 13.474 30.246C13.746 30.246 14.0053 30.2678 14.2734 30.2884C14.425 30.3001 14.1045 30.3309 14.08 30.3309C13.9071 30.3309 13.7342 30.3309 13.5612 30.3309C13.3517 30.3309 12.9432 30.4158 12.7571 30.3073C12.5918 30.2109 12.5347 29.8478 12.4152 29.6942C12.3038 29.5509 12.2182 29.4226 12.0851 29.3028C11.8538 29.0946 12.2809 29.2717 12.3822 29.3122C12.6481 29.4186 12.8863 29.6182 13.0896 29.8215C13.2603 29.9922 13.2798 30.1187 13.0283 30.1187C12.6809 30.1187 12.644 30.0247 12.4247 29.7885C12.3524 29.7107 12.2162 29.4584 12.0851 29.4584C12.0544 29.4584 12.2704 29.8772 12.2879 29.9253C12.3283 30.0363 12.3626 30.1861 12.328 30.3073C12.2832 30.4641 12.0484 30.1342 12.0332 30.1092C11.9064 29.9003 12.0596 29.8962 12.1181 29.7791" stroke="black" stroke-width="0.467313" stroke-linecap="round"/>
<path d="M10.5051 29.9066C10.3697 29.8915 10.2636 29.6968 10.1656 29.6189C9.97461 29.4673 9.79618 29.3701 9.69868 29.1426" stroke="black" stroke-width="0.467313" stroke-linecap="round"/>
<path d="M8.25554 9.9576C8.31345 9.9576 8.14899 9.95351 8.1282 9.94817C8.00592 9.91672 7.85057 9.83788 7.7462 9.76896C7.50191 9.60763 7.1732 9.39226 7.02464 9.13228C6.97847 9.05148 6.8387 8.99058 6.77233 8.92006C6.62833 8.76706 6.64918 8.86495 6.69451 9.0191C6.89957 9.71629 7.02795 10.4297 7.25808 11.1201C7.40096 11.5487 7.5314 11.9819 7.60943 12.4288C7.6917 12.9 7.90559 13.3446 7.95842 13.8201C7.99701 14.1673 8.12015 14.4985 8.1282 14.8529C8.12893 14.8849 8.1282 15.0563 8.1282 14.9236C8.1282 14.6227 8.13238 14.3214 8.12584 14.0205C8.11098 13.3367 8.07637 12.632 8.00087 11.9525C7.9605 11.5892 7.83916 11.2026 7.83109 10.8395C7.82097 10.3842 7.64744 10.2357 7.33118 9.94817C7.20284 9.83149 6.84708 9.47581 7.00813 9.54023C7.20394 9.61855 7.27834 10.1612 7.34062 10.316C7.51577 10.7514 7.75597 11.1573 7.93484 11.5917C7.96723 11.6704 8.06861 12.2704 7.95842 11.9949" stroke="black" stroke-width="0.467313" stroke-linecap="round"/>
<path d="M27.1436 18.1068C27.1436 18.738 27.2169 16.8374 27.1223 16.2133C27.0127 15.4895 26.9313 14.7216 26.9313 13.9896C26.9313 13.6146 27.1114 13.2852 27.2709 12.9521C27.4407 12.5975 27.5655 12.2215 27.7378 11.8674C27.754 11.8341 27.8279 11.5953 27.884 11.6835C27.9565 11.7974 27.9384 12.0651 27.9595 12.1975C28.0365 12.6831 28.2792 13.1355 28.3839 13.6171C28.5237 14.2599 28.8657 14.9124 28.5419 15.5601C28.3517 15.9405 28.1337 16.2931 27.9312 16.6613C27.7899 16.9182 27.6619 17.2027 27.5067 17.4465C27.4938 17.4668 27.4653 17.621 27.4407 17.621C27.4187 17.621 27.4407 17.577 27.4407 17.555C27.4407 17.4709 27.4407 17.3868 27.4407 17.3027C27.4407 16.6802 27.4407 16.0576 27.4407 15.4351C27.4407 14.8225 27.4009 14.1953 27.443 13.5841C27.4626 13.3002 27.531 13.0384 27.5657 12.7611C27.6021 12.4699 27.7726 12.8094 27.8133 12.9191C27.9178 13.2013 28.0894 13.4952 28.1528 13.7869C28.2019 14.0125 28.2516 14.2855 28.3415 14.499C28.4437 14.7419 28.3107 15.0152 28.2566 15.2536C28.1945 15.5265 27.9878 15.8409 27.825 16.0647C27.8076 16.0887 27.6793 16.3498 27.6623 16.3477C27.6354 16.3443 27.6529 15.9383 27.6529 15.9044C27.6529 15.3306 27.6529 14.7568 27.6529 14.183C27.6529 14.017 27.6445 13.8663 27.6199 13.702C27.6037 13.5939 27.488 13.2923 27.5515 13.3813C27.7119 13.6058 27.7062 13.8947 27.7472 14.1594C27.8057 14.5363 27.7891 14.9215 27.8557 15.296C27.8848 15.4595 27.8886 15.6416 27.9052 15.8077C27.9085 15.8402 27.8904 15.9893 27.917 15.9421C28.0348 15.7327 28.0774 15.498 28.0774 15.2536C28.0774 14.804 28.1865 13.9496 27.7708 13.6171C27.6654 13.5327 27.4657 13.6211 27.3982 13.6925C27.3153 13.7804 27.3134 14.0244 27.3134 13.9472" stroke="black" stroke-width="0.467313" stroke-linecap="round"/>
<path d="M27.1012 19.6351C27.1012 19.2966 27.1207 18.9688 26.9315 18.6683C26.6667 18.2478 26.4014 17.7852 26.2123 17.3243C25.9984 16.8029 25.7096 16.2764 25.6062 15.7208C25.5451 15.3922 25.3966 15.0837 25.3634 14.7516C25.3419 14.5367 25.2904 14.0998 25.4058 13.9075C25.5069 13.739 25.5842 13.5626 25.6793 13.3934C25.8628 13.0672 26.0386 12.7564 26.2523 12.4526C26.3437 12.3227 26.4746 12.1653 26.4646 11.9951C26.4562 11.8523 26.1659 12.3574 26.1439 12.3983C25.8234 12.9934 25.5012 13.605 25.0922 14.1409C24.9092 14.3807 24.7444 14.6384 24.564 14.8813C24.4439 15.043 24.3075 15.093 24.1726 15.2209C24.1256 15.2654 23.9626 15.3487 24.0122 15.4331C24.042 15.4837 24.1675 15.5168 24.2174 15.5604C24.3411 15.6687 24.4816 15.7665 24.6182 15.8576C25.0838 16.1679 25.5677 16.5312 25.9647 16.9281C26.0456 17.009 26.6031 17.8485 26.54 17.8643C26.462 17.8838 26.1743 17.5615 26.125 17.5035C25.9281 17.2714 25.8035 16.9854 25.6369 16.7324C25.3704 16.3277 25.0809 15.9438 24.7503 15.5887C24.6638 15.4958 24.3718 15.2794 24.3447 15.1572C24.3255 15.071 24.688 14.8753 24.7574 14.8059C24.7958 14.7675 25.0163 14.5142 25.0215 14.688C25.03 14.9786 24.9881 15.2754 25.0851 15.5557C25.1222 15.6628 25.2714 15.8999 25.2714 16.0038C25.2714 16.0052 25.105 15.8282 25.0875 15.8057C24.9957 15.6877 24.9281 15.5606 24.8517 15.4331" stroke="black" stroke-width="0.467313" stroke-linecap="round"/>
<path d="M27.2709 12.2493C27.1685 12.2237 27.2285 11.4607 27.2285 11.358C27.2285 11.0335 27.1227 10.5086 27.3369 10.2332C27.4778 10.0521 27.5466 9.85138 27.7166 9.68142C27.8937 9.50429 28.0858 9.53286 28.3226 9.53286C28.4019 9.53286 28.4863 9.55975 28.5443 9.61775C28.5851 9.65863 28.6292 9.79201 28.6292 9.66019C28.6292 9.53987 28.5506 9.47886 28.5112 9.37251C28.4556 9.22224 28.4594 9.07258 28.4594 8.91505C28.4594 8.81294 28.5339 7.35611 28.4358 7.32809C28.3115 7.29259 28.2602 7.46101 28.2047 7.54032C28.0501 7.76112 27.9005 7.98572 27.7331 8.19821C27.2688 8.78755 26.7767 9.35134 26.2947 9.92429C25.6716 10.6649 25.1772 11.5981 24.7455 12.4615C24.711 12.5305 24.1145 13.5945 24.097 13.5887C24.0791 13.5827 24.973 12.4592 25.0213 12.4002C25.404 11.9339 25.9287 11.6042 26.3277 11.1458C26.6272 10.8016 27.091 10.5978 27.3558 10.2214C27.4599 10.0735 27.6465 10.0108 27.7614 9.896C27.8372 9.82017 28.0774 9.78091 28.0774 9.63897C28.0774 9.55063 27.8245 9.17204 27.7378 9.11785C27.5762 9.01684 27.6112 8.49379 27.6859 8.34441C27.7258 8.26476 27.8284 8.25952 27.9076 8.25952C28.0516 8.25952 28.0523 8.33831 28.0774 8.47646C28.1142 8.67897 28.1623 8.87348 28.1623 9.08012C28.1623 9.24398 28.1458 8.75267 28.1292 8.58964C28.0986 8.28734 28.0993 7.94262 28.1646 7.64879C28.2321 7.34528 28.2471 8.26695 28.2471 8.57785C28.2471 8.72045 28.2759 8.89997 28.2448 9.04003C28.2372 9.07401 28.0413 9.08361 28.0019 9.10841C27.5995 9.36175 27.3047 9.77015 27.0163 10.1365C26.7564 10.4666 26.3651 10.7235 26.1485 11.0845C26.0323 11.2782 25.8953 11.4439 25.7453 11.6127C25.7062 11.6566 25.5781 11.8626 25.5118 11.8626C25.4108 11.8626 25.5512 11.3642 25.5755 11.3155C25.7243 11.0179 25.9901 10.764 26.2098 10.5185C26.6234 10.0562 27.1047 9.71755 27.4572 9.19802C27.5271 9.09506 27.7477 8.80267 27.6482 8.87733C27.5893 8.92153 27.5097 8.95809 27.4407 8.98108" stroke="black" stroke-width="0.467313" stroke-linecap="round"/>
<path d="M28.5444 9.19336C28.5444 9.54375 28.5477 9.88306 28.6906 10.2097C28.8257 10.5184 28.9291 10.8867 28.9901 11.2189C29.0897 11.7613 29.1386 12.3381 29.1386 12.8884C29.1386 13.674 29.266 14.4569 29.266 15.2464C29.266 16.3028 29.3084 17.3583 29.3084 18.4133C29.3084 19.6099 29.4357 20.7905 29.4357 21.9881C29.4357 22.5206 29.5531 23.2201 29.3084 23.7094C29.1792 23.968 28.8737 24.01 28.6293 24.0915" stroke="black" stroke-width="0.467313" stroke-linecap="round"/>
<path d="M28.7565 7.75049C28.7565 8.34122 29.0242 8.92247 29.1786 9.48836C29.3824 10.2359 29.4384 10.9948 29.4992 11.7615C29.6451 13.5992 29.7378 15.4376 30.0298 17.2581C30.2897 18.8788 30.195 20.5662 29.8813 22.1699C29.8046 22.5617 29.6418 22.9087 29.5299 23.2853C29.4727 23.4776 29.3742 23.837 29.1385 23.837" stroke="black" stroke-width="0.467313" stroke-linecap="round"/>
<path d="M28.502 8.59912C28.502 9.11324 28.8434 9.51429 29.0114 9.97622C29.0584 10.1057 29.16 10.1866 29.1788 10.337C29.1956 10.4714 29.2466 10.6394 29.299 10.7638C29.3742 10.9422 29.3085 11.273 29.3085 11.4641C29.3085 11.9483 29.3934 12.4219 29.3934 12.9096C29.3934 13.8766 29.4795 14.8554 29.5961 15.8147C29.7138 16.7822 29.7329 17.793 29.7329 18.767C29.7329 19.3518 29.7329 19.9366 29.7329 20.5214C29.7329 20.7966 29.6578 21.0595 29.648 21.3231C29.6361 21.6456 29.6814 22.1481 29.4358 22.3937" stroke="black" stroke-width="0.467313" stroke-linecap="round"/>
<path d="M28.0774 24.4312C28.0774 25.0909 27.7856 25.6144 27.5162 26.1997C27.3259 26.6131 27.0105 26.918 26.7427 27.2749C26.4563 27.6568 26.2019 28.0633 25.9127 28.4445C25.4085 29.1091 24.9544 29.6319 24.2385 30.0763C23.3793 30.6096 22.4456 30.9996 21.6022 31.5619C21.2706 31.783 20.862 31.8952 20.4821 32.0052C20.036 32.1343 19.6236 32.346 19.1829 32.4862C18.4441 32.7213 17.745 32.7808 16.9781 32.8376C16.2635 32.8905 15.5394 33.0293 14.8346 33.13C14.6792 33.1522 14.0562 33.2732 13.9857 33.1323" stroke="black" stroke-width="0.467313" stroke-linecap="round"/>
<path d="M28.2046 24.6436C28.2046 25.1462 27.7256 25.6811 27.45 26.0678C27.1393 26.5038 26.8653 26.959 26.4856 27.3388C25.8438 27.9806 25.1356 28.5282 24.4364 29.1002C23.7924 29.6272 22.9216 29.9829 22.1586 30.3099C21.4843 30.5989 20.8101 30.8628 20.0882 31.0197C19.2061 31.2115 18.4098 31.6933 17.5745 32.0101C17.1487 32.1716 16.6674 32.3862 16.214 32.4534C15.903 32.4994 15.524 32.5254 15.2259 32.6137C14.8769 32.7171 14.3649 32.6232 14.0068 32.6232C13.8137 32.6232 14.1492 32.747 14.1978 32.7929C14.4519 33.0329 15.0042 32.9203 15.3203 32.9203C16.0218 32.9203 16.5946 32.6201 17.2633 32.4864C17.6089 32.4173 17.9389 32.2844 18.282 32.2081C18.6583 32.1245 19.0432 32.093 19.4185 32.0077C19.7162 31.9401 20.0156 31.8697 20.3122 31.7955C20.6001 31.7235 20.8357 31.5741 21.1163 31.4772C21.6062 31.3079 22.0614 31.0365 22.5406 30.8405C23.0049 30.6505 23.3597 30.3187 23.7903 30.0765C24.1254 29.888 24.432 29.6404 24.7265 29.395C25.0354 29.1375 25.418 28.9991 25.6673 28.6758C25.8128 28.4872 25.9902 28.3721 25.6485 28.5673C24.7766 29.0655 23.9212 29.5968 23.09 30.1614C22.5052 30.5586 21.8568 30.8733 21.1847 31.0928C20.6533 31.2663 20.1079 31.3309 19.5553 31.4017C19.3869 31.4233 18.1202 31.894 18.1027 31.8592" stroke="black" stroke-width="0.467313" stroke-linecap="round"/>
<path d="M13.9858 32.2832C13.9284 32.4363 12.7061 32.3115 12.5852 32.262C12.1957 32.1027 11.7612 31.9945 11.3543 31.88C11.0106 31.7834 10.624 31.7501 10.3073 31.5782C9.80001 31.3028 9.39001 31.0511 9.05282 30.576C8.63966 29.9938 8.242 29.4015 7.88323 28.7839C7.47702 28.0847 7.2478 27.2828 6.89757 26.5532C6.71049 26.1634 6.65212 25.7166 6.38824 25.3647" stroke="black" stroke-width="0.467313" stroke-linecap="round"/>
<path d="M12.1606 32.0711C11.8546 32.0711 11.5246 32.1088 11.2316 32.0074C10.9594 31.9132 10.7243 31.6581 10.5265 31.4603C9.70187 30.6357 8.92515 29.7013 8.2463 28.751C7.75772 28.0669 7.31037 27.3756 7.02719 26.5792C6.89096 26.196 6.715 25.8514 6.54851 25.4827C6.44893 25.2622 6.38971 25.0268 6.21838 24.8555" stroke="black" stroke-width="0.467313" stroke-linecap="round"/>
<path d="M6.00635 24.8134C5.96979 24.3381 5.9639 23.8673 5.9639 23.3892C5.9639 22.6808 5.7395 21.9426 5.57954 21.2528C5.15164 19.4075 4.90334 17.5221 4.82733 15.6312C4.76961 14.1954 4.81226 12.7482 4.8179 11.3113C4.8225 10.1381 5.03012 8.98651 5.03012 7.8096C5.03012 7.20404 5.15745 6.61042 5.15745 6.01042C5.15745 5.81618 5.08521 5.78555 5.24234 5.62842" stroke="black" stroke-width="0.467313" stroke-linecap="round"/>
<path d="M6.6853 25.068C6.67242 24.6173 6.37773 24.1807 6.19955 23.7758C6.10988 23.572 6.03073 23.3646 5.94252 23.1603C5.92629 23.1227 5.79312 22.6715 5.76095 22.6675C5.71876 22.6622 5.82572 23.0956 5.82697 23.1014C5.89971 23.436 5.96612 23.796 6.00619 24.1366C6.03921 24.4173 6.08886 24.6476 6.19955 24.9006C6.34273 25.2278 6.4867 25.6336 6.6853 25.9263C6.8829 26.2175 6.62972 25.5595 6.60041 25.483C6.5252 25.2866 6.2607 24.733 6.40941 24.8817C6.63408 25.1064 6.79013 25.4948 6.94233 25.7707C7.1167 26.0867 7.16984 26.3755 7.27009 26.7139C7.41022 27.1868 6.71364 25.892 6.52024 25.4382C5.9925 24.2 5.8246 22.867 5.44497 21.5875C4.98106 20.024 4.28487 18.4504 4.22587 16.7983C4.20455 16.2015 4.06253 15.6501 4.10561 15.0416C4.13892 14.571 4.12643 14.0446 4.3084 13.6079" stroke="black" stroke-width="0.467313" stroke-linecap="round"/>
<path d="M4.35084 13.5655C4.35084 13.1489 4.35084 12.7323 4.35084 12.3158C4.35084 12.2526 4.37262 11.8635 4.39093 12.1106C4.43106 12.6523 4.46333 13.2016 4.47582 13.7447C4.5058 15.0489 4.43573 16.3575 4.43573 17.6638C4.43573 17.9352 4.39918 18.2393 4.45931 18.5056C4.5073 18.7181 4.62946 18.9202 4.71162 19.1211C4.92414 19.6405 4.83156 18.9104 4.79651 18.7391C4.68732 18.2052 4.60551 17.6663 4.60551 17.1214C4.60551 15.9569 4.54269 14.8116 4.47818 13.6504" stroke="black" stroke-width="0.467313" stroke-linecap="round"/>
<path d="M11.1418 11.1885C11.1395 11.205 10.7217 10.8132 10.6584 10.7452C10.4106 10.479 10.1883 10.1743 9.95572 9.89393C9.39827 9.22171 8.73292 8.60982 8.11409 7.99099C7.59512 7.47202 7.08188 6.93468 6.66389 6.33093C6.41713 5.97449 6.16018 5.51637 5.815 5.24623C5.78161 5.22009 5.46745 4.94594 5.59099 5.1189C5.80107 5.41301 6.00586 5.70957 6.21351 6.00552C6.53958 6.47027 6.85205 6.94143 7.22747 7.36847C7.51461 7.69509 7.83457 8.01925 8.05278 8.39657C8.53469 9.22987 9.24126 9.89044 9.92035 10.5613C10.4124 11.0474 10.9328 11.5188 11.4719 11.9525C11.5861 12.0443 11.7013 12.1252 11.8021 12.226C11.8969 12.3209 11.4948 12.0642 11.4554 12.0327C10.6426 11.3824 9.88093 10.6581 9.17049 9.89864C8.89026 9.59909 8.56869 9.33838 8.30273 9.02617C8.03515 8.71205 7.77815 8.40421 7.46799 8.13011C7.11042 7.81412 6.81957 7.47775 6.5625 7.07607C6.45923 6.91471 6.36581 6.75027 6.24652 6.59974C6.23505 6.58527 6.13744 6.4435 6.2253 6.53136C6.97404 7.28011 7.77516 7.96955 8.40649 8.82573C8.63506 9.13572 8.93764 9.36337 9.18935 9.65105C9.38777 9.87781 9.57055 10.1266 9.78358 10.3396C10.0774 10.6334 10.5349 10.7761 10.8636 11.0376C11.2654 11.3572 11.6918 11.6245 12.118 11.9101C12.3171 12.0434 12.7325 12.2052 12.8396 12.4194" stroke="black" stroke-width="0.467313" stroke-linecap="round"/>
</svg>
