<svg width="36" height="38" viewBox="0 0 36 38" fill="none" xmlns="http://www.w3.org/2000/svg">
<rect x="-0.519772" y="0.519772" width="34.305" height="35.8643" rx="4.67795" transform="matrix(-1 0 0 1 34.6494 0.807617)" fill="#95B7FF" stroke="black" stroke-width="1.03954"/>
<path d="M16.4554 11.8015C16.7312 11.7454 17.007 11.6893 17.2829 11.6332C17.8269 11.5226 18.1747 11.258 18.628 10.9535C19.1174 10.6249 19.5739 10.2469 20.0726 9.92976C21.1196 9.26386 22.4561 8.95256 23.6798 8.84152C26.0285 8.62838 28.5489 10.3828 29.1002 12.7183C29.2397 13.3091 29.3411 13.8912 29.2132 14.492C29.0377 15.3168 28.7182 16.1177 28.3695 16.8794C27.483 18.8155 26.1214 20.6044 24.6917 22.1564C23.2788 23.6901 21.7725 25.1061 20.1583 26.4199C19.0574 27.3159 17.9799 28.24 16.9167 29.1817C16.195 29.8209 15.5098 30.5197 14.7393 31.0999C14.0664 31.6066 13.3105 32.0955 12.5347 32.4247C12.3672 32.4958 12.1765 32.654 11.9841 32.6498C11.6289 32.6421 11.3323 31.5849 11.2565 31.3711C10.9051 30.3794 10.699 29.3379 10.4874 28.3093C10.2827 27.3146 10.0832 26.3239 9.97908 25.3127C9.68098 22.4179 9.3539 19.5393 8.95941 16.6571C8.82006 15.639 8.66889 14.6251 8.64267 13.5958C8.61171 12.3802 8.79133 11.1116 9.04419 9.92834C9.25688 8.93305 9.62218 7.92918 10.1097 7.04095C10.5358 6.2648 11.0646 5.66941 11.9382 5.41988C12.6389 5.21976 13.3357 5.10451 14.0325 5.37958C14.6169 5.61028 15.1413 5.92538 15.6336 6.31868C16.35 6.89099 17.0456 7.55036 17.567 8.30833C17.8249 8.68311 18.0551 9.03408 18.2514 9.44926C18.3392 9.63506 18.6057 9.88768 18.8129 9.92373C19.0218 9.9601 19.2065 9.91639 19.4134 9.90699C19.778 9.89044 20.1235 9.92383 20.4394 9.69579" stroke="black" stroke-width="1.03954" stroke-linecap="round"/>
<path d="M21.375 15.5442C20.926 15.5442 22.273 15.5371 22.7219 15.5442C23.3905 15.5547 24.1291 15.7446 24.5855 16.269C24.8432 16.5652 25.0626 16.8919 25.2242 17.2494C25.2774 17.3669 25.3107 17.4854 25.3492 17.6076C25.3527 17.6188 25.3813 17.7417 25.3867 17.7396C25.477 17.7034 24.898 16.8012 24.8632 16.755C24.5843 16.3848 24.1932 16.1645 23.7995 15.9441C23.2112 15.6146 22.3886 15.5692 21.7263 15.5692C21.4586 15.5692 21.201 15.6254 20.9542 15.7302C20.9064 15.7506 20.6683 15.819 20.7001 15.8747C20.7511 15.9638 20.7576 16.0765 20.7807 16.1746C20.8316 16.3913 20.9045 16.6002 20.9876 16.8064C21.1767 17.2757 21.4692 17.5646 21.8638 17.8743C22.5762 18.4332 23.3272 18.817 24.2383 18.8991C24.5886 18.9306 25.014 18.8288 25.2742 18.5686" stroke="black" stroke-width="1.03954" stroke-linecap="round"/>
<path d="M23.5499 16.8186C23.5499 17.3136 23.6289 17.9655 23.1361 18.2641C23.0375 18.3239 22.7733 18.3679 22.689 18.2614C22.5003 18.0231 22.5566 17.5813 22.6556 17.3241C22.7414 17.1013 22.8584 16.8697 23.1 16.7936C23.2029 16.7612 23.4281 16.7294 23.5249 16.7867C23.6865 16.8822 23.6901 17.2648 23.6332 17.4185C23.5613 17.613 23.3124 17.6758 23.1278 17.667C22.8764 17.6551 22.8226 17.3518 22.8292 17.1463C22.8373 16.8949 23.0203 16.5859 23.275 16.5187C23.3854 16.4895 23.5624 16.4658 23.6749 16.5048C23.8662 16.571 23.8248 16.7973 23.8248 16.9561C23.8248 17.4324 23.4804 17.8517 23 17.9128C22.7856 17.9401 22.7326 17.7009 22.7265 17.5421C22.7167 17.2888 22.7835 17.0974 22.875 16.8686" stroke="black" stroke-width="1.03954" stroke-linecap="round"/>
<path d="M17.1011 15.4941C17.1011 14.6217 17.1749 13.7838 16.654 13.0279C16.3146 12.5355 15.8682 12.0224 15.3154 11.7699C14.8319 11.549 14.2448 11.4507 13.7129 11.4449C13.5908 11.4436 13.4685 11.4449 13.3463 11.4449C13.0448 11.4449 12.8622 11.8172 12.727 12.0393C12.5391 12.348 12.4751 12.6439 12.4771 13.0057C12.4812 13.7641 12.694 14.5517 13.0672 15.2136C13.5912 16.1429 14.7239 16.6387 15.7375 16.755C16.0517 16.791 16.4318 16.7409 16.6387 16.4925C16.7703 16.3347 16.7329 16.1237 16.7901 15.944C16.8397 15.7881 16.845 15.6422 16.8526 15.4802C16.8617 15.2831 16.9012 15.0929 16.9012 14.8942" stroke="black" stroke-width="1.03954" stroke-linecap="round"/>
<path d="M16.4512 13.8943C16.2297 14.0651 16.0513 14.2817 15.8124 14.4317C15.5728 14.5822 15.311 14.6686 15.0348 14.7247C14.6536 14.8021 14.1051 14.7769 14.0016 14.2998C13.7864 13.3071 15.2459 12.8993 15.9707 12.8945C16.2205 12.8929 16.5721 12.8694 16.5983 13.1972C16.6343 13.6466 16.3858 13.9975 16.0651 14.2901C15.7659 14.563 15.3769 14.6821 14.9764 14.7136C14.7822 14.7289 14.4777 14.7601 14.4168 14.5164C14.3427 14.22 14.7102 13.8637 14.9126 13.6999C15.155 13.5037 15.411 13.3616 15.7263 13.3458C15.7878 13.3427 16.0512 13.3056 16.0512 13.4139C16.0512 13.5664 15.7346 13.6671 15.6277 13.718C15.4358 13.8093 15.2385 13.8723 15.0431 13.9499C14.971 13.9785 14.8784 14.0443 14.8015 14.0443" stroke="black" stroke-width="1.03954" stroke-linecap="round"/>
<path d="M14.7765 19.693C15.0142 19.5483 15.2442 19.4144 15.5097 19.3223C15.9509 19.1691 16.4169 19.17 16.8788 19.1681C17.3213 19.1664 17.745 19.1747 18.1522 19.3737C18.5543 19.5701 18.9333 19.9261 19.1714 20.304C19.2134 20.3706 19.4774 20.7161 19.4089 20.8095C19.1178 21.2064 18.8981 21.6166 18.4619 21.8898C18.1398 22.0916 17.7266 22.1484 17.3551 22.1786C16.9248 22.2137 16.4826 22.2395 16.0512 22.2064C15.4173 22.1578 14.8187 21.9343 14.378 21.4677C14.1469 21.223 14.1251 20.8398 14.1544 20.5179C14.1747 20.2941 14.333 20.1236 14.4016 19.918" stroke="black" stroke-width="1.03954" stroke-linecap="round"/>
<path d="M16.7011 19.6684C16.8996 19.6684 16.8511 20.3606 16.8511 20.471C16.8511 20.7253 16.8818 21.2213 16.5706 21.343C16.3779 21.4184 16.2642 21.2488 16.1901 21.0931C16.0208 20.7369 15.9121 20.3103 15.9554 19.9128C16.002 19.4864 16.714 19.4337 16.9844 19.6489C17.1573 19.7865 17.248 20.0434 17.276 20.2544C17.3086 20.4995 17.3395 20.805 17.2857 21.05C17.2498 21.2137 17.0762 21.2554 16.9261 21.2347C16.5772 21.1866 16.408 20.7396 16.3568 20.4432C16.3118 20.1833 16.2856 19.6434 16.6761 19.6434C16.9974 19.6434 17.0155 20.086 17.0261 20.3182" stroke="black" stroke-width="1.03954" stroke-linecap="round"/>
<path d="M10.6023 19.4434C10.7705 19.4434 10.9541 19.4218 11.1161 19.474C11.4173 19.571 11.6737 19.9466 11.8493 20.1905C12.3068 20.826 12.4433 21.5538 12.4269 22.3289C12.4179 22.7565 12.1945 23.1209 12.0048 23.4898C11.963 23.5712 11.8543 23.8549 11.8784 23.6259C11.887 23.5441 11.8969 23.4635 11.9034 23.3815C11.9057 23.3525 11.929 23.2272 11.927 23.3287C11.9217 23.6012 11.7752 23.9336 11.616 24.1508C11.5278 24.2711 11.4552 24.1724 11.3466 24.0855C11.0312 23.8332 10.8048 23.5215 10.5468 23.2177C10.187 22.7941 9.82415 22.3995 9.71498 21.8415C9.61522 21.3317 9.59741 20.7733 9.80246 20.2877C9.85437 20.1647 9.92407 20.0368 9.98992 19.9197C10.0275 19.8528 10.1024 19.7708 10.1024 19.6934" stroke="black" stroke-width="1.03954" stroke-linecap="round"/>
<path d="M11.9521 21.4428C11.8292 21.4428 11.6999 21.5976 11.6036 21.665C11.5089 21.7313 11.313 21.6928 11.2023 21.6928C10.9901 21.6928 10.7963 21.5754 10.8579 21.3234C10.9134 21.0966 11.4664 20.8116 11.6897 20.9318C11.8546 21.0206 11.8272 21.1767 11.8272 21.3373C11.8272 21.5525 11.6566 21.8716 11.4259 21.9177C11.2493 21.953 10.9694 22.0568 10.8829 21.8233C10.6839 21.286 11.436 20.7848 11.9022 21.0179" stroke="black" stroke-width="1.03954" stroke-linecap="round"/>
<path d="M14.8016 26.6167C14.8016 26.3687 14.9693 26.1661 15.1391 25.9919C15.4446 25.6782 15.9983 25.5728 16.418 25.5475C17.0793 25.5077 17.7651 25.5762 18.3204 25.9669C18.7713 26.2842 18.3323 26.9836 18.1468 27.3083C17.6149 28.2391 16.3616 28.8564 15.4293 28.1053C15.0639 27.811 14.9424 27.3389 14.8016 26.9167" stroke="black" stroke-width="1.03954" stroke-linecap="round"/>
<path d="M16.5263 26.2168C16.5967 26.3664 16.5513 26.6063 16.5513 26.7653C16.5513 26.7994 16.5686 27.267 16.4763 27.1055C16.3711 26.9215 16.3036 26.7521 16.2569 26.5417C16.2342 26.4398 16.2152 26.164 16.3263 26.3806C16.432 26.5867 16.4879 26.8294 16.6012 27.0277C16.6419 27.0988 16.7906 27.0772 16.8387 27.0291C16.9531 26.9147 17.1379 26.179 16.8762 26.0918" stroke="black" stroke-width="1.03954" stroke-linecap="round"/>
<path d="M25.8492 11.5449C25.8386 11.6404 25.7037 11.7641 25.6465 11.8324C25.5204 11.9827 25.3233 12.2096 25.1452 12.2934C24.904 12.4069 24.6464 12.4672 24.3842 12.5072C24.1273 12.5464 23.7955 12.6094 23.5621 12.4711C23.2096 12.2622 22.9649 11.9314 22.7054 11.6199C22.543 11.4251 22.3351 11.0944 22.4443 10.8395C22.5336 10.6311 22.6243 10.3985 22.7873 10.2355C22.9894 10.0334 23.258 9.93509 23.5233 9.84667C24.129 9.64475 24.8321 9.65498 25.409 9.93277C25.8921 10.1654 25.8742 10.7233 25.8742 11.17" stroke="black" stroke-width="1.03954" stroke-linecap="round"/>
<path d="M24.5745 10.4448C24.5745 10.6422 24.6312 10.9402 24.53 11.1142C24.4439 11.2624 24.2873 11.2783 24.144 11.1891C23.7783 10.9616 23.8996 10.418 23.8996 10.0449" stroke="black" stroke-width="1.03954" stroke-linecap="round"/>
<path d="M17.7227 10.2744C17.7801 10.2744 18.1365 10.2744 18.0003 10.2744C17.9 10.2744 17.6092 10.2614 17.6092 10.1041C17.6092 10.0398 17.8273 10.0698 17.8666 10.0751C18.0599 10.1009 18.049 10.3169 17.9044 10.4056C17.8165 10.4597 17.5784 10.5134 17.5537 10.3653C17.5298 10.2223 18.1368 10.2709 18.2299 10.2757C18.3261 10.2806 18.3813 10.2979 18.3813 10.4006C18.3813 10.6636 17.7545 10.6111 17.6117 10.5659C17.221 10.442 16.8968 10.0759 16.7613 9.69405C16.7086 9.54535 16.7025 9.38369 16.673 9.22974C16.6303 9.00731 16.5665 8.78997 16.4787 8.58123C16.4281 8.46101 16.2107 8.00389 16.4888 8.30618C16.8969 8.7498 17.1358 9.29902 17.3997 9.83283C17.4031 9.83972 17.4678 9.98593 17.4805 9.98171C17.487 9.97953 17.2077 9.44753 17.1953 9.42404C17.0531 9.15457 16.894 8.88949 16.7714 8.61025C16.7115 8.47376 16.793 8.50615 16.8799 8.5888C17.2014 8.89444 17.406 9.3539 17.5802 9.75209C17.777 10.202 17.9471 10.6747 18.0672 11.1513C18.0694 11.16 18.1499 11.4999 18.1214 11.4869C18.0489 11.4539 17.9788 11.3465 17.9347 11.2888C17.8086 11.1241 17.6956 10.9493 17.589 10.7715C17.256 10.2166 17.005 9.6144 16.7462 9.02282C16.7345 8.99618 16.5084 8.63025 16.5014 8.64431C16.4835 8.68006 16.5002 8.78808 16.5027 8.81212C16.524 9.02367 16.5724 9.23126 16.615 9.43918C16.728 9.99126 16.8181 10.548 16.9329 11.0996C16.9604 11.2316 16.9864 11.3639 17.0137 11.4958C17.0374 11.6107 16.785 11.4328 16.6831 11.3746C16.2565 11.1313 15.846 10.854 15.4416 10.576C15.2463 10.4417 15.0519 10.3051 14.8637 10.1609C14.846 10.1473 14.7135 10.0607 14.7022 10.0196C14.6906 9.97696 14.7895 10.039 14.8284 10.0599C14.9805 10.142 15.1244 10.2424 15.2675 10.3388C15.6191 10.5756 15.9658 10.8223 16.3059 11.0756C16.4174 11.1587 16.6338 11.2756 16.7083 11.3999C16.7496 11.4686 16.5627 11.3327 16.4913 11.2964C16.2348 11.1659 15.9765 11.0392 15.7179 10.9128C15.3363 10.7264 14.9442 10.5511 14.5773 10.3363C14.5547 10.323 14.4434 10.2716 14.4272 10.2391C14.393 10.1708 14.5719 10.2888 14.6417 10.3199C15.0222 10.4893 15.4521 10.7099 15.7772 10.9785C15.9175 11.0944 15.4213 10.9005 15.2473 10.8472C14.9378 10.7525 14.6401 10.6436 14.3389 10.5268C14.1884 10.4684 14.3496 10.5014 14.4171 10.5116C14.5626 10.5336 14.7109 10.5796 14.8461 10.6378C14.8527 10.6407 14.992 10.6964 14.9344 10.7009C14.4531 10.7379 13.9251 10.63 13.4557 10.5394C13.2169 10.4933 12.9803 10.4295 12.7516 10.3463C12.6014 10.2917 12.6977 10.3 12.7908 10.3363C12.9688 10.4057 13.1429 10.4855 13.3207 10.5558C13.3565 10.57 13.4821 10.6037 13.4948 10.6479C13.4999 10.6657 13.4591 10.6614 13.4405 10.6605C13.3222 10.6551 13.2072 10.6261 13.0936 10.5949C12.668 10.478 12.2426 10.3442 11.8268 10.1962C11.6379 10.1289 11.4402 10.0616 11.2603 9.97162C11.1776 9.93028 11.431 10.0431 11.5139 10.0839C11.7486 10.1994 11.9814 10.3254 12.2217 10.4284C12.3988 10.5043 11.8655 10.2794 11.6969 10.1861C11.3768 10.009 11.0432 9.82543 10.7884 9.55778C10.6032 9.36323 10.533 9.17671 10.8313 9.0632C11.3017 8.8842 11.7167 9.25304 11.8028 9.70162C11.8225 9.80381 11.8488 9.9822 11.7625 10.0637C11.5478 10.2665 11.2465 10.0113 11.1253 9.8404C10.8105 9.39652 10.8465 8.75336 10.8465 8.23426C10.8465 8.08355 10.8254 7.74434 10.9197 7.60972C10.9462 7.57176 10.9309 7.70232 10.9272 7.74851C10.9138 7.91838 10.8757 8.08098 10.8238 8.24309C10.7093 8.60035 10.5589 8.96949 10.3607 9.28904C10.3271 9.34325 10.2056 9.54027 10.1626 9.38367C10.0842 9.09805 10.1343 8.73012 10.1853 8.44496C10.224 8.22914 10.2675 8.00329 10.3418 7.79645C10.347 7.78186 10.4479 7.58449 10.4503 7.5971C10.5027 7.86672 10.2944 8.24374 10.1879 8.47272C10.049 8.77126 9.87789 9.05184 9.72104 9.34077C9.71287 9.35582 9.70472 9.37088 9.69707 9.38619C9.68494 9.41045 9.7243 9.33927 9.73744 9.31554C9.82258 9.16182 9.90183 9.00562 9.9759 8.84618C10.2054 8.35222 10.393 7.84541 10.5866 7.33719C10.6229 7.24173 10.659 7.14684 10.69 7.04952C10.6984 7.02332 10.7087 6.95024 10.7228 6.97382C10.7421 7.0059 10.7279 7.14586 10.7279 7.16434C10.7279 7.37782 10.7249 7.59079 10.7127 7.80402C10.6934 8.14226 10.6576 8.47862 10.6156 8.81464C10.6149 8.81996 10.5626 9.17099 10.6131 9.02913C10.9038 8.21234 11.1066 7.36724 11.4029 6.55241C11.4853 6.32576 11.4515 6.70364 11.4508 6.75807C11.4432 7.39247 11.3617 8.02109 11.2401 8.64305C11.1993 8.85213 11.1505 9.05924 11.1064 9.26759C11.0891 9.34941 11.0828 9.45129 11.0471 9.52876C11.031 9.56352 11.0219 9.45473 11.0231 9.41647C11.0308 9.16673 11.0756 8.91837 11.1203 8.67333C11.2021 8.22498 11.3052 7.78259 11.4218 7.34224C11.4618 7.19113 11.49 7.03013 11.5631 6.89055C11.5818 6.85488 11.5914 6.87986 11.5959 6.91074C11.6291 7.13898 11.6175 7.38023 11.6085 7.60972C11.5974 7.89502 11.5675 8.18307 11.495 8.4601C11.4478 8.64025 11.4298 8.50421 11.4319 8.39702C11.4403 7.97528 11.5103 7.53648 11.6868 7.15046C11.79 6.92465 11.9566 6.6597 12.2444 6.71644C12.603 6.78711 12.744 7.13126 12.8475 7.44191C13.0074 7.92151 13.0794 8.41846 13.0645 8.92315C13.0594 9.09848 13.0627 9.33385 12.893 9.44045C12.7336 9.54053 12.5733 9.45117 12.4602 9.32689C12.1074 8.93937 11.776 8.14916 12.1738 7.68164C12.2801 7.55664 12.4314 7.44576 12.6002 7.43939C12.806 7.43162 12.8137 7.60133 12.8261 7.77248C12.8478 8.07183 12.8431 8.38294 12.7542 8.67207C12.7127 8.80681 12.6417 8.98566 12.4993 9.04301C12.0656 9.21768 12.1508 7.72122 12.2495 7.51888C12.3723 7.26698 12.6144 6.94318 12.9308 6.96373C13.2226 6.98268 13.4571 7.27058 13.597 7.49869C13.7621 7.76794 13.8647 8.08345 13.8973 8.39702C13.9098 8.51791 13.9501 8.76417 13.7736 8.80076C13.4611 8.86558 13.1299 8.35247 13.0229 8.12954C12.8884 7.84924 12.7472 7.32303 12.9182 7.02934C13.0929 6.72924 13.5049 6.88928 13.7282 7.02681C14.1849 7.30812 14.4587 7.86694 14.6593 8.34529C14.7792 8.6312 14.8512 8.94717 14.8599 9.2575C14.8615 9.31395 14.9029 9.5335 14.7855 9.44171C14.6201 9.31239 14.4911 9.10696 14.3767 8.93703C14.1382 8.58274 13.9245 8.2121 13.7282 7.83304C13.6088 7.60246 13.4891 7.36685 13.4279 7.11261C13.403 7.00907 13.3171 6.73991 13.4166 6.64578C13.4885 6.57771 13.6432 6.64999 13.6967 6.67228C14.0174 6.80608 14.2984 7.04103 14.5508 7.27411C15.3009 7.96682 15.9237 8.80303 16.4787 9.6562C16.6667 9.94516 16.8559 10.2414 17.0212 10.5444C17.0762 10.6453 17.0725 10.6645 16.9783 10.5848C16.4504 10.1384 15.9681 9.6366 15.5602 9.07834C15.5381 9.04812 15.3819 8.81909 15.4113 8.85502C15.5947 9.07913 15.7572 9.32285 15.8819 9.58428C15.9648 9.75806 16.0398 9.93629 16.1103 10.1155C16.137 10.1833 16.1938 10.3159 16.075 10.2164C15.6552 9.86468 15.2706 9.44438 14.9142 9.03039C14.6922 8.77245 14.3823 8.46371 14.2632 8.13206C14.2151 7.99822 14.6328 8.15662 14.6543 8.16487C14.9546 8.28029 15.2513 8.41911 15.5375 8.56609C15.5672 8.58137 15.8277 8.76014 15.8504 8.67207C15.9143 8.4236 15.8312 8.09965 15.7646 7.86206C15.7067 7.65583 15.6357 7.4504 15.5337 7.26149C15.4988 7.19679 15.4028 7.10274 15.5362 7.15551C15.7264 7.23069 15.9114 7.33699 16.0863 7.44191C16.1723 7.49351 16.2857 7.54389 16.3639 7.60467C16.6775 7.84858 15.7106 7.1519 15.3949 6.91074C15.123 6.70305 14.837 6.539 14.5142 6.42372C14.2858 6.34213 14.0585 6.25961 13.8317 6.1739C13.7303 6.13561 13.5807 6.16381 13.4759 6.16381C13.2541 6.16381 13.0393 6.20923 12.8173 6.20923C12.681 6.20923 12.5447 6.20923 12.4085 6.20923C12.0912 6.20923 11.7716 6.28297 11.5 6.44895C11.3867 6.51824 11.3037 6.66111 11.2275 6.7669C11.0727 6.9819 11.0913 7.27424 11.2048 7.50374C11.4227 7.94409 11.7342 8.43005 12.1788 8.6645C12.5395 8.85468 12.9598 8.88275 13.3219 9.07077C13.5911 9.21053 13.8433 9.35057 14.089 9.53003C14.1267 9.55756 14.427 9.79479 14.2556 9.79751C13.6961 9.80639 12.9414 9.64801 12.6028 10.2202C12.3709 10.612 12.2402 11.1105 12.1246 11.5475C12.0055 11.9972 11.8788 12.4423 11.7524 12.8899C11.7098 13.0408 11.645 13.2296 11.6363 13.3858C11.6344 13.4192 11.6722 13.3287 11.6842 13.2975C11.8316 12.9133 12.0616 12.589 12.3176 12.2679C12.6462 11.856 13.0224 11.5203 13.4809 11.2686C13.6597 11.1705 13.7942 11.0282 13.9477 10.8977C13.9909 10.861 14.0325 10.8349 14.0865 10.8195C14.142 10.8036 13.902 10.7859 13.8947 10.7854C13.2464 10.7449 12.5679 10.8507 12.1044 11.3507C11.6848 11.8032 11.5155 12.4839 11.3562 13.0678C11.3548 13.073 11.3218 13.2446 11.283 13.1953C11.2441 13.1457 11.2414 13.0384 11.2376 12.9846C11.2201 12.7368 11.2242 12.4842 11.2338 12.2364C11.2608 11.5403 11.4326 10.8728 11.6161 10.2038C11.697 9.90882 11.7708 9.55626 11.9315 9.2903C11.9545 9.25225 12.0012 9.18712 12.0451 9.16666C12.0541 9.16243 12.0429 9.18727 12.0375 9.19568C11.9727 9.29658 11.9188 9.40346 11.8685 9.51236C11.3081 10.7235 10.9724 12.0159 10.5285 13.2697C10.4958 13.3622 10.462 13.5734 10.3872 13.6482C10.3865 13.6489 10.3735 13.1098 10.3746 13.088C10.4106 12.3679 10.5353 11.6563 10.6345 10.9431C10.7163 10.3557 10.7785 9.763 10.8768 9.17801C10.8793 9.16297 10.9419 8.73768 10.9663 8.73768C10.9982 8.73768 10.9677 9.28862 10.9676 9.2903C10.9073 10.0438 10.7333 10.796 10.603 11.5399C10.5052 12.0983 10.4082 12.6577 10.3002 13.2142C10.293 13.2512 10.2787 13.4841 10.227 13.5056C10.1373 13.543 10.0859 12.6639 10.0857 12.6578C10.0507 11.8174 10.0622 10.9714 10.0743 10.1306C10.0812 9.65357 10.1309 9.17874 10.1374 8.70235C10.1374 8.70184 10.1374 8.49426 10.1374 8.59132C10.1374 8.78281 10.1008 8.96198 10.0567 9.14899C9.74448 10.4707 9.45485 11.7851 9.24664 13.1284C9.23479 13.2049 9.24327 13.4587 9.17851 13.517C9.11149 13.5773 9.13773 13.3397 9.13813 13.2495C9.14181 12.4262 9.28861 11.6077 9.43211 10.7993C9.46935 10.5895 9.52537 10.3864 9.56837 10.1785C9.58097 10.1177 9.60734 10.0995 9.62767 10.1735C9.72371 10.5227 9.77373 10.8924 9.83459 11.2485C9.96032 11.9841 10.0672 12.7224 10.1702 13.4615C10.2195 13.8149 10.2774 14.167 10.3292 14.52C10.3362 14.5681 10.3387 14.7196 10.3872 14.756C10.4277 14.7864 10.87 13.0432 11.2679 14.0292C11.4879 14.5747 11.5521 15.1791 11.6792 15.7502C11.7191 15.9293 11.7307 16.1934 11.8356 16.3508C11.8579 16.3841 11.9027 16.3969 11.9366 16.3684C11.9969 16.3177 12.0172 16.2144 12.0337 16.1451C12.0819 15.9435 12.1072 15.7347 12.1208 15.5281C12.1639 14.8721 12.075 14.202 12.1372 13.5485C12.1518 13.395 12.2234 13.8447 12.2621 13.9939C12.3602 14.3721 12.4115 14.7514 12.4526 15.1395C12.4795 15.3935 12.4916 15.6498 12.5435 15.9003C12.553 15.9462 12.5876 16.0259 12.5876 16.0732C12.5876 16.1119 12.5426 16.0101 12.522 15.9773C12.392 15.7704 12.2724 15.5583 12.1574 15.3427C11.7742 14.6246 11.4204 13.8913 11.0849 13.1498C11.0056 12.9745 11.0199 13.0052 10.9499 12.8546C10.9254 12.8017 10.8893 12.6447 10.8692 12.6994C10.8392 12.7812 10.8884 13.0214 10.8957 13.0817C10.9361 13.4154 10.9998 13.7448 11.0635 14.0747C11.1851 14.7043 11.2956 15.3318 11.2956 15.9748C11.2956 16.0801 11.1314 15.9764 11.0912 15.947C10.9102 15.8144 10.8527 15.5337 10.7052 15.3616" stroke="black" stroke-width="1.03954" stroke-linecap="round"/>
<path d="M10.7052 15.3613C10.7052 15.6919 10.7052 16.0224 10.7052 16.353C10.7052 16.6011 10.7052 16.8493 10.7052 17.0974C10.7052 17.1897 10.7352 17.3436 10.7027 17.433C10.6839 17.4848 10.6152 17.3643 10.5816 17.3207C10.3568 17.0294 10.1651 16.712 9.9911 16.3883C9.65329 15.7602 9.32721 15.071 9.16469 14.3721C9.14526 14.2886 9.13228 14.2031 9.10665 14.1211C9.10338 14.1106 9.18317 14.2605 9.19371 14.2838C9.42444 14.7954 9.49581 15.3742 9.56717 15.9253C9.58967 16.099 9.61066 16.2731 9.62521 16.4476C9.63796 16.6006 9.64105 16.7542 9.63278 16.4792C9.60595 15.5872 9.62522 14.6953 9.61386 13.8031C9.61192 13.6513 9.58537 13.4891 9.59619 13.3375C9.59856 13.3044 9.68463 13.5497 9.68703 13.5571C9.89308 14.1873 10.0907 14.8238 10.251 15.4673C10.3966 16.0516 10.5554 16.5999 10.5791 17.2059C10.58 17.2311 10.6078 18.0433 10.5589 18.0311C10.4633 18.0072 10.4161 17.7328 10.3999 17.6727C10.2814 17.2327 10.2244 16.7811 10.1753 16.329C10.1627 16.213 10.1443 16.0963 10.1387 15.9795C10.1365 15.9339 10.133 15.8435 10.1425 15.9518C10.195 16.5529 10.1884 17.1581 10.1816 17.7611C10.1779 18.0937 10.1914 18.5249 10.0466 18.8386C10.025 18.8855 9.9788 18.8857 9.95073 18.8486C9.78309 18.6271 9.76576 18.3018 9.74255 18.0361C9.73826 17.987 9.68164 17.4532 9.73876 17.433C9.808 17.4086 9.81951 18.2859 9.81951 18.3528C9.81951 18.3914 9.85807 18.9858 9.77409 18.99C9.61959 18.9977 9.57222 17.3845 9.57222 17.2021C9.57222 17.1566 9.56143 16.4461 9.6883 16.5069C9.78399 16.5528 9.86034 16.6845 9.9154 16.7668C10.1155 17.0662 10.2444 17.3979 10.3633 17.7358C10.4959 18.1129 10.5897 18.5364 10.7734 18.8941C10.8031 18.9519 10.7961 18.8377 10.7961 18.836C10.7989 18.4786 10.7961 18.121 10.7961 17.7636C10.7961 17.5255 10.7961 17.2875 10.7961 17.0495C10.7961 17.0326 10.7734 16.7869 10.8062 16.7744C10.8567 16.7552 10.9491 16.8914 10.9651 16.9132C11.127 17.133 11.2484 17.3892 11.3373 17.6462C11.4812 18.0623 11.575 18.515 11.5682 18.9572C11.5674 19.0102 11.5736 19.1231 11.485 19.0985C11.2798 19.0413 11.1971 18.7257 11.1531 18.5547C11.0588 18.1878 11.0374 17.805 11.027 17.428C11.0191 17.1462 11.0219 16.8835 11.1039 16.6129C11.1723 16.3873 11.2625 16.2515 11.4004 16.5435C11.6386 17.0479 11.6791 17.6409 11.7941 18.1812C11.8317 18.3578 11.8627 18.5377 11.9089 18.7124C11.9264 18.7785 11.9743 18.8526 11.977 18.9218C11.9792 18.9757 11.93 18.8244 11.9139 18.7729C11.7518 18.2526 11.6553 17.7195 11.6086 17.1769C11.5877 16.9343 11.574 16.6899 11.5695 16.4464C11.5681 16.3701 11.5334 16.1685 11.5909 16.0981C11.6925 15.974 12.0392 16.8517 12.0439 16.8653C12.3603 17.7843 12.4589 18.7801 12.4943 19.747C12.4994 19.8849 12.4994 20.0228 12.4994 20.1608C12.4994 20.1743 12.5026 20.2142 12.4994 20.2012C12.4886 20.1583 12.4897 20.096 12.4842 20.0548C12.3706 19.1977 12.1103 18.3597 11.9467 17.5112C11.8532 17.0263 11.7499 16.5146 11.7499 16.0174C11.7499 15.9954 11.7416 15.906 11.7878 15.9543C11.9168 16.0891 11.993 16.2983 12.0716 16.4628C12.3879 17.1239 12.5494 17.8093 12.6079 18.5383C12.6445 18.9948 12.6342 19.4785 12.7378 19.9274C12.7426 19.948 12.7667 20.0343 12.7832 19.9627C12.8442 19.6984 12.8292 19.3974 12.835 19.1287C12.8506 18.4039 12.8597 17.6794 12.7643 16.9599C12.7598 16.9259 12.73 16.8049 12.7517 16.7668C12.7518 16.7667 12.8887 16.9299 12.8955 16.9384C13.1067 17.2006 13.2221 17.5113 13.3939 17.7977C13.406 17.8177 13.4961 17.9615 13.4961 17.9528C13.4961 17.6509 13.3431 17.3222 13.2488 17.0419C13.2081 16.921 13.1655 16.8017 13.1176 16.6836C13.1063 16.6556 13.0818 16.61 13.0911 16.5776C13.0984 16.5521 13.4918 16.9001 13.5062 16.9132C13.7111 17.099 13.8957 17.3028 14.0866 17.5024C14.1585 17.5776 14.2095 17.5444 14.1648 17.4456C14.0716 17.2399 13.8412 17.0902 13.6626 16.9662C13.4795 16.839 13.6597 16.9474 13.7611 16.994C14.2226 17.206 14.7031 17.4507 15.2196 17.4507C15.5021 17.4507 15.7762 17.3886 16.0599 17.3826C16.4205 17.3749 16.7713 17.2236 17.1323 17.2236" stroke="black" stroke-width="1.03954" stroke-linecap="round"/>
<path d="M17.2232 17.7914C17.2232 17.4297 17.2232 18.5148 17.2232 18.8765C17.2232 19.0177 17.0931 18.8166 17.0756 18.7781C17.039 18.6975 17.0642 18.5655 17.0642 18.4803C17.0642 18.2946 17.0757 18.1139 17.121 17.9327C17.1499 17.8173 17.1655 17.6098 17.3254 17.6098C17.362 17.6098 17.4345 17.5955 17.4604 17.6262C17.5605 17.7444 17.4428 17.9643 17.3822 18.069C17.2216 18.3466 16.8194 18.6999 16.4687 18.6999C16.2041 18.6999 16.2299 18.1657 16.2517 17.9958C16.256 17.9625 16.2801 17.8088 16.3488 17.8394C16.4228 17.8723 16.3797 18.1059 16.3627 18.1548C16.2521 18.4743 15.8936 18.6367 15.5805 18.6746C15.3415 18.7036 15.3609 18.5469 15.3609 18.3554C15.3609 18.31 15.3269 18.0805 15.366 18.0463C15.3836 18.0308 15.3833 18.091 15.3836 18.1144C15.385 18.1966 15.3882 18.2811 15.3811 18.363C15.3517 18.7015 15.0419 18.88 14.725 18.8008C14.4881 18.7416 14.4107 18.5049 14.4071 18.286C14.4045 18.1296 14.4071 18.1399 14.4412 18.2911C14.4784 18.4568 14.4911 18.639 14.4702 18.8084C14.441 19.0447 14.1207 19.2386 13.8898 19.1667C13.7251 19.1154 13.6678 18.848 13.6475 18.7062C13.6381 18.6397 13.5465 18.2014 13.64 18.1599C13.7288 18.1204 13.8993 18.1548 13.9933 18.1548C14.162 18.1548 14.3541 18.1295 14.5194 18.1687C14.6344 18.1959 14.7409 18.2572 14.8563 18.286C14.9348 18.3056 14.7719 18.1143 14.7667 18.1094C14.6493 17.9989 14.453 17.8575 14.2809 17.8873C14.077 17.9227 13.9275 18.3518 13.8646 18.5182C13.7132 18.9181 13.7919 19.3518 13.7699 19.7685C13.7611 19.9362 13.6825 20.0927 13.6223 20.2467C13.5361 20.4673 13.45 20.6855 13.375 20.9104C13.3117 21.1002 13.2721 21.2747 13.2362 21.4693C13.2293 21.5069 13.1829 21.771 13.1807 21.6194C13.1772 21.3781 13.1447 21.1367 13.1366 20.8952C13.132 20.7604 13.1703 20.5669 13.0848 20.4486C13.0142 20.3507 13.0196 20.4627 13.023 20.5205C13.038 20.776 13.0877 21.0336 13.1126 21.2889C13.1838 22.0197 13.3623 22.7229 13.3145 23.464C13.3119 23.5042 13.2852 23.7817 13.2034 23.7769C13.1283 23.7725 13.2129 23.1893 13.2173 23.1587C13.2912 22.649 13.3762 22.14 13.4987 21.6396C13.5047 21.6149 13.5289 21.3436 13.6021 21.3835C13.7704 21.4753 13.859 21.8185 13.9176 21.9828C14.044 22.3378 14.1705 22.7081 14.2342 23.0805C14.2619 23.242 14.3275 23.5211 14.2317 23.671C14.1112 23.8596 13.8126 23.8706 13.6173 23.8451C13.2255 23.7938 13.0481 23.467 13.0129 23.107C13.0035 23.011 12.9459 22.7012 13.0672 22.6338C13.1445 22.5909 13.1843 22.8069 13.1896 22.8408C13.2602 23.2962 13.0253 23.7529 12.8174 24.1403C12.6447 24.462 12.4528 24.8018 12.0906 24.9226" stroke="black" stroke-width="1.03954" stroke-linecap="round"/>
<path d="M10.3644 24.0595C10.3683 24.0326 10.4537 24.2593 10.4591 24.274C10.5791 24.602 10.6543 24.9412 10.7228 25.2833C10.8337 25.8382 10.9838 26.3742 11.0571 26.9361C11.1662 27.7724 11.2749 28.6052 11.336 29.4469C11.3849 30.1211 11.3874 30.8189 11.5101 31.4846C11.5402 31.6481 11.5392 31.8206 11.5795 31.9817C11.6036 32.0781 11.7063 32.0061 11.7725 31.9905C11.8509 31.9721 11.8868 32.0091 11.9315 32.0649C11.939 32.0744 11.9445 32.043 11.9441 32.0309C11.9377 31.8484 11.8889 31.6637 11.8532 31.4858C11.7036 30.7395 11.5937 29.9934 11.505 29.2375C11.4218 28.5281 11.3875 27.8223 11.2552 27.1203C11.1869 26.7577 11.1874 26.3793 11.1265 26.0138C11.0908 25.7993 11.0726 25.5497 11.0685 25.3313C11.0658 25.1871 11.0481 25.0216 11.0798 24.8821C11.1207 24.7022 11.3675 25.0022 11.3965 25.0385C11.8308 25.5834 12.0602 26.2365 12.146 26.9223C12.2891 28.0673 12.2433 29.2346 12.397 30.3793C12.4387 30.6894 12.5332 30.9781 12.6014 31.2814C12.6186 31.3576 12.6386 31.7241 12.7263 31.4707C12.8472 31.1216 12.8891 30.7223 12.9169 30.3566C12.9554 29.8497 12.968 29.3345 12.9509 28.8262C12.9286 28.1614 12.7487 27.5092 12.6582 26.8529C12.5716 26.2248 12.2097 25.5512 12.4488 24.9225C12.5541 24.6456 12.7255 24.4617 12.932 24.2512C13.0442 24.1369 13.1615 24.0317 13.2664 23.9106C13.3058 23.865 13.3615 23.8121 13.4253 23.8096C13.6153 23.8023 13.4535 24.3191 13.4304 24.4127C13.3138 24.8855 13.0443 25.3582 13.0443 25.8536C13.0443 26.2948 13.0662 26.7302 13.0847 27.1708C13.1123 27.8305 13.0897 28.4952 13.0897 29.1555C13.0897 29.5201 13.067 29.8842 13.067 30.2494C13.067 30.3491 13.0222 30.5679 13.0796 30.6582C13.1533 30.7739 13.0287 31.0255 13.2071 31.0076C13.4519 30.9832 13.7428 30.7476 13.9086 30.585C14.0766 30.4201 14.2318 30.2345 14.3842 30.0551C14.4906 29.9298 14.618 29.8198 14.7198 29.6917C14.8098 29.5786 14.908 29.5344 15.0327 29.4646C15.1639 29.3911 15.2935 29.2473 15.434 29.1971C15.5293 29.163 15.6244 29.1693 15.7241 29.1693C15.777 29.1693 15.8101 29.1696 15.7544 29.2173C15.6418 29.3138 15.5397 29.4097 15.41 29.4848C15.1011 29.6636 14.7889 29.8037 14.4927 30.0096C14.318 30.1311 14.139 30.2583 13.9451 30.3478C13.7252 30.4493 14.0302 30.2703 14.0827 30.233C14.6226 29.8484 15.1536 29.4401 15.733 29.1151C15.8706 29.0379 16.0077 29.035 16.1506 28.9927C16.1929 28.9802 16.2361 28.9836 16.278 28.965C16.2821 28.9632 16.0247 28.935 15.9803 28.9309C15.6915 28.9042 15.4984 28.7936 15.2649 28.6369C14.7893 28.3178 14.433 27.7582 14.2656 27.2238C14.1671 26.9094 14.1571 26.5977 14.1571 26.2712C14.1571 26.0599 14.1417 25.8405 14.2076 25.6366C14.2647 25.4597 14.3321 25.2796 14.4069 25.1092C14.4821 24.938 14.5242 24.7468 14.6113 24.5818C14.634 24.5389 14.6791 24.4938 14.7135 24.4594C14.7506 24.4224 14.7685 24.4497 14.6757 24.4443C14.5494 24.4369 14.4366 24.3821 14.3136 24.3597C14.1986 24.3388 14.205 24.4571 14.1748 24.5465C13.9748 25.1369 13.7931 25.7404 13.6815 26.3545C13.5091 27.3025 13.4195 28.4069 14.007 29.2337C14.1201 29.3929 14.2576 29.5047 14.4296 29.5958C14.4432 29.603 14.4431 29.6038 14.4359 29.5895C14.3887 29.4951 14.3601 29.3913 14.3262 29.2917C14.2334 29.0198 14.147 28.746 14.0436 28.4779C13.9434 28.2184 13.8074 27.9778 13.7042 27.7197C13.6691 27.6321 13.7075 27.6424 13.7534 27.7083C13.9432 27.9807 14.0929 28.2983 14.253 28.589C14.3861 28.8306 14.5391 29.0629 14.6555 29.3132C14.691 29.3896 14.7339 29.4518 14.8056 29.4974C14.829 29.5123 14.8784 29.531 14.9066 29.5327C15.0053 29.5389 14.7103 29.5681 14.6189 29.6059C14.2224 29.7698 13.859 30.0174 13.6146 30.3705C13.5928 30.4019 13.5709 30.4829 13.5389 30.5042C13.5296 30.5104 13.4815 30.1077 13.4808 30.0929C13.4623 29.685 13.4924 29.3069 13.5767 28.9094C13.6001 28.7995 13.6121 28.6908 13.6121 28.5789" stroke="black" stroke-width="1.03954" stroke-linecap="round"/>
<path d="M18.9265 26.7622C18.9265 26.4998 18.9265 26.2374 18.9265 25.9749C18.9265 25.7829 18.9392 25.6871 18.813 25.5409C18.6987 25.4086 18.4629 25.3226 18.3108 25.2457C18.1056 25.1419 17.8937 25.0951 17.6711 25.0451C17.1546 24.9288 16.6193 24.9454 16.0928 24.9454C15.8142 24.9454 15.5625 24.9324 15.3256 25.1044C15.1686 25.2184 15.042 25.3637 14.8752 25.4652C14.7347 25.5508 14.5931 25.5415 14.6393 25.3163C14.6785 25.1251 14.9382 24.9922 15.0897 24.9038C15.3384 24.7587 15.6137 24.6649 15.8921 24.5959C16.4194 24.4653 16.9758 24.4706 17.516 24.4962C17.9136 24.5151 18.2651 24.6454 18.6414 24.7587C18.882 24.8311 19.1035 24.9204 19.3 25.0817C19.5704 25.3035 19.5397 25.6494 19.5397 25.9674C19.5397 26.0355 19.5782 26.066 19.6079 25.98C19.6976 25.7202 19.7384 25.407 19.6709 25.1372C19.5981 24.8458 19.2721 24.5775 19.03 24.4281C18.4916 24.0957 17.8621 23.9664 17.2409 23.8919C16.9587 23.858 16.657 23.8681 16.3729 23.8793C16.0751 23.8909 15.8113 24.0256 15.5603 24.1682C15.4129 24.2519 15.2633 24.3491 15.1112 24.423C15.0582 24.4488 14.9341 24.5071 14.874 24.4899C14.7881 24.4654 14.8571 24.1928 14.874 24.1493C14.9745 23.8892 15.0633 23.7972 15.3256 23.6913C16.2048 23.3364 17.2252 23.4108 18.1077 23.7089C18.6859 23.9043 19.3335 24.2596 19.6533 24.8041C19.7419 24.955 19.7668 25.0451 19.7668 25.223C19.7668 25.2792 19.7288 25.4784 19.8022 25.4917C19.9118 25.5116 19.929 25.6274 20.004 25.681C20.0222 25.694 20.0166 25.5405 20.0166 25.5308C20.0166 25.3527 20.0229 25.1731 20.0015 24.9959C19.907 24.2143 19.5998 23.5264 18.8836 23.1437C18.6519 23.0198 18.4305 22.9875 18.1771 22.9469C17.8768 22.8987 17.5822 22.8656 17.2775 22.8573C16.4564 22.8348 15.5868 22.8975 14.8386 23.2648C14.6903 23.3376 14.5328 23.4416 14.3617 23.4465C14.2241 23.4504 14.2482 23.2999 14.2482 23.1967C14.2482 22.9682 14.3253 22.7513 14.5711 22.7021C14.7129 22.6737 14.8483 22.6743 14.9926 22.6743C15.2765 22.6743 15.5175 22.7335 15.795 22.7765C16.1864 22.8373 16.5652 22.9582 16.9558 23.0226C17.3498 23.0875 17.76 23.1319 18.1594 23.1285C18.416 23.1264 18.6635 23.0983 18.8887 22.9696C18.995 22.9088 19.0698 22.8067 19.1764 22.7475C19.2412 22.7115 19.1628 22.6322 19.1259 22.6062C19.0352 22.5424 18.9173 22.5517 18.8117 22.5734C18.6924 22.598 18.3465 22.6797 18.4673 22.6958C18.8173 22.7424 19.1787 22.5688 19.5271 22.5431C19.9098 22.5149 20.0931 22.7689 20.2438 23.0781C20.3753 23.3482 20.5018 23.5978 20.5831 23.8893C20.6835 24.2491 20.7207 24.5793 20.7207 24.953C20.7207 25.0623 20.7207 25.1717 20.7207 25.281C20.7207 25.3024 20.6929 25.3593 20.7081 25.3441C20.7613 25.2909 20.7861 25.1914 20.8128 25.1246C20.9192 24.8584 21.175 24.4458 21.5155 24.4458C21.5737 24.4458 21.625 24.4102 21.6745 24.3827C21.8023 24.3117 21.4816 24.0445 21.4398 23.989C21.2077 23.6806 21.01 23.3516 20.8052 23.0251C20.6946 22.8488 20.5846 22.6714 20.428 22.5318C20.2876 22.4066 20.1007 22.3442 19.9712 22.2088C19.8566 22.089 19.7176 21.9892 19.599 21.8706C19.4909 21.7625 19.469 21.7832 19.358 21.8921C19.2284 22.0192 19.1857 22.0099 19.3151 22.1646C19.4903 22.3741 19.6394 22.5981 19.7971 22.8207C19.9731 23.069 20.1834 23.2964 20.3409 23.5575C20.5663 23.9313 20.6298 24.4409 20.6298 24.8722C20.6298 24.9983 20.6494 25.1374 20.6122 25.2583C20.6056 25.2796 20.6009 25.3071 20.6298 25.3088C20.6954 25.3126 20.7093 25.2162 20.7257 25.17C20.8724 24.7556 21.0452 24.2519 21.3591 23.9335C21.4741 23.8169 21.6265 23.7321 21.754 23.6282C21.9449 23.4727 22.0978 23.27 22.2864 23.1084C22.411 23.0016 22.5457 22.9135 22.6624 22.7967C22.905 22.5541 23.077 22.2605 23.239 21.9602C23.4601 21.5506 23.6567 21.1235 23.9002 20.7263C23.9577 20.6323 23.9892 20.5198 24.0516 20.4222C24.1933 20.2003 24.401 20.0258 24.5928 19.8481C24.6831 19.7645 24.791 19.7044 24.9108 19.6778C24.9505 19.669 25.0443 19.6226 25.0723 19.6463C25.1971 19.7518 25.2905 20.078 25.235 20.2393C25.1864 20.3808 24.9045 20.5146 24.7909 20.6026C24.4869 20.8382 24.1809 21.0738 23.8989 21.3357C23.3912 21.8071 23.0569 22.4279 22.6006 22.9469C22.4517 23.1162 22.2964 23.274 22.1742 23.4642C22.1307 23.5318 22.207 23.4929 22.2448 23.4717C22.6158 23.2644 22.9544 22.975 23.2731 22.697C23.6215 22.3932 23.9881 22.1036 24.2951 21.7571C24.4383 21.5954 24.5945 21.4484 24.7455 21.294C24.8354 21.2021 24.9494 21.1001 24.9852 20.971C25.0338 20.7961 25.0201 20.5955 25.0117 20.4159C25.008 20.3352 24.9345 20.1725 24.9941 20.1055C25.1354 19.9465 25.3403 19.8405 25.4571 19.6589C25.5875 19.456 24.7395 19.4667 24.6547 19.4772C24.1805 19.5355 23.6906 19.4667 23.2176 19.5289C23.1794 19.5339 22.867 19.5395 22.8567 19.5756C22.8462 19.6126 22.8555 19.6657 22.8555 19.703C22.8555 19.8705 22.8503 20.0292 22.8151 20.1938C22.758 20.4609 22.6531 20.6906 22.5325 20.9357C22.2291 21.5523 21.9293 22.1653 21.5471 22.7387C21.4009 22.9579 21.2818 23.1916 21.1421 23.4112C20.9014 23.7894 21.6771 22.6908 21.9193 22.3135C22.2553 21.7899 22.6525 21.3097 23.0119 20.8032C23.1245 20.6446 23.2169 20.5193 23.3665 20.3919C23.4659 20.3072 23.6516 20.2544 23.7134 20.1307C23.7685 20.0206 23.6251 19.8465 23.5671 19.7749C23.341 19.4961 23.0335 19.3795 22.7217 19.2236C22.5694 19.1474 22.4028 19.0935 22.2448 19.0293C22.2138 19.0167 21.9972 18.8823 21.9937 18.8943C21.98 18.9425 22.0117 19.0191 22.0139 19.0684C22.0249 19.3105 22.0017 19.5597 21.9672 19.7989C21.8804 20.4019 21.7434 21.0274 21.5383 21.6019C21.4152 21.9464 21.216 22.2593 21.1194 22.6138C21.1022 22.6767 21.0613 22.8657 21.0613 22.8005C21.0613 22.6485 21.1353 22.4737 21.1648 22.3248C21.2818 21.7335 21.4343 21.169 21.4802 20.566C21.5061 20.2262 21.504 19.9295 21.3641 19.616C21.2958 19.4629 21.2257 19.3552 21.2203 19.1819C21.2117 18.9067 21.1824 18.6152 21.1295 18.3454C21.1007 18.1989 21.0746 18.03 20.9818 17.9064C20.9146 17.8168 20.9822 17.9581 20.9932 17.9833C21.0434 18.0985 21.0467 18.2416 21.0613 18.3644C21.0852 18.5643 21.1097 18.7646 21.1295 18.9649C21.1799 19.4752 21.1522 19.9955 21.1522 20.508C21.1522 20.9332 21.1522 21.3584 21.1522 21.7836C21.1522 21.9943 21.1351 22.2624 20.9932 22.4245" stroke="black" stroke-width="1.03954" stroke-linecap="round"/>
<path d="M21.8107 18.6088C21.7758 18.5292 21.701 18.4599 21.6467 18.3944C21.5149 18.2354 21.3819 18.0772 21.2543 17.9149C21.1309 17.7581 21.0234 17.5767 20.8846 17.4329C20.7063 17.2483 20.5794 17.0122 20.4266 16.8059C20.3864 16.7516 20.3266 16.7267 20.2891 16.6734C20.2447 16.6103 20.2012 16.538 20.1541 16.4791C20.113 16.4277 20.1877 16.6063 20.2058 16.6696C20.3403 17.1405 20.4398 17.623 20.4985 18.1092C20.5942 18.9009 20.6004 19.6915 20.6575 20.4837C20.6856 20.8734 20.7494 21.2622 20.7837 21.6521C20.7948 21.7791 20.7887 21.9082 20.7887 22.0356C20.7887 22.1329 20.7586 22.0732 20.7054 22.0243C20.5062 21.8409 20.3079 21.6453 20.096 21.4805C20.0759 21.4648 20.0179 21.4482 20.0165 21.425C20.0122 21.3508 19.9874 21.2711 19.9711 21.1979C19.7827 20.35 19.8349 19.4396 19.8349 18.5786C19.8349 17.795 19.8349 17.0115 19.8349 16.228C19.8349 15.9197 19.8349 15.6115 19.8349 15.3032C19.8349 15.1472 19.8594 14.965 19.8222 14.8111C19.8197 14.8004 19.7648 14.6915 19.7667 14.7253C19.7687 14.7614 19.8001 14.7972 19.8172 14.8263C19.8917 14.9528 19.9471 15.0919 19.9926 15.2313C20.1142 15.6042 20.1787 16.0537 20.0796 16.4387C20.0411 16.5883 19.9578 16.7214 19.8929 16.8601C19.8039 17.0503 19.7576 17.2528 19.7314 17.4607C19.6392 18.1931 19.6305 18.9601 19.6305 19.699C19.6305 19.7281 19.6078 19.6827 19.6002 19.6737C19.4454 19.4918 19.293 19.3083 19.1233 19.14C18.7549 18.7748 18.3687 18.4105 17.9423 18.113C17.9182 18.0962 17.78 18.0177 17.7909 18.0184C17.8338 18.0211 17.8886 18.0496 17.9272 18.0688C18.055 18.1328 18.1867 18.1936 18.3158 18.2581C18.4184 18.3094 18.5178 18.3668 18.6211 18.4171C18.6897 18.4504 18.6758 18.4702 18.6425 18.4259C18.5893 18.3549 18.4722 18.3249 18.394 18.2909C18.1171 18.1706 17.8413 18.0933 17.5562 18.0007C17.4872 17.9783 17.4202 17.9689 17.4288 17.8872C17.4559 17.6297 17.5709 17.3757 17.6445 17.1301C17.7963 16.6243 17.9027 16.1026 18.0395 15.5921C18.1126 15.319 18.1985 15.024 18.2211 14.7405C18.2242 14.702 18.2279 14.622 18.1669 14.6723C18.0765 14.7469 18.0049 14.8582 17.9347 14.9499C17.7273 15.2211 17.5264 15.5014 17.3607 15.8003C17.2641 15.9744 17.1758 16.165 17.1146 16.3554C17.0732 16.4844 17.1096 16.2804 17.1096 16.2242C17.1096 15.4734 17.1549 14.7293 17.1752 13.9797C17.1832 13.6832 17.2103 13.3903 17.0881 13.1154C16.987 12.8878 17.0187 12.63 17.0187 12.3861C17.0187 12.2751 17.0379 12.0061 17.1146 12.26C17.2915 12.8454 17.4076 13.45 17.5058 14.0528C17.6401 14.8777 17.66 15.7154 17.7909 16.5384C17.8231 16.7407 17.859 16.94 17.859 17.1453C17.859 17.2637 17.7682 17.3516 17.6988 17.4405C17.6229 17.5378 17.524 17.7234 17.4048 17.7736C17.3067 17.8149 17.341 17.2277 17.3417 17.2084C17.3529 16.9152 17.4128 16.6358 17.449 16.3466C17.4723 16.1601 17.4502 16.7226 17.4502 16.9106C17.4502 17.2568 17.4257 17.6131 17.4629 17.9578C17.4835 18.1498 17.5038 18.3646 17.6471 18.5079C17.7459 18.6068 17.8619 18.6522 17.9776 18.7224C18.0718 18.7796 18.0393 18.5083 18.042 18.3981C18.0665 17.371 18.1051 16.3448 18.1492 15.3183C18.1972 14.2004 18.2224 13.0848 18.2224 11.966C18.2224 11.6958 18.2338 11.3983 18.1656 11.1333C18.1435 11.0471 18.131 10.9541 18.1038 10.8696C18.076 10.783 18.0879 10.8866 18.0849 10.9213C18.0801 10.9761 18.0554 11.0274 18.0382 11.079C17.9677 11.2904 17.9086 11.5068 17.8641 11.725C17.7328 12.3684 17.6735 13.1001 17.7833 13.7513C17.8497 14.145 18.0086 14.5223 18.1076 14.9083C18.2 15.2685 18.2718 15.6344 18.3536 15.9971C18.4394 16.3773 18.5858 16.7968 18.5858 17.1894C18.5858 17.3446 18.5873 17.4999 18.5807 17.655C18.5725 17.8469 18.5176 18.0394 18.5176 18.2303C18.5176 18.7956 18.5154 17.0997 18.5277 16.5346C18.5476 15.6223 18.5977 14.7112 18.6287 13.7992C18.6526 13.0943 18.646 12.3897 18.6589 11.6846C18.6683 11.1734 18.6762 10.6625 18.6993 10.1529C18.7332 9.40816 18.8372 11.6377 18.8936 12.3811C19.0006 13.7919 19.0008 15.2115 19.1409 16.6191C19.1836 17.0479 19.2827 17.4693 19.3176 17.8972C19.3337 18.0949 19.3359 18.3119 19.3756 18.5054C19.3977 18.6131 19.3784 18.5938 19.3239 18.5193C19.19 18.3361 19.1027 18.1871 19.0576 17.9578C18.9203 17.2584 18.9341 16.5141 18.9277 15.8041C18.9215 15.1226 18.9814 14.4479 19.0299 13.769C19.0641 13.2903 19.1748 12.8249 19.257 12.3533C19.32 11.9918 19.3679 11.6266 19.4475 11.2683C19.4683 11.1745 19.529 11.0996 19.585 11.0235C19.7582 10.7883 19.9251 10.5639 20.1629 10.3876C20.4343 10.1864 20.7489 10.0774 21.0713 9.99017C21.3425 9.91679 21.6017 9.82235 21.8662 9.729C22.1378 9.63312 22.4065 9.54569 22.6737 9.43881C22.783 9.39507 22.9158 9.41105 23.032 9.41105C23.0768 9.41105 23.1209 9.40703 23.1039 9.46657C23.0866 9.52735 22.6931 9.58938 22.6573 9.60031C22.2331 9.72971 21.7731 9.93026 21.4246 10.211C21.1103 10.4641 20.8699 10.7995 20.6272 11.1181C20.1799 11.7052 19.816 12.3016 19.744 13.0498C19.7074 13.4304 19.6711 13.8093 19.6418 14.1904C19.6332 14.3028 19.6305 14.6413 19.6305 14.5285C19.6305 14.1229 19.7541 13.7796 19.9358 13.4195C20.234 12.8286 20.5752 12.2307 21.0802 11.7906C21.2508 11.6419 21.4339 11.5002 21.6113 11.3591C21.7284 11.2661 21.8467 11.154 21.9873 11.0967C22.0592 11.0674 21.9671 11.2365 21.957 11.2695C21.8514 11.6147 21.7228 11.9508 21.6088 12.2928C21.6043 12.3062 21.5381 12.5435 21.5381 12.4618C21.5381 12.1404 21.5695 11.8233 21.6403 11.5093C21.6928 11.2768 21.75 11.0097 21.9217 10.8317C21.9801 10.7712 22.2041 10.6001 21.9823 10.751C21.1237 11.3351 20.5046 12.4175 20.2083 13.398C20.1218 13.6844 20.0919 13.9743 20.0493 14.2686C20.0171 14.4915 19.949 14.6994 19.8929 14.9158C19.8318 15.1517 20.0775 14.7155 20.0948 14.6875C20.375 14.2329 20.6689 13.7874 20.9994 13.3677C21.1953 13.1189 21.3873 12.8874 21.6214 12.6738C21.7971 12.5136 21.9535 12.3452 22.1059 12.1641C22.145 12.1177 22.2238 12.0475 22.2409 11.9874C22.2565 11.933 22.2574 11.9762 22.2182 12.0114C22.1749 12.0504 22.1267 12.0275 22.0832 12.0505C22.0332 12.077 22.1024 12.1031 22.1059 12.1363C22.147 12.5269 22.5546 12.782 22.7986 13.0447C23.0409 13.3057 23.499 13.5377 23.8546 13.5444C24.0051 13.5472 24.1559 13.5444 24.3063 13.5444C24.5152 13.5444 24.6837 13.4746 24.8716 13.3905C25.2049 13.2411 25.4131 13.0019 25.6942 12.7823C25.844 12.6653 25.9241 12.5901 26.0121 12.4202C26.1423 12.1691 26.1272 11.914 26.1534 11.6417C26.1921 11.2404 26.215 10.7569 26.103 10.3649C26.0701 10.2498 26.0213 10.2206 26.1509 10.2854C26.5013 10.4606 26.7957 10.8 27.0795 11.0689C27.4053 11.3775 27.7148 11.7267 27.9652 12.1023C28.0597 12.244 28.188 12.3521 28.2201 12.5224C28.2961 12.9251 28.3096 13.329 28.2491 13.7387C28.1803 14.2051 28.1565 14.6764 28.022 15.1316C27.9304 15.4415 27.7589 15.6099 27.5691 15.8583C27.3203 16.184 27.1189 16.5406 26.8751 16.8702C26.4884 17.3933 26.1469 17.9714 25.8998 18.5735C25.8659 18.6563 25.8278 18.7331 25.7901 18.8132C25.7808 18.833 25.831 18.7965 25.8481 18.783C26.0137 18.6516 26.1819 18.5208 26.3389 18.3792C26.7971 17.966 27.2097 17.4636 27.5968 16.9838C27.8907 16.6195 28.1663 16.23 28.3816 15.8129C28.5165 15.5517 28.5456 15.2952 28.6251 15.0168C28.6829 14.8146 28.7332 14.6118 28.8005 14.4124C28.8452 14.28 28.9016 14.1536 28.9191 14.0137C28.9243 13.972 28.9096 14.0984 28.8939 14.1374C28.7751 14.4306 28.584 14.7061 28.427 14.9789C28.0176 15.6906 27.6181 16.4027 27.1527 17.0797C26.8081 17.5809 26.4467 18.0718 26.1244 18.5874C26.006 18.7768 25.9473 19.0028 25.8191 19.188C25.7737 19.2535 25.6185 19.5313 25.7043 19.6081C25.9174 19.7988 26.3322 19.0788 26.4108 18.9596C26.5722 18.7151 26.6557 18.5314 26.6695 18.2354C26.6746 18.1247 26.6908 17.9947 26.6253 17.8998C26.5476 17.7871 26.466 17.6787 26.3982 17.5591C26.2732 17.3385 26.1582 17.1197 26.0689 16.8816C25.9614 16.5947 25.7547 16.3496 25.568 16.1107C25.4464 15.955 25.2878 15.8369 25.1289 15.7221C24.9399 15.5854 24.7538 15.423 24.5587 15.2981C24.2636 15.1093 23.918 14.9339 23.5922 14.8036C23.2533 14.668 22.8835 14.6799 22.5261 14.6799C22.1992 14.6799 21.8767 14.7268 21.5508 14.7493C21.4238 14.7581 21.3101 14.8465 21.2025 14.907C21.0697 14.9817 20.917 15.044 20.771 15.0887C20.6856 15.1149 20.4347 15.1935 20.3572 15.1114C20.1598 14.9024 20.8505 14.5269 20.9653 14.449C21.3024 14.2205 21.5936 14.0731 22.0062 14.0907C22.2525 14.1012 22.5024 14.1491 22.7469 14.1803C23.0868 14.2237 23.4206 14.2543 23.7537 14.3393C24.7294 14.5882 25.7035 14.9736 26.3049 15.8255C26.4583 16.0429 26.5636 16.299 26.7263 16.5081C26.7796 16.5767 26.831 16.4599 26.8625 16.4084C27.0122 16.1645 27.1719 15.9339 27.2839 15.6691C27.3761 15.4512 27.4745 15.2197 27.5211 14.9865C27.5512 14.8361 27.5337 14.67 27.5337 14.5172C27.5337 13.9513 27.3617 13.4188 27.2839 12.8631C27.251 12.6273 27.2093 12.3769 27.1338 12.1502C27.066 11.9468 26.9275 11.7783 26.8121 11.6014C26.7627 11.5258 26.6981 11.4234 26.6165 11.378C26.5892 11.3629 26.623 11.427 26.6253 11.4323C26.6772 11.5497 26.708 11.6786 26.7364 11.8032C26.9149 12.5868 26.9035 13.4277 26.8739 14.2282C26.8518 14.8237 26.6347 15.4082 26.5168 15.987C26.4821 16.1574 26.4688 15.8623 26.4676 15.8255C26.4574 15.5039 26.4459 15.1828 26.426 14.8616C26.3926 14.324 26.2708 13.7596 26.0916 13.2504C26.0635 13.1706 26.0121 13.0094 26.0121 13.0094C26.0121 13.0094 26.0121 13.2231 26.0121 13.3299C26.0121 13.4561 26.0295 13.6154 25.9314 13.7134C25.8267 13.8182 25.6905 13.8888 25.5832 13.9961C25.5103 14.0689 25.4098 14.2281 25.3132 14.2661C25.18 14.3184 25.1314 13.9972 25.1163 13.9317C25.091 13.8213 25.012 13.5092 25.192 13.4813C25.4021 13.4488 25.7392 13.4462 25.9238 13.552C26.2705 13.7505 26.262 14.0993 26.262 14.4528C26.262 14.5101 26.2767 14.5436 26.2102 14.5436C25.8021 14.5436 25.4391 14.5013 25.0432 14.3986C24.402 14.2321 23.738 14.1792 23.1014 13.9999C22.6348 13.8684 22.1436 13.7289 21.6971 13.5393C21.6458 13.5175 21.2969 13.3573 21.3388 13.263C21.3664 13.2009 21.8655 13.2491 21.9368 13.2491C22.1889 13.2491 22.4094 13.3006 22.651 13.3627C22.7046 13.3765 22.8122 13.4331 22.7418 13.3627" stroke="black" stroke-width="1.03954" stroke-linecap="round"/>
<path d="M18.5475 18.8667C17.9409 19.5415 17.3343 20.2149 16.7514 20.91C16.6871 20.9866 16.3903 21.2754 16.4072 21.0007C16.4332 20.5773 17.7846 17.8222 18.2314 18.9981C18.4821 19.6577 18.3359 20.6323 17.8591 21.1509C17.1179 21.9571 15.8133 21.6186 15.4184 20.6378C15.203 20.1029 14.9764 19.0879 15.7407 18.9605C16.5476 18.8261 17.3781 18.9387 17.7965 19.7209C18.1616 20.4036 18.1301 21.2762 17.4085 21.7016C16.5923 22.1829 15.5818 21.8042 15.1054 21.0445C14.6585 20.3318 15.2635 19.9109 15.9378 19.7804C16.7678 19.6197 17.8066 19.6277 18.535 20.1027C18.8038 20.278 19.0594 20.553 18.6601 20.7629C17.9495 21.1366 16.2995 21.5215 15.7375 20.7254C15.1429 19.883 16.3562 19.505 16.9892 19.505C18.2768 19.505 19.1672 20.1355 19.2985 21.4357C19.5739 24.1654 17.1515 25.66 16.1381 27.9098C16.0479 28.1098 15.8439 28.4052 15.8439 28.6326C15.8439 28.7883 16.0571 28.405 16.1756 28.3041C16.5163 28.014 16.8872 27.752 17.2708 27.5218C17.3117 27.4972 18.0605 27.0638 17.8904 27.3278C17.6682 27.6725 17.1118 28.1477 16.7138 28.2728C16.5819 28.3142 16.7347 27.9904 16.7952 27.866C17.0189 27.406 17.354 26.9982 17.6651 26.5956C17.9466 26.2313 18.1753 25.7406 18.5725 25.4879C18.7401 25.3812 18.2102 26.3197 18.1532 26.4016C17.8482 26.8399 17.5536 27.2455 17.2958 27.7095C17.2695 27.7569 17.2525 27.6072 17.252 27.5531C17.2482 27.1579 17.252 26.7624 17.252 26.3672C17.252 26.2309 17.2375 25.4378 17.2145 25.4754C16.9367 25.93 16.6348 26.369 16.3633 26.8271C16.2402 27.035 16.074 27.2904 16.0692 26.9085C16.0634 26.4476 16.0692 25.9863 16.0692 25.5254C16.0692 25.3935 16.0743 25.3295 16.0692 25.5067C16.0604 25.8154 15.9781 26.0906 15.8752 26.3797C15.8068 26.5718 15.7255 27.1431 15.506 27.2464C15.4428 27.2762 15.4486 26.4861 15.4496 26.4016C15.4502 26.358 15.4717 25.8008 15.5341 25.8008C15.7978 25.8008 15.0494 27.5871 14.9427 27.7471C14.5355 28.3579 14.1384 28.1927 13.8163 27.6032C12.8959 25.9188 12.652 23.8819 12.0952 22.0646C11.8791 21.3593 11.6667 20.6503 11.3693 19.9744C11.2978 19.8119 11.1646 19.6965 11.0877 19.5426C10.9214 19.2101 10.9999 20.1538 11.0001 20.1934C11.005 21.3445 10.9635 22.5455 11.0689 23.6918C11.0709 23.714 11.1258 23.9431 11.1002 23.7731C11.0518 23.4523 10.9924 23.1328 10.9406 22.8125C10.8135 22.0258 10.7967 21.1036 10.5276 20.3499C10.3931 19.9734 10.8917 21.062 11.0564 21.4263C11.2946 21.953 11.6112 22.4657 11.7761 23.0221C11.9146 23.4895 11.2408 22.2058 11.0094 21.7767C10.8341 21.4517 10.6914 21.1205 10.562 20.7754C10.5608 20.7724 10.4474 20.516 10.5401 20.5814C10.9377 20.8621 11.2838 21.568 11.4819 22.0083C11.6739 22.4348 11.4138 22.5199 11.2003 22.1022C10.6298 20.9859 10.7208 17.1106 10.8592 18.3566C10.9584 19.2488 10.9387 20.2476 10.7622 21.1259C10.7513 21.1802 10.4292 22.3613 10.368 21.8581C10.272 21.0692 10.3029 20.2398 10.3523 19.4487C10.355 19.4062 10.4604 18.4195 10.5745 18.6476C10.5824 18.6634 10.6174 18.8317 10.6433 18.7916C10.6914 18.7173 10.7643 18.4337 10.7685 18.4192C10.9313 17.8619 11.0967 17.3059 11.2692 16.7514C11.5829 15.7425 11.9128 14.7385 12.2235 13.7287C12.325 13.3988 12.3831 12.8967 12.5771 12.5959C12.755 12.3202 13.247 12.8855 13.3093 12.9777C13.5958 13.4012 13.7635 13.9196 13.8914 14.4108C13.917 14.5094 13.9915 15.1375 13.979 14.996C13.8909 14.0048 13.6844 13.0281 13.5346 12.0452C13.4651 11.5887 13.7425 12.2286 13.785 12.3143C14.1616 13.0745 14.4798 13.8703 14.6924 14.6924C14.7201 14.7997 14.9306 15.9927 14.8958 15.9722C14.5283 15.7561 14.2628 15.2066 14.0666 14.8552C13.7579 14.3023 13.4886 13.7155 13.2687 13.1216C13.2231 12.9987 13.1048 12.6348 13.1873 12.7367C13.497 13.1193 13.6833 13.6551 13.8475 14.1104C14.0722 14.7334 14.3391 15.5282 14.2637 16.2069C14.2457 16.3694 13.9632 16.0628 13.8475 15.9472C13.3601 15.4598 12.9976 14.8579 12.7962 14.198C12.7111 13.9195 12.5967 13.4965 12.6491 13.1999C12.6896 12.9706 13.2015 13.0644 13.3469 13.0778C14.4799 13.1826 15.5459 13.9639 16.1725 14.8896C16.2429 14.9937 16.5173 15.3156 16.451 15.4747C16.3581 15.6976 16.1059 15.1238 16.0035 14.9052C15.5668 13.9731 15.3577 13.0085 15.1367 12.0139C15.0767 11.7438 15.2834 12.056 15.3245 12.1203C15.661 12.6466 15.8619 13.2595 16.0191 13.8601C16.0618 14.0228 16.3228 15.5388 16.0254 15.3777C14.9576 14.7993 14.5049 13.1662 14.2731 12.0734C14.0598 11.0676 15.0639 12.5321 15.1805 12.7336C15.5862 13.4345 15.8527 14.1754 16.0598 14.9553C16.1688 15.3656 16.3212 15.8246 16.2945 16.257C16.283 16.4433 15.9623 16.0582 15.8627 15.9003C15.2917 14.9953 14.9002 13.9541 14.5735 12.9401C14.3907 12.3727 14.2294 11.7901 14.0791 11.2129C14.068 11.1703 14.0377 11.0482 14.0666 11.0814C14.1984 11.233 14.2982 11.5693 14.3701 11.7354C15.0194 13.2347 15.5675 14.7608 15.944 16.3509C15.953 16.3887 16.1567 17.1566 16.1005 17.1707C15.8251 17.2395 15.3995 16.2634 15.3558 16.1694C14.6552 14.6629 14.2098 13.1021 13.9352 11.4695C13.8133 10.7453 13.8129 9.98338 13.6191 9.27281C13.467 8.71511 13.4062 8.29822 13.4658 7.702C13.4832 7.5279 13.5544 7.10596 13.4408 6.95101C13.2966 6.75438 13.1027 6.59437 13.0027 6.36587C12.9727 6.29739 12.6976 5.8913 12.6898 6.0248C12.6645 6.45408 12.6431 6.88707 12.6366 7.31712C12.623 8.20351 12.6047 9.11012 12.8024 9.97999C13.0652 11.1364 13.5913 12.2272 14.1855 13.2468C15.3992 15.3292 17.1653 16.9128 19.5238 17.5024C20.2234 17.6773 20.8944 17.9187 21.5827 18.1282C21.8107 18.1976 22.1861 18.3348 22.4276 18.3003C22.6619 18.2668 22.3941 16.661 22.365 16.5011C22.336 16.3417 21.9279 15.0542 22.2461 15.1055C22.8459 15.2022 23.3733 15.6614 23.7668 16.0943C23.9883 16.3378 24.2437 16.9047 23.9702 17.202C23.5903 17.615 22.8938 17.3173 22.5527 17.0205C22.4722 16.9505 21.3865 15.881 21.9207 15.8377C22.7355 15.7716 23.608 16.4297 24.1893 16.9204C24.2181 16.9447 25.0311 17.7663 24.7869 17.7934C24.2164 17.8568 23.673 17.5001 23.2724 17.1331C23.0997 16.9749 22.5051 16.2889 23.0784 16.2758C23.7267 16.2609 24.25 16.5156 24.5648 17.0987C24.7354 17.4149 24.9703 18.209 24.7869 18.5757C24.7309 18.6877 24.4576 18.639 24.3739 18.6289C23.7525 18.5535 23.1491 18.2673 22.6341 17.9217C22.0153 17.5064 21.1578 16.7739 20.9256 16.0192C20.8537 15.7856 21.1377 15.8252 21.2886 15.8252C21.8413 15.8252 22.3138 16.0131 22.6497 16.4666C22.9001 16.8046 22.4576 16.8265 22.171 16.8265C20.1833 16.8265 20.181 14.5995 20.5376 13.1529C20.7532 12.2784 21.3238 11.232 22.0928 10.7059C22.4052 10.4921 22.6677 10.2091 22.9971 10.0238C23.6528 9.65494 25.158 9.34518 25.6693 10.0739C25.7414 10.1766 26.0087 10.6744 25.8258 10.7842C25.6108 10.9132 25.2473 10.8672 25.0122 10.8687C24.651 10.8709 24.2381 10.9214 23.9076 10.7435C23.5907 10.5729 23.3431 10.2661 23.8232 10.1615C24.1916 10.0812 24.7909 10.0277 24.9997 10.3993C25.8792 11.9648 22.9259 12.1301 22.0865 11.5477C21.7719 11.3294 21.6109 11.1048 22.0771 11.0376C22.7576 10.9396 23.7574 10.8076 24.3676 11.2066C24.4682 11.2723 24.8852 11.6178 24.7306 11.7917C24.6029 11.9354 24.0474 11.6733 23.9358 11.6196C23.6099 11.4628 23.359 11.2224 23.1473 10.9344C22.8403 10.5169 23.2761 10.6601 23.5728 10.781C24.1254 11.0063 24.5554 11.3456 24.7994 11.8825" stroke="black" stroke-width="1.03954" stroke-linecap="round"/>
<path d="M19.6621 12.7967C20.0191 12.7967 20.3745 12.7688 20.731 12.7496C21.148 12.7272 21.5662 12.7362 21.9837 12.7362C22.3674 12.7362 22.7462 12.7284 23.1154 12.8504C23.4718 12.9683 23.817 13.1465 24.1395 13.3367C24.6891 13.661 25.1887 14.0462 25.4908 14.6163C25.5861 14.7963 25.6848 14.9775 25.7687 15.1631C25.7869 15.2036 25.8135 15.2324 25.8135 15.2774" stroke="#95B7FF" stroke-width="1.03954" stroke-linecap="round"/>
<path d="M24.0587 13.9461C24.0587 14.1448 24.0587 14.3435 24.0587 14.5422C24.0587 14.6654 24.0608 14.7689 23.9982 14.8784C23.8909 15.0662 23.6788 15.2481 23.4537 15.2571C22.8316 15.282 22.5246 14.4497 22.7579 13.9573C22.821 13.824 22.9079 13.6971 23.0335 13.6145C23.1681 13.5259 23.3282 13.5428 23.4817 13.5428C23.8169 13.5428 24.093 13.7926 24.1663 14.1209C24.2447 14.4722 24.0258 14.708 23.7405 14.8851C23.5809 14.9842 23.4109 15.0536 23.2229 15.0711C23.0798 15.0844 23.0028 14.9684 22.9293 14.8604C22.7335 14.5728 22.612 14.0454 22.8172 13.7411C22.9996 13.4707 23.4644 13.4852 23.6935 13.6761C23.9818 13.9164 24.0825 14.3464 23.8234 14.633C23.6665 14.8066 23.4667 14.9529 23.2811 15.0946C23.1153 15.2213 22.9458 15.2886 22.7366 15.2773C22.351 15.2564 22.2825 14.4507 22.2682 14.1882C22.2563 13.97 22.2302 13.7054 22.3735 13.5226C22.4868 13.3781 22.6422 13.3064 22.8217 13.2907C23.0221 13.2731 23.2324 13.2698 23.4178 13.3601C23.6737 13.4849 23.9509 13.7638 24.0542 14.0335C24.1706 14.3374 24.0577 14.6844 23.8212 14.8963C23.6059 15.0892 23.2058 15.0904 22.9427 15.0308C22.5835 14.9493 22.389 14.5376 22.4789 14.1882C22.5637 13.8583 23.0322 13.7412 23.3237 13.7937C23.5944 13.8425 23.9181 14.2772 23.8033 14.559C23.7657 14.6511 23.604 14.6901 23.5153 14.6901C23.4021 14.6901 23.3326 14.5807 23.3058 14.4806C23.2115 14.1291 23.5546 14.1038 23.8167 14.1075C24.1494 14.1121 24.1797 14.4731 24.1797 14.7428C24.1797 15.0332 24.0599 15.3118 23.7484 15.3579C23.6274 15.3759 23.4948 15.3983 23.373 15.3983C23.2728 15.3983 23.1833 15.3651 23.0862 15.3579C22.9251 15.346 22.6811 15.2255 22.5965 15.0845C22.5313 14.9758 22.4781 14.8512 22.4363 14.7316C22.3943 14.6117 22.3847 14.4819 22.3847 14.3562C22.3847 14.0507 22.4762 13.8536 22.6469 13.6033" stroke="#95B7FF" stroke-width="1.03954" stroke-linecap="round"/>
<path d="M15.3215 11.5006C15.3777 11.5428 15.1912 11.1521 15.1769 11.1266C15.0455 10.8927 14.8698 10.5946 14.6535 10.4271C14.4377 10.26 14.1706 10.1407 13.9352 10.0028C13.6333 9.82579 13.3183 9.67405 12.9985 9.53282C12.4157 9.27549 11.7937 9.12417 11.1548 9.12417C10.9614 9.12417 10.7733 9.1194 10.5843 9.16503C10.5084 9.18335 10.4206 9.20904 10.3422 9.20904" stroke="#95B7FF" stroke-width="1.03954" stroke-linecap="round"/>
<path d="M14.5031 10.7948C14.5031 10.5455 14.5441 11.3141 14.4387 11.54C14.2586 11.926 13.7834 12.0517 13.3908 12.0275C12.9567 12.0006 12.5482 11.5053 12.5854 11.072C12.6012 10.8889 12.708 10.6651 12.8466 10.5413C12.9731 10.4282 13.1673 10.4397 13.3247 10.4438C13.5147 10.4487 13.6817 10.551 13.8063 10.6914C13.9377 10.8395 14.0807 11.0195 14.0733 11.2289C14.0677 11.3876 13.9219 11.508 13.7918 11.5773C13.6632 11.6458 13.3995 11.7245 13.2738 11.6087C13.125 11.4714 13.0785 10.867 13.3603 10.8414C13.4471 10.8335 13.5494 10.8378 13.6257 10.883C13.7805 10.9746 13.8159 11.1016 13.8317 11.2679" stroke="#95B7FF" stroke-width="1.03954" stroke-linecap="round"/>
</svg>
