<svg width="36" height="38" viewBox="0 0 36 38" fill="none" xmlns="http://www.w3.org/2000/svg">
<rect x="-0.519772" y="0.519772" width="34.305" height="35.8643" rx="4.67795" transform="matrix(-1 0 0 1 34.3384 0.942871)" fill="white" stroke="black" stroke-width="1.03954"/>
<path d="M19.4029 6.15175C19.4029 5.80181 19.7291 5.40658 19.9556 5.16683C20.1589 4.95161 20.4069 4.76568 20.6464 4.59246C20.8711 4.42996 21.1169 4.31983 21.3965 4.29441C21.6953 4.26725 21.9226 4.30588 22.1603 4.49377C22.358 4.64998 22.5222 4.84175 22.6182 5.07603C22.7803 5.47115 22.8994 5.9226 22.938 6.34715" stroke="black" stroke-width="1.03954" stroke-linecap="round"/>
<path d="M15.6268 5.92665C15.6268 5.57672 15.3007 5.18148 15.0742 4.94173C14.8709 4.72652 14.6229 4.54058 14.3834 4.36736C14.1587 4.20486 13.9129 4.09473 13.6333 4.06932C13.3345 4.04215 13.1072 4.08078 12.8695 4.26867C12.6718 4.42489 12.5076 4.61665 12.4116 4.85094C12.2495 5.24605 12.1304 5.69751 12.0918 6.12206" stroke="black" stroke-width="1.03954" stroke-linecap="round"/>
<path d="M27.1036 21.9795C28.2052 21.9795 29.2431 22.6468 30.1756 23.1745C31.0842 23.6887 31.8499 24.2272 32.5897 24.9669C33.1338 25.511 33.6577 26.0769 34.1679 26.6507C34.2224 26.712 34.5554 27.1939 34.4907 27.1939" stroke="black" stroke-width="1.03954" stroke-linecap="round"/>
<path d="M6.62061 21.2856C6.17215 21.5272 5.71284 21.758 5.28668 22.0386C5.11591 22.151 4.96515 22.2888 4.79241 22.3985C4.58554 22.5298 4.37758 22.6507 4.16375 22.7699C3.60751 23.0799 3.07661 23.4901 2.58991 23.8986C2.02943 24.369 1.53935 24.8932 1.19673 25.5403C1.07738 25.7658 0.964591 26.0107 0.871553 26.2485C0.745267 26.5712 0.720615 26.9101 0.637429 27.2428" stroke="black" stroke-width="1.03954" stroke-linecap="round"/>
<path d="M22.0873 24.4463C22.0873 24.9173 22.1041 25.3917 22.0834 25.8622C22.0402 26.846 21.5963 27.8301 21.3108 28.7598C21.0326 29.6654 20.7258 30.5558 20.3256 31.4159C20.0844 31.9343 19.8091 32.5012 19.4872 32.9767C19.055 33.6152 18.6113 34.2651 18.2451 34.9432C18.0167 35.3663 17.622 35.6644 17.3585 36.0598" stroke="black" stroke-width="1.03954" stroke-linecap="round"/>
<path d="M11.6847 24.3325C11.6847 24.9137 11.6303 25.5221 11.7118 26.0981C11.8333 26.957 12.2837 27.7429 12.5201 28.5725C12.68 29.1339 12.7877 29.6835 13.0123 30.2252C13.2736 30.8557 13.5431 31.4815 13.8792 32.0765C14.3688 32.9432 14.8912 33.8116 15.2835 34.7271C15.4358 35.0824 15.6267 35.5633 15.6267 35.9553" stroke="black" stroke-width="1.03954" stroke-linecap="round"/>
<path d="M20.8572 27.1102C20.6432 27.1734 20.4626 27.2873 20.2819 27.4171C20.0402 27.5908 19.7962 27.7645 19.5642 27.951C19.4906 28.0103 19.4153 28.0779 19.3613 28.1559C19.3345 28.1945 19.3215 28.2139 19.267 28.1963C19.1704 28.1652 19.0851 28.0751 19.013 28.0097C18.7692 27.7885 18.5318 27.5595 18.2925 27.3334C17.9141 26.9759 17.5463 26.5995 17.1429 26.2695C17.1051 26.2386 16.9471 26.0713 16.8918 26.0713" stroke="black" stroke-width="1.03954" stroke-linecap="round"/>
<path d="M16.8914 26.0713C16.8509 26.0814 16.816 26.1167 16.7855 26.1425C16.643 26.2627 16.5052 26.3895 16.369 26.5167C16.0934 26.774 15.8188 27.038 15.5599 27.3123C15.3196 27.567 15.0482 27.8335 14.849 28.1223C14.8081 28.1816 14.7657 28.242 14.7307 28.3051C14.6982 28.3636 14.536 28.2631 14.5094 28.2502C14.0028 28.0039 13.54 27.674 13.078 27.3546C12.8072 27.1675 12.5206 27.0101 12.2333 26.8505" stroke="black" stroke-width="1.03954" stroke-linecap="round"/>
<path d="M18.8018 28.8357C17.9938 28.8357 17.1823 28.8549 16.3743 28.8344C16.0439 28.8261 15.7154 28.7715 15.3844 28.7647C15.1956 28.7608 14.6325 28.7734 14.8183 28.7396C15.1877 28.6725 15.5745 28.6936 15.9478 28.6936C16.3493 28.6936 16.7051 28.7109 17.0958 28.8068C17.3609 28.8719 17.6641 28.9396 17.937 28.9529C18.1599 28.9638 18.3918 28.9905 18.6017 29.0674C18.747 29.1206 18.9292 29.1245 19.0625 29.1912" stroke="black" stroke-width="1.03954" stroke-linecap="round"/>
<path d="M19.1095 28.9307C19.1095 29.2028 19.1329 29.4845 19.0595 29.7495C18.9656 30.0884 18.7927 30.4339 18.6198 30.7394C18.5579 30.8488 18.411 31.2529 18.2433 31.2529C18.0237 31.2529 17.7993 31.3115 17.5798 31.3292C17.1245 31.3659 16.6859 31.395 16.2265 31.395C15.9992 31.395 15.7719 31.395 15.5446 31.395C15.4696 31.395 15.3636 31.1759 15.33 31.1199C15.0614 30.6721 14.9572 30.117 14.8324 29.6178C14.8093 29.5252 14.7821 29.2995 14.7205 29.2203C14.5314 28.9772 15.1453 29.6666 15.3498 29.8969C15.5461 30.118 15.7376 30.3388 15.9053 30.5828C15.9664 30.6716 16.0652 30.7779 16.0975 30.8829C16.111 30.9268 16.0661 30.9167 16.0422 30.9C15.8926 30.7956 15.7931 30.5968 15.7473 30.4261C15.6205 29.9533 16.1528 29.8548 16.5109 29.8548C16.6044 29.8548 17.1975 29.9776 16.8939 30.1484C16.6954 30.2601 16.0015 30.3546 15.9632 30.0101C15.9196 29.6172 16.5987 29.5307 16.865 29.552C17.156 29.5753 17.3671 29.7082 17.5482 29.9338C17.6312 30.0372 17.7486 30.2075 17.7246 30.3511C17.6938 30.5361 17.3819 30.5765 17.2402 30.592C16.9125 30.6278 16.3999 30.6025 16.1423 30.3629C15.6341 29.8905 16.4654 29.5369 16.8531 29.4809C17.2938 29.4174 17.7882 29.4487 18.0708 29.8416C18.2793 30.1314 18.1446 30.5054 17.7523 30.434C17.332 30.3576 16.9848 29.7106 17.3797 29.394C17.5851 29.2294 18.1226 29.2129 18.3131 29.4085C18.641 29.7454 18.1464 29.9533 17.8642 29.9864C17.4733 30.0323 17.1383 30.0169 16.7689 29.8785C16.5486 29.796 16.3505 29.6771 16.1528 29.552C16.0951 29.5155 15.8323 29.3723 15.8684 29.2637C15.9039 29.1574 16.3154 29.2668 16.3687 29.3243C16.5879 29.561 16.2572 29.6264 16.0738 29.6126C15.9567 29.6037 15.8165 29.5884 15.7263 29.5046C15.6951 29.4757 15.7156 29.4757 15.7447 29.4757" stroke="black" stroke-width="1.03954" stroke-linecap="round"/>
<path d="M18.3957 32.3856C18.1032 32.3856 17.7998 32.3633 17.5082 32.3866C17.3441 32.3997 17.1897 32.4215 17.0235 32.4215C16.9426 32.4215 16.8109 32.4373 16.7353 32.4664C16.6284 32.5075 16.469 32.4867 16.3533 32.5073C16.2221 32.5306 16.078 32.5067 15.9504 32.5432C15.8188 32.5808 15.5617 32.5001 15.5017 32.6489C15.4396 32.8027 15.3803 32.9764 15.3441 33.1395C15.3176 33.2586 15.2364 33.3313 15.2364 33.4627C15.2364 33.7612 15.3537 34.0679 15.5226 34.3123C15.6451 34.4896 15.764 34.6683 15.8906 34.8429C15.9307 34.8981 15.9929 35.0073 16.0542 35.0423C16.1136 35.0763 16.1876 35.1428 16.2197 35.2039C16.2764 35.3116 16.3771 35.4148 16.4969 35.4592C16.588 35.4929 16.6527 35.5265 16.7482 35.4831C16.9055 35.4116 17.0436 35.2037 17.1452 35.0722C17.3263 34.8377 17.5188 34.6122 17.7056 34.3821C17.8177 34.2441 17.9411 34.0979 18.0836 33.9902C18.213 33.8923 18.3375 33.7838 18.4316 33.6511C18.5574 33.4739 18.7034 33.3068 18.8166 33.1216C18.8555 33.0579 18.8963 32.9697 18.8166 32.9241C18.7436 32.8824 18.6899 32.8164 18.6211 32.7725C18.5353 32.718 18.4054 32.7267 18.306 32.7267C18.0493 32.7267 17.8113 32.7474 17.568 32.8384C17.3904 32.9048 17.2193 32.9618 17.0494 33.0458C16.9186 33.1104 16.7848 33.1763 16.6505 33.2333C16.4493 33.3186 16.2722 33.4537 16.2057 33.6741C16.1295 33.927 16.1218 34.3305 16.3344 34.5207C16.487 34.6573 16.807 34.6766 16.9776 34.5676C17.1376 34.4654 17.2662 34.2995 17.3925 34.1607C17.4861 34.0579 17.5804 33.9549 17.6587 33.8396C17.7806 33.6604 17.9068 33.5016 17.8731 33.2742C17.8601 33.1864 17.7787 33.0924 17.6837 33.1356C17.4694 33.2329 17.3077 33.5414 17.211 33.7439C17.1088 33.9577 16.9695 34.3279 16.6725 34.3063C16.5312 34.2961 16.4415 34.0881 16.3633 33.9912C16.2978 33.9101 16.2453 33.8327 16.2057 33.7359C16.156 33.6143 16.0896 33.4904 15.9724 33.4267C15.9408 33.4096 15.8904 33.3907 15.8647 33.3649C15.8388 33.3391 15.824 33.2987 15.7929 33.2831" stroke="black" stroke-width="1.03954" stroke-linecap="round"/>
<path fill-rule="evenodd" clip-rule="evenodd" d="M15.2046 5.66704C15.8273 5.634 16.4865 5.62061 17.186 5.62061C18.239 5.62061 19.2174 5.66536 20.1259 5.76961L18.9935 6.71329C18.4252 6.67714 17.8235 6.66015 17.186 6.66015C16.9062 6.66015 16.6348 6.6624 16.3714 6.66718L15.2046 5.66704ZM11.8618 7.23993L12.7198 5.9529C8.83654 6.71546 6.66459 9.05079 4.71142 15.4963C3.01771 21.0855 10.2965 25.3719 17.186 25.3719C24.0754 25.3719 30.9599 20.9539 29.6605 15.4963C28.3242 9.88374 26.0958 7.27622 22.4827 6.22636L22.8274 7.4329C23.5162 7.6867 24.1308 8.01009 24.6834 8.41322C26.418 9.67855 27.7282 11.8687 28.6492 15.7371C29.1671 17.9123 28.1034 20.0003 25.8766 21.6444C23.652 23.287 20.4298 24.3324 17.186 24.3324C13.9307 24.3324 10.6069 23.3136 8.3357 21.6852C6.06826 20.0596 5.03765 18.0042 5.70629 15.7977C6.9904 11.5602 8.30427 9.37344 9.94867 8.18485C10.5141 7.77614 11.1418 7.46813 11.8618 7.23993Z" fill="black"/>
<path d="M16.5557 6.11914C16.4495 6.11914 16.3434 6.11914 16.2372 6.11914C16.0998 6.11914 15.9645 6.17299 15.8271 6.17299C15.7758 6.17299 15.7317 6.20628 15.6821 6.20889C15.6679 6.20963 15.6504 6.22254 15.6373 6.22983C15.6238 6.2373 15.6263 6.23185 15.6439 6.23315C15.6852 6.23621 15.7239 6.24478 15.7659 6.24478C15.8718 6.24478 15.9837 6.25228 16.0877 6.23149C16.1369 6.22164 16.1855 6.21293 16.2356 6.20922C16.3351 6.20185 16.4328 6.17451 16.5317 6.16102" stroke="black" stroke-width="1.03954" stroke-linecap="round"/>
<path d="M19.541 5.96973C19.541 6.08195 19.4474 6.16099 19.3648 6.22234C19.3172 6.25778 19.2907 6.26888 19.2326 6.26888C19.1495 6.26888 19.0679 6.27486 18.9846 6.27486" stroke="black" stroke-width="1.03954" stroke-linecap="round"/>
<path d="M12.2952 5.93506C12.2952 6.04059 12.2859 6.12964 12.2635 6.23253C12.2415 6.33391 12.1861 6.46901 12.1151 6.54547C12.0396 6.62683 11.9794 6.66137 11.8838 6.71285C11.834 6.73964 11.7734 6.75269 11.7199 6.77051C11.5797 6.81724 11.45 6.88312 11.3331 6.97305" stroke="black" stroke-width="1.03954" stroke-linecap="round"/>
<path d="M23.1814 6.99854C23.1122 6.99854 23.0068 6.89554 22.976 6.83398C22.9446 6.77116 22.9409 6.70134 22.9409 6.63145C22.9409 6.47395 22.9202 6.31897 22.9029 6.16309" stroke="black" stroke-width="1.03954" stroke-linecap="round"/>
<path d="M17.1861 11.3381C17.1861 13.0273 18.6643 14.4567 20.5646 14.4567C22.4649 14.4567 23.9431 13.0273 23.9431 11.3381C23.9431 9.64893 22.4649 8.21948 20.5646 8.21948C18.6643 8.21948 17.1861 9.64893 17.1861 11.3381Z" stroke="black" stroke-width="1.03954"/>
<path d="M10.429 11.3381C10.429 13.0273 11.9073 14.4567 13.8075 14.4567C15.7078 14.4567 17.186 13.0273 17.186 11.3381C17.186 9.64893 15.7078 8.21948 13.8075 8.21948C11.9073 8.21948 10.429 9.64893 10.429 11.3381Z" stroke="black" stroke-width="1.03954"/>
<path d="M18.7866 10.7476C18.8169 10.7476 18.8896 10.731 18.8955 10.7721C18.9031 10.825 18.9447 10.9381 18.8943 10.9777C18.8301 11.0282 18.738 11.0449 18.6592 11.0292C18.6264 11.0226 18.5017 10.9594 18.549 10.9067C18.6272 10.8199 18.7749 10.7986 18.8845 10.8161C19.0233 10.8383 19.1408 11.028 19.0179 11.132C18.7083 11.394 18.4378 10.7569 18.8208 10.6496C19.0378 10.5889 19.2542 10.7012 19.2885 10.9239C19.3251 11.1618 19.1307 11.1442 18.9408 11.1442" stroke="black" stroke-width="1.03954" stroke-linecap="round"/>
<path d="M15.4149 10.7475C15.5793 10.7475 15.423 11.0464 15.2288 10.9765C15.0805 10.9231 14.9962 10.7988 14.9962 10.6496C14.9962 10.5207 15.3599 10.5641 15.4235 10.597C15.4895 10.6311 15.6641 10.8224 15.5765 10.9067C15.4835 10.9963 15.2827 11.0431 15.1554 11.034C15.0182 11.0242 14.998 10.7063 14.9962 10.6202C14.994 10.5127 15.0344 10.489 15.1064 10.417" stroke="black" stroke-width="1.03954" stroke-linecap="round"/>
<path d="M15.1477 10.3367C15.2432 10.3367 15.3234 10.3127 15.3712 10.4112C15.4097 10.4905 15.396 10.585 15.396 10.6706C15.396 10.7829 15.4277 10.9515 15.3809 11.0555C15.2846 11.2695 15.0497 11.3377 14.8359 11.33C14.5274 11.319 14.367 10.8911 14.5297 10.6471C14.6966 10.3966 15.0612 10.3495 15.3367 10.3629C15.6512 10.3783 15.8495 10.5842 15.8872 10.8858C15.8997 10.9859 15.9068 11.1119 15.8872 11.2114C15.855 11.3751 15.6544 11.3991 15.5188 11.4169C15.2088 11.4577 14.944 11.3364 14.7807 11.0624C14.6769 10.8881 14.6454 10.5467 14.7752 10.3809C14.898 10.224 15.1878 10.0889 15.3836 10.1905C15.6448 10.3259 15.8974 10.551 15.9368 10.8582C15.9691 11.1088 15.93 11.3298 15.6802 11.4418C15.3304 11.5986 14.9164 11.6154 14.7504 11.2003C14.6896 11.0484 14.6219 10.8911 14.6524 10.723C14.6724 10.613 14.9327 10.4971 15.0236 10.4857" stroke="black" stroke-width="1.03954" stroke-linecap="round"/>
<path d="M18.8232 11.0322C18.6493 11.0322 18.6397 11.0184 18.55 10.8639C18.4075 10.6184 18.6032 10.4673 18.8218 10.399C19.1663 10.2913 19.2825 10.645 19.3336 10.908C19.3996 11.2473 19.421 11.5516 19.0108 11.5978C18.7637 11.6257 18.5004 11.4863 18.4313 11.2309C18.3638 10.9808 18.4307 10.8039 18.6121 10.6225C18.9888 10.2458 19.5215 10.7475 19.4674 11.1798C19.4446 11.3621 19.087 11.4069 18.9584 11.4419C18.6874 11.5158 18.4479 11.5299 18.4065 11.2143C18.3708 10.9419 18.4196 10.6917 18.5252 10.4417C18.5952 10.2758 18.816 10.2885 18.9666 10.2872C19.1979 10.2852 19.3569 10.3137 19.5543 10.4362C19.7646 10.5667 19.9722 10.7841 19.8772 11.0556C19.81 11.2475 19.6081 11.2874 19.4688 11.4047C19.3295 11.522 18.9535 11.4564 18.7983 11.4047" stroke="black" stroke-width="1.03954" stroke-linecap="round"/>
<path d="M24.4247 14.1626C24.2509 14.1626 24.2412 14.1487 24.1516 13.9943C24.009 13.7488 24.2048 13.5976 24.4233 13.5293C24.7678 13.4217 24.884 13.7754 24.9352 14.0384C25.0011 14.3777 25.0226 14.682 24.6123 14.7282C24.3653 14.756 24.102 14.6167 24.0329 14.3612C23.9653 14.1111 24.0322 13.9342 24.2136 13.7528C24.5903 13.3761 25.123 13.8778 25.069 14.3102C25.0462 14.4925 24.6885 14.5372 24.5599 14.5723C24.289 14.6462 24.0495 14.6603 24.0081 14.3447C23.9723 14.0722 24.0212 13.8221 24.1267 13.5721C24.1968 13.4061 24.4175 13.4189 24.5682 13.4176C24.7994 13.4155 24.9585 13.4441 25.1559 13.5666C25.3662 13.6971 25.5738 13.9144 25.4787 14.186C25.4116 14.3779 25.2096 14.4178 25.0704 14.5351C24.931 14.6524 24.5551 14.5868 24.3999 14.5351" stroke="black" stroke-width="1.03954" stroke-linecap="round"/>
<path d="M10.0008 14.1626C10.1747 14.1626 10.1843 14.1487 10.274 13.9943C10.4165 13.7488 10.2207 13.5976 10.0022 13.5293C9.6577 13.4217 9.54151 13.7754 9.49037 14.0384C9.4244 14.3777 9.40295 14.682 9.8132 14.7282C10.0603 14.756 10.3236 14.6167 10.3926 14.3612C10.4602 14.1111 10.3933 13.9342 10.2119 13.7528C9.83521 13.3761 9.30251 13.8778 9.35655 14.3102C9.37933 14.4925 9.73702 14.5372 9.86562 14.5723C10.1366 14.6462 10.3761 14.6603 10.4175 14.3447C10.4532 14.0722 10.4044 13.8221 10.2988 13.5721C10.2287 13.4061 10.008 13.4189 9.85734 13.4176C9.62609 13.4155 9.46704 13.4441 9.26963 13.5666C9.05935 13.6971 8.85176 13.9144 8.94681 14.186C9.01396 14.3779 9.21589 14.4178 9.35517 14.5351C9.4945 14.6524 9.87048 14.5868 10.0257 14.5351" stroke="black" stroke-width="1.03954" stroke-linecap="round"/>
<path d="M17.2128 13.6343C17.0059 13.6343 16.385 13.6343 16.5919 13.6343C16.7984 13.6343 17.0049 13.6343 17.2113 13.6343C17.2697 13.6343 17.69 13.6453 17.6988 13.7153C17.7213 13.8954 17.581 13.9885 17.4708 14.1472C17.4003 14.2487 17.329 14.3609 17.2728 14.4711C17.2408 14.5341 17.2237 14.6192 17.1724 14.6706C17.1466 14.6964 16.8971 14.3046 16.8559 14.2552C16.7396 14.1156 16.6641 13.9526 16.553 13.8097C16.5144 13.7601 16.457 13.727 16.457 13.6613" stroke="black" stroke-width="1.03954" stroke-linecap="round"/>
<path d="M19.053 15.1284C19.2534 15.1588 19.2978 15.1704 19.3253 15.3558C19.3495 15.5192 19.3659 15.7824 19.3015 15.9354C19.1341 16.3328 18.6409 16.4926 18.246 16.4926C17.8708 16.4926 17.5842 16.3465 17.4867 15.9621C17.4187 15.6937 17.4085 15.4125 17.512 15.1537" stroke="black" stroke-width="1.03954" stroke-linecap="round"/>
<path d="M17.1836 15.1541C17.1836 14.9876 17.1863 15.4872 17.1836 15.6538C17.178 16.0114 16.8206 16.2327 16.5296 16.3555C15.9842 16.5858 15.5076 16.5737 15.0279 16.2025C14.5975 15.8696 14.4557 15.2044 15.011 14.9268" stroke="black" stroke-width="1.03954" stroke-linecap="round"/>
<path d="M16.3135 16.7085C16.3135 17.7332 16.1641 18.9136 16.839 19.7753C17.1015 20.1105 17.6241 20.1775 17.9882 19.9559C18.3841 19.7149 18.427 19.2927 18.4546 18.8657C18.4889 18.3332 18.4592 17.7886 18.4592 17.2547C18.4592 17.0827 18.5156 16.7931 18.4175 16.646" stroke="black" stroke-width="1.03954" stroke-linecap="round"/>
<path d="M26.2907 13.0249C27.188 12.8753 28.0911 12.1871 28.9573 11.8999C30.2317 11.4774 31.5256 11.4312 32.853 11.4312" stroke="black" stroke-width="1.03954" stroke-linecap="round"/>
<path d="M27.5094 15.4619C29.1789 15.4619 30.5911 15.5106 32.1968 16.0244" stroke="black" stroke-width="1.03954" stroke-linecap="round"/>
<path d="M8.66577 11.5243C7.59638 10.362 6.64117 8.83856 5.0096 8.43066" stroke="black" stroke-width="1.03954" stroke-linecap="round"/>
<path d="M7.63452 13.6807L2.11247 13.4171" stroke="black" stroke-width="1.03954" stroke-linecap="round"/>
<path d="M26.9836 22.5014C26.7306 22.5435 26.4698 22.9124 26.2635 23.0812C26.0455 23.2596 25.8157 23.3854 25.6191 23.5929C25.0443 24.1997 24.1433 24.5725 23.3527 24.836C23.1403 24.9068 22.9328 24.9744 22.7197 25.0217C22.3733 25.0987 22.9988 24.7374 23.0798 24.6844C23.4926 24.4145 23.9431 24.296 24.4329 24.169C24.8425 24.0628 25.3095 24.1035 25.7025 23.9871C25.9393 23.9169 26.0717 23.7147 26.2672 23.5626C26.6495 23.2653 26.9925 23.2518 27.4611 23.2518C27.96 23.2518 28.2871 23.3961 28.7573 23.5398C29.2298 23.6842 29.7543 24.0425 30.1938 24.2751C30.7647 24.5774 31.2662 24.99 31.7894 25.3666C32.3744 25.7879 32.7476 26.4804 33.294 26.9054C33.4579 27.0328 33.5933 27.1629 33.6844 27.3451C33.7724 27.5211 33.9058 28.1003 33.8436 27.9136C33.6921 27.4593 33.1791 26.9626 32.8961 26.5833C32.5875 26.1696 32.2562 25.7763 31.8993 25.4045C31.389 24.873 30.7843 24.3487 30.1217 24.0174C29.2594 23.5862 28.3515 23.4674 27.4611 23.1495C27.2426 23.0714 27.1882 22.9303 27.1882 22.706C27.1882 22.6318 27.3597 22.8168 27.4005 22.8538C27.7907 23.2086 28.2071 23.5471 28.5868 23.9113C29.8877 25.159 30.8099 26.8336 31.9031 28.2547C32.1248 28.5429 32.3452 28.9388 32.608 29.187C33.1414 29.6908 31.8841 27.9082 31.4634 27.3072C30.883 26.478 30.3409 25.615 29.8299 24.7413C29.7615 24.6244 29.3115 24.0402 29.648 24.0894C31.21 24.318 32.2098 26.0345 32.8354 27.3147C32.9329 27.5143 32.9991 27.7194 33.0856 27.9211C33.2506 28.3062 32.4798 27.3412 32.1987 27.0305C31.8205 26.6124 31.3967 26.1498 31.1223 25.6509C30.9138 25.2717 31.8979 26.4418 31.9069 26.4544C32.459 27.2312 32.9498 28.0419 33.3509 28.9066C33.4967 29.221 33.591 29.4419 33.2675 28.9975C32.5508 28.013 31.8392 27.0252 31.1109 26.0489C30.7527 25.5686 30.4124 25.0739 30.0497 24.5973C29.8022 24.272 29.9409 24.6871 29.9891 24.8209C30.4929 26.2186 31.2694 27.5296 31.8652 28.8914C32.0765 29.3745 32.2964 29.8524 32.5322 30.324C32.5863 30.4322 32.771 30.741 32.6914 30.65C31.8504 29.6889 30.9567 28.7752 30.1217 27.8074C29.7874 27.4199 29.4691 27.0225 29.1666 26.6098C29.0847 26.498 28.9159 26.3332 28.8938 26.1853C28.8809 26.0993 28.9755 26.203 28.9809 26.208C29.4041 26.6056 29.7989 27.039 30.1786 27.4777C30.9257 28.341 31.6405 29.2214 32.2934 30.1573C32.3357 30.2178 32.711 30.7212 32.4867 30.3771C31.4195 28.7394 30.3863 27.0863 29.4016 25.397C29.1664 24.9934 28.9315 24.5927 28.6739 24.2031C28.6146 24.1134 28.4238 23.9049 28.4238 23.7748C28.4238 23.6128 28.6325 24.0234 28.7232 24.1576C29.1497 24.7892 29.5673 25.4271 29.9739 26.0716C30.6175 27.0917 31.2794 28.1486 31.7174 29.278C31.8415 29.5982 31.756 29.5782 31.5165 29.3386C31.0154 28.8376 30.5951 28.2601 30.1938 27.6786C29.5318 26.7195 28.8947 25.723 28.3632 24.6844C28.3483 24.6553 28.0959 24.1635 28.1812 24.2599C28.513 24.635 28.8252 25.0334 29.1136 25.4424C29.7367 26.3261 30.3612 27.271 30.785 28.2698C30.9725 28.7118 31.1596 29.1569 30.6258 28.5503C29.8539 27.6731 29.1464 26.7359 28.5148 25.7532C28.3918 25.5619 27.6533 24.3731 28.2722 25.162C28.9693 26.0505 29.5887 27.1156 30.1217 28.1106C30.1309 28.1277 30.5121 28.8953 30.4401 28.8914C30.1126 28.8737 29.5876 28.0464 29.4319 27.8529C28.5966 26.8146 27.89 25.7059 27.2413 24.5442C27.089 24.2716 26.5821 23.726 27.1844 23.8544C27.9269 24.0126 28.5618 24.6398 28.9999 25.2302C29.0641 25.3167 29.666 26.0477 29.5608 26.1853C29.2861 26.5446 28.1045 25.5256 27.9576 25.4008C27.7837 25.2529 26.6621 24.4107 26.7941 24.0477C26.8966 23.7656 28.0255 24.2026 28.1661 24.2865C28.6439 24.5715 29.1605 25.2726 28.9696 25.8556C28.4937 27.3082 25.9488 26.6924 25.7404 25.3287C25.6931 25.0186 25.8033 24.836 26.1498 24.836C26.8983 24.836 27.2612 25.4084 27.3133 26.0943C27.3689 26.8268 27.2925 27.6897 26.6804 28.1864C25.8487 28.8613 25.1479 28.3286 24.9369 27.4133C24.7686 26.683 24.4195 24.5932 25.8769 25.0559C26.7158 25.3222 26.5225 27.6868 25.8617 27.3451C25.4259 27.1197 25.4214 26.1329 25.4145 25.7229C25.4066 25.2568 25.3558 24.8784 25.9148 24.836C27.0596 24.7493 27.2969 26.9218 26.6197 27.5042C26.1243 27.9303 25.2519 28.0586 24.755 27.5725C24.33 27.1567 24.2918 26.1547 24.467 25.6168C24.5348 25.4083 24.6642 25.2058 24.8687 25.1089C25.1056 24.9967 24.9842 25.4856 24.9748 25.5561C24.8644 26.3841 24.5345 27.1 24.1031 27.8112C23.9952 27.9891 23.617 28.5953 23.3716 28.2395C22.9186 27.5826 23.0267 26.4126 23.0267 25.6395C23.0267 25.5031 23.0267 25.3666 23.0267 25.2302C23.0267 24.8466 23.4178 25.4132 23.5422 25.5258C23.8256 25.7826 24.0775 25.9847 24.2168 26.3521C24.3664 26.7464 24.3114 26.7273 24.3267 26.2763C24.3396 25.8978 24.3875 25.494 24.4745 25.1241C24.562 24.7523 24.1357 25.8087 23.9591 26.1474C23.7652 26.5194 23.7013 26.9195 23.5384 27.2996C23.4101 27.599 23.4361 26.9316 23.4361 26.8675C23.4361 26.5605 23.4361 26.2535 23.4361 25.9465C23.4361 25.692 23.3216 26.6534 23.292 26.7765C23.1666 27.2992 23.0007 27.8357 22.8069 28.3381C22.7986 28.3597 22.5941 28.7497 22.5644 28.6792C22.4752 28.4675 22.6921 26.7462 22.8562 26.7462C22.9374 26.7462 22.5528 27.8665 22.534 27.9211C22.2363 28.7901 22.0062 29.6786 21.7457 30.559C21.6502 30.8817 21.6171 31.3243 21.4046 31.5899C21.1244 31.9402 21.8317 30.7991 22.0034 30.3847C22.3049 29.657 22.5887 28.9052 22.7842 28.141C22.83 27.9619 22.9563 27.4663 22.8448 27.9628C22.5799 29.1431 22.3037 30.3234 22.0186 31.499C21.7658 32.5415 21.5674 33.6406 21.162 34.6371C20.7613 35.6223 22.0144 32.6674 22.2005 31.6202C22.2164 31.5309 22.4028 30.8607 22.2649 31.0934C21.8106 31.8601 21.5278 32.7463 21.1203 33.5418C20.9161 33.9406 20.7119 34.4178 20.3813 34.7357C20.2929 34.8207 20.6625 33.6515 20.7224 33.5077C20.9957 32.8511 21.2138 32.1684 21.5183 31.5255C21.7523 31.0314 21.5391 31.5784 21.4501 31.7605C20.8117 33.0662 20.1702 34.3736 19.4262 35.6226C18.8563 36.5791 20.1547 33.5172 20.5708 32.4844C20.6479 32.2929 21.2871 30.8085 20.7679 31.6581C20.2514 32.5033 19.762 33.3828 19.358 34.2885C19.0261 35.0322 18.5581 35.7005 17.804 36.0433C17.3783 36.2368 16.6952 36.0208 16.2425 36.0812C15.8731 36.1304 15.5209 36.1456 15.1434 36.1456C14.514 36.1456 15.5327 36.1456 15.6968 36.1456C17.1703 36.1456 18.664 36.2084 20.1273 36.0812C21.003 36.005 21.8803 35.8727 22.7614 35.8727C23.393 35.8727 23.9777 35.8399 24.5996 35.7363C25.0146 35.6671 25.4779 35.5484 25.8769 35.4103C26.2001 35.2984 26.5328 35.3035 26.8699 35.2435C27.3117 35.165 27.7495 35.0688 28.1812 34.9479C28.6344 34.821 29.1215 34.4223 29.576 34.3718C29.7523 34.3522 29.576 34.0183 29.576 33.9284C29.576 33.8241 29.8408 33.7505 29.9474 33.6896C30.6436 33.2918 30.8731 32.6572 30.7964 31.8704C30.6897 30.7767 29.8214 30.0784 29.4016 29.134C29.2016 28.6839 29.9008 29.2294 29.9853 29.3538C30.4543 30.0443 30.4739 31.0552 30.3643 31.8552C30.3162 32.2063 30.0434 32.9137 29.576 32.8748C28.8333 32.8129 28.962 30.7895 28.962 30.324C28.962 29.9031 28.834 29.0653 29.3713 28.8762C30.0118 28.6509 30.1296 29.9964 30.1596 30.3316C30.2386 31.2119 30.3319 32.4821 29.8223 33.2576C29.5916 33.6087 29.1326 33.9251 28.6929 33.8602C28.0189 33.7606 27.7386 32.9317 27.59 32.3783C27.244 31.0899 26.9762 29.2939 27.6317 28.0538C27.8468 27.6467 28.2923 27.0555 28.6285 27.6748C29.2193 28.7631 29.124 30.4066 28.9544 31.5899C28.8813 32.0999 28.5727 33.5785 27.8704 33.6972C27.2583 33.8007 27.4178 31.0588 27.4497 30.7144C27.5164 29.997 27.7019 29.2651 27.897 28.573C27.9763 28.2917 28.0714 27.9339 28.276 27.7089C28.5171 27.4437 28.7519 27.7971 28.8255 28.0121C29.292 29.3743 29.0646 31.1864 28.7497 32.5526C28.6906 32.8093 28.1473 34.2822 27.8704 33.4243C27.637 32.7012 27.6679 31.8687 27.6658 31.12C27.6637 30.4089 27.6919 29.7007 27.8022 28.9975C27.8306 28.8166 27.945 27.6478 28.3177 27.6975C28.7863 27.76 28.6805 29.0076 28.6853 29.2818C28.7037 30.3293 28.6794 31.4281 28.2646 32.4086C28.0687 32.8717 27.4118 33.8269 26.9608 33.0377C26.4587 32.159 26.6947 30.9568 27.0935 30.0966C27.3153 29.6182 27.7074 28.7573 28.2078 28.4821C28.6829 28.2207 28.6159 29.9102 28.6171 29.9981C28.6336 31.2615 28.5701 32.5532 28.1774 33.7654C28.0187 34.2554 27.8448 34.5182 27.7492 33.8261C27.5819 32.6149 27.7256 31.2927 28.257 30.18C28.6327 29.3934 29.2273 29.289 29.2273 30.2824C29.2273 31.0017 28.7588 31.6143 28.2343 32.0675C28.0901 32.1921 27.0495 32.8339 26.9305 32.4768C26.6377 31.5984 27.4802 30.5422 27.9917 29.9299C28.4516 29.3794 28.9248 28.9371 29.6745 28.9293C30.2904 28.9229 30.1971 30.1197 30.1824 30.4946C30.1441 31.471 29.8127 32.4832 28.9582 33.0529C28.5431 33.3296 27.9194 33.4586 27.4232 33.4016C26.782 33.3279 27.1755 32.644 27.446 32.3707C28.1689 31.6401 29.785 31.4548 29.6328 32.8748C29.5301 33.8331 28.4947 34.1836 27.6544 34.243C26.6851 34.3115 26.1336 33.6245 26.1914 32.689C26.2584 31.6067 27.0724 30.8886 28.0599 30.5742C28.6371 30.3904 29.6608 30.4426 29.9853 31.0517C31.059 33.0673 27.0982 34.116 25.9489 32.9127C25.0788 32.0017 25.0568 30.8631 25.6495 29.8238C26.0335 29.1502 26.6592 28.5209 27.4611 28.3987C28.0547 28.3082 28.2303 28.8594 28.113 29.3614C27.9235 30.1723 26.9674 30.2176 26.4075 29.8086C25.9961 29.5081 25.7464 28.897 25.8314 28.3873C25.8488 28.2828 25.9582 28.2131 26.0626 28.2585C26.3014 28.3623 26.3085 28.843 26.3279 29.043C26.4103 29.8943 26.5454 31.0474 26.271 31.8704C26.2404 31.9621 25.9381 32.7673 25.7556 32.4237C25.4205 31.7929 25.5397 30.8176 25.5547 30.1345C25.5623 29.7903 25.5856 29.4456 25.6533 29.1074C25.6546 29.1006 25.7415 28.6907 25.7859 28.9066C25.8778 29.353 25.8238 29.857 25.8238 30.3089C25.8238 30.8273 25.8423 31.3522 25.7139 31.859C25.6595 32.0737 25.5052 32.8352 25.2401 32.9316C24.9481 33.0378 24.9546 31.2074 24.9521 31.1124C24.9261 30.1332 24.9795 29.1694 25.0052 28.194C25.0432 26.7478 25.1655 31.1051 24.9369 32.5337C24.8932 32.807 24.8684 31.8713 24.8687 31.8401C24.8797 30.8154 25.074 29.8183 25.1568 28.8004C25.1587 28.7767 25.1837 28.3999 25.1795 28.4063C25.0084 28.6674 24.9044 29.0153 24.7853 29.3007C24.3846 30.2615 24.1266 31.2619 23.8302 32.257C23.5796 33.0985 23.7404 31.4793 23.7544 31.317C23.844 30.2828 23.9695 29.2177 24.1486 28.194C24.2256 27.7543 24.1146 28.1102 24.0197 28.3305C23.6419 29.2074 23.2349 30.0746 22.9585 30.9911C22.8983 31.1908 22.7539 31.7909 22.7539 31.5823C22.7539 30.7777 22.917 29.9824 23.0192 29.187C23.0609 28.8617 23.0827 28.5338 23.1291 28.2092C23.1534 28.0387 23.1632 27.9595 23.1632 28.2243C23.1632 29.6703 22.9886 31.0994 22.86 32.5374C22.8101 33.0947 22.708 33.6619 22.6856 34.2202C22.6825 34.2991 22.6985 34.0623 22.716 33.9852C22.8059 33.5885 23.0121 33.2194 23.2617 32.9013C24.5045 31.3177 26.7009 31.3014 28.0978 32.6625C28.3981 32.9551 28.5341 33.1992 28.0751 33.3788C26.7209 33.9088 25.1587 34.083 23.7165 34.152C23.3127 34.1713 22.9079 34.1672 22.5037 34.1672C22.4252 34.1672 22.1977 34.1854 22.2687 34.152C22.4306 34.0758 22.6623 34.0999 22.8297 34.0989C23.4764 34.0953 24.1234 34.0989 24.7702 34.0989C25.3256 34.0989 26.0854 33.9644 26.6273 34.1368C26.7574 34.1782 26.7708 34.2211 26.6121 34.243C25.8885 34.3428 25.1585 34.3989 24.4329 34.4817C23.1101 34.6327 21.7952 34.8304 20.4874 35.0768C19.6283 35.2386 20.5566 35.0794 20.874 34.9707C22.3508 34.4648 23.8725 33.8064 25.4713 33.9663C26.9014 34.1093 22.6174 34.3476 21.2189 34.6788C19.6584 35.0484 24.4297 34.5859 26.0209 34.387C26.3878 34.3411 27.0015 34.1871 27.3739 34.3112C27.5423 34.3673 27.0856 34.5264 26.9191 34.5879C26.238 34.8396 25.5269 35.0199 24.8308 35.2246C23.7852 35.5321 22.746 35.7754 21.6699 35.9409C21.6123 35.9498 20.9318 36.0091 21.2985 36.0091C22.0029 36.0091 22.7021 35.9921 23.4057 35.9561C23.6462 35.9438 24.6766 36.0252 24.8536 35.7893C24.9731 35.6299 23.7927 35.1771 23.7355 35.1526C23.0967 34.8788 22.4898 34.5348 21.848 34.2733C21.5064 34.1341 21.9783 34.0587 22.1474 33.9928C22.8511 33.7188 23.5746 33.5106 24.2926 33.2803C24.5456 33.1992 24.7638 33.1439 25.0279 33.1439C25.4826 33.1439 24.1122 33.1139 23.6711 33.0036C23.6123 32.9889 22.6344 32.6283 22.9813 32.5337C23.5791 32.3706 24.3656 32.4162 24.9748 32.4692C25.0863 32.4789 25.7306 32.6176 25.4675 32.7952C24.9591 33.1383 24.2742 33.2783 23.7014 33.4622C22.8962 33.7207 22.0941 33.9903 21.2757 34.2051C20.8999 34.3037 19.7615 34.5083 20.1501 34.5083C20.7931 34.5083 21.4362 34.5083 22.0792 34.5083C23.4386 34.5083 24.7675 34.5977 26.127 34.5765C26.8046 34.5659 27.4401 34.3978 28.0865 34.2089C28.4915 34.0905 28.8647 34.1159 29.0681 33.701C29.4809 32.859 29.7051 31.9863 30.0687 31.1351C30.5397 30.0325 31.644 29.6955 32.7748 29.8086C33.015 29.8326 33.3021 29.975 33.457 30.1687C33.5407 30.2733 33.3448 29.9251 33.294 29.801C33.1133 29.3592 33.0985 28.7034 33.3964 28.3153C33.4721 28.2166 33.5359 28.0741 33.6351 27.9969C33.7219 27.9295 33.873 27.9431 33.9421 27.8567C34.0402 27.7341 34.1455 28.1861 34.1468 28.2319C34.1647 28.8771 34.1835 29.5321 34.0103 30.1573C33.7836 30.9761 33.7328 31.7988 33.5669 32.6284C33.504 32.9428 33.4646 33.2408 33.4646 33.5608C33.4646 33.8132 33.4646 33.6828 33.4646 33.5153C33.4646 33.2678 33.3057 32.1057 33.5025 31.9651C33.5737 31.9143 33.9421 33.4518 33.9421 33.6479C33.9421 34.331 34.1468 32.292 34.1468 31.6089C34.1468 31.441 34.1011 30.9719 33.9952 30.8395C33.8621 30.6731 33.5571 30.2665 33.3281 30.2786C32.9849 30.2966 32.7381 31.4898 32.7179 31.7415C32.7091 31.8525 32.7645 32.1651 32.699 32.0751C32.58 31.9115 32.5703 31.4922 32.5246 31.2867C32.4678 31.0311 32.4741 31.054 32.5398 31.2981C32.6639 31.7589 32.1858 31.4344 31.9902 31.2753C31.6478 30.9967 30.8882 30.2981 30.8532 29.8086C30.8441 29.6813 31.1158 29.8622 31.2095 29.9488C31.6515 30.3574 32.0231 30.8476 32.3655 31.3398C32.8929 32.098 33.4045 32.8717 33.7905 33.7124C33.8716 33.8889 34.093 34.2636 33.7071 34.1217C33.0339 33.8742 32.4773 33.2186 32.1381 32.6019C31.8536 32.0846 32.3544 32.1087 32.7293 32.3555C33.0496 32.5663 33.3233 32.8994 33.4494 33.2651C33.5469 33.5478 32.8036 33.3935 32.699 33.3713C32.1137 33.2471 31.6125 32.9459 31.255 32.4692C31.2123 32.4123 30.8143 31.9454 31.02 31.9197C31.803 31.8218 32.526 32.782 32.9036 33.3485C32.9629 33.4374 33.0599 33.7506 32.9757 33.8488C32.8501 33.9953 32.0929 33.1379 32.0092 33.0491C31.9666 33.0039 31.4989 32.401 31.5923 32.401C31.7688 32.401 31.7171 32.5072 31.5582 32.2191C31.4382 32.0016 31.0796 31.2194 31.5695 31.6885C32.3051 32.3927 33.0752 33.1072 33.4949 34.061C33.6449 34.402 33.6997 34.5221 33.5328 34.8873C33.3506 35.2858 32.7457 34.8354 32.5095 34.6599C32.1197 34.3703 31.8464 33.9223 31.4937 33.5949C31.2098 33.3312 31.413 33.4394 31.6226 33.5532C32.143 33.8357 32.7937 34.6447 32.9226 35.2246C32.9547 35.3689 33.0953 35.5998 32.8506 35.5998C32.2195 35.5998 31.7505 35.4075 31.3497 34.9176C31.2384 34.7815 29.7892 32.9072 30.1217 32.7497C30.3324 32.6499 31.0108 32.6787 31.0768 32.943C31.177 33.3438 31.1451 33.7559 31.1451 34.1672C31.1451 34.5892 31.2608 34.9267 31.3497 35.3269C31.4238 35.6601 31.6069 35.6624 31.8614 35.8386C32.0487 35.9683 32.2313 36.1073 32.3579 36.2972C32.3693 36.3143 31.4623 36.3502 31.3573 36.3502C30.4223 36.3502 30.0523 36.1883 29.8489 35.1829C29.8222 35.0514 29.5349 34.2354 29.8147 34.2354C30.0471 34.2354 30.2291 34.3148 30.3112 34.5613C30.44 34.9476 30.4628 35.494 30.4628 35.9068C30.4628 36.0017 30.5698 36.2761 30.4628 36.282C30.2585 36.2934 30.0498 36.282 29.8451 36.282C29.3881 36.282 28.7663 36.3953 28.3328 36.2669C27.8388 36.1205 27.1954 36.2138 26.6804 36.2138C26.0765 36.2138 25.4726 36.2138 24.8687 36.2138C23.4925 36.2138 22.1556 36.4867 20.7754 36.4867C20.4457 36.4867 20.116 36.4867 19.7862 36.4867C19.621 36.4867 20.1929 36.3502 20.3131 36.3502C21.3861 36.3502 22.4415 36.433 23.5043 36.5511C24.9361 36.7102 26.4845 36.5549 27.9235 36.5549C28.5086 36.5549 29.1412 36.618 29.6745 36.3654C29.8325 36.2906 30.2325 36.2369 29.9095 36.0395C29.2727 35.6503 28.4702 35.4624 27.7833 35.1602C27.7334 35.1382 27.4181 35.0592 27.4914 34.9858C27.6854 34.7919 28.0843 34.7682 28.3328 34.7129C28.4529 34.6863 29.7957 34.4159 29.5381 34.747C29.3018 35.0508 28.73 35.2213 28.3935 35.3648C27.4987 35.7463 26.5487 36.1572 25.5812 36.3199C25.1008 36.4007 24.328 36.5495 24.1334 36.0243C23.928 35.4696 23.1801 34.9631 22.6591 34.7508C22.3294 34.6165 21.9968 34.6447 21.6472 34.6447C21.4404 34.6447 21.2278 34.6306 21.0218 34.6485C20.8332 34.6649 20.8664 34.8133 20.9157 34.7395C21.3476 34.0916 21.8937 33.4947 22.4734 32.9771C23.0015 32.5056 22.6585 32.8722 22.3142 33.0074C21.1805 33.4528 20.6698 34.4226 20.2335 35.4861C20.0235 35.9978 19.7512 36.0364 19.2897 36.2972C18.9484 36.4901 18.7002 36.6231 18.3043 36.6231C17.539 36.6231 16.7688 36.5097 16.0341 36.3465C15.299 36.1831 14.4448 36.282 13.6804 36.282C12.7002 36.282 11.7515 36.0774 10.7507 36.0774C10.2154 36.0774 9.57311 36.055 9.07172 35.8727C8.5358 35.6778 8.32545 35.2921 8.15453 34.7508C7.85599 33.8055 7.80446 32.7499 7.71867 31.7681C7.64263 30.8979 7.60876 30.0113 7.60876 29.1378C7.60876 27.9777 7.73874 26.9802 8.0522 25.8518C8.17679 25.4032 9.28045 25.361 9.64023 25.2454C9.95557 25.144 10.3447 24.858 10.6787 24.8209C11.3454 24.7468 10.5255 24.4115 10.2353 24.4115C9.63892 24.4115 8.94723 23.9003 8.49184 23.5588C8.00135 23.1909 7.48874 22.8522 7.06299 22.4028C6.97624 22.3112 6.93466 22.2557 6.82422 22.1944C6.70357 22.1273 6.70795 22.2753 6.61197 22.327C6.2886 22.5011 5.89187 22.4776 5.57729 22.6757C5.3135 22.8418 4.98244 22.9378 4.74726 23.1495C4.41012 23.4529 4.18545 23.7607 3.8907 24.1008C3.67015 24.3552 3.76988 24.4832 3.56855 24.4798C3.05331 24.471 2.71131 24.3232 2.2534 24.6124C1.76056 24.9237 1.51825 25.3256 1.19597 25.7911C1.04784 26.0051 0.916893 26.2176 0.756323 26.4241C0.675945 26.5274 0.364926 27.221 0.650201 26.9357C1.15652 26.4294 1.73299 25.9706 2.21171 25.4387C2.48885 25.1307 2.78012 24.6394 3.20849 24.5442C3.30418 24.5229 3.34265 24.417 3.44727 24.4115C3.62458 24.4022 3.79909 24.456 3.9703 24.4949C4.46838 24.6081 4.86173 24.7526 5.38778 24.7526C6.24686 24.7526 7.10594 24.7526 7.96503 24.7526C8.55755 24.7526 9.00578 25.162 9.58717 25.162C10.1176 25.162 10.5143 25.8341 10.781 26.2194C11.0392 26.5924 11.2775 26.9546 11.3761 27.3981C11.4515 27.7374 11.5589 28.2757 11.7323 28.573C11.8734 28.8148 12.0906 29.3313 12.1114 29.6115C12.1375 29.9646 12.3764 30.2534 12.4676 30.5818C12.6977 31.4102 13.3142 32.1149 13.4606 32.9771C13.5187 33.3191 13.625 34.8494 14.1239 34.8494C14.4451 34.8494 14.0295 34.8817 13.9685 34.8342C13.9316 34.8055 14.0563 35.1017 14.0898 35.1602C14.1491 35.2639 14.238 35.513 14.3096 35.5847C14.3631 35.6382 14.4493 35.4123 14.158 35.3951C13.9052 35.3803 13.8025 34.1149 13.544 33.8564C13.3514 33.6638 13.5509 34.1929 13.6122 34.2695C13.722 34.4067 13.7708 34.4989 13.9192 34.6144C14.0847 34.7431 14.2847 34.9359 14.3778 35.1223C14.3972 35.1609 14.5993 35.5541 14.5635 35.3572C14.5146 35.088 14.2039 34.827 14.0215 34.6447C13.768 34.3911 13.5684 34.1485 13.3621 33.8488C12.8593 33.1186 12.3817 32.4476 11.8006 31.7718C10.8567 30.6743 10.1414 29.332 9.53411 28.0273C9.17614 27.2582 8.80431 26.5024 8.4312 25.7419C8.33377 25.5432 8.23574 25.2406 8.0522 25.0938C7.97438 25.0315 8.13149 25.0124 8.18864 25.1013C8.47979 25.5542 8.73411 26.0341 9.02624 26.4885C9.55277 27.3075 10.0086 28.1688 10.5423 28.9824C10.8245 29.4126 11.1853 29.8257 11.4291 30.2786C11.5917 30.5805 11.5614 30.4031 11.4102 30.1914C10.8681 29.4324 10.4635 28.5981 10.1102 27.7354C9.81542 27.0156 8.92356 24.8902 9.38251 25.5182C9.57793 25.7857 9.88572 26.2748 10.2694 26.2535C10.4158 26.2454 10.4395 26.0664 10.474 25.9541C10.5125 25.8291 10.6188 25.8623 10.7128 25.8101C10.8755 25.7197 11.0758 25.7035 11.2245 25.5713C11.3093 25.4959 11.4224 25.4665 11.2396 25.4008C10.8629 25.2651 10.4603 25.2161 10.0723 25.1279C9.60767 25.0223 9.29633 24.7388 8.86706 24.548C8.36663 24.3256 7.85469 24.1342 7.47232 23.7293C7.24623 23.49 7.14485 23.3687 6.76357 23.3238C6.41809 23.2831 6.64025 23.6314 6.77495 23.7293C7.43714 24.2109 7.99491 24.8778 8.54869 25.4728C9.27528 26.2534 10.0124 27.0824 10.5423 28.0121C10.8915 28.6247 11.0951 29.1772 11.2548 29.8617C11.3031 30.0688 11.2709 30.2763 11.3079 30.4832C11.3868 30.9252 11.5771 31.3161 11.793 31.7036C12.0686 32.1985 12.3298 32.6447 12.6533 33.1097C12.7656 33.2711 13.1829 33.6877 13.0702 33.5266C12.8901 33.2693 12.5939 33.0542 12.3804 32.8255C11.9459 32.3599 11.5321 31.8741 11.1108 31.3966C10.7304 30.9655 10.2908 30.5632 9.94344 30.1042C9.82157 29.9432 10.0749 30.141 10.0875 30.1497C10.398 30.3664 10.7067 30.5906 11.0047 30.8243C11.3703 31.1112 11.7559 31.4675 11.9977 31.8704C12.1235 32.0801 12.1026 32.1986 11.8233 32.0447C10.9835 31.582 10.1271 30.8801 9.49621 30.1573C9.46216 30.1183 8.85248 29.3935 9.0035 29.3386C9.39292 29.197 9.96211 29.6951 10.2087 29.9223C10.6699 30.3472 10.9524 30.9562 11.2472 31.499C11.2741 31.5484 11.5263 32.1062 11.3154 31.8552C10.6299 31.0391 10.1242 29.9065 9.70467 28.9369C9.47989 28.4174 9.30339 27.8809 9.12479 27.3451C9.07194 27.1865 9.82694 27.4948 9.86006 27.5118C10.4681 27.8242 10.9978 28.2792 11.4254 28.808C11.6062 29.0317 11.8168 29.4673 12.0697 29.6191C12.157 29.6715 11.9733 29.4393 11.9181 29.3538C11.6578 28.9507 11.42 28.5341 11.2017 28.1069C10.9083 27.5324 10.7304 26.9103 10.4437 26.3369C10.3236 26.0967 10.3329 26.3761 10.3528 26.4885C10.4356 26.9577 10.7614 27.4173 10.944 27.8529C11.2433 28.567 11.4976 29.2961 11.8347 29.9943C12.1017 30.5474 12.4487 31.0716 12.6571 31.6506C12.8734 32.2513 13.0221 32.8421 13.2711 33.4319C13.4627 33.8855 13.6681 34.3167 13.832 34.7812C13.8592 34.8581 13.2184 34.2889 13.165 34.2164C12.6219 33.4786 12.1477 32.6687 11.6717 31.8856C11.5894 31.7501 11.2266 31.3038 11.4898 31.7188C12.0127 32.5434 12.4635 33.4191 12.9073 34.2885C13.0003 34.4708 13.3318 34.8681 13.3318 35.0806C13.3318 35.2655 12.9837 34.9502 12.8239 34.857C12.3014 34.5522 11.7943 34.2237 11.3079 33.864C10.9741 33.6171 10.2204 33.1887 10.042 32.7724C10.0361 32.7587 10.9398 33.1048 11.016 33.1476C11.2208 33.2628 11.4168 33.3931 11.6262 33.5001C11.7892 33.5834 12.2406 33.6059 12.1189 33.7427C12.0305 33.8422 11.2631 33.6524 11.1563 33.6366C10.7412 33.575 10.3341 33.485 9.92828 33.3788C9.78031 33.3401 9.62067 33.3057 9.47726 33.25C9.32867 33.1922 9.78532 33.3386 9.92828 33.4092C10.8806 33.8793 11.8498 34.4393 12.7178 35.054C12.7251 35.0593 13.2313 35.3992 13.1877 35.4482C13.1422 35.4994 12.8187 35.4634 12.8011 35.4634C12.317 35.4634 11.8292 35.4795 11.3458 35.4482C11.0229 35.4273 10.1159 35.4644 9.89038 35.1905C9.80086 35.0818 10.1665 35.1223 10.3073 35.1223C10.7054 35.1223 11.1001 35.1321 11.4898 35.2208C11.8284 35.2979 13.4898 35.7363 12.2061 35.7363C11.7147 35.7363 11.2232 35.7363 10.7318 35.7363C10.4122 35.7363 10.3783 35.7363 10.7242 35.7363C11.2736 35.7363 11.9247 35.7975 12.4146 36.0774C12.652 36.213 12.3091 36.3961 12.2175 36.4223C12.0232 36.4778 12.3745 36.732 12.4373 36.6762C12.4976 36.6226 12.5085 36.5244 12.5245 36.4526C12.5505 36.3355 12.6765 36.3622 12.7595 36.3161C12.9733 36.1973 13.6631 36.282 12.9073 36.282C12.3292 36.282 11.7494 36.2952 11.1714 36.282C10.8975 36.2758 10.6778 36.1456 10.4058 36.1456C9.96878 36.1456 9.54085 36.0893 9.10962 36.0774C8.77038 36.0679 8.42948 36.0774 8.0901 36.0774C7.87714 36.0774 6.99352 36.1083 7.68835 36.0736C8.36454 36.0398 9.05578 35.8373 9.73877 35.9561C10.0296 36.0067 10.2914 36.1543 10.5764 36.2176C10.7375 36.2534 10.8585 36.4315 10.9668 36.5397C11.2875 36.8605 10.6754 36.7774 10.474 36.7444C9.88944 36.6487 9.34483 36.3502 8.75336 36.3502C8.25705 36.3502 7.69209 36.2837 7.19943 36.354C6.71749 36.4229 6.23301 36.4826 5.76679 36.3161C5.54656 36.2375 5.18105 36.2254 4.94813 36.2138C4.73092 36.2029 4.53747 36.0887 4.33414 36.0774C4.17998 36.0688 3.97305 36.0477 3.82249 36.0812C3.63278 36.1233 4.1157 36.2138 4.1977 36.2138C4.37913 36.2138 4.55365 36.2979 4.70936 36.3844C4.88025 36.4793 5.61471 36.6914 5.01257 36.6914C4.3312 36.6914 3.932 36.3235 3.37905 36.047C2.81241 35.7637 2.25221 35.4659 1.72658 35.1223C1.24344 34.8064 1.33241 34.3259 1.33241 33.7882C1.33241 32.8058 1.30004 31.8633 1.19218 30.8926C1.10811 30.1359 1.12775 29.3721 1.12775 28.6071C1.12775 27.8914 1.13199 27.4177 1.45369 26.7614C1.59524 26.4726 1.77535 26.4048 1.99946 26.2042C2.27998 25.9533 2.56239 25.729 2.89392 25.5486C3.21652 25.373 3.57215 25.3105 3.87176 25.0938C3.98519 25.0117 4.94336 24.6326 4.90644 24.6162C4.38542 24.3846 4.9992 24.0188 5.26271 23.8658C5.55683 23.695 6.49467 23.3243 6.75979 23.7142C6.95771 24.0052 6.31052 23.9479 6.17611 23.8999C6.1416 23.8876 5.95446 23.8198 6.05483 23.7445C6.25209 23.5965 6.77184 23.8295 6.93413 23.9188C7.30776 24.1245 8.62264 25.88 7.41926 25.6092C7.23698 25.5682 6.66882 25.3434 6.66882 25.1013C6.66882 24.7924 7.70633 25.8149 7.74141 25.8593C8.2203 26.4659 8.71486 27.2436 8.87464 28.0121C8.97403 28.4901 8.7672 28.6343 8.34403 28.3381C7.553 27.7843 6.90484 26.9965 6.40352 26.1777C6.25767 25.9395 5.95384 25.4562 6.39594 25.9465C7.33699 26.9902 8.02999 28.2122 8.63208 29.4751C8.74584 29.7137 8.83686 29.9569 8.89738 30.2141C8.9081 30.2597 8.58668 29.6416 8.58281 29.6343C8.04106 28.6121 7.61329 27.5421 7.13879 26.4885C7.03766 26.2639 6.92126 26.0406 6.84316 25.8063C6.77952 25.6154 7.0927 26.1222 7.22217 26.2763C8.9277 28.3058 10.554 30.5977 11.5466 33.0794C11.563 33.1203 11.5792 33.2012 11.5049 33.1363C11.1689 32.8422 10.9362 32.3748 10.7469 31.9841C10.0878 30.6232 9.77058 29.1365 9.15511 27.762C9.14691 27.7437 8.87967 27.1716 9.06414 27.5952C9.35855 28.2713 9.68123 28.9345 9.97376 29.6115C10.2677 30.2917 10.5556 30.9762 10.8076 31.6733C10.9085 31.9525 11.135 32.3487 11.1411 32.6511C11.1439 32.7889 10.8571 32.6877 10.728 32.6398C10.1505 32.4253 9.77955 31.9281 9.39009 31.4762C8.79 30.7799 8.36282 30.1248 7.99914 29.2856C7.99096 29.2667 7.99843 29.2083 8.01051 29.2249C8.29074 29.6112 8.47956 30.0854 8.6624 30.5211C9.18225 31.7601 9.4914 33.018 9.69329 34.3415C9.80864 35.0976 9.52575 33.7026 9.51516 33.6328C9.30621 32.2537 9.1577 30.8512 9.11341 29.4561C9.11252 29.4278 9.06771 28.8867 9.15889 29.2515C9.31303 29.868 9.47061 30.4836 9.62128 31.101C9.85497 32.0586 10.2694 33.1206 10.2694 34.1179C10.2694 34.5338 9.96994 33.3383 9.8828 32.9316C9.73122 32.2242 9.56289 31.4998 9.58717 30.7713C9.59596 30.5078 10.2065 31.1208 10.2277 31.1427C10.7591 31.6928 11.0978 32.5026 11.2245 33.25C11.2767 33.5579 11.3908 33.9634 11.0198 34.0989C10.6607 34.2302 10.3103 34.1929 10.1329 33.8185C9.83919 33.1983 9.75498 32.4473 9.67055 31.7718C9.62009 31.3682 9.80765 31.5807 10.0041 31.8022C10.6677 32.5505 11.099 33.5278 11.4329 34.4628C11.5099 34.6782 11.7442 35.4406 11.2965 35.4406C10.4435 35.4406 9.80212 34.5355 9.45831 33.8715C8.87035 32.7362 8.71287 31.3376 8.51079 30.0891C8.49497 29.9913 8.30638 28.7556 8.40846 29.3917C8.65889 30.9521 8.77924 32.5156 8.87085 34.0914C8.87458 34.1555 8.91053 35.007 8.85569 34.91C8.34829 34.0123 8.2845 32.8866 8.128 31.8931C8.03293 31.2896 7.94987 30.7 7.94987 30.0891C7.94987 29.7158 8.10273 30.8202 8.20001 31.1806C8.40529 31.9411 8.54147 32.6976 8.66619 33.4736C8.69595 33.6588 8.90616 34.3671 8.54491 33.9208C7.3497 32.4444 7.42834 30.385 7.18427 28.6034C7.11693 28.1118 7.02332 28.6476 7.00993 28.8232C6.91237 30.1023 6.77502 31.3792 6.68398 32.6587C6.64261 33.2403 6.65366 33.8234 6.65366 34.4059C6.65366 34.6631 6.6056 34.9743 6.68777 35.2208C6.70515 35.2729 6.70207 35.4896 6.79011 35.4482C6.98099 35.3584 7.05876 35.3322 7.29039 35.3269C8.0586 35.3095 7.45777 32.9901 7.33587 32.6549C7.23663 32.382 7.13661 32.0072 6.89244 31.8173C6.66436 31.6399 6.83739 32.0026 6.86212 32.0675C7.07093 32.6156 7.17482 33.2029 7.26765 33.7806C7.28962 33.9173 7.49193 34.6604 7.19185 34.531C6.84413 34.3811 6.5626 34.1321 6.18749 34.0383C6.13151 34.0243 5.69351 33.8829 5.77437 34.0648C5.89041 34.3259 6.51369 34.3158 6.57028 34.6978C6.60594 34.9385 4.58832 34.917 4.43269 34.9176C3.82333 34.9199 1.99799 34.807 2.60587 34.8494C3.15142 34.8874 3.71459 35.1937 4.18254 35.4558C4.38915 35.5715 4.90504 35.7176 5.04289 35.9106C5.15884 36.0729 4.31325 35.8605 4.30382 35.8575C3.94024 35.7442 3.58821 35.5997 3.22745 35.4785C3.10775 35.4383 2.68298 35.3849 2.60587 35.2587C2.59767 35.2453 3.82698 35.191 3.95135 35.2019C4.51763 35.2511 5.05386 35.4915 5.61139 35.596C5.78994 35.6295 6.12181 35.7423 5.71752 35.6453C4.76651 35.4171 3.87415 34.8514 3.00383 34.4249C2.58924 34.2217 2.11562 34.0771 1.72658 33.8261C1.43562 33.6383 1.95148 33.6885 2.06011 33.6896C2.80684 33.6971 3.51984 33.8523 4.24318 34.0269C4.5066 34.0905 4.75476 34.1747 4.99741 34.296C5.07955 34.3371 5.26629 34.4693 5.36504 34.4552C5.50746 34.4349 5.21724 34.2083 5.14522 34.0838C4.76397 33.4245 4.45825 32.7234 4.18254 32.0144C3.99734 31.5382 3.72015 30.9001 3.72015 30.3771C3.72015 30.1753 4.01822 30.1651 4.16738 30.2103C4.4607 30.2994 4.59338 30.9376 4.68283 31.173C4.83377 31.5704 4.93131 31.9625 5.01635 32.3783C5.07937 32.6863 5.3354 33.9945 5.18312 32.8748C4.94271 31.1071 4.98622 29.2813 5.02015 27.5004C5.02692 27.1448 5.1688 26.1895 5.20586 27.1859C5.27473 29.0377 5.27442 30.9212 5.20586 32.7724C5.20063 32.9137 5.09281 33.7069 5.08836 33.6669C5.03711 33.2056 5.12731 32.6687 5.16038 32.2153C5.24067 31.1142 5.37515 30.0225 5.52801 28.9293C5.64147 28.1179 5.76401 27.3085 5.89565 26.4999C5.92148 26.3412 5.9211 26.0675 6.00935 25.9162C6.09202 25.7745 6.20343 27.0968 6.21023 27.201C6.33609 29.1309 6.37153 31.0737 6.38078 33.0074C6.38378 33.6344 6.40729 35.5129 6.449 34.8873C6.53856 33.5439 6.449 32.1618 6.449 30.8168C6.449 29.5774 6.449 28.3381 6.449 27.0987C6.449 26.5865 6.36591 28.1208 6.28224 28.6261C6.01451 30.2428 5.77558 31.8362 5.57729 33.4622C5.53616 33.7994 5.56053 34.8111 5.4939 34.478C5.25707 33.2938 5.42568 31.949 5.42568 30.7485C5.42568 30.2748 5.42568 29.801 5.42568 29.3273C5.42568 29.191 5.35094 28.6752 5.46358 28.5465C5.50007 28.5048 5.52034 28.6439 5.5318 28.6981C5.57281 28.8919 5.61844 29.2267 5.64172 29.3955C5.78598 30.4414 5.90382 31.4908 6.06999 32.5337C6.0966 32.7006 6.685 35.8045 6.51722 35.8045C6.22933 35.8045 5.60301 35.2302 5.70994 35.4975C5.7624 35.6286 6.26183 35.7985 6.38078 35.8348C6.46478 35.8605 7.15227 36.0091 6.79769 36.0091C5.43642 36.0091 4.05749 35.8695 2.712 35.6832C2.31928 35.6288 1.92824 35.7105 1.61288 35.3951C1.41311 35.1954 1.40063 34.9601 1.40063 34.6978C1.40063 34.0735 1.82481 34.5674 2.01462 34.8494C2.08249 34.9502 2.15016 35.0546 2.2155 35.1526C2.24423 35.1957 2.21883 35.0489 2.2155 34.9972C2.19125 34.6214 2.14239 34.2475 2.11696 33.8715C2.03405 32.6464 2.00929 31.4227 2.01462 30.1952C2.01728 29.5837 2.17787 29.022 2.21929 28.4214C2.25162 27.9526 2.21929 29.3614 2.21929 29.8313C2.21929 30.4274 2.32496 31.1355 2.18518 31.7226C2.16575 31.8042 2.05558 31.9287 2.01083 31.787C1.7948 31.1029 1.81754 30.3184 1.81754 29.6115C1.81754 28.6995 1.83301 27.194 2.53007 26.4582C2.72979 26.2474 3.2069 26.0467 3.48517 25.9465C3.79931 25.8334 6.76316 24.2408 6.79011 24.7526C6.8221 25.3606 6.21698 25.5093 5.71373 25.7002C5.26942 25.8687 4.82914 26.0766 4.40237 26.2687C3.95549 26.4698 3.68083 26.81 3.40937 27.2048C3.17624 27.5439 2.81383 27.7738 2.52628 28.0614C2.34176 28.2459 2.53611 27.9613 2.57555 27.8984C2.80612 27.5306 3.04314 27.168 3.29566 26.8144C3.31735 26.7841 3.61452 26.3852 3.54202 26.4013C3.29443 26.4563 3.09283 26.9292 2.96972 27.1139C2.72509 27.4808 2.59441 27.9444 2.52249 28.376C2.51542 28.4184 2.42499 29.0025 2.50733 29.0354C2.6652 29.0986 3.59159 26.6606 3.77321 26.3672C3.89318 26.1734 3.92482 26.3009 3.92482 26.4544C3.92482 27.7787 3.40527 29.1465 3.08721 30.4188C2.86965 31.289 2.71953 32.1709 2.52249 33.0453C2.29339 34.062 3.159 31.0602 3.44727 30.0587C3.73356 29.0641 3.93935 28.0529 4.15601 27.0418C4.17974 26.9311 4.1977 26.5301 4.1977 26.8599C4.1977 27.9412 3.98689 28.985 3.86418 30.0587C3.69867 31.5069 3.57877 32.9787 3.51928 34.4363C3.50634 34.7532 3.50579 34.7827 3.51549 34.4401C3.56293 32.7639 3.93901 31.1113 4.19012 29.4599C4.3117 28.6604 4.35746 27.8755 4.40615 27.0722C4.43049 26.6706 4.57133 27.5922 4.57671 27.6445C4.69927 28.8351 4.6629 30.0327 4.74347 31.2261C4.76595 31.5591 4.96825 32.3116 4.79653 32.636C4.75765 32.7094 4.60184 32.7582 4.53881 32.871C4.47384 32.9872 4.33295 33.16 4.1977 33.1969C3.32691 33.4344 3.30814 29.9454 3.2805 29.5812C3.22008 28.7847 3.17438 27.992 3.17438 27.1935C3.17438 26.9998 3.12074 26.6408 3.25777 26.4733C3.63606 26.011 3.8603 25.4621 4.37204 25.09C4.77064 24.8001 5.29123 24.396 5.55454 23.9681C5.68907 23.7495 5.86672 23.5727 6.05483 23.4034C6.12874 23.3369 6.21224 23.2948 6.27845 23.2139C6.36653 23.1062 6.41337 22.7557 6.54754 22.7174C6.64436 22.6897 6.51339 23.1292 6.50206 23.1532C6.34436 23.4876 6.19737 23.7954 6.10789 24.1614C5.70255 25.8196 5.80392 27.7323 6.66882 29.2249C7.14276 30.0429 7.84881 30.6934 8.46152 31.4004C8.67032 31.6413 8.98669 31.7929 9.21574 32.022C9.97933 32.7856 10.7671 33.6355 11.7361 34.1331C12.3666 34.4568 13.2993 34.8531 13.5781 35.5657C13.9465 36.5072 15.0236 36.6697 15.9242 36.8126C16.436 36.8939 16.8836 36.9642 17.4023 36.9642C17.6474 36.9642 17.8925 36.9642 18.1376 36.9642C18.5006 36.9642 18.7714 36.8132 19.1078 36.6914C19.7503 36.4587 20.2386 36.0502 20.7717 35.6415C21.3354 35.2093 22.0687 34.8942 22.7652 34.7508C23.2486 34.6513 23.8281 34.6869 24.3229 34.7129C25.6654 34.7836 21.6385 34.8784 20.3017 35.0199C19.1043 35.1467 17.8013 35.0156 16.6291 35.3269C16.2449 35.429 15.8417 35.4257 15.4618 35.5316C15.2548 35.5893 15.1329 35.668 14.9084 35.668C14.0728 35.668 13.7502 34.6863 13.4758 34.0156C13.3426 33.6901 13.1897 33.3527 13.1044 33.0112C13.064 32.8497 13.3314 33.007 13.3734 33.0491C13.5427 33.2184 13.7124 33.388 13.8813 33.557C14.2285 33.9041 14.7643 34.2104 15.0108 34.6485C15.1986 34.9824 15.6051 35.3 15.9317 35.4634" stroke="black" stroke-width="1.03954" stroke-linecap="round"/>
</svg>
