<svg width="36" height="37" viewBox="0 0 36 37" fill="none" xmlns="http://www.w3.org/2000/svg">
<rect x="-0.519772" y="0.519772" width="34.305" height="35.8643" rx="4.67795" transform="matrix(-1 0 0 1 34.6494 0)" fill="#95B7FF" stroke="black" stroke-width="1.03954"/>
<path d="M22.3177 15.4835C22.3177 13.7518 24.2719 12.2221 25.5469 11.7481C26.2808 11.4752 27.6037 11.274 28.337 11.6409C29.2945 12.1198 29.8647 13.3484 30.1272 14.4622C30.5793 16.3796 29.2314 17.5525 27.7663 17.8647C27.1767 17.9903 25.8298 18.2148 25.8298 17.2101" stroke="black" stroke-width="0.544716" stroke-linecap="round"/>
<path d="M23.6797 16.7078C23.7223 16.2796 24.3111 16.3001 24.3111 16.0472C24.3111 15.278 24.8017 14.589 25.2631 14.0878C25.4037 13.9351 26.5424 13.2894 26.6511 13.8359C26.7183 14.1739 26.2051 14.0984 26.2051 14.5413C26.2051 14.9775 26.3708 15.0955 26.7463 15.0955C27.3896 15.0955 26.3046 15.5958 26.12 15.7505C25.8157 16.0055 24.4206 17.4997 24.2209 16.6071" stroke="black" stroke-width="0.544716" stroke-linecap="round"/>
<path d="M21.0583 13.7493C20.3994 13.7493 19.6888 13.7375 19.1034 13.4123C18.5255 13.0912 17.4906 13.2042 16.9836 12.8355C16.6801 12.6148 15.5897 12.8056 15.1934 12.8056C14.472 12.8056 14.2658 13.2385 13.6429 13.5846C12.2758 14.3441 10.7602 15.3484 9.59812 16.4459C9.0127 16.9988 7.57572 18.087 7.57572 18.9402C7.57572 19.503 7.71055 19.9227 7.71055 20.4907" stroke="black" stroke-width="0.544716" stroke-linecap="round"/>
<path d="M18.2271 13.2102C17.2461 13.1012 16.5696 12.08 16.0773 11.3826C15.6715 10.8076 15.3097 10.1269 15.156 9.43508C15.0888 9.13285 15.126 8.79951 15.126 8.49129C15.126 8.11304 15.167 8.44734 15.0212 8.57369C13.9928 9.46492 12.5858 10.1927 11.9202 11.4575C11.6303 12.0082 11.4857 12.7219 11.4857 13.3301C11.4857 13.748 11.7554 14.0974 11.7554 13.4799" stroke="black" stroke-width="0.544716" stroke-linecap="round"/>
<path d="M8.33094 18.146C9.09982 18.146 9.33306 18.2856 9.68584 18.9911C10.0181 19.6557 8.22392 20.0379 8.08947 19.8363" stroke="black" stroke-width="0.544716" stroke-linecap="round"/>
<path d="M8.57227 20.9229L8.69978 23.1524" stroke="black" stroke-width="0.544716" stroke-linecap="round"/>
<path d="M6.87862 19.6118C6.87862 20.1275 6.66964 20.8515 6.90572 21.3411C7.14249 21.8321 7.16257 22.4515 7.61035 22.8801" stroke="black" stroke-width="0.544716" stroke-linecap="round"/>
<path d="M9.31762 22.8804C9.73768 22.8804 9.90713 23.2169 10.2365 23.3633C10.8442 23.6334 11.6418 24.0853 12.2823 24.2017C12.7764 24.2916 13.5017 24.5321 13.8787 24.0609C14.0034 23.905 13.7982 23.5595 13.7982 23.6718C13.7982 23.8639 14.0449 24.176 14.147 24.3292" stroke="black" stroke-width="0.544716" stroke-linecap="round"/>
<path d="M18.5932 16.9389C18.2314 16.9389 17.7997 16.867 17.4463 16.9456C17.2154 16.9969 17.0008 17.4233 17.3859 17.0596C17.8993 16.5747 18.8497 16.5767 19.4987 16.5767C20.0616 16.5767 20.6451 16.5756 20.9476 17.12C21.1384 17.4635 19.9979 17.0596 19.8006 17.0596C19.2783 17.0596 18.7531 17.0447 18.231 17.0596C17.7842 17.0724 17.6427 17.3289 17.3322 17.5358C17.2072 17.6192 17.6542 17.4788 17.7481 17.3614C18.0029 17.0429 20.3754 16.8103 20.4043 17.3011C20.4225 17.611 20.525 17.8827 20.525 18.1999C20.525 18.4177 20.4446 18.7228 20.5518 18.3608C20.6406 18.0611 20.6457 17.7911 20.6457 17.4822C20.6457 17.1442 20.8872 17.1307 20.8872 17.4889C20.8872 17.7898 20.5183 18.9712 19.9884 18.4413C19.4667 17.9197 20.4394 17.3079 20.4043 17.9047C20.3703 18.4818 18.8725 17.6282 19.7067 17.3279C20.6999 16.9703 20.7017 18.1462 19.9213 18.1462C18.9219 18.1462 19.7044 17.1803 20.4043 17.1803C21.0834 17.1803 20.0718 18.3013 19.5055 18.1395C19.2926 18.0787 19.46 17.4982 19.6128 17.4218C19.6641 17.3962 20.5466 17.187 20.5049 17.3748C20.4584 17.5837 19.6569 17.9047 19.4384 17.9047C19.1939 17.9047 19.0712 17.4363 19.3176 17.4218C19.9542 17.3844 17.401 18.1318 18.2579 17.8779C18.5551 17.7898 18.8231 17.605 19.1298 17.5492C19.399 17.5003 19.3946 18.039 19.2439 18.1395C18.9776 18.317 18.2382 18.381 17.9896 18.1462C17.7492 17.9192 17.8513 17.5803 18.1774 17.5492C18.3899 17.529 20.1357 17.6066 19.264 18.1194C18.5035 18.5667 17.7104 17.8275 18.9286 17.784C19.1961 17.7744 19.4659 17.784 19.7335 17.784C20.2838 17.784 19.493 17.9047 19.3176 17.9047C19.038 17.9047 18.7519 17.8883 18.4725 17.9047C18.2558 17.9175 18.2404 18.2087 17.9292 18.1395C17.7503 18.0997 17.6517 17.7063 17.7749 17.5694C17.8472 17.4891 18.3658 17.3011 18.231 17.3011C17.7767 17.3011 17.1286 17.8633 17.7481 18.173C18.0895 18.3437 17.8668 18.4455 17.681 18.2066C17.4593 17.9215 17.3395 17.7403 17.2719 17.3681C17.2198 17.0816 17.5194 16.9177 17.3859 17.0596C17.2072 17.2495 17.0876 17.4661 17.0304 17.7236C16.9758 17.9695 17.1383 18.1307 17.3859 18.1462C17.4738 18.1517 17.0356 18.1225 16.903 18.0523C16.7429 17.9676 16.7147 17.6235 16.8493 17.4889C17.1735 17.1646 16.9271 17.5487 16.9097 17.6096C16.7657 18.1137 17.5066 18.7562 17.5066 18.2669" stroke="black" stroke-width="0.544716" stroke-linecap="round"/>
<path d="M10.8787 24.0595C10.8787 24.4217 10.8787 24.7839 10.8787 25.1461C10.8787 25.8607 10.5479 25.5192 9.96645 25.5083C9.73177 25.5038 8.94692 25.669 8.94692 25.3205C8.94692 25.1005 8.94692 24.392 8.94692 24.4217C8.94692 25.2291 8.56011 25.4636 7.83349 25.24C7.48344 25.1323 7.13591 25.2681 7.13591 24.8442C7.13591 24.4629 7.25665 24.0876 7.25665 23.6973" stroke="black" stroke-width="0.544716" stroke-linecap="round"/>
<path d="M27.5276 19.7158C27.6296 20.735 28.4188 21.0163 29.1039 21.5872C29.3841 21.8207 29.7802 21.7583 30.0631 22.0098C30.3126 22.2315 30.8272 22.3852 31.1497 22.4927" stroke="black" stroke-width="0.544716" stroke-linecap="round"/>
<path d="M7.84795 17.5423C7.84795 16.5388 7.99108 15.4374 7.76746 14.4568C7.61423 13.785 7.19632 12.5682 6.51988 12.23" stroke="black" stroke-width="0.544716" stroke-linecap="round"/>
<path d="M7.00269 18.8706C6.95131 17.6118 5.74988 16.4592 4.61484 16.0668C3.78239 15.7791 2.83413 15.2485 1.93186 15.2485" stroke="black" stroke-width="0.544716" stroke-linecap="round"/>
<path d="M7.06567 22.3454C5.98892 22.3454 4.78484 22.1877 4.04733 23.1301C3.7304 23.5351 3.64876 24.1927 3.32292 24.5186" stroke="black" stroke-width="0.544716" stroke-linecap="round"/>
<path d="M11.7114 20.4399C12.3718 20.4399 13.0606 20.3887 13.7102 20.5271C14.7478 20.7483 15.695 21.4893 16.5139 22.1302C17.5841 22.9678 18.3668 24.077 19.3176 25.0278" stroke="black" stroke-width="0.544716" stroke-linecap="round"/>
<path d="M10.504 21.7683C10.8412 21.7683 11.2049 21.7354 11.5369 21.7952C12.0568 21.8887 12.182 22.4824 12.4089 22.8818C12.8999 23.7459 13.3303 24.8141 13.6431 25.7525" stroke="black" stroke-width="0.544716" stroke-linecap="round"/>
<path d="M16.0741 17.7632C16.0741 17.5116 16.0709 17.3766 16.2168 17.1578C16.38 16.9131 16.5535 16.6752 16.7166 16.4307" stroke="black" stroke-width="0.544716" stroke-linecap="round"/>
<path d="M20.3574 16.026C20.5612 16.026 20.8399 15.9643 21.0026 16.0974C21.2402 16.2918 21.3942 16.6215 21.4997 16.9078C21.6367 17.2798 21.5993 17.7456 21.6371 18.1386C21.6705 18.4843 21.6493 18.9396 21.3569 19.1671" stroke="black" stroke-width="0.544716" stroke-linecap="round"/>
<path d="M21.0812 13.8891C21.155 13.5449 21.6122 13.265 21.8869 13.0994C22.0742 12.9865 22.2569 12.8679 22.448 12.7617C22.7228 12.609 22.9597 12.3999 23.2364 12.2511C23.6583 12.0243 24.1104 11.8597 24.5327 11.6342C24.9879 11.3912 25.4532 11.1357 25.9513 10.9934C26.3246 10.8867 26.692 10.8525 27.0801 10.8764C27.5182 10.9033 27.8884 11.1504 28.2581 11.3603C28.5268 11.5129 29.0838 11.6053 29.1702 11.9507" stroke="black" stroke-width="0.544716" stroke-linecap="round"/>
<path d="M21.1689 14.0015C21.2344 14.0015 21.5343 13.961 21.5807 14.0244C21.6565 14.1282 21.6267 14.3637 21.5311 14.4457C21.43 14.5324 21.8283 14.5644 21.8742 14.5924C21.9799 14.657 21.8165 14.9447 21.8266 15.0251C21.8385 15.1202 22.3399 15.2382 22.4308 15.3053C22.6287 15.4516 22.8769 15.476 23.077 15.6179C23.3024 15.7779 23.4628 15.9726 23.5783 16.2165C23.6021 16.2667 23.7914 16.3474 23.8795 16.4452C23.9898 16.5678 24.5377 17.2815 24.276 17.4269C24.0986 17.5254 23.8407 17.5012 23.645 17.5012C23.4306 17.5012 23.4846 17.5012 23.6546 17.5012C23.7798 17.5012 24.2483 17.4499 24.3255 17.5851C24.3748 17.6713 24.9496 17.5698 25.046 17.5698C25.1405 17.5698 25.2317 17.562 25.3205 17.5965C25.36 17.6119 25.248 17.486 25.2386 17.465C25.1825 17.3404 25.2149 17.2768 25.0804 17.2191C24.9651 17.1697 25.244 17.4094 25.3205 17.5088C25.4812 17.7176 25.6546 17.946 25.7437 18.197C25.7502 18.2153 25.7755 18.3989 25.7456 18.3456C25.6617 18.1965 25.6251 18.0064 25.6293 17.8367C25.6372 17.5215 25.8976 17.4602 26.1631 17.5088C26.5887 17.5868 26.7594 18.4326 26.8092 18.765C26.8291 18.8973 26.8684 19.1116 26.8245 19.2434C26.7773 19.3851 26.4602 18.9521 26.4337 18.908C26.3572 18.7804 26.2299 18.4315 26.4356 18.683C26.5762 18.8548 26.6395 19.1158 26.7273 19.3197C26.7949 19.477 27.0641 19.8803 27.2953 19.7962C27.3763 19.7668 27.4371 19.6671 27.5012 19.6132C27.6221 19.5116 27.7855 19.5186 27.9358 19.5255C28.1332 19.5347 28.4275 19.8101 28.2026 19.9868C27.9951 20.1499 28.3566 20.3427 28.4886 20.4634C28.6974 20.6544 28.8934 20.8917 29.1366 21.0352C29.3164 21.1413 29.7021 21.331 29.7447 21.5651C29.7697 21.7024 29.8599 21.5202 29.9372 21.4469C30.1776 21.2192 30.3753 21.955 30.5014 21.9616C30.7291 21.9736 30.96 21.9088 31.1838 21.9292C31.372 21.9463 31.4151 22.189 31.5308 22.3047" stroke="black" stroke-width="0.544716" stroke-linecap="round"/>
<path d="M20.9558 13.6978C20.5063 13.6978 20.0473 13.7171 19.6134 13.5974C19.1846 13.4792 18.7751 13.3023 18.3294 13.2351C17.4512 13.1026 16.7929 12.5437 15.8748 12.5437C15.5902 12.5437 15.2324 12.4906 14.9701 12.5995C14.4952 12.7966 14.121 13.0983 13.6537 13.2992C13.3106 13.4466 12.9437 13.5661 12.6225 13.748C12.2736 13.9455 11.9658 14.1772 11.5947 14.3473C10.9784 14.6299 10.6116 15.1124 10.0999 15.4931C9.56906 15.888 9.1208 16.3537 8.56941 16.7308C8.31038 16.9079 8.01429 16.9988 7.75229 17.1489C7.27918 17.4201 8.59449 16.4875 8.95851 16.1119C9.29375 15.7661 9.68816 15.4512 10.0577 15.1335C10.1133 15.0856 10.347 14.7642 10.4371 14.7738C10.4402 14.7742 9.98087 15.3952 9.93775 15.4429C9.54543 15.8765 9.04115 16.3404 8.46565 16.597C8.27221 16.6832 7.83886 16.6509 7.70365 16.7865C7.38123 17.1099 6.88978 17.4057 6.88978 17.8681C6.88978 17.9538 6.90615 18.5091 6.95463 18.2278C7.03403 17.767 7.43337 17.6079 7.75229 17.2995C7.90144 17.1552 7.35934 17.506 7.22701 17.6619C7.17244 17.7261 6.83673 18.3922 6.83142 18.3922C6.80148 18.3922 6.77626 18.2611 6.76981 18.2417C6.75295 18.1909 6.59654 18.2124 6.55256 18.2138C6.35871 18.22 6.22845 18.3625 6.25101 18.5177C6.29087 18.7918 6.39638 19.0378 6.51041 19.2926C6.73504 19.7948 6.57087 20.3972 6.74711 20.9206C6.781 21.0213 7.07874 21.6024 7.06164 21.4921C6.99163 21.0407 6.73359 20.5867 6.71469 20.1317C6.70331 19.8577 6.67484 19.5884 6.65632 19.3177C6.6426 19.1172 6.66253 19.7202 6.68875 19.9199C6.74742 20.3667 6.86231 20.7877 6.97409 21.2245C7.07156 21.6054 7.24572 21.9972 7.30158 22.3814C7.32202 22.5219 7.37449 22.8127 7.5318 22.8804" stroke="black" stroke-width="0.544716" stroke-linecap="round"/>
</svg>
