<svg width="36" height="38" viewBox="0 0 36 38" fill="none" xmlns="http://www.w3.org/2000/svg">
<rect x="-0.519772" y="0.519772" width="34.305" height="35.8643" rx="4.67795" transform="matrix(-1 0 0 1 34.6494 0.942871)" fill="#95B7FF" stroke="black" stroke-width="1.03954"/>
<path d="M19.7142 6.15175C19.7142 5.80181 20.0404 5.40658 20.2669 5.16683C20.4702 4.95161 20.7182 4.76568 20.9577 4.59246C21.1824 4.42996 21.4282 4.31983 21.7077 4.29441C22.0066 4.26725 22.2339 4.30588 22.4716 4.49377C22.6692 4.64998 22.8334 4.84175 22.9295 5.07603C23.0916 5.47115 23.2107 5.9226 23.2493 6.34715" stroke="black" stroke-width="1.03954" stroke-linecap="round"/>
<path d="M15.9376 5.92665C15.9376 5.57672 15.6115 5.18148 15.385 4.94173C15.1817 4.72652 14.9337 4.54058 14.6942 4.36736C14.4695 4.20486 14.2237 4.09473 13.9441 4.06932C13.6453 4.04215 13.418 4.08078 13.1803 4.26867C12.9826 4.42489 12.8184 4.61665 12.7223 4.85094C12.5603 5.24605 12.4412 5.69751 12.4026 6.12206" stroke="black" stroke-width="1.03954" stroke-linecap="round"/>
<path d="M27.4144 21.9795C28.516 21.9795 29.5539 22.6468 30.4864 23.1745C31.395 23.6887 32.1607 24.2272 32.9004 24.9669C33.4446 25.511 33.9685 26.0769 34.4786 26.6507C34.5331 26.712 34.8662 27.1939 34.8015 27.1939" stroke="black" stroke-width="1.03954" stroke-linecap="round"/>
<path d="M6.93188 21.2856C6.48343 21.5272 6.02412 21.758 5.59795 22.0386C5.42719 22.151 5.27643 22.2888 5.10369 22.3985C4.89682 22.5298 4.68885 22.6507 4.47502 22.7699C3.91879 23.0799 3.38789 23.4901 2.90119 23.8986C2.34071 24.369 1.85063 24.8932 1.50801 25.5403C1.38866 25.7658 1.27587 26.0107 1.18283 26.2485C1.05655 26.5712 1.03189 26.9101 0.948708 27.2428" stroke="black" stroke-width="1.03954" stroke-linecap="round"/>
<path d="M22.3986 24.4463C22.3986 24.9173 22.4154 25.3917 22.3947 25.8622C22.3515 26.846 21.9076 27.8301 21.622 28.7598C21.3439 29.6654 21.0371 30.5558 20.6369 31.4159C20.3957 31.9343 20.1204 32.5012 19.7985 32.9767C19.3663 33.6152 18.9226 34.2651 18.5564 34.9432C18.3279 35.3663 17.9333 35.6644 17.6697 36.0598" stroke="black" stroke-width="1.03954" stroke-linecap="round"/>
<path d="M11.9958 24.3325C11.9958 24.9137 11.9414 25.5221 12.0228 26.0981C12.1444 26.957 12.5947 27.7429 12.8311 28.5725C12.9911 29.1339 13.0988 29.6835 13.3233 30.2252C13.5846 30.8557 13.8541 31.4815 14.1903 32.0765C14.6798 32.9432 15.2022 33.8116 15.5946 34.7271C15.7469 35.0824 15.9377 35.5633 15.9377 35.9553" stroke="black" stroke-width="1.03954" stroke-linecap="round"/>
<path d="M21.168 27.1102C20.954 27.1734 20.7734 27.2873 20.5927 27.4171C20.351 27.5908 20.107 27.7645 19.875 27.951C19.8014 28.0103 19.7261 28.0779 19.6721 28.1559C19.6453 28.1945 19.6322 28.2139 19.5778 28.1963C19.4812 28.1652 19.3959 28.0751 19.3238 28.0097C19.08 27.7885 18.8426 27.5595 18.6033 27.3334C18.2249 26.9759 17.8571 26.5995 17.4537 26.2695C17.4159 26.2386 17.2579 26.0713 17.2026 26.0713" stroke="black" stroke-width="1.03954" stroke-linecap="round"/>
<path d="M17.2026 26.0713C17.1622 26.0814 17.1273 26.1167 17.0968 26.1425C16.9543 26.2627 16.8165 26.3895 16.6803 26.5167C16.4047 26.774 16.13 27.038 15.8712 27.3123C15.6308 27.567 15.3595 27.8335 15.1603 28.1223C15.1194 28.1816 15.077 28.242 15.042 28.3051C15.0095 28.3636 14.8473 28.2631 14.8207 28.2502C14.3141 28.0039 13.8513 27.674 13.3893 27.3546C13.1185 27.1675 12.8319 27.0101 12.5446 26.8505" stroke="black" stroke-width="1.03954" stroke-linecap="round"/>
<path d="M19.1126 28.8357C18.3046 28.8357 17.4931 28.8549 16.6851 28.8344C16.3547 28.8261 16.0262 28.7715 15.6952 28.7647C15.5063 28.7608 14.9433 28.7734 15.1291 28.7396C15.4985 28.6725 15.8853 28.6936 16.2586 28.6936C16.6601 28.6936 17.0159 28.7109 17.4065 28.8068C17.6717 28.8719 17.9749 28.9396 18.2477 28.9529C18.4707 28.9638 18.7026 28.9905 18.9125 29.0674C19.0578 29.1206 19.24 29.1245 19.3733 29.1912" stroke="black" stroke-width="1.03954" stroke-linecap="round"/>
<path d="M19.4208 28.9307C19.4208 29.2028 19.4441 29.4845 19.3708 29.7495C19.2769 30.0884 19.104 30.4339 18.9311 30.7394C18.8691 30.8488 18.7223 31.2529 18.5546 31.2529C18.335 31.2529 18.1105 31.3115 17.8911 31.3292C17.4357 31.3659 16.9971 31.395 16.5378 31.395C16.3105 31.395 16.0832 31.395 15.8559 31.395C15.7808 31.395 15.6749 31.1759 15.6413 31.1199C15.3727 30.6721 15.2685 30.117 15.1437 29.6178C15.1205 29.5252 15.0934 29.2995 15.0318 29.2203C14.8427 28.9772 15.4566 29.6666 15.6611 29.8969C15.8573 30.118 16.0488 30.3388 16.2166 30.5828C16.2776 30.6716 16.3765 30.7779 16.4088 30.8829C16.4223 30.9268 16.3773 30.9167 16.3535 30.9C16.2039 30.7956 16.1044 30.5968 16.0586 30.4261C15.9318 29.9533 16.4641 29.8548 16.8221 29.8548C16.9157 29.8548 17.5088 29.9776 17.2052 30.1484C17.0067 30.2601 16.3128 30.3546 16.2745 30.0101C16.2309 29.6172 16.9099 29.5307 17.1763 29.552C17.4672 29.5753 17.6784 29.7082 17.8595 29.9338C17.9425 30.0372 18.0598 30.2075 18.0359 30.3511C18.0051 30.5361 17.6932 30.5765 17.5515 30.592C17.2238 30.6278 16.7112 30.6025 16.4535 30.3629C15.9453 29.8905 16.7766 29.5369 17.1644 29.4809C17.6051 29.4174 18.0995 29.4487 18.3821 29.8416C18.5906 30.1314 18.4559 30.5054 18.0635 30.434C17.6432 30.3576 17.2961 29.7106 17.691 29.394C17.8964 29.2294 18.4338 29.2129 18.6243 29.4085C18.9523 29.7454 18.4577 29.9533 18.1754 29.9864C17.7846 30.0323 17.4496 30.0169 17.0802 29.8785C16.8599 29.796 16.6618 29.6771 16.4641 29.552C16.4063 29.5155 16.1435 29.3723 16.1797 29.2637C16.2152 29.1574 16.6267 29.2668 16.68 29.3243C16.8992 29.561 16.5684 29.6264 16.3851 29.6126C16.268 29.6037 16.1278 29.5884 16.0376 29.5046C16.0064 29.4757 16.0268 29.4757 16.056 29.4757" stroke="black" stroke-width="1.03954" stroke-linecap="round"/>
<path d="M18.7065 32.3856C18.414 32.3856 18.1105 32.3633 17.8189 32.3866C17.6549 32.3997 17.5005 32.4215 17.3343 32.4215C17.2534 32.4215 17.1216 32.4373 17.0461 32.4664C16.9392 32.5075 16.7798 32.4867 16.6641 32.5073C16.5329 32.5306 16.3888 32.5067 16.2612 32.5432C16.1296 32.5808 15.8725 32.5001 15.8125 32.6489C15.7504 32.8027 15.6911 32.9764 15.6549 33.1395C15.6284 33.2586 15.5472 33.3313 15.5472 33.4627C15.5472 33.7612 15.6645 34.0679 15.8334 34.3123C15.9559 34.4896 16.0748 34.6683 16.2014 34.8429C16.2414 34.8981 16.3037 35.0073 16.3649 35.0423C16.4243 35.0763 16.4984 35.1428 16.5305 35.2039C16.5872 35.3116 16.6879 35.4148 16.8077 35.4592C16.8988 35.4929 16.9635 35.5265 17.059 35.4831C17.2163 35.4116 17.3544 35.2037 17.4559 35.0722C17.6371 34.8377 17.8296 34.6122 18.0164 34.3821C18.1285 34.2441 18.2519 34.0979 18.3944 33.9902C18.5238 33.8923 18.6482 33.7838 18.7424 33.6511C18.8682 33.4739 19.0142 33.3068 19.1273 33.1216C19.1663 33.0579 19.2071 32.9697 19.1273 32.9241C19.0544 32.8824 19.0007 32.8164 18.9319 32.7725C18.8461 32.718 18.7162 32.7267 18.6167 32.7267C18.3601 32.7267 18.1221 32.7474 17.8788 32.8384C17.7012 32.9048 17.5301 32.9618 17.3602 33.0458C17.2294 33.1104 17.0956 33.1763 16.9613 33.2333C16.7601 33.3186 16.583 33.4537 16.5165 33.6741C16.4402 33.927 16.4326 34.3305 16.6452 34.5207C16.7978 34.6573 17.1177 34.6766 17.2884 34.5676C17.4484 34.4654 17.577 34.2995 17.7033 34.1607C17.7969 34.0579 17.8912 33.9549 17.9695 33.8396C18.0914 33.6604 18.2176 33.5016 18.1839 33.2742C18.1709 33.1864 18.0895 33.0924 17.9945 33.1356C17.7802 33.2329 17.6185 33.5414 17.5218 33.7439C17.4196 33.9577 17.2803 34.3279 16.9832 34.3063C16.842 34.2961 16.7523 34.0881 16.6741 33.9912C16.6086 33.9101 16.5561 33.8327 16.5165 33.7359C16.4668 33.6143 16.4004 33.4904 16.2832 33.4267C16.2516 33.4096 16.2012 33.3907 16.1755 33.3649C16.1496 33.3391 16.1348 33.2987 16.1037 33.2831" stroke="black" stroke-width="1.03954" stroke-linecap="round"/>
<path fill-rule="evenodd" clip-rule="evenodd" d="M15.5156 5.66704C16.1383 5.634 16.7975 5.62061 17.497 5.62061C18.5501 5.62061 19.5284 5.66536 20.4369 5.76961L19.3045 6.71328C18.7362 6.67714 18.1346 6.66015 17.497 6.66015C17.2172 6.66015 16.9458 6.6624 16.6824 6.66718L15.5156 5.66704ZM12.1727 7.23995L13.0308 5.95292C9.14755 6.71549 6.97562 9.05083 5.02245 15.4963C3.32875 21.0855 10.6075 25.3719 17.497 25.3719C24.3865 25.3719 31.2709 20.9539 29.9715 15.4963C28.6352 9.88371 26.4068 7.27619 22.7937 6.22634L23.1384 7.43288C23.8272 7.68668 24.4418 8.01008 24.9945 8.41322C26.7291 9.67855 28.0392 11.8687 28.9602 15.7371C29.4782 17.9123 28.4144 20.0003 26.1876 21.6444C23.963 23.287 20.7409 24.3324 17.497 24.3324C14.2417 24.3324 10.918 23.3136 8.64673 21.6852C6.37929 20.0596 5.34869 18.0042 6.01732 15.7977C7.30144 11.5602 8.6153 9.37344 10.2597 8.18485C10.8251 7.77615 11.4528 7.46815 12.1727 7.23995Z" fill="black"/>
<path d="M16.8667 6.11914C16.7606 6.11914 16.6544 6.11914 16.5483 6.11914C16.4108 6.11914 16.2755 6.17299 16.1381 6.17299C16.0868 6.17299 16.0428 6.20628 15.9932 6.20889C15.979 6.20963 15.9614 6.22254 15.9483 6.22983C15.9349 6.2373 15.9373 6.23185 15.955 6.23315C15.9962 6.23621 16.0349 6.24478 16.0769 6.24478C16.1828 6.24478 16.2947 6.25228 16.3987 6.23149C16.4479 6.22164 16.4965 6.21293 16.5466 6.20922C16.6461 6.20185 16.7439 6.17451 16.8428 6.16102" stroke="black" stroke-width="1.03954" stroke-linecap="round"/>
<path d="M19.8521 5.96973C19.8521 6.08195 19.7585 6.16099 19.6759 6.22234C19.6282 6.25778 19.6018 6.26888 19.5436 6.26888C19.4605 6.26888 19.379 6.27486 19.2956 6.27486" stroke="black" stroke-width="1.03954" stroke-linecap="round"/>
<path d="M12.6062 5.93506C12.6062 6.04059 12.5969 6.12964 12.5746 6.23253C12.5525 6.33391 12.4972 6.46901 12.4262 6.54547C12.3506 6.62683 12.2904 6.66137 12.1948 6.71285C12.145 6.73964 12.0844 6.75269 12.0309 6.77051C11.8908 6.81724 11.7611 6.88312 11.6442 6.97305" stroke="black" stroke-width="1.03954" stroke-linecap="round"/>
<path d="M23.4924 6.99854C23.4233 6.99854 23.3179 6.89554 23.2871 6.83398C23.2557 6.77116 23.2519 6.70134 23.2519 6.63145C23.2519 6.47395 23.2313 6.31897 23.2139 6.16309" stroke="black" stroke-width="1.03954" stroke-linecap="round"/>
<path d="M17.4971 11.3381C17.4971 13.0273 18.9754 14.4567 20.8756 14.4567C22.7759 14.4567 24.2542 13.0273 24.2542 11.3381C24.2542 9.64893 22.7759 8.21948 20.8756 8.21948C18.9754 8.21948 17.4971 9.64893 17.4971 11.3381Z" stroke="black" stroke-width="1.03954"/>
<path d="M10.7403 11.3381C10.7403 13.0273 12.2185 14.4567 14.1188 14.4567C16.0191 14.4567 17.4973 13.0273 17.4973 11.3381C17.4973 9.64893 16.0191 8.21948 14.1188 8.21948C12.2185 8.21948 10.7403 9.64893 10.7403 11.3381Z" stroke="black" stroke-width="1.03954"/>
<path d="M19.0976 10.7476C19.128 10.7476 19.2007 10.731 19.2065 10.7721C19.2141 10.825 19.2558 10.9381 19.2053 10.9777C19.1411 11.0282 19.049 11.0449 18.9703 11.0292C18.9374 11.0226 18.8127 10.9594 18.8601 10.9067C18.9382 10.8199 19.086 10.7986 19.1955 10.8161C19.3343 10.8383 19.4518 11.028 19.329 11.132C19.0193 11.394 18.7489 10.7569 19.1319 10.6496C19.3488 10.5889 19.5653 10.7012 19.5995 10.9239C19.6361 11.1618 19.4417 11.1442 19.2518 11.1442" stroke="black" stroke-width="1.03954" stroke-linecap="round"/>
<path d="M15.7259 10.7475C15.8903 10.7475 15.7341 11.0464 15.5399 10.9765C15.3915 10.9231 15.3072 10.7988 15.3072 10.6496C15.3072 10.5207 15.6709 10.5641 15.7345 10.597C15.8006 10.6311 15.9751 10.8224 15.8875 10.9067C15.7945 10.9963 15.5937 11.0431 15.4664 11.034C15.3292 11.0242 15.309 10.7063 15.3072 10.6202C15.305 10.5127 15.3455 10.489 15.4174 10.417" stroke="black" stroke-width="1.03954" stroke-linecap="round"/>
<path d="M15.459 10.3367C15.5545 10.3367 15.6346 10.3127 15.6825 10.4112C15.721 10.4905 15.7073 10.585 15.7073 10.6706C15.7073 10.7829 15.7389 10.9515 15.6921 11.0555C15.5958 11.2695 15.361 11.3377 15.1472 11.33C14.8387 11.319 14.6783 10.8911 14.8409 10.6471C15.0079 10.3966 15.3725 10.3495 15.648 10.3629C15.9625 10.3783 16.1608 10.5842 16.1985 10.8858C16.211 10.9859 16.218 11.1119 16.1985 11.2114C16.1663 11.3751 15.9656 11.3991 15.8301 11.4169C15.5201 11.4577 15.2552 11.3364 15.092 11.0624C14.9882 10.8881 14.9567 10.5467 15.0865 10.3809C15.2093 10.224 15.4991 10.0889 15.6949 10.1905C15.9561 10.3259 16.2086 10.551 16.2481 10.8582C16.2804 11.1088 16.2412 11.3298 15.9915 11.4418C15.6417 11.5986 15.2277 11.6154 15.0617 11.2003C15.0009 11.0484 14.9332 10.8911 14.9637 10.723C14.9837 10.613 15.244 10.4971 15.3348 10.4857" stroke="black" stroke-width="1.03954" stroke-linecap="round"/>
<path d="M19.1339 11.0322C18.9601 11.0322 18.9505 11.0184 18.8608 10.8639C18.7183 10.6184 18.914 10.4673 19.1326 10.399C19.4771 10.2913 19.5933 10.645 19.6444 10.908C19.7104 11.2473 19.7318 11.5516 19.3216 11.5978C19.0745 11.6257 18.8112 11.4863 18.7421 11.2309C18.6745 10.9808 18.7414 10.8039 18.9229 10.6225C19.2996 10.2458 19.8323 10.7475 19.7782 11.1798C19.7554 11.3621 19.3977 11.4069 19.2691 11.4419C18.9982 11.5158 18.7587 11.5299 18.7173 11.2143C18.6816 10.9419 18.7304 10.6917 18.8359 10.4417C18.906 10.2758 19.1268 10.2885 19.2774 10.2872C19.5087 10.2852 19.6677 10.3137 19.8651 10.4362C20.0754 10.5667 20.283 10.7841 20.188 11.0556C20.1208 11.2475 19.9189 11.2874 19.7796 11.4047C19.6403 11.522 19.2643 11.4564 19.1091 11.4047" stroke="black" stroke-width="1.03954" stroke-linecap="round"/>
<path d="M24.7357 14.1626C24.5619 14.1626 24.5523 14.1487 24.4626 13.9943C24.3201 13.7488 24.5158 13.5976 24.7344 13.5293C25.0789 13.4217 25.1951 13.7754 25.2462 14.0384C25.3122 14.3777 25.3336 14.682 24.9234 14.7282C24.6763 14.756 24.413 14.6167 24.3439 14.3612C24.2764 14.1111 24.3433 13.9342 24.5247 13.7528C24.9014 13.3761 25.4341 13.8778 25.38 14.3102C25.3572 14.4925 24.9996 14.5372 24.871 14.5723C24.6 14.6462 24.3605 14.6603 24.3191 14.3447C24.2834 14.0722 24.3322 13.8221 24.4378 13.5721C24.5078 13.4061 24.7286 13.4189 24.8792 13.4176C25.1105 13.4155 25.2695 13.4441 25.4669 13.5666C25.6772 13.6971 25.8848 13.9144 25.7898 14.186C25.7226 14.3779 25.5207 14.4178 25.3814 14.5351C25.2421 14.6524 24.8661 14.5868 24.7109 14.5351" stroke="black" stroke-width="1.03954" stroke-linecap="round"/>
<path d="M10.3119 14.1626C10.4857 14.1626 10.4953 14.1487 10.585 13.9943C10.7275 13.7488 10.5318 13.5976 10.3132 13.5293C9.96874 13.4217 9.85255 13.7754 9.80141 14.0384C9.73543 14.3777 9.71399 14.682 10.1242 14.7282C10.3713 14.756 10.6346 14.6167 10.7037 14.3612C10.7713 14.1111 10.7044 13.9342 10.5229 13.7528C10.1462 13.3761 9.61354 13.8778 9.66758 14.3102C9.69037 14.4925 10.0481 14.5372 10.1767 14.5723C10.4476 14.6462 10.6871 14.6603 10.7285 14.3447C10.7642 14.0722 10.7154 13.8221 10.6099 13.5721C10.5398 13.4061 10.319 13.4189 10.1684 13.4176C9.93712 13.4155 9.77807 13.4441 9.58067 13.5666C9.37038 13.6971 9.16279 13.9144 9.25784 14.186C9.32499 14.3779 9.52692 14.4178 9.6662 14.5351C9.80553 14.6524 10.1815 14.5868 10.3367 14.5351" stroke="black" stroke-width="1.03954" stroke-linecap="round"/>
<path d="M17.5236 13.6343C17.3167 13.6343 16.6958 13.6343 16.9027 13.6343C17.1092 13.6343 17.3157 13.6343 17.5221 13.6343C17.5805 13.6343 18.0008 13.6453 18.0096 13.7153C18.0321 13.8954 17.8918 13.9885 17.7816 14.1472C17.7111 14.2487 17.6398 14.3609 17.5836 14.4711C17.5516 14.5341 17.5345 14.6192 17.4831 14.6706C17.4574 14.6964 17.2079 14.3046 17.1667 14.2552C17.0504 14.1156 16.9748 13.9526 16.8637 13.8097C16.8251 13.7601 16.7678 13.727 16.7678 13.6613" stroke="black" stroke-width="1.03954" stroke-linecap="round"/>
<path d="M19.3638 15.1284C19.5642 15.1588 19.6086 15.1704 19.6361 15.3558C19.6603 15.5192 19.6767 15.7824 19.6122 15.9354C19.4449 16.3328 18.9517 16.4926 18.5568 16.4926C18.1816 16.4926 17.895 16.3465 17.7975 15.9621C17.7295 15.6937 17.7193 15.4125 17.8228 15.1537" stroke="black" stroke-width="1.03954" stroke-linecap="round"/>
<path d="M17.4944 15.1541C17.4944 14.9876 17.4971 15.4872 17.4944 15.6538C17.4888 16.0114 17.1314 16.2327 16.8404 16.3555C16.295 16.5858 15.8184 16.5737 15.3387 16.2025C14.9083 15.8696 14.7665 15.2044 15.3218 14.9268" stroke="black" stroke-width="1.03954" stroke-linecap="round"/>
<path d="M16.6248 16.7085C16.6248 17.7332 16.4754 18.9136 17.1502 19.7753C17.4127 20.1105 17.9354 20.1775 18.2994 19.9559C18.6954 19.7149 18.7383 19.2927 18.7658 18.8657C18.8002 18.3332 18.7705 17.7886 18.7705 17.2547C18.7705 17.0827 18.8269 16.7931 18.7288 16.646" stroke="black" stroke-width="1.03954" stroke-linecap="round"/>
<path d="M26.6015 13.0249C27.4988 12.8753 28.4019 12.1871 29.2681 11.8999C30.5425 11.4774 31.8364 11.4312 33.1638 11.4312" stroke="black" stroke-width="1.03954" stroke-linecap="round"/>
<path d="M27.8204 15.4619C29.4899 15.4619 30.9022 15.5106 32.5078 16.0244" stroke="black" stroke-width="1.03954" stroke-linecap="round"/>
<path d="M8.97705 11.5243C7.90766 10.362 6.95244 8.83856 5.32088 8.43066" stroke="black" stroke-width="1.03954" stroke-linecap="round"/>
<path d="M7.9458 13.6807L2.42375 13.4171" stroke="black" stroke-width="1.03954" stroke-linecap="round"/>
<path d="M27.2944 22.5014C27.0414 22.5435 26.7806 22.9124 26.5742 23.0812C26.3563 23.2596 26.1265 23.3854 25.9299 23.5929C25.355 24.1997 24.4541 24.5725 23.6635 24.836C23.4511 24.9068 23.2436 24.9744 23.0305 25.0217C22.6841 25.0987 23.3096 24.7374 23.3906 24.6844C23.8034 24.4145 24.2539 24.296 24.7436 24.169C25.1533 24.0628 25.6203 24.1035 26.0133 23.9871C26.2501 23.9169 26.3825 23.7147 26.578 23.5626C26.9603 23.2653 27.3033 23.2518 27.7719 23.2518C28.2708 23.2518 28.5979 23.3961 29.0681 23.5398C29.5406 23.6842 30.0651 24.0425 30.5045 24.2751C31.0755 24.5774 31.577 24.99 32.1002 25.3666C32.6852 25.7879 33.0583 26.4804 33.6048 26.9054C33.7686 27.0328 33.9041 27.1629 33.9952 27.3451C34.0832 27.5211 34.2166 28.1003 34.1544 27.9136C34.0029 27.4593 33.4899 26.9626 33.2069 26.5833C32.8983 26.1696 32.567 25.7763 32.2101 25.4045C31.6998 24.873 31.0951 24.3487 30.4325 24.0174C29.5701 23.5862 28.6623 23.4674 27.7719 23.1495C27.5534 23.0714 27.499 22.9303 27.499 22.706C27.499 22.6318 27.6705 22.8168 27.7113 22.8538C28.1015 23.2086 28.5179 23.5471 28.8976 23.9113C30.1984 25.159 31.1207 26.8336 32.2139 28.2547C32.4356 28.5429 32.656 28.9388 32.9188 29.187C33.4522 29.6908 32.1949 27.9082 31.7742 27.3072C31.1938 26.478 30.6517 25.615 30.1407 24.7413C30.0723 24.6244 29.6223 24.0402 29.9588 24.0894C31.5208 24.318 32.5206 26.0345 33.1462 27.3147C33.2437 27.5143 33.3099 27.7194 33.3964 27.9211C33.5614 28.3062 32.7906 27.3412 32.5095 27.0305C32.1313 26.6124 31.7075 26.1498 31.4331 25.6509C31.2245 25.2717 32.2087 26.4418 32.2177 26.4544C32.7697 27.2312 33.2606 28.0419 33.6617 28.9066C33.8075 29.221 33.9018 29.4419 33.5783 28.9975C32.8615 28.013 32.15 27.0252 31.4217 26.0489C31.0635 25.5686 30.7232 25.0739 30.3605 24.5973C30.113 24.272 30.2517 24.6871 30.2999 24.8209C30.8037 26.2186 31.5802 27.5296 32.176 28.8914C32.3873 29.3745 32.6072 29.8524 32.843 30.324C32.8971 30.4322 33.0818 30.741 33.0022 30.65C32.1612 29.6889 31.2675 28.7752 30.4325 27.8074C30.0982 27.4199 29.7799 27.0225 29.4774 26.6098C29.3955 26.498 29.2267 26.3332 29.2046 26.1853C29.1916 26.0993 29.2863 26.203 29.2917 26.208C29.7149 26.6056 30.1097 27.039 30.4894 27.4777C31.2365 28.341 31.9513 29.2214 32.6042 30.1573C32.6465 30.2178 33.0218 30.7212 32.7975 30.3771C31.7302 28.7394 30.6971 27.0863 29.7124 25.397C29.4772 24.9934 29.2422 24.5927 28.9847 24.2031C28.9254 24.1134 28.7346 23.9049 28.7346 23.7748C28.7346 23.6128 28.9433 24.0234 29.034 24.1576C29.4605 24.7892 29.8781 25.4271 30.2847 26.0716C30.9283 27.0917 31.5902 28.1486 32.0281 29.278C32.1523 29.5982 32.0668 29.5782 31.8273 29.3386C31.3262 28.8376 30.9059 28.2601 30.5045 27.6786C29.8426 26.7195 29.2055 25.723 28.6739 24.6844C28.6591 24.6553 28.4067 24.1635 28.492 24.2599C28.8238 24.635 29.136 25.0334 29.4244 25.4424C30.0475 26.3261 30.672 27.271 31.0958 28.2698C31.2833 28.7118 31.4704 29.1569 30.9366 28.5503C30.1647 27.6731 29.4572 26.7359 28.8255 25.7532C28.7026 25.5619 27.964 24.3731 28.583 25.162C29.2801 26.0505 29.8994 27.1156 30.4325 28.1106C30.4416 28.1277 30.8229 28.8953 30.7509 28.8914C30.4234 28.8737 29.8984 28.0464 29.7427 27.8529C28.9074 26.8146 28.2008 25.7059 27.5521 24.5442C27.3998 24.2716 26.8929 23.726 27.4952 23.8544C28.2377 24.0126 28.8726 24.6398 29.3107 25.2302C29.3749 25.3167 29.9768 26.0477 29.8716 26.1853C29.5968 26.5446 28.4153 25.5256 28.2684 25.4008C28.0945 25.2529 26.9728 24.4107 27.1049 24.0477C27.2074 23.7656 28.3363 24.2026 28.4769 24.2865C28.9547 24.5715 29.4713 25.2726 29.2804 25.8556C28.8045 27.3082 26.2596 26.6924 26.0512 25.3287C26.0038 25.0186 26.1141 24.836 26.4605 24.836C27.209 24.836 27.572 25.4084 27.6241 26.0943C27.6797 26.8268 27.6033 27.6897 26.9912 28.1864C26.1595 28.8613 25.4587 28.3286 25.2477 27.4133C25.0794 26.683 24.7303 24.5932 26.1877 25.0559C27.0266 25.3222 26.8333 27.6868 26.1725 27.3451C25.7367 27.1197 25.7322 26.1329 25.7253 25.7229C25.7174 25.2568 25.6666 24.8784 26.2256 24.836C27.3704 24.7493 27.6077 26.9218 26.9305 27.5042C26.4351 27.9303 25.5627 28.0586 25.0658 27.5725C24.6408 27.1567 24.6026 26.1547 24.7778 25.6168C24.8456 25.4083 24.975 25.2058 25.1795 25.1089C25.4164 24.9967 25.295 25.4856 25.2856 25.5561C25.1752 26.3841 24.8453 27.1 24.4139 27.8112C24.306 27.9891 23.9278 28.5953 23.6824 28.2395C23.2294 27.5826 23.3375 26.4126 23.3375 25.6395C23.3375 25.5031 23.3375 25.3666 23.3375 25.2302C23.3375 24.8466 23.7286 25.4132 23.853 25.5258C24.1364 25.7826 24.3883 25.9847 24.5276 26.3521C24.6772 26.7464 24.6222 26.7273 24.6375 26.2763C24.6504 25.8978 24.6983 25.494 24.7853 25.1241C24.8728 24.7523 24.4465 25.8087 24.2699 26.1474C24.076 26.5194 24.0121 26.9195 23.8492 27.2996C23.7209 27.599 23.7469 26.9316 23.7469 26.8675C23.7469 26.5605 23.7469 26.2535 23.7469 25.9465C23.7469 25.692 23.6324 26.6534 23.6028 26.7765C23.4774 27.2992 23.3115 27.8357 23.1177 28.3381C23.1093 28.3597 22.9049 28.7497 22.8751 28.6792C22.786 28.4675 23.0029 26.7462 23.167 26.7462C23.2482 26.7462 22.8636 27.8665 22.8448 27.9211C22.547 28.7901 22.317 29.6786 22.0565 30.559C21.961 30.8817 21.9279 31.3243 21.7154 31.5899C21.4351 31.9402 22.1425 30.7991 22.3142 30.3847C22.6157 29.657 22.8995 28.9052 23.095 28.141C23.1408 27.9619 23.2671 27.4663 23.1556 27.9628C22.8906 29.1431 22.6145 30.3234 22.3294 31.499C22.0765 32.5415 21.8782 33.6406 21.4728 34.6371C21.0721 35.6223 22.3251 32.6674 22.5113 31.6202C22.5272 31.5309 22.7136 30.8607 22.5757 31.0934C22.1214 31.8601 21.8386 32.7463 21.4311 33.5418C21.2268 33.9406 21.0227 34.4178 20.6921 34.7357C20.6036 34.8207 20.9733 33.6515 21.0332 33.5077C21.3064 32.8511 21.5246 32.1684 21.8291 31.5255C22.0631 31.0314 21.8499 31.5784 21.7609 31.7605C21.1225 33.0662 20.481 34.3736 19.737 35.6226C19.1671 36.5791 20.4655 33.5172 20.8816 32.4844C20.9587 32.2929 21.5979 30.8085 21.0787 31.6581C20.5622 32.5033 20.0728 33.3828 19.6687 34.2885C19.3369 35.0322 18.8689 35.7005 18.1148 36.0433C17.6891 36.2368 17.0059 36.0208 16.5533 36.0812C16.1839 36.1304 15.8317 36.1456 15.4542 36.1456C14.8248 36.1456 15.8434 36.1456 16.0075 36.1456C17.4811 36.1456 18.9748 36.2084 20.4381 36.0812C21.3138 36.005 22.1911 35.8727 23.0722 35.8727C23.7038 35.8727 24.2884 35.8399 24.9104 35.7363C25.3254 35.6671 25.7886 35.5484 26.1877 35.4103C26.5109 35.2984 26.8436 35.3035 27.1807 35.2435C27.6225 35.165 28.0603 35.0688 28.492 34.9479C28.9452 34.821 29.4323 34.4223 29.8868 34.3718C30.0631 34.3522 29.8868 34.0183 29.8868 33.9284C29.8868 33.8241 30.1516 33.7505 30.2582 33.6896C30.9544 33.2918 31.1839 32.6572 31.1072 31.8704C31.0005 30.7767 30.1322 30.0784 29.7124 29.134C29.5124 28.6839 30.2116 29.2294 30.2961 29.3538C30.7651 30.0443 30.7847 31.0552 30.6751 31.8552C30.627 32.2063 30.3542 32.9137 29.8868 32.8748C29.144 32.8129 29.2728 30.7895 29.2728 30.324C29.2728 29.9031 29.1448 29.0653 29.6821 28.8762C30.3226 28.6509 30.4404 29.9964 30.4704 30.3316C30.5494 31.2119 30.6427 32.4821 30.1331 33.2576C29.9024 33.6087 29.4434 33.9251 29.0037 33.8602C28.3297 33.7606 28.0494 32.9317 27.9008 32.3783C27.5548 31.0899 27.287 29.2939 27.9425 28.0538C28.1576 27.6467 28.6031 27.0555 28.9392 27.6748C29.5301 28.7631 29.4348 30.4066 29.2652 31.5899C29.1921 32.0999 28.8835 33.5785 28.1812 33.6972C27.5691 33.8007 27.7286 31.0588 27.7605 30.7144C27.8272 29.997 28.0127 29.2651 28.2078 28.573C28.287 28.2917 28.3822 27.9339 28.5868 27.7089C28.8279 27.4437 29.0627 27.7971 29.1363 28.0121C29.6028 29.3743 29.3753 31.1864 29.0605 32.5526C29.0014 32.8093 28.4581 34.2822 28.1812 33.4243C27.9478 32.7012 27.9787 31.8687 27.9766 31.12C27.9745 30.4089 28.0026 29.7007 28.113 28.9975C28.1414 28.8166 28.2558 27.6478 28.6285 27.6975C29.0971 27.76 28.9913 29.0076 28.9961 29.2818C29.0145 30.3293 28.9902 31.4281 28.5754 32.4086C28.3795 32.8717 27.7226 33.8269 27.2716 33.0377C26.7695 32.159 27.0055 30.9568 27.4043 30.0966C27.6261 29.6182 28.0182 28.7573 28.5185 28.4821C28.9937 28.2207 28.9267 29.9102 28.9279 29.9981C28.9444 31.2615 28.8809 32.5532 28.4882 33.7654C28.3295 34.2554 28.1556 34.5182 28.06 33.8261C27.8927 32.6149 28.0364 31.2927 28.5678 30.18C28.9435 29.3934 29.5381 29.289 29.5381 30.2824C29.5381 31.0017 29.0696 31.6143 28.5451 32.0675C28.4009 32.1921 27.3603 32.8339 27.2413 32.4768C26.9485 31.5984 27.791 30.5422 28.3025 29.9299C28.7624 29.3794 29.2355 28.9371 29.9853 28.9293C30.6011 28.9229 30.5079 30.1197 30.4932 30.4946C30.4549 31.471 30.1235 32.4832 29.269 33.0529C28.8539 33.3296 28.2302 33.4586 27.734 33.4016C27.0928 33.3279 27.4863 32.644 27.7567 32.3707C28.4797 31.6401 30.0958 31.4548 29.9436 32.8748C29.8409 33.8331 28.8054 34.1836 27.9652 34.243C26.9959 34.3115 26.4444 33.6245 26.5022 32.689C26.5692 31.6067 27.3832 30.8886 28.3707 30.5742C28.9479 30.3904 29.9716 30.4426 30.2961 31.0517C31.3698 33.0673 27.4089 34.116 26.2597 32.9127C25.3896 32.0017 25.3676 30.8631 25.9603 29.8238C26.3443 29.1502 26.97 28.5209 27.7719 28.3987C28.3654 28.3082 28.5411 28.8594 28.4238 29.3614C28.2343 30.1723 27.2782 30.2176 26.7183 29.8086C26.3069 29.5081 26.0572 28.897 26.1422 28.3873C26.1596 28.2828 26.269 28.2131 26.3734 28.2585C26.6122 28.3623 26.6193 28.843 26.6387 29.043C26.7211 29.8943 26.8562 31.0474 26.5818 31.8704C26.5512 31.9621 26.2489 32.7673 26.0664 32.4237C25.7313 31.7929 25.8505 30.8176 25.8655 30.1345C25.8731 29.7903 25.8964 29.4456 25.964 29.1074C25.9654 29.1006 26.0523 28.6907 26.0967 28.9066C26.1886 29.353 26.1346 29.857 26.1346 30.3089C26.1346 30.8273 26.1531 31.3522 26.0247 31.859C25.9703 32.0737 25.816 32.8352 25.5509 32.9316C25.2589 33.0378 25.2654 31.2074 25.2629 31.1124C25.2369 30.1332 25.2903 29.1694 25.3159 28.194C25.354 26.7478 25.4763 31.1051 25.2477 32.5337C25.204 32.807 25.1792 31.8713 25.1795 31.8401C25.1905 30.8154 25.3848 29.8183 25.4675 28.8004C25.4695 28.7767 25.4945 28.3999 25.4903 28.4063C25.3192 28.6674 25.2152 29.0153 25.0961 29.3007C24.6954 30.2615 24.4374 31.2619 24.141 32.257C23.8904 33.0985 24.0512 31.4793 24.0652 31.317C24.1548 30.2828 24.2802 29.2177 24.4594 28.194C24.5363 27.7543 24.4254 28.1102 24.3305 28.3305C23.9527 29.2074 23.5457 30.0746 23.2693 30.9911C23.2091 31.1908 23.0646 31.7909 23.0646 31.5823C23.0646 30.7777 23.2278 29.9824 23.33 29.187C23.3717 28.8617 23.3935 28.5338 23.4399 28.2092C23.4642 28.0387 23.474 27.9595 23.474 28.2243C23.474 29.6703 23.2994 31.0994 23.1708 32.5374C23.1209 33.0947 23.0188 33.6619 22.9964 34.2202C22.9933 34.2991 23.0093 34.0623 23.0267 33.9852C23.1167 33.5885 23.3229 33.2194 23.5725 32.9013C24.8153 31.3177 27.0117 31.3014 28.4086 32.6625C28.7089 32.9551 28.8449 33.1992 28.3859 33.3788C27.0317 33.9088 25.4695 34.083 24.0273 34.152C23.6235 34.1713 23.2187 34.1672 22.8145 34.1672C22.736 34.1672 22.5085 34.1854 22.5795 34.152C22.7414 34.0758 22.9731 34.0999 23.1404 34.0989C23.7872 34.0953 24.4342 34.0989 25.081 34.0989C25.6363 34.0989 26.3962 33.9644 26.9381 34.1368C27.0682 34.1782 27.0816 34.2211 26.9229 34.243C26.1993 34.3428 25.4693 34.3989 24.7436 34.4817C23.4209 34.6327 22.106 34.8304 20.7982 35.0768C19.9391 35.2386 20.8674 35.0794 21.1848 34.9707C22.6616 34.4648 24.1833 33.8064 25.7821 33.9663C27.2122 34.1093 22.9282 34.3476 21.5297 34.6788C19.9692 35.0484 24.7404 34.5859 26.3317 34.387C26.6986 34.3411 27.3123 34.1871 27.6847 34.3112C27.8531 34.3673 27.3964 34.5264 27.2299 34.5879C26.5488 34.8396 25.8377 35.0199 25.1416 35.2246C24.096 35.5321 23.0568 35.7754 21.9807 35.9409C21.9231 35.9498 21.2426 36.0091 21.6093 36.0091C22.3136 36.0091 23.0129 35.9921 23.7165 35.9561C23.957 35.9438 24.9874 36.0252 25.1643 35.7893C25.2839 35.6299 24.1035 35.1771 24.0463 35.1526C23.4075 34.8788 22.8006 34.5348 22.1588 34.2733C21.8172 34.1341 22.2891 34.0587 22.4582 33.9928C23.1619 33.7188 23.8854 33.5106 24.6034 33.2803C24.8564 33.1992 25.0746 33.1439 25.3387 33.1439C25.7934 33.1439 24.423 33.1139 23.9818 33.0036C23.9231 32.9889 22.9451 32.6283 23.2921 32.5337C23.8899 32.3706 24.6764 32.4162 25.2856 32.4692C25.397 32.4789 26.0414 32.6176 25.7783 32.7952C25.2699 33.1383 24.585 33.2783 24.0122 33.4622C23.207 33.7207 22.4049 33.9903 21.5865 34.2051C21.2107 34.3037 20.0723 34.5083 20.4609 34.5083C21.1039 34.5083 21.747 34.5083 22.39 34.5083C23.7494 34.5083 25.0783 34.5977 26.4378 34.5765C27.1154 34.5659 27.7509 34.3978 28.3973 34.2089C28.8023 34.0905 29.1755 34.1159 29.3789 33.701C29.7917 32.859 30.0159 31.9863 30.3795 31.1351C30.8505 30.0325 31.9548 29.6955 33.0856 29.8086C33.3258 29.8326 33.6129 29.975 33.7678 30.1687C33.8515 30.2733 33.6556 29.9251 33.6048 29.801C33.4241 29.3592 33.4093 28.7034 33.7071 28.3153C33.7829 28.2166 33.8467 28.0741 33.9459 27.9969C34.0327 27.9295 34.1838 27.9431 34.2529 27.8567C34.351 27.7341 34.4563 28.1861 34.4576 28.2319C34.4755 28.8771 34.4943 29.5321 34.3211 30.1573C34.0944 30.9761 34.0436 31.7988 33.8777 32.6284C33.8148 32.9428 33.7754 33.2408 33.7754 33.5608C33.7754 33.8132 33.7754 33.6828 33.7754 33.5153C33.7754 33.2678 33.6165 32.1057 33.8133 31.9651C33.8844 31.9143 34.2529 33.4518 34.2529 33.6479C34.2529 34.331 34.4576 32.292 34.4576 31.6089C34.4576 31.441 34.4119 30.9719 34.306 30.8395C34.1728 30.6731 33.8679 30.2665 33.6389 30.2786C33.2957 30.2966 33.0489 31.4898 33.0287 31.7415C33.0198 31.8525 33.0753 32.1651 33.0098 32.0751C32.8908 31.9115 32.8811 31.4922 32.8354 31.2867C32.7786 31.0311 32.7849 31.054 32.8506 31.2981C32.9747 31.7589 32.4966 31.4344 32.301 31.2753C31.9586 30.9967 31.199 30.2981 31.164 29.8086C31.1549 29.6813 31.4266 29.8622 31.5203 29.9488C31.9622 30.3574 32.3339 30.8476 32.6762 31.3398C33.2037 32.098 33.7153 32.8717 34.1013 33.7124C34.1824 33.8889 34.4038 34.2636 34.0179 34.1217C33.3447 33.8742 32.7881 33.2186 32.4488 32.6019C32.1644 32.0846 32.6651 32.1087 33.0401 32.3555C33.3604 32.5663 33.6341 32.8994 33.7602 33.2651C33.8577 33.5478 33.1144 33.3935 33.0098 33.3713C32.4245 33.2471 31.9233 32.9459 31.5658 32.4692C31.5231 32.4123 31.1251 31.9454 31.3308 31.9197C32.1137 31.8218 32.8367 32.782 33.2144 33.3485C33.2737 33.4374 33.3706 33.7506 33.2865 33.8488C33.1609 33.9953 32.4037 33.1379 32.32 33.0491C32.2773 33.0039 31.8097 32.401 31.9031 32.401C32.0796 32.401 32.0279 32.5072 31.869 32.2191C31.749 32.0016 31.3904 31.2194 31.8803 31.6885C32.6159 32.3927 33.386 33.1072 33.8057 34.061C33.9557 34.402 34.0105 34.5221 33.8436 34.8873C33.6614 35.2858 33.0565 34.8354 32.8203 34.6599C32.4305 34.3703 32.1572 33.9223 31.8045 33.5949C31.5206 33.3312 31.7238 33.4394 31.9334 33.5532C32.4538 33.8357 33.1045 34.6447 33.2334 35.2246C33.2655 35.3689 33.4061 35.5998 33.1614 35.5998C32.5303 35.5998 32.0613 35.4075 31.6605 34.9176C31.5492 34.7815 30.1 32.9072 30.4325 32.7497C30.6432 32.6499 31.3216 32.6787 31.3876 32.943C31.4878 33.3438 31.4558 33.7559 31.4558 34.1672C31.4558 34.5892 31.5716 34.9267 31.6605 35.3269C31.7345 35.6601 31.9177 35.6624 32.1722 35.8386C32.3595 35.9683 32.5421 36.1073 32.6687 36.2972C32.6801 36.3143 31.7731 36.3502 31.6681 36.3502C30.7331 36.3502 30.3631 36.1883 30.1596 35.1829C30.133 35.0514 29.8457 34.2354 30.1255 34.2354C30.3579 34.2354 30.5399 34.3148 30.622 34.5613C30.7508 34.9476 30.7736 35.494 30.7736 35.9068C30.7736 36.0017 30.8806 36.2761 30.7736 36.282C30.5693 36.2934 30.3606 36.282 30.1559 36.282C29.6988 36.282 29.0771 36.3953 28.6436 36.2669C28.1496 36.1205 27.5062 36.2138 26.9912 36.2138C26.3873 36.2138 25.7834 36.2138 25.1795 36.2138C23.8033 36.2138 22.4664 36.4867 21.0862 36.4867C20.7565 36.4867 20.4268 36.4867 20.097 36.4867C19.9318 36.4867 20.5037 36.3502 20.6238 36.3502C21.6969 36.3502 22.7523 36.433 23.8151 36.5511C25.2469 36.7102 26.7953 36.5549 28.2343 36.5549C28.8194 36.5549 29.452 36.618 29.9853 36.3654C30.1433 36.2906 30.5433 36.2369 30.2203 36.0395C29.5835 35.6503 28.781 35.4624 28.0941 35.1602C28.0442 35.1382 27.7289 35.0592 27.8022 34.9858C27.9962 34.7919 28.3951 34.7682 28.6436 34.7129C28.7637 34.6863 30.1064 34.4159 29.8489 34.747C29.6126 35.0508 29.0408 35.2213 28.7043 35.3648C27.8095 35.7463 26.8595 36.1572 25.892 36.3199C25.4116 36.4007 24.6387 36.5495 24.4442 36.0243C24.2388 35.4696 23.4909 34.9631 22.9699 34.7508C22.6402 34.6165 22.3076 34.6447 21.9579 34.6447C21.7512 34.6447 21.5386 34.6306 21.3326 34.6485C21.144 34.6649 21.1772 34.8133 21.2265 34.7395C21.6584 34.0916 22.2045 33.4947 22.7842 32.9771C23.3123 32.5056 22.9693 32.8722 22.625 33.0074C21.4913 33.4528 20.9806 34.4226 20.5443 35.4861C20.3343 35.9978 20.062 36.0364 19.6005 36.2972C19.2592 36.4901 19.011 36.6231 18.6151 36.6231C17.8498 36.6231 17.0796 36.5097 16.3449 36.3465C15.6098 36.1831 14.7556 36.282 13.9912 36.282C13.011 36.282 12.0623 36.0774 11.0615 36.0774C10.5262 36.0774 9.8839 36.055 9.38252 35.8727C8.84659 35.6778 8.63624 35.2921 8.46532 34.7508C8.16678 33.8055 8.11526 32.7499 8.02946 31.7681C7.95343 30.8979 7.91955 30.0113 7.91955 29.1378C7.91955 27.9777 8.04953 26.9802 8.36299 25.8518C8.48758 25.4032 9.59124 25.361 9.95102 25.2454C10.2664 25.144 10.6555 24.858 10.9895 24.8209C11.6562 24.7468 10.8363 24.4115 10.5461 24.4115C9.94971 24.4115 9.25802 23.9003 8.80264 23.5588C8.31214 23.1909 7.79953 22.8522 7.37378 22.4028C7.28703 22.3112 7.24545 22.2557 7.13501 22.1944C7.01436 22.1273 7.01874 22.2753 6.92276 22.327C6.59939 22.5011 6.20266 22.4776 5.88808 22.6757C5.62429 22.8418 5.29323 22.9378 5.05805 23.1495C4.72091 23.4529 4.49624 23.7607 4.2015 24.1008C3.98094 24.3552 4.08067 24.4832 3.87934 24.4798C3.3641 24.471 3.0221 24.3232 2.56419 24.6124C2.07135 24.9237 1.82904 25.3256 1.50676 25.7911C1.35863 26.0051 1.22768 26.2176 1.06711 26.4241C0.986736 26.5274 0.675717 27.221 0.960992 26.9357C1.46731 26.4294 2.04378 25.9706 2.5225 25.4387C2.79964 25.1307 3.09091 24.6394 3.51928 24.5442C3.61497 24.5229 3.65344 24.417 3.75806 24.4115C3.93537 24.4022 4.10988 24.456 4.28109 24.4949C4.77917 24.6081 5.17252 24.7526 5.69857 24.7526C6.55765 24.7526 7.41674 24.7526 8.27582 24.7526C8.86834 24.7526 9.31657 25.162 9.89796 25.162C10.4284 25.162 10.8251 25.8341 11.0918 26.2194C11.35 26.5924 11.5883 26.9546 11.6869 27.3981C11.7623 27.7374 11.8697 28.2757 12.0431 28.573C12.1842 28.8148 12.4014 29.3313 12.4221 29.6115C12.4483 29.9646 12.6872 30.2534 12.7784 30.5818C13.0085 31.4102 13.625 32.1149 13.7714 32.9771C13.8295 33.3191 13.9358 34.8494 14.4347 34.8494C14.7559 34.8494 14.3403 34.8817 14.2793 34.8342C14.2424 34.8055 14.3671 35.1017 14.4006 35.1602C14.4598 35.2639 14.5488 35.513 14.6204 35.5847C14.6739 35.6382 14.7601 35.4123 14.4688 35.3951C14.216 35.3803 14.1133 34.1149 13.8548 33.8564C13.6622 33.6638 13.8617 34.1929 13.923 34.2695C14.0328 34.4067 14.0815 34.4989 14.23 34.6144C14.3955 34.7431 14.5954 34.9359 14.6886 35.1223C14.7079 35.1609 14.9101 35.5541 14.8743 35.3572C14.8254 35.088 14.5147 34.827 14.3323 34.6447C14.0788 34.3911 13.8792 34.1485 13.6729 33.8488C13.1701 33.1186 12.6925 32.4476 12.1114 31.7718C11.1675 30.6743 10.4522 29.332 9.8449 28.0273C9.48693 27.2582 9.1151 26.5024 8.74199 25.7419C8.64456 25.5432 8.54653 25.2406 8.36299 25.0938C8.28517 25.0315 8.44229 25.0124 8.49943 25.1013C8.79058 25.5542 9.0449 26.0341 9.33703 26.4885C9.86356 27.3075 10.3193 28.1688 10.8531 28.9824C11.1353 29.4126 11.4961 29.8257 11.7399 30.2786C11.9025 30.5805 11.8722 30.4031 11.721 30.1914C11.1788 29.4324 10.7743 28.5981 10.421 27.7354C10.1262 27.0156 9.23435 24.8902 9.6933 25.5182C9.88872 25.7857 10.1965 26.2748 10.5802 26.2535C10.7266 26.2454 10.7503 26.0664 10.7848 25.9541C10.8233 25.8291 10.9296 25.8623 11.0236 25.8101C11.1863 25.7197 11.3866 25.7035 11.5353 25.5713C11.6201 25.4959 11.7332 25.4665 11.5504 25.4008C11.1737 25.2651 10.7711 25.2161 10.3831 25.1279C9.91846 25.0223 9.60712 24.7388 9.17785 24.548C8.67742 24.3256 8.16548 24.1342 7.78311 23.7293C7.55702 23.49 7.45564 23.3687 7.07437 23.3238C6.72888 23.2831 6.95104 23.6314 7.08574 23.7293C7.74793 24.2109 8.3057 24.8778 8.85949 25.4728C9.58607 26.2534 10.3232 27.0824 10.8531 28.0121C11.2023 28.6247 11.4059 29.1772 11.5656 29.8617C11.6139 30.0688 11.5817 30.2763 11.6187 30.4832C11.6976 30.9252 11.8879 31.3161 12.1038 31.7036C12.3794 32.1985 12.6406 32.6447 12.9641 33.1097C13.0764 33.2711 13.4937 33.6877 13.381 33.5266C13.2009 33.2693 12.9047 33.0542 12.6912 32.8255C12.2567 32.3599 11.8429 31.8741 11.4216 31.3966C11.0412 30.9655 10.6015 30.5632 10.2542 30.1042C10.1324 29.9432 10.3857 30.141 10.3983 30.1497C10.7088 30.3664 11.0175 30.5906 11.3154 30.8243C11.6811 31.1112 12.0667 31.4675 12.3084 31.8704C12.4343 32.0801 12.4134 32.1986 12.1341 32.0447C11.2943 31.582 10.4379 30.8801 9.807 30.1573C9.77295 30.1183 9.16327 29.3935 9.31429 29.3386C9.70371 29.197 10.2729 29.6951 10.5195 29.9223C10.9807 30.3472 11.2632 30.9562 11.558 31.499C11.5849 31.5484 11.8371 32.1062 11.6262 31.8552C10.9407 31.0391 10.435 29.9065 10.0155 28.9369C9.79068 28.4174 9.61418 27.8809 9.43558 27.3451C9.38273 27.1865 10.1377 27.4948 10.1708 27.5118C10.7789 27.8242 11.3086 28.2792 11.7361 28.808C11.917 29.0317 12.1276 29.4673 12.3805 29.6191C12.4678 29.6715 12.2841 29.4393 12.2289 29.3538C11.9685 28.9507 11.7308 28.5341 11.5125 28.1069C11.2191 27.5324 11.0412 26.9103 10.7545 26.3369C10.6344 26.0967 10.6437 26.3761 10.6636 26.4885C10.7464 26.9577 11.0722 27.4173 11.2548 27.8529C11.5541 28.567 11.8084 29.2961 12.1455 29.9943C12.4125 30.5474 12.7595 31.0716 12.9679 31.6506C13.1842 32.2513 13.3329 32.8421 13.5819 33.4319C13.7734 33.8855 13.9789 34.3167 14.1428 34.7812C14.17 34.8581 13.5291 34.2889 13.4758 34.2164C12.9327 33.4786 12.4585 32.6687 11.9825 31.8856C11.9002 31.7501 11.5374 31.3038 11.8006 31.7188C12.3235 32.5434 12.7742 33.4191 13.2181 34.2885C13.3111 34.4708 13.6425 34.8681 13.6425 35.0806C13.6425 35.2655 13.2945 34.9502 13.1347 34.857C12.6122 34.5522 12.1051 34.2237 11.6187 33.864C11.2849 33.6171 10.5312 33.1887 10.3528 32.7724C10.3469 32.7587 11.2506 33.1048 11.3268 33.1476C11.5316 33.2628 11.7276 33.3931 11.937 33.5001C12.1 33.5834 12.5513 33.6059 12.4297 33.7427C12.3413 33.8422 11.5739 33.6524 11.4671 33.6366C11.052 33.575 10.6449 33.485 10.2391 33.3788C10.0911 33.3401 9.93146 33.3057 9.78805 33.25C9.63946 33.1922 10.0961 33.3386 10.2391 33.4092C11.1914 33.8793 12.1606 34.4393 13.0286 35.054C13.0359 35.0593 13.5421 35.3992 13.4985 35.4482C13.453 35.4994 13.1295 35.4634 13.1119 35.4634C12.6278 35.4634 12.14 35.4795 11.6566 35.4482C11.3337 35.4273 10.4267 35.4644 10.2012 35.1905C10.1116 35.0818 10.4773 35.1223 10.6181 35.1223C11.0161 35.1223 11.4109 35.1321 11.8006 35.2208C12.1392 35.2979 13.8006 35.7363 12.5169 35.7363C12.0255 35.7363 11.534 35.7363 11.0426 35.7363C10.723 35.7363 10.689 35.7363 11.035 35.7363C11.5844 35.7363 12.2355 35.7975 12.7254 36.0774C12.9628 36.213 12.6199 36.3961 12.5283 36.4223C12.334 36.4778 12.6853 36.732 12.7481 36.6762C12.8084 36.6226 12.8193 36.5244 12.8353 36.4526C12.8613 36.3355 12.9873 36.3622 13.0702 36.3161C13.2841 36.1973 13.9739 36.282 13.2181 36.282C12.64 36.282 12.0602 36.2952 11.4822 36.282C11.2083 36.2758 10.9885 36.1456 10.7166 36.1456C10.2796 36.1456 9.85164 36.0893 9.42042 36.0774C9.08117 36.0679 8.74027 36.0774 8.40089 36.0774C8.18793 36.0774 7.30431 36.1083 7.99914 36.0736C8.67533 36.0398 9.36658 35.8373 10.0496 35.9561C10.3404 36.0067 10.6022 36.1543 10.8872 36.2176C11.0482 36.2534 11.1693 36.4315 11.2775 36.5397C11.5983 36.8605 10.9862 36.7774 10.7848 36.7444C10.2002 36.6487 9.65562 36.3502 9.06415 36.3502C8.56784 36.3502 8.00288 36.2837 7.51022 36.354C7.02828 36.4229 6.5438 36.4826 6.07758 36.3161C5.85735 36.2375 5.49184 36.2254 5.25892 36.2138C5.04171 36.2029 4.84826 36.0887 4.64493 36.0774C4.49077 36.0688 4.28384 36.0477 4.13328 36.0812C3.94357 36.1233 4.42649 36.2138 4.50849 36.2138C4.68992 36.2138 4.86444 36.2979 5.02015 36.3844C5.19104 36.4793 5.9255 36.6914 5.32336 36.6914C4.64199 36.6914 4.24279 36.3235 3.68984 36.047C3.1232 35.7637 2.563 35.4659 2.03737 35.1223C1.55424 34.8064 1.6432 34.3259 1.6432 33.7882C1.6432 32.8058 1.61083 31.8633 1.50297 30.8926C1.4189 30.1359 1.43854 29.3721 1.43854 28.6071C1.43854 27.8914 1.44278 27.4177 1.76449 26.7614C1.90603 26.4726 2.08614 26.4048 2.31026 26.2042C2.59077 25.9533 2.87319 25.729 3.20471 25.5486C3.52732 25.373 3.88294 25.3105 4.18255 25.0938C4.29598 25.0117 5.25415 24.6326 5.21723 24.6162C4.69622 24.3846 5.30999 24.0188 5.5735 23.8658C5.86762 23.695 6.80546 23.3243 7.07058 23.7142C7.2685 24.0052 6.62131 23.9479 6.48691 23.8999C6.45239 23.8876 6.26525 23.8198 6.36562 23.7445C6.56288 23.5965 7.08263 23.8295 7.24492 23.9188C7.61855 24.1245 8.93343 25.88 7.73005 25.6092C7.54777 25.5682 6.97961 25.3434 6.97961 25.1013C6.97961 24.7924 8.01713 25.8149 8.0522 25.8593C8.53109 26.4659 9.02565 27.2436 9.18543 28.0121C9.28482 28.4901 9.07799 28.6343 8.65482 28.3381C7.86379 27.7843 7.21563 26.9965 6.71431 26.1777C6.56846 25.9395 6.26463 25.4562 6.70673 25.9465C7.64778 26.9902 8.34078 28.2122 8.94287 29.4751C9.05664 29.7137 9.14765 29.9569 9.20817 30.2141C9.21889 30.2597 8.89747 29.6416 8.8936 29.6343C8.35185 28.6121 7.92408 27.5421 7.44958 26.4885C7.34845 26.2639 7.23205 26.0406 7.15396 25.8063C7.09031 25.6154 7.40349 26.1222 7.53296 26.2763C9.23849 28.3058 10.8648 30.5977 11.8574 33.0794C11.8738 33.1203 11.89 33.2012 11.8157 33.1363C11.4797 32.8422 11.247 32.3748 11.0577 31.9841C10.3986 30.6232 10.0814 29.1365 9.4659 27.762C9.4577 27.7437 9.19046 27.1716 9.37494 27.5952C9.66935 28.2713 9.99202 28.9345 10.2846 29.6115C10.5784 30.2917 10.8664 30.9762 11.1184 31.6733C11.2193 31.9525 11.4458 32.3487 11.4519 32.6511C11.4546 32.7889 11.1679 32.6877 11.0388 32.6398C10.4613 32.4253 10.0903 31.9281 9.70088 31.4762C9.10079 30.7799 8.67361 30.1248 8.30993 29.2856C8.30175 29.2667 8.30922 29.2083 8.3213 29.2249C8.60153 29.6112 8.79036 30.0854 8.97319 30.5211C9.49304 31.7601 9.80219 33.018 10.0041 34.3415C10.1194 35.0976 9.83654 33.7026 9.82595 33.6328C9.617 32.2537 9.46849 30.8512 9.42421 29.4561C9.42331 29.4278 9.3785 28.8867 9.46969 29.2515C9.62382 29.868 9.7814 30.4836 9.93207 31.101C10.1658 32.0586 10.5802 33.1206 10.5802 34.1179C10.5802 34.5338 10.2807 33.3383 10.1936 32.9316C10.042 32.2242 9.87368 31.4998 9.89796 30.7713C9.90675 30.5078 10.5173 31.1208 10.5385 31.1427C11.0699 31.6928 11.4086 32.5026 11.5353 33.25C11.5875 33.5579 11.7016 33.9634 11.3306 34.0989C10.9715 34.2302 10.6211 34.1929 10.4437 33.8185C10.15 33.1983 10.0658 32.4473 9.98134 31.7718C9.93088 31.3682 10.1184 31.5807 10.3149 31.8022C10.9785 32.5505 11.4098 33.5278 11.7437 34.4628C11.8206 34.6782 12.055 35.4406 11.6073 35.4406C10.7542 35.4406 10.1129 34.5355 9.7691 33.8715C9.18114 32.7362 9.02366 31.3376 8.82158 30.0891C8.80576 29.9913 8.61717 28.7556 8.71925 29.3917C8.96968 30.9521 9.09003 32.5156 9.18164 34.0914C9.18537 34.1555 9.22132 35.007 9.16648 34.91C8.65908 34.0123 8.59529 32.8866 8.43879 31.8931C8.34372 31.2896 8.26066 30.7 8.26066 30.0891C8.26066 29.7158 8.41352 30.8202 8.5108 31.1806C8.71608 31.9411 8.85226 32.6976 8.97698 33.4736C9.00675 33.6588 9.21695 34.3671 8.8557 33.9208C7.66049 32.4444 7.73913 30.385 7.49506 28.6034C7.42773 28.1118 7.33411 28.6476 7.32072 28.8232C7.22316 30.1023 7.08581 31.3792 6.99477 32.6587C6.9534 33.2403 6.96445 33.8234 6.96445 34.4059C6.96445 34.6631 6.91639 34.9743 6.99856 35.2208C7.01594 35.2729 7.01286 35.4896 7.1009 35.4482C7.29178 35.3584 7.36955 35.3322 7.60118 35.3269C8.36939 35.3095 7.76856 32.9901 7.64666 32.6549C7.54742 32.382 7.4474 32.0072 7.20323 31.8173C6.97515 31.6399 7.14818 32.0026 7.17291 32.0675C7.38172 32.6156 7.48561 33.2029 7.57844 33.7806C7.60042 33.9173 7.80272 34.6604 7.50264 34.531C7.15492 34.3811 6.87339 34.1321 6.49828 34.0383C6.4423 34.0243 6.0043 33.8829 6.08516 34.0648C6.2012 34.3259 6.82448 34.3158 6.88107 34.6978C6.91674 34.9385 4.89912 34.917 4.74348 34.9176C4.13412 34.9199 2.30878 34.807 2.91666 34.8494C3.46222 34.8874 4.02538 35.1937 4.49333 35.4558C4.69994 35.5715 5.21583 35.7176 5.35368 35.9106C5.46964 36.0729 4.62404 35.8605 4.61461 35.8575C4.25103 35.7442 3.899 35.5997 3.53824 35.4785C3.41854 35.4383 2.99377 35.3849 2.91666 35.2587C2.90846 35.2453 4.13777 35.191 4.26214 35.2019C4.82842 35.2511 5.36465 35.4915 5.92219 35.596C6.10073 35.6295 6.4326 35.7423 6.02831 35.6453C5.0773 35.4171 4.18494 34.8514 3.31462 34.4249C2.90003 34.2217 2.42641 34.0771 2.03737 33.8261C1.74641 33.6383 2.26227 33.6885 2.3709 33.6896C3.11763 33.6971 3.83063 33.8523 4.55397 34.0269C4.81739 34.0905 5.06555 34.1747 5.3082 34.296C5.39034 34.3371 5.57708 34.4693 5.67583 34.4552C5.81825 34.4349 5.52803 34.2083 5.45601 34.0838C5.07476 33.4245 4.76904 32.7234 4.49333 32.0144C4.30814 31.5382 4.03094 30.9001 4.03094 30.3771C4.03094 30.1753 4.32901 30.1651 4.47817 30.2103C4.77149 30.2994 4.90417 30.9376 4.99362 31.173C5.14456 31.5704 5.2421 31.9625 5.32715 32.3783C5.39016 32.6863 5.64619 33.9945 5.49391 32.8748C5.2535 31.1071 5.29702 29.2813 5.33094 27.5004C5.33771 27.1448 5.4796 26.1895 5.51665 27.1859C5.58552 29.0377 5.58521 30.9212 5.51665 32.7724C5.51142 32.9137 5.4036 33.7069 5.39916 33.6669C5.3479 33.2056 5.4381 32.6687 5.47117 32.2153C5.55146 31.1142 5.68594 30.0225 5.8388 28.9293C5.95227 28.1179 6.07481 27.3085 6.20644 26.4999C6.23227 26.3412 6.23189 26.0675 6.32014 25.9162C6.40281 25.7745 6.51422 27.0968 6.52102 27.201C6.64688 29.1309 6.68232 31.0737 6.69157 33.0074C6.69457 33.6344 6.71808 35.5129 6.75979 34.8873C6.84935 33.5439 6.75979 32.1618 6.75979 30.8168C6.75979 29.5774 6.75979 28.3381 6.75979 27.0987C6.75979 26.5865 6.6767 28.1208 6.59303 28.6261C6.3253 30.2428 6.08638 31.8362 5.88808 33.4622C5.84695 33.7994 5.87132 34.8111 5.80469 34.478C5.56786 33.2938 5.73647 31.949 5.73647 30.7485C5.73647 30.2748 5.73647 29.801 5.73647 29.3273C5.73647 29.191 5.66173 28.6752 5.77437 28.5465C5.81087 28.5048 5.83113 28.6439 5.8426 28.6981C5.8836 28.8919 5.92923 29.2267 5.95251 29.3955C6.09677 30.4414 6.21461 31.4908 6.38078 32.5337C6.40739 32.7006 6.9958 35.8045 6.82801 35.8045C6.54012 35.8045 5.91381 35.2302 6.02073 35.4975C6.07319 35.6286 6.57262 35.7985 6.69157 35.8348C6.77557 35.8605 7.46306 36.0091 7.10848 36.0091C5.74721 36.0091 4.36828 35.8695 3.02279 35.6832C2.63007 35.6288 2.23903 35.7105 1.92367 35.3951C1.7239 35.1954 1.71142 34.9601 1.71142 34.6978C1.71142 34.0735 2.1356 34.5674 2.32542 34.8494C2.39328 34.9502 2.46095 35.0546 2.52629 35.1526C2.55502 35.1957 2.52962 35.0489 2.52629 34.9972C2.50204 34.6214 2.45318 34.2475 2.42775 33.8715C2.34484 32.6464 2.32008 31.4227 2.32542 30.1952C2.32807 29.5837 2.48866 29.022 2.53008 28.4214C2.56241 27.9526 2.53008 29.3614 2.53008 29.8313C2.53008 30.4274 2.63575 31.1355 2.49597 31.7226C2.47654 31.8042 2.36637 31.9287 2.32162 31.787C2.10559 31.1029 2.12833 30.3184 2.12833 29.6115C2.12833 28.6995 2.1438 27.194 2.84086 26.4582C3.04059 26.2474 3.51769 26.0467 3.79596 25.9465C4.1101 25.8334 7.07396 24.2408 7.1009 24.7526C7.1329 25.3606 6.52777 25.5093 6.02452 25.7002C5.58021 25.8687 5.13993 26.0766 4.71316 26.2687C4.26628 26.4698 3.99162 26.81 3.72016 27.2048C3.48703 27.5439 3.12462 27.7738 2.83707 28.0614C2.65255 28.2459 2.8469 27.9613 2.88634 27.8984C3.11691 27.5306 3.35393 27.168 3.60646 26.8144C3.62814 26.7841 3.92531 26.3852 3.85281 26.4013C3.60522 26.4563 3.40362 26.9292 3.28051 27.1139C3.03588 27.4808 2.9052 27.9444 2.83328 28.376C2.82621 28.4184 2.73578 29.0025 2.81812 29.0354C2.97599 29.0986 3.90238 26.6606 4.084 26.3672C4.20397 26.1734 4.23561 26.3009 4.23561 26.4544C4.23561 27.7787 3.71607 29.1465 3.398 30.4188C3.18044 31.289 3.03032 32.1709 2.83328 33.0453C2.60418 34.062 3.46979 31.0602 3.75806 30.0587C4.04435 29.0641 4.25014 28.0529 4.4668 27.0418C4.49053 26.9311 4.50849 26.5301 4.50849 26.8599C4.50849 27.9412 4.29768 28.985 4.17497 30.0587C4.00946 31.5069 3.88956 32.9787 3.83007 34.4363C3.81713 34.7532 3.81658 34.7827 3.82628 34.4401C3.87372 32.7639 4.2498 31.1113 4.50091 29.4599C4.62249 28.6604 4.66826 27.8755 4.71695 27.0722C4.74128 26.6706 4.88212 27.5922 4.8875 27.6445C5.01006 28.8351 4.97369 30.0327 5.05426 31.2261C5.07674 31.5591 5.27904 32.3116 5.10732 32.636C5.06844 32.7094 4.91263 32.7582 4.8496 32.871C4.78463 32.9872 4.64374 33.16 4.50849 33.1969C3.6377 33.4344 3.61893 29.9454 3.5913 29.5812C3.53087 28.7847 3.48518 27.992 3.48518 27.1935C3.48518 26.9998 3.43154 26.6408 3.56856 26.4733C3.94685 26.011 4.1711 25.4621 4.68284 25.09C5.08143 24.8001 5.60202 24.396 5.86534 23.9681C5.99986 23.7495 6.17751 23.5727 6.36562 23.4034C6.43953 23.3369 6.52303 23.2948 6.58924 23.2139C6.67732 23.1062 6.72416 22.7557 6.85833 22.7174C6.95515 22.6897 6.82418 23.1292 6.81285 23.1532C6.65515 23.4876 6.50816 23.7954 6.41868 24.1614C6.01334 25.8196 6.11471 27.7323 6.97961 29.2249C7.45356 30.0429 8.1596 30.6934 8.77231 31.4004C8.98111 31.6413 9.29748 31.7929 9.52654 32.022C10.2901 32.7856 11.0779 33.6355 12.0469 34.1331C12.6774 34.4568 13.6101 34.8531 13.8889 35.5657C14.2573 36.5072 15.3344 36.6697 16.235 36.8126C16.7468 36.8939 17.1944 36.9642 17.7131 36.9642C17.9582 36.9642 18.2033 36.9642 18.4483 36.9642C18.8114 36.9642 19.0822 36.8132 19.4186 36.6914C20.0611 36.4587 20.5494 36.0502 21.0824 35.6415C21.6462 35.2093 22.3795 34.8942 23.076 34.7508C23.5594 34.6513 24.1389 34.6869 24.6337 34.7129C25.9762 34.7836 21.9493 34.8784 20.6125 35.0199C19.4151 35.1467 18.1121 35.0156 16.9399 35.3269C16.5557 35.429 16.1525 35.4257 15.7726 35.5316C15.5656 35.5893 15.4437 35.668 15.2192 35.668C14.3836 35.668 14.061 34.6863 13.7866 34.0156C13.6534 33.6901 13.5005 33.3527 13.4151 33.0112C13.3748 32.8497 13.6422 33.007 13.6842 33.0491C13.8535 33.2184 14.0231 33.388 14.1921 33.557C14.5392 33.9041 15.0751 34.2104 15.3215 34.6485C15.5094 34.9824 15.9159 35.3 16.2425 35.4634" stroke="black" stroke-width="1.03954" stroke-linecap="round"/>
</svg>
