<svg width="36" height="38" viewBox="0 0 36 38" fill="none" xmlns="http://www.w3.org/2000/svg">
<rect x="-0.519772" y="0.519772" width="34.305" height="35.8643" rx="4.67795" transform="matrix(-1 0 0 1 34.6323 0.615234)" fill="#F32D12" stroke="black" stroke-width="1.03954"/>
<path d="M26.9005 11.2757C26.9005 11.038 26.909 10.7987 26.9005 10.5613C26.8977 10.4798 26.8407 10.4026 26.7992 10.3399C26.7171 10.2157 26.5838 10.1395 26.465 10.0684C26.0992 9.8498 25.7129 9.79928 25.3025 9.85364C24.8596 9.91229 24.5117 10.1928 24.2354 10.5746C24.0968 10.7661 23.9812 10.9733 23.8619 11.1799C23.7854 11.3125 23.7023 11.4479 23.6526 11.597C23.6507 11.6028 23.6176 11.698 23.6134 11.6861C23.6046 11.6613 23.6109 11.6064 23.6142 11.5812C23.6255 11.4953 23.6858 11.4046 23.7251 11.3323C23.7937 11.206 23.8651 11.0802 23.9603 10.9768C24.1077 10.8165 24.2964 10.6974 24.4661 10.5697C24.5708 10.4908 24.6461 10.424 24.7708 10.4065" stroke="black" stroke-width="0.519772" stroke-linecap="round"/>
<path d="M25.6506 10.6462C25.6559 10.915 25.6932 11.1829 25.6421 11.4508C25.6001 11.6706 25.5224 11.8936 25.411 12.0971C25.3985 12.1201 25.3605 11.9585 25.3578 11.9489C25.2876 11.6965 25.2593 11.4379 25.257 11.179C25.2555 11.0022 25.2604 10.8307 25.2998 10.6563C25.3149 10.5893 25.3297 10.5091 25.3768 10.4517" stroke="black" stroke-width="0.519772" stroke-linecap="round"/>
<path d="M22.1677 10.3387C22.1707 10.3593 22.2048 10.2835 22.2128 10.2739C22.2658 10.2109 22.3286 10.1496 22.3866 10.0926C22.5684 9.9137 22.7813 9.75978 22.9902 9.62761C23.4375 9.34466 23.9694 9.2127 24.4672 9.10302C24.7007 9.05156 24.9098 9.00977 25.1487 9.00977C25.3552 9.00977 25.5567 9.01419 25.7624 9.03308C26.1602 9.06961 26.5604 9.0564 26.9596 9.0564C27.1396 9.0564 27.3934 9.08097 27.4842 9.28954C27.5615 9.46686 27.8002 9.49544 27.9446 9.58227C28.0293 9.63323 28.0829 9.82087 28.1082 9.91775C28.1465 10.0643 28.1405 10.2095 28.1387 10.362C28.1324 10.8679 27.9323 11.2108 27.57 11.4811" stroke="black" stroke-width="0.519772" stroke-linecap="round"/>
<path d="M22.7708 12.9228C22.4997 12.8262 22.3664 12.6083 22.2114 12.3688C21.8983 11.8852 21.6773 11.4063 21.6089 10.8198C21.5098 9.97118 21.4788 9.10632 21.9794 8.38441C22.5426 7.5723 23.5477 6.86262 24.4587 6.54984C25.3344 6.2492 26.569 6.22684 27.3875 6.69759C28.1288 7.124 28.6518 7.84957 28.9248 8.6676C29.1584 9.36758 29.2328 10.1921 29.1136 10.9282C29.0455 11.3492 28.8424 11.5973 28.5375 11.859" stroke="black" stroke-width="0.519772" stroke-linecap="round"/>
<path d="M20.9319 9.71254C20.6808 9.71254 20.4596 9.72133 20.2197 9.64458C19.9696 9.56452 19.7361 9.46609 19.5094 9.32931C19.1713 9.12536 18.8897 8.85534 18.5336 8.67991C18.3445 8.58674 18.0873 8.58552 17.8836 8.61572C17.7357 8.63766 17.5939 8.72191 17.4754 8.81205C17.2952 8.9491 17.1096 9.09337 16.95 9.25569C16.4462 9.76789 16.4262 10.5932 16.4007 11.2756" stroke="black" stroke-width="0.519772" stroke-linecap="round"/>
<path d="M19.0718 8.58595C19.0718 8.5027 19.0906 8.42413 19.0646 8.34226C19.0063 8.15899 18.8506 8.0133 18.7053 7.90361C18.2298 7.54483 17.6708 7.2239 17.0766 7.16221C16.5604 7.10862 16.0243 7.42484 15.6448 7.76957C15.3447 8.04216 15.1663 8.52424 15.0652 8.91588C14.9927 9.19667 14.9265 9.51151 14.9767 9.80255C14.999 9.9315 15.0869 10.0708 15.1519 10.1812C15.2064 10.2741 15.2651 10.3751 15.3423 10.4493C15.4708 10.5727 15.5925 10.6734 15.7558 10.737C15.8768 10.7841 15.9843 10.7928 16.098 10.8636" stroke="black" stroke-width="0.519772" stroke-linecap="round"/>
<path d="M15.3769 9.00977C15.3511 9.00977 15.4228 9.02189 15.4317 9.02641C15.5299 9.07625 15.6277 9.152 15.7088 9.22613C15.81 9.31859 15.9019 9.42265 16.0039 9.51323C16.0826 9.58314 16.1686 9.64149 16.2452 9.71711C16.2939 9.7652 16.3541 9.78723 16.4011 9.83361" stroke="black" stroke-width="0.519772" stroke-linecap="round"/>
<path d="M29.1696 10.0396C29.3676 10.1318 29.5232 10.3771 29.6831 10.5252C29.9025 10.7282 30.0995 10.9439 30.2934 11.1743C30.5047 11.4254 30.6817 11.7076 30.899 11.9523C31.0039 12.0705 31.1508 12.1658 31.2292 12.3051" stroke="black" stroke-width="0.519772" stroke-linecap="round"/>
<path d="M29.1695 11.8931C29.4743 11.8931 29.7385 12.1015 29.9751 12.2797C30.289 12.5159 30.5758 12.7873 30.8292 13.0899C30.9962 13.2894 31.1055 13.5253 31.2399 13.7472C31.3988 14.0095 31.5039 14.2988 31.6646 14.5593C31.7528 14.7023 31.8642 14.845 31.9952 14.9497C32.0217 14.9709 32.053 15.0095 32.053 14.9535" stroke="black" stroke-width="0.519772" stroke-linecap="round"/>
<path d="M32.0599 14.9824C32.0599 15.0847 32.0599 15.1869 32.0599 15.2892C32.0599 15.4573 32.0351 15.6533 32.0783 15.8166C32.1449 16.068 32.3661 16.2713 32.5213 16.4596C32.6687 16.6384 32.8765 16.8408 32.9475 17.075C33.067 17.4687 32.8155 17.873 33.0265 18.2548C33.217 18.5997 33.466 18.9051 33.6606 19.2491C33.7974 19.4909 33.94 19.7125 34.1123 19.9251" stroke="black" stroke-width="0.519772" stroke-linecap="round"/>
<path d="M29.3757 14.7719C29.0814 14.7719 28.787 14.7719 28.4927 14.7719C28.3181 14.7719 28.1363 14.7868 27.9629 14.7622C27.7289 14.729 27.489 14.6221 27.2702 14.5325C27.0613 14.447 26.8447 14.3954 26.6349 14.3149C26.5733 14.2913 26.4562 14.2523 26.4078 14.2013C26.4038 14.197 26.4239 14.1861 26.4239 14.2327C26.4239 14.3743 26.3177 14.3985 26.2003 14.4358C25.7447 14.5804 25.3064 14.5978 24.8344 14.5978C24.4467 14.5978 24.077 14.5958 23.6991 14.4999C23.2664 14.3901 22.8035 14.3612 22.3608 14.3258C22.0985 14.3049 21.9105 14.2416 21.6555 14.3319C21.2082 14.4903 20.6375 14.6054 20.1647 14.518C19.9107 14.4711 19.6676 14.3476 19.4308 14.2448C19.1775 14.1349 18.9118 14.0463 18.6716 13.9064C18.504 13.8087 18.1555 13.6404 18.1555 13.6404C18.1555 13.6404 18.179 13.66 18.1716 13.667C18.1524 13.6852 18.1331 13.6846 18.1074 13.6888C17.9167 13.7197 17.7284 13.7664 17.5385 13.8024C17.1197 13.8818 16.6908 13.9792 16.2668 14.0176C15.8965 14.0511 15.4566 14.0757 15.1016 13.9426C14.8529 13.8494 14.6226 13.6884 14.3872 13.5643C14.1392 13.4336 13.8868 13.3118 13.6418 13.175C13.4938 13.0925 13.3932 12.9638 13.2346 12.9429C13.2167 12.9406 13.0431 12.8982 13.1303 12.9441" stroke="black" stroke-width="0.519772" stroke-linecap="round"/>
<path d="M13.0514 12.9255C12.8736 12.9255 12.6957 12.9255 12.5179 12.9255C12.4008 12.9255 12.2498 12.8966 12.1481 12.9661C11.9123 13.1273 11.5487 13.1287 11.2761 13.1287C10.9298 13.1287 10.6355 13.0362 10.3078 12.9458C10.1273 12.896 9.87659 12.8355 9.73283 12.7121C9.68866 12.6743 9.63075 12.6358 9.60618 12.5801C9.59499 12.5547 9.65632 12.557 9.67119 12.5462C9.88503 12.3916 10.2309 12.1384 10.2461 11.8474C10.2561 11.6576 10.1867 11.4851 10.1867 11.2999C10.1867 11.1978 10.1866 11.0358 10.3167 11.0358C10.5893 11.0358 10.865 11.1116 11.1349 11.1475C11.5571 11.2038 12.0305 11.3351 12.4372 11.1374C12.5886 11.0638 12.7265 10.9347 12.89 10.8936C13.1455 10.8292 13.4081 10.8684 13.6308 11.0019C13.8214 11.1162 14.01 11.2206 14.2349 11.2435C14.6143 11.2821 14.9924 11.239 15.3713 11.239" stroke="black" stroke-width="0.519772" stroke-linecap="round"/>
<path d="M19.4902 19.1011C19.1725 19.1011 18.8548 19.1011 18.5372 19.1011C18.107 19.1011 17.6942 19.1409 17.2664 19.189C16.5223 19.2726 15.7476 19.0809 15.0116 19.2669C14.6041 19.3699 14.2213 19.5849 13.8062 19.6624C13.4996 19.7196 13.1981 19.7134 12.8886 19.7134C12.4766 19.7134 12.0313 19.7506 11.627 19.6312C11.5234 19.6006 11.4072 19.5328 11.3185 19.4597C11.2946 19.44 11.2145 19.4073 11.2738 19.4073" stroke="black" stroke-width="0.519772" stroke-linecap="round"/>
<path d="M20.52 15.188C20.5118 15.2587 19.371 15.2102 19.1961 15.2102C18.9598 15.2102 18.7445 15.2075 18.5331 15.3358C18.3225 15.4637 18.16 15.662 17.9482 15.7856C17.7165 15.9209 17.4702 15.9292 17.223 16.0086C16.8472 16.1293 16.4428 16.1878 16.0568 16.2649C15.4475 16.3866 14.8332 16.4293 14.2345 16.6124C13.8469 16.7309 13.4603 16.8828 13.1006 17.0781C12.6971 17.2972 12.401 17.6161 12.0771 17.9443C11.8161 18.2089 11.4084 18.6541 11.0042 18.5099C10.8768 18.4644 10.7277 18.5028 10.6358 18.6072C10.5531 18.7014 10.4286 18.9096 10.4286 19.0471C10.4286 19.138 10.6027 19.2322 10.6669 19.2566C10.7895 19.3031 10.9195 19.2838 11.0457 19.3083C11.1807 19.3346 11.2328 19.4013 11.3196 19.5129" stroke="black" stroke-width="0.519772" stroke-linecap="round"/>
<path d="M17.4255 13.9526C17.4255 14.0681 17.4392 14.189 17.422 14.3038C17.4175 14.3339 17.3963 14.3636 17.381 14.3906C17.3478 14.4492 17.3082 14.5033 17.2644 14.5572C17.2097 14.6244 17.149 14.6873 17.0917 14.753C17.0752 14.7719 17.0624 14.7919 17.0624 14.7586C17.0624 14.6674 17.0566 14.576 17.0498 14.485C17.0406 14.3608 17.0361 14.2285 16.9716 14.1134C16.9439 14.0638 16.9022 14.0247 16.855 13.9869C16.8424 13.9769 16.8296 13.9664 16.8128 13.9619" stroke="black" stroke-width="0.519772" stroke-linecap="round"/>
<path d="M18.4604 14.006C18.4604 14.0447 18.4606 14.0835 18.4604 14.1222C18.46 14.194 18.4487 14.2549 18.4244 14.3226C18.4027 14.3833 18.3673 14.4388 18.3326 14.4929C18.3069 14.5331 18.2822 14.5756 18.2532 14.6135C18.1728 14.7188 18.0543 14.805 17.9424 14.8743C17.8852 14.9097 17.822 14.9375 17.7664 14.9749C17.7504 14.9856 17.7482 14.9867 17.7553 14.9662C17.8147 14.7944 17.841 14.5996 17.8347 14.4183C17.8312 14.3139 17.7775 14.2378 17.7211 14.1536C17.6819 14.0951 17.7024 13.9957 17.6366 13.9526" stroke="black" stroke-width="0.519772" stroke-linecap="round"/>
<path d="M16.1951 14.2072C16.1951 14.2691 16.1628 14.326 16.1373 14.3768C16.0876 14.4757 16.0356 14.5722 15.9879 14.6727C15.9758 14.6984 15.9657 14.7257 15.9529 14.7507C15.9446 14.7669 15.9352 14.7921 15.9261 14.7637C15.8989 14.6783 15.886 14.5855 15.8727 14.4954C15.8622 14.4245 15.8571 14.3509 15.8373 14.2827C15.831 14.261 15.8201 14.2393 15.8117 14.2184C15.8026 14.1957 15.7979 14.177 15.7831 14.1587" stroke="black" stroke-width="0.519772" stroke-linecap="round"/>
<path d="M15.1417 14.274C15.1501 14.2593 15.1605 14.2289 15.1622 14.2098C15.1631 14.2009 15.1679 14.1604 15.164 14.1807C15.1523 14.2423 15.1294 14.2996 15.1094 14.3552C15.0809 14.4345 15.0503 14.5122 15.0224 14.5919C15.0034 14.646 14.9886 14.7011 14.9639 14.7498C14.9591 14.7593 14.9545 14.7702 14.9476 14.7761C14.9391 14.7834 14.9212 14.6865 14.9195 14.678C14.8998 14.5811 14.8854 14.4816 14.8728 14.382C14.8628 14.3032 14.8539 14.2201 14.8359 14.1445C14.8251 14.0991 14.8047 14.0692 14.7906 14.0281C14.7793 13.995 14.784 13.9483 14.7536 13.953" stroke="black" stroke-width="0.519772" stroke-linecap="round"/>
<path d="M14.3416 13.7507C14.3272 13.7587 14.3335 13.8439 14.3324 13.8538C14.3201 13.9602 14.2917 14.0646 14.2607 14.1678C14.2273 14.2786 14.1674 14.37 14.1071 14.4698C14.0921 14.4947 14.078 14.5199 14.0626 14.5446C14.0595 14.5495 14.053 14.5703 14.0451 14.5707C14.0346 14.5712 14.0274 14.5413 14.0258 14.5369C13.9756 14.4013 13.9327 14.2636 13.8807 14.1284C13.8354 14.0106 13.7859 13.8942 13.7495 13.7738C13.7326 13.718 13.7198 13.6589 13.6942 13.6055C13.6812 13.5783 13.6595 13.5567 13.6427 13.5315C13.6277 13.5091 13.619 13.4847 13.6092 13.4603C13.5889 13.4093 13.5602 13.3725 13.5177 13.335" stroke="black" stroke-width="0.519772" stroke-linecap="round"/>
<path d="M13.3117 13.1846C13.3117 13.2516 13.3117 13.3185 13.3117 13.3855C13.3117 13.4425 13.3128 13.4999 13.3045 13.5564C13.2935 13.6315 13.27 13.7048 13.2482 13.777C13.217 13.8798 13.1762 13.9813 13.1329 14.0792C13.1222 14.1035 13.1132 14.1362 13.0943 14.1551C13.0918 14.1576 13.0875 14.161 13.085 14.1562C13.0817 14.1496 13.0814 14.1396 13.0795 14.1327C13.0719 14.1059 13.0606 14.0803 13.0498 14.0548C13.0022 13.9423 12.9543 13.83 12.9096 13.7161C12.8496 13.5637 12.7942 13.4095 12.7235 13.262C12.6762 13.1633 12.6272 13.0618 12.5525 12.983C12.5321 12.9615 12.5083 12.9444 12.4879 12.9229" stroke="black" stroke-width="0.519772" stroke-linecap="round"/>
<path d="M12.4703 12.9848C12.4703 12.6771 12.461 13.6 12.461 13.9076C12.461 14.1022 12.4642 14.294 12.4784 14.4881C12.4803 14.5129 12.4839 14.5372 12.4877 14.5618C12.4916 14.5874 12.4634 14.5493 12.4595 14.5452C12.2285 14.301 12.0533 14.0065 11.8924 13.7089C11.8265 13.5869 11.7484 13.461 11.701 13.3292C11.686 13.2873 11.6697 13.2567 11.6642 13.2107" stroke="black" stroke-width="0.519772" stroke-linecap="round"/>
<path d="M11.8676 13.8669C11.8676 13.9479 11.8676 14.0289 11.8676 14.1099C11.8676 14.1165 11.8739 14.151 11.8665 14.1562C11.8462 14.1707 11.7589 14.1198 11.7478 14.1141C11.6137 14.0453 11.5012 13.9503 11.4038 13.852C11.3433 13.7909 11.2888 13.7263 11.2411 13.6586C11.2093 13.6135 11.1867 13.5655 11.1594 13.5189C11.1305 13.4695 11.0971 13.4218 11.0679 13.3726C11.0605 13.3601 11.0506 13.3483 11.0463 13.335" stroke="black" stroke-width="0.519772" stroke-linecap="round"/>
<path d="M10.974 13.2327C10.974 13.3405 10.974 13.4482 10.974 13.556C10.974 13.6791 10.9684 13.8056 10.9901 13.927C11.002 13.9936 11.0188 14.0627 11.0389 14.1269C11.0484 14.1573 11.055 14.169 11.0194 14.1479C10.9121 14.0844 10.8164 13.9914 10.7218 13.9079C10.5349 13.7429 10.3715 13.5522 10.2247 13.3424C10.1563 13.2447 10.1163 13.1292 10.0585 13.0242C10.04 12.9905 10.0166 12.9638 10.0166 12.9229" stroke="black" stroke-width="0.519772" stroke-linecap="round"/>
<path d="M25.2568 14.7516C25.2367 14.9614 25.1674 15.1368 25.0773 15.3228C24.9697 15.5446 24.8364 15.7822 24.6742 15.9663C24.6004 16.05 24.5969 16.0101 24.5905 15.9169C24.5714 15.6387 24.5121 15.3728 24.4048 15.1177C24.3575 15.0053 24.2882 14.9028 24.2182 14.8092C24.1926 14.775 24.1545 14.7421 24.124 14.7104C24.0814 14.666 24.0829 14.5917 24.0211 14.5703" stroke="black" stroke-width="0.519772" stroke-linecap="round"/>
<path d="M24.0212 14.6606C24.0212 14.7621 23.9929 14.8642 23.9666 14.9623C23.9385 15.0671 23.8931 15.1605 23.8226 15.2481C23.7307 15.3624 23.6162 15.4635 23.5303 15.5814C23.5072 15.6131 23.4847 15.5979 23.4473 15.5841C23.3685 15.555 23.3041 15.5048 23.252 15.4453C23.149 15.3276 23.0801 15.181 23.0158 15.0444C22.9682 14.9435 22.9267 14.8393 22.8815 14.7392C22.8634 14.6993 22.8433 14.6605 22.8245 14.6208C22.8182 14.6076 22.8122 14.5893 22.8005 14.5789C22.7943 14.5734 22.7894 14.5773 22.7855 14.5703" stroke="black" stroke-width="0.519772" stroke-linecap="round"/>
<path d="M22.7854 14.3974C22.7854 14.5465 22.7854 14.6955 22.7854 14.8446C22.7854 14.959 22.7857 15.07 22.7596 15.1813C22.7292 15.3105 22.6911 15.4378 22.6573 15.5658C22.6404 15.6297 22.6229 15.6931 22.6119 15.7589C22.6093 15.7743 22.6061 15.816 22.5848 15.8038C22.5109 15.7614 22.4478 15.6564 22.3967 15.585C22.2907 15.4367 22.1967 15.2797 22.1069 15.1172C22.0324 14.9822 21.9532 14.8477 21.9111 14.6928C21.8906 14.6177 21.8623 14.5491 21.829 14.481C21.8222 14.4673 21.8183 14.4473 21.806 14.4387C21.8021 14.436 21.7967 14.4315 21.7948 14.4265C21.7863 14.404 21.7746 14.3755 21.7556 14.3643" stroke="black" stroke-width="0.519772" stroke-linecap="round"/>
<path d="M21.754 14.5703C21.754 14.7783 21.754 14.9864 21.754 15.1944C21.754 15.2435 21.754 15.2927 21.754 15.3418C21.754 15.3513 21.7614 15.3999 21.7443 15.3936C21.6377 15.3546 21.539 15.2661 21.4577 15.1932C21.3206 15.0704 21.2045 14.9267 21.0635 14.8081C21.0314 14.7811 20.9974 14.7499 20.9606 14.7286C20.9485 14.7216 20.9422 14.7184 20.9381 14.705C20.93 14.6782 20.9211 14.7058 20.9138 14.7177C20.8561 14.8122 20.8376 14.9185 20.8155 15.0246C20.7975 15.1112 20.7882 15.1983 20.7739 15.2854C20.7696 15.311 20.7629 15.3394 20.7629 15.3654C20.7629 15.3894 20.7247 15.3384 20.7234 15.3366C20.6402 15.2282 20.5778 15.1064 20.4934 14.9987C20.4551 14.9497 20.3994 14.9152 20.3619 14.8674C20.3482 14.8498 20.3373 14.8212 20.3139 14.8138" stroke="black" stroke-width="0.519772" stroke-linecap="round"/>
<path d="M20.314 14.7764C20.314 14.7764 20.2982 14.7764 20.108 14.7764" stroke="black" stroke-width="0.519772" stroke-linecap="round"/>
<path d="M15.989 16.1254C15.9823 16.0183 15.908 15.9076 15.8355 15.8229C15.7856 15.7646 15.7576 15.8744 15.7326 15.9135C15.6567 16.0321 15.5776 16.1497 15.5147 16.274C15.4847 16.3332 15.4211 16.2508 15.3954 16.2243C15.2953 16.1209 15.2101 16.0076 15.128 15.8933C15.1184 15.8798 15.1156 15.8699 15.1061 15.8874C15.0703 15.9538 15.0381 16.0217 15.0019 16.0881C14.9333 16.214 14.8778 16.349 14.8045 16.4724C14.7744 16.523 14.6983 16.3593 14.688 16.3421C14.6109 16.2141 14.5569 16.0772 14.4727 15.9519C14.415 15.866 14.4186 15.9908 14.4042 16.039C14.3599 16.1869 14.303 16.3427 14.2259 16.4806C14.2054 16.5174 14.208 16.5587 14.1615 16.5185C14.0536 16.4253 13.9323 16.3423 13.8174 16.2557C13.7873 16.233 13.6898 16.1561 13.6392 16.1686C13.6262 16.1718 13.6118 16.2317 13.609 16.2379C13.5327 16.4085 13.4629 16.5803 13.4061 16.7565C13.3798 16.8383 13.3449 16.9218 13.3266 17.0052C13.3227 17.0229 13.3293 17.0342 13.3115 17.0419" stroke="black" stroke-width="0.519772" stroke-linecap="round"/>
<path d="M12.8999 16.9881C12.8883 16.8677 12.8318 16.7487 12.7969 16.6347C12.7472 16.4717 12.7066 16.3072 12.6696 16.1407C12.6636 16.1139 12.6588 16.0321 12.6358 16.013C12.6331 16.0108 12.6294 16.0139 12.6278 16.0156C12.6105 16.0338 12.6019 16.0676 12.5948 16.0903C12.5424 16.2594 12.5143 16.4378 12.4741 16.6105C12.4416 16.7503 12.4082 16.8897 12.3723 17.0286C12.3549 17.0958 12.3418 17.1544 12.3418 17.2231C12.3418 17.3048 12.3194 17.3786 12.3044 17.4575C12.2914 17.5261 12.2874 17.5896 12.282 17.6599" stroke="black" stroke-width="0.519772" stroke-linecap="round"/>
<path d="M12.0762 17.635C12.0754 17.5682 12.0698 17.5018 12.0657 17.4352C12.0563 17.2867 12.0559 17.1298 12.021 16.9845C12.0103 16.9402 11.9846 16.8359 11.9225 16.8359C11.9129 16.8359 11.9095 16.8371 11.9051 16.8476C11.894 16.8745 11.888 16.9046 11.8812 16.9328C11.858 17.0295 11.8389 17.1272 11.8218 17.2252C11.7835 17.4454 11.7466 17.666 11.7093 17.8864C11.6907 17.9968 11.6708 18.1084 11.6573 18.2196C11.6542 18.2453 11.6524 18.2715 11.6458 18.2965C11.6439 18.3034 11.6365 18.2859 11.6326 18.28C11.5887 18.213 11.5447 18.1466 11.5054 18.0765C11.3902 17.8709 11.296 17.6546 11.1518 17.4677C11.1272 17.4359 11.1009 17.4051 11.0727 17.3768C11.0598 17.3639 11.0418 17.3428 11.0227 17.3389C11.0108 17.3364 11.0167 17.4184 11.0167 17.4228C11.0153 17.6305 11.0047 17.8382 11.0004 18.0459C10.9976 18.1812 10.9978 18.3165 10.9978 18.4519C10.9978 18.4587 10.9933 18.4868 11.0001 18.4925C11.0024 18.4943 11.003 18.5022 11.0001 18.4993C10.9906 18.4895 10.9816 18.4726 10.9736 18.4616C10.9454 18.4229 10.9207 18.3821 10.8961 18.3409C10.8093 18.1961 10.7251 18.0497 10.6457 17.9005C10.5726 17.7633 10.5093 17.6166 10.4144 17.4931C10.4071 17.4836 10.3884 17.4507 10.3734 17.4498C10.3707 17.4497 10.3693 17.4508 10.369 17.4536C10.3652 17.4828 10.367 17.5158 10.3663 17.5448C10.3586 17.8739 10.3519 18.2099 10.4037 18.5358C10.4038 18.5365 10.4102 18.5668 10.4034 18.5623C10.3528 18.5292 10.3114 18.47 10.2715 18.4254C10.1839 18.3274 10.0972 18.2287 10.0098 18.1306C9.97831 18.0953 9.93597 18.0351 9.88627 18.0258C9.86663 18.0222 9.85902 18.0223 9.85526 18.0434C9.82753 18.1992 9.83063 18.3652 9.82583 18.5228C9.82072 18.6907 9.82142 18.8587 9.81322 19.0265C9.812 19.0515 9.81059 19.0765 9.81059 19.1015" stroke="black" stroke-width="0.519772" stroke-linecap="round"/>
<path d="M19.2689 11.461C19.2689 11.2659 19.3226 10.9843 19.2303 10.8101C19.1219 10.6055 18.9842 10.3614 18.7397 10.2916C18.5672 10.2423 18.2795 10.2189 18.1122 10.2927C17.8483 10.4092 17.7943 10.7492 17.7306 10.9923C17.6573 11.2718 17.5369 11.4478 17.2248 11.4814" stroke="black" stroke-width="0.519772" stroke-linecap="round"/>
<path d="M18.7812 19.7192C18.7812 20.1239 18.7823 20.5044 19.0426 20.8377C19.1576 20.9851 19.3305 21.3988 19.5297 21.4236C19.8981 21.4695 19.5504 21.9359 19.4763 22.1279C18.6599 24.2421 18.5726 26.7517 18.4604 28.9868" stroke="black" stroke-width="0.519772" stroke-linecap="round"/>
<path d="M17.8428 21.7783C17.4243 21.7783 17.0443 22.108 16.7344 22.3713C16.4581 22.6061 16.2431 22.9158 15.9998 23.1876C15.6621 23.5647 15.2832 23.8984 14.9564 24.2864C14.4255 24.9167 13.8982 25.5537 13.4092 26.2224C13.1955 26.5145 13.0041 26.7607 12.6941 26.927" stroke="black" stroke-width="0.519772" stroke-linecap="round"/>
<path d="M33.2857 24.25C33.2857 24.8786 33.3144 25.5044 33.1911 26.1238C33.0349 26.9087 32.7675 27.7482 32.4615 28.4885C32.181 29.1673 32.1196 29.8747 31.911 30.5627C31.766 31.0409 31.6427 31.2614 31.2828 31.593C30.9807 31.8712 30.4824 32.4019 30.0499 32.4019C29.366 32.4019 28.718 32.5464 28.0436 32.6509C26.7986 32.8436 25.4861 32.8998 24.2269 32.8998" stroke="black" stroke-width="0.519772" stroke-linecap="round"/>
<path d="M31.2292 20.7485C30.7092 20.7485 30.3022 21.1329 29.9359 21.4808C29.5106 21.8847 29.1123 22.3049 28.7469 22.768C28.3922 23.2174 28.156 23.7395 27.8737 24.2382C27.2965 25.2578 26.8905 26.3954 26.6051 27.5391C26.4765 28.0539 26.2865 28.6555 26.2865 29.1924" stroke="black" stroke-width="0.519772" stroke-linecap="round"/>
<path d="M22.7854 16.8359C21.797 16.8359 20.8132 16.938 19.8341 17.0864C18.8481 17.2359 17.7983 17.2634 16.8327 17.5317C16.288 17.6831 15.7333 17.7208 15.2026 17.9368C14.8237 18.0911 14.4627 18.2675 14.0733 18.3821C13.821 18.4563 13.5647 18.6171 13.3 18.6171C13.1462 18.6171 13.0283 18.6193 12.8966 18.7006C12.6225 18.8699 12.179 18.781 11.8702 18.8954" stroke="black" stroke-width="0.519772" stroke-linecap="round"/>
<path d="M22.7854 17.1558C22.7854 17.0514 22.7854 16.947 22.7854 16.8426C22.7854 16.6487 22.6113 16.7785 22.487 16.8453C22.3744 16.9059 22.0289 17.2308 21.9094 17.2308C21.8986 17.2308 21.7319 16.9012 21.7123 16.8667C21.6438 16.7461 21.6102 16.6667 21.4796 16.7944C21.3561 16.9152 21.1854 16.9971 21.0361 17.0782C20.8838 17.161 20.9149 16.0522 20.4448 16.8694C20.4234 16.9067 20.2366 17.1723 20.2231 17.0595C20.2039 16.8998 20.0863 16.7652 20.015 16.6258C19.8951 16.3913 19.7503 16.9096 19.5578 16.9096C19.5007 16.9096 19.4628 16.1375 19.1883 16.5401C19.0849 16.6918 18.8655 17.0669 18.6955 17.1451C18.6758 17.1542 18.5376 16.6919 18.4984 16.6365C18.4172 16.5217 18.282 16.5782 18.2548 16.6981C18.2106 16.8927 18.0545 17.0094 17.9564 17.1773C17.9404 17.2047 17.8318 16.8339 17.7976 16.7703C17.7502 16.6823 17.4967 16.7179 17.4144 16.7222C17.2602 16.7301 17.1528 17.0891 17.0941 17.204C16.9789 17.4294 17.0271 17.3994 16.9462 17.2255C16.8763 17.075 16.9126 16.9631 16.6999 16.9631C16.5268 16.9631 16.5197 17.1104 16.4754 17.2549C16.462 17.2984 16.3026 17.605 16.2701 17.5413C16.2136 17.4309 16.1885 17.3331 16.0949 17.2415C16.0531 17.2007 15.9734 17.0648 15.9114 17.0648C15.8706 17.0648 15.7746 17.4119 15.7581 17.4476C15.7421 17.4824 15.5008 17.9178 15.4926 17.7823C15.4826 17.6156 15.4177 17.4881 15.3338 17.3486C15.0918 16.9462 14.7771 18.0252 14.7535 18.0714" stroke="black" stroke-width="0.519772" stroke-linecap="round"/>
<path d="M13.5178 28.8168C13.5178 29.6617 13.3852 27.126 13.1872 26.2967C13.0275 25.6278 12.8281 24.903 12.5636 24.2567C12.3482 23.7306 11.9661 23.3149 11.6468 22.8467C11.4602 22.5732 11.2687 22.2799 11.064 22.0113C10.948 21.8591 10.8355 21.6546 10.6346 21.5728" stroke="black" stroke-width="0.519772" stroke-linecap="round"/>
<path d="M10.4287 21.5728C9.71655 21.874 9.07228 22.346 8.36924 22.675C7.43733 23.111 6.51718 23.561 5.57235 23.9682C4.91917 24.2498 4.26264 24.6595 3.5926 24.8828C3.40553 24.9451 3.21359 25.0739 3.01462 25.0739" stroke="black" stroke-width="0.519772" stroke-linecap="round"/>
<path d="M3.01439 25.0735C3.01439 23.4707 3.83653 21.8419 4.70773 20.5721C5.18234 19.8803 5.6199 19.1318 6.21801 18.5471C6.3586 18.4097 6.66175 18.2615 6.72144 18.0713" stroke="black" stroke-width="0.519772" stroke-linecap="round"/>
<path d="M6.72462 18.0713C6.72462 18.5784 6.68979 19.079 6.85342 19.5672C6.92231 19.7727 6.93257 20.1263 6.94198 20.3426C6.95227 20.5795 7.077 20.7946 7.08688 21.022C7.10332 21.4004 7.23178 21.7545 7.23178 22.1336C7.23178 22.2837 7.41387 23.0587 7.30424 23.012" stroke="black" stroke-width="0.519772" stroke-linecap="round"/>
<path d="M2.60258 25.8975C2.75501 26.4616 3.0309 27.0203 3.10876 27.6049C3.21181 28.3786 3.44582 29.1998 3.63735 29.9593C3.93438 31.1372 4.22667 32.336 4.68173 33.4588C4.88058 33.9495 5.17845 34.6694 5.19751 35.2136C5.2149 35.7102 5.27854 36.3742 5.48584 36.8126" stroke="black" stroke-width="0.519772" stroke-linecap="round"/>
<path d="M5.48593 36.8127C5.63023 36.5301 5.95196 36.2863 6.19916 36.1269C6.66972 35.8236 7.12008 35.5142 7.5566 35.1558C8.23755 34.5967 8.99441 34.1673 9.66868 33.6041C9.8979 33.4126 10.1984 33.2211 10.4555 33.0735C10.6044 32.988 10.7253 32.8758 10.8697 32.7931C10.9461 32.7494 11.3179 32.5289 11.2424 32.4878" stroke="black" stroke-width="0.519772" stroke-linecap="round"/>
<path d="M2.60254 24.7742C2.50977 24.7639 2.47066 24.6671 2.37734 24.6619C2.29391 24.6573 2.27749 24.71 2.20845 24.7181C2.09328 24.7316 1.92206 24.8512 1.81436 24.899C1.67249 24.9618 1.55485 24.9835 1.42027 25.0674C1.2186 25.1931 1.64822 25.2439 1.70176 25.2795" stroke="black" stroke-width="0.519772" stroke-linecap="round"/>
<path d="M1.77867 25.4854C1.77867 25.9744 1.77266 26.4312 1.92221 26.9003C2.10538 27.4749 2.30215 28.0172 2.40898 28.6167C2.51122 29.1904 2.64397 29.768 2.79279 30.3263C2.9393 30.8759 2.98197 31.491 3.15475 32.0221C3.28394 32.4193 3.31245 32.8612 3.46367 33.2555C3.6165 33.654 3.75433 34.2429 3.80379 34.6773C3.84562 35.0447 4.00848 35.378 4.09398 35.7222C4.13161 35.8737 4.13685 36.3384 4.25 36.4005" stroke="black" stroke-width="0.519772" stroke-linecap="round"/>
<path d="M1.77885 24.8678C1.77885 24.2361 2.24248 23.6143 2.53582 23.0847C2.79429 22.6181 3.13613 22.1107 3.32853 21.6075C3.77366 20.4434 4.43205 19.5192 5.12513 18.521C5.3508 18.196 5.48808 17.7943 5.70017 17.454C5.82249 17.2577 5.9659 17.0745 6.07703 16.8631C6.10542 16.8091 6.22323 16.4882 6.22323 16.7032C6.22323 17.123 6.51562 18.343 6.51562 17.9232" stroke="black" stroke-width="0.519772" stroke-linecap="round"/>
<path d="M24.2271 32.8999C22.5287 32.8999 20.8815 33.1168 19.2021 33.4139C18.3369 33.567 17.428 33.5167 16.5511 33.5167C15.6178 33.5167 14.6797 33.6538 13.75 33.6538C13.4751 33.6538 12.4881 33.9075 12.4881 33.4482" stroke="black" stroke-width="0.519772" stroke-linecap="round"/>
<path d="M25.8745 28.7808C25.1174 28.7808 24.3602 28.7808 23.6031 28.7808C22.7745 28.7808 21.9539 29.0789 21.1335 29.2041C20.5121 29.2989 19.8804 29.4148 19.2649 29.5441C18.7365 29.6552 18.1228 29.905 17.5877 29.905C17.2572 29.905 16.8574 29.9573 16.5411 30.0612C16.2589 30.1539 15.8806 30.0616 15.62 30.1861C15.324 30.3275 14.9303 30.3499 14.613 30.4012C14.3209 30.4485 14.0293 30.4692 13.9296 30.1549" stroke="black" stroke-width="0.519772" stroke-linecap="round"/>
<path d="M13.5178 30.2228C13.5178 29.8142 13.486 29.5263 13.3131 29.1498C13.1062 28.6993 12.6937 28.1391 12.3189 27.8315C11.9217 27.5057 11.6919 27.0158 11.2141 26.8198C10.8692 26.6783 10.4979 26.4911 10.1581 26.3292C10.0413 26.2736 9.72341 26.3531 9.83322 26.3599C10.062 26.374 10.2451 26.5084 10.4051 26.6801C10.7117 27.0092 10.8313 27.4806 10.9444 27.9064C10.9827 28.0502 11.0608 28.6283 11.1784 28.6899" stroke="black" stroke-width="0.519772" stroke-linecap="round"/>
<path d="M11.2524 28.6204C11.082 28.5972 10.7048 28.1295 10.5432 28.0082C10.3075 27.8312 10.0784 27.5761 9.82743 27.4391C9.4154 27.2142 8.68422 27.4306 8.25727 27.4824C7.7101 27.5487 7.14399 27.5493 6.63433 27.7633C6.23143 27.9325 6.97281 27.8425 7.10604 27.8425C7.80259 27.8425 8.66212 27.8777 9.27985 28.2963C9.67371 28.5632 10.0911 28.9368 10.3024 29.3983" stroke="black" stroke-width="0.519772" stroke-linecap="round"/>
<path d="M10.2227 29.28C8.87407 29.28 7.29265 28.9541 6.0126 29.5628C5.76551 29.6803 5.96613 29.6149 6.14766 29.6149C6.87789 29.6149 7.59761 29.6371 8.32516 29.6781C8.91351 29.7114 9.60193 29.8054 10.1634 30.0167" stroke="black" stroke-width="0.519772" stroke-linecap="round"/>
<path d="M12.488 33.3115C12.1841 33.3115 11.8726 33.0244 11.632 32.8514C11.339 32.6406 11.041 32.3938 10.776 32.1459C10.1356 31.547 9.28501 31.2243 8.41449 31.1678C8.1584 31.1511 7.85428 31.1302 7.6011 31.178C7.56865 31.1841 7.27613 31.2563 7.35183 31.2121C7.60605 31.0635 7.84686 30.992 8.12259 30.8917C8.56156 30.7321 9.12283 30.7795 9.53619 30.5986C9.80308 30.4819 10.1757 30.5986 10.4217 30.4282" stroke="black" stroke-width="0.519772" stroke-linecap="round"/>
<path d="M18.2546 27.1333C18.0485 27.1547 17.8573 27.3248 17.6866 27.4343C17.4632 27.5776 17.2318 27.7194 17.0309 27.8938C16.8047 28.09 16.5504 28.2498 16.3296 28.4518C16.0642 28.6945 15.8335 28.975 15.5722 29.2228C15.1488 29.6243 14.739 30.0294 14.3414 30.4287" stroke="black" stroke-width="0.519772" stroke-linecap="round"/>
</svg>
