<svg width="36" height="38" viewBox="0 0 36 38" fill="none" xmlns="http://www.w3.org/2000/svg">
<rect x="-0.519772" y="0.519772" width="34.305" height="35.8643" rx="4.67795" transform="matrix(-1 0 0 1 34.6829 0.942871)" fill="white" stroke="#F32D12" stroke-width="1.03954"/>
<path d="M19.7474 6.15175C19.7474 5.80181 20.0736 5.40658 20.3001 5.16683C20.5034 4.95161 20.7514 4.76568 20.9909 4.59246C21.2156 4.42996 21.4614 4.31983 21.7409 4.29441C22.0398 4.26725 22.2671 4.30588 22.5048 4.49377C22.7024 4.64998 22.8666 4.84175 22.9627 5.07603C23.1248 5.47115 23.2439 5.9226 23.2825 6.34715" stroke="#F32D12" stroke-width="1.03954" stroke-linecap="round"/>
<path d="M15.9713 5.92665C15.9713 5.57672 15.6452 5.18148 15.4187 4.94173C15.2153 4.72652 14.9673 4.54058 14.7278 4.36736C14.5032 4.20486 14.2573 4.09473 13.9778 4.06932C13.679 4.04215 13.4517 4.08078 13.214 4.26867C13.0163 4.42489 12.8521 4.61665 12.756 4.85094C12.594 5.24605 12.4749 5.69751 12.4363 6.12206" stroke="#F32D12" stroke-width="1.03954" stroke-linecap="round"/>
<path d="M27.4481 21.9795C28.5497 21.9795 29.5875 22.6468 30.5201 23.1745C31.4287 23.6887 32.1944 24.2272 32.9341 24.9669C33.4783 25.511 34.0022 26.0769 34.5123 26.6507C34.5668 26.712 34.8998 27.1939 34.8352 27.1939" stroke="#F32D12" stroke-width="1.03954" stroke-linecap="round"/>
<path d="M6.96509 21.2861C6.51663 21.5277 6.05732 21.7585 5.63116 22.0391C5.4604 22.1515 5.30963 22.2893 5.1369 22.3989C4.93003 22.5303 4.72206 22.6512 4.50823 22.7704C3.95199 23.0804 3.42109 23.4906 2.93439 23.8991C2.37391 24.3695 1.88383 24.8937 1.54121 25.5408C1.42186 25.7663 1.30907 26.0112 1.21604 26.249C1.08975 26.5717 1.0651 26.9105 0.981911 27.2433" stroke="#F32D12" stroke-width="1.03954" stroke-linecap="round"/>
<path d="M22.4318 24.4463C22.4318 24.9173 22.4486 25.3917 22.4279 25.8622C22.3847 26.846 21.9408 27.8301 21.6552 28.7598C21.3771 29.6654 21.0703 30.5558 20.6701 31.4159C20.4289 31.9343 20.1536 32.5012 19.8317 32.9767C19.3995 33.6152 18.9558 34.2651 18.5896 34.9432C18.3611 35.3663 17.9665 35.6644 17.7029 36.0598" stroke="#F32D12" stroke-width="1.03954" stroke-linecap="round"/>
<path d="M12.0292 24.3325C12.0292 24.9137 11.9748 25.5221 12.0563 26.0981C12.1778 26.957 12.6282 27.7429 12.8646 28.5725C13.0245 29.1339 13.1322 29.6835 13.3567 30.2252C13.6181 30.8557 13.8876 31.4815 14.2237 32.0765C14.7133 32.9432 15.2357 33.8116 15.628 34.7271C15.7803 35.0824 15.9712 35.5633 15.9712 35.9553" stroke="#F32D12" stroke-width="1.03954" stroke-linecap="round"/>
<path d="M21.2014 27.1102C20.9874 27.1734 20.8068 27.2873 20.6261 27.4171C20.3845 27.5908 20.1405 27.7645 19.9085 27.951C19.8348 28.0103 19.7595 28.0779 19.7055 28.1559C19.6788 28.1945 19.6657 28.2139 19.6112 28.1963C19.5146 28.1652 19.4293 28.0751 19.3573 28.0097C19.1135 27.7885 18.876 27.5595 18.6367 27.3334C18.2584 26.9759 17.8905 26.5995 17.4871 26.2695C17.4494 26.2386 17.2913 26.0713 17.236 26.0713" stroke="#F32D12" stroke-width="1.03954" stroke-linecap="round"/>
<path d="M17.2361 26.0713C17.1956 26.0814 17.1608 26.1167 17.1303 26.1425C16.9877 26.2627 16.8499 26.3895 16.7137 26.5167C16.4382 26.774 16.1635 27.038 15.9047 27.3123C15.6643 27.567 15.3929 27.8335 15.1938 28.1223C15.1528 28.1816 15.1105 28.242 15.0754 28.3051C15.0429 28.3636 14.8807 28.2631 14.8542 28.2502C14.3475 28.0039 13.8848 27.674 13.4227 27.3546C13.152 27.1675 12.8654 27.0101 12.5781 26.8505" stroke="#F32D12" stroke-width="1.03954" stroke-linecap="round"/>
<path d="M19.1461 28.8357C18.3381 28.8357 17.5265 28.8549 16.7186 28.8344C16.3882 28.8261 16.0596 28.7715 15.7286 28.7647C15.5398 28.7608 14.9767 28.7734 15.1626 28.7396C15.5319 28.6725 15.9188 28.6936 16.2921 28.6936C16.6936 28.6936 17.0493 28.7109 17.44 28.8068C17.7051 28.8719 18.0083 28.9396 18.2812 28.9529C18.5041 28.9638 18.736 28.9905 18.946 29.0674C19.0912 29.1206 19.2734 29.1245 19.4067 29.1912" stroke="#F32D12" stroke-width="1.03954" stroke-linecap="round"/>
<path d="M19.454 28.9307C19.454 29.2028 19.4773 29.4845 19.404 29.7495C19.3101 30.0884 19.1372 30.4339 18.9643 30.7394C18.9024 30.8488 18.7555 31.2529 18.5878 31.2529C18.3682 31.2529 18.1437 31.3115 17.9243 31.3292C17.469 31.3659 17.0304 31.395 16.571 31.395C16.3437 31.395 16.1164 31.395 15.8891 31.395C15.814 31.395 15.7081 31.1759 15.6745 31.1199C15.4059 30.6721 15.3017 30.117 15.1769 29.6178C15.1537 29.5252 15.1266 29.2995 15.065 29.2203C14.8759 28.9772 15.4898 29.6666 15.6943 29.8969C15.8905 30.118 16.082 30.3388 16.2498 30.5828C16.3108 30.6716 16.4097 30.7779 16.442 30.8829C16.4555 30.9268 16.4105 30.9167 16.3867 30.9C16.2371 30.7956 16.1376 30.5968 16.0918 30.4261C15.965 29.9533 16.4973 29.8548 16.8554 29.8548C16.9489 29.8548 17.542 29.9776 17.2384 30.1484C17.0399 30.2601 16.346 30.3546 16.3077 30.0101C16.2641 29.6172 16.9431 29.5307 17.2095 29.552C17.5005 29.5753 17.7116 29.7082 17.8927 29.9338C17.9757 30.0372 18.093 30.2075 18.0691 30.3511C18.0383 30.5361 17.7264 30.5765 17.5847 30.592C17.257 30.6278 16.7444 30.6025 16.4867 30.3629C15.9785 29.8905 16.8098 29.5369 17.1976 29.4809C17.6383 29.4174 18.1327 29.4487 18.4153 29.8416C18.6238 30.1314 18.4891 30.5054 18.0967 30.434C17.6764 30.3576 17.3293 29.7106 17.7242 29.394C17.9296 29.2294 18.467 29.2129 18.6575 29.4085C18.9855 29.7454 18.4909 29.9533 18.2086 29.9864C17.8178 30.0323 17.4828 30.0169 17.1134 29.8785C16.8931 29.796 16.695 29.6771 16.4973 29.552C16.4395 29.5155 16.1768 29.3723 16.2129 29.2637C16.2484 29.1574 16.6599 29.2668 16.7132 29.3243C16.9324 29.561 16.6017 29.6264 16.4183 29.6126C16.3012 29.6037 16.161 29.5884 16.0708 29.5046C16.0396 29.4757 16.06 29.4757 16.0892 29.4757" stroke="#F32D12" stroke-width="1.03954" stroke-linecap="round"/>
<path d="M18.7402 32.3856C18.4477 32.3856 18.1442 32.3633 17.8526 32.3866C17.6886 32.3997 17.5342 32.4215 17.368 32.4215C17.2871 32.4215 17.1553 32.4373 17.0798 32.4664C16.9729 32.5075 16.8135 32.4867 16.6978 32.5073C16.5666 32.5306 16.4225 32.5067 16.2949 32.5432C16.1632 32.5808 15.9062 32.5001 15.8462 32.6489C15.7841 32.8027 15.7248 32.9764 15.6886 33.1395C15.6621 33.2586 15.5809 33.3313 15.5809 33.4627C15.5809 33.7612 15.6982 34.0679 15.8671 34.3123C15.9896 34.4896 16.1085 34.6683 16.2351 34.8429C16.2751 34.8981 16.3374 35.0073 16.3986 35.0423C16.458 35.0763 16.5321 35.1428 16.5642 35.2039C16.6209 35.3116 16.7216 35.4148 16.8414 35.4592C16.9325 35.4929 16.9972 35.5265 17.0927 35.4831C17.2499 35.4116 17.3881 35.2037 17.4896 35.0722C17.6708 34.8377 17.8633 34.6122 18.0501 34.3821C18.1622 34.2441 18.2856 34.0979 18.4281 33.9902C18.5575 33.8923 18.6819 33.7838 18.7761 33.6511C18.9019 33.4739 19.0479 33.3068 19.161 33.1216C19.2 33.0579 19.2408 32.9697 19.161 32.9241C19.0881 32.8824 19.0344 32.8164 18.9656 32.7725C18.8798 32.718 18.7498 32.7267 18.6504 32.7267C18.3938 32.7267 18.1558 32.7474 17.9125 32.8384C17.7349 32.9048 17.5638 32.9618 17.3939 33.0458C17.2631 33.1104 17.1293 33.1763 16.995 33.2333C16.7938 33.3186 16.6167 33.4537 16.5502 33.6741C16.4739 33.927 16.4663 34.3305 16.6789 34.5207C16.8315 34.6573 17.1514 34.6766 17.3221 34.5676C17.482 34.4654 17.6107 34.2995 17.737 34.1607C17.8306 34.0579 17.9249 33.9549 18.0032 33.8396C18.1251 33.6604 18.2513 33.5016 18.2176 33.2742C18.2046 33.1864 18.1232 33.0924 18.0282 33.1356C17.8139 33.2329 17.6522 33.5414 17.5555 33.7439C17.4533 33.9577 17.314 34.3279 17.0169 34.3063C16.8757 34.2961 16.7859 34.0881 16.7078 33.9912C16.6423 33.9101 16.5898 33.8327 16.5502 33.7359C16.5005 33.6143 16.4341 33.4904 16.3169 33.4267C16.2853 33.4096 16.2349 33.3907 16.2092 33.3649C16.1833 33.3391 16.1685 33.2987 16.1374 33.2831" stroke="#F32D12" stroke-width="1.03954" stroke-linecap="round"/>
<path fill-rule="evenodd" clip-rule="evenodd" d="M15.549 5.66754C16.1717 5.63449 16.8309 5.62109 17.5304 5.62109C18.5834 5.62109 19.5615 5.66583 20.47 5.77005L19.3376 6.71375C18.7694 6.67762 18.1679 6.66064 17.5304 6.66064C17.2506 6.66064 16.9792 6.66289 16.7158 6.66767L15.549 5.66754ZM12.2058 7.24055L13.0639 5.95347C9.18088 6.7161 7.00901 9.05149 5.0559 15.4968C3.3622 21.086 10.6409 25.3724 17.5304 25.3724C24.4199 25.3724 31.3044 20.9544 30.005 15.4968C28.6686 9.88411 26.4401 7.2766 22.8269 6.22678L23.1717 7.43331C23.8605 7.68712 24.4752 8.01054 25.0279 8.4137C26.7625 9.67904 28.0727 11.8692 28.9937 15.7375C29.5116 17.9128 28.4479 20.0008 26.2211 21.6449C23.9965 23.2874 20.7743 24.3329 17.5304 24.3329C14.2752 24.3329 10.9514 23.3141 8.68018 21.6857C6.41274 20.0601 5.38214 18.0047 6.05077 15.7982C7.33489 11.5607 8.64875 9.37392 10.2931 8.18534C10.8585 7.77671 11.4861 7.46874 12.2058 7.24055Z" fill="#F32D12"/>
<path d="M16.8999 6.11963C16.7938 6.11963 16.6876 6.11963 16.5815 6.11963C16.444 6.11963 16.3087 6.17348 16.1713 6.17348C16.12 6.17348 16.076 6.20676 16.0264 6.20937C16.0122 6.21012 15.9946 6.22303 15.9815 6.23031C15.9681 6.23779 15.9706 6.23233 15.9882 6.23364C16.0294 6.23669 16.0681 6.24527 16.1101 6.24527C16.216 6.24527 16.3279 6.25277 16.4319 6.23198C16.4811 6.22213 16.5297 6.21342 16.5798 6.20971C16.6793 6.20234 16.7771 6.175 16.876 6.16151" stroke="#F32D12" stroke-width="1.03954" stroke-linecap="round"/>
<path d="M19.8855 5.96973C19.8855 6.08195 19.7919 6.16099 19.7093 6.22234C19.6616 6.25778 19.6352 6.26888 19.577 6.26888C19.494 6.26888 19.4124 6.27486 19.3291 6.27486" stroke="#F32D12" stroke-width="1.03954" stroke-linecap="round"/>
<path d="M12.6396 5.93506C12.6396 6.04059 12.6304 6.12964 12.608 6.23253C12.586 6.33391 12.5306 6.46901 12.4596 6.54547C12.3841 6.62683 12.3239 6.66137 12.2283 6.71285C12.1785 6.73964 12.1179 6.75269 12.0644 6.77051C11.9242 6.81724 11.7945 6.88312 11.6776 6.97305" stroke="#F32D12" stroke-width="1.03954" stroke-linecap="round"/>
<path d="M23.5259 6.99854C23.4567 6.99854 23.3513 6.89554 23.3205 6.83398C23.2891 6.77116 23.2854 6.70134 23.2854 6.63145C23.2854 6.47395 23.2647 6.31897 23.2474 6.16309" stroke="#F32D12" stroke-width="1.03954" stroke-linecap="round"/>
<path d="M17.5306 11.3381C17.5306 13.0273 19.0088 14.4567 20.9091 14.4567C22.8093 14.4567 24.2876 13.0273 24.2876 11.3381C24.2876 9.64893 22.8093 8.21948 20.9091 8.21948C19.0088 8.21948 17.5306 9.64893 17.5306 11.3381Z" stroke="#F32D12" stroke-width="1.03954"/>
<path d="M10.7735 11.3381C10.7735 13.0273 12.2517 14.4567 14.152 14.4567C16.0523 14.4567 17.5305 13.0273 17.5305 11.3381C17.5305 9.64893 16.0523 8.21948 14.152 8.21948C12.2517 8.21948 10.7735 9.64893 10.7735 11.3381Z" stroke="#F32D12" stroke-width="1.03954"/>
<path d="M19.1308 10.7476C19.1612 10.7476 19.2339 10.731 19.2397 10.7721C19.2473 10.825 19.289 10.9381 19.2385 10.9777C19.1743 11.0282 19.0822 11.0449 19.0035 11.0292C18.9706 11.0226 18.8459 10.9594 18.8933 10.9067C18.9714 10.8199 19.1192 10.7986 19.2287 10.8161C19.3675 10.8383 19.485 11.028 19.3622 11.132C19.0525 11.394 18.7821 10.7569 19.1651 10.6496C19.382 10.5889 19.5985 10.7012 19.6327 10.9239C19.6693 11.1618 19.475 11.1442 19.285 11.1442" stroke="#F32D12" stroke-width="1.03954" stroke-linecap="round"/>
<path d="M15.7594 10.7475C15.9238 10.7475 15.7675 11.0464 15.5733 10.9765C15.425 10.9231 15.3407 10.7988 15.3407 10.6496C15.3407 10.5207 15.7043 10.5641 15.768 10.597C15.834 10.6311 16.0086 10.8224 15.921 10.9067C15.828 10.9963 15.6272 11.0431 15.4998 11.034C15.3626 11.0242 15.3425 10.7063 15.3407 10.6202C15.3385 10.5127 15.3789 10.489 15.4509 10.417" stroke="#F32D12" stroke-width="1.03954" stroke-linecap="round"/>
<path d="M15.4922 10.3367C15.5877 10.3367 15.6679 10.3127 15.7157 10.4112C15.7542 10.4905 15.7405 10.585 15.7405 10.6706C15.7405 10.7829 15.7721 10.9515 15.7253 11.0555C15.629 11.2695 15.3942 11.3377 15.1804 11.33C14.8719 11.319 14.7115 10.8911 14.8741 10.6471C15.0411 10.3966 15.4057 10.3495 15.6812 10.3629C15.9957 10.3783 16.194 10.5842 16.2317 10.8858C16.2442 10.9859 16.2512 11.1119 16.2317 11.2114C16.1995 11.3751 15.9988 11.3991 15.8633 11.4169C15.5533 11.4577 15.2884 11.3364 15.1252 11.0624C15.0214 10.8881 14.9899 10.5467 15.1197 10.3809C15.2425 10.224 15.5323 10.0889 15.7281 10.1905C15.9893 10.3259 16.2418 10.551 16.2813 10.8582C16.3136 11.1088 16.2744 11.3298 16.0247 11.4418C15.6749 11.5986 15.2609 11.6154 15.0949 11.2003C15.0341 11.0484 14.9664 10.8911 14.9969 10.723C15.0169 10.613 15.2772 10.4971 15.368 10.4857" stroke="#F32D12" stroke-width="1.03954" stroke-linecap="round"/>
<path d="M19.1676 11.0322C18.9938 11.0322 18.9842 11.0184 18.8945 10.8639C18.7519 10.6184 18.9477 10.4673 19.1663 10.399C19.5108 10.2913 19.6269 10.645 19.6781 10.908C19.7441 11.2473 19.7655 11.5516 19.3553 11.5978C19.1082 11.6257 18.8449 11.4863 18.7758 11.2309C18.7082 10.9808 18.7751 10.8039 18.9566 10.6225C19.3332 10.2458 19.866 10.7475 19.8119 11.1798C19.7891 11.3621 19.4314 11.4069 19.3028 11.4419C19.0319 11.5158 18.7924 11.5299 18.751 11.2143C18.7153 10.9419 18.7641 10.6917 18.8696 10.4417C18.9397 10.2758 19.1605 10.2885 19.3111 10.2872C19.5424 10.2852 19.7014 10.3137 19.8988 10.4362C20.1091 10.5667 20.3167 10.7841 20.2216 11.0556C20.1545 11.2475 19.9526 11.2874 19.8133 11.4047C19.674 11.522 19.298 11.4564 19.1428 11.4047" stroke="#F32D12" stroke-width="1.03954" stroke-linecap="round"/>
<path d="M24.7692 14.1626C24.5953 14.1626 24.5857 14.1487 24.496 13.9943C24.3535 13.7488 24.5493 13.5976 24.7678 13.5293C25.1123 13.4217 25.2285 13.7754 25.2796 14.0384C25.3456 14.3777 25.3671 14.682 24.9568 14.7282C24.7097 14.756 24.4464 14.6167 24.3774 14.3612C24.3098 14.1111 24.3767 13.9342 24.5581 13.7528C24.9348 13.3761 25.4675 13.8778 25.4135 14.3102C25.3907 14.4925 25.033 14.5372 24.9044 14.5723C24.6334 14.6462 24.394 14.6603 24.3526 14.3447C24.3168 14.0722 24.3656 13.8221 24.4712 13.5721C24.5413 13.4061 24.762 13.4189 24.9127 13.4176C25.1439 13.4155 25.303 13.4441 25.5004 13.5666C25.7107 13.6971 25.9183 13.9144 25.8232 14.186C25.7561 14.3779 25.5541 14.4178 25.4148 14.5351C25.2755 14.6524 24.8995 14.5868 24.7444 14.5351" stroke="#F32D12" stroke-width="1.03954" stroke-linecap="round"/>
<path d="M10.3451 14.1626C10.5189 14.1626 10.5285 14.1487 10.6182 13.9943C10.7607 13.7488 10.565 13.5976 10.3464 13.5293C10.0019 13.4217 9.88575 13.7754 9.83461 14.0384C9.76864 14.3777 9.74719 14.682 10.1574 14.7282C10.4045 14.756 10.6678 14.6167 10.7369 14.3612C10.8045 14.1111 10.7376 13.9342 10.5561 13.7528C10.1795 13.3761 9.64674 13.8778 9.70079 14.3102C9.72357 14.4925 10.0813 14.5372 10.2099 14.5723C10.4808 14.6462 10.7203 14.6603 10.7617 14.3447C10.7974 14.0722 10.7486 13.8221 10.6431 13.5721C10.573 13.4061 10.3522 13.4189 10.2016 13.4176C9.97033 13.4155 9.81128 13.4441 9.61387 13.5666C9.40358 13.6971 9.196 13.9144 9.29105 14.186C9.35819 14.3779 9.56013 14.4178 9.69941 14.5351C9.83873 14.6524 10.2147 14.5868 10.3699 14.5351" stroke="#F32D12" stroke-width="1.03954" stroke-linecap="round"/>
<path d="M17.5571 13.6343C17.3501 13.6343 16.7292 13.6343 16.9362 13.6343C17.1427 13.6343 17.3491 13.6343 17.5556 13.6343C17.614 13.6343 18.0343 13.6453 18.043 13.7153C18.0655 13.8954 17.9253 13.9885 17.815 14.1472C17.7446 14.2487 17.6732 14.3609 17.6171 14.4711C17.585 14.5341 17.568 14.6192 17.5166 14.6706C17.4908 14.6964 17.2414 14.3046 17.2001 14.2552C17.0839 14.1156 17.0083 13.9526 16.8972 13.8097C16.8586 13.7601 16.8012 13.727 16.8012 13.6613" stroke="#F32D12" stroke-width="1.03954" stroke-linecap="round"/>
<path d="M19.3973 15.1289C19.5976 15.1593 19.6421 15.1709 19.6696 15.3563C19.6938 15.5196 19.7101 15.7829 19.6457 15.9359C19.4784 16.3333 18.9851 16.4931 18.5903 16.4931C18.215 16.4931 17.9284 16.347 17.831 15.9626C17.7629 15.6942 17.7527 15.413 17.8562 15.1542" stroke="#F32D12" stroke-width="1.03954" stroke-linecap="round"/>
<path d="M17.5281 15.1541C17.5281 14.9876 17.5308 15.4872 17.5281 15.6538C17.5224 16.0114 17.1651 16.2327 16.8741 16.3555C16.3287 16.5858 15.8521 16.5737 15.3724 16.2025C14.942 15.8696 14.8002 15.2044 15.3555 14.9268" stroke="#F32D12" stroke-width="1.03954" stroke-linecap="round"/>
<path d="M16.6583 16.7085C16.6583 17.7332 16.5088 18.9136 17.1837 19.7753C17.4462 20.1105 17.9688 20.1775 18.3329 19.9559C18.7288 19.7149 18.7717 19.2927 18.7993 18.8657C18.8336 18.3332 18.8039 17.7886 18.8039 17.2547C18.8039 17.0827 18.8604 16.7931 18.7622 16.646" stroke="#F32D12" stroke-width="1.03954" stroke-linecap="round"/>
<path d="M26.6349 13.0249C27.5323 12.8753 28.4353 12.1871 29.3015 11.8999C30.5759 11.4774 31.8698 11.4312 33.1973 11.4312" stroke="#F32D12" stroke-width="1.03954" stroke-linecap="round"/>
<path d="M27.8536 15.4619C29.5231 15.4619 30.9354 15.5106 32.541 16.0244" stroke="#F32D12" stroke-width="1.03954" stroke-linecap="round"/>
<path d="M9.0105 11.5248C7.94111 10.3625 6.98589 8.83904 5.35433 8.43115" stroke="#F32D12" stroke-width="1.03954" stroke-linecap="round"/>
<path d="M7.97925 13.6812L2.4572 13.4176" stroke="#F32D12" stroke-width="1.03954" stroke-linecap="round"/>
<path d="M27.3278 22.5014C27.0748 22.5435 26.814 22.9124 26.6077 23.0812C26.3897 23.2596 26.1599 23.3854 25.9634 23.5929C25.3885 24.1997 24.4875 24.5725 23.6969 24.836C23.4845 24.9068 23.277 24.9744 23.064 25.0217C22.7175 25.0987 23.343 24.7374 23.424 24.6844C23.8369 24.4145 24.2873 24.296 24.7771 24.169C25.1868 24.0628 25.6537 24.1035 26.0468 23.9871C26.2835 23.9169 26.4159 23.7147 26.6115 23.5626C26.9937 23.2653 27.3368 23.2518 27.8054 23.2518C28.3042 23.2518 28.6313 23.3961 29.1016 23.5398C29.574 23.6842 30.0985 24.0425 30.538 24.2751C31.1089 24.5774 31.6105 24.99 32.1336 25.3666C32.7186 25.7879 33.0918 26.4804 33.6383 26.9054C33.8021 27.0328 33.9375 27.1629 34.0286 27.3451C34.1166 27.5211 34.2501 28.1003 34.1878 27.9136C34.0364 27.4593 33.5233 26.9626 33.2403 26.5833C32.9317 26.1696 32.6004 25.7763 32.2435 25.4045C31.7332 24.873 31.1286 24.3487 30.466 24.0174C29.6036 23.5862 28.6957 23.4674 27.8054 23.1495C27.5869 23.0714 27.5325 22.9303 27.5325 22.706C27.5325 22.6318 27.704 22.8168 27.7447 22.8538C28.135 23.2086 28.5514 23.5471 28.931 23.9113C30.2319 25.159 31.1542 26.8336 32.2473 28.2547C32.469 28.5429 32.6895 28.9388 32.9523 29.187C33.4856 29.6908 32.2284 27.9082 31.8077 27.3072C31.2272 26.478 30.6852 25.615 30.1741 24.7413C30.1058 24.6244 29.6558 24.0402 29.9922 24.0894C31.5543 24.318 32.5541 26.0345 33.1797 27.3147C33.2772 27.5143 33.3434 27.7194 33.4298 27.9211C33.5949 28.3062 32.824 27.3412 32.5429 27.0305C32.1647 26.6124 31.7409 26.1498 31.4666 25.6509C31.258 25.2717 32.2422 26.4418 32.2511 26.4544C32.8032 27.2312 33.294 28.0419 33.6951 28.9066C33.841 29.221 33.9352 29.4419 33.6117 28.9975C32.895 28.013 32.1834 27.0252 31.4552 26.0489C31.097 25.5686 30.7567 25.0739 30.394 24.5973C30.1465 24.272 30.2851 24.6871 30.3333 24.8209C30.8371 26.2186 31.6136 27.5296 32.2094 28.8914C32.4207 29.3745 32.6406 29.8524 32.8765 30.324C32.9305 30.4322 33.1153 30.741 33.0356 30.65C32.1947 29.6889 31.3009 28.7752 30.466 27.8074C30.1316 27.4199 29.8133 27.0225 29.5109 26.6098C29.429 26.498 29.2602 26.3332 29.238 26.1853C29.2251 26.0993 29.3198 26.203 29.3252 26.208C29.7484 26.6056 30.1432 27.039 30.5228 27.4777C31.2699 28.341 31.9848 29.2214 32.6377 30.1573C32.6799 30.2178 33.0552 30.7212 32.831 30.3771C31.7637 28.7394 30.7305 27.0863 29.7459 25.397C29.5107 24.9934 29.2757 24.5927 29.0182 24.2031C28.9589 24.1134 28.768 23.9049 28.768 23.7748C28.768 23.6128 28.9768 24.0234 29.0674 24.1576C29.494 24.7892 29.9115 25.4271 30.3182 26.0716C30.9618 27.0917 31.6237 28.1486 32.0616 29.278C32.1858 29.5982 32.1003 29.5782 31.8607 29.3386C31.3597 28.8376 30.9393 28.2601 30.538 27.6786C29.8761 26.7195 29.2389 25.723 28.7074 24.6844C28.6925 24.6553 28.4402 24.1635 28.5255 24.2599C28.8573 24.635 29.1694 25.0334 29.4578 25.4424C30.0809 26.3261 30.7055 27.271 31.1292 28.2698C31.3168 28.7118 31.5039 29.1569 30.9701 28.5503C30.1981 27.6731 29.4907 26.7359 28.859 25.7532C28.736 25.5619 27.9975 24.3731 28.6164 25.162C29.3136 26.0505 29.9329 27.1156 30.466 28.1106C30.4751 28.1277 30.8563 28.8953 30.7843 28.8914C30.4569 28.8737 29.9318 28.0464 29.7762 27.8529C28.9408 26.8146 28.2343 25.7059 27.5855 24.5442C27.4333 24.2716 26.9263 23.726 27.5287 23.8544C28.2711 24.0126 28.9061 24.6398 29.3441 25.2302C29.4083 25.3167 30.0103 26.0477 29.905 26.1853C29.6303 26.5446 28.4488 25.5256 28.3019 25.4008C28.1279 25.2529 27.0063 24.4107 27.1383 24.0477C27.2409 23.7656 28.3697 24.2026 28.5103 24.2865C28.9882 24.5715 29.5048 25.2726 29.3138 25.8556C28.8379 27.3082 26.293 26.6924 26.0847 25.3287C26.0373 25.0186 26.1476 24.836 26.494 24.836C27.2425 24.836 27.6054 25.4084 27.6575 26.0943C27.7132 26.8268 27.6368 27.6897 27.0246 28.1864C26.1929 28.8613 25.4921 28.3286 25.2812 27.4133C25.1129 26.683 24.7637 24.5932 26.2211 25.0559C27.06 25.3222 26.8667 27.6868 26.2059 27.3451C25.7702 27.1197 25.7656 26.1329 25.7587 25.7229C25.7509 25.2568 25.7 24.8784 26.259 24.836C27.4039 24.7493 27.6412 26.9218 26.964 27.5042C26.4685 27.9303 25.5961 28.0586 25.0992 27.5725C24.6743 27.1567 24.6361 26.1547 24.8112 25.6168C24.8791 25.4083 25.0085 25.2058 25.213 25.1089C25.4499 24.9967 25.3285 25.4856 25.3191 25.5561C25.2087 26.3841 24.8788 27.1 24.4474 27.8112C24.3395 27.9891 23.9612 28.5953 23.7159 28.2395C23.2628 27.5826 23.371 26.4126 23.371 25.6395C23.371 25.5031 23.371 25.3666 23.371 25.2302C23.371 24.8466 23.7621 25.4132 23.8864 25.5258C24.1699 25.7826 24.4217 25.9847 24.5611 26.3521C24.7106 26.7464 24.6557 26.7273 24.671 26.2763C24.6838 25.8978 24.7317 25.494 24.8188 25.1241C24.9063 24.7523 24.4799 25.8087 24.3033 26.1474C24.1094 26.5194 24.0455 26.9195 23.8826 27.2996C23.7543 27.599 23.7803 26.9316 23.7803 26.8675C23.7803 26.5605 23.7803 26.2535 23.7803 25.9465C23.7803 25.692 23.6658 26.6534 23.6363 26.7765C23.5109 27.2992 23.3449 27.8357 23.1512 28.3381C23.1428 28.3597 22.9383 28.7497 22.9086 28.6792C22.8195 28.4675 23.0364 26.7462 23.2004 26.7462C23.2816 26.7462 22.897 27.8665 22.8783 27.9211C22.5805 28.7901 22.3505 29.6786 22.0899 30.559C21.9945 30.8817 21.9613 31.3243 21.7488 31.5899C21.4686 31.9402 22.176 30.7991 22.3477 30.3847C22.6491 29.657 22.9329 28.9052 23.1284 28.141C23.1742 27.9619 23.3005 27.4663 23.1891 27.9628C22.9241 29.1431 22.6479 30.3234 22.3628 31.499C22.11 32.5415 21.9116 33.6406 21.5063 34.6371C21.1055 35.6223 22.3586 32.6674 22.5447 31.6202C22.5606 31.5309 22.7471 30.8607 22.6092 31.0934C22.1548 31.8601 21.872 32.7463 21.4646 33.5418C21.2603 33.9406 21.0561 34.4178 20.7255 34.7357C20.6371 34.8207 21.0068 33.6515 21.0666 33.5077C21.3399 32.8511 21.558 32.1684 21.8625 31.5255C22.0966 31.0314 21.8833 31.5784 21.7943 31.7605C21.156 33.0662 20.5145 34.3736 19.7704 35.6226C19.2005 36.5791 20.4989 33.5172 20.915 32.4844C20.9921 32.2929 21.6313 30.8085 21.1121 31.6581C20.5956 32.5033 20.1063 33.3828 19.7022 34.2885C19.3704 35.0322 18.9023 35.7005 18.1483 36.0433C17.7225 36.2368 17.0394 36.0208 16.5868 36.0812C16.2174 36.1304 15.8652 36.1456 15.4876 36.1456C14.8582 36.1456 15.8769 36.1456 16.041 36.1456C17.5146 36.1456 19.0083 36.2084 20.4716 36.0812C21.3473 36.005 22.2245 35.8727 23.1057 35.8727C23.7372 35.8727 24.3219 35.8399 24.9439 35.7363C25.3588 35.6671 25.8221 35.5484 26.2211 35.4103C26.5444 35.2984 26.8771 35.3035 27.2141 35.2435C27.656 35.165 28.0938 35.0688 28.5255 34.9479C28.9787 34.821 29.4658 34.4223 29.9202 34.3718C30.0965 34.3522 29.9202 34.0183 29.9202 33.9284C29.9202 33.8241 30.1851 33.7505 30.2916 33.6896C30.9878 33.2918 31.2174 32.6572 31.1406 31.8704C31.0339 30.7767 30.1656 30.0784 29.7459 29.134C29.5458 28.6839 30.245 29.2294 30.3295 29.3538C30.7985 30.0443 30.8181 31.0552 30.7085 31.8552C30.6605 32.2063 30.3876 32.9137 29.9202 32.8748C29.1775 32.8129 29.3062 30.7895 29.3062 30.324C29.3062 29.9031 29.1782 29.0653 29.7155 28.8762C30.356 28.6509 30.4738 29.9964 30.5039 30.3316C30.5828 31.2119 30.6762 32.4821 30.1666 33.2576C29.9358 33.6087 29.4768 33.9251 29.0371 33.8602C28.3632 33.7606 28.0829 32.9317 27.9342 32.3783C27.5882 31.0899 27.3204 29.2939 27.9759 28.0538C28.1911 27.6467 28.6365 27.0555 28.9727 27.6748C29.5635 28.7631 29.4683 30.4066 29.2986 31.5899C29.2255 32.0999 28.9169 33.5785 28.2147 33.6972C27.6025 33.8007 27.762 31.0588 27.794 30.7144C27.8606 29.997 28.0462 29.2651 28.2412 28.573C28.3205 28.2917 28.4157 27.9339 28.6202 27.7089C28.8613 27.4437 29.0961 27.7971 29.1698 28.0121C29.6363 29.3743 29.4088 31.1864 29.094 32.5526C29.0348 32.8093 28.4916 34.2822 28.2147 33.4243C27.9813 32.7012 28.0122 31.8687 28.01 31.12C28.008 30.4089 28.0361 29.7007 28.1465 28.9975C28.1749 28.8166 28.2892 27.6478 28.6619 27.6975C29.1305 27.76 29.0247 29.0076 29.0295 29.2818C29.0479 30.3293 29.0237 31.4281 28.6088 32.4086C28.4129 32.8717 27.756 33.8269 27.3051 33.0377C26.803 32.159 27.0389 30.9568 27.4377 30.0966C27.6595 29.6182 28.0516 28.7573 28.552 28.4821C29.0271 28.2207 28.9602 29.9102 28.9613 29.9981C28.9778 31.2615 28.9144 32.5532 28.5217 33.7654C28.363 34.2554 28.189 34.5182 28.0934 33.8261C27.9261 32.6149 28.0698 31.2927 28.6013 30.18C28.977 29.3934 29.5715 29.289 29.5715 30.2824C29.5715 31.0017 29.1031 31.6143 28.5785 32.0675C28.4343 32.1921 27.3938 32.8339 27.2747 32.4768C26.9819 31.5984 27.8244 30.5422 28.336 29.9299C28.7958 29.3794 29.269 28.9371 30.0188 28.9293C30.6346 28.9229 30.5413 30.1197 30.5266 30.4946C30.4883 31.471 30.157 32.4832 29.3024 33.0529C28.8874 33.3296 28.2636 33.4586 27.7675 33.4016C27.1262 33.3279 27.5197 32.644 27.7902 32.3707C28.5131 31.6401 30.1292 31.4548 29.9771 32.8748C29.8744 33.8331 28.8389 34.1836 27.9986 34.243C27.0294 34.3115 26.4778 33.6245 26.5357 32.689C26.6026 31.6067 27.4167 30.8886 28.4042 30.5742C28.9814 30.3904 30.0051 30.4426 30.3295 31.0517C31.4032 33.0673 27.4424 34.116 26.2931 32.9127C25.4231 32.0017 25.4011 30.8631 25.9937 29.8238C26.3777 29.1502 27.0034 28.5209 27.8054 28.3987C28.3989 28.3082 28.5745 28.8594 28.4572 29.3614C28.2678 30.1723 27.3116 30.2176 26.7517 29.8086C26.3403 29.5081 26.0907 28.897 26.1756 28.3873C26.193 28.2828 26.3024 28.2131 26.4068 28.2585C26.6456 28.3623 26.6528 28.843 26.6721 29.043C26.7545 29.8943 26.8896 31.0474 26.6153 31.8704C26.5847 31.9621 26.2824 32.7673 26.0998 32.4237C25.7647 31.7929 25.8839 30.8176 25.899 30.1345C25.9065 29.7903 25.9299 29.4456 25.9975 29.1074C25.9989 29.1006 26.0857 28.6907 26.1301 28.9066C26.2221 29.353 26.168 29.857 26.168 30.3089C26.168 30.8273 26.1865 31.3522 26.0581 31.859C26.0037 32.0737 25.8494 32.8352 25.5844 32.9316C25.2923 33.0378 25.2989 31.2074 25.2963 31.1124C25.2703 30.1332 25.3237 29.1694 25.3494 28.194C25.3875 26.7478 25.5097 31.1051 25.2812 32.5337C25.2374 32.807 25.2126 31.8713 25.213 31.8401C25.224 30.8154 25.4182 29.8183 25.501 28.8004C25.5029 28.7767 25.5279 28.3999 25.5237 28.4063C25.3526 28.6674 25.2486 29.0153 25.1296 29.3007C24.7288 30.2615 24.4709 31.2619 24.1745 32.257C23.9238 33.0985 24.0846 31.4793 24.0987 31.317C24.1883 30.2828 24.3137 29.2177 24.4928 28.194C24.5698 27.7543 24.4589 28.1102 24.364 28.3305C23.9861 29.2074 23.5792 30.0746 23.3028 30.9911C23.2425 31.1908 23.0981 31.7909 23.0981 31.5823C23.0981 30.7777 23.2612 29.9824 23.3634 29.187C23.4052 28.8617 23.4269 28.5338 23.4733 28.2092C23.4977 28.0387 23.5074 27.9595 23.5074 28.2243C23.5074 29.6703 23.3328 31.0994 23.2042 32.5374C23.1544 33.0947 23.0522 33.6619 23.0299 34.2202C23.0267 34.2991 23.0427 34.0623 23.0602 33.9852C23.1502 33.5885 23.3563 33.2194 23.606 32.9013C24.8487 31.3177 27.0452 31.3014 28.4421 32.6625C28.7424 32.9551 28.8784 33.1992 28.4193 33.3788C27.0651 33.9088 25.503 34.083 24.0608 34.152C23.6569 34.1713 23.2521 34.1672 22.848 34.1672C22.7695 34.1672 22.5419 34.1854 22.613 34.152C22.7749 34.0758 23.0065 34.0999 23.1739 34.0989C23.8207 34.0953 24.4676 34.0989 25.1144 34.0989C25.6698 34.0989 26.4296 33.9644 26.9715 34.1368C27.1016 34.1782 27.115 34.2211 26.9564 34.243C26.2328 34.3428 25.5027 34.3989 24.7771 34.4817C23.4543 34.6327 22.1395 34.8304 20.8316 35.0768C19.9726 35.2386 20.9008 35.0794 21.2182 34.9707C22.695 34.4648 24.2168 33.8064 25.8156 33.9663C27.2457 34.1093 22.9617 34.3476 21.5631 34.6788C20.0027 35.0484 24.7739 34.5859 26.3651 34.387C26.7321 34.3411 27.3458 34.1871 27.7182 34.3112C27.8865 34.3673 27.4298 34.5264 27.2634 34.5879C26.5823 34.8396 25.8712 35.0199 25.175 35.2246C24.1295 35.5321 23.0902 35.7754 22.0141 35.9409C21.9566 35.9498 21.2761 36.0091 21.6427 36.0091C22.3471 36.0091 23.0464 35.9921 23.75 35.9561C23.9904 35.9438 25.0208 36.0252 25.1978 35.7893C25.3173 35.6299 24.1369 35.1771 24.0797 35.1526C23.4409 34.8788 22.8341 34.5348 22.1923 34.2733C21.8507 34.1341 22.3225 34.0587 22.4917 33.9928C23.1953 33.7188 23.9188 33.5106 24.6369 33.2803C24.8898 33.1992 25.108 33.1439 25.3721 33.1439C25.8268 33.1439 24.4564 33.1139 24.0153 33.0036C23.9565 32.9889 22.9786 32.6283 23.3255 32.5337C23.9234 32.3706 24.7098 32.4162 25.3191 32.4692C25.4305 32.4789 26.0749 32.6176 25.8118 32.7952C25.3034 33.1383 24.6184 33.2783 24.0456 33.4622C23.2404 33.7207 22.4383 33.9903 21.62 34.2051C21.2441 34.3037 20.1057 34.5083 20.4943 34.5083C21.1374 34.5083 21.7804 34.5083 22.4235 34.5083C23.7829 34.5083 25.1118 34.5977 26.4713 34.5765C27.1488 34.5659 27.7843 34.3978 28.4307 34.2089C28.8357 34.0905 29.2089 34.1159 29.4123 33.701C29.8251 32.859 30.0493 31.9863 30.4129 31.1351C30.8839 30.0325 31.9882 29.6955 33.119 29.8086C33.3592 29.8326 33.6463 29.975 33.8012 30.1687C33.885 30.2733 33.689 29.9251 33.6383 29.801C33.4575 29.3592 33.4427 28.7034 33.7406 28.3153C33.8163 28.2166 33.8801 28.0741 33.9794 27.9969C34.0661 27.9295 34.2172 27.9431 34.2864 27.8567C34.3844 27.7341 34.4898 28.1861 34.491 28.2319C34.5089 28.8771 34.5277 29.5321 34.3546 30.1573C34.1278 30.9761 34.0771 31.7988 33.9111 32.6284C33.8483 32.9428 33.8088 33.2408 33.8088 33.5608C33.8088 33.8132 33.8088 33.6828 33.8088 33.5153C33.8088 33.2678 33.6499 32.1057 33.8467 31.9651C33.9179 31.9143 34.2864 33.4518 34.2864 33.6479C34.2864 34.331 34.491 32.292 34.491 31.6089C34.491 31.441 34.4453 30.9719 34.3394 30.8395C34.2063 30.6731 33.9014 30.2665 33.6724 30.2786C33.3291 30.2966 33.0823 31.4898 33.0622 31.7415C33.0533 31.8525 33.1087 32.1651 33.0432 32.0751C32.9243 31.9115 32.9145 31.4922 32.8689 31.2867C32.8121 31.0311 32.8183 31.054 32.884 31.2981C33.0081 31.7589 32.53 31.4344 32.3345 31.2753C31.992 30.9967 31.2324 30.2981 31.1975 29.8086C31.1884 29.6813 31.46 29.8622 31.5537 29.9488C31.9957 30.3574 32.3673 30.8476 32.7097 31.3398C33.2372 32.098 33.7487 32.8717 34.1348 33.7124C34.2158 33.8889 34.4373 34.2636 34.0514 34.1217C33.3781 33.8742 32.8215 33.2186 32.4823 32.6019C32.1978 32.0846 32.6986 32.1087 33.0735 32.3555C33.3938 32.5663 33.6675 32.8994 33.7937 33.2651C33.8911 33.5478 33.1479 33.3935 33.0432 33.3713C32.4579 33.2471 31.9567 32.9459 31.5992 32.4692C31.5565 32.4123 31.1586 31.9454 31.3642 31.9197C32.1472 31.8218 32.8702 32.782 33.2479 33.3485C33.3071 33.4374 33.4041 33.7506 33.3199 33.8488C33.1943 33.9953 32.4371 33.1379 32.3534 33.0491C32.3108 33.0039 31.8431 32.401 31.9365 32.401C32.1131 32.401 32.0614 32.5072 31.9024 32.2191C31.7824 32.0016 31.4239 31.2194 31.9138 31.6885C32.6493 32.3927 33.4194 33.1072 33.8391 34.061C33.9891 34.402 34.044 34.5221 33.877 34.8873C33.6949 35.2858 33.09 34.8354 32.8537 34.6599C32.464 34.3703 32.1906 33.9223 31.838 33.5949C31.554 33.3312 31.7572 33.4394 31.9668 33.5532C32.4872 33.8357 33.138 34.6447 33.2668 35.2246C33.2989 35.3689 33.4396 35.5998 33.1948 35.5998C32.5637 35.5998 32.0948 35.4075 31.694 34.9176C31.5826 34.7815 30.1334 32.9072 30.466 32.7497C30.6766 32.6499 31.355 32.6787 31.4211 32.943C31.5213 33.3438 31.4893 33.7559 31.4893 34.1672C31.4893 34.5892 31.605 34.9267 31.694 35.3269C31.768 35.6601 31.9511 35.6624 32.2056 35.8386C32.393 35.9683 32.5755 36.1073 32.7021 36.2972C32.7135 36.3143 31.8066 36.3502 31.7015 36.3502C30.7666 36.3502 30.3966 36.1883 30.1931 35.1829C30.1665 35.0514 29.8791 34.2354 30.159 34.2354C30.3913 34.2354 30.5733 34.3148 30.6555 34.5613C30.7842 34.9476 30.8071 35.494 30.8071 35.9068C30.8071 36.0017 30.914 36.2761 30.8071 36.282C30.6027 36.2934 30.3941 36.282 30.1893 36.282C29.7323 36.282 29.1105 36.3953 28.6771 36.2669C28.183 36.1205 27.5397 36.2138 27.0246 36.2138C26.4207 36.2138 25.8168 36.2138 25.213 36.2138C23.8368 36.2138 22.4999 36.4867 21.1197 36.4867C20.7899 36.4867 20.4602 36.4867 20.1305 36.4867C19.9652 36.4867 20.5372 36.3502 20.6573 36.3502C21.7303 36.3502 22.7857 36.433 23.8485 36.5511C25.2804 36.7102 26.8288 36.5549 28.2677 36.5549C28.8528 36.5549 29.4855 36.618 30.0188 36.3654C30.1767 36.2906 30.5767 36.2369 30.2537 36.0395C29.6169 35.6503 28.8144 35.4624 28.1275 35.1602C28.0776 35.1382 27.7623 35.0592 27.8357 34.9858C28.0296 34.7919 28.4285 34.7682 28.6771 34.7129C28.7971 34.6863 30.1399 34.4159 29.8823 34.747C29.646 35.0508 29.0743 35.2213 28.7377 35.3648C27.8429 35.7463 26.893 36.1572 25.9255 36.3199C25.4451 36.4007 24.6722 36.5495 24.4777 36.0243C24.2722 35.4696 23.5243 34.9631 23.0033 34.7508C22.6736 34.6165 22.341 34.6447 21.9914 34.6447C21.7847 34.6447 21.572 34.6306 21.366 34.6485C21.1774 34.6649 21.2107 34.8133 21.2599 34.7395C21.6919 34.0916 22.2379 33.4947 22.8176 32.9771C23.3457 32.5056 23.0027 32.8722 22.6584 33.0074C21.5247 33.4528 21.014 34.4226 20.5777 35.4861C20.3678 35.9978 20.0954 36.0364 19.634 36.2972C19.2926 36.4901 19.0444 36.6231 18.6486 36.6231C17.8832 36.6231 17.1131 36.5097 16.3783 36.3465C15.6432 36.1831 14.789 36.282 14.0247 36.282C13.0444 36.282 12.0957 36.0774 11.095 36.0774C10.5596 36.0774 9.91735 36.055 9.41596 35.8727C8.88004 35.6778 8.66969 35.2921 8.49877 34.7508C8.20022 33.8055 8.1487 32.7499 8.06291 31.7681C7.98687 30.8979 7.953 30.0113 7.953 29.1378C7.953 27.9777 8.08298 26.9802 8.39643 25.8518C8.52103 25.4032 9.62469 25.361 9.98447 25.2454C10.2998 25.144 10.6889 24.858 11.0229 24.8209C11.6897 24.7468 10.8698 24.4115 10.5795 24.4115C9.98316 24.4115 9.29147 23.9003 8.83608 23.5588C8.34558 23.1909 7.83297 22.8522 7.40723 22.4028C7.32048 22.3112 7.27889 22.2557 7.16845 22.1944C7.04781 22.1273 7.05219 22.2753 6.95621 22.327C6.63284 22.5011 6.2361 22.4776 5.92152 22.6757C5.65774 22.8418 5.32668 22.9378 5.0915 23.1495C4.75436 23.4529 4.52968 23.7607 4.23494 24.1008C4.01438 24.3552 4.11412 24.4832 3.91279 24.4798C3.39755 24.471 3.05555 24.3232 2.59764 24.6124C2.1048 24.9237 1.86248 25.3256 1.54021 25.7911C1.39208 26.0051 1.26113 26.2176 1.10056 26.4241C1.02018 26.5274 0.709164 27.221 0.994439 26.9357C1.50075 26.4294 2.07723 25.9706 2.55594 25.4387C2.83309 25.1307 3.12436 24.6394 3.55273 24.5442C3.64842 24.5229 3.68689 24.417 3.79151 24.4115C3.96881 24.4022 4.14333 24.456 4.31454 24.4949C4.81261 24.6081 5.20597 24.7526 5.73202 24.7526C6.5911 24.7526 7.45018 24.7526 8.30926 24.7526C8.90179 24.7526 9.35002 25.162 9.93141 25.162C10.4618 25.162 10.8585 25.8341 11.1253 26.2194C11.3835 26.5924 11.6218 26.9546 11.7203 27.3981C11.7957 27.7374 11.9031 28.2757 12.0766 28.573C12.2176 28.8148 12.4348 29.3313 12.4556 29.6115C12.4817 29.9646 12.7206 30.2534 12.8119 30.5818C13.042 31.4102 13.6584 32.1149 13.8049 32.9771C13.8629 33.3191 13.9693 34.8494 14.4681 34.8494C14.7894 34.8494 14.3737 34.8817 14.3127 34.8342C14.2759 34.8055 14.4006 35.1017 14.434 35.1602C14.4933 35.2639 14.5822 35.513 14.6538 35.5847C14.7074 35.6382 14.7935 35.4123 14.5022 35.3951C14.2495 35.3803 14.1468 34.1149 13.8882 33.8564C13.6957 33.6638 13.8951 34.1929 13.9565 34.2695C14.0662 34.4067 14.115 34.4989 14.2635 34.6144C14.4289 34.7431 14.6289 34.9359 14.7221 35.1223C14.7414 35.1609 14.9436 35.5541 14.9078 35.3572C14.8588 35.088 14.5481 34.827 14.3658 34.6447C14.1122 34.3911 13.9127 34.1485 13.7063 33.8488C13.2036 33.1186 12.726 32.4476 12.1448 31.7718C11.2009 30.6743 10.4856 29.332 9.87835 28.0273C9.52038 27.2582 9.14855 26.5024 8.77544 25.7419C8.67801 25.5432 8.57998 25.2406 8.39643 25.0938C8.31862 25.0315 8.47573 25.0124 8.53288 25.1013C8.82402 25.5542 9.07834 26.0341 9.37048 26.4885C9.89701 27.3075 10.3528 28.1688 10.8865 28.9824C11.1688 29.4126 11.5295 29.8257 11.7734 30.2786C11.936 30.5805 11.9056 30.4031 11.7544 30.1914C11.2123 29.4324 10.8077 28.5981 10.4544 27.7354C10.1597 27.0156 9.2678 24.8902 9.72675 25.5182C9.92217 25.7857 10.23 26.2748 10.6136 26.2535C10.76 26.2454 10.7837 26.0664 10.8183 25.9541C10.8567 25.8291 10.963 25.8623 11.0571 25.8101C11.2198 25.7197 11.42 25.7035 11.5687 25.5713C11.6536 25.4959 11.7666 25.4665 11.5839 25.4008C11.2071 25.2651 10.8046 25.2161 10.4165 25.1279C9.9519 25.0223 9.64056 24.7388 9.2113 24.548C8.71087 24.3256 8.19892 24.1342 7.81655 23.7293C7.59047 23.49 7.48908 23.3687 7.10781 23.3238C6.76233 23.2831 6.98449 23.6314 7.11918 23.7293C7.78138 24.2109 8.33915 24.8778 8.89293 25.4728C9.61952 26.2534 10.3566 27.0824 10.8865 28.0121C11.2357 28.6247 11.4393 29.1772 11.599 29.8617C11.6474 30.0688 11.6151 30.2763 11.6521 30.4832C11.731 30.9252 11.9214 31.3161 12.1372 31.7036C12.4129 32.1985 12.6741 32.6447 12.9976 33.1097C13.1098 33.2711 13.5272 33.6877 13.4145 33.5266C13.2344 33.2693 12.9382 33.0542 12.7247 32.8255C12.2901 32.3599 11.8764 31.8741 11.455 31.3966C11.0746 30.9655 10.635 30.5632 10.2877 30.1042C10.1658 29.9432 10.4192 30.141 10.4317 30.1497C10.7423 30.3664 11.051 30.5906 11.3489 30.8243C11.7146 31.1112 12.1002 31.4675 12.3419 31.8704C12.4677 32.0801 12.4469 32.1986 12.1675 32.0447C11.3277 31.582 10.4714 30.8801 9.84045 30.1573C9.8064 30.1183 9.19671 29.3935 9.34774 29.3386C9.73715 29.197 10.3064 29.6951 10.553 29.9223C11.0141 30.3472 11.2966 30.9562 11.5915 31.499C11.6183 31.5484 11.8705 32.1062 11.6597 31.8552C10.9741 31.0391 10.4685 29.9065 10.0489 28.9369C9.82413 28.4174 9.64763 27.8809 9.46902 27.3451C9.41618 27.1865 10.1712 27.4948 10.2043 27.5118C10.8123 27.8242 11.342 28.2792 11.7696 28.808C11.9504 29.0317 12.161 29.4673 12.4139 29.6191C12.5012 29.6715 12.3176 29.4393 12.2623 29.3538C12.002 28.9507 11.7643 28.5341 11.546 28.1069C11.2525 27.5324 11.0746 26.9103 10.788 26.3369C10.6679 26.0967 10.6772 26.3761 10.697 26.4885C10.7798 26.9577 11.1056 27.4173 11.2883 27.8529C11.5876 28.567 11.8419 29.2961 12.1789 29.9943C12.4459 30.5474 12.7929 31.0716 13.0014 31.6506C13.2176 32.2513 13.3663 32.8421 13.6154 33.4319C13.8069 33.8855 14.0123 34.3167 14.1763 34.7812C14.2034 34.8581 13.5626 34.2889 13.5092 34.2164C12.9661 33.4786 12.492 32.6687 12.0159 31.8856C11.9336 31.7501 11.5708 31.3038 11.834 31.7188C12.3569 32.5434 12.8077 33.4191 13.2515 34.2885C13.3446 34.4708 13.676 34.8681 13.676 35.0806C13.676 35.2655 13.3279 34.9502 13.1681 34.857C12.6457 34.5522 12.1385 34.2237 11.6521 33.864C11.3184 33.6171 10.5646 33.1887 10.3862 32.7724C10.3803 32.7587 11.2841 33.1048 11.3603 33.1476C11.5651 33.2628 11.761 33.3931 11.9705 33.5001C12.1335 33.5834 12.5848 33.6059 12.4632 33.7427C12.3747 33.8422 11.6073 33.6524 11.5005 33.6366C11.0854 33.575 10.6783 33.485 10.2725 33.3788C10.1246 33.3401 9.9649 33.3057 9.8215 33.25C9.67291 33.1922 10.1296 33.3386 10.2725 33.4092C11.2248 33.8793 12.1941 34.4393 13.062 35.054C13.0694 35.0593 13.5755 35.3992 13.532 35.4482C13.4864 35.4994 13.1629 35.4634 13.1454 35.4634C12.6612 35.4634 12.1735 35.4795 11.69 35.4482C11.3672 35.4273 10.4602 35.4644 10.2346 35.1905C10.1451 35.0818 10.5107 35.1223 10.6515 35.1223C11.0496 35.1223 11.4443 35.1321 11.834 35.2208C12.1727 35.2979 13.834 35.7363 12.5503 35.7363C12.0589 35.7363 11.5675 35.7363 11.076 35.7363C10.7565 35.7363 10.7225 35.7363 11.0684 35.7363C11.6178 35.7363 12.269 35.7975 12.7588 36.0774C12.9962 36.213 12.6534 36.3961 12.5617 36.4223C12.3675 36.4778 12.7188 36.732 12.7815 36.6762C12.8419 36.6226 12.8528 36.5244 12.8687 36.4526C12.8947 36.3355 13.0207 36.3622 13.1037 36.3161C13.3175 36.1973 14.0073 36.282 13.2515 36.282C12.6734 36.282 12.0936 36.2952 11.5157 36.282C11.2418 36.2758 11.022 36.1456 10.7501 36.1456C10.313 36.1456 9.88509 36.0893 9.45386 36.0774C9.11462 36.0679 8.77372 36.0774 8.43434 36.0774C8.22138 36.0774 7.33776 36.1083 8.03259 36.0736C8.70877 36.0398 9.40002 35.8373 10.083 35.9561C10.3739 36.0067 10.6356 36.1543 10.9206 36.2176C11.0817 36.2534 11.2027 36.4315 11.311 36.5397C11.6318 36.8605 11.0197 36.7774 10.8183 36.7444C10.2337 36.6487 9.68907 36.3502 9.0976 36.3502C8.60129 36.3502 8.03632 36.2837 7.54367 36.354C7.06173 36.4229 6.57725 36.4826 6.11102 36.3161C5.8908 36.2375 5.52528 36.2254 5.29237 36.2138C5.07516 36.2029 4.88171 36.0887 4.67838 36.0774C4.52422 36.0688 4.31729 36.0477 4.16672 36.0812C3.97702 36.1233 4.45994 36.2138 4.54194 36.2138C4.72337 36.2138 4.89789 36.2979 5.0536 36.3844C5.22449 36.4793 5.95894 36.6914 5.3568 36.6914C4.67544 36.6914 4.27624 36.3235 3.72328 36.047C3.15665 35.7637 2.59645 35.4659 2.07082 35.1223C1.58768 34.8064 1.67665 34.3259 1.67665 33.7882C1.67665 32.8058 1.64428 31.8633 1.53642 30.8926C1.45235 30.1359 1.47199 29.3721 1.47199 28.6071C1.47199 27.8914 1.47622 27.4177 1.79793 26.7614C1.93947 26.4726 2.11959 26.4048 2.3437 26.2042C2.62422 25.9533 2.90663 25.729 3.23816 25.5486C3.56076 25.373 3.91638 25.3105 4.21599 25.0938C4.32943 25.0117 5.2876 24.6326 5.25068 24.6162C4.72966 24.3846 5.34344 24.0188 5.60695 23.8658C5.90106 23.695 6.83891 23.3243 7.10402 23.7142C7.30194 24.0052 6.65476 23.9479 6.52035 23.8999C6.48584 23.8876 6.2987 23.8198 6.39907 23.7445C6.59633 23.5965 7.11608 23.8295 7.27836 23.9188C7.652 24.1245 8.96688 25.88 7.76349 25.6092C7.58122 25.5682 7.01306 25.3434 7.01306 25.1013C7.01306 24.7924 8.05057 25.8149 8.08565 25.8593C8.56454 26.4659 9.0591 27.2436 9.21888 28.0121C9.31826 28.4901 9.11144 28.6343 8.68827 28.3381C7.89723 27.7843 7.24908 26.9965 6.74776 26.1777C6.60191 25.9395 6.29807 25.4562 6.74018 25.9465C7.68123 26.9902 8.37423 28.2122 8.97631 29.4751C9.09008 29.7137 9.1811 29.9569 9.24162 30.2141C9.25234 30.2597 8.93092 29.6416 8.92704 29.6343C8.3853 28.6121 7.95753 27.5421 7.48303 26.4885C7.38189 26.2639 7.26549 26.0406 7.1874 25.8063C7.12376 25.6154 7.43694 26.1222 7.56641 26.2763C9.27194 28.3058 10.8982 30.5977 11.8909 33.0794C11.9072 33.1203 11.9234 33.2012 11.8492 33.1363C11.5131 32.8422 11.2804 32.3748 11.0912 31.9841C10.432 30.6232 10.1148 29.1365 9.49934 27.762C9.49115 27.7437 9.2239 27.1716 9.40838 27.5952C9.70279 28.2713 10.0255 28.9345 10.318 29.6115C10.6119 30.2917 10.8999 30.9762 11.1518 31.6733C11.2527 31.9525 11.4793 32.3487 11.4853 32.6511C11.4881 32.7889 11.2014 32.6877 11.0722 32.6398C10.4947 32.4253 10.1238 31.9281 9.73433 31.4762C9.13424 30.7799 8.70705 30.1248 8.34337 29.2856C8.3352 29.2667 8.34267 29.2083 8.35474 29.2249C8.63498 29.6112 8.8238 30.0854 9.00663 30.5211C9.52649 31.7601 9.83564 33.018 10.0375 34.3415C10.1529 35.0976 9.86999 33.7026 9.8594 33.6328C9.65045 32.2537 9.50194 30.8512 9.45765 29.4561C9.45675 29.4278 9.41195 28.8867 9.50313 29.2515C9.65727 29.868 9.81485 30.4836 9.96552 31.101C10.1992 32.0586 10.6136 33.1206 10.6136 34.1179C10.6136 34.5338 10.3142 33.3383 10.227 32.9316C10.0755 32.2242 9.90713 31.4998 9.93141 30.7713C9.94019 30.5078 10.5508 31.1208 10.5719 31.1427C11.1034 31.6928 11.442 32.5026 11.5687 33.25C11.6209 33.5579 11.735 33.9634 11.3641 34.0989C11.0049 34.2302 10.6545 34.1929 10.4772 33.8185C10.1834 33.1983 10.0992 32.4473 10.0148 31.7718C9.96433 31.3682 10.1519 31.5807 10.3483 31.8022C11.0119 32.5505 11.4433 33.5278 11.7772 34.4628C11.8541 34.6782 12.0885 35.4406 11.6407 35.4406C10.7877 35.4406 10.1464 34.5355 9.80255 33.8715C9.21459 32.7362 9.0571 31.3376 8.85503 30.0891C8.83921 29.9913 8.65062 28.7556 8.7527 29.3917C9.00313 30.9521 9.12348 32.5156 9.21509 34.0914C9.21882 34.1555 9.25477 35.007 9.19993 34.91C8.69253 34.0123 8.62874 32.8866 8.47224 31.8931C8.37716 31.2896 8.2941 30.7 8.2941 30.0891C8.2941 29.7158 8.44697 30.8202 8.54425 31.1806C8.74953 31.9411 8.8857 32.6976 9.01042 33.4736C9.04019 33.6588 9.25039 34.3671 8.88914 33.9208C7.69394 32.4444 7.77258 30.385 7.52851 28.6034C7.46117 28.1118 7.36756 28.6476 7.35417 28.8232C7.25661 30.1023 7.11925 31.3792 7.02822 32.6587C6.98685 33.2403 6.9979 33.8234 6.9979 34.4059C6.9979 34.6631 6.94984 34.9743 7.03201 35.2208C7.04939 35.2729 7.0463 35.4896 7.13434 35.4482C7.32523 35.3584 7.403 35.3322 7.63463 35.3269C8.40284 35.3095 7.80201 32.9901 7.68011 32.6549C7.58087 32.382 7.48085 32.0072 7.23667 31.8173C7.00859 31.6399 7.18163 32.0026 7.20635 32.0675C7.41516 32.6156 7.51906 33.2029 7.61189 33.7806C7.63386 33.9173 7.83617 34.6604 7.53609 34.531C7.18837 34.3811 6.90684 34.1321 6.53172 34.0383C6.47575 34.0243 6.03775 33.8829 6.11861 34.0648C6.23465 34.3259 6.85792 34.3158 6.91452 34.6978C6.95018 34.9385 4.93256 34.917 4.77692 34.9176C4.16757 34.9199 2.34223 34.807 2.95011 34.8494C3.49566 34.8874 4.05883 35.1937 4.52678 35.4558C4.73339 35.5715 5.24928 35.7176 5.38712 35.9106C5.50308 36.0729 4.65749 35.8605 4.64806 35.8575C4.28448 35.7442 3.93245 35.5997 3.57168 35.4785C3.45199 35.4383 3.02722 35.3849 2.95011 35.2587C2.94191 35.2453 4.17122 35.191 4.29558 35.2019C4.86187 35.2511 5.39809 35.4915 5.95563 35.596C6.13418 35.6295 6.46605 35.7423 6.06176 35.6453C5.11074 35.4171 4.21839 34.8514 3.34807 34.4249C2.93348 34.2217 2.45986 34.0771 2.07082 33.8261C1.77986 33.6383 2.29572 33.6885 2.40434 33.6896C3.15108 33.6971 3.86408 33.8523 4.58742 34.0269C4.85084 34.0905 5.099 34.1747 5.34164 34.296C5.42379 34.3371 5.61053 34.4693 5.70928 34.4552C5.8517 34.4349 5.56148 34.2083 5.48946 34.0838C5.10821 33.4245 4.80249 32.7234 4.52678 32.0144C4.34158 31.5382 4.06439 30.9001 4.06439 30.3771C4.06439 30.1753 4.36246 30.1651 4.51162 30.2103C4.80494 30.2994 4.93762 30.9376 5.02707 31.173C5.17801 31.5704 5.27555 31.9625 5.36059 32.3783C5.42361 32.6863 5.67964 33.9945 5.52736 32.8748C5.28695 31.1071 5.33046 29.2813 5.36438 27.5004C5.37116 27.1448 5.51304 26.1895 5.5501 27.1859C5.61897 29.0377 5.61866 30.9212 5.5501 32.7724C5.54486 32.9137 5.43704 33.7069 5.4326 33.6669C5.38135 33.2056 5.47155 32.6687 5.50462 32.2153C5.58491 31.1142 5.71939 30.0225 5.87225 28.9293C5.98571 28.1179 6.10825 27.3085 6.23989 26.4999C6.26572 26.3412 6.26534 26.0675 6.35359 25.9162C6.43626 25.7745 6.54767 27.0968 6.55446 27.201C6.68033 29.1309 6.71576 31.0737 6.72502 33.0074C6.72802 33.6344 6.75153 35.5129 6.79324 34.8873C6.8828 33.5439 6.79324 32.1618 6.79324 30.8168C6.79324 29.5774 6.79324 28.3381 6.79324 27.0987C6.79324 26.5865 6.71015 28.1208 6.62647 28.6261C6.35875 30.2428 6.11982 31.8362 5.92152 33.4622C5.8804 33.7994 5.90477 34.8111 5.83814 34.478C5.6013 33.2938 5.76992 31.949 5.76992 30.7485C5.76992 30.2748 5.76992 29.801 5.76992 29.3273C5.76992 29.191 5.69518 28.6752 5.80782 28.5465C5.84431 28.5048 5.86457 28.6439 5.87604 28.6981C5.91704 28.8919 5.96268 29.2267 5.98595 29.3955C6.13022 30.4414 6.24806 31.4908 6.41423 32.5337C6.44084 32.7006 7.02924 35.8045 6.86146 35.8045C6.57356 35.8045 5.94725 35.2302 6.05417 35.4975C6.10664 35.6286 6.60607 35.7985 6.72502 35.8348C6.80902 35.8605 7.49651 36.0091 7.14192 36.0091C5.78066 36.0091 4.40173 35.8695 3.05623 35.6832C2.66352 35.6288 2.27248 35.7105 1.95712 35.3951C1.75735 35.1954 1.74487 34.9601 1.74487 34.6978C1.74487 34.0735 2.16905 34.5674 2.35886 34.8494C2.42673 34.9502 2.4944 35.0546 2.55974 35.1526C2.58847 35.1957 2.56307 35.0489 2.55974 34.9972C2.53549 34.6214 2.48663 34.2475 2.46119 33.8715C2.37829 32.6464 2.35353 31.4227 2.35886 30.1952C2.36152 29.5837 2.52211 29.022 2.56352 28.4214C2.59586 27.9526 2.56352 29.3614 2.56352 29.8313C2.56352 30.4274 2.6692 31.1355 2.52942 31.7226C2.50998 31.8042 2.39982 31.9287 2.35507 31.787C2.13904 31.1029 2.16178 30.3184 2.16178 29.6115C2.16178 28.6995 2.17725 27.194 2.87431 26.4582C3.07403 26.2474 3.55114 26.0467 3.82941 25.9465C4.14355 25.8334 7.1074 24.2408 7.13434 24.7526C7.16634 25.3606 6.56122 25.5093 6.05796 25.7002C5.61366 25.8687 5.17338 26.0766 4.7466 26.2687C4.29972 26.4698 4.02507 26.81 3.7536 27.2048C3.52048 27.5439 3.15806 27.7738 2.87052 28.0614C2.686 28.2459 2.88035 27.9613 2.91979 27.8984C3.15036 27.5306 3.38738 27.168 3.6399 26.8144C3.66159 26.7841 3.95876 26.3852 3.88626 26.4013C3.63867 26.4563 3.43706 26.9292 3.31396 27.1139C3.06933 27.4808 2.93865 27.9444 2.86673 28.376C2.85966 28.4184 2.76923 29.0025 2.85157 29.0354C3.00944 29.0986 3.93583 26.6606 4.11745 26.3672C4.23741 26.1734 4.26905 26.3009 4.26905 26.4544C4.26905 27.7787 3.74951 29.1465 3.43145 30.4188C3.21389 31.289 3.06377 32.1709 2.86673 33.0453C2.63762 34.062 3.50324 31.0602 3.79151 30.0587C4.0778 29.0641 4.28359 28.0529 4.50025 27.0418C4.52398 26.9311 4.54194 26.5301 4.54194 26.8599C4.54194 27.9412 4.33113 28.985 4.20841 30.0587C4.04291 31.5069 3.92301 32.9787 3.86352 34.4363C3.85058 34.7532 3.85003 34.7827 3.85973 34.4401C3.90717 32.7639 4.28325 31.1113 4.53436 29.4599C4.65594 28.6604 4.7017 27.8755 4.75039 27.0722C4.77473 26.6706 4.91557 27.5922 4.92094 27.6445C5.04351 28.8351 5.00714 30.0327 5.08771 31.2261C5.11019 31.5591 5.31248 32.3116 5.14077 32.636C5.10189 32.7094 4.94607 32.7582 4.88304 32.871C4.81808 32.9872 4.67718 33.16 4.54194 33.1969C3.67115 33.4344 3.65237 29.9454 3.62474 29.5812C3.56432 28.7847 3.51862 27.992 3.51862 27.1935C3.51862 26.9998 3.46498 26.6408 3.602 26.4733C3.9803 26.011 4.20454 25.4621 4.71628 25.09C5.11487 24.8001 5.63547 24.396 5.89878 23.9681C6.0333 23.7495 6.21096 23.5727 6.39907 23.4034C6.47298 23.3369 6.55648 23.2948 6.62268 23.2139C6.71077 23.1062 6.75761 22.7557 6.89178 22.7174C6.98859 22.6897 6.85763 23.1292 6.8463 23.1532C6.68859 23.4876 6.54161 23.7954 6.45213 24.1614C6.04679 25.8196 6.14816 27.7323 7.01306 29.2249C7.487 30.0429 8.19305 30.6934 8.80576 31.4004C9.01456 31.6413 9.33093 31.7929 9.55998 32.022C10.3236 32.7856 11.1114 33.6355 12.0804 34.1331C12.7108 34.4568 13.6435 34.8531 13.9223 35.5657C14.2908 36.5072 15.3678 36.6697 16.2684 36.8126C16.7803 36.8939 17.2279 36.9642 17.7465 36.9642C17.9916 36.9642 18.2367 36.9642 18.4818 36.9642C18.8448 36.9642 19.1156 36.8132 19.4521 36.6914C20.0945 36.4587 20.5829 36.0502 21.1159 35.6415C21.6796 35.2093 22.413 34.8942 23.1095 34.7508C23.5928 34.6513 24.1724 34.6869 24.6672 34.7129C26.0096 34.7836 21.9828 34.8784 20.6459 35.0199C19.4485 35.1467 18.1455 35.0156 16.9733 35.3269C16.5891 35.429 16.1859 35.4257 15.806 35.5316C15.599 35.5893 15.4771 35.668 15.2527 35.668C14.4171 35.668 14.0944 34.6863 13.82 34.0156C13.6869 33.6901 13.534 33.3527 13.4486 33.0112C13.4082 32.8497 13.6756 33.007 13.7177 33.0491C13.887 33.2184 14.0566 33.388 14.2256 33.557C14.5727 33.9041 15.1085 34.2104 15.355 34.6485C15.5428 34.9824 15.9493 35.3 16.276 35.4634" stroke="#F32D12" stroke-width="1.03954" stroke-linecap="round"/>
</svg>
