<svg width="36" height="38" viewBox="0 0 36 38" fill="none" xmlns="http://www.w3.org/2000/svg">
<rect x="-0.519772" y="0.519772" width="34.305" height="35.8643" rx="4.67795" transform="matrix(-1 0 0 1 34.6494 0.750488)" fill="#95B7FF" stroke="black" stroke-width="1.03954"/>
<path d="M3.52558 19.6423C3.99594 20.2692 5.03259 20.1472 5.8419 20.1472C5.92542 20.2781 6.42926 20.2546 7.1883 20.1641C8.21577 20.0416 8.42235 19.9743 8.70638 19.9743C10.1893 19.9743 9.81508 19.7251 11.2973 20.0981C12.8487 20.4885 14.1698 19.7972 17.4503 19.6423C19.9023 19.0255 20.2818 18.7673 21.9896 18.0767C24.0573 17.2406 24.52 19.1493 23.2679 20.0981C21.8093 21.2035 21.7999 21.1129 21.278 21.4924C20.5241 22.0407 20.443 21.8601 20.5715 22.0617C20.8068 22.4306 21.1393 22.7115 21.278 23.1345C21.4477 23.6517 21.8354 24.1486 22.1455 24.6175C22.6066 25.3146 23.1183 25.9809 23.5944 26.6684C23.8591 27.0507 24.2894 27.4069 24.3188 27.8674C24.3357 28.1323 24.6212 27.8209 24.7212 27.7272C25.0846 27.3869 24.231 27.7916 24.7212 27.5754C25.8225 27.0898 26.9927 26.6027 28.0392 26.0469C28.6784 25.7074 29.3678 25.4514 29.9888 25.0862C30.2873 24.9107 29.1321 25.4039 28.1794 25.8282C28.6425 25.5697 29.1421 25.2649 29.6144 24.9867C29.3868 25.15 29.4542 25.1562 29.6381 25.0928C29.564 25.1462 29.4941 25.1957 29.4296 25.2365C29.1613 25.4061 29.4752 25.2359 29.8983 24.9911C30.2866 24.8274 30.7884 24.5774 30.7174 24.5774C30.6693 24.5774 30.6211 24.582 30.5731 24.5906C30.9749 24.3445 31.2484 24.1576 30.95 24.2787C30.5865 24.4263 30.1158 24.6915 29.6144 24.9867C29.7729 24.8731 30.0743 24.6834 30.5788 24.3881C29.3819 23.1716 28.1457 21.9959 27.0373 20.728C26.4422 20.0473 25.9792 19.2844 25.5437 18.5333C25.4544 18.3792 25.3726 18.2286 25.3053 18.0767C25.1156 15.9893 24.1962 14.5845 23.2679 14.1802C22.3914 13.7984 21.4316 13.5426 20.5715 13.1425C19.8857 12.8234 19.1672 12.5063 18.5145 12.1468C18.4972 12.1373 18.1658 11.9309 18.1658 12.0381C18.1658 12.1545 17.0574 12.1237 16.8511 12.1468C14.8948 12.3659 12.7526 12.3259 10.8054 12.0206C10.0531 11.9026 6.58141 14.8069 5.8419 14.6781C5.81356 14.6731 5.87998 14.7254 6.00835 14.8143C5.17392 15.3257 4.34191 16.0802 3.62843 17.339C3.4704 17.5582 3.07764 17.8495 3.02923 18.0962C2.9832 18.3308 3.04828 18.5605 3.10077 18.7869C3.17242 19.0958 3.31792 19.3655 3.52558 19.6423Z" fill="black" stroke="black" stroke-width="0.759044" stroke-linecap="round"/>
<path d="M10.9834 12.0694C10.9834 11.8735 10.849 11.7017 10.7183 11.5574C10.4531 11.2643 10.1086 11.053 9.71353 10.9565C9.48854 10.9015 9.26095 10.865 9.02821 10.8657C8.79644 10.8664 8.59933 10.9462 8.40335 11.0606C8.12018 11.226 7.88498 11.4976 7.75632 11.7876C7.58138 12.1819 7.5312 12.6274 7.59305 13.0495C7.61609 13.2067 7.66047 13.389 7.75431 13.5224" stroke="black" stroke-width="0.759044" stroke-linecap="round"/>
<path d="M20.1239 13.6312C20.1519 13.6673 20.1489 13.6285 20.1384 13.5879C20.3512 12.9565 20.2174 13.4998 20.3645 13.067C20.5067 12.6484 20.5099 12.0932 20.3572 11.6786C20.1177 11.0282 19.4946 10.3668 18.8257 10.193C17.5994 9.87426 16.2216 10.4621 15.5326 11.5253C15.2377 11.9804 15.1366 12.4841 15.1619 13.0271C15.1853 13.5313 15.2863 14.0483 15.5956 14.4542C15.8731 14.8183 16.3096 15.0638 16.7272 15.2157C17.0603 15.3368 17.4182 15.4358 17.7741 15.4176C18.123 15.3998 18.4167 15.2944 18.7337 15.1534C18.9934 15.0378 19.2652 14.9568 19.4958 14.7832C19.7486 14.5928 19.9624 14.3645 20.0713 14.0541C20.128 13.8924 20.1076 13.7072 20.1076 13.5394C20.1076 13.4994 20.1273 13.5447 20.1384 13.5879C20.1337 13.6017 20.1289 13.6162 20.1239 13.6312Z" fill="#95B7FF" stroke="black" stroke-width="0.379522" stroke-linecap="round"/>
<path d="M20.092 13.5221C20.0869 13.3351 20.0417 13.1433 19.9615 12.9749C19.8517 12.7445 19.7065 12.5209 19.5007 12.3722C19.2773 12.2108 19.0139 12.0922 18.763 11.9861C18.362 11.8167 17.9745 11.664 17.5375 11.6356C17.3309 11.6221 17.1073 11.6139 16.9029 11.6539C16.728 11.6881 16.548 11.7884 16.3923 11.8741C16.1744 11.9942 15.9643 12.1688 15.8142 12.3732C15.7596 12.4475 15.7112 12.5287 15.6597 12.6055C15.6131 12.6751 15.5542 12.7503 15.5378 12.8347" stroke="black" stroke-width="0.379522" stroke-linecap="round"/>
<path d="M20.092 13.1396C19.6568 13.1396 19.2215 13.1396 18.7862 13.1396C18.4648 13.1396 18.1397 13.1538 17.8195 13.1228C17.4563 13.0876 17.0847 13.0502 16.7331 12.9503C16.5085 12.8864 16.2752 12.8578 16.0534 12.7854C15.812 12.7066 15.5741 12.6263 15.3475 12.5136C15.3219 12.5008 15.1298 12.3998 15.1619 12.3838" stroke="black" stroke-width="0.379522" stroke-linecap="round"/>
<path d="M17.7594 12.0351C17.7594 12.1326 17.7609 12.2303 17.7594 12.3278C17.7573 12.4691 17.6918 12.5718 17.623 12.6821C17.5228 12.8428 17.3197 12.9243 17.1642 12.9617C16.9645 13.0098 16.765 13.0089 16.5845 12.8834C16.4415 12.784 16.3278 12.5844 16.3117 12.3837C16.3051 12.3003 16.2747 12.0907 16.3257 12.022C16.362 11.9732 16.4062 11.9334 16.445 11.8878C16.5419 11.7739 16.6798 11.7116 16.8077 11.6622C16.8714 11.6375 16.9506 11.6323 17.017 11.6323C17.1161 11.6323 17.2321 11.6125 17.3301 11.6361C17.5373 11.6859 17.7813 11.8244 17.84 12.0929C17.8722 12.2399 17.8803 12.4694 17.84 12.6093C17.8257 12.6592 17.7764 12.7715 17.8354 12.7734C17.9034 12.7757 17.9672 12.8127 18.0353 12.82C18.1765 12.8352 18.3199 12.8255 18.4616 12.8368C18.6629 12.8528 18.866 12.8355 19.0676 12.8405C19.1569 12.8428 19.2632 12.8466 19.3497 12.8704C19.3795 12.8786 19.409 12.8648 19.4334 12.8909C19.4572 12.9163 19.4782 12.9161 19.4381 12.8797C19.2156 12.6779 19.0498 12.4036 18.7979 12.2495C18.6125 12.136 17.9968 11.9793 18.195 12.0556C18.4593 12.1573 18.7026 12.3519 18.9421 12.5217C19.0469 12.5961 19.1487 12.6758 19.2521 12.7529C19.3073 12.7941 19.3687 12.8231 19.4164 12.8778C19.4649 12.9336 19.4962 12.9943 19.559 13.0121C19.5965 13.0227 19.6269 13.0495 19.5714 12.9972C19.3718 12.809 19.1754 12.6168 18.97 12.4378C18.7139 12.2147 18.4712 12.0226 18.164 11.9381C18.0649 11.9109 18.1647 11.9317 18.212 11.9549C18.4148 12.0544 18.6001 12.2323 18.7809 12.3781C18.9783 12.5374 19.1674 12.7088 19.3699 12.8592C19.4861 12.9455 19.6145 13.0248 19.7124 13.1426" stroke="black" stroke-width="0.379522" stroke-linecap="round"/>
<path d="M17.5967 11.6356C17.5528 11.6356 17.4487 11.6149 17.4244 11.6524C17.3861 11.7116 17.3255 11.7516 17.2596 11.7704" stroke="black" stroke-width="0.759044" stroke-linecap="round"/>
<path d="M10.0319 11.2451C10.0169 11.2516 10.0242 11.2923 10.0242 11.3022C10.0242 11.5142 10.0016 11.7347 9.95007 11.9417C9.90839 12.1091 9.80872 12.2645 9.70849 12.4102C9.60364 12.5625 9.49179 12.7131 9.3604 12.8493C9.12587 13.0924 8.86306 13.3009 8.52616 13.4309C8.37018 13.4911 8.18463 13.5359 8.01233 13.5184C7.99902 13.5171 7.92008 13.5112 7.95694 13.4869C8.134 13.3703 8.32609 13.274 8.5006 13.1531C8.72387 12.9983 8.90755 12.8143 9.08942 12.6234C9.17672 12.5318 9.25532 12.4389 9.32035 12.3341C9.42287 12.1689 9.52094 11.9893 9.57769 11.8074C9.61193 11.6977 9.62541 11.5805 9.62541 11.4669C9.62541 11.442 9.6344 11.3431 9.60283 11.3293C9.58809 11.3229 9.6024 11.358 9.6024 11.3723C9.6024 11.4622 9.59829 11.5517 9.5811 11.6405C9.55132 11.7942 9.4839 11.9407 9.40812 12.0812C9.31752 12.2491 9.21761 12.4192 9.10263 12.5756C8.95087 12.782 8.76863 12.9318 8.50358 13.0166C8.39169 13.0524 8.2771 13.0674 8.16188 13.0908C8.15229 13.0927 8.14009 13.1065 8.13418 13.0997C8.1218 13.0853 8.22584 13.0197 8.2326 13.0144C8.49365 12.8093 8.73327 12.5893 8.90962 12.3226C9.08748 12.0537 9.16817 11.7633 9.27092 11.4699C9.28032 11.443 9.27311 11.3214 9.32035 11.3186C9.43021 11.312 9.53969 11.3037 9.65012 11.3056C9.78703 11.3079 9.91378 11.3516 10.0323 11.4091C10.1895 11.4853 10.345 11.5525 10.4912 11.6457C10.5968 11.713 10.68 11.7893 10.7715 11.869C10.8072 11.9001 10.849 11.9236 10.8849 11.9543C10.8953 11.9633 10.9613 12.0343 10.9811 12.03C10.9871 12.0287 10.9797 12.0191 10.9769 12.0144C10.965 11.9943 10.9461 11.9763 10.9283 11.9602C10.857 11.8958 10.7695 11.8413 10.6701 11.8156C10.4789 11.7662 10.3431 11.8869 10.1946 11.9728C10.14 12.0045 10.0849 12.034 10.0268 12.0604C10.0181 12.0643 9.9912 12.0791 10.0182 12.0797C10.089 12.0811 10.1429 12.0432 10.1929 12.0047C10.2482 11.9623 10.2416 11.9353 10.2372 11.8697C10.2349 11.8346 10.2366 11.7274 10.1853 11.7125" stroke="black" stroke-width="0.759044" stroke-linecap="round"/>
<path d="M21.9895 13.9019C22.0364 13.9668 22.1192 14.0271 22.2006 14.0866C22.3581 14.2019 22.5306 14.3154 22.7189 14.4238C23.0313 14.6037 23.3732 14.7686 23.8077 14.908C23.9474 14.9528 24.1043 15.0096 24.2666 15.0404" stroke="black" stroke-width="0.759044" stroke-linecap="round"/>
<path d="M8.39069 23.0103C8.87784 23.4467 9.13427 24.1593 9.37138 24.751C9.63304 25.4039 9.88374 26.0462 10.1774 26.6848C10.4766 27.3354 10.5443 28.1089 10.6524 28.8086C10.7078 29.1674 10.7561 29.5282 10.8424 29.8812C10.8747 30.0132 10.9038 30.1858 10.9834 30.2919" stroke="black" stroke-width="0.759044" stroke-linecap="round"/>
<path d="M10.5396 29.3364C10.5396 29.8389 9.81654 30.3051 9.4432 30.5552C9.14914 30.7521 8.84019 30.9342 8.53845 31.1193C8.4418 31.1786 8.39904 31.2045 8.28831 31.2045" stroke="black" stroke-width="0.759044" stroke-linecap="round"/>
<path d="M22.3692 14.2812C22.7684 14.8845 23.3321 15.4014 23.8776 15.9314C24.236 16.2796 24.6814 16.5743 25.0303 16.9258C25.1675 17.064 25.2956 17.2066 25.441 17.34C25.6467 17.5287 25.712 17.7061 25.7404 17.9498C25.8064 18.5151 25.7795 19.0865 25.7795 19.6534C25.7795 19.8806 25.7852 20.1082 25.778 20.3353C25.7729 20.4973 25.7127 20.5918 25.6233 20.7331" stroke="black" stroke-width="0.759044" stroke-linecap="round"/>
<path d="M7.40796 13.4731C7.30842 13.4874 7.20584 13.5787 7.12068 13.6282C7.00123 13.6977 6.88071 13.7684 6.76485 13.8437C6.64643 13.9206 6.53147 14.0152 6.42289 14.1056C6.32508 14.1872 6.19897 14.2384 6.08583 14.2958C5.91034 14.3848 5.74649 14.5092 5.57493 14.6076C5.26145 14.7872 4.96907 15.0367 4.69025 15.2654C4.39714 15.5058 4.14393 15.8247 3.89044 16.106C3.65713 16.3649 3.38918 16.587 3.22122 16.8993C3.03786 17.2401 2.89809 17.5844 2.94863 17.9798C3.02351 18.5657 3.63153 18.8725 4.04388 19.2024" stroke="black" stroke-width="0.759044" stroke-linecap="round"/>
<path d="M11.4382 12.0913C11.4382 12.2718 11.457 12.4611 11.4034 12.6355C11.3573 12.7851 11.2215 12.9325 11.1148 13.0422C10.9287 13.2336 10.7072 13.4402 10.4621 13.5516C10.2868 13.6313 10.1056 13.7017 9.92179 13.7588C9.75328 13.8111 9.5885 13.887 9.41631 13.9215" stroke="#95B7FF" stroke-width="0.379522" stroke-linecap="round"/>
<path d="M22.4716 13.9561C22.8069 14.2913 23.0461 14.6837 23.2666 15.0997C23.4208 15.3904 23.6041 15.7085 23.9009 15.8734" stroke="#95B7FF" stroke-width="0.379522" stroke-linecap="round"/>
<path d="M21.809 14.6533C22.0196 14.6991 22.1208 15.0165 22.209 15.184C22.2561 15.2736 22.2991 15.3581 22.3649 15.4357C22.3973 15.4741 22.4244 15.5111 22.4365 15.5597" stroke="#95B7FF" stroke-width="0.379522" stroke-linecap="round"/>
<path d="M20.9377 15.3332C20.3576 15.39 19.8003 15.5705 19.218 15.6121C18.9839 15.6288 18.7489 15.6486 18.5179 15.5947C18.2986 15.5435 18.0849 15.4615 17.8768 15.3759C17.6081 15.2652 17.3782 15.1202 17.1728 14.9149C17.1048 14.8469 17.0297 14.7126 16.9462 14.6709" stroke="#95B7FF" stroke-width="0.379522" stroke-linecap="round"/>
<path d="M6.9563 13.1919C6.9563 13.4411 6.88834 13.7013 6.82756 13.9421C6.73702 14.3007 6.69549 14.6736 6.55521 15.0191C6.43679 15.3107 6.29896 15.5988 6.15908 15.8806C5.95336 16.2952 5.67292 16.6358 5.41633 17.0171C5.12077 17.4562 4.80184 17.8584 4.46561 18.2673C4.17866 18.6164 3.91042 18.9678 3.58422 19.2824C3.2766 19.5792 2.93295 19.8097 2.53942 19.9707C2.39173 20.0311 2.24368 20.0902 2.09253 20.1416C2.01191 20.1689 1.91164 20.1775 1.83752 20.2208C1.77498 20.2573 1.96506 20.1513 2.02321 20.1081C2.293 19.908 2.55054 19.7202 2.787 19.4768C3.04234 19.2139 3.28493 18.9246 3.51242 18.6375C3.76653 18.3167 3.95396 17.9526 4.20317 17.6286C4.42553 17.3395 4.66815 17.0377 4.85184 16.7224C5.02444 16.4262 5.18445 16.1219 5.36186 15.8287C5.46374 15.6603 5.58882 15.4991 5.67134 15.3199C5.72934 15.1939 5.76693 15.0583 5.81989 14.9299C5.93724 14.6456 6.02527 14.3494 6.10833 14.0535C6.1496 13.9064 6.16438 13.7111 6.23212 13.5756C6.24357 13.5527 6.24326 13.674 6.24326 13.6796C6.24326 13.8517 6.24326 14.0238 6.24326 14.1958C6.24326 14.5713 6.20728 14.8793 6.0749 15.2307C5.9697 15.5101 5.83296 15.793 5.66515 16.0403C5.28815 16.5959 4.96779 17.1972 4.54979 17.7239C4.24154 18.1123 3.96029 18.5173 3.56936 18.8244C3.40541 18.9532 3.083 19.0515 3.01725 19.275C3.01155 19.2944 2.98303 19.3504 3.01478 19.3159C3.18354 19.1324 3.33963 18.9383 3.50004 18.7477C3.98281 18.1738 4.43481 17.5885 4.86794 16.9762C5.24497 16.4432 5.60561 15.901 5.95483 15.3496C6.22343 14.9255 6.55088 14.3795 6.5775 13.8604C6.58243 13.7642 6.61986 13.6724 6.62206 13.5756C6.62425 13.4795 6.58984 13.5286 6.53293 13.4717C6.42318 13.3619 6.47122 13.3824 6.42895 13.541C6.36379 13.7853 6.20108 14.015 6.07366 14.2293C5.86243 14.5844 5.62595 14.9224 5.39405 15.2642C4.79484 16.1472 4.15405 17.001 3.55946 17.8861C3.3142 18.2511 3.05199 18.6099 2.82661 18.9878C2.80585 19.0226 2.66042 19.3394 2.62236 19.3394C2.54601 19.3394 2.95688 18.6408 2.96526 18.6276C3.38652 17.9631 3.79513 17.2861 4.24526 16.6407C4.84145 15.786 5.44448 14.9448 5.77038 13.9421C5.8472 13.7057 5.70095 14.0735 5.67629 14.1203C5.37587 14.6908 5.00964 15.2296 4.61911 15.742C3.81358 16.7988 2.84878 17.7638 2.21261 18.9383C2.17258 19.0122 2.13552 19.0881 2.09872 19.1636C2.09129 19.1789 2.068 19.2502 2.08015 19.1834C2.12188 18.9539 2.24062 18.7345 2.34135 18.5273C2.56206 18.0734 2.7999 17.6278 3.0581 17.1941C3.63227 16.2297 4.26058 15.2979 4.83946 14.337C4.9809 14.1022 5.15486 13.8775 5.28511 13.6375C5.67427 12.9207 4.4995 15.0697 4.17099 15.8163C3.99557 16.2149 3.84553 16.624 3.66344 17.0195C3.65741 17.0326 3.64466 17.0707 3.64116 17.0567C3.62894 17.0078 3.70338 16.877 3.71667 16.8499C3.92122 16.433 4.15085 16.0186 4.3901 15.6207C4.5929 15.2834 4.85609 14.9566 5.01649 14.5957C5.04451 14.5326 5.08136 14.3259 5.13904 14.2874C5.19783 14.2483 5.05972 14.4046 5.01525 14.4595C4.83014 14.6881 4.64245 14.9131 4.46809 15.1503C3.95312 15.8508 3.52771 16.6066 3.15095 17.3884C2.9566 17.7917 2.77464 18.2001 2.61617 18.6189C2.58687 18.6963 2.53347 18.8278 2.64835 18.6981C2.94245 18.3661 3.21034 18.0159 3.44805 17.641C3.68569 17.2661 3.89952 16.8518 4.17965 16.5058C4.19946 16.4813 4.24974 16.4366 4.22298 16.5046C4.14275 16.7082 4.05759 16.9116 3.97045 17.1124C3.74725 17.6266 3.45997 18.1413 3.29331 18.6783C3.26066 18.7835 3.31967 18.635 3.32673 18.6214C3.50377 18.28 3.71352 17.9518 3.9135 17.6236C4.27164 17.036 4.60094 16.4147 4.99296 15.8485C5.14082 15.6349 4.94257 16.1109 4.92859 16.1381C4.57671 16.8246 4.15072 17.4851 3.69934 18.1101C3.57542 18.2817 3.42922 18.4347 3.29207 18.5954C3.21872 18.6813 3.12371 18.7988 3.12371 18.9185C3.12371 19.0424 3.09336 19.1046 3.23512 19.0968C3.38091 19.0887 3.51828 18.6982 3.56689 18.6065C3.64694 18.4555 3.72963 18.3064 3.81942 18.1609C3.83995 18.1276 3.90112 18.0376 3.90112 18.0767C3.90112 18.1461 3.84616 18.2166 3.81942 18.2773C3.76548 18.3995 3.71917 18.5298 3.68325 18.6585C3.64013 18.813 3.58169 18.9929 3.5706 19.1537C3.54247 19.5616 3.8435 19.9135 4.08681 20.2109C4.15523 20.2945 4.44105 20.6686 4.23784 20.3619C3.90916 19.8658 3.76628 19.2322 3.84665 18.6412C3.8679 18.485 3.90065 18.2567 3.99273 18.1213C4.01649 18.0863 4.01521 18.2041 4.01377 18.2463C4.00733 18.4364 3.97524 18.6241 3.94816 18.812C3.90192 19.133 3.85545 19.4671 3.88627 19.7925C3.89952 19.9323 3.9661 20.0239 4.02615 20.144C4.08566 20.263 4.2189 20.3102 4.2824 20.4213C4.29899 20.4504 4.27133 20.4244 4.24279 20.4089C4.09137 20.327 3.97031 20.215 3.85903 20.0846C3.67014 19.8633 3.53123 19.6082 3.5248 19.3121C3.51775 18.9878 3.49737 19.9608 3.50251 20.2852C3.50336 20.3382 3.60358 20.4631 3.55946 20.4337C3.41155 20.3351 3.30057 20.0623 3.2376 19.9014C3.23587 19.897 3.17758 19.7392 3.20046 19.7405C3.24674 19.743 3.34655 19.8969 3.37253 19.9262C3.54179 20.1166 3.69786 20.3299 3.90112 20.4869C3.96838 20.5389 3.9356 20.5095 3.8937 20.4634C3.78895 20.3482 3.67638 20.2421 3.56193 20.1366C3.48376 20.0646 3.40189 19.9962 3.33416 19.9138C3.31843 19.8946 3.2902 19.8409 3.32797 19.8952C3.38934 19.9834 3.46229 20.182 3.55574 20.2381C3.56442 20.2433 3.55374 20.2176 3.54955 20.2084C3.50064 20.1008 3.43977 19.9981 3.38863 19.8915C3.23158 19.5642 3.08858 19.2283 2.97021 18.8851C2.67063 18.0163 2.50698 16.992 2.89594 16.1282C2.97937 15.9429 3.06752 15.7423 3.18561 15.5761C3.29209 15.4263 3.25576 15.572 3.22027 15.69C3.06522 16.2057 2.83426 16.7036 2.6335 17.2027C2.58498 17.3234 2.53895 17.4451 2.4899 17.5654C2.48436 17.579 2.43752 17.6725 2.48 17.6088C2.66949 17.3245 2.83103 17.0216 3.00859 16.7299C3.10349 16.5739 3.21752 16.4452 3.32425 16.3003C3.48103 16.0875 3.63578 15.8778 3.78723 15.6578C3.79662 15.6442 3.89667 15.4679 3.8219 15.5291C3.69805 15.6304 3.60169 15.7784 3.50128 15.9005C3.36679 16.064 3.22506 16.2241 3.10391 16.3981C3.09234 16.4147 2.99698 16.5352 3.01973 16.5665C3.07975 16.649 3.36543 16.5624 3.42576 16.5442C4.19047 16.3134 4.77994 15.7542 5.33711 15.2109C5.49317 15.0588 5.63906 14.8799 5.81865 14.7541C5.85174 14.731 5.90005 14.6989 5.94245 14.7083C6.0785 14.7386 5.87615 15.6404 5.85951 15.737C5.7964 16.1035 5.83654 16.5441 5.42376 16.6902C4.97495 16.8492 5.05402 15.1651 5.14275 14.9336C5.1686 14.8662 5.28726 14.5874 5.37672 14.5746C5.48306 14.5595 5.54014 14.6256 5.57231 14.7244C5.6896 15.0847 5.50418 15.554 5.27521 15.8262C5.15939 15.9639 4.97544 16.1352 4.78995 16.1728C4.65853 16.1994 4.5051 16.1777 4.37153 16.1777" stroke="#95B7FF" stroke-width="0.379522" stroke-linecap="round"/>
<path d="M20.7175 12.5835C20.7382 12.6133 20.7255 12.6005 20.7809 12.6234C20.9546 12.6952 21.1256 12.7644 21.2937 12.8499C21.8797 13.1479 22.3978 13.5653 22.9189 13.9611C23.6864 14.5441 24.4542 15.1286 25.1965 15.7436C25.4352 15.9413 25.6765 16.1341 25.9299 16.3127C26.2144 16.5132 26.475 16.7469 26.7584 16.9464C26.8028 16.9776 26.8895 17.011 26.9062 17.0614" stroke="black" stroke-width="0.759044" stroke-linecap="round"/>
<path d="M26.9697 17.3784C26.95 18.5036 26.4555 19.5552 26.383 20.6758C26.3765 20.7765 26.3783 21.0795 26.3783 20.9785C26.3783 20.5231 26.393 20.0654 26.3736 19.6103C26.3538 19.1468 26.2516 18.6863 26.2516 18.2233C26.2516 17.8949 26.1456 17.6677 25.9559 17.4113C25.7723 17.1632 25.6146 16.9222 25.395 16.7025C25.3207 16.6282 25.2454 16.5488 25.1755 16.4702C25.0489 16.3277 25.2821 16.5031 25.3199 16.5312C25.6245 16.758 25.9073 17.0123 26.2046 17.2482C26.339 17.3547 26.4594 17.4907 26.6107 17.5732C26.6579 17.599 26.9249 17.8457 26.9486 17.822" stroke="black" stroke-width="0.759044" stroke-linecap="round"/>
<path d="M27.2497 17.0557C27.2497 17.3798 27.2497 17.7039 27.2497 18.0281C27.2497 18.2944 27.242 18.5623 27.2562 18.8284C27.2767 19.2137 27.3773 19.5826 27.52 19.9399C27.6798 20.3402 27.8873 20.7198 28.0846 21.1022C28.305 21.5293 28.5128 21.9602 28.7715 22.3665C29.084 22.8574 29.4505 23.3207 29.8316 23.7604C30.0172 23.9746 30.2448 24.1498 30.4203 24.3741C30.4813 24.452 30.3853 24.3489 30.3737 24.3379C30.1762 24.1518 29.9737 23.9711 29.7978 23.7636C29.3592 23.2462 29.0685 22.6121 28.6943 22.0488C28.4698 21.711 28.2849 21.3642 28.1473 20.9823C28.0675 20.7608 28.0088 20.5232 27.9012 20.3139C27.7532 20.026 27.5529 19.7835 27.3189 19.5603C27.1518 19.4009 26.9804 19.2475 26.817 19.0841C26.7981 19.0652 26.7792 19.0403 26.7575 19.0246C26.7439 19.0148 26.7482 19.2483 26.7495 19.2627C26.7893 19.727 26.9487 20.1992 27.1267 20.6276C27.2427 20.9069 27.407 21.1907 27.6487 21.3813C27.7221 21.4391 27.6339 21.2814 27.6318 21.2775C27.4695 20.9684 27.2844 20.6729 27.1452 20.3517C26.9632 19.9321 26.8567 19.4952 26.9023 19.0391" stroke="black" stroke-width="0.759044" stroke-linecap="round"/>
<path d="M20.6978 12.521C20.7593 12.521 20.82 12.5347 20.8798 12.5483C21.2251 12.6268 21.5598 12.7441 21.8863 12.8804C22.7566 13.2436 23.5819 13.6936 24.467 14.0223C24.9547 14.2035 25.4208 14.4139 25.8818 14.6547C26.2388 14.841 26.5921 15.0431 26.96 15.2074C27.3411 15.3776 27.7248 15.5312 28.1167 15.6737C28.4602 15.7986 28.8178 15.9177 29.1392 16.0934C29.3245 16.1947 29.497 16.3269 29.6851 16.421C29.691 16.4239 29.7895 16.4818 29.7556 16.4915C29.4166 16.5883 29.1069 16.7895 28.7752 16.9225C28.2609 17.1288 27.7335 17.247 27.1784 17.266C27.0086 17.2718 26.2735 17.3405 26.2503 17.0294C26.2432 16.9341 26.4179 16.8678 26.4778 16.8406C26.7303 16.7263 26.9971 16.685 27.2717 16.6689C27.6691 16.6457 28.0454 16.6629 28.4363 16.728C28.5575 16.7482 28.6901 16.7741 28.8139 16.7576C28.8638 16.751 28.9082 16.7096 28.9584 16.6985C29.0326 16.682 29.1377 16.6247 29.0414 16.5336C28.8806 16.3814 28.5248 16.4021 28.326 16.3914C27.9471 16.3709 27.575 16.3381 27.2057 16.2458C26.9921 16.1924 26.7752 16.1401 26.5688 16.0627C26.2799 15.9543 26.051 15.7593 25.8113 15.5714C25.2105 15.1002 24.5214 14.7612 23.9119 14.3021C23.8148 14.2289 23.7166 14.1441 23.6071 14.0894C23.5838 14.0778 23.5557 14.0682 23.6026 14.086C23.8042 14.1625 23.9939 14.2865 24.1804 14.3919C24.8626 14.7777 25.5233 15.206 26.2128 15.5782C26.4929 15.7294 26.7524 15.805 27.0556 15.8796C27.375 15.9582 27.6826 16.1075 28.0064 16.1605C28.1343 16.1814 28.2692 16.1993 28.3908 16.2469C28.4555 16.2723 28.4711 16.3012 28.5387 16.2674" stroke="black" stroke-width="0.759044" stroke-linecap="round"/>
<path d="M29.726 16.5332C29.726 17.0614 29.7046 17.5933 29.792 18.1164C29.9616 19.1313 30.4737 20.0406 31.2251 20.7414C31.5325 21.0282 31.8694 21.2834 32.1895 21.5557C32.3903 21.7265 32.5819 21.9132 32.7923 22.0721C32.8221 22.0946 33.0607 22.2255 33.0607 22.2757C33.0607 22.3366 32.5657 22.1763 32.5478 22.1699C31.8355 21.9144 31.2334 21.2874 30.8349 20.6652C30.463 20.0844 30.2165 19.4332 29.8455 18.8534C29.5855 18.4472 29.406 18.0008 29.1619 17.5864C29.0718 17.4334 28.9803 17.2299 28.9526 17.0541C28.9451 17.0062 28.9272 16.9073 28.9731 17.0154C29.0952 17.3033 29.1537 17.6325 29.2392 17.9321C29.4219 18.5721 29.5808 19.219 29.7715 19.8565C29.8976 20.2778 30.0343 20.7096 30.2651 21.0871C30.4535 21.3952 30.6959 21.669 30.9498 21.9242C31.1432 22.1187 31.3411 22.3258 31.5697 22.4793C31.9227 22.7163 32.4436 22.8796 32.8765 22.8796C32.987 22.8796 32.8083 22.8152 32.7866 22.8045C32.321 22.5759 31.842 22.3758 31.3706 22.1597C30.9287 21.957 30.4728 21.7575 30.0968 21.4431C29.7801 21.1783 29.5479 20.8645 29.3416 20.5094C28.9607 19.8535 28.7937 19.0848 28.7525 18.3325C28.7249 17.8296 28.7082 17.2505 28.8707 16.7629C28.9563 16.5063 28.8212 17.3018 28.7889 17.5705C28.7295 18.0636 28.6982 18.5744 28.7502 19.0695C28.8257 19.7879 29.0931 20.386 29.5793 20.9188C30.2091 21.6089 31.0316 22.1107 31.7653 22.6806C31.8864 22.7746 32.0102 22.87 32.127 22.9695C32.1392 22.9799 32.197 23.0167 32.202 23.0343C32.217 23.0865 32.1008 23.0617 32.086 23.0604C31.6601 23.0239 31.2522 22.7999 30.8975 22.5782C29.7345 21.8513 28.8507 20.7855 28.3385 19.5199C28.0938 18.9154 27.9608 18.2793 27.838 17.641C27.7987 17.4363 27.8038 17.2077 27.7448 17.0086C27.7059 16.8774 27.8144 17.2733 27.8449 17.4067C27.9853 18.0227 28.087 18.6438 28.1861 19.2674C28.3121 20.0607 28.4404 20.865 29.0914 21.4067C29.744 21.9498 30.4948 22.3655 31.1443 22.916C31.2113 22.9728 31.2951 23.0247 31.3513 23.0934C31.3925 23.1438 31.1112 23.1121 31.1068 23.1116C30.6639 23.0648 30.2152 22.9346 29.8045 22.7659C29.4357 22.6143 29.0915 22.4146 28.8491 22.0914C28.5703 21.7196 28.4686 21.2882 28.3976 20.8369C28.3128 20.2974 28.2653 19.7525 28.1997 19.2105C28.1697 18.9629 28.1292 18.7275 28.1292 18.4781C28.1292 18.4432 28.1302 18.3443 28.1087 18.4394C28.0517 18.6913 28.0153 18.9497 27.9859 19.206C27.9472 19.5434 27.9095 19.9086 27.9722 20.2455C28.0417 20.6185 28.2428 20.9622 28.5 21.2373C29.1236 21.9043 30.0043 22.277 30.6598 22.9137C30.7635 23.0144 30.9251 23.2526 31.0795 23.2697C31.2376 23.2873 31.3518 23.2718 31.4957 23.1969C31.5306 23.1788 31.63 23.1164 31.6004 23.1423C31.448 23.2757 31.2926 23.4056 31.1375 23.5359C30.9308 23.7093 30.7268 23.8858 30.521 24.0602C30.4767 24.0977 30.4312 24.1334 30.3857 24.1694C30.3295 24.2138 30.4954 24.0771 30.5517 24.0329C30.8815 23.7744 31.2291 23.5432 31.5867 23.3254C31.7322 23.2368 31.8909 23.1056 32.0553 23.0525C32.17 23.0154 32.1121 23.109 32.069 23.1639C31.9098 23.3667 31.7133 23.5448 31.5185 23.7121C31.4403 23.7793 31.3663 23.8431 31.2978 23.9191C31.245 23.9779 31.4256 23.8259 31.4866 23.7758C31.6593 23.6343 31.8152 23.4733 31.9803 23.3232C32.0388 23.2699 32.1929 23.1914 32.2225 23.1173C32.2546 23.0371 32.1429 23.2721 32.0883 23.3391C31.8954 23.5761 31.6627 23.7803 31.4412 23.9897C31.3659 24.0608 31.1385 24.272 31.2171 24.2046C31.382 24.0632 31.564 23.9388 31.7323 23.8009C32.1442 23.4633 32.5912 23.1519 33.063 22.916C33.0715 22.9118 33.0975 22.9024 33.088 22.9024C33.0692 22.9024 33.0004 22.9445 32.9948 22.9478C32.7021 23.1194 32.4241 23.3194 32.1372 23.5006C31.6723 23.7943 31.2122 24.0698 30.7178 24.3081C30.621 24.3548 30.6433 24.3186 30.6018 24.2467C30.4236 23.9379 30.2722 23.6083 30.0559 23.3232C29.9377 23.1675 30.1171 23.3369 30.1855 23.3493C30.2571 23.3623 30.167 23.2112 30.165 23.2072C29.9748 22.8075 29.7511 22.4248 29.5577 22.0266C29.4396 21.7835 29.3241 21.5381 29.2176 21.2896C29.1979 21.2434 29.222 21.2698 29.2461 21.2941C29.3395 21.3887 29.426 21.4905 29.5088 21.5944C29.78 21.9347 30.0441 22.2908 30.2799 22.6567C30.3947 22.8347 30.5066 23.0328 30.5768 23.2345C30.5988 23.2977 30.4497 23.2057 30.438 23.1981C30.3103 23.1145 30.1805 23.0274 30.0581 22.9365C29.6834 22.6581 29.3893 22.3797 29.2051 21.9493C28.721 20.818 28.1771 19.7277 27.8744 18.5292C27.7869 18.1828 27.6808 17.7965 27.8949 17.4829C27.9193 17.4471 28.1804 17.0166 28.2611 17.0973C28.2897 17.1259 28.2725 17.2205 28.2725 17.2531C28.2725 17.4672 28.2783 17.6822 28.26 17.8957C28.2569 17.9313 28.1926 18.3592 28.1701 18.3143" stroke="black" stroke-width="0.759044" stroke-linecap="round"/>
<path d="M18.3591 12.5665C18.3591 12.5256 18.3546 12.5164 18.4031 12.5159C18.4574 12.5153 18.5157 12.5102 18.5681 12.5271C18.6728 12.5609 18.7717 12.6266 18.8548 12.6977C18.868 12.709 18.9216 12.7489 18.8754 12.7567C18.7738 12.7738 18.6534 12.7357 18.5624 12.6949C18.4526 12.6455 18.3466 12.5839 18.2504 12.5112C18.2284 12.4946 18.2061 12.4712 18.2007 12.4428C18.1888 12.3793 18.2094 12.3113 18.197 12.2479C18.1923 12.2242 18.1651 12.1465 18.1651 12.2141C18.1651 12.3195 18.1914 12.4845 18.1314 12.5796C18.128 12.5849 18.1433 12.5757 18.1492 12.5735C18.1874 12.5593 18.227 12.5479 18.2663 12.5374C18.433 12.493 18.6044 12.4746 18.7761 12.4625C18.895 12.4541 19.0177 12.4482 19.1312 12.4906C19.2 12.5163 19.2645 12.5537 19.3271 12.5918C19.4364 12.6583 19.5421 12.7256 19.6457 12.8007C19.7211 12.8555 19.7896 12.9251 19.8603 12.9863C19.9106 13.0298 19.9937 13.0745 20.0205 13.1381C20.0398 13.1838 20.0337 13.223 20.0392 13.2711C20.0462 13.3325 20.061 13.3949 20.0627 13.4567C20.0632 13.4785 20.0669 13.5437 20.0627 13.5223C20.0548 13.4828 20.0071 13.4182 19.9764 13.393C19.9288 13.3536 19.8733 13.3194 19.8181 13.2918C19.7849 13.2752 19.7407 13.2769 19.7047 13.2665C19.5648 13.2258 19.4114 13.232 19.268 13.2224C19.0156 13.2056 18.7634 13.2243 18.5109 13.2243C18.2675 13.2243 18.0324 13.1982 17.7931 13.1531C17.6245 13.1213 17.4519 13.1171 17.2843 13.0809C17.2065 13.0641 17.1369 13.0227 17.0585 13.005C16.9785 12.987 16.8992 12.9917 16.8186 12.9797C16.574 12.9433 16.3484 12.8516 16.1092 12.7923C16.0231 12.771 15.9441 12.7388 15.8562 12.7248C15.7935 12.7149 15.7449 12.6853 15.6857 12.6658C15.6151 12.6425 15.5409 12.6063 15.4767 12.5684C15.4613 12.5593 15.4257 12.5414 15.4177 12.5243C15.4118 12.5118 15.4672 12.4859 15.4749 12.4803C15.5651 12.4138 15.6608 12.361 15.7578 12.305C15.8544 12.2494 15.9488 12.1922 16.0465 12.1382C16.1335 12.0901 16.2123 12.0295 16.3013 11.9846C16.3971 11.9362 16.489 11.9 16.5928 11.8731C16.6907 11.8477 16.7794 11.8027 16.8814 11.7925C17.021 11.7785 17.161 11.7822 17.3012 11.7822C17.4018 11.7822 17.5077 11.7882 17.6048 11.8178C17.7151 11.8514 17.8306 11.9134 17.9206 11.9846C17.9546 12.0115 17.9863 12.0413 18.0199 12.0689C18.0334 12.08 18.0558 12.1044 18.0208 12.0848C17.9182 12.0276 17.8307 11.9652 17.7097 11.9527C17.6265 11.9442 17.5435 11.9359 17.4605 11.9274C17.262 11.9071 17.0527 11.9255 16.8533 11.9255C16.6464 11.9255 16.4691 12.0276 16.3004 12.1429C16.1917 12.2172 16.0784 12.2917 15.9781 12.3772C15.9101 12.4352 15.9885 12.3872 16.0183 12.3669C16.1655 12.2667 16.3289 12.1827 16.4859 12.0989C16.6248 12.0248 16.7741 11.9718 16.932 11.9611C17.0483 11.9533 17.1668 11.9593 17.2834 11.9593C17.3935 11.9593 17.5014 11.9646 17.6085 11.9911C17.8703 12.056 18.1099 12.1767 18.3319 12.3285C18.4218 12.3899 18.5186 12.4421 18.6074 12.5046C18.6161 12.5108 18.738 12.6026 18.6843 12.6068C18.4741 12.6229 18.2462 12.5402 18.0536 12.4653C18.003 12.4456 17.9937 12.4734 17.9815 12.5234C17.9578 12.62 17.9797 12.7153 18.0621 12.7754C18.0933 12.7982 18.1637 12.8345 18.1989 12.8111" stroke="black" stroke-width="0.379522" stroke-linecap="round"/>
<path d="M16.2422 12.6426C16.0446 12.6426 15.8469 12.651 15.65 12.651C15.5738 12.651 15.4785 12.6337 15.4223 12.6913C15.3976 12.7165 15.3721 12.739 15.3417 12.7569C15.3279 12.765 15.3134 12.7545 15.3061 12.7691" stroke="black" stroke-width="0.379522" stroke-linecap="round"/>
<path d="M15.3819 12.3218C15.4004 12.3403 15.5714 12.199 15.5844 12.1897C15.7164 12.0948 15.8534 12.008 15.9938 11.9259C16.1038 11.8617 16.2168 11.7919 16.3368 11.7484C16.4539 11.7059 16.5746 11.6722 16.6934 11.6345C16.9197 11.5626 17.1398 11.4711 17.3619 11.3876C17.5365 11.322 17.7273 11.3307 17.9036 11.3895C18.172 11.479 18.4126 11.6376 18.663 11.7652C18.8243 11.8474 18.9806 11.9381 19.1395 12.0248C19.2845 12.1039 19.433 12.1823 19.5659 12.2811C19.8028 12.4572 19.9889 12.6828 20.1262 12.944C20.1769 13.0403 20.2109 13.1488 20.2481 13.2509C20.2911 13.3692 20.3299 13.4868 20.3408 13.6122" stroke="black" stroke-width="0.379522" stroke-linecap="round"/>
<path d="M7.11232 13.0747C7.11232 13.1855 7.09432 13.3074 7.13798 13.4093C7.22692 13.6168 7.31917 13.8195 7.41266 14.0252C7.46646 14.1435 7.53777 14.2679 7.62176 14.3673C7.63834 14.3869 7.75027 14.5185 7.72441 14.4909C7.54076 14.2946 7.37458 14.0228 7.2777 13.7704C7.2286 13.6426 7.20676 13.506 7.16459 13.376C7.10529 13.1931 7.20107 13.4203 7.22542 13.4729C7.36253 13.7694 7.43862 14.1208 7.65123 14.3759C7.68118 14.4118 7.64773 14.5251 7.63507 14.5631C7.60847 14.6429 7.55174 14.7113 7.4887 14.7646C7.41254 14.8291 7.32124 14.8712 7.24918 14.9395C7.11675 15.065 6.97296 15.1789 6.82528 15.2855C6.62663 15.4288 6.46077 15.603 6.2436 15.7236C6.1143 15.7955 5.99661 15.8729 5.88148 15.965C5.53418 16.2429 6.53123 15.3571 6.84144 15.0383C7.06349 14.8102 7.17057 14.5747 7.18075 14.259C7.18177 14.2273 7.23455 13.7573 7.15034 13.7666C7.12554 13.7694 7.21137 14.2149 7.21592 14.239C7.24236 14.3791 7.27678 14.5159 7.31762 14.6525C7.3251 14.6775 7.36622 14.7646 7.34993 14.7931C7.32359 14.8392 7.02103 14.8026 6.96785 14.8026C6.79789 14.8026 6.75736 14.769 6.77301 14.5916C6.789 14.4104 6.8659 14.2214 6.96215 14.067C7.00125 14.0042 7.05598 13.9136 7.0781 14.0347C7.11208 14.2205 7.10078 14.3984 6.97165 14.546C6.88954 14.6398 6.77592 14.6687 6.66751 14.6144" stroke="#95B7FF" stroke-width="0.379522" stroke-linecap="round"/>
<path d="M29.7463 19.9629C29.8022 19.9789 29.8818 20.1334 29.9089 20.172C30.067 20.3973 30.2202 20.6257 30.3685 20.8575C30.6098 21.2348 30.8045 21.652 31.2102 21.8683" stroke="#95B7FF" stroke-width="0.379522" stroke-linecap="round"/>
<path d="M30.7456 22.6813C30.4732 22.5127 30.2598 22.185 30.064 21.9416C29.8129 21.6296 29.6799 21.2768 29.5838 20.8921" stroke="#95B7FF" stroke-width="0.379522" stroke-linecap="round"/>
<path d="M23.1561 13.8989C23.4618 13.8989 23.6841 13.9233 23.9848 14.0477C25.3604 14.6172 26.6506 15.3936 27.9468 16.1201" stroke="#95B7FF" stroke-width="0.379522" stroke-linecap="round"/>
<path d="M8.00342 22.8418C7.78233 22.8418 7.56124 22.8418 7.34016 22.8418C7.0936 22.8418 6.85266 22.8365 6.61357 22.7685C6.3947 22.7062 6.18823 22.6082 5.98697 22.5036C5.51488 22.2581 5.17791 21.8287 5.04874 21.312" stroke="black" stroke-width="0.379522" stroke-linecap="round"/>
</svg>
