<svg width="36" height="38" viewBox="0 0 36 38" fill="none" xmlns="http://www.w3.org/2000/svg">
<rect x="-0.519772" y="0.519772" width="34.305" height="35.8643" rx="4.67795" transform="matrix(-1 0 0 1 34.3049 0.711426)" fill="#F4FF95" stroke="black" stroke-width="1.03954"/>
<path d="M16.1106 11.7053C16.3865 11.6492 16.6623 11.5931 16.9381 11.537C17.4821 11.4264 17.8299 11.1618 18.2833 10.8573C18.7726 10.5287 19.2292 10.1507 19.7278 9.83357C20.7749 9.16767 22.1114 8.85637 23.335 8.74532C25.6838 8.53219 28.2042 10.2866 28.7555 12.6221C28.8949 13.2129 28.9964 13.795 28.8685 14.3959C28.693 15.2206 28.3735 16.0215 28.0247 16.7832C27.1383 18.7193 25.7767 20.5082 24.3469 22.0602C22.934 23.5939 21.4278 25.0099 19.8136 26.3237C18.7127 27.2197 17.6352 28.1438 16.572 29.0855C15.8503 29.7247 15.165 30.4235 14.3945 31.0037C13.7217 31.5104 12.9657 31.9994 12.19 32.3285C12.0225 32.3996 11.8318 32.5578 11.6393 32.5536C11.2841 32.5459 10.9876 31.4887 10.9118 31.2749C10.5603 30.2832 10.3543 29.2417 10.1426 28.2131C9.93795 27.2184 9.73849 26.2277 9.63436 25.2165C9.33626 22.3217 9.00917 19.4431 8.61468 16.5609C8.47533 15.5428 8.32417 14.5289 8.29795 13.4996C8.26698 12.284 8.4466 11.0154 8.69946 9.83215C8.91215 8.83686 9.27746 7.83299 9.76501 6.94476C10.191 6.16861 10.7198 5.57322 11.5935 5.32369C12.2942 5.12356 12.991 5.00832 13.6878 5.28339C14.2722 5.51409 14.7966 5.82919 15.2889 6.22248C16.0052 6.7948 16.7009 7.45417 17.2223 8.21214C17.4802 8.58692 17.7104 8.93789 17.9067 9.35307C17.9945 9.53887 18.261 9.79149 18.4681 9.82754C18.6771 9.86391 18.8618 9.8202 19.0687 9.8108C19.4333 9.79424 19.7788 9.82764 20.0947 9.5996" stroke="black" stroke-width="1.03954" stroke-linecap="round"/>
<path d="M21.0308 15.448C20.5818 15.448 21.9288 15.4409 22.3777 15.448C23.0463 15.4585 23.7848 15.6484 24.2412 16.1728C24.499 16.469 24.7183 16.7957 24.88 17.1532C24.9331 17.2707 24.9665 17.3892 25.005 17.5115C25.0085 17.5226 25.0371 17.6455 25.0425 17.6434C25.1327 17.6073 24.5537 16.705 24.5189 16.6588C24.24 16.2886 23.8489 16.0683 23.4553 15.8479C22.867 15.5184 22.0444 15.473 21.3821 15.473C21.1144 15.473 20.8568 15.5292 20.61 15.6341C20.5621 15.6544 20.3241 15.7228 20.3559 15.7785C20.4068 15.8676 20.4134 15.9803 20.4364 16.0784C20.4873 16.2951 20.5602 16.504 20.6433 16.7102C20.8325 17.1795 21.1249 17.4684 21.5196 17.7781C22.232 18.337 22.9829 18.7208 23.8941 18.8029C24.2444 18.8344 24.6698 18.7326 24.93 18.4724" stroke="black" stroke-width="1.03954" stroke-linecap="round"/>
<path d="M23.2054 16.7224C23.2054 17.2174 23.2844 17.8693 22.7916 18.168C22.693 18.2277 22.4288 18.2717 22.3445 18.1652C22.1558 17.9269 22.2121 17.4851 22.3112 17.2279C22.397 17.0051 22.5139 16.7735 22.7555 16.6974C22.8585 16.665 23.0836 16.6332 23.1804 16.6905C23.342 16.786 23.3456 17.1686 23.2887 17.3223C23.2168 17.5168 22.9679 17.5796 22.7833 17.5709C22.5319 17.5589 22.4781 17.2556 22.4847 17.0501C22.4928 16.7988 22.6758 16.4897 22.9305 16.4225C23.0409 16.3933 23.2179 16.3697 23.3304 16.4086C23.5217 16.4748 23.4804 16.7011 23.4804 16.8599C23.4804 17.3362 23.1359 17.7555 22.6555 17.8166C22.4411 17.8439 22.3881 17.6047 22.382 17.4459C22.3722 17.1926 22.439 17.0012 22.5306 16.7724" stroke="black" stroke-width="1.03954" stroke-linecap="round"/>
<path d="M16.7567 15.3979C16.7567 14.5255 16.8305 13.6876 16.3095 12.9318C15.9701 12.4393 15.5237 11.9262 14.9709 11.6737C14.4874 11.4528 13.9003 11.3545 13.3684 11.3487C13.2463 11.3474 13.124 11.3487 13.0019 11.3487C12.7004 11.3487 12.5177 11.721 12.3825 11.9431C12.1946 12.2518 12.1306 12.5477 12.1326 12.9095C12.1367 13.6679 12.3495 14.4555 12.7227 15.1174C13.2467 16.0467 14.3795 16.5425 15.393 16.6588C15.7072 16.6948 16.0873 16.6447 16.2943 16.3963C16.4258 16.2385 16.3884 16.0275 16.4456 15.8478C16.4952 15.6919 16.5006 15.546 16.5081 15.384C16.5173 15.1869 16.5567 14.9967 16.5567 14.798" stroke="black" stroke-width="1.03954" stroke-linecap="round"/>
<path d="M16.1067 13.7981C15.8852 13.969 15.7069 14.1855 15.4679 14.3355C15.2283 14.486 14.9665 14.5724 14.6903 14.6285C14.3091 14.7059 13.7606 14.6807 13.6572 14.2036C13.4419 13.2109 14.9014 12.8031 15.6262 12.7983C15.876 12.7967 16.2276 12.7732 16.2539 13.101C16.2898 13.5504 16.0413 13.9013 15.7206 14.1939C15.4214 14.4668 15.0324 14.5859 14.632 14.6174C14.4377 14.6327 14.1333 14.6639 14.0724 14.4202C13.9982 14.1238 14.3657 13.7675 14.5681 13.6037C14.8105 13.4075 15.0665 13.2654 15.3818 13.2496C15.4433 13.2465 15.7067 13.2094 15.7067 13.3177C15.7067 13.4702 15.3901 13.5709 15.2832 13.6218C15.0914 13.7131 14.8941 13.7761 14.6986 13.8537C14.6265 13.8823 14.5339 13.9481 14.457 13.9481" stroke="black" stroke-width="1.03954" stroke-linecap="round"/>
<path d="M14.4322 19.5968C14.67 19.4521 14.9 19.3182 15.1654 19.2261C15.6067 19.0729 16.0727 19.0738 16.5346 19.0719C16.977 19.0702 17.4008 19.0785 17.808 19.2775C18.21 19.4739 18.589 19.8299 18.8272 20.2078C18.8691 20.2744 19.1331 20.6199 19.0647 20.7133C18.7736 21.1102 18.5538 21.5204 18.1176 21.7936C17.7955 21.9954 17.3824 22.0522 17.0109 22.0825C16.5806 22.1175 16.1383 22.1433 15.707 22.1102C15.0731 22.0617 14.4745 21.8382 14.0337 21.3715C13.8027 21.1268 13.7809 20.7436 13.8101 20.4217C13.8305 20.1979 13.9888 20.0274 14.0573 19.8218" stroke="black" stroke-width="1.03954" stroke-linecap="round"/>
<path d="M16.3567 19.5722C16.5551 19.5722 16.5066 20.2644 16.5066 20.3748C16.5066 20.6291 16.5373 21.1251 16.2261 21.2468C16.0334 21.3222 15.9197 21.1526 15.8456 20.9969C15.6763 20.6407 15.5676 20.2142 15.611 19.8166C15.6575 19.3902 16.3695 19.3375 16.6399 19.5527C16.8128 19.6904 16.9035 19.9472 16.9315 20.1582C16.9641 20.4033 16.995 20.7088 16.9413 20.9538C16.9053 21.1175 16.7318 21.1592 16.5816 21.1385C16.2327 21.0904 16.0635 20.6435 16.0123 20.347C15.9674 20.0871 15.9412 19.5472 16.3317 19.5472C16.6529 19.5472 16.671 19.9898 16.6816 20.222" stroke="black" stroke-width="1.03954" stroke-linecap="round"/>
<path d="M10.2578 19.3467C10.426 19.3467 10.6097 19.3251 10.7716 19.3773C11.0728 19.4743 11.3292 19.8499 11.5048 20.0938C11.9623 20.7293 12.0988 21.4571 12.0824 22.2323C12.0734 22.6599 11.85 23.0242 11.6603 23.3931C11.6185 23.4745 11.5098 23.7582 11.5339 23.5292C11.5426 23.4474 11.5524 23.3669 11.5589 23.2848C11.5613 23.2558 11.5845 23.1306 11.5825 23.2321C11.5772 23.5045 11.4307 23.837 11.2715 24.0541C11.1833 24.1744 11.1107 24.0757 11.0021 23.9889C10.6867 23.7365 10.4603 23.4248 10.2023 23.121C9.84253 22.6974 9.47967 22.3029 9.37049 21.7449C9.27073 21.235 9.25293 20.6766 9.45798 20.191C9.50989 20.0681 9.57959 19.9401 9.64544 19.823C9.68305 19.7562 9.75792 19.6741 9.75792 19.5967" stroke="black" stroke-width="1.03954" stroke-linecap="round"/>
<path d="M11.6077 21.3466C11.4847 21.3466 11.3555 21.5014 11.2591 21.5688C11.1645 21.6351 10.9685 21.5966 10.8578 21.5966C10.6456 21.5966 10.4518 21.4792 10.5134 21.2272C10.5689 21.0004 11.122 20.7154 11.3452 20.8356C11.5101 20.9244 11.4827 21.0805 11.4827 21.2411C11.4827 21.4563 11.3121 21.7754 11.0814 21.8215C10.9048 21.8568 10.6249 21.9606 10.5384 21.7271C10.3394 21.1898 11.0916 20.6887 11.5577 20.9217" stroke="black" stroke-width="1.03954" stroke-linecap="round"/>
<path d="M14.4569 26.5206C14.4569 26.2725 14.6246 26.0699 14.7943 25.8957C15.0999 25.582 15.6536 25.4766 16.0733 25.4513C16.7345 25.4115 17.4204 25.48 17.9756 25.8707C18.4265 26.188 17.9876 26.8874 17.8021 27.2121C17.2702 28.1429 16.0169 28.7602 15.0846 28.0091C14.7191 27.7148 14.5977 27.2427 14.4569 26.8205" stroke="black" stroke-width="1.03954" stroke-linecap="round"/>
<path d="M16.1818 26.1206C16.2522 26.2702 16.2068 26.5101 16.2068 26.6691C16.2068 26.7032 16.2241 27.1709 16.1318 27.0093C16.0267 26.8253 15.9591 26.6559 15.9124 26.4455C15.8897 26.3436 15.8707 26.0678 15.9818 26.2844C16.0875 26.4905 16.1434 26.7332 16.2568 26.9315C16.2974 27.0027 16.4461 26.981 16.4942 26.9329C16.6086 26.8185 16.7935 26.0829 16.5317 25.9956" stroke="black" stroke-width="1.03954" stroke-linecap="round"/>
<path d="M25.5049 11.4488C25.4943 11.5442 25.3595 11.6679 25.3022 11.7362C25.1761 11.8865 24.9791 12.1134 24.8009 12.1972C24.5597 12.3107 24.3022 12.3711 24.04 12.4111C23.7831 12.4502 23.4512 12.5132 23.2179 12.375C22.8654 12.166 22.6207 11.8352 22.3611 11.5237C22.1988 11.3289 21.9908 10.9982 22.1001 10.7433C22.1894 10.5349 22.28 10.3023 22.4431 10.1393C22.6451 9.93724 22.9138 9.8389 23.179 9.75048C23.7848 9.54856 24.4878 9.55879 25.0648 9.83657C25.5478 10.0692 25.5299 10.6271 25.5299 11.0738" stroke="black" stroke-width="1.03954" stroke-linecap="round"/>
<path d="M24.2302 10.3487C24.2302 10.546 24.287 10.844 24.1858 11.018C24.0996 11.1662 23.943 11.1821 23.7998 11.0929C23.4341 10.8654 23.5554 10.3218 23.5554 9.94873" stroke="black" stroke-width="1.03954" stroke-linecap="round"/>
<path d="M17.3783 10.1782C17.4356 10.1782 17.7921 10.1782 17.6558 10.1782C17.5555 10.1782 17.2647 10.1653 17.2647 10.0079C17.2647 9.94356 17.4828 9.97365 17.5221 9.97889C17.7154 10.0047 17.7045 10.2207 17.5599 10.3095C17.472 10.3635 17.2339 10.4172 17.2092 10.2691C17.1854 10.1261 17.7923 10.1747 17.8855 10.1795C17.9816 10.1844 18.0369 10.2017 18.0369 10.3044C18.0369 10.5674 17.41 10.515 17.2672 10.4697C16.8765 10.3458 16.5523 9.97971 16.4168 9.59786C16.3641 9.44916 16.358 9.2875 16.3285 9.13355C16.2859 8.91112 16.222 8.69377 16.1342 8.48504C16.0836 8.36482 15.8662 7.9077 16.1443 8.20999C16.5525 8.65361 16.7914 9.20283 17.0553 9.73664C17.0587 9.74353 17.1234 9.88974 17.136 9.88552C17.1426 9.88334 16.8633 9.35134 16.8509 9.32785C16.7086 9.05838 16.5495 8.7933 16.4269 8.51406C16.367 8.37757 16.4485 8.40995 16.5354 8.49261C16.8569 8.79825 17.0615 9.25771 17.2357 9.65589C17.4325 10.1058 17.6026 10.5785 17.7227 11.0551C17.7249 11.0638 17.8054 11.4037 17.777 11.3907C17.7044 11.3577 17.6343 11.2503 17.5902 11.1926C17.4642 11.0279 17.3512 10.8531 17.2445 10.6753C16.9115 10.1204 16.6605 9.51821 16.4017 8.92663C16.39 8.89999 16.164 8.53406 16.1569 8.54812C16.1391 8.58387 16.1558 8.69189 16.1582 8.71593C16.1796 8.92748 16.2279 9.13507 16.2705 9.34299C16.3835 9.89507 16.4736 10.4518 16.5884 11.0034C16.6159 11.1354 16.6419 11.2677 16.6692 11.3996C16.693 11.5145 16.4406 11.3366 16.3386 11.2784C15.912 11.0351 15.5015 10.7578 15.0971 10.4798C14.9018 10.3455 14.7074 10.2089 14.5192 10.0647C14.5015 10.0511 14.369 9.96451 14.3577 9.92337C14.3461 9.88077 14.4451 9.94278 14.4839 9.96375C14.636 10.0458 14.7799 10.1462 14.923 10.2426C15.2746 10.4794 15.6214 10.7261 15.9614 10.9794C16.0729 11.0625 16.2893 11.1794 16.3639 11.3037C16.4051 11.3724 16.2183 11.2365 16.1468 11.2002C15.8903 11.0697 15.632 10.943 15.3734 10.8167C14.9919 10.6302 14.5997 10.4549 14.2328 10.2401C14.2102 10.2268 14.0989 10.1754 14.0827 10.1429C14.0485 10.0746 14.2274 10.1926 14.2972 10.2237C14.6777 10.3931 15.1076 10.6137 15.4327 10.8823C15.573 10.9982 15.0768 10.8043 14.9028 10.751C14.5933 10.6563 14.2957 10.5475 13.9944 10.4306C13.8439 10.3722 14.0051 10.4052 14.0726 10.4154C14.2181 10.4374 14.3664 10.4834 14.5016 10.5416C14.5082 10.5445 14.6476 10.6003 14.5899 10.6047C14.1086 10.6417 13.5807 10.5338 13.1112 10.4432C12.8724 10.3971 12.6358 10.3333 12.4072 10.2502C12.257 10.1955 12.3532 10.2038 12.4463 10.2401C12.6243 10.3095 12.7984 10.3893 12.9762 10.4596C13.012 10.4738 13.1377 10.5075 13.1503 10.5517C13.1554 10.5696 13.1146 10.5652 13.096 10.5643C12.9777 10.5589 12.8628 10.5299 12.7491 10.4987C12.3235 10.3818 11.8981 10.248 11.4823 10.1C11.2934 10.0327 11.0958 9.96539 10.9158 9.87543C10.8331 9.83408 11.0865 9.9469 11.1694 9.98772C11.4041 10.1032 11.637 10.2292 11.8772 10.3322C12.0544 10.4081 11.521 10.1832 11.3524 10.0899C11.0323 9.91277 10.6988 9.72924 10.444 9.46159C10.2587 9.26704 10.1886 9.08052 10.4869 8.96701C10.9572 8.788 11.3722 9.15684 11.4584 9.60543C11.478 9.70762 11.5043 9.88601 11.418 9.96753C11.2033 10.1703 10.902 9.91509 10.7808 9.74421C10.466 9.30033 10.502 8.65717 10.502 8.13807C10.502 7.98735 10.4809 7.64815 10.5752 7.51353C10.6017 7.47557 10.5864 7.60613 10.5827 7.65231C10.5693 7.82219 10.5312 7.98479 10.4793 8.1469C10.3649 8.50416 10.2144 8.8733 10.0162 9.19285C9.98262 9.24705 9.86114 9.44408 9.81815 9.28748C9.73975 9.00186 9.78979 8.63393 9.84086 8.34877C9.87952 8.13295 9.92303 7.9071 9.99731 7.70026C10.0026 7.68567 10.1034 7.4883 10.1058 7.50091C10.1582 7.77053 9.94993 8.14755 9.84339 8.37653C9.70447 8.67507 9.53341 8.95565 9.37656 9.24458C9.36839 9.25963 9.36024 9.27469 9.35259 9.29C9.34045 9.31426 9.37982 9.24307 9.39296 9.21935C9.47809 9.06563 9.55735 8.90942 9.63142 8.74999C9.86093 8.25603 10.0485 7.74922 10.2421 7.241C10.2784 7.14554 10.3145 7.05065 10.3455 6.95333C10.3539 6.92713 10.3642 6.85405 10.3783 6.87763C10.3976 6.90971 10.3834 7.04967 10.3834 7.06815C10.3834 7.28163 10.3805 7.4946 10.3683 7.70783C10.3489 8.04607 10.3131 8.38243 10.2711 8.71845C10.2704 8.72377 10.2181 9.0748 10.2686 8.93294C10.5593 8.11615 10.7621 7.27105 11.0584 6.45622C11.1408 6.22957 11.107 6.60745 11.1063 6.66188C11.0987 7.29628 11.0172 7.9249 10.8956 8.54686C10.8548 8.75594 10.806 8.96305 10.7619 9.1714C10.7446 9.25322 10.7384 9.3551 10.7026 9.43257C10.6866 9.46732 10.6775 9.35854 10.6786 9.32028C10.6863 9.07054 10.7311 8.82217 10.7758 8.57714C10.8576 8.12879 10.9607 7.6864 11.0773 7.24605C11.1174 7.09494 11.1455 6.93394 11.2186 6.79436C11.2373 6.75869 11.247 6.78366 11.2514 6.81455C11.2846 7.04279 11.273 7.28403 11.2641 7.51353C11.2529 7.79882 11.223 8.08688 11.1505 8.36391C11.1034 8.54406 11.0853 8.40802 11.0874 8.30083C11.0958 7.87909 11.1659 7.44029 11.3423 7.05427C11.4455 6.82846 11.6121 6.56351 11.9 6.62024C12.2585 6.69092 12.3995 7.03506 12.503 7.34572C12.6629 7.82532 12.7349 8.32227 12.7201 8.82696C12.7149 9.00229 12.7182 9.23766 12.5485 9.34425C12.3891 9.44433 12.2288 9.35498 12.1157 9.2307C11.763 8.84318 11.4316 8.05297 11.8293 7.58544C11.9356 7.46045 12.0869 7.34957 12.2558 7.3432C12.4615 7.33543 12.4692 7.50513 12.4816 7.67629C12.5033 7.97563 12.4986 8.28674 12.4097 8.57588C12.3682 8.71062 12.2972 8.88947 12.1548 8.94682C11.7212 9.12149 11.8064 7.62503 11.905 7.42268C12.0278 7.17079 12.2699 6.84699 12.5863 6.86754C12.8781 6.88649 13.1126 7.17439 13.2525 7.4025C13.4176 7.67175 13.5202 7.98726 13.5528 8.30083C13.5654 8.42172 13.6056 8.66798 13.4291 8.70457C13.1166 8.76939 12.7854 8.25628 12.6784 8.03335C12.5439 7.75305 12.4027 7.22684 12.5737 6.93315C12.7484 6.63304 13.1604 6.79309 13.3837 6.93062C13.8405 7.21193 14.1143 7.77075 14.3149 8.2491C14.4347 8.53501 14.5067 8.85098 14.5155 9.16131C14.5171 9.21776 14.5584 9.43731 14.441 9.34552C14.2756 9.2162 14.1466 9.01076 14.0322 8.84084C13.7938 8.48655 13.5801 8.11591 13.3837 7.73685C13.2643 7.50627 13.1446 7.27065 13.0834 7.01642C13.0585 6.91288 12.9726 6.64371 13.0721 6.54959C13.144 6.48152 13.2988 6.5538 13.3522 6.57608C13.6729 6.70989 13.954 6.94484 14.2063 7.17792C14.9564 7.87063 15.5792 8.70684 16.1342 9.56C16.3222 9.84897 16.5114 10.1452 16.6768 10.4482C16.7318 10.5491 16.7281 10.5683 16.6339 10.4886C16.1059 10.0422 15.6237 9.54041 15.2157 8.98215C15.1936 8.95193 15.0374 8.7229 15.0668 8.75883C15.2502 8.98294 15.4127 9.22666 15.5374 9.48809C15.6203 9.66187 15.6953 9.8401 15.7658 10.0193C15.7925 10.0871 15.8493 10.2197 15.7305 10.1202C15.3107 9.76849 14.9261 9.34819 14.5697 8.9342C14.3477 8.67626 14.0379 8.36752 13.9187 8.03587C13.8706 7.90203 14.2883 8.06042 14.3098 8.06868C14.6102 8.1841 14.9069 8.32292 15.193 8.4699C15.2227 8.48518 15.4832 8.66395 15.5059 8.57588C15.5698 8.32741 15.4867 8.00345 15.4201 7.76587C15.3623 7.55964 15.2912 7.35421 15.1892 7.1653C15.1543 7.1006 15.0583 7.00655 15.1917 7.05932C15.3819 7.13449 15.567 7.2408 15.7418 7.34572C15.8278 7.39732 15.9413 7.4477 16.0194 7.50848C16.333 7.75239 15.3661 7.05571 15.0504 6.81455C14.7785 6.60686 14.4925 6.44281 14.1698 6.32753C13.9413 6.24594 13.714 6.16342 13.4872 6.07771C13.3858 6.03942 13.2362 6.06762 13.1314 6.06762C12.9096 6.06762 12.6948 6.11304 12.4728 6.11304C12.3365 6.11304 12.2002 6.11304 12.064 6.11304C11.7467 6.11304 11.4272 6.18678 11.1556 6.35276C11.0422 6.42205 10.9592 6.56492 10.883 6.67071C10.7282 6.88571 10.7468 7.17805 10.8603 7.40754C11.0782 7.8479 11.3897 8.33386 11.8343 8.56831C12.195 8.75848 12.6153 8.78656 12.9774 8.97458C13.2466 9.11434 13.4988 9.25438 13.7446 9.43383C13.7823 9.46137 14.0825 9.69859 13.9111 9.70131C13.3516 9.7102 12.5969 9.55182 12.2583 10.124C12.0264 10.5158 11.8958 11.0143 11.7801 11.4513C11.661 11.901 11.5343 12.3461 11.4079 12.7937C11.3653 12.9446 11.3005 13.1334 11.2918 13.2896C11.29 13.323 11.3278 13.2325 11.3398 13.2013C11.4872 12.8171 11.7171 12.4928 11.9731 12.1717C12.3017 11.7598 12.6779 11.4241 13.1364 11.1725C13.3152 11.0744 13.4497 10.932 13.6033 10.8015C13.6464 10.7648 13.688 10.7387 13.742 10.7233C13.7976 10.7074 13.5575 10.6897 13.5503 10.6892C12.9019 10.6487 12.2234 10.7545 11.7599 11.2545C11.3403 11.707 11.171 12.3877 11.0117 12.9716C11.0103 12.9768 10.9773 13.1484 10.9385 13.0991C10.8996 13.0495 10.8969 12.9422 10.8931 12.8884C10.8756 12.6406 10.8797 12.388 10.8893 12.1402C10.9163 11.4441 11.0882 10.7766 11.2716 10.1076C11.3525 9.81263 11.4263 9.46007 11.5871 9.19411C11.6101 9.15606 11.6568 9.09093 11.7006 9.07046C11.7097 9.06624 11.6984 9.09108 11.693 9.09948C11.6282 9.20039 11.5744 9.30727 11.524 9.41617C10.9636 10.6273 10.6279 11.9197 10.184 13.1735C10.1513 13.266 10.1175 13.4773 10.0427 13.552C10.042 13.5527 10.029 13.0136 10.0301 12.9918C10.0661 12.2717 10.1908 11.5601 10.29 10.8469C10.3718 10.2595 10.434 9.6668 10.5323 9.08182C10.5348 9.06677 10.5975 8.64149 10.6219 8.64149C10.6537 8.64149 10.6233 9.19243 10.6231 9.19411C10.5628 9.94762 10.3888 10.6999 10.2585 11.4437C10.1607 12.0021 10.0637 12.5615 9.95568 13.118C9.94849 13.155 9.93425 13.3879 9.8825 13.4095C9.79278 13.4468 9.74144 12.5677 9.74119 12.5616C9.70617 11.7212 9.71773 10.8752 9.72983 10.0344C9.7367 9.55738 9.78639 9.08255 9.79292 8.60616C9.79292 8.60565 9.79292 8.39806 9.79292 8.49513C9.79292 8.68661 9.75634 8.86579 9.71217 9.0528C9.4 10.3745 9.11036 11.6889 8.90216 13.0322C8.8903 13.1087 8.89878 13.3625 8.83403 13.4208C8.767 13.4811 8.79325 13.2435 8.79365 13.1533C8.79733 12.33 8.94413 11.5115 9.08763 10.7031C9.12487 10.4933 9.18089 10.2902 9.22389 10.0823C9.23648 10.0215 9.26286 10.0034 9.28319 10.0773C9.37923 10.4265 9.42925 10.7962 9.49011 11.1523C9.61584 11.8879 9.72268 12.6262 9.82572 13.3653C9.87499 13.7187 9.93292 14.0708 9.9847 14.4239C9.99175 14.4719 9.99417 14.6234 10.0427 14.6598C10.0832 14.6902 10.5256 12.947 10.9234 13.9331C11.1435 14.4785 11.2076 15.0829 11.3347 15.654C11.3746 15.8331 11.3863 16.0972 11.4912 16.2546C11.5134 16.2879 11.5582 16.3008 11.5921 16.2722C11.6524 16.2215 11.6727 16.1182 11.6893 16.0489C11.7374 15.8473 11.7627 15.6385 11.7763 15.432C11.8194 14.7759 11.7305 14.1058 11.7927 13.4523C11.8073 13.2989 11.8789 13.7485 11.9176 13.8977C12.0157 14.2759 12.067 14.6553 12.1081 15.0434C12.1351 15.2973 12.1471 15.5536 12.199 15.8042C12.2085 15.8501 12.2431 15.9297 12.2431 15.977C12.2431 16.0157 12.1981 15.9139 12.1775 15.8811C12.0476 15.6742 11.928 15.4621 11.8129 15.2465C11.4297 14.5284 11.0759 13.7951 10.7405 13.0537C10.6611 12.8783 10.6754 12.909 10.6055 12.7584C10.5809 12.7055 10.5448 12.5485 10.5247 12.6032C10.4947 12.685 10.5439 12.9252 10.5512 12.9855C10.5917 13.3192 10.6553 13.6486 10.719 13.9785C10.8407 14.6081 10.9512 15.2356 10.9512 15.8786C10.9512 15.9839 10.7869 15.8802 10.7468 15.8508C10.5657 15.7182 10.5082 15.4375 10.3607 15.2654" stroke="black" stroke-width="1.03954" stroke-linecap="round"/>
<path d="M10.3607 15.2651C10.3607 15.5957 10.3607 15.9263 10.3607 16.2568C10.3607 16.505 10.3607 16.7531 10.3607 17.0012C10.3607 17.0935 10.3907 17.2475 10.3582 17.3368C10.3394 17.3886 10.2707 17.2681 10.2371 17.2245C10.0124 16.9332 9.82066 16.6158 9.64662 16.2921C9.30881 15.664 8.98273 14.9748 8.82021 14.2759C8.80077 14.1924 8.7878 14.1069 8.76217 14.0249C8.7589 14.0144 8.83869 14.1643 8.84923 14.1876C9.07995 14.6992 9.15133 15.278 9.22269 15.8291C9.24518 16.0028 9.26618 16.1769 9.28073 16.3514C9.29348 16.5044 9.29657 16.658 9.2883 16.383C9.26147 15.491 9.28074 14.5991 9.26937 13.7069C9.26744 13.5551 9.24089 13.3929 9.25171 13.2414C9.25407 13.2082 9.34015 13.4536 9.34255 13.4609C9.5486 14.0912 9.74618 14.7276 9.90653 15.3711C10.0521 15.9555 10.2109 16.5037 10.2346 17.1097C10.2356 17.135 10.2633 17.9471 10.2144 17.9349C10.1188 17.911 10.0716 17.6366 10.0554 17.5766C9.93689 17.1365 9.87996 16.6849 9.83083 16.2328C9.81822 16.1168 9.7998 16.0001 9.79424 15.8834C9.79206 15.8377 9.78856 15.7473 9.79803 15.8556C9.85055 16.4567 9.84391 17.0619 9.83714 17.6649C9.8334 17.9975 9.8469 18.4287 9.70214 18.7424C9.68049 18.7893 9.63432 18.7896 9.60625 18.7525C9.43861 18.5309 9.42128 18.2056 9.39807 17.9399C9.39378 17.8908 9.33715 17.357 9.39428 17.3368C9.46352 17.3124 9.47503 18.1897 9.47503 18.2566C9.47503 18.2952 9.51358 18.8896 9.42961 18.8938C9.27511 18.9015 9.22774 17.2883 9.22774 17.1059C9.22774 17.0604 9.21694 16.35 9.34381 16.4107C9.43951 16.4566 9.51585 16.5883 9.57092 16.6707C9.77097 16.97 9.89995 17.3017 10.0188 17.6396C10.1515 18.0167 10.2452 18.4402 10.4289 18.7979C10.4586 18.8557 10.4516 18.7415 10.4516 18.7398C10.4544 18.3824 10.4516 18.0248 10.4516 17.6674C10.4516 17.4294 10.4516 17.1913 10.4516 16.9533C10.4516 16.9364 10.4289 16.6907 10.4617 16.6782C10.5122 16.659 10.6046 16.7952 10.6207 16.817C10.7825 17.0369 10.9039 17.293 10.9929 17.5501C11.1367 17.9661 11.2305 18.4188 11.2237 18.861C11.2229 18.914 11.2291 19.027 11.1405 19.0023C10.9354 18.9452 10.8526 18.6295 10.8086 18.4585C10.7143 18.0916 10.6929 17.7088 10.6825 17.3318C10.6747 17.05 10.6774 16.7873 10.7594 16.5167C10.8278 16.2911 10.918 16.1553 11.0559 16.4473C11.2941 16.9517 11.3346 17.5447 11.4496 18.085C11.4872 18.2616 11.5182 18.4415 11.5644 18.6162C11.5819 18.6823 11.6298 18.7564 11.6325 18.8256C11.6347 18.8795 11.5855 18.7282 11.5695 18.6768C11.4073 18.1564 11.3108 17.6233 11.2641 17.0807C11.2433 16.8381 11.2295 16.5937 11.225 16.3502C11.2236 16.2739 11.1889 16.0723 11.2465 16.002C11.348 15.8778 11.6948 16.7555 11.6994 16.7691C12.0158 17.6881 12.1144 18.6839 12.1498 19.6508C12.1549 19.7887 12.1549 19.9267 12.1549 20.0646C12.1549 20.0781 12.1581 20.1181 12.1549 20.105C12.1441 20.0621 12.1452 19.9998 12.1397 19.9586C12.0261 19.1015 11.7659 18.2635 11.6023 17.4151C11.5088 16.9302 11.4054 16.4184 11.4054 15.9212C11.4054 15.8993 11.3971 15.8099 11.4433 15.8581C11.5723 15.9929 11.6485 16.2021 11.7272 16.3666C12.0434 17.0278 12.2049 17.7131 12.2634 18.4421C12.3 18.8986 12.2897 19.3823 12.3933 19.8312C12.3981 19.8518 12.4222 19.9381 12.4388 19.8665C12.4998 19.6022 12.4847 19.3013 12.4905 19.0326C12.5061 18.3077 12.5152 17.5832 12.4198 16.8637C12.4153 16.8297 12.3855 16.7087 12.4072 16.6707C12.4073 16.6705 12.5442 16.8337 12.5511 16.8422C12.7622 17.1044 12.8776 17.4151 13.0494 17.7015C13.0615 17.7215 13.1516 17.8653 13.1516 17.8567C13.1516 17.5547 12.9987 17.226 12.9043 16.9457C12.8637 16.8248 12.821 16.7055 12.7731 16.5874C12.7618 16.5595 12.7374 16.5138 12.7466 16.4814C12.7539 16.4559 13.1473 16.8039 13.1617 16.817C13.3666 17.0028 13.5512 17.2067 13.7421 17.4062C13.814 17.4814 13.8651 17.4482 13.8203 17.3494C13.7271 17.1437 13.4967 16.994 13.3182 16.87C13.135 16.7428 13.3152 16.8512 13.4166 16.8978C13.8781 17.1098 14.3586 17.3545 14.8751 17.3545C15.1577 17.3545 15.4317 17.2924 15.7154 17.2864C16.076 17.2787 16.4268 17.1274 16.7878 17.1274" stroke="black" stroke-width="1.03954" stroke-linecap="round"/>
<path d="M16.8785 17.6952C16.8785 17.3336 16.8785 18.4186 16.8785 18.7803C16.8785 18.9215 16.7484 18.7204 16.7309 18.6819C16.6942 18.6013 16.7195 18.4693 16.7195 18.3841C16.7195 18.1984 16.731 18.0177 16.7763 17.8366C16.8051 17.7211 16.8207 17.5136 16.9807 17.5136C17.0173 17.5136 17.0898 17.4993 17.1157 17.53C17.2157 17.6482 17.098 17.8681 17.0375 17.9728C16.8769 18.2504 16.4746 18.6037 16.124 18.6037C15.8594 18.6037 15.8851 18.0696 15.907 17.8996C15.9113 17.8663 15.9354 17.7126 16.0041 17.7432C16.0781 17.7761 16.0349 18.0097 16.018 18.0586C15.9074 18.3781 15.5489 18.5405 15.2357 18.5784C14.9968 18.6074 15.0162 18.4507 15.0162 18.2592C15.0162 18.2138 14.9822 17.9843 15.0213 17.9501C15.0389 17.9347 15.0385 17.9948 15.0389 18.0182C15.0403 18.1004 15.0435 18.1849 15.0364 18.2668C15.007 18.6053 14.6972 18.7838 14.3803 18.7046C14.1434 18.6454 14.066 18.4087 14.0624 18.1898C14.0598 18.0335 14.0624 18.0437 14.0964 18.1949C14.1337 18.3606 14.1464 18.5428 14.1255 18.7122C14.0963 18.9485 13.7759 19.1424 13.5451 19.0705C13.3804 19.0192 13.3231 18.7518 13.3028 18.61C13.2933 18.5435 13.2018 18.1052 13.2953 18.0637C13.384 18.0242 13.5546 18.0586 13.6485 18.0586C13.8173 18.0586 14.0094 18.0333 14.1747 18.0725C14.2896 18.0997 14.3962 18.161 14.5115 18.1898C14.59 18.2095 14.4272 18.0181 14.422 18.0132C14.3046 17.9027 14.1082 17.7613 13.9362 17.7911C13.7323 17.8265 13.5828 18.2556 13.5198 18.422C13.3685 18.8219 13.4471 19.2556 13.4252 19.6723C13.4164 19.84 13.3377 19.9965 13.2776 20.1505C13.1914 20.3711 13.1052 20.5893 13.0303 20.8142C12.967 21.004 12.9274 21.1785 12.8915 21.3731C12.8846 21.4107 12.8382 21.6748 12.836 21.5232C12.8325 21.2819 12.8 21.0405 12.7918 20.799C12.7873 20.6642 12.8255 20.4707 12.7401 20.3524C12.6694 20.2545 12.6749 20.3665 12.6783 20.4243C12.6933 20.6798 12.743 20.9374 12.7679 21.1927C12.8391 21.9235 13.0176 22.6267 12.9697 23.3678C12.9671 23.408 12.9404 23.6856 12.8587 23.6807C12.7835 23.6763 12.8681 23.0931 12.8726 23.0625C12.9465 22.5528 13.0315 22.0439 13.1539 21.5434C13.16 21.5188 13.1842 21.2474 13.2574 21.2873C13.4257 21.3791 13.5143 21.7223 13.5728 21.8866C13.6993 22.2416 13.8258 22.6119 13.8895 22.9843C13.9171 23.1458 13.9827 23.4249 13.887 23.5748C13.7665 23.7634 13.4679 23.7745 13.2725 23.7489C12.8808 23.6976 12.7034 23.3708 12.6682 23.0108C12.6588 22.9148 12.6011 22.605 12.7224 22.5376C12.7997 22.4947 12.8396 22.7107 12.8448 22.7446C12.9155 23.2 12.6806 23.6567 12.4726 24.0441C12.2999 24.3658 12.1081 24.7056 11.7459 24.8264" stroke="black" stroke-width="1.03954" stroke-linecap="round"/>
<path d="M10.0202 23.9633C10.024 23.9364 10.1095 24.1631 10.1148 24.1778C10.2349 24.5058 10.3101 24.845 10.3785 25.1871C10.4895 25.742 10.6396 26.278 10.7129 26.8399C10.822 27.6762 10.9306 28.509 10.9917 29.3507C11.0406 30.0249 11.0432 30.7227 11.1658 31.3884C11.1959 31.5519 11.195 31.7244 11.2352 31.8855C11.2593 31.9819 11.362 31.9099 11.4283 31.8943C11.5067 31.8759 11.5426 31.913 11.5872 31.9688C11.5948 31.9782 11.6003 31.9468 11.5999 31.9347C11.5935 31.7522 11.5447 31.5675 11.509 31.3896C11.3593 30.6433 11.2495 29.8972 11.1608 29.1413C11.0775 28.4319 11.0432 27.7262 10.911 27.0242C10.8426 26.6615 10.8432 26.2831 10.7823 25.9176C10.7465 25.7031 10.7284 25.4535 10.7242 25.2351C10.7215 25.0909 10.7039 24.9254 10.7356 24.7859C10.7765 24.606 11.0233 24.906 11.0523 24.9424C11.4865 25.4872 11.716 26.1403 11.8017 26.8261C11.9449 27.9711 11.899 29.1384 12.0528 30.2831C12.0944 30.5932 12.1889 30.8819 12.2572 31.1852C12.2743 31.2614 12.2944 31.6279 12.3821 31.3745C12.5029 31.0254 12.5448 30.6261 12.5726 30.2604C12.6112 29.7535 12.6238 29.2383 12.6067 28.73C12.5843 28.0652 12.4045 27.413 12.314 26.7567C12.2273 26.1286 11.8654 25.455 12.1045 24.8263C12.2098 24.5494 12.3813 24.3655 12.5878 24.1551C12.6999 24.0407 12.8173 23.9355 12.9221 23.8144C12.9615 23.7689 13.0172 23.7159 13.0811 23.7135C13.271 23.7061 13.1092 24.2229 13.0861 24.3165C12.9696 24.7893 12.7001 25.262 12.7001 25.7574C12.7001 26.1986 12.722 26.6341 12.7404 27.0746C12.768 27.7343 12.7455 28.399 12.7455 29.0593C12.7455 29.424 12.7228 29.788 12.7228 30.1532C12.7228 30.2529 12.678 30.4717 12.7354 30.562C12.809 30.6777 12.6844 30.9293 12.8628 30.9115C13.1077 30.887 13.3985 30.6514 13.5643 30.4888C13.7324 30.3239 13.8876 30.1383 14.04 29.9589C14.1463 29.8336 14.2738 29.7236 14.3756 29.5955C14.4655 29.4824 14.5638 29.4382 14.6885 29.3684C14.8196 29.295 14.9493 29.1511 15.0897 29.1009C15.1851 29.0669 15.2801 29.0732 15.3799 29.0732C15.4327 29.0732 15.4658 29.0734 15.4102 29.1211C15.2975 29.2176 15.1954 29.3135 15.0657 29.3886C14.7569 29.5674 14.4447 29.7075 14.1485 29.9134C13.9738 30.0349 13.7948 30.1621 13.6009 30.2516C13.381 30.3531 13.686 30.1741 13.7384 30.1368C14.2783 29.7522 14.8094 29.3439 15.3887 29.0189C15.5263 28.9417 15.6635 28.9388 15.8064 28.8965C15.8487 28.884 15.8919 28.8874 15.9338 28.8688C15.9378 28.867 15.6805 28.8388 15.636 28.8347C15.3473 28.808 15.1542 28.6974 14.9206 28.5407C14.4451 28.2216 14.0888 27.662 13.9214 27.1276C13.8229 26.8132 13.8129 26.5015 13.8129 26.175C13.8129 25.9637 13.7975 25.7443 13.8633 25.5404C13.9205 25.3635 13.9879 25.1834 14.0627 25.013C14.1379 24.8418 14.18 24.6506 14.2671 24.4856C14.2897 24.4427 14.3349 24.3976 14.3693 24.3632C14.4064 24.3262 14.4242 24.3535 14.3314 24.3481C14.2052 24.3407 14.0924 24.2859 13.9693 24.2636C13.8544 24.2427 13.8608 24.3609 13.8305 24.4503C13.6305 25.0407 13.4489 25.6442 13.3372 26.2583C13.1649 27.2063 13.0753 28.3107 13.6627 29.1375C13.7759 29.2968 13.9134 29.4085 14.0854 29.4996C14.099 29.5068 14.0989 29.5076 14.0917 29.4933C14.0445 29.3989 14.0159 29.2951 13.9819 29.1955C13.8892 28.9236 13.8028 28.6499 13.6993 28.3817C13.5992 28.1222 13.4632 27.8816 13.3599 27.6235C13.3249 27.5359 13.3632 27.5462 13.4091 27.6121C13.599 27.8845 13.7486 28.2021 13.9088 28.4928C14.0419 28.7344 14.1949 28.9668 14.3112 29.217C14.3468 29.2934 14.3897 29.3556 14.4614 29.4012C14.4848 29.4161 14.5341 29.4348 14.5623 29.4365C14.6611 29.4427 14.3661 29.4719 14.2747 29.5097C13.8782 29.6736 13.5148 29.9212 13.2703 30.2743C13.2486 30.3057 13.2266 30.3867 13.1946 30.408C13.1853 30.4142 13.1373 30.0115 13.1366 29.9967C13.1181 29.5888 13.1482 29.2107 13.2325 28.8132C13.2558 28.7033 13.2678 28.5946 13.2678 28.4827" stroke="black" stroke-width="1.03954" stroke-linecap="round"/>
<path d="M18.5821 26.666C18.5821 26.4036 18.5821 26.1412 18.5821 25.8787C18.5821 25.6867 18.5948 25.5909 18.4685 25.4447C18.3543 25.3124 18.1184 25.2264 17.9663 25.1495C17.7611 25.0457 17.5492 24.999 17.3267 24.9489C16.8101 24.8326 16.2748 24.8492 15.7483 24.8492C15.4697 24.8492 15.218 24.8362 14.9812 25.0082C14.8241 25.1222 14.6975 25.2675 14.5307 25.369C14.3902 25.4546 14.2486 25.4454 14.2948 25.2201C14.334 25.0289 14.5937 24.896 14.7452 24.8076C14.9939 24.6625 15.2692 24.5687 15.5477 24.4997C16.0749 24.3691 16.6313 24.3744 17.1715 24.4C17.5691 24.4189 17.9206 24.5492 18.2969 24.6625C18.5375 24.7349 18.759 24.8242 18.9555 24.9855C19.2259 25.2073 19.1952 25.5532 19.1952 25.8712C19.1952 25.9393 19.2337 25.9698 19.2634 25.8838C19.3531 25.624 19.3939 25.3109 19.3265 25.041C19.2536 24.7496 18.9276 24.4813 18.6855 24.3319C18.1471 23.9995 17.5176 23.8702 16.8964 23.7957C16.6142 23.7618 16.3125 23.7719 16.0284 23.7831C15.7306 23.7947 15.4669 23.9294 15.2158 24.072C15.0684 24.1557 14.9188 24.2529 14.7667 24.3269C14.7137 24.3526 14.5896 24.4109 14.5295 24.3937C14.4436 24.3692 14.5127 24.0966 14.5295 24.0531C14.63 23.793 14.7188 23.701 14.9812 23.5951C15.8603 23.2402 16.8808 23.3146 17.7632 23.6127C18.3414 23.8081 18.989 24.1634 19.3088 24.7079C19.3974 24.8588 19.4223 24.9489 19.4223 25.1268C19.4223 25.183 19.3844 25.3822 19.4577 25.3955C19.5673 25.4155 19.5845 25.5312 19.6595 25.5848C19.6777 25.5978 19.6722 25.4444 19.6722 25.4346C19.6722 25.2565 19.6784 25.0769 19.657 24.8997C19.5626 24.1181 19.2553 23.4302 18.5392 23.0475C18.3074 22.9236 18.086 22.8913 17.8326 22.8507C17.5324 22.8025 17.2377 22.7694 16.933 22.7611C16.112 22.7386 15.2423 22.8013 14.4941 23.1686C14.3459 23.2414 14.1883 23.3454 14.0172 23.3503C13.8796 23.3542 13.9037 23.2037 13.9037 23.1005C13.9037 22.872 13.9808 22.6551 14.2267 22.6059C14.3684 22.5776 14.5038 22.5781 14.6481 22.5781C14.932 22.5781 15.173 22.6373 15.4505 22.6803C15.8419 22.7411 16.2208 22.862 16.6113 22.9264C17.0053 22.9913 17.4155 23.0357 17.8149 23.0324C18.0715 23.0302 18.319 23.0021 18.5442 22.8734C18.6505 22.8126 18.7253 22.7105 18.8319 22.6513C18.8967 22.6153 18.8183 22.536 18.7814 22.51C18.6907 22.4462 18.5729 22.4555 18.4672 22.4772C18.3479 22.5018 18.002 22.5835 18.1228 22.5996C18.4728 22.6463 18.8342 22.4726 19.1826 22.4469C19.5653 22.4187 19.7486 22.6727 19.8993 22.9819C20.0309 23.252 20.1573 23.5016 20.2387 23.7932C20.3391 24.1529 20.3762 24.4831 20.3762 24.8568C20.3762 24.9661 20.3762 25.0755 20.3762 25.1848C20.3762 25.2063 20.3484 25.2631 20.3636 25.2479C20.4168 25.1947 20.4416 25.0952 20.4683 25.0284C20.5748 24.7622 20.8305 24.3496 21.1711 24.3496C21.2292 24.3496 21.2805 24.314 21.33 24.2865C21.4578 24.2155 21.1371 23.9484 21.0954 23.8928C20.8633 23.5844 20.6655 23.2554 20.4607 22.9289C20.3501 22.7526 20.2401 22.5752 20.0835 22.4356C19.9431 22.3105 19.7563 22.248 19.6267 22.1126C19.5122 21.9928 19.3731 21.893 19.2545 21.7744C19.1464 21.6663 19.1246 21.687 19.0136 21.7959C18.8839 21.9231 18.8413 21.9137 18.9707 22.0684C19.1459 22.2779 19.2949 22.5019 19.4526 22.7245C19.6286 22.9729 19.839 23.2002 19.9964 23.4613C20.2218 23.8351 20.2854 24.3447 20.2854 24.776C20.2854 24.9021 20.3049 25.0412 20.2677 25.1621C20.2611 25.1834 20.2564 25.2109 20.2854 25.2126C20.3509 25.2164 20.3649 25.1201 20.3812 25.0738C20.5279 24.6594 20.7007 24.1557 21.0146 23.8373C21.1296 23.7207 21.282 23.6359 21.4095 23.532C21.6004 23.3765 21.7533 23.1739 21.942 23.0122C22.0665 22.9054 22.2012 22.8173 22.3179 22.7005C22.5606 22.4579 22.7325 22.1643 22.8945 21.864C23.1156 21.4544 23.3122 21.0274 23.5557 20.6301C23.6132 20.5362 23.6447 20.4236 23.7071 20.326C23.8488 20.1041 24.0565 19.9296 24.2483 19.7519C24.3387 19.6683 24.4465 19.6082 24.5663 19.5816C24.606 19.5728 24.6998 19.5264 24.7278 19.5501C24.8526 19.6556 24.946 19.9818 24.8906 20.1431C24.8419 20.2846 24.5601 20.4184 24.4464 20.5064C24.1425 20.742 23.8364 20.9776 23.5544 21.2395C23.0467 21.7109 22.7124 22.3317 22.2561 22.8507C22.1072 23.0201 21.9519 23.1778 21.8297 23.368C21.7862 23.4356 21.8625 23.3967 21.9003 23.3755C22.2713 23.1682 22.6099 22.8788 22.9286 22.6009C23.277 22.297 23.6437 22.0074 23.9506 21.6609C24.0938 21.4992 24.2501 21.3522 24.401 21.1978C24.491 21.1059 24.6049 21.0039 24.6407 20.8748C24.6893 20.7 24.6756 20.4993 24.6672 20.3197C24.6635 20.239 24.59 20.0763 24.6496 20.0093C24.791 19.8503 24.9958 19.7443 25.1126 19.5627C25.243 19.3598 24.395 19.3706 24.3102 19.381C23.836 19.4394 23.3461 19.3705 22.8731 19.4327C22.8349 19.4377 22.5226 19.4433 22.5123 19.4794C22.5017 19.5164 22.511 19.5695 22.511 19.6068C22.511 19.7743 22.5058 19.933 22.4706 20.0976C22.4136 20.3647 22.3086 20.5944 22.188 20.8395C21.8846 21.4561 21.5849 22.0691 21.2026 22.6425C21.0564 22.8617 20.9373 23.0954 20.7976 23.315C20.5569 23.6932 21.3326 22.5946 21.5748 22.2173C21.9109 21.6937 22.308 21.2135 22.6674 20.707C22.78 20.5484 22.8724 20.4231 23.022 20.2957C23.1214 20.211 23.3071 20.1582 23.3689 20.0346C23.424 19.9244 23.2806 19.7503 23.2226 19.6788C22.9965 19.3999 22.6891 19.2833 22.3772 19.1274C22.2249 19.0512 22.0583 18.9973 21.9003 18.9331C21.8693 18.9205 21.6527 18.7861 21.6492 18.7981C21.6355 18.8463 21.6672 18.9229 21.6694 18.9722C21.6804 19.2143 21.6572 19.4635 21.6228 19.7027C21.5359 20.3057 21.3989 20.9312 21.1938 21.5057C21.0707 21.8502 20.8716 22.1631 20.7749 22.5176C20.7577 22.5805 20.7169 22.7695 20.7169 22.7043C20.7169 22.5523 20.7909 22.3775 20.8203 22.2287C20.9373 21.6373 21.0899 21.0728 21.1357 20.4698C21.1616 20.13 21.1596 19.8333 21.0197 19.5198C20.9514 19.3667 20.8812 19.259 20.8758 19.0858C20.8672 18.8105 20.8379 18.519 20.785 18.2492C20.7562 18.1027 20.7301 17.9338 20.6374 17.8102C20.5702 17.7206 20.6377 17.8619 20.6487 17.8871C20.6989 18.0024 20.7022 18.1454 20.7169 18.2682C20.7407 18.4681 20.7652 18.6684 20.785 18.8687C20.8354 19.379 20.8077 19.8993 20.8077 20.4118C20.8077 20.837 20.8077 21.2622 20.8077 21.6874C20.8077 21.8981 20.7906 22.1662 20.6487 22.3283" stroke="black" stroke-width="1.03954" stroke-linecap="round"/>
<path d="M21.4662 18.5127C21.4313 18.433 21.3565 18.3637 21.3022 18.2982C21.1704 18.1392 21.0374 17.981 20.9098 17.8187C20.7865 17.662 20.6789 17.4805 20.5401 17.3367C20.3618 17.1521 20.235 16.916 20.0821 16.7097C20.0419 16.6554 19.9821 16.6305 19.9446 16.5772C19.9002 16.5141 19.8567 16.4419 19.8096 16.3829C19.7685 16.3315 19.8432 16.5101 19.8613 16.5734C19.9959 17.0444 20.0953 17.5268 20.154 18.013C20.2497 18.8047 20.2559 19.5953 20.313 20.3875C20.3411 20.7772 20.4049 21.166 20.4392 21.5559C20.4503 21.6829 20.4442 21.812 20.4442 21.9394C20.4442 22.0367 20.4141 21.977 20.3609 21.9281C20.1617 21.7447 19.9635 21.5491 19.7515 21.3843C19.7314 21.3686 19.6734 21.352 19.6721 21.3288C19.6677 21.2546 19.6429 21.1749 19.6266 21.1017C19.4382 20.2538 19.4904 19.3434 19.4904 18.4824C19.4904 17.6989 19.4904 16.9153 19.4904 16.1318C19.4904 15.8235 19.4904 15.5153 19.4904 15.207C19.4904 15.051 19.5149 14.8688 19.4778 14.7149C19.4752 14.7042 19.4204 14.5953 19.4222 14.6291C19.4242 14.6652 19.4556 14.701 19.4727 14.7301C19.5472 14.8566 19.6026 14.9957 19.6481 15.1351C19.7697 15.508 19.8342 15.9575 19.7351 16.3425C19.6967 16.4921 19.6133 16.6252 19.5484 16.7639C19.4595 16.9541 19.4131 17.1566 19.3869 17.3645C19.2947 18.0969 19.286 18.8639 19.286 19.6028C19.286 19.6319 19.2633 19.5865 19.2557 19.5775C19.101 19.3956 18.9485 19.2122 18.7788 19.0438C18.4104 18.6786 18.0242 18.3143 17.5978 18.0168C17.5737 18 17.4355 17.9215 17.4464 17.9222C17.4893 17.9249 17.5441 17.9534 17.5827 17.9726C17.7106 18.0366 17.8422 18.0974 17.9713 18.1619C18.074 18.2132 18.1733 18.2706 18.2766 18.3209C18.3452 18.3543 18.3313 18.374 18.2981 18.3297C18.2448 18.2587 18.1277 18.2287 18.0495 18.1947C17.7727 18.0744 17.4968 17.9972 17.2117 17.9045C17.1427 17.8821 17.0757 17.8727 17.0843 17.791C17.1114 17.5335 17.2264 17.2796 17.3001 17.0339C17.4518 16.5281 17.5582 16.0064 17.695 15.4959C17.7681 15.2228 17.854 14.9278 17.8767 14.6443C17.8797 14.6058 17.8834 14.5258 17.8224 14.5761C17.732 14.6507 17.6604 14.762 17.5903 14.8537C17.3828 15.1249 17.182 15.4052 17.0162 15.7041C16.9196 15.8782 16.8314 16.0688 16.7701 16.2593C16.7287 16.3882 16.7651 16.1842 16.7651 16.128C16.7651 15.3772 16.8104 14.6331 16.8307 13.8835C16.8387 13.587 16.8658 13.2941 16.7437 13.0192C16.6425 12.7916 16.6743 12.5338 16.6743 12.2899C16.6743 12.1789 16.6935 11.9099 16.7701 12.1638C16.947 12.7492 17.0631 13.3538 17.1613 13.9567C17.2956 14.7815 17.3155 15.6192 17.4464 16.4422C17.4786 16.6445 17.5145 16.8438 17.5145 17.0491C17.5145 17.1675 17.4237 17.2554 17.3543 17.3443C17.2784 17.4416 17.1796 17.6272 17.0603 17.6774C16.9623 17.7187 16.9965 17.1315 16.9973 17.1122C17.0084 16.819 17.0683 16.5396 17.1045 16.2504C17.1278 16.0639 17.1058 16.6264 17.1058 16.8144C17.1058 17.1606 17.0813 17.517 17.1184 17.8616C17.1391 18.0536 17.1593 18.2684 17.3026 18.4117C17.4014 18.5106 17.5175 18.556 17.6331 18.6262C17.7273 18.6834 17.6949 18.4121 17.6975 18.3019C17.722 17.2748 17.7606 16.2486 17.8047 15.2221C17.8528 14.1042 17.8779 12.9886 17.8779 11.8698C17.8779 11.5996 17.8893 11.3021 17.8211 11.0371C17.799 10.9509 17.7865 10.8579 17.7593 10.7734C17.7315 10.6868 17.7434 10.7904 17.7404 10.8251C17.7356 10.8799 17.7109 10.9312 17.6937 10.9828C17.6233 11.1942 17.5641 11.4106 17.5196 11.6288C17.3883 12.2722 17.329 13.0039 17.4388 13.6551C17.5052 14.0488 17.6641 14.4261 17.7631 14.8121C17.8555 15.1723 17.9273 15.5382 18.0091 15.9009C18.0949 16.2812 18.2413 16.7006 18.2413 17.0932C18.2413 17.2484 18.2429 17.4037 18.2362 17.5588C18.2281 17.7507 18.1732 17.9432 18.1732 18.1341C18.1732 18.6994 18.171 17.0035 18.1833 16.4384C18.2031 15.5261 18.2532 14.615 18.2842 13.7031C18.3081 12.9981 18.3016 12.2935 18.3145 11.5884C18.3238 11.0772 18.3317 10.5663 18.3548 10.0567C18.3887 9.31197 18.4927 11.5415 18.5491 12.2849C18.6562 13.6957 18.6563 15.1153 18.7964 16.523C18.8391 16.9517 18.9382 17.3731 18.9731 17.8011C18.9892 17.9987 18.9914 18.2157 19.0311 18.4092C19.0532 18.5169 19.0339 18.4976 18.9794 18.4231C18.8455 18.2399 18.7582 18.0909 18.7132 17.8616C18.5758 17.1622 18.5896 16.4179 18.5832 15.7079C18.577 15.0265 18.6369 14.3517 18.6854 13.6728C18.7196 13.1941 18.8304 12.7287 18.9125 12.2571C18.9755 11.8956 19.0234 11.5305 19.103 11.1721C19.1239 11.0783 19.1845 11.0034 19.2406 10.9273C19.4137 10.6921 19.5806 10.4677 19.8184 10.2914C20.0898 10.0902 20.4045 9.98121 20.7268 9.89398C20.998 9.8206 21.2572 9.72616 21.5217 9.63281C21.7934 9.53693 22.062 9.4495 22.3292 9.34262C22.4385 9.29888 22.5714 9.31486 22.6875 9.31486C22.7323 9.31486 22.7764 9.31084 22.7594 9.37037C22.7421 9.43116 22.3486 9.49319 22.3128 9.50412C21.8886 9.63352 21.4287 9.83407 21.0801 10.1148C20.7658 10.3679 20.5255 10.7033 20.2827 11.0219C19.8354 11.609 19.4715 12.2054 19.3995 12.9536C19.3629 13.3342 19.3266 13.7131 19.2973 14.0942C19.2887 14.2066 19.286 14.5451 19.286 14.4323C19.286 14.0267 19.4096 13.6834 19.5913 13.3233C19.8895 12.7324 20.2307 12.1345 20.7357 11.6944C20.9064 11.5457 21.0894 11.404 21.2668 11.2629C21.3839 11.1699 21.5022 11.0578 21.6428 11.0005C21.7148 10.9712 21.6227 11.1403 21.6126 11.1733C21.5069 11.5185 21.3783 11.8546 21.2643 12.1966C21.2599 12.21 21.1937 12.4473 21.1937 12.3657C21.1937 12.0442 21.225 11.7271 21.2959 11.4131C21.3483 11.1806 21.4055 10.9135 21.5772 10.7355C21.6356 10.675 21.8596 10.5039 21.6378 10.6548C20.7792 11.2389 20.1602 12.3213 19.8638 13.3018C19.7773 13.5882 19.7475 13.8781 19.7049 14.1724C19.6726 14.3953 19.6045 14.6032 19.5484 14.8197C19.4873 15.0555 19.733 14.6193 19.7503 14.5913C20.0306 14.1367 20.3244 13.6912 20.6549 13.2716C20.8509 13.0227 21.0428 12.7912 21.2769 12.5776C21.4526 12.4174 21.609 12.249 21.7614 12.0679C21.8005 12.0215 21.8793 11.9513 21.8964 11.8913C21.912 11.8368 21.9129 11.88 21.8737 11.9152C21.8304 11.9542 21.7822 11.9313 21.7387 11.9543C21.6888 11.9808 21.7579 12.0069 21.7614 12.0401C21.8025 12.4307 22.2101 12.6858 22.4541 12.9486C22.6964 13.2095 23.1546 13.4415 23.5101 13.4482C23.6606 13.451 23.8114 13.4482 23.9618 13.4482C24.1707 13.4482 24.3392 13.3784 24.5271 13.2943C24.8605 13.1449 25.0687 12.9057 25.3497 12.6861C25.4995 12.5691 25.5796 12.4939 25.6677 12.324C25.7979 12.0729 25.7827 11.8178 25.809 11.5455C25.8476 11.1442 25.8705 10.6607 25.7585 10.2687C25.7256 10.1536 25.6768 10.1244 25.8064 10.1892C26.1568 10.3644 26.4512 10.7038 26.7351 10.9727C27.0608 11.2814 27.3704 11.6305 27.6208 12.0061C27.7152 12.1478 27.8435 12.2559 27.8756 12.4262C27.9516 12.8289 27.9651 13.2328 27.9046 13.6425C27.8358 14.1089 27.812 14.5802 27.6775 15.0354C27.586 15.3454 27.4144 15.5137 27.2246 15.7621C26.9759 16.0878 26.7744 16.4444 26.5307 16.774C26.1439 17.2971 25.8024 17.8752 25.5554 18.4773C25.5214 18.5601 25.4833 18.637 25.4456 18.717C25.4363 18.7368 25.4865 18.7003 25.5036 18.6868C25.6692 18.5554 25.8375 18.4246 25.9944 18.283C26.4527 17.8698 26.8652 17.3674 27.2523 16.8876C27.5462 16.5233 27.8218 16.1338 28.0371 15.7167C28.172 15.4555 28.2011 15.199 28.2806 14.9206C28.3384 14.7184 28.3887 14.5156 28.456 14.3162C28.5007 14.1838 28.5571 14.0574 28.5746 13.9175C28.5798 13.8758 28.5652 14.0022 28.5494 14.0412C28.4306 14.3344 28.2395 14.6099 28.0825 14.8827C27.6732 15.5944 27.2736 16.3065 26.8082 16.9835C26.4636 17.4847 26.1022 17.9756 25.7799 18.4912C25.6615 18.6807 25.6028 18.9066 25.4746 19.0918C25.4292 19.1573 25.274 19.4351 25.3598 19.5119C25.5729 19.7026 25.9877 18.9826 26.0664 18.8634C26.2278 18.6189 26.3112 18.4352 26.325 18.1392C26.3301 18.0286 26.3463 17.8985 26.2808 17.8036C26.2031 17.6909 26.1215 17.5825 26.0537 17.4629C25.9287 17.2423 25.8137 17.0235 25.7244 16.7854C25.6169 16.4986 25.4102 16.2534 25.2235 16.0145C25.1019 15.8588 24.9433 15.7407 24.7845 15.6259C24.5954 15.4893 24.4093 15.3268 24.2142 15.202C23.9192 15.0131 23.5735 14.8377 23.2477 14.7074C22.9088 14.5718 22.539 14.5837 22.1816 14.5837C21.8547 14.5837 21.5322 14.6306 21.2063 14.6531C21.0793 14.6619 20.9656 14.7503 20.8581 14.8108C20.7252 14.8855 20.5725 14.9478 20.4266 14.9925C20.3411 15.0187 20.0903 15.0973 20.0127 15.0152C19.8153 14.8062 20.506 14.4307 20.6209 14.3528C20.9579 14.1243 21.2491 13.9769 21.6618 13.9945C21.9081 14.005 22.1579 14.0529 22.4024 14.0841C22.7423 14.1275 23.0761 14.1581 23.4092 14.2431C24.3849 14.492 25.359 14.8775 25.9604 15.7293C26.1138 15.9467 26.2191 16.2028 26.3818 16.4119C26.4351 16.4805 26.4865 16.3637 26.518 16.3122C26.6677 16.0683 26.8274 15.8377 26.9394 15.5729C27.0316 15.355 27.13 15.1235 27.1766 14.8903C27.2067 14.7399 27.1893 14.5738 27.1893 14.421C27.1893 13.8551 27.0172 13.3227 26.9394 12.7669C26.9065 12.5311 26.8649 12.2807 26.7893 12.054C26.7215 11.8507 26.5831 11.6821 26.4676 11.5052C26.4182 11.4296 26.3536 11.3272 26.272 11.2819C26.2447 11.2667 26.2785 11.3308 26.2808 11.3361C26.3327 11.4535 26.3635 11.5824 26.3919 11.707C26.5704 12.4906 26.559 13.3315 26.5294 14.132C26.5073 14.7275 26.2902 15.312 26.1723 15.8908C26.1376 16.0612 26.1243 15.7661 26.1231 15.7293C26.1129 15.4077 26.1014 15.0866 26.0815 14.7654C26.0481 14.2278 25.9263 13.6634 25.7471 13.1542C25.7191 13.0744 25.6677 12.9132 25.6677 12.9132C25.6677 12.9132 25.6677 13.1269 25.6677 13.2337C25.6677 13.3599 25.685 13.5192 25.5869 13.6173C25.4822 13.722 25.346 13.7926 25.2387 13.8999C25.1658 13.9727 25.0653 14.1319 24.9687 14.1699C24.8355 14.2222 24.7869 13.9011 24.7718 13.8355C24.7465 13.7251 24.6675 13.413 24.8475 13.3851C25.0576 13.3526 25.3947 13.35 25.5793 13.4558C25.926 13.6543 25.9175 14.0031 25.9175 14.3566C25.9175 14.4139 25.9322 14.4475 25.8657 14.4475C25.4577 14.4475 25.0946 14.4051 24.6987 14.3024C24.0575 14.1359 23.3935 14.083 22.7569 13.9037C22.2903 13.7722 21.7991 13.6327 21.3526 13.4431C21.3013 13.4214 20.9524 13.2611 20.9943 13.1668C21.0219 13.1048 21.521 13.153 21.5924 13.153C21.8444 13.153 22.0649 13.2044 22.3065 13.2665C22.3601 13.2803 22.4678 13.3369 22.3973 13.2665" stroke="black" stroke-width="1.03954" stroke-linecap="round"/>
</svg>
