<svg width="37" height="37" viewBox="0 0 37 37" fill="none" xmlns="http://www.w3.org/2000/svg">
<rect x="-0.519772" y="0.519772" width="34.305" height="35.8643" rx="4.67795" transform="matrix(-1 0 0 1 34.9939 0)" fill="#F32D12" stroke="black" stroke-width="1.03954"/>
<path d="M22.6627 15.4835C22.6627 13.7518 24.6169 12.2221 25.8918 11.7481C26.6258 11.4752 27.9487 11.274 28.682 11.6409C29.6395 12.1198 30.2096 13.3484 30.4722 14.4622C30.9243 16.3796 29.5764 17.5525 28.1113 17.8647C27.5217 17.9903 26.1748 18.2148 26.1748 17.2101" stroke="black" stroke-width="0.544716" stroke-linecap="round"/>
<path d="M24.0244 16.7078C24.067 16.2796 24.6558 16.3001 24.6558 16.0472C24.6558 15.278 25.1464 14.589 25.6078 14.0878C25.7484 13.9351 26.8871 13.2894 26.9958 13.8359C27.063 14.1739 26.5499 14.0984 26.5499 14.5413C26.5499 14.9775 26.7155 15.0955 27.091 15.0955C27.7344 15.0955 26.6493 15.5958 26.4647 15.7505C26.1604 16.0055 24.7653 17.4997 24.5656 16.6071" stroke="black" stroke-width="0.544716" stroke-linecap="round"/>
<path d="M21.4031 13.7493C20.7441 13.7493 20.0335 13.7375 19.4481 13.4123C18.8702 13.0912 17.8353 13.2042 17.3283 12.8355C17.0248 12.6148 15.9344 12.8056 15.5381 12.8056C14.8168 12.8056 14.6105 13.2385 13.9876 13.5846C12.6205 14.3441 11.1049 15.3484 9.94284 16.4459C9.35743 16.9988 7.92045 18.087 7.92045 18.9402C7.92045 19.503 8.05528 19.9227 8.05528 20.4907" stroke="black" stroke-width="0.544716" stroke-linecap="round"/>
<path d="M18.5718 13.2102C17.5909 13.1012 16.9144 12.08 16.422 11.3826C16.0162 10.8076 15.6545 10.1269 15.5007 9.43508C15.4336 9.13285 15.4708 8.79951 15.4708 8.49129C15.4708 8.11304 15.5117 8.44734 15.3659 8.57369C14.3376 9.46492 12.9306 10.1927 12.2649 11.4575C11.9751 12.0082 11.8305 12.7219 11.8305 13.3301C11.8305 13.748 12.1001 14.0974 12.1001 13.4799" stroke="black" stroke-width="0.544716" stroke-linecap="round"/>
<path d="M8.67566 18.146C9.44455 18.146 9.67779 18.2856 10.0306 18.9911C10.3628 19.6557 8.56864 20.0379 8.4342 19.8363" stroke="black" stroke-width="0.544716" stroke-linecap="round"/>
<path d="M8.91699 20.9229L9.04451 23.1524" stroke="black" stroke-width="0.544716" stroke-linecap="round"/>
<path d="M7.22359 19.6118C7.22359 20.1275 7.01461 20.8515 7.25069 21.3411C7.48746 21.8321 7.50754 22.4515 7.95532 22.8801" stroke="black" stroke-width="0.544716" stroke-linecap="round"/>
<path d="M9.66234 22.8804C10.0824 22.8804 10.2519 23.2169 10.5813 23.3633C11.189 23.6334 11.9865 24.0853 12.627 24.2017C13.1211 24.2916 13.8464 24.5321 14.2234 24.0609C14.3481 23.905 14.1429 23.5595 14.1429 23.6718C14.1429 23.8639 14.3896 24.176 14.4917 24.3292" stroke="black" stroke-width="0.544716" stroke-linecap="round"/>
<path d="M18.938 16.9389C18.5761 16.9389 18.1444 16.867 17.791 16.9456C17.5601 16.9969 17.3455 17.4233 17.7306 17.0596C18.244 16.5747 19.1944 16.5767 19.8435 16.5767C20.4063 16.5767 20.9899 16.5756 21.2923 17.12C21.4831 17.4635 20.3426 17.0596 20.1453 17.0596C19.623 17.0596 19.0979 17.0447 18.5758 17.0596C18.1289 17.0724 17.9874 17.3289 17.677 17.5358C17.5519 17.6192 17.9989 17.4788 18.0928 17.3614C18.3477 17.0429 20.7201 16.8103 20.749 17.3011C20.7672 17.611 20.8697 17.8827 20.8697 18.1999C20.8697 18.4177 20.7893 18.7228 20.8965 18.3608C20.9853 18.0611 20.9904 17.7911 20.9904 17.4822C20.9904 17.1442 21.2319 17.1307 21.2319 17.4889C21.2319 17.7898 20.863 18.9712 20.3331 18.4413C19.8115 17.9197 20.7841 17.3079 20.749 17.9047C20.715 18.4818 19.2173 17.6282 20.0514 17.3279C21.0446 16.9703 21.0465 18.1462 20.266 18.1462C19.2666 18.1462 20.0491 17.1803 20.749 17.1803C21.4282 17.1803 20.4165 18.3013 19.8502 18.1395C19.6373 18.0787 19.8047 17.4982 19.9575 17.4218C20.0088 17.3962 20.8913 17.187 20.8496 17.3748C20.8032 17.5837 20.0016 17.9047 19.7831 17.9047C19.5386 17.9047 19.4159 17.4363 19.6624 17.4218C20.2989 17.3844 17.7457 18.1318 18.6026 17.8779C18.8998 17.7898 19.1678 17.605 19.4746 17.5492C19.7437 17.5003 19.7393 18.039 19.5886 18.1395C19.3223 18.317 18.5829 18.381 18.3343 18.1462C18.094 17.9192 18.196 17.5803 18.5221 17.5492C18.7346 17.529 20.4804 17.6066 19.6087 18.1194C18.8482 18.5667 18.0551 17.8275 19.2733 17.784C19.5408 17.7744 19.8106 17.784 20.0782 17.784C20.6286 17.784 19.8377 17.9047 19.6624 17.9047C19.3828 17.9047 19.0966 17.8883 18.8172 17.9047C18.6005 17.9175 18.5852 18.2087 18.2739 18.1395C18.095 18.0997 17.9964 17.7063 18.1197 17.5694C18.1919 17.4891 18.7105 17.3011 18.5758 17.3011C18.1214 17.3011 17.4733 17.8633 18.0928 18.173C18.4342 18.3437 18.2116 18.4455 18.0258 18.2066C17.804 17.9215 17.6843 17.7403 17.6166 17.3681C17.5645 17.0816 17.8642 16.9177 17.7306 17.0596C17.5519 17.2495 17.4324 17.4661 17.3751 17.7236C17.3205 17.9695 17.483 18.1307 17.7306 18.1462C17.8185 18.1517 17.3803 18.1225 17.2477 18.0523C17.0877 17.9676 17.0594 17.6235 17.194 17.4889C17.5183 17.1646 17.2718 17.5487 17.2544 17.6096C17.1104 18.1137 17.8514 18.7562 17.8514 18.2669" stroke="black" stroke-width="0.544716" stroke-linecap="round"/>
<path d="M11.2234 24.0595C11.2234 24.4217 11.2234 24.7839 11.2234 25.1461C11.2234 25.8607 10.8926 25.5192 10.3112 25.5083C10.0765 25.5038 9.29165 25.669 9.29165 25.3205C9.29165 25.1005 9.29165 24.392 9.29165 24.4217C9.29165 25.2291 8.90483 25.4636 8.17821 25.24C7.82816 25.1323 7.48064 25.2681 7.48064 24.8442C7.48064 24.4629 7.60137 24.0876 7.60137 23.6973" stroke="black" stroke-width="0.544716" stroke-linecap="round"/>
<path d="M27.8724 19.7158C27.9743 20.735 28.7635 21.0163 29.4486 21.5872C29.7288 21.8207 30.1249 21.7583 30.4078 22.0098C30.6573 22.2315 31.1719 22.3852 31.4944 22.4927" stroke="black" stroke-width="0.544716" stroke-linecap="round"/>
<path d="M8.19268 17.5423C8.19268 16.5388 8.33581 15.4374 8.11219 14.4568C7.95896 13.785 7.54105 12.5682 6.8646 12.23" stroke="black" stroke-width="0.544716" stroke-linecap="round"/>
<path d="M7.34766 18.8706C7.29628 17.6118 6.09485 16.4592 4.95981 16.0668C4.12736 15.7791 3.1791 15.2485 2.27683 15.2485" stroke="black" stroke-width="0.544716" stroke-linecap="round"/>
<path d="M7.41064 22.3454C6.33389 22.3454 5.12981 22.1877 4.3923 23.1301C4.07537 23.5351 3.99373 24.1927 3.66789 24.5186" stroke="black" stroke-width="0.544716" stroke-linecap="round"/>
<path d="M12.0564 20.4399C12.7168 20.4399 13.4056 20.3887 14.0552 20.5271C15.0927 20.7483 16.04 21.4893 16.8589 22.1302C17.9291 22.9678 18.7117 24.077 19.6626 25.0278" stroke="black" stroke-width="0.544716" stroke-linecap="round"/>
<path d="M10.849 21.7683C11.1862 21.7683 11.5499 21.7354 11.8819 21.7952C12.4017 21.8887 12.5269 22.4824 12.7539 22.8818C13.2448 23.7459 13.6752 24.8141 13.988 25.7525" stroke="black" stroke-width="0.544716" stroke-linecap="round"/>
<path d="M16.419 17.7632C16.419 17.5116 16.4159 17.3766 16.5618 17.1578C16.7249 16.9131 16.8985 16.6752 17.0615 16.4307" stroke="black" stroke-width="0.544716" stroke-linecap="round"/>
<path d="M20.7022 16.026C20.9059 16.026 21.1847 15.9643 21.3473 16.0974C21.585 16.2918 21.7389 16.6215 21.8444 16.9078C21.9815 17.2798 21.944 17.7456 21.9819 18.1386C22.0152 18.4843 21.994 18.9396 21.7016 19.1671" stroke="black" stroke-width="0.544716" stroke-linecap="round"/>
<path d="M21.4262 13.8891C21.5 13.5449 21.9571 13.265 22.2319 13.0994C22.4192 12.9865 22.6018 12.8679 22.793 12.7617C23.0678 12.609 23.3046 12.3999 23.5814 12.2511C24.0033 12.0243 24.4554 11.8597 24.8777 11.6342C25.3328 11.3912 25.7982 11.1357 26.2963 10.9934C26.6696 10.8867 27.037 10.8525 27.4251 10.8764C27.8631 10.9033 28.2334 11.1504 28.6031 11.3603C28.8717 11.5129 29.4288 11.6053 29.5151 11.9507" stroke="black" stroke-width="0.544716" stroke-linecap="round"/>
<path d="M21.5137 14.0015C21.5791 14.0015 21.8791 13.961 21.9254 14.0244C22.0013 14.1282 21.9715 14.3637 21.8758 14.4457C21.7747 14.5324 22.1731 14.5644 22.2189 14.5924C22.3246 14.657 22.1612 14.9447 22.1713 15.0251C22.1832 15.1202 22.6847 15.2382 22.7755 15.3053C22.9734 15.4516 23.2217 15.476 23.4217 15.6179C23.6471 15.7779 23.8075 15.9726 23.923 16.2165C23.9468 16.2667 24.1362 16.3474 24.2242 16.4452C24.3346 16.5678 24.8824 17.2815 24.6207 17.4269C24.4433 17.5254 24.1854 17.5012 23.9898 17.5012C23.7754 17.5012 23.8293 17.5012 23.9993 17.5012C24.1246 17.5012 24.593 17.4499 24.6703 17.5851C24.7195 17.6713 25.2943 17.5698 25.3908 17.5698C25.4852 17.5698 25.5764 17.562 25.6653 17.5965C25.7048 17.6119 25.5927 17.486 25.5833 17.465C25.5272 17.3404 25.5596 17.2768 25.4251 17.2191C25.3098 17.1697 25.5887 17.4094 25.6653 17.5088C25.826 17.7176 25.9994 17.946 26.0884 18.197C26.0949 18.2153 26.1203 18.3989 26.0903 18.3456C26.0064 18.1965 25.9698 18.0064 25.9741 17.8367C25.9819 17.5215 26.2423 17.4602 26.5078 17.5088C26.9334 17.5868 27.1041 18.4326 27.154 18.765C27.1738 18.8973 27.2131 19.1116 27.1692 19.2434C27.122 19.3851 26.8049 18.9521 26.7784 18.908C26.7019 18.7804 26.5746 18.4315 26.7804 18.683C26.9209 18.8548 26.9843 19.1158 27.072 19.3197C27.1397 19.477 27.4088 19.8803 27.64 19.7962C27.721 19.7668 27.7818 19.6671 27.8459 19.6132C27.9668 19.5116 28.1303 19.5186 28.2805 19.5255C28.4779 19.5347 28.7722 19.8101 28.5474 19.9868C28.3398 20.1499 28.7013 20.3427 28.8333 20.4634C29.0421 20.6544 29.2381 20.8917 29.4814 21.0352C29.6611 21.1413 30.0469 21.331 30.0894 21.5651C30.1144 21.7024 30.2046 21.5202 30.2819 21.4469C30.5223 21.2192 30.72 21.955 30.8462 21.9616C31.0738 21.9736 31.3047 21.9088 31.5286 21.9292C31.7167 21.9463 31.7598 22.189 31.8755 22.3047" stroke="black" stroke-width="0.544716" stroke-linecap="round"/>
<path d="M21.3008 13.6978C20.8513 13.6978 20.3923 13.7171 19.9584 13.5974C19.5296 13.4792 19.1201 13.3023 18.6743 13.2351C17.7962 13.1026 17.1378 12.5437 16.2198 12.5437C15.9352 12.5437 15.5774 12.4906 15.3151 12.5995C14.8401 12.7966 14.466 13.0983 13.9986 13.2992C13.6555 13.4466 13.2887 13.5661 12.9675 13.748C12.6186 13.9455 12.3108 14.1772 11.9396 14.3473C11.3233 14.6299 10.9565 15.1124 10.4448 15.4931C9.91403 15.888 9.46577 16.3537 8.91438 16.7308C8.65535 16.9079 8.35926 16.9988 8.09726 17.1489C7.62415 17.4201 8.93946 16.4875 9.30348 16.1119C9.63872 15.7661 10.0331 15.4512 10.4027 15.1335C10.4583 15.0856 10.692 14.7642 10.7821 14.7738C10.7851 14.7742 10.3258 15.3952 10.2827 15.4429C9.8904 15.8765 9.38612 16.3404 8.81062 16.597C8.61718 16.6832 8.18383 16.6509 8.04863 16.7865C7.7262 17.1099 7.23476 17.4057 7.23476 17.8681C7.23476 17.9538 7.25112 18.5091 7.2996 18.2278C7.379 17.767 7.77834 17.6079 8.09726 17.2995C8.24642 17.1552 7.70431 17.506 7.57198 17.6619C7.51741 17.7261 7.1817 18.3922 7.17639 18.3922C7.14646 18.3922 7.12123 18.2611 7.11478 18.2417C7.09792 18.1909 6.94151 18.2124 6.89753 18.2138C6.70368 18.22 6.57342 18.3625 6.59598 18.5177C6.63584 18.7918 6.74135 19.0378 6.85538 19.2926C7.08001 19.7948 6.91584 20.3972 7.09208 20.9206C7.12597 21.0213 7.42371 21.6024 7.40661 21.4921C7.33661 21.0407 7.07856 20.5867 7.05966 20.1317C7.04828 19.8577 7.01981 19.5884 7.00129 19.3177C6.98757 19.1172 7.0075 19.7202 7.03372 19.9199C7.09239 20.3667 7.20729 20.7877 7.31906 21.2245C7.41653 21.6054 7.59069 21.9972 7.64655 22.3814C7.66699 22.5219 7.71946 22.8127 7.87677 22.8804" stroke="black" stroke-width="0.544716" stroke-linecap="round"/>
</svg>
