<svg width="36" height="38" viewBox="0 0 36 38" fill="none" xmlns="http://www.w3.org/2000/svg">
<rect x="-0.519772" y="0.519772" width="34.305" height="35.8643" rx="4.67795" transform="matrix(-1 0 0 1 34.6829 0.807617)" fill="white" stroke="#F32D12" stroke-width="1.03954"/>
<path d="M16.4886 11.8015C16.7644 11.7454 17.0402 11.6893 17.3161 11.6332C17.8601 11.5226 18.2079 11.258 18.6612 10.9535C19.1506 10.6249 19.6071 10.2469 20.1058 9.92976C21.1528 9.26386 22.4893 8.95256 23.713 8.84152C26.0617 8.62838 28.5821 10.3828 29.1334 12.7183C29.2729 13.3091 29.3743 13.8912 29.2464 14.492C29.0709 15.3168 28.7514 16.1177 28.4027 16.8794C27.5162 18.8155 26.1546 20.6044 24.7249 22.1564C23.312 23.6901 21.8057 25.1061 20.1915 26.4199C19.0906 27.3159 18.0131 28.24 16.9499 29.1817C16.2282 29.8209 15.543 30.5197 14.7725 31.0999C14.0996 31.6066 13.3437 32.0955 12.5679 32.4247C12.4004 32.4958 12.2097 32.654 12.0173 32.6498C11.6621 32.6421 11.3655 31.5849 11.2897 31.3711C10.9383 30.3794 10.7322 29.3379 10.5206 28.3093C10.3159 27.3146 10.1164 26.3239 10.0123 25.3127C9.71418 22.4179 9.3871 19.5393 8.99261 16.6571C8.85326 15.639 8.70209 14.6251 8.67588 13.5958C8.64491 12.3802 8.82453 11.1116 9.07739 9.92834C9.29008 8.93305 9.65539 7.92918 10.1429 7.04095C10.569 6.2648 11.0978 5.66941 11.9714 5.41988C12.6721 5.21976 13.369 5.10451 14.0657 5.37958C14.6501 5.61028 15.1745 5.92538 15.6668 6.31868C16.3832 6.89099 17.0788 7.55036 17.6003 8.30833C17.8581 8.68311 18.0883 9.03408 18.2846 9.44926C18.3724 9.63506 18.6389 9.88768 18.8461 9.92373C19.055 9.9601 19.2397 9.91639 19.4466 9.90699C19.8113 9.89044 20.1567 9.92383 20.4726 9.69579" stroke="#F32D12" stroke-width="1.03954" stroke-linecap="round"/>
<path d="M21.4084 15.5442C20.9595 15.5442 22.3065 15.5371 22.7554 15.5442C23.424 15.5547 24.1625 15.7446 24.6189 16.269C24.8767 16.5652 25.096 16.8919 25.2577 17.2494C25.3108 17.3669 25.3442 17.4854 25.3826 17.6076C25.3862 17.6188 25.4147 17.7417 25.4201 17.7396C25.5104 17.7034 24.9314 16.8012 24.8966 16.755C24.6177 16.3848 24.2266 16.1645 23.833 15.9441C23.2446 15.6146 22.4221 15.5692 21.7598 15.5692C21.4921 15.5692 21.2344 15.6254 20.9877 15.7302C20.9398 15.7506 20.7018 15.819 20.7336 15.8747C20.7845 15.9638 20.7911 16.0765 20.8141 16.1746C20.865 16.3913 20.9379 16.6002 21.021 16.8064C21.2101 17.2757 21.5026 17.5646 21.8972 17.8743C22.6096 18.4332 23.3606 18.817 24.2718 18.8991C24.6221 18.9306 25.0475 18.8288 25.3077 18.5686" stroke="#F32D12" stroke-width="1.03954" stroke-linecap="round"/>
<path d="M23.5831 16.8186C23.5831 17.3136 23.6621 17.9655 23.1693 18.2641C23.0707 18.3239 22.8065 18.3679 22.7222 18.2614C22.5335 18.0231 22.5898 17.5813 22.6888 17.3241C22.7746 17.1013 22.8916 16.8697 23.1332 16.7936C23.2361 16.7612 23.4613 16.7294 23.5581 16.7867C23.7197 16.8822 23.7233 17.2648 23.6664 17.4185C23.5945 17.613 23.3456 17.6758 23.161 17.667C22.9096 17.6551 22.8558 17.3518 22.8624 17.1463C22.8705 16.8949 23.0535 16.5859 23.3082 16.5187C23.4186 16.4895 23.5956 16.4658 23.7081 16.5048C23.8994 16.571 23.858 16.7973 23.858 16.9561C23.858 17.4324 23.5136 17.8517 23.0332 17.9128C22.8188 17.9401 22.7658 17.7009 22.7597 17.5421C22.7499 17.2888 22.8167 17.0974 22.9082 16.8686" stroke="#F32D12" stroke-width="1.03954" stroke-linecap="round"/>
<path d="M17.1343 15.4941C17.1343 14.6217 17.2081 13.7838 16.6872 13.0279C16.3478 12.5355 15.9014 12.0224 15.3486 11.7699C14.8651 11.549 14.278 11.4507 13.7461 11.4449C13.624 11.4436 13.5017 11.4449 13.3795 11.4449C13.078 11.4449 12.8954 11.8172 12.7602 12.0393C12.5723 12.348 12.5083 12.6439 12.5103 13.0057C12.5144 13.7641 12.7272 14.5517 13.1004 15.2136C13.6244 16.1429 14.7571 16.6387 15.7707 16.755C16.0849 16.791 16.465 16.7409 16.6719 16.4925C16.8035 16.3347 16.7661 16.1237 16.8233 15.944C16.8729 15.7881 16.8782 15.6422 16.8858 15.4802C16.895 15.2831 16.9344 15.0929 16.9344 14.8942" stroke="#F32D12" stroke-width="1.03954" stroke-linecap="round"/>
<path d="M16.4846 13.8943C16.2631 14.0651 16.0848 14.2817 15.8458 14.4317C15.6062 14.5822 15.3445 14.6686 15.0682 14.7247C14.687 14.8021 14.1386 14.7769 14.0351 14.2998C13.8198 13.3071 15.2794 12.8993 16.0041 12.8945C16.2539 12.8929 16.6056 12.8694 16.6318 13.1972C16.6677 13.6466 16.4192 13.9975 16.0986 14.2901C15.7994 14.563 15.4103 14.6821 15.0099 14.7136C14.8156 14.7289 14.5112 14.7601 14.4503 14.5164C14.3762 14.22 14.7436 13.8637 14.946 13.6999C15.1884 13.5037 15.4444 13.3616 15.7597 13.3458C15.8212 13.3427 16.0847 13.3056 16.0847 13.4139C16.0847 13.5664 15.768 13.6671 15.6612 13.718C15.4693 13.8093 15.272 13.8723 15.0765 13.9499C15.0044 13.9785 14.9118 14.0443 14.8349 14.0443" stroke="#F32D12" stroke-width="1.03954" stroke-linecap="round"/>
<path d="M14.8099 19.693C15.0477 19.5483 15.2777 19.4144 15.5431 19.3223C15.9843 19.1691 16.4504 19.17 16.9123 19.1681C17.3547 19.1664 17.7785 19.1747 18.1856 19.3737C18.5877 19.5701 18.9667 19.9261 19.2049 20.304C19.2468 20.3706 19.5108 20.7161 19.4423 20.8095C19.1513 21.2064 18.9315 21.6166 18.4953 21.8898C18.1732 22.0916 17.76 22.1484 17.3886 22.1786C16.9583 22.2137 16.516 22.2395 16.0847 22.2064C15.4508 22.1578 14.8521 21.9343 14.4114 21.4677C14.1803 21.223 14.1586 20.8398 14.1878 20.5179C14.2082 20.2941 14.3665 20.1236 14.435 19.918" stroke="#F32D12" stroke-width="1.03954" stroke-linecap="round"/>
<path d="M16.7346 19.6684C16.9331 19.6684 16.8846 20.3606 16.8846 20.471C16.8846 20.7253 16.9152 21.2213 16.6041 21.343C16.4113 21.4184 16.2976 21.2488 16.2236 21.0931C16.0542 20.7369 15.9455 20.3103 15.9889 19.9128C16.0354 19.4864 16.7474 19.4337 17.0179 19.6489C17.1908 19.7865 17.2814 20.0434 17.3095 20.2544C17.342 20.4995 17.373 20.805 17.3192 21.05C17.2833 21.2137 17.1097 21.2554 16.9595 21.2347C16.6107 21.1866 16.4414 20.7396 16.3902 20.4432C16.3453 20.1833 16.3191 19.6434 16.7096 19.6434C17.0308 19.6434 17.049 20.086 17.0595 20.3182" stroke="#F32D12" stroke-width="1.03954" stroke-linecap="round"/>
<path d="M10.6357 19.4434C10.8039 19.4434 10.9876 19.4218 11.1495 19.474C11.4508 19.571 11.7071 19.9466 11.8827 20.1905C12.3403 20.826 12.4768 21.5538 12.4604 22.3289C12.4513 22.7565 12.228 23.1209 12.0382 23.4898C11.9964 23.5712 11.8878 23.8549 11.9119 23.6259C11.9205 23.5441 11.9303 23.4635 11.9369 23.3815C11.9392 23.3525 11.9625 23.2272 11.9605 23.3287C11.9551 23.6012 11.8087 23.9336 11.6494 24.1508C11.5612 24.2711 11.4886 24.1724 11.38 24.0855C11.0646 23.8332 10.8382 23.5215 10.5802 23.2177C10.2205 22.7941 9.8576 22.3995 9.74842 21.8415C9.64866 21.3317 9.63086 20.7733 9.83591 20.2877C9.88782 20.1647 9.95752 20.0368 10.0234 19.9197C10.061 19.8528 10.1358 19.7708 10.1358 19.6934" stroke="#F32D12" stroke-width="1.03954" stroke-linecap="round"/>
<path d="M11.9856 21.4428C11.8627 21.4428 11.7334 21.5976 11.6371 21.665C11.5424 21.7313 11.3465 21.6928 11.2357 21.6928C11.0236 21.6928 10.8298 21.5754 10.8914 21.3234C10.9468 21.0966 11.4999 20.8116 11.7231 20.9318C11.8881 21.0206 11.8606 21.1767 11.8606 21.3373C11.8606 21.5525 11.69 21.8716 11.4593 21.9177C11.2828 21.953 11.0029 22.0568 10.9164 21.8233C10.7174 21.286 11.4695 20.7848 11.9356 21.0179" stroke="#F32D12" stroke-width="1.03954" stroke-linecap="round"/>
<path d="M14.8351 26.6167C14.8351 26.3687 15.0028 26.1661 15.1725 25.9919C15.4781 25.6782 16.0317 25.5728 16.4514 25.5475C17.1127 25.5077 17.7986 25.5762 18.3538 25.9669C18.8047 26.2842 18.3658 26.9836 18.1802 27.3083C17.6484 28.2391 16.3951 28.8564 15.4627 28.1053C15.0973 27.811 14.9758 27.3389 14.8351 26.9167" stroke="#F32D12" stroke-width="1.03954" stroke-linecap="round"/>
<path d="M16.5595 26.2168C16.6299 26.3664 16.5845 26.6063 16.5845 26.7653C16.5845 26.7994 16.6018 27.267 16.5095 27.1055C16.4043 26.9215 16.3368 26.7521 16.2901 26.5417C16.2674 26.4398 16.2484 26.164 16.3595 26.3806C16.4652 26.5867 16.5211 26.8294 16.6344 27.0277C16.6751 27.0988 16.8238 27.0772 16.8719 27.0291C16.9863 26.9147 17.1711 26.179 16.9094 26.0918" stroke="#F32D12" stroke-width="1.03954" stroke-linecap="round"/>
<path d="M25.8826 11.5449C25.872 11.6404 25.7372 11.7641 25.6799 11.8324C25.5538 11.9827 25.3567 12.2096 25.1786 12.2934C24.9374 12.4069 24.6799 12.4672 24.4177 12.5072C24.1608 12.5464 23.8289 12.6094 23.5956 12.4711C23.243 12.2622 22.9984 11.9314 22.7388 11.6199C22.5764 11.4251 22.3685 11.0944 22.4778 10.8395C22.5671 10.6311 22.6577 10.3985 22.8207 10.2355C23.0228 10.0334 23.2914 9.93509 23.5567 9.84667C24.1625 9.64475 24.8655 9.65498 25.4424 9.93277C25.9255 10.1654 25.9076 10.7233 25.9076 11.17" stroke="#F32D12" stroke-width="1.03954" stroke-linecap="round"/>
<path d="M24.6079 10.4448C24.6079 10.6422 24.6646 10.9402 24.5635 11.1142C24.4773 11.2624 24.3207 11.2783 24.1775 11.1891C23.8118 10.9616 23.9331 10.418 23.9331 10.0449" stroke="#F32D12" stroke-width="1.03954" stroke-linecap="round"/>
<path d="M17.7559 10.2744C17.8133 10.2744 18.1697 10.2744 18.0335 10.2744C17.9332 10.2744 17.6424 10.2614 17.6424 10.1041C17.6424 10.0398 17.8605 10.0698 17.8998 10.0751C18.0931 10.1009 18.0822 10.3169 17.9376 10.4056C17.8497 10.4597 17.6116 10.5134 17.5869 10.3653C17.563 10.2223 18.17 10.2709 18.2631 10.2757C18.3593 10.2806 18.4146 10.2979 18.4146 10.4006C18.4146 10.6636 17.7877 10.6111 17.6449 10.5659C17.2542 10.442 16.93 10.0759 16.7945 9.69405C16.7418 9.54535 16.7357 9.38369 16.7062 9.22974C16.6636 9.00731 16.5997 8.78997 16.5119 8.58123C16.4613 8.46101 16.2439 8.00389 16.522 8.30618C16.9301 8.7498 17.169 9.29902 17.4329 9.83283C17.4364 9.83972 17.501 9.98593 17.5137 9.98171C17.5202 9.97953 17.241 9.44753 17.2286 9.42404C17.0863 9.15457 16.9272 8.88949 16.8046 8.61025C16.7447 8.47376 16.8262 8.50615 16.9131 8.5888C17.2346 8.89444 17.4392 9.3539 17.6134 9.75209C17.8102 10.202 17.9803 10.6747 18.1004 11.1513C18.1026 11.16 18.1831 11.4999 18.1546 11.4869C18.0821 11.4539 18.012 11.3465 17.9679 11.2888C17.8418 11.1241 17.7288 10.9493 17.6222 10.7715C17.2892 10.2166 17.0382 9.6144 16.7794 9.02282C16.7677 8.99618 16.5416 8.63025 16.5346 8.64431C16.5167 8.68006 16.5335 8.78808 16.5359 8.81212C16.5572 9.02367 16.6056 9.23126 16.6482 9.43918C16.7612 9.99126 16.8513 10.548 16.9661 11.0996C16.9936 11.2316 17.0196 11.3639 17.0469 11.4958C17.0706 11.6107 16.8182 11.4328 16.7163 11.3746C16.2897 11.1313 15.8792 10.854 15.4748 10.576C15.2795 10.4417 15.0851 10.3051 14.8969 10.1609C14.8792 10.1473 14.7467 10.0607 14.7354 10.0196C14.7238 9.97696 14.8227 10.039 14.8616 10.0599C15.0137 10.142 15.1576 10.2424 15.3007 10.3388C15.6523 10.5756 15.999 10.8223 16.3391 11.0756C16.4506 11.1587 16.667 11.2756 16.7415 11.3999C16.7828 11.4686 16.596 11.3327 16.5245 11.2964C16.268 11.1659 16.0097 11.0392 15.7511 10.9128C15.3695 10.7264 14.9774 10.5511 14.6105 10.3363C14.5879 10.323 14.4766 10.2716 14.4604 10.2391C14.4262 10.1708 14.6051 10.2888 14.6749 10.3199C15.0554 10.4893 15.4853 10.7099 15.8104 10.9785C15.9507 11.0944 15.4545 10.9005 15.2805 10.8472C14.971 10.7525 14.6733 10.6436 14.3721 10.5268C14.2216 10.4684 14.3828 10.5014 14.4503 10.5116C14.5958 10.5336 14.7441 10.5796 14.8793 10.6378C14.8859 10.6407 15.0252 10.6964 14.9676 10.7009C14.4863 10.7379 13.9584 10.63 13.4889 10.5394C13.2501 10.4933 13.0135 10.4295 12.7848 10.3463C12.6346 10.2917 12.7309 10.3 12.824 10.3363C13.002 10.4057 13.1761 10.4855 13.3539 10.5558C13.3897 10.57 13.5154 10.6037 13.528 10.6479C13.5331 10.6657 13.4923 10.6614 13.4737 10.6605C13.3554 10.6551 13.2404 10.6261 13.1268 10.5949C12.7012 10.478 12.2758 10.3442 11.86 10.1962C11.6711 10.1289 11.4734 10.0616 11.2935 9.97162C11.2108 9.93028 11.4642 10.0431 11.5471 10.0839C11.7818 10.1994 12.0146 10.3254 12.2549 10.4284C12.432 10.5043 11.8987 10.2794 11.7301 10.1861C11.41 10.009 11.0764 9.82543 10.8216 9.55778C10.6364 9.36323 10.5662 9.17671 10.8645 9.0632C11.3349 8.8842 11.7499 9.25304 11.836 9.70162C11.8557 9.80381 11.882 9.9822 11.7957 10.0637C11.581 10.2665 11.2797 10.0113 11.1585 9.8404C10.8437 9.39652 10.8797 8.75336 10.8797 8.23426C10.8797 8.08355 10.8586 7.74434 10.9529 7.60972C10.9794 7.57176 10.9641 7.70232 10.9604 7.74851C10.947 7.91838 10.9089 8.08098 10.857 8.24309C10.7426 8.60035 10.5921 8.96949 10.3939 9.28904C10.3603 9.34325 10.2388 9.54027 10.1958 9.38367C10.1174 9.09805 10.1675 8.73012 10.2185 8.44496C10.2572 8.22914 10.3007 8.00329 10.375 7.79645C10.3802 7.78186 10.4811 7.58449 10.4835 7.5971C10.5359 7.86672 10.3276 8.24374 10.2211 8.47272C10.0822 8.77126 9.91109 9.05184 9.75424 9.34077C9.74607 9.35582 9.73793 9.37088 9.73027 9.38619C9.71814 9.41045 9.7575 9.33927 9.77064 9.31554C9.85578 9.16182 9.93503 9.00562 10.0091 8.84618C10.2386 8.35222 10.4262 7.84541 10.6198 7.33719C10.6561 7.24173 10.6922 7.14684 10.7232 7.04952C10.7316 7.02332 10.7419 6.95024 10.756 6.97382C10.7753 7.0059 10.7611 7.14586 10.7611 7.16434C10.7611 7.37782 10.7581 7.59079 10.7459 7.80402C10.7266 8.14226 10.6908 8.47862 10.6488 8.81464C10.6481 8.81996 10.5958 9.17099 10.6463 9.02913C10.937 8.21234 11.1398 7.36724 11.4361 6.55241C11.5185 6.32576 11.4847 6.70364 11.484 6.75807C11.4764 7.39247 11.3949 8.02109 11.2733 8.64305C11.2325 8.85213 11.1837 9.05924 11.1396 9.26759C11.1223 9.34941 11.116 9.45129 11.0803 9.52876C11.0643 9.56352 11.0551 9.45473 11.0563 9.41647C11.064 9.16673 11.1088 8.91837 11.1535 8.67333C11.2353 8.22498 11.3384 7.78259 11.455 7.34224C11.495 7.19113 11.5232 7.03013 11.5963 6.89055C11.615 6.85488 11.6246 6.87986 11.6291 6.91074C11.6623 7.13898 11.6507 7.38023 11.6417 7.60972C11.6306 7.89502 11.6007 8.18307 11.5282 8.4601C11.4811 8.64025 11.463 8.50421 11.4651 8.39702C11.4735 7.97528 11.5435 7.53648 11.72 7.15046C11.8232 6.92465 11.9898 6.6597 12.2776 6.71644C12.6362 6.78711 12.7772 7.13126 12.8807 7.44191C13.0406 7.92151 13.1126 8.41846 13.0977 8.92315C13.0926 9.09848 13.0959 9.33385 12.9262 9.44045C12.7668 9.54053 12.6065 9.45117 12.4934 9.32689C12.1406 8.93937 11.8092 8.14916 12.207 7.68164C12.3133 7.55664 12.4646 7.44576 12.6334 7.43939C12.8392 7.43162 12.8469 7.60133 12.8593 7.77248C12.881 8.07183 12.8763 8.38294 12.7874 8.67207C12.7459 8.80681 12.6749 8.98566 12.5325 9.04301C12.0988 9.21768 12.184 7.72122 12.2827 7.51888C12.4055 7.26698 12.6476 6.94318 12.964 6.96373C13.2558 6.98268 13.4903 7.27058 13.6302 7.49869C13.7953 7.76794 13.8979 8.08345 13.9305 8.39702C13.943 8.51791 13.9833 8.76417 13.8068 8.80076C13.4943 8.86558 13.1631 8.35247 13.0561 8.12954C12.9216 7.84924 12.7804 7.32303 12.9514 7.02934C13.1261 6.72924 13.5381 6.88928 13.7614 7.02681C14.2181 7.30812 14.4919 7.86694 14.6925 8.34529C14.8124 8.6312 14.8844 8.94717 14.8931 9.2575C14.8947 9.31395 14.9361 9.5335 14.8187 9.44171C14.6533 9.31239 14.5243 9.10696 14.4099 8.93703C14.1714 8.58274 13.9578 8.2121 13.7614 7.83304C13.642 7.60246 13.5223 7.36685 13.4611 7.11261C13.4362 7.00907 13.3503 6.73991 13.4498 6.64578C13.5217 6.57771 13.6764 6.64999 13.7299 6.67228C14.0506 6.80608 14.3316 7.04103 14.584 7.27411C15.3341 7.96682 15.9569 8.80303 16.5119 9.6562C16.6999 9.94516 16.8891 10.2414 17.0544 10.5444C17.1094 10.6453 17.1058 10.6645 17.0115 10.5848C16.4836 10.1384 16.0013 9.6366 15.5934 9.07834C15.5713 9.04812 15.4151 8.81909 15.4445 8.85502C15.6279 9.07913 15.7904 9.32285 15.9151 9.58428C15.998 9.75806 16.073 9.93629 16.1435 10.1155C16.1702 10.1833 16.227 10.3159 16.1082 10.2164C15.6884 9.86468 15.3038 9.44438 14.9474 9.03039C14.7254 8.77245 14.4155 8.46371 14.2964 8.13206C14.2483 7.99822 14.666 8.15662 14.6875 8.16487C14.9878 8.28029 15.2845 8.41911 15.5707 8.56609C15.6004 8.58137 15.8609 8.76014 15.8836 8.67207C15.9475 8.4236 15.8644 8.09965 15.7978 7.86206C15.74 7.65583 15.6689 7.4504 15.5669 7.26149C15.532 7.19679 15.436 7.10274 15.5694 7.15551C15.7596 7.23069 15.9446 7.33699 16.1195 7.44191C16.2055 7.49351 16.3189 7.54389 16.3971 7.60467C16.7107 7.84858 15.7438 7.1519 15.4281 6.91074C15.1562 6.70305 14.8702 6.539 14.5474 6.42372C14.319 6.34213 14.0917 6.25961 13.8649 6.1739C13.7635 6.13561 13.6139 6.16381 13.5091 6.16381C13.2873 6.16381 13.0725 6.20923 12.8505 6.20923C12.7142 6.20923 12.5779 6.20923 12.4417 6.20923C12.1244 6.20923 11.8048 6.28297 11.5332 6.44895C11.4199 6.51824 11.3369 6.66111 11.2607 6.7669C11.1059 6.9819 11.1245 7.27424 11.238 7.50374C11.4559 7.94409 11.7674 8.43005 12.212 8.6645C12.5727 8.85468 12.993 8.88275 13.3551 9.07077C13.6243 9.21053 13.8765 9.35057 14.1222 9.53003C14.1599 9.55756 14.4602 9.79479 14.2888 9.79751C13.7293 9.80639 12.9746 9.64801 12.636 10.2202C12.4041 10.612 12.2734 11.1105 12.1578 11.5475C12.0387 11.9972 11.912 12.4423 11.7856 12.8899C11.743 13.0408 11.6782 13.2296 11.6695 13.3858C11.6676 13.4192 11.7054 13.3287 11.7174 13.2975C11.8648 12.9133 12.0948 12.589 12.3508 12.2679C12.6794 11.856 13.0556 11.5203 13.5141 11.2686C13.6929 11.1705 13.8274 11.0282 13.9809 10.8977C14.0241 10.861 14.0657 10.8349 14.1197 10.8195C14.1752 10.8036 13.9352 10.7859 13.9279 10.7854C13.2796 10.7449 12.6011 10.8507 12.1376 11.3507C11.718 11.8032 11.5487 12.4839 11.3894 13.0678C11.388 13.073 11.355 13.2446 11.3162 13.1953C11.2773 13.1457 11.2746 13.0384 11.2708 12.9846C11.2533 12.7368 11.2574 12.4842 11.267 12.2364C11.294 11.5403 11.4658 10.8728 11.6493 10.2038C11.7302 9.90882 11.804 9.55626 11.9647 9.2903C11.9877 9.25225 12.0344 9.18712 12.0783 9.16666C12.0874 9.16243 12.0761 9.18727 12.0707 9.19568C12.0059 9.29658 11.952 9.40346 11.9017 9.51236C11.3413 10.7235 11.0056 12.0159 10.5617 13.2697C10.529 13.3622 10.4952 13.5734 10.4204 13.6482C10.4197 13.6489 10.4067 13.1098 10.4078 13.088C10.4438 12.3679 10.5685 11.6563 10.6677 10.9431C10.7495 10.3557 10.8117 9.763 10.91 9.17801C10.9125 9.16297 10.9751 8.73768 10.9995 8.73768C11.0314 8.73768 11.0009 9.28862 11.0008 9.2903C10.9405 10.0438 10.7665 10.796 10.6362 11.5399C10.5384 12.0983 10.4414 12.6577 10.3334 13.2142C10.3262 13.2512 10.3119 13.4841 10.2602 13.5056C10.1705 13.543 10.1191 12.6639 10.1189 12.6578C10.0839 11.8174 10.0954 10.9714 10.1075 10.1306C10.1144 9.65357 10.1641 9.17874 10.1706 8.70235C10.1706 8.70184 10.1706 8.49426 10.1706 8.59132C10.1706 8.78281 10.134 8.96198 10.0899 9.14899C9.77768 10.4707 9.48805 11.7851 9.27984 13.1284C9.26799 13.2049 9.27647 13.4587 9.21171 13.517C9.14469 13.5773 9.17093 13.3397 9.17134 13.2495C9.17501 12.4262 9.32182 11.6077 9.46531 10.7993C9.50255 10.5895 9.55857 10.3864 9.60158 10.1785C9.61417 10.1177 9.64054 10.0995 9.66088 10.1735C9.75691 10.5227 9.80694 10.8924 9.8678 11.2485C9.99352 11.9841 10.1004 12.7224 10.2034 13.4615C10.2527 13.8149 10.3106 14.167 10.3624 14.52C10.3694 14.5681 10.3719 14.7196 10.4204 14.756C10.4609 14.7864 10.9033 13.0432 11.3011 14.0292C11.5211 14.5747 11.5853 15.1791 11.7124 15.7502C11.7523 15.9293 11.7639 16.1934 11.8689 16.3508C11.8911 16.3841 11.9359 16.3969 11.9698 16.3684C12.0301 16.3177 12.0504 16.2144 12.0669 16.1451C12.1151 15.9435 12.1404 15.7347 12.154 15.5281C12.1971 14.8721 12.1082 14.202 12.1704 13.5485C12.185 13.395 12.2566 13.8447 12.2953 13.9939C12.3934 14.3721 12.4447 14.7514 12.4858 15.1395C12.5127 15.3935 12.5248 15.6498 12.5767 15.9003C12.5862 15.9462 12.6208 16.0259 12.6208 16.0732C12.6208 16.1119 12.5758 16.0101 12.5552 15.9773C12.4252 15.7704 12.3056 15.5583 12.1906 15.3427C11.8074 14.6246 11.4536 13.8913 11.1181 13.1498C11.0388 12.9745 11.0531 13.0052 10.9831 12.8546C10.9586 12.8017 10.9225 12.6447 10.9024 12.6994C10.8724 12.7812 10.9216 13.0214 10.9289 13.0817C10.9693 13.4154 11.033 13.7448 11.0967 14.0747C11.2183 14.7043 11.3288 15.3318 11.3288 15.9748C11.3288 16.0801 11.1646 15.9764 11.1244 15.947C10.9434 15.8144 10.8859 15.5337 10.7384 15.3616" stroke="#F32D12" stroke-width="1.03954" stroke-linecap="round"/>
<path d="M10.7384 15.3613C10.7384 15.6919 10.7384 16.0224 10.7384 16.353C10.7384 16.6011 10.7384 16.8493 10.7384 17.0974C10.7384 17.1897 10.7684 17.3436 10.7359 17.433C10.7171 17.4848 10.6484 17.3643 10.6148 17.3207C10.39 17.0294 10.1983 16.712 10.0243 16.3883C9.68649 15.7602 9.36041 15.071 9.19789 14.3721C9.17846 14.2886 9.16548 14.2031 9.13985 14.1211C9.13658 14.1106 9.21637 14.2605 9.22691 14.2838C9.45764 14.7954 9.52901 15.3742 9.60038 15.9253C9.62287 16.099 9.64387 16.2731 9.65841 16.4476C9.67116 16.6006 9.67426 16.7542 9.66598 16.4792C9.63916 15.5872 9.65842 14.6953 9.64706 13.8031C9.64512 13.6513 9.61857 13.4891 9.62939 13.3375C9.63176 13.3044 9.71784 13.5497 9.72024 13.5571C9.92628 14.1873 10.1239 14.8238 10.2842 15.4673C10.4298 16.0516 10.5886 16.5999 10.6123 17.2059C10.6132 17.2311 10.641 18.0433 10.5921 18.0311C10.4965 18.0072 10.4493 17.7328 10.4331 17.6727C10.3146 17.2327 10.2576 16.7811 10.2085 16.329C10.1959 16.213 10.1775 16.0963 10.1719 15.9795C10.1698 15.9339 10.1662 15.8435 10.1757 15.9518C10.2282 16.5529 10.2216 17.1581 10.2148 17.7611C10.2111 18.0937 10.2246 18.5249 10.0798 18.8386C10.0582 18.8855 10.012 18.8857 9.98393 18.8486C9.8163 18.6271 9.79897 18.3018 9.77575 18.0361C9.77146 17.987 9.71484 17.4532 9.77197 17.433C9.84121 17.4086 9.85272 18.2859 9.85272 18.3528C9.85272 18.3914 9.89127 18.9858 9.80729 18.99C9.6528 18.9977 9.60542 17.3845 9.60542 17.2021C9.60542 17.1566 9.59463 16.4461 9.7215 16.5069C9.81719 16.5528 9.89354 16.6845 9.9486 16.7668C10.1487 17.0662 10.2776 17.3979 10.3965 17.7358C10.5292 18.1129 10.6229 18.5364 10.8066 18.8941C10.8363 18.9519 10.8293 18.8377 10.8293 18.836C10.8321 18.4786 10.8293 18.121 10.8293 17.7636C10.8293 17.5255 10.8293 17.2875 10.8293 17.0495C10.8293 17.0326 10.8066 16.7869 10.8394 16.7744C10.8899 16.7552 10.9823 16.8914 10.9983 16.9132C11.1602 17.133 11.2816 17.3892 11.3705 17.6462C11.5144 18.0623 11.6082 18.515 11.6014 18.9572C11.6006 19.0102 11.6068 19.1231 11.5182 19.0985C11.3131 19.0413 11.2303 18.7257 11.1863 18.5547C11.092 18.1878 11.0706 17.805 11.0602 17.428C11.0523 17.1462 11.0551 16.8835 11.1371 16.6129C11.2055 16.3873 11.2957 16.2515 11.4336 16.5435C11.6718 17.0479 11.7123 17.6409 11.8273 18.1812C11.8649 18.3578 11.8959 18.5377 11.9421 18.7124C11.9596 18.7785 12.0075 18.8526 12.0102 18.9218C12.0124 18.9757 11.9632 18.8244 11.9471 18.7729C11.785 18.2526 11.6885 17.7195 11.6418 17.1769C11.6209 16.9343 11.6072 16.6899 11.6027 16.4464C11.6013 16.3701 11.5666 16.1685 11.6241 16.0981C11.7257 15.974 12.0724 16.8517 12.0771 16.8653C12.3935 17.7843 12.4921 18.7801 12.5275 19.747C12.5326 19.8849 12.5326 20.0228 12.5326 20.1608C12.5326 20.1743 12.5358 20.2142 12.5326 20.2012C12.5218 20.1583 12.5229 20.096 12.5174 20.0548C12.4038 19.1977 12.1435 18.3597 11.9799 17.5112C11.8864 17.0263 11.7831 16.5146 11.7831 16.0174C11.7831 15.9954 11.7748 15.906 11.821 15.9543C11.95 16.0891 12.0262 16.2983 12.1048 16.4628C12.4211 17.1239 12.5826 17.8093 12.6411 18.5383C12.6777 18.9948 12.6674 19.4785 12.771 19.9274C12.7758 19.948 12.7999 20.0343 12.8164 19.9627C12.8774 19.6984 12.8624 19.3974 12.8682 19.1287C12.8838 18.4039 12.8929 17.6794 12.7975 16.9599C12.793 16.9259 12.7632 16.8049 12.7849 16.7668C12.785 16.7667 12.9219 16.9299 12.9287 16.9384C13.1399 17.2006 13.2553 17.5113 13.4271 17.7977C13.4392 17.8177 13.5293 17.9615 13.5293 17.9528C13.5293 17.6509 13.3763 17.3222 13.282 17.0419C13.2413 16.921 13.1987 16.8017 13.1508 16.6836C13.1395 16.6556 13.115 16.61 13.1243 16.5776C13.1316 16.5521 13.525 16.9001 13.5394 16.9132C13.7443 17.099 13.9289 17.3028 14.1198 17.5024C14.1917 17.5776 14.2427 17.5444 14.198 17.4456C14.1048 17.2399 13.8744 17.0902 13.6959 16.9662C13.5127 16.839 13.6929 16.9474 13.7943 16.994C14.2558 17.206 14.7363 17.4507 15.2528 17.4507C15.5354 17.4507 15.8094 17.3886 16.0931 17.3826C16.4537 17.3749 16.8045 17.2236 17.1655 17.2236" stroke="#F32D12" stroke-width="1.03954" stroke-linecap="round"/>
<path d="M17.2564 17.7914C17.2564 17.4297 17.2564 18.5148 17.2564 18.8765C17.2564 19.0177 17.1263 18.8166 17.1088 18.7781C17.0722 18.6975 17.0974 18.5655 17.0974 18.4803C17.0974 18.2946 17.1089 18.1139 17.1542 17.9327C17.1831 17.8173 17.1987 17.6098 17.3586 17.6098C17.3952 17.6098 17.4677 17.5955 17.4936 17.6262C17.5937 17.7444 17.476 17.9643 17.4154 18.069C17.2548 18.3466 16.8526 18.6999 16.5019 18.6999C16.2373 18.6999 16.2631 18.1657 16.2849 17.9958C16.2892 17.9625 16.3133 17.8088 16.3821 17.8394C16.456 17.8723 16.4129 18.1059 16.3959 18.1548C16.2853 18.4743 15.9268 18.6367 15.6137 18.6746C15.3747 18.7036 15.3941 18.5469 15.3941 18.3554C15.3941 18.31 15.3601 18.0805 15.3992 18.0463C15.4168 18.0308 15.4165 18.091 15.4169 18.1144C15.4182 18.1966 15.4214 18.2811 15.4143 18.363C15.3849 18.7015 15.0751 18.88 14.7582 18.8008C14.5213 18.7416 14.4439 18.5049 14.4403 18.286C14.4377 18.1296 14.4404 18.1399 14.4744 18.2911C14.5116 18.4568 14.5243 18.639 14.5034 18.8084C14.4742 19.0447 14.1539 19.2386 13.923 19.1667C13.7583 19.1154 13.701 18.848 13.6808 18.7062C13.6713 18.6397 13.5797 18.2014 13.6732 18.1599C13.762 18.1204 13.9325 18.1548 14.0265 18.1548C14.1952 18.1548 14.3873 18.1295 14.5526 18.1687C14.6676 18.1959 14.7741 18.2572 14.8895 18.286C14.968 18.3056 14.8051 18.1143 14.7999 18.1094C14.6825 17.9989 14.4862 17.8575 14.3141 17.8873C14.1102 17.9227 13.9607 18.3518 13.8978 18.5182C13.7464 18.9181 13.8251 19.3518 13.8031 19.7685C13.7943 19.9362 13.7157 20.0927 13.6555 20.2467C13.5693 20.4673 13.4832 20.6855 13.4082 20.9104C13.3449 21.1002 13.3053 21.2747 13.2694 21.4693C13.2625 21.5069 13.2161 21.771 13.2139 21.6194C13.2104 21.3781 13.1779 21.1367 13.1698 20.8952C13.1652 20.7604 13.2035 20.5669 13.118 20.4486C13.0474 20.3507 13.0528 20.4627 13.0562 20.5205C13.0712 20.776 13.1209 21.0336 13.1458 21.2889C13.217 22.0197 13.3955 22.7229 13.3477 23.464C13.3451 23.5042 13.3184 23.7817 13.2366 23.7769C13.1615 23.7725 13.2461 23.1893 13.2505 23.1587C13.3244 22.649 13.4094 22.14 13.5319 21.6396C13.5379 21.6149 13.5621 21.3436 13.6353 21.3835C13.8036 21.4753 13.8922 21.8185 13.9508 21.9828C14.0772 22.3378 14.2037 22.7081 14.2674 23.0805C14.2951 23.242 14.3607 23.5211 14.2649 23.671C14.1444 23.8596 13.8458 23.8706 13.6505 23.8451C13.2587 23.7938 13.0813 23.467 13.0461 23.107C13.0367 23.011 12.9791 22.7012 13.1004 22.6338C13.1777 22.5909 13.2175 22.8069 13.2228 22.8408C13.2934 23.2962 13.0585 23.7529 12.8506 24.1403C12.6779 24.462 12.486 24.8018 12.1238 24.9226" stroke="#F32D12" stroke-width="1.03954" stroke-linecap="round"/>
<path d="M10.3979 24.0595C10.4017 24.0326 10.4872 24.2593 10.4925 24.274C10.6125 24.602 10.6878 24.9412 10.7562 25.2833C10.8672 25.8382 11.0173 26.3742 11.0906 26.9361C11.1996 27.7724 11.3083 28.6052 11.3694 29.4469C11.4183 30.1211 11.4209 30.8189 11.5435 31.4846C11.5736 31.6481 11.5726 31.8206 11.6129 31.9817C11.637 32.0781 11.7397 32.0061 11.8059 31.9905C11.8844 31.9721 11.9203 32.0091 11.9649 32.0649C11.9725 32.0744 11.978 32.043 11.9775 32.0309C11.9712 31.8484 11.9224 31.6637 11.8867 31.4858C11.737 30.7395 11.6272 29.9934 11.5385 29.2375C11.4552 28.5281 11.4209 27.8223 11.2886 27.1203C11.2203 26.7577 11.2209 26.3793 11.16 26.0138C11.1242 25.7993 11.106 25.5497 11.1019 25.3313C11.0992 25.1871 11.0816 25.0216 11.1133 24.8821C11.1541 24.7022 11.401 25.0022 11.43 25.0385C11.8642 25.5834 12.0937 26.2365 12.1794 26.9223C12.3225 28.0673 12.2767 29.2346 12.4305 30.3793C12.4721 30.6894 12.5666 30.9781 12.6349 31.2814C12.652 31.3576 12.6721 31.7241 12.7598 31.4707C12.8806 31.1216 12.9225 30.7223 12.9503 30.3566C12.9888 29.8497 13.0015 29.3345 12.9844 28.8262C12.962 28.1614 12.7822 27.5092 12.6917 26.8529C12.605 26.2248 12.2431 25.5512 12.4822 24.9225C12.5875 24.6456 12.759 24.4617 12.9654 24.2512C13.0776 24.1369 13.195 24.0317 13.2998 23.9106C13.3392 23.865 13.3949 23.8121 13.4588 23.8096C13.6487 23.8023 13.4869 24.3191 13.4638 24.4127C13.3473 24.8855 13.0777 25.3582 13.0777 25.8536C13.0777 26.2948 13.0997 26.7302 13.1181 27.1708C13.1457 27.8305 13.1232 28.4952 13.1232 29.1555C13.1232 29.5201 13.1005 29.8842 13.1005 30.2494C13.1005 30.3491 13.0557 30.5679 13.1131 30.6582C13.1867 30.7739 13.0621 31.0255 13.2405 31.0076C13.4854 30.9832 13.7762 30.7476 13.942 30.585C14.1101 30.4201 14.2653 30.2345 14.4177 30.0551C14.524 29.9298 14.6515 29.8198 14.7533 29.6917C14.8432 29.5786 14.9414 29.5344 15.0662 29.4646C15.1973 29.3911 15.327 29.2473 15.4674 29.1971C15.5628 29.163 15.6578 29.1693 15.7576 29.1693C15.8104 29.1693 15.8435 29.1696 15.7879 29.2173C15.6752 29.3138 15.5731 29.4097 15.4434 29.4848C15.1346 29.6636 14.8223 29.8037 14.5262 30.0096C14.3515 30.1311 14.1725 30.2583 13.9786 30.3478C13.7587 30.4493 14.0637 30.2703 14.1161 30.233C14.656 29.8484 15.1871 29.4401 15.7664 29.1151C15.904 29.0379 16.0412 29.035 16.184 28.9927C16.2264 28.9802 16.2696 28.9836 16.3115 28.965C16.3155 28.9632 16.0582 28.935 16.0137 28.9309C15.725 28.9042 15.5319 28.7936 15.2983 28.6369C14.8228 28.3178 14.4665 27.7582 14.2991 27.2238C14.2006 26.9094 14.1906 26.5977 14.1906 26.2712C14.1906 26.0599 14.1752 25.8405 14.241 25.6366C14.2982 25.4597 14.3656 25.2796 14.4404 25.1092C14.5155 24.938 14.5577 24.7468 14.6448 24.5818C14.6674 24.5389 14.7126 24.4938 14.747 24.4594C14.784 24.4224 14.8019 24.4497 14.7091 24.4443C14.5828 24.4369 14.4701 24.3821 14.347 24.3597C14.232 24.3388 14.2385 24.4571 14.2082 24.5465C14.0082 25.1369 13.8266 25.7404 13.7149 26.3545C13.5425 27.3025 13.453 28.4069 14.0404 29.2337C14.1536 29.3929 14.2911 29.5047 14.4631 29.5958C14.4767 29.603 14.4766 29.6038 14.4694 29.5895C14.4222 29.4951 14.3936 29.3913 14.3596 29.2917C14.2668 29.0198 14.1805 28.746 14.077 28.4779C13.9768 28.2184 13.8409 27.9778 13.7376 27.7197C13.7026 27.6321 13.7409 27.6424 13.7868 27.7083C13.9766 27.9807 14.1263 28.2983 14.2864 28.589C14.4196 28.8306 14.5725 29.0629 14.6889 29.3132C14.7245 29.3896 14.7674 29.4518 14.8391 29.4974C14.8625 29.5123 14.9118 29.531 14.94 29.5327C15.0388 29.5389 14.7438 29.5681 14.6523 29.6059C14.2559 29.7698 13.8925 30.0174 13.648 30.3705C13.6263 30.4019 13.6043 30.4829 13.5723 30.5042C13.563 30.5104 13.515 30.1077 13.5143 30.0929C13.4957 29.685 13.5259 29.3069 13.6102 28.9094C13.6335 28.7995 13.6455 28.6908 13.6455 28.5789" stroke="#F32D12" stroke-width="1.03954" stroke-linecap="round"/>
<path d="M18.9597 26.7622C18.9597 26.4998 18.9597 26.2374 18.9597 25.9749C18.9597 25.7829 18.9724 25.6871 18.8462 25.5409C18.7319 25.4086 18.4961 25.3226 18.344 25.2457C18.1388 25.1419 17.9269 25.0951 17.7043 25.0451C17.1878 24.9288 16.6525 24.9454 16.126 24.9454C15.8474 24.9454 15.5957 24.9324 15.3588 25.1044C15.2018 25.2184 15.0752 25.3637 14.9084 25.4652C14.7679 25.5508 14.6263 25.5415 14.6725 25.3163C14.7117 25.1251 14.9714 24.9922 15.1229 24.9038C15.3716 24.7587 15.6469 24.6649 15.9254 24.5959C16.4526 24.4653 17.009 24.4706 17.5492 24.4962C17.9468 24.5151 18.2983 24.6454 18.6746 24.7587C18.9152 24.8311 19.1367 24.9204 19.3332 25.0817C19.6036 25.3035 19.5729 25.6494 19.5729 25.9674C19.5729 26.0355 19.6114 26.066 19.6411 25.98C19.7308 25.7202 19.7716 25.407 19.7041 25.1372C19.6313 24.8458 19.3053 24.5775 19.0632 24.4281C18.5248 24.0957 17.8953 23.9664 17.2741 23.8919C16.9919 23.858 16.6902 23.8681 16.4061 23.8793C16.1083 23.8909 15.8445 24.0256 15.5935 24.1682C15.4461 24.2519 15.2965 24.3491 15.1444 24.423C15.0914 24.4488 14.9673 24.5071 14.9072 24.4899C14.8213 24.4654 14.8903 24.1928 14.9072 24.1493C15.0077 23.8892 15.0965 23.7972 15.3588 23.6913C16.238 23.3364 17.2584 23.4108 18.1409 23.7089C18.7191 23.9043 19.3667 24.2596 19.6865 24.8041C19.7751 24.955 19.8 25.0451 19.8 25.223C19.8 25.2792 19.762 25.4784 19.8354 25.4917C19.945 25.5116 19.9622 25.6274 20.0372 25.681C20.0554 25.694 20.0498 25.5405 20.0498 25.5308C20.0498 25.3527 20.0561 25.1731 20.0347 24.9959C19.9402 24.2143 19.633 23.5264 18.9168 23.1437C18.6851 23.0198 18.4637 22.9875 18.2103 22.9469C17.91 22.8987 17.6154 22.8656 17.3107 22.8573C16.4897 22.8348 15.62 22.8975 14.8718 23.2648C14.7236 23.3376 14.566 23.4416 14.3949 23.4465C14.2573 23.4504 14.2814 23.2999 14.2814 23.1967C14.2814 22.9682 14.3585 22.7513 14.6044 22.7021C14.7461 22.6737 14.8815 22.6743 15.0258 22.6743C15.3097 22.6743 15.5507 22.7335 15.8282 22.7765C16.2196 22.8373 16.5984 22.9582 16.989 23.0226C17.383 23.0875 17.7932 23.1319 18.1926 23.1285C18.4492 23.1264 18.6967 23.0983 18.9219 22.9696C19.0282 22.9088 19.103 22.8067 19.2096 22.7475C19.2744 22.7115 19.196 22.6322 19.1591 22.6062C19.0684 22.5424 18.9505 22.5517 18.8449 22.5734C18.7256 22.598 18.3797 22.6797 18.5005 22.6958C18.8505 22.7424 19.2119 22.5688 19.5603 22.5431C19.943 22.5149 20.1263 22.7689 20.277 23.0781C20.4085 23.3482 20.535 23.5978 20.6164 23.8893C20.7167 24.2491 20.7539 24.5793 20.7539 24.953C20.7539 25.0623 20.7539 25.1717 20.7539 25.281C20.7539 25.3024 20.7261 25.3593 20.7413 25.3441C20.7945 25.2909 20.8193 25.1914 20.846 25.1246C20.9524 24.8584 21.2082 24.4458 21.5487 24.4458C21.6069 24.4458 21.6582 24.4102 21.7077 24.3827C21.8355 24.3117 21.5148 24.0445 21.473 23.989C21.2409 23.6806 21.0432 23.3516 20.8384 23.0251C20.7278 22.8488 20.6178 22.6714 20.4612 22.5318C20.3208 22.4066 20.1339 22.3442 20.0044 22.2088C19.8898 22.089 19.7508 21.9892 19.6322 21.8706C19.5241 21.7625 19.5022 21.7832 19.3912 21.8921C19.2616 22.0192 19.2189 22.0099 19.3483 22.1646C19.5235 22.3741 19.6726 22.5981 19.8303 22.8207C20.0063 23.069 20.2166 23.2964 20.3741 23.5575C20.5995 23.9313 20.663 24.4409 20.663 24.8722C20.663 24.9983 20.6826 25.1374 20.6454 25.2583C20.6388 25.2796 20.6341 25.3071 20.663 25.3088C20.7286 25.3126 20.7426 25.2162 20.7589 25.17C20.9056 24.7556 21.0784 24.2519 21.3923 23.9335C21.5073 23.8169 21.6597 23.7321 21.7872 23.6282C21.9781 23.4727 22.131 23.27 22.3196 23.1084C22.4442 23.0016 22.5789 22.9135 22.6956 22.7967C22.9382 22.5541 23.1102 22.2605 23.2722 21.9602C23.4933 21.5506 23.6899 21.1235 23.9334 20.7263C23.9909 20.6323 24.0224 20.5198 24.0848 20.4222C24.2265 20.2003 24.4342 20.0258 24.626 19.8481C24.7163 19.7645 24.8242 19.7044 24.944 19.6778C24.9837 19.669 25.0775 19.6226 25.1055 19.6463C25.2303 19.7518 25.3237 20.078 25.2682 20.2393C25.2196 20.3808 24.9377 20.5146 24.8241 20.6026C24.5201 20.8382 24.2141 21.0738 23.9321 21.3357C23.4244 21.8071 23.0901 22.4279 22.6338 22.9469C22.4849 23.1162 22.3296 23.274 22.2074 23.4642C22.1639 23.5318 22.2402 23.4929 22.278 23.4717C22.649 23.2644 22.9876 22.975 23.3063 22.697C23.6547 22.3932 24.0213 22.1036 24.3283 21.7571C24.4715 21.5954 24.6277 21.4484 24.7787 21.294C24.8687 21.2021 24.9826 21.1001 25.0184 20.971C25.067 20.7961 25.0533 20.5955 25.0449 20.4159C25.0412 20.3352 24.9677 20.1725 25.0273 20.1055C25.1686 19.9465 25.3735 19.8405 25.4903 19.6589C25.6207 19.456 24.7727 19.4667 24.6879 19.4772C24.2137 19.5355 23.7238 19.4667 23.2508 19.5289C23.2126 19.5339 22.9003 19.5395 22.8899 19.5756C22.8794 19.6126 22.8887 19.6657 22.8887 19.703C22.8887 19.8705 22.8835 20.0292 22.8483 20.1938C22.7912 20.4609 22.6863 20.6906 22.5657 20.9357C22.2623 21.5523 21.9625 22.1653 21.5803 22.7387C21.4341 22.9579 21.315 23.1916 21.1753 23.4112C20.9346 23.7894 21.7103 22.6908 21.9525 22.3135C22.2885 21.7899 22.6857 21.3097 23.0451 20.8032C23.1577 20.6446 23.2501 20.5193 23.3997 20.3919C23.4991 20.3072 23.6848 20.2544 23.7466 20.1307C23.8017 20.0206 23.6583 19.8465 23.6003 19.7749C23.3742 19.4961 23.0667 19.3795 22.7549 19.2236C22.6026 19.1474 22.436 19.0935 22.278 19.0293C22.247 19.0167 22.0304 18.8823 22.0269 18.8943C22.0132 18.9425 22.0449 19.0191 22.0471 19.0684C22.0581 19.3105 22.0349 19.5597 22.0004 19.7989C21.9136 20.4019 21.7766 21.0274 21.5715 21.6019C21.4484 21.9464 21.2492 22.2593 21.1526 22.6138C21.1354 22.6767 21.0945 22.8657 21.0945 22.8005C21.0945 22.6485 21.1685 22.4737 21.198 22.3248C21.315 21.7335 21.4675 21.169 21.5134 20.566C21.5393 20.2262 21.5372 19.9295 21.3973 19.616C21.329 19.4629 21.2589 19.3552 21.2535 19.1819C21.2449 18.9067 21.2156 18.6152 21.1627 18.3454C21.1339 18.1989 21.1078 18.03 21.015 17.9064C20.9478 17.8168 21.0154 17.9581 21.0264 17.9833C21.0766 18.0985 21.0799 18.2416 21.0945 18.3644C21.1184 18.5643 21.1429 18.7646 21.1627 18.9649C21.2131 19.4752 21.1854 19.9955 21.1854 20.508C21.1854 20.9332 21.1854 21.3584 21.1854 21.7836C21.1854 21.9943 21.1683 22.2624 21.0264 22.4245" stroke="#F32D12" stroke-width="1.03954" stroke-linecap="round"/>
<path d="M21.8441 18.6088C21.8093 18.5292 21.7344 18.4599 21.6801 18.3944C21.5483 18.2354 21.4154 18.0772 21.2877 17.9149C21.1644 17.7581 21.0569 17.5767 20.918 17.4329C20.7397 17.2483 20.6129 17.0122 20.46 16.8059C20.4198 16.7516 20.36 16.7267 20.3225 16.6734C20.2781 16.6103 20.2347 16.538 20.1875 16.4791C20.1464 16.4277 20.2212 16.6063 20.2392 16.6696C20.3738 17.1405 20.4732 17.623 20.532 18.1092C20.6276 18.9009 20.6338 19.6915 20.6909 20.4837C20.719 20.8734 20.7828 21.2622 20.8171 21.6521C20.8283 21.7791 20.8221 21.9082 20.8221 22.0356C20.8221 22.1329 20.7921 22.0732 20.7389 22.0243C20.5396 21.8409 20.3414 21.6453 20.1295 21.4805C20.1093 21.4648 20.0514 21.4482 20.05 21.425C20.0456 21.3508 20.0208 21.2711 20.0046 21.1979C19.8162 20.35 19.8683 19.4396 19.8683 18.5786C19.8683 17.795 19.8683 17.0115 19.8683 16.228C19.8683 15.9197 19.8683 15.6115 19.8683 15.3032C19.8683 15.1472 19.8928 14.965 19.8557 14.8111C19.8531 14.8004 19.7983 14.6915 19.8002 14.7253C19.8022 14.7614 19.8335 14.7972 19.8506 14.8263C19.9252 14.9528 19.9806 15.0919 20.026 15.2313C20.1476 15.6042 20.2121 16.0537 20.1131 16.4387C20.0746 16.5883 19.9912 16.7214 19.9263 16.8601C19.8374 17.0503 19.791 17.2528 19.7648 17.4607C19.6726 18.1931 19.6639 18.9601 19.6639 19.699C19.6639 19.7281 19.6413 19.6827 19.6336 19.6737C19.4789 19.4918 19.3265 19.3083 19.1567 19.14C18.7884 18.7748 18.4021 18.4105 17.9758 18.113C17.9517 18.0962 17.8134 18.0177 17.8243 18.0184C17.8673 18.0211 17.9221 18.0496 17.9606 18.0688C18.0885 18.1328 18.2201 18.1936 18.3492 18.2581C18.4519 18.3094 18.5513 18.3668 18.6545 18.4171C18.7232 18.4504 18.7092 18.4702 18.676 18.4259C18.6227 18.3549 18.5056 18.3249 18.4274 18.2909C18.1506 18.1706 17.8747 18.0933 17.5897 18.0007C17.5206 17.9783 17.4536 17.9689 17.4622 17.8872C17.4893 17.6297 17.6043 17.3757 17.678 17.1301C17.8298 16.6243 17.9362 16.1026 18.0729 15.5921C18.1461 15.319 18.2319 15.024 18.2546 14.7405C18.2577 14.702 18.2614 14.622 18.2003 14.6723C18.1099 14.7469 18.0384 14.8582 17.9682 14.9499C17.7607 15.2211 17.5599 15.5014 17.3941 15.8003C17.2976 15.9744 17.2093 16.165 17.1481 16.3554C17.1066 16.4844 17.143 16.2804 17.143 16.2242C17.143 15.4734 17.1884 14.7293 17.2086 13.9797C17.2166 13.6832 17.2438 13.3903 17.1216 13.1154C17.0204 12.8878 17.0522 12.63 17.0522 12.3861C17.0522 12.2751 17.0714 12.0061 17.1481 12.26C17.3249 12.8454 17.441 13.45 17.5392 14.0528C17.6736 14.8777 17.6934 15.7154 17.8243 16.5384C17.8565 16.7407 17.8925 16.94 17.8925 17.1453C17.8925 17.2637 17.8016 17.3516 17.7322 17.4405C17.6563 17.5378 17.5575 17.7234 17.4383 17.7736C17.3402 17.8149 17.3744 17.2277 17.3752 17.2084C17.3863 16.9152 17.4463 16.6358 17.4824 16.3466C17.5057 16.1601 17.4837 16.7226 17.4837 16.9106C17.4837 17.2568 17.4592 17.6131 17.4963 17.9578C17.517 18.1498 17.5372 18.3646 17.6805 18.5079C17.7794 18.6068 17.8954 18.6522 18.0111 18.7224C18.1053 18.7796 18.0728 18.5083 18.0754 18.3981C18.1 17.371 18.1386 16.3448 18.1827 15.3183C18.2307 14.2004 18.2558 13.0848 18.2558 11.966C18.2558 11.6958 18.2672 11.3983 18.1991 11.1333C18.1769 11.0471 18.1644 10.9541 18.1372 10.8696C18.1094 10.783 18.1213 10.8866 18.1183 10.9213C18.1136 10.9761 18.0888 11.0274 18.0716 11.079C18.0012 11.2904 17.9421 11.5068 17.8975 11.725C17.7663 12.3684 17.707 13.1001 17.8168 13.7513C17.8832 14.145 18.0421 14.5223 18.141 14.9083C18.2334 15.2685 18.3052 15.6344 18.3871 15.9971C18.4729 16.3773 18.6192 16.7968 18.6192 17.1894C18.6192 17.3446 18.6208 17.4999 18.6142 17.655C18.606 17.8469 18.5511 18.0394 18.5511 18.2303C18.5511 18.7956 18.5489 17.0997 18.5612 16.5346C18.581 15.6223 18.6311 14.7112 18.6621 13.7992C18.6861 13.0943 18.6795 12.3897 18.6924 11.6846C18.7018 11.1734 18.7096 10.6625 18.7328 10.1529C18.7666 9.40816 18.8707 11.6377 18.9271 12.3811C19.0341 13.7919 19.0343 15.2115 19.1744 16.6191C19.217 17.0479 19.3161 17.4693 19.351 17.8972C19.3671 18.0949 19.3693 18.3119 19.409 18.5054C19.4311 18.6131 19.4118 18.5938 19.3573 18.5193C19.2234 18.3361 19.1361 18.1871 19.0911 17.9578C18.9537 17.2584 18.9676 16.5141 18.9611 15.8041C18.955 15.1226 19.0148 14.4479 19.0633 13.769C19.0975 13.2903 19.2083 12.8249 19.2904 12.3533C19.3534 11.9918 19.4013 11.6266 19.481 11.2683C19.5018 11.1745 19.5625 11.0996 19.6185 11.0235C19.7916 10.7883 19.9586 10.5639 20.1963 10.3876C20.4677 10.1864 20.7824 10.0774 21.1048 9.99017C21.3759 9.91679 21.6351 9.82235 21.8996 9.729C22.1713 9.63312 22.4399 9.54569 22.7071 9.43881C22.8165 9.39507 22.9493 9.41105 23.0654 9.41105C23.1103 9.41105 23.1544 9.40703 23.1374 9.46657C23.12 9.52735 22.7265 9.58938 22.6907 9.60031C22.2666 9.72971 21.8066 9.93026 21.458 10.211C21.1438 10.4641 20.9034 10.7995 20.6606 11.1181C20.2134 11.7052 19.8494 12.3016 19.7775 13.0498C19.7409 13.4304 19.7046 13.8093 19.6753 14.1904C19.6666 14.3028 19.6639 14.6413 19.6639 14.5285C19.6639 14.1229 19.7875 13.7796 19.9692 13.4195C20.2674 12.8286 20.6086 12.2307 21.1136 11.7906C21.2843 11.6419 21.4673 11.5002 21.6448 11.3591C21.7618 11.2661 21.8802 11.154 22.0208 11.0967C22.0927 11.0674 22.0006 11.2365 21.9905 11.2695C21.8848 11.6147 21.7563 11.9508 21.6423 12.2928C21.6378 12.3062 21.5716 12.5435 21.5716 12.4618C21.5716 12.1404 21.603 11.8233 21.6738 11.5093C21.7262 11.2768 21.7834 11.0097 21.9552 10.8317C22.0136 10.7712 22.2375 10.6001 22.0157 10.751C21.1571 11.3351 20.5381 12.4175 20.2418 13.398C20.1552 13.6844 20.1254 13.9743 20.0828 14.2686C20.0505 14.4915 19.9824 14.6994 19.9263 14.9158C19.8652 15.1517 20.1109 14.7155 20.1282 14.6875C20.4085 14.2329 20.7023 13.7874 21.0328 13.3677C21.2288 13.1189 21.4207 12.8874 21.6549 12.6738C21.8305 12.5136 21.987 12.3452 22.1394 12.1641C22.1784 12.1177 22.2572 12.0475 22.2744 11.9874C22.2899 11.933 22.2908 11.9762 22.2517 12.0114C22.2083 12.0504 22.1601 12.0275 22.1167 12.0505C22.0667 12.077 22.1359 12.1031 22.1394 12.1363C22.1805 12.5269 22.588 12.782 22.832 13.0447C23.0743 13.3057 23.5325 13.5377 23.8881 13.5444C24.0385 13.5472 24.1893 13.5444 24.3398 13.5444C24.5486 13.5444 24.7171 13.4746 24.905 13.3905C25.2384 13.2411 25.4466 13.0019 25.7276 12.7823C25.8775 12.6653 25.9575 12.5901 26.0456 12.4202C26.1758 12.1691 26.1607 11.914 26.1869 11.6417C26.2256 11.2404 26.2484 10.7569 26.1364 10.3649C26.1035 10.2498 26.0547 10.2206 26.1844 10.2854C26.5347 10.4606 26.8291 10.8 27.113 11.0689C27.4387 11.3775 27.7483 11.7267 27.9987 12.1023C28.0932 12.244 28.2214 12.3521 28.2536 12.5224C28.3295 12.9251 28.343 13.329 28.2826 13.7387C28.2138 14.2051 28.19 14.6764 28.0555 15.1316C27.9639 15.4415 27.7923 15.6099 27.6025 15.8583C27.3538 16.184 27.1523 16.5406 26.9086 16.8702C26.5218 17.3933 26.1803 17.9714 25.9333 18.5735C25.8993 18.6563 25.8612 18.7331 25.8235 18.8132C25.8142 18.833 25.8645 18.7965 25.8816 18.783C26.0472 18.6516 26.2154 18.5208 26.3724 18.3792C26.8306 17.966 27.2432 17.4636 27.6303 16.9838C27.9241 16.6195 28.1998 16.23 28.4151 15.8129C28.5499 15.5517 28.579 15.2952 28.6586 15.0168C28.7163 14.8146 28.7667 14.6118 28.8339 14.4124C28.8786 14.28 28.9351 14.1536 28.9525 14.0137C28.9578 13.972 28.9431 14.0984 28.9273 14.1374C28.8086 14.4306 28.6174 14.7061 28.4605 14.9789C28.0511 15.6906 27.6516 16.4027 27.1862 17.0797C26.8415 17.5809 26.4801 18.0718 26.1579 18.5874C26.0395 18.7768 25.9808 19.0028 25.8525 19.188C25.8072 19.2535 25.6519 19.5313 25.7377 19.6081C25.9508 19.7988 26.3656 19.0788 26.4443 18.9596C26.6057 18.7151 26.6892 18.5314 26.7029 18.2354C26.7081 18.1247 26.7242 17.9947 26.6588 17.8998C26.5811 17.7871 26.4995 17.6787 26.4317 17.5591C26.3066 17.3385 26.1917 17.1197 26.1024 16.8816C25.9948 16.5947 25.7882 16.3496 25.6015 16.1107C25.4798 15.955 25.3213 15.8369 25.1624 15.7221C24.9734 15.5854 24.7872 15.423 24.5921 15.2981C24.2971 15.1093 23.9514 14.9339 23.6256 14.8036C23.2867 14.668 22.917 14.6799 22.5595 14.6799C22.2327 14.6799 21.9101 14.7268 21.5842 14.7493C21.4572 14.7581 21.3435 14.8465 21.236 14.907C21.1032 14.9817 20.9504 15.044 20.8045 15.0887C20.7191 15.1149 20.4682 15.1935 20.3906 15.1114C20.1933 14.9024 20.884 14.5269 20.9988 14.449C21.3359 14.2205 21.6271 14.0731 22.0397 14.0907C22.286 14.1012 22.5359 14.1491 22.7803 14.1803C23.1202 14.2237 23.4541 14.2543 23.7871 14.3393C24.7628 14.5882 25.737 14.9736 26.3383 15.8255C26.4917 16.0429 26.5971 16.299 26.7597 16.5081C26.8131 16.5767 26.8644 16.4599 26.896 16.4084C27.0456 16.1645 27.2053 15.9339 27.3174 15.6691C27.4096 15.4512 27.5079 15.2197 27.5546 14.9865C27.5847 14.8361 27.5672 14.67 27.5672 14.5172C27.5672 13.9513 27.3951 13.4188 27.3174 12.8631C27.2844 12.6273 27.2428 12.3769 27.1672 12.1502C27.0994 11.9468 26.961 11.7783 26.8455 11.6014C26.7962 11.5258 26.7315 11.4234 26.6499 11.378C26.6226 11.3629 26.6564 11.427 26.6588 11.4323C26.7106 11.5497 26.7414 11.6786 26.7698 11.8032C26.9483 12.5868 26.937 13.4277 26.9073 14.2282C26.8853 14.8237 26.6682 15.4082 26.5503 15.987C26.5156 16.1574 26.5022 15.8623 26.5011 15.8255C26.4908 15.5039 26.4794 15.1828 26.4594 14.8616C26.426 14.324 26.3042 13.7596 26.1251 13.2504C26.097 13.1706 26.0456 13.0094 26.0456 13.0094C26.0456 13.0094 26.0456 13.2231 26.0456 13.3299C26.0456 13.4561 26.0629 13.6154 25.9648 13.7134C25.8601 13.8182 25.7239 13.8888 25.6166 13.9961C25.5437 14.0689 25.4433 14.2281 25.3466 14.2661C25.2135 14.3184 25.1648 13.9972 25.1498 13.9317C25.1244 13.8213 25.0454 13.5092 25.2255 13.4813C25.4355 13.4488 25.7726 13.4462 25.9573 13.552C26.3039 13.7505 26.2954 14.0993 26.2954 14.4528C26.2954 14.5101 26.3101 14.5436 26.2437 14.5436C25.8356 14.5436 25.4725 14.5013 25.0766 14.3986C24.4354 14.2321 23.7714 14.1792 23.1348 13.9999C22.6683 13.8684 22.177 13.7289 21.7306 13.5393C21.6792 13.5175 21.3303 13.3573 21.3722 13.263C21.3998 13.2009 21.899 13.2491 21.9703 13.2491C22.2223 13.2491 22.4429 13.3006 22.6844 13.3627C22.7381 13.3765 22.8457 13.4331 22.7753 13.3627" stroke="#F32D12" stroke-width="1.03954" stroke-linecap="round"/>
<path d="M18.5809 18.8667C17.9744 19.5415 17.3678 20.2149 16.7848 20.91C16.7205 20.9866 16.4237 21.2754 16.4406 21.0007C16.4667 20.5773 17.818 17.8222 18.2649 18.9981C18.5155 19.6577 18.3693 20.6323 17.8925 21.1509C17.1514 21.9571 15.8468 21.6186 15.4518 20.6378C15.2364 20.1029 15.0098 19.0879 15.7741 18.9605C16.5811 18.8261 17.4116 18.9387 17.8299 19.7209C18.1951 20.4036 18.1635 21.2762 17.4419 21.7016C16.6257 22.1829 15.6153 21.8042 15.1389 21.0445C14.6919 20.3318 15.2969 19.9109 15.9712 19.7804C16.8012 19.6197 17.8401 19.6277 18.5684 20.1027C18.8373 20.278 19.0928 20.553 18.6936 20.7629C17.9829 21.1366 16.333 21.5215 15.771 20.7254C15.1764 19.883 16.3896 19.505 17.0226 19.505C18.3102 19.505 19.2007 20.1355 19.3319 21.4357C19.6074 24.1654 17.1849 25.66 16.1715 27.9098C16.0814 28.1098 15.8774 28.4052 15.8774 28.6326C15.8774 28.7883 16.0905 28.405 16.2091 28.3041C16.5498 28.014 16.9206 27.752 17.3042 27.5218C17.3452 27.4972 18.094 27.0638 17.9238 27.3278C17.7017 27.6725 17.1453 28.1477 16.7473 28.2728C16.6153 28.3142 16.7681 27.9904 16.8286 27.866C17.0523 27.406 17.3874 26.9982 17.6985 26.5956C17.98 26.2313 18.2088 25.7406 18.606 25.4879C18.7735 25.3812 18.2436 26.3197 18.1866 26.4016C17.8816 26.8399 17.5871 27.2455 17.3293 27.7095C17.303 27.7569 17.286 27.6072 17.2855 27.5531C17.2817 27.1579 17.2855 26.7624 17.2855 26.3672C17.2855 26.2309 17.2709 25.4378 17.2479 25.4754C16.9701 25.93 16.6683 26.369 16.3968 26.8271C16.2736 27.035 16.1075 27.2904 16.1027 26.9085C16.0968 26.4476 16.1027 25.9863 16.1027 25.5254C16.1027 25.3935 16.1077 25.3295 16.1027 25.5067C16.0938 25.8154 16.0115 26.0906 15.9087 26.3797C15.8403 26.5718 15.759 27.1431 15.5394 27.2464C15.4762 27.2762 15.482 26.4861 15.4831 26.4016C15.4836 26.358 15.5051 25.8008 15.5676 25.8008C15.8313 25.8008 15.0829 27.5871 14.9762 27.7471C14.569 28.3579 14.1718 28.1927 13.8497 27.6032C12.9294 25.9188 12.6855 23.8819 12.1287 22.0646C11.9126 21.3593 11.7001 20.6503 11.4027 19.9744C11.3312 19.8119 11.1981 19.6965 11.1211 19.5426C10.9549 19.2101 11.0333 20.1538 11.0335 20.1934C11.0385 21.3445 10.9969 22.5455 11.1023 23.6918C11.1044 23.714 11.1593 23.9431 11.1336 23.7731C11.0852 23.4523 11.0258 23.1328 10.974 22.8125C10.8469 22.0258 10.8302 21.1036 10.561 20.3499C10.4265 19.9734 10.9251 21.062 11.0898 21.4263C11.328 21.953 11.6446 22.4657 11.8095 23.0221C11.948 23.4895 11.2743 22.2058 11.0429 21.7767C10.8676 21.4517 10.7248 21.1205 10.5954 20.7754C10.5943 20.7724 10.4809 20.516 10.5735 20.5814C10.9712 20.8621 11.3172 21.568 11.5154 22.0083C11.7073 22.4348 11.4473 22.5199 11.2338 22.1022C10.6632 20.9859 10.7542 17.1106 10.8927 18.3566C10.9918 19.2488 10.9722 20.2476 10.7957 21.1259C10.7848 21.1802 10.4626 22.3613 10.4014 21.8581C10.3055 21.0692 10.3363 20.2398 10.3858 19.4487C10.3884 19.4062 10.4939 18.4195 10.6079 18.6476C10.6158 18.6634 10.6508 18.8317 10.6768 18.7916C10.7249 18.7173 10.7977 18.4337 10.8019 18.4192C10.9647 17.8619 11.1302 17.3059 11.3026 16.7514C11.6164 15.7425 11.9463 14.7385 12.257 13.7287C12.3585 13.3988 12.4166 12.8967 12.6106 12.5959C12.7885 12.3202 13.2804 12.8855 13.3428 12.9777C13.6293 13.4012 13.7969 13.9196 13.9248 14.4108C13.9505 14.5094 14.025 15.1375 14.0124 14.996C13.9243 14.0048 13.7179 13.0281 13.5681 12.0452C13.4985 11.5887 13.7759 12.2286 13.8184 12.3143C14.195 13.0745 14.5132 13.8703 14.7259 14.6924C14.7536 14.7997 14.964 15.9927 14.9292 15.9722C14.5617 15.7561 14.2962 15.2066 14.1 14.8552C13.7914 14.3023 13.5221 13.7155 13.3021 13.1216C13.2566 12.9987 13.1382 12.6348 13.2207 12.7367C13.5304 13.1193 13.7168 13.6551 13.881 14.1104C14.1057 14.7334 14.3726 15.5282 14.2972 16.2069C14.2791 16.3694 13.9966 16.0628 13.881 15.9472C13.3936 15.4598 13.031 14.8579 12.8296 14.198C12.7446 13.9195 12.6302 13.4965 12.6825 13.1999C12.723 12.9706 13.2349 13.0644 13.3803 13.0778C14.5133 13.1826 15.5793 13.9639 16.2059 14.8896C16.2764 14.9937 16.5507 15.3156 16.4844 15.4747C16.3916 15.6976 16.1394 15.1238 16.0369 14.9052C15.6003 13.9731 15.3912 13.0085 15.1702 12.0139C15.1102 11.7438 15.3168 12.056 15.3579 12.1203C15.6944 12.6466 15.8953 13.2595 16.0526 13.8601C16.0952 14.0228 16.3563 15.5388 16.0589 15.3777C14.991 14.7993 14.5384 13.1662 14.3066 12.0734C14.0932 11.0676 15.0974 12.5321 15.214 12.7336C15.6196 13.4345 15.8861 14.1754 16.0933 14.9553C16.2023 15.3656 16.3547 15.8246 16.328 16.257C16.3165 16.4433 15.9958 16.0582 15.8961 15.9003C15.3252 14.9953 14.9337 13.9541 14.6069 12.9401C14.4241 12.3727 14.2629 11.7901 14.1125 11.2129C14.1015 11.1703 14.0712 11.0482 14.1 11.0814C14.2318 11.233 14.3316 11.5693 14.4036 11.7354C15.0529 13.2347 15.6009 14.7608 15.9775 16.3509C15.9865 16.3887 16.1901 17.1566 16.134 17.1707C15.8586 17.2395 15.4329 16.2634 15.3892 16.1694C14.6886 14.6629 14.2433 13.1021 13.9686 11.4695C13.8468 10.7453 13.8464 9.98338 13.6526 9.27281C13.5005 8.71511 13.4396 8.29822 13.4992 7.702C13.5166 7.5279 13.5878 7.10596 13.4742 6.95101C13.33 6.75438 13.1361 6.59437 13.0361 6.36587C13.0062 6.29739 12.7311 5.8913 12.7232 6.0248C12.698 6.45408 12.6766 6.88707 12.67 7.31712C12.6565 8.20351 12.6382 9.11012 12.8359 9.97999C13.0987 11.1364 13.6247 12.2272 14.2189 13.2468C15.4326 15.3292 17.1987 16.9128 19.5572 17.5024C20.2568 17.6773 20.9279 17.9187 21.6162 18.1282C21.8441 18.1976 22.2196 18.3348 22.461 18.3003C22.6953 18.2668 22.4276 16.661 22.3984 16.5011C22.3694 16.3417 21.9614 15.0542 22.2795 15.1055C22.8794 15.2022 23.4067 15.6614 23.8003 16.0943C24.0217 16.3378 24.2772 16.9047 24.0037 17.202C23.6237 17.615 22.9273 17.3173 22.5862 17.0205C22.5057 16.9505 21.4199 15.881 21.9541 15.8377C22.7689 15.7716 23.6415 16.4297 24.2227 16.9204C24.2515 16.9447 25.0646 17.7663 24.8204 17.7934C24.2498 17.8568 23.7065 17.5001 23.3059 17.1331C23.1331 16.9749 22.5385 16.2889 23.1119 16.2758C23.7601 16.2609 24.2835 16.5156 24.5982 17.0987C24.7688 17.4149 25.0037 18.209 24.8204 18.5757C24.7644 18.6877 24.491 18.639 24.4073 18.6289C23.786 18.5535 23.1825 18.2673 22.6675 17.9217C22.0487 17.5064 21.1913 16.7739 20.959 16.0192C20.8872 15.7856 21.1711 15.8252 21.322 15.8252C21.8748 15.8252 22.3472 16.0131 22.6832 16.4666C22.9335 16.8046 22.4911 16.8265 22.2044 16.8265C20.2167 16.8265 20.2144 14.5995 20.571 13.1529C20.7866 12.2784 21.3573 11.232 22.1262 10.7059C22.4387 10.4921 22.7011 10.2091 23.0305 10.0238C23.6863 9.65494 25.1914 9.34518 25.7028 10.0739C25.7749 10.1766 26.0422 10.6744 25.8592 10.7842C25.6442 10.9132 25.2807 10.8672 25.0457 10.8687C24.6844 10.8709 24.2715 10.9214 23.9411 10.7435C23.6242 10.5729 23.3765 10.2661 23.8566 10.1615C24.225 10.0812 24.8244 10.0277 25.0331 10.3993C25.9126 11.9648 22.9593 12.1301 22.1199 11.5477C21.8053 11.3294 21.6443 11.1048 22.1106 11.0376C22.791 10.9396 23.7909 10.8076 24.4011 11.2066C24.5016 11.2723 24.9186 11.6178 24.764 11.7917C24.6363 11.9354 24.0808 11.6733 23.9692 11.6196C23.6434 11.4628 23.3925 11.2224 23.1807 10.9344C22.8737 10.5169 23.3095 10.6601 23.6063 10.781C24.1589 11.0063 24.5888 11.3456 24.8329 11.8825" stroke="#F32D12" stroke-width="1.03954" stroke-linecap="round"/>
<path d="M20.2153 13.8362C20.5724 13.8362 20.9277 13.8083 21.2842 13.7892C21.7012 13.7667 22.1195 13.7757 22.5369 13.7757C22.9207 13.7757 23.2994 13.768 23.6686 13.89C24.025 14.0078 24.3702 14.186 24.6927 14.3763C25.2424 14.7006 25.742 15.0857 26.044 15.6559C26.1393 15.8358 26.238 16.017 26.3219 16.2027C26.3402 16.2431 26.3667 16.272 26.3667 16.3169" stroke="white" stroke-width="1.03954" stroke-linecap="round"/>
<path d="M24.612 14.9862C24.612 15.1849 24.612 15.3836 24.612 15.5823C24.612 15.7054 24.614 15.809 24.5514 15.9184C24.4441 16.1062 24.232 16.2881 24.0069 16.2971C23.3849 16.322 23.0779 15.4897 23.3111 14.9974C23.3742 14.8641 23.4612 14.7371 23.5867 14.6545C23.7213 14.5659 23.8814 14.5828 24.0349 14.5828C24.3701 14.5828 24.6463 14.8327 24.7195 15.161C24.7979 15.5123 24.579 15.7481 24.2937 15.9251C24.1341 16.0242 23.9641 16.0937 23.7761 16.1111C23.633 16.1244 23.556 16.0084 23.4825 15.9005C23.2867 15.6129 23.1652 15.0854 23.3705 14.7811C23.5528 14.5108 24.0176 14.5252 24.2467 14.7161C24.5351 14.9565 24.6357 15.3864 24.3767 15.673C24.2198 15.8466 24.02 15.9929 23.8343 16.1347C23.6685 16.2613 23.499 16.3286 23.2898 16.3173C22.9042 16.2965 22.8358 15.4907 22.8214 15.2282C22.8095 15.01 22.7834 14.7455 22.9268 14.5626C23.0401 14.4181 23.1954 14.3464 23.3749 14.3307C23.5753 14.3131 23.7857 14.3098 23.971 14.4002C24.2269 14.5249 24.5042 14.8038 24.6075 15.0736C24.7238 15.3774 24.6109 15.7244 24.3744 15.9363C24.1591 16.1292 23.759 16.1305 23.496 16.0708C23.1368 15.9893 22.9422 15.5776 23.0321 15.2282C23.1169 14.8984 23.5854 14.7813 23.8769 14.8338C24.1477 14.8826 24.4713 15.3172 24.3565 15.5991C24.319 15.6912 24.1572 15.7302 24.0685 15.7302C23.9553 15.7302 23.8858 15.6207 23.859 15.5206C23.7647 15.1691 24.1079 15.1439 24.3699 15.1475C24.7026 15.1521 24.733 15.5132 24.733 15.7828C24.733 16.0732 24.6131 16.3518 24.3016 16.398C24.1806 16.4159 24.048 16.4383 23.9262 16.4383C23.826 16.4383 23.7365 16.4052 23.6394 16.398C23.4783 16.386 23.2343 16.2655 23.1497 16.1246C23.0845 16.0158 23.0314 15.8912 22.9895 15.7716C22.9475 15.6517 22.938 15.5219 22.938 15.3963C22.938 15.0907 23.0295 14.8937 23.2001 14.6433" stroke="white" stroke-width="1.03954" stroke-linecap="round"/>
<path d="M15.8747 12.5402C15.9309 12.5823 15.7445 12.1916 15.7301 12.1661C15.5987 11.9323 15.423 11.6341 15.2067 11.4667C14.9909 11.2996 14.7238 11.1803 14.4885 11.0423C14.1865 10.8653 13.8715 10.7136 13.5517 10.5724C12.9689 10.315 12.347 10.1637 11.708 10.1637C11.5146 10.1637 11.3265 10.159 11.1375 10.2046C11.0616 10.2229 10.9738 10.2486 10.8954 10.2486" stroke="white" stroke-width="1.03954" stroke-linecap="round"/>
<path d="M15.0561 11.8343C15.0561 11.585 15.0971 12.3536 14.9917 12.5795C14.8116 12.9655 14.3363 13.0913 13.9438 13.067C13.5096 13.0402 13.1011 12.5449 13.1384 12.1116C13.1542 11.9285 13.261 11.7047 13.3995 11.5809C13.5261 11.4678 13.7203 11.4793 13.8777 11.4834C14.0677 11.4883 14.2347 11.5905 14.3592 11.7309C14.4907 11.8791 14.6336 12.059 14.6263 12.2684C14.6207 12.4271 14.4749 12.5476 14.3448 12.6168C14.2162 12.6853 13.9524 12.7641 13.8268 12.6482C13.678 12.511 13.6315 11.9066 13.9133 11.881C14.0001 11.8731 14.1023 11.8773 14.1787 11.9225C14.3335 12.0141 14.3688 12.1412 14.3847 12.3074" stroke="white" stroke-width="1.03954" stroke-linecap="round"/>
</svg>
