<svg width="36" height="38" viewBox="0 0 36 38" fill="none" xmlns="http://www.w3.org/2000/svg">
<rect x="-0.519772" y="0.519772" width="34.305" height="35.8643" rx="4.67795" transform="matrix(-1 0 0 1 34.6829 0.903809)" fill="white" stroke="#F32D12" stroke-width="1.03954"/>
<path d="M7.19979 16.9609C7.19979 16.2213 8.05165 15.5796 8.60518 15.1971C9.71701 14.4286 10.8112 13.6964 12.0715 13.1833C13.3912 12.646 14.6637 12.2021 16.099 12.1057C16.6967 12.0655 17.2972 12.0797 17.8959 12.0797C18.4083 12.0797 18.9361 12.0418 19.4427 12.1316C20.7378 12.3612 22.0739 12.6488 23.2439 13.2682C23.3962 13.3488 23.4591 13.523 23.6282 13.5653C23.878 13.6278 24.1846 13.7084 24.3899 13.8624" stroke="#F32D12" stroke-width="0.467313" stroke-linecap="round"/>
<path d="M20.9517 19.0833C20.9517 19.3135 21.0173 19.4229 20.7607 19.4229C20.5822 19.4229 20.3945 19.2973 20.2726 19.1682C20.124 19.0108 20.12 18.4053 20.3056 18.2768C20.513 18.1333 20.7895 18.0613 21.0178 17.9609C21.3321 17.8226 21.6509 17.7272 21.9846 17.6496C22.1055 17.6215 22.28 17.5284 22.3123 17.7062C22.3464 17.8936 22.3929 18.1045 22.4467 18.2863C22.6088 18.8331 21.9726 19.5502 21.4186 19.5502C21.1277 19.5502 20.7242 19.4269 20.6971 19.0739C20.6857 18.926 20.6546 18.7931 20.6546 18.6376C20.6546 18.4114 20.9909 18.3851 21.1828 18.2792C21.3364 18.1945 21.5348 18.0646 21.7157 18.0646C21.8922 18.0646 21.9939 17.8977 21.9728 18.1094C21.9593 18.2444 21.9427 18.8506 21.7582 18.8711C21.605 18.8881 21.2702 18.9271 21.1451 18.8475C20.9588 18.729 21.1264 18.4654 21.2819 18.4136C21.4535 18.3564 21.6421 18.3617 21.8219 18.3617C22.0238 18.3617 22.0226 18.7653 21.928 18.8711C21.7775 19.0392 21.5606 18.9984 21.355 18.9984C21.222 18.9984 21.2809 18.4958 21.3337 18.4136C21.4416 18.2458 21.8316 18.2181 21.9869 18.3217C22.1509 18.4309 21.8738 18.7844 21.8101 18.8711C21.6632 19.0708 21.6169 19.2106 21.3502 19.2106C21.1038 19.2106 20.5907 19.236 20.8527 18.8616C20.8842 18.8167 21.4186 18.1917 21.4186 18.4278C21.4186 18.6203 21.469 18.8761 21.2819 18.9984C21.0806 19.13 21.1974 18.7609 21.3762 18.7013" stroke="#F32D12" stroke-width="0.467313" stroke-linecap="round"/>
<path d="M13.0148 18.1495C13.0148 17.6725 13.2004 17.1955 13.5241 16.8337C13.8138 16.51 13.1859 16.2401 12.9723 16.1452C12.7212 16.0336 12.7458 16.0215 12.4866 16.1546C12.0228 16.3928 11.6654 16.6234 11.35 17.0554C11.1069 17.3883 10.7868 17.8451 10.7652 18.2768C10.7545 18.4911 11.0288 18.3779 11.1472 18.3523C11.3148 18.3161 12.7083 18.3933 12.7177 18.2344C12.7363 17.9177 12.7859 17.623 12.8356 17.31C12.866 17.1185 12.8713 16.9229 12.9629 16.7488C12.9975 16.6831 13.0862 16.7126 13.1327 16.6545C13.1617 16.6182 12.779 16.4884 12.7177 16.4611C12.6535 16.4326 12.6343 16.4243 12.5809 16.3763C12.5387 16.3383 12.4964 16.2238 12.5809 16.2914C12.7506 16.4271 12.6822 16.7535 12.6328 16.928C12.5898 17.0798 12.3835 17.8739 12.2744 17.3596C12.2364 17.1807 12.0725 16.579 12.3993 16.579C12.6276 16.579 12.4767 17.4675 12.4418 17.593C12.337 17.97 12.0959 17.3625 12.0598 17.2181C12.0229 17.0707 12.0469 16.9663 12.2248 17.0058C12.3383 17.0311 12.3446 17.3307 12.3569 17.4067C12.3858 17.586 12.4088 17.8168 12.3758 17.9986C12.3569 18.1023 12.1723 18.0646 12.1022 18.0646C12.0031 18.0646 11.8164 18.0943 11.7862 17.9585C11.7556 17.8207 11.8533 17.6584 11.9961 17.6425C12.0318 17.6386 12.2369 17.6143 12.2484 17.6661C12.2752 17.7866 12.2389 17.9007 12.1211 17.9538C11.7023 18.1422 11.5503 17.7913 11.574 17.4468C11.5828 17.3199 11.6184 17.1329 11.7226 17.0436C11.7447 17.0246 11.8925 16.839 11.8853 16.8361C11.682 16.7548 11.381 17.392 11.3406 17.5364C11.3237 17.5968 11.235 17.8706 11.2392 17.8453C11.2606 17.7169 11.461 17.5469 11.5717 17.4916C11.6792 17.4379 11.809 17.3438 11.9301 17.3265C11.9726 17.3205 11.6899 17.6424 11.6353 17.6826C11.5528 17.7434 11.2321 18.0117 11.2321 17.8524C11.2321 17.6265 11.6299 17.0489 11.9301 17.2204C12.1049 17.3203 11.8679 17.6878 11.7627 17.7463C11.5342 17.8732 11.349 17.7113 11.2745 17.5128" stroke="#F32D12" stroke-width="0.467313" stroke-linecap="round"/>
<path d="M19.2965 21.6299C19.3349 21.6222 19.2219 21.5878 19.221 21.5874C19.071 21.5231 18.9283 21.4432 18.7777 21.3799C18.6606 21.3307 18.5291 21.2883 18.4051 21.2573C18.1567 21.1952 17.9285 21.0874 17.6836 21.0262C17.1252 20.8866 16.5315 20.824 15.9622 20.7291C15.7069 20.6865 15.4913 20.6536 15.2312 20.6536C14.9122 20.6536 14.6381 20.7486 14.3305 20.781C14.0963 20.8056 13.9567 20.9656 13.7598 21.0781C13.7029 21.1106 13.7111 21.114 13.7598 21.1229C13.9357 21.1549 14.0789 21.3306 14.1795 21.4624C14.3958 21.7459 14.5644 22.0542 14.7973 22.3278C15.0466 22.6207 15.3127 22.8986 15.5779 23.1767C15.9311 23.5472 16.1706 23.9893 16.4786 24.3911C16.6714 24.6426 16.9794 24.8668 17.1224 25.1528C17.1971 25.3023 17.1439 25.3332 17.1837 25.1433C17.2737 24.7133 17.5614 24.2866 17.759 23.8983C18.0582 23.3107 18.4647 22.6315 18.9357 22.1604C18.9909 22.1052 19.3348 21.8827 19.1927 22.0119C18.8286 22.3429 18.6077 22.7571 18.3627 23.1791C18.1892 23.4779 18.0229 23.8192 17.8109 24.0917C17.6592 24.2868 17.4854 24.5335 17.3959 24.7613C17.3296 24.9301 17.2118 25.0231 17.0894 25.1528C16.9425 25.3083 16.9336 25.1934 16.8253 25.049C16.4169 24.5046 15.8 24.1517 15.3939 23.6035C15.2116 23.3574 15.042 23.0942 14.8398 22.8631C14.7222 22.7287 14.5589 22.6056 14.4601 22.4575C14.3341 22.2685 14.2352 22.1004 14.1418 21.8869C14.061 21.7021 14.3038 21.7617 14.4248 21.7242C14.8763 21.5841 15.2852 21.3328 15.7736 21.3328C16.3841 21.3328 16.9162 21.5108 17.5114 21.6299C17.7746 21.6825 17.5903 21.7624 17.7095 21.9081C17.9397 22.1895 18.2142 22.4412 18.3792 22.7712C18.4832 22.9792 18.4493 22.7958 18.49 22.6226C18.5634 22.3108 18.7718 21.9449 18.9805 21.6983C19.1437 21.5054 19.2895 21.7934 19.1833 21.861C19.0288 21.9592 18.6705 21.8793 18.4947 21.8869C18.3751 21.8921 18.2089 21.9588 18.0892 21.9246C18.0134 21.903 18.0396 21.5874 18.1741 21.5874C18.4373 21.5874 18.4051 21.6279 18.4051 21.8751C18.4051 21.9596 18.3885 22.0605 18.2778 22.0543C18.2027 22.0501 18.2332 21.814 18.2354 21.7666C18.2452 21.5501 18.5836 21.4452 18.7353 21.5969C18.8472 21.7088 18.7753 21.8171 18.6409 21.8327C18.3442 21.8671 18.1538 21.7341 17.9383 21.5544C17.7823 21.4245 17.5434 21.1765 17.9359 21.3139C17.9537 21.3201 18.1739 21.3954 18.1387 21.4365C18.0189 21.5763 17.4289 21.3888 17.2921 21.354C17.1313 21.313 16.5029 21.1205 16.9856 21.1205C17.0278 21.1205 17.3413 21.135 17.2214 21.1158C16.7584 21.0417 16.2871 20.8938 15.8372 20.7645C15.6521 20.7112 15.1073 20.5182 15.2925 20.5711C15.4409 20.6135 15.5801 20.5978 15.7311 20.6206C15.8108 20.6326 16.0474 20.6429 16.1037 20.7055C16.156 20.7636 15.6007 20.781 15.5708 20.781C15.3132 20.781 15.0625 20.748 14.8068 20.7385C14.7706 20.7372 15.0059 20.7385 15.052 20.7385C15.131 20.7385 15.8528 20.6847 15.8585 20.781C15.8723 21.0156 14.776 20.9083 14.6063 20.9083C14.3512 20.9083 14.6928 20.9083 14.762 20.9083C15.0179 20.9083 15.2801 20.8918 15.5354 20.9107C15.6036 20.9157 15.7945 20.9522 15.7712 21.0569C15.7446 21.1765 15.3873 21.1574 15.3067 21.1606C15.0503 21.1709 14.7815 21.1336 14.5285 21.1842C14.417 21.2065 14.361 21.2314 14.5026 21.1818C14.8453 21.0619 15.9386 20.9932 15.5755 20.9932C15.0455 20.9932 14.4759 21.0993 13.9579 21.2054C13.9405 21.209 13.6225 21.2442 13.6278 21.2809C13.6294 21.2925 13.8383 21.2073 13.8636 21.196C14.0068 21.1315 14.1499 21.1497 14.288 21.0875C14.3782 21.0469 14.7738 20.9295 14.4766 21.0569C14.2749 21.1433 14.0574 21.1205 13.8423 21.1205C13.7631 21.1205 13.577 21.1877 13.6301 21.229C13.9787 21.5001 14.0596 21.9795 14.2456 22.3514" stroke="#F32D12" stroke-width="0.467313" stroke-linecap="round"/>
<path d="M17.9807 23.2002C17.3963 23.2002 16.8889 23.5911 16.3702 23.818C16.2674 23.863 16.2145 23.9218 16.0966 23.9218C15.9952 23.9218 16.2994 23.9218 16.4008 23.9218C16.7515 23.9218 16.962 24.0404 16.962 24.4311C16.962 24.5987 16.9196 24.41 16.9196 24.3368C16.9196 24.21 16.8881 24.0805 16.9833 23.9854C17.1366 23.832 17.5168 23.5195 17.3865 23.943C17.2717 24.3162 17.0085 24.0907 17.1743 23.8274C17.3006 23.6268 17.7043 23.6681 17.8109 23.4549" stroke="#F32D12" stroke-width="0.467313" stroke-linecap="round"/>
<path d="M12.6753 22.606C12.5759 22.4942 12.5016 22.3639 12.4136 22.2429C12.1686 21.906 11.8214 21.6289 11.5293 21.3327C11.1444 20.9424 10.7308 20.5902 10.3408 20.2102C10.0768 19.9529 9.87029 19.6452 9.61927 19.3802C9.47606 19.229 9.36568 19.1581 9.19483 19.0312C9.00969 18.8937 8.8417 18.7386 8.68549 18.5738C8.58461 18.4673 8.49315 18.3202 8.35536 18.2672C8.16797 18.1951 8.03795 18.0079 7.84603 17.9465C7.80464 17.9333 7.73282 18.4981 7.70926 18.5643C7.62265 18.8079 7.53203 19.0197 7.42158 19.2529C7.32168 19.4638 7.60739 19.3567 7.75171 19.3896C8.24656 19.5027 8.67919 19.6612 8.9826 20.0923C9.21723 20.4258 9.54266 20.7731 9.91639 20.9412C10.0868 21.0179 10.2933 21.0282 10.4682 21.111C10.6141 21.1801 10.7651 21.2478 10.9256 21.2478C10.9652 21.2478 11.2423 21.2768 11.2652 21.2997C11.4399 21.4744 10.8167 21.0912 10.5861 21.0025C10.3367 20.9066 10.1162 20.655 9.90695 20.4838C9.71079 20.3233 9.13359 19.8613 9.37404 19.9414C9.69399 20.0481 9.97979 20.3594 10.2654 20.5356C10.3828 20.6081 10.5908 20.8186 10.737 20.8186C10.7853 20.8186 10.6689 20.7499 10.6356 20.7149C10.5442 20.6189 10.4389 20.5506 10.3314 20.4743C10.0143 20.2493 9.7467 19.979 9.41648 19.7716C9.23464 19.6575 9.01293 19.4433 8.90715 19.2529C8.78466 19.0324 8.49561 18.8673 8.31292 18.6917C8.2839 18.6638 8.14755 18.5153 8.24218 18.6186C8.38504 18.7744 8.58062 18.8838 8.72793 19.0501C8.85236 19.1905 9.14565 19.4572 9.18775 19.6467C9.18923 19.6533 8.85256 19.4499 8.81282 19.4227C8.54478 19.239 8.22011 19.0744 8.01581 18.819C7.94902 18.7355 8.09405 18.744 8.13371 18.7695C8.22018 18.8251 8.30049 18.9812 8.30349 19.0831C8.30805 19.2383 8.05953 19.4863 7.97336 19.2623C7.91715 19.1162 7.92148 18.6388 7.92148 18.7954C7.92148 19.0948 7.6727 18.9074 7.53948 19.0406" stroke="#F32D12" stroke-width="0.467313" stroke-linecap="round"/>
<path d="M12.0811 23.9643C11.6715 23.9643 11.3248 23.6332 10.9586 23.4762C10.6322 23.3363 10.3241 23.1347 9.95882 23.1155C9.73229 23.1035 9.33171 23.2057 9.13115 23.0942C9.02424 23.0348 8.85029 23.0106 8.72792 22.9669C8.5058 22.8876 8.26239 22.8241 8.02994 22.7853C7.8333 22.7526 7.64361 22.6271 7.45458 22.6061C7.3063 22.5896 7.41214 22.6709 7.41214 22.7971C7.41214 23.0094 7.49703 23.2645 7.49703 23.4975C7.49703 23.6101 7.50294 23.7246 7.49703 23.837C7.48726 24.0225 7.46483 23.8689 7.6055 23.7922C7.88186 23.6415 8.26207 23.7097 8.57701 23.7097C9.32054 23.7097 10.0423 23.6672 10.7865 23.6672C10.8749 23.6672 10.9963 23.6453 11.0812 23.6696C11.2506 23.718 10.7244 23.6984 10.553 23.6578C10.2123 23.5771 9.80033 23.5823 9.44712 23.5823C9.22455 23.5823 9.01664 23.5399 8.79159 23.5399C8.59952 23.5399 8.44159 23.4257 8.2516 23.4126C8.01022 23.3959 7.67006 23.3732 7.62672 23.1131C7.5621 22.7254 8.03086 22.9481 8.22802 23.0211C8.47873 23.114 8.75379 23.2605 9.02268 23.2829C9.20648 23.2982 9.45705 23.289 9.61926 23.3701" stroke="#F32D12" stroke-width="0.467313" stroke-linecap="round"/>
<path d="M13.1843 25.4499C12.5943 25.4499 12.0316 25.3689 11.4535 25.3226C11.3691 25.3159 11.3773 25.2802 11.463 25.2802C11.5926 25.2802 11.7223 25.2802 11.852 25.2802C12.0742 25.2802 12.2939 25.2274 12.5146 25.2047C12.6087 25.1951 12.884 25.2442 12.9297 25.1528" stroke="#F32D12" stroke-width="0.467313" stroke-linecap="round"/>
<path d="M13.3967 26.0443C12.7459 26.0443 12.0951 26.0443 11.4443 26.0443C11.0852 26.0443 10.6927 26.0133 10.3407 26.0961C9.87422 26.2059 9.6194 26.2378 9.32204 26.629C9.2369 26.7411 9.07591 26.8233 8.97305 26.9262C8.93817 26.961 8.65 26.4365 8.56746 26.3508C8.47831 26.2582 8.30858 26.147 8.25149 26.0443C8.23321 26.0114 8.0796 25.832 8.17603 25.832C8.32052 25.832 8.46818 25.9142 8.61934 25.9169C9.25424 25.9285 9.88466 25.8745 10.5105 25.8745C10.8673 25.8745 11.2242 25.8745 11.581 25.8745C11.6911 25.8745 11.8011 25.8745 11.9112 25.8745C12.0471 25.8745 11.6415 25.9169 11.5056 25.9169C11.0497 25.9169 10.5938 25.9169 10.1379 25.9169C9.86963 25.9169 9.6623 26.0116 9.40693 26.0773C9.3652 26.088 8.83156 26.2563 8.83156 26.2046C8.83156 26.0485 9.17242 26.3615 8.89759 26.0867" stroke="#F32D12" stroke-width="0.467313" stroke-linecap="round"/>
<path d="M12.8025 21.0782C12.7679 20.9052 12.5793 20.7018 12.4653 20.5689C12.3417 20.4246 12.2888 20.2609 12.187 20.1043C11.9594 19.7541 11.5984 19.4507 11.2768 19.1894C10.8138 18.8132 10.2519 18.6241 9.78892 18.2769" stroke="#F32D12" stroke-width="0.467313" stroke-linecap="round"/>
<path d="M8.17578 17.0033C8.17578 16.5445 8.60844 15.9765 8.91856 15.6663C9.03923 15.5457 9.1964 15.4664 9.32178 15.348C9.39881 15.2753 9.57849 15.259 9.6189 15.1782" stroke="#F32D12" stroke-width="0.467313" stroke-linecap="round"/>
<path d="M13.8635 13.5654C14.1223 13.5654 14.389 13.3799 14.6275 13.2871C14.7594 13.2359 15.2103 13.0365 15.2642 12.9287" stroke="#F32D12" stroke-width="0.467313" stroke-linecap="round"/>
<path d="M26.7244 19.9318C26.7244 19.8146 26.7238 19.5802 26.597 19.5168C26.4612 19.4489 26.0262 19.786 25.9179 19.8469C25.6325 20.0075 25.3364 20.1589 25.069 20.3468C24.9486 20.4314 24.7943 20.4606 24.6634 20.526C24.5538 20.5808 24.471 20.6655 24.3498 20.6958C24.0298 20.7758 23.6899 21.0517 23.3972 21.2028C23.1219 21.3449 22.8636 21.5164 22.5742 21.6296C22.2383 21.7611 21.8597 21.773 21.5862 22.0328C21.3963 22.2132 21.0969 22.3602 20.867 22.4879C20.5421 22.6684 20.2528 22.9555 19.912 23.1128C19.8338 23.1489 19.7554 23.1852 19.6785 23.2236C19.6168 23.2545 19.5682 23.3628 19.5088 23.3698C19.4486 23.3769 19.208 23.528 19.2399 23.5396C20.2489 23.9065 21.0649 24.6053 21.9493 25.195C22.5839 25.618 23.1088 26.1448 23.7131 26.598C23.8103 26.6709 23.9749 26.7348 24.0503 26.8291C24.1779 26.9886 24.2065 26.9025 24.338 26.8079C24.6413 26.5895 24.3744 26.536 24.1376 26.341C23.9581 26.1931 23.7903 26.0385 23.6259 25.8741C23.5176 25.7658 23.4267 25.6141 23.2863 25.544C22.7485 25.275 22.3234 24.7116 21.8692 24.3272C21.6121 24.1097 21.3457 23.8247 21.1405 23.5608C20.9884 23.3652 20.6241 23.3313 20.4944 23.1152C20.4741 23.0814 20.4823 23.166 20.4331 23.2001C20.3033 23.2899 20.1466 23.3343 20.0016 23.3911C19.7609 23.4852 19.8192 23.4972 20.0275 23.4972C20.4249 23.4972 20.8687 23.8164 21.1028 24.1244C21.2974 24.3805 21.6536 24.6192 21.9069 24.8153C22.2021 25.0439 22.5647 25.2468 22.8289 25.5015C22.9854 25.6524 23.1783 25.7152 23.3288 25.8741C23.4592 26.0118 23.6447 26.2134 23.7297 26.3834C23.8289 26.5819 24.0028 26.8514 23.7297 26.4872C23.3634 25.9988 22.9062 25.5555 22.4162 25.1926C22.0626 24.9307 21.7824 24.5826 21.44 24.3036C21.2097 24.116 20.9468 23.8858 20.7821 23.6339C20.624 23.3921 20.898 23.188 21.0887 22.9973C21.1698 22.9162 21.2745 22.8757 21.3763 22.8275C21.5382 22.7508 21.6718 22.6231 21.822 22.5186C22.2578 22.2154 22.795 22.1167 23.2227 21.8206C23.5896 21.5666 23.9863 21.4288 24.3687 21.2264C24.6872 21.0577 25.0713 21.02 25.3874 20.8444C25.6792 20.6822 25.9158 20.527 26.1632 20.3044C26.242 20.2334 26.786 19.8469 26.5546 19.8469C26.2645 19.8469 25.9694 19.9172 25.7269 20.0851C25.4594 20.2703 25.2695 20.5309 25.0006 20.717C24.5926 20.9995 24.13 21.217 23.7202 21.4598C23.4946 21.5935 23.2023 21.5946 22.968 21.7169C22.7488 21.8312 22.5114 21.9015 22.2913 22.0116C22.1184 22.098 21.9581 22.1938 21.8196 22.3323C21.6465 22.5054 21.4192 22.5977 21.216 22.7332C20.9098 22.9373 20.5971 23.1228 20.2728 23.285" stroke="#F32D12" stroke-width="0.467313" stroke-linecap="round"/>
<path d="M27.9128 23.54C26.9353 23.54 25.9752 23.249 25.0172 23.0731C24.4146 22.9624 23.77 22.776 23.159 22.776C22.848 22.776 21.9237 22.6486 22.2347 22.6486C22.6642 22.6486 23.0863 22.5809 23.5151 22.6085C24.0676 22.6442 24.6382 22.7336 25.1728 22.8844C25.4509 22.9629 25.7135 23.0306 26.0028 23.0636C26.278 23.0951 26.5578 23.0501 26.8329 23.0825C27.0378 23.1066 27.2418 23.1329 27.4459 23.1556C27.5749 23.1699 27.7178 23.2429 27.8421 23.2429C27.8971 23.2429 27.7319 23.2466 27.677 23.2429C27.3871 23.2231 27.0941 23.0577 26.8329 22.9457C26.2106 22.6791 25.593 22.5019 24.9323 22.3751C24.0476 22.2053 23.1714 22.1578 22.2889 22.3539C22.2362 22.3656 21.6095 22.5991 21.6829 22.6816C21.7298 22.7344 22.0225 22.6911 22.0791 22.6911C22.5055 22.6911 22.9245 22.748 23.3477 22.7972C24.2889 22.9066 25.2245 22.9457 26.1726 22.9457C26.5107 22.9457 26.8195 22.9574 27.1488 23.0306C27.3557 23.0766 27.4837 23.158 27.7006 23.158" stroke="#F32D12" stroke-width="0.467313" stroke-linecap="round"/>
<path d="M29.186 19.3804C29.0955 19.3917 29.053 19.8929 29.0351 19.9746C28.9517 20.356 28.8392 20.7448 28.738 21.1206C28.5133 21.9554 28.3405 22.8089 28.1249 23.6484C27.8961 24.5395 27.5043 25.2867 26.9341 25.9994C26.8538 26.0997 26.145 26.8806 26.0876 26.7658" stroke="#F32D12" stroke-width="0.467313" stroke-linecap="round"/>
<path d="M22.1827 28.8877C22.1062 28.8986 22.4046 29.1831 22.428 29.2273C22.4808 29.327 22.2008 29.6161 22.1427 29.6706C21.8228 29.9705 21.449 30.2459 20.9943 30.2459" stroke="#F32D12" stroke-width="0.467313" stroke-linecap="round"/>
<path d="M15.1369 25.7471C15.3567 25.7471 16.198 25.6507 16.198 26.0229C16.198 26.5151 16.2404 27.0467 16.2404 27.5533C16.2404 28.0035 16.3282 28.4797 16.7498 28.7276C16.9446 28.8423 17.0796 29.0325 17.311 29.1096C17.5611 29.193 17.969 29.1789 18.2259 29.1332C18.5556 29.0746 18.8575 29.0059 19.1667 28.8667C19.4896 28.7214 19.7444 28.3093 19.9567 28.0391C20.0703 27.8945 20.2478 27.7218 20.4448 27.808C20.6198 27.8845 20.9536 28.1281 21.0367 28.315C21.154 28.579 21.0582 28.4078 20.9093 28.5484C20.7781 28.6723 20.5656 28.7292 20.4424 28.8455C20.4166 28.8699 20.0904 29.2087 20.1123 29.2087C20.1711 29.2087 20.3173 29.0132 20.3576 28.9729C20.4598 28.8706 20.5978 28.8119 20.6971 28.7182C20.8966 28.5298 20.688 28.9522 20.6358 29.0342C20.4424 29.3381 20.2753 29.6091 20.0416 29.8854C19.8527 30.1086 19.5549 30.183 19.2964 30.3122C19.0181 30.4514 18.7236 30.5863 18.4075 30.6258C17.9704 30.6805 17.2229 30.7254 16.8771 30.416C16.6658 30.2269 16.4498 30.0547 16.2498 29.8548C16.1767 29.7816 15.7552 29.2097 15.6556 29.2794C15.3737 29.4768 14.4629 29.745 14.2267 29.3737C14.1177 29.2025 14.1182 28.9533 14.1182 28.7583C14.1182 28.6544 14.0809 28.4721 14.1276 28.3786C14.1837 28.2664 14.338 28.2512 14.4342 28.19C14.5863 28.0931 14.7051 28.0997 14.7124 27.9023C14.7263 27.5266 14.7973 27.1584 14.7973 26.7752C14.7973 26.6178 15.068 25.9673 14.8822 25.8744" stroke="#F32D12" stroke-width="0.467313" stroke-linecap="round"/>
<path d="M20.3153 28.1238C20.3153 28.4859 19.7106 28.3598 19.7682 28.23C19.8316 28.0874 20.1079 28.1238 20.2281 28.1238C20.3757 28.1238 20.4002 28.2681 20.4002 28.3974C20.4002 28.6446 19.8866 28.4242 20.3578 28.3031C20.4309 28.2843 20.6403 28.2081 20.6879 28.2936C20.7698 28.441 20.7473 28.566 20.6124 28.6662C20.4658 28.7751 20.2995 28.7605 20.1267 28.7605C20.0095 28.7605 20.2091 28.6756 20.254 28.6756C20.4786 28.6756 20.4206 28.9097 20.313 29.0576C20.1468 29.286 20.0429 29.3547 19.7635 29.3547C19.6116 29.3547 19.4904 29.2693 19.5112 29.1024C19.5301 28.9517 19.821 28.9641 19.931 28.9751C20.1135 28.9933 20.1031 29.1701 20.1031 29.3123C20.1031 29.5005 19.9613 29.567 19.7871 29.567C19.4307 29.567 19.6036 28.8936 19.806 28.7699C19.9468 28.6839 19.9526 28.6829 19.8814 28.8548C19.7953 29.0629 19.7308 29.2665 19.6692 29.4821C19.6277 29.6273 19.0823 30.0597 18.9571 29.8405C18.8043 29.5731 18.9288 29.2699 19.233 29.2699C19.3403 29.2699 19.3059 29.5367 19.2872 29.6094C19.2429 29.7818 19.0204 29.8738 18.8628 29.8971C18.7214 29.918 18.3012 30.021 18.1931 29.9065C18.0662 29.7722 18.2001 29.535 18.3204 29.4491C18.662 29.2051 19.1182 30.1612 18.4808 30.1612C18.2898 30.1612 17.7602 30.2889 17.8582 29.9702C17.9573 29.6483 18.6892 29.7141 18.9146 29.7391C19.1836 29.769 19.1437 30.0294 19.0514 30.2036C18.9422 30.4099 18.5453 30.3275 18.3629 30.331C18.1788 30.3344 17.997 30.3976 17.8111 30.3711C17.6136 30.3428 17.6169 29.9188 17.6649 29.7815C17.7067 29.662 18.2068 29.4535 18.2332 29.6118C18.332 30.2045 17.4061 30.3882 17.0707 30.0527C16.858 29.84 16.9623 29.4235 17.2169 29.3217C17.3811 29.256 17.7686 29.2691 17.7686 29.4915C17.7686 29.8182 17.5806 29.9914 17.2381 29.9914C17.0028 29.9914 16.9238 29.7866 16.8584 29.5905C16.7962 29.4038 16.9581 29.3704 17.1131 29.3335C17.3543 29.2761 17.5606 29.4265 17.4196 29.6943C17.3388 29.8479 17.0206 29.846 16.8867 29.8028C16.5569 29.6964 16.305 29.2726 16.2501 28.9492C16.2126 28.7285 16.4476 28.6967 16.6226 28.7794C16.8332 28.8788 16.8348 29.0125 16.8348 29.218C16.8348 29.6338 16.4457 29.669 16.1982 29.3359C16.1108 29.2182 15.8858 28.8182 16.0095 28.6591C16.085 28.5621 16.2659 28.5783 16.3444 28.6568C16.5194 28.8318 16.7058 29.3525 16.2807 29.3099C15.9234 29.2742 15.5742 28.3472 15.9624 28.3361C16.3646 28.3246 16.1443 28.7477 15.9011 28.7605C15.6178 28.7754 15.4748 27.9116 15.7101 27.9116C15.7816 27.9116 15.9011 27.8788 15.9011 27.9753C15.9011 28.0343 15.9319 28.1938 15.8563 28.2064C15.5186 28.2627 15.4197 27.6145 15.7502 27.6145C16.0392 27.6145 16.2322 28.0978 15.835 28.0342C15.3561 27.9576 15.2741 27.4069 15.6888 27.1995C15.7726 27.1576 15.8779 27.2368 15.7973 27.3174C15.6686 27.4461 15.44 27.4409 15.4342 27.2325C15.4313 27.1287 15.4173 26.8773 15.5639 26.8529C15.7011 26.83 15.7969 26.9247 15.8138 27.0604C15.8239 27.1408 15.8395 27.3551 15.7077 27.3551C15.4984 27.3551 15.4342 27.0049 15.4342 26.8529C15.4342 26.7253 15.5724 26.6777 15.67 26.6288C15.7711 26.5783 15.5959 26.6132 15.5709 26.544C15.5141 26.3861 15.6013 26.2623 15.7643 26.2563C15.9071 26.251 15.854 26.2291 15.8586 26.0676C15.8619 25.9516 15.9363 25.816 16.0708 25.8318C16.2078 25.8479 16.0137 26.1392 15.986 26.1808C15.9065 26.2999 15.8162 26.3972 15.8162 26.544C15.8162 26.6399 15.8162 26.9275 15.8162 26.8316C15.8162 26.55 15.9307 26.2093 15.6464 26.1077C15.2012 25.9487 15.3106 26.6312 15.2856 26.8764C15.2398 27.325 15.1466 27.7921 15.1371 28.2417C15.1342 28.3769 15.0946 28.4953 15.0946 28.2842C15.0946 27.9004 15.0522 26.7496 15.0522 27.1335C15.0522 27.745 15.0522 28.3565 15.0522 28.968C15.0522 29.2023 15.0444 28.6433 15.0734 28.5507C15.1059 28.4465 15.2084 28.3552 15.3233 28.4445C15.47 28.5586 15.4529 29.0576 15.2196 29.0576C14.8336 29.0576 14.7778 28.1926 15.2432 28.296C15.4696 28.3463 15.5439 28.9859 15.288 29.0482C14.7864 29.1702 14.3319 28.752 14.5098 28.2182C14.5397 28.1286 14.7654 28.158 14.8399 28.1686C15.0094 28.1929 15.0183 28.4439 15.0074 28.5695C14.9934 28.7297 14.9404 28.8353 14.7975 28.9067C14.7385 28.9362 14.5421 29.0408 14.5004 28.9468C14.4354 28.8007 14.3433 28.5269 14.4674 28.3879C14.6143 28.2234 14.7559 28.2997 14.8399 28.4634C14.9875 28.7508 15.1678 29.1001 14.722 29.1001C14.5057 29.1001 14.3553 29.2494 14.3731 28.9303C14.3809 28.7896 14.7551 28.7935 14.7551 28.9727" stroke="#F32D12" stroke-width="0.467313" stroke-linecap="round"/>
<path d="M14.8397 30.0338C14.5214 30.0338 14.2031 30.0338 13.8847 30.0338C13.809 30.0338 13.798 30.0325 13.7503 29.9725C13.5846 29.7637 13.3641 29.5516 13.142 29.4065C12.9742 29.297 12.7861 29.2183 12.6114 29.1212C12.4657 29.0403 12.2206 28.8724 12.0596 28.8477C11.9153 28.8255 11.7524 28.7686 11.6139 28.7604C11.3713 28.7462 11.6984 28.8684 11.7601 28.9302C11.9499 29.12 11.9926 29.4486 12.1021 29.6919C12.1784 29.8614 12.2082 29.933 12.2082 30.1187C12.2082 30.2149 12.172 30.3699 12.1327 30.4582C12.0434 30.6592 12.4231 30.5914 12.5241 30.5761C12.841 30.5283 13.1615 30.5431 13.4815 30.5431C13.6556 30.5431 13.9393 30.4916 14.0993 30.5643C14.2332 30.6252 14.4407 30.5855 14.5851 30.5855C14.7499 30.5855 14.6781 30.4953 14.7973 30.4252C14.8693 30.3828 15.0095 30.3215 15.0095 30.2248C15.0095 30.0128 14.5542 30.0762 14.3964 30.0762C14.138 30.0762 13.9066 30.1932 13.6513 30.2366C13.5714 30.2501 13.3274 30.246 13.4084 30.246C13.5452 30.246 13.6819 30.246 13.8187 30.246C14.0907 30.246 14.3501 30.2678 14.6181 30.2884C14.7697 30.3001 14.4493 30.3309 14.4247 30.3309C14.2518 30.3309 14.0789 30.3309 13.906 30.3309C13.6964 30.3309 13.2879 30.4158 13.1019 30.3073C12.9366 30.2109 12.8794 29.8478 12.76 29.6942C12.6485 29.5509 12.5629 29.4226 12.4298 29.3028C12.1986 29.0946 12.6256 29.2717 12.7269 29.3122C12.9928 29.4186 13.231 29.6182 13.4344 29.8215C13.605 29.9922 13.6245 30.1187 13.373 30.1187C13.0256 30.1187 12.9887 30.0247 12.7694 29.7885C12.6971 29.7107 12.5609 29.4584 12.4298 29.4584C12.3992 29.4584 12.6151 29.8772 12.6326 29.9253C12.673 30.0363 12.7073 30.1861 12.6727 30.3073C12.6279 30.4641 12.3931 30.1342 12.3779 30.1092C12.2511 29.9003 12.4043 29.8962 12.4628 29.7791" stroke="#F32D12" stroke-width="0.467313" stroke-linecap="round"/>
<path d="M10.8501 29.9066C10.7146 29.8915 10.6086 29.6968 10.5105 29.6189C10.3196 29.4673 10.1412 29.3701 10.0436 29.1426" stroke="#F32D12" stroke-width="0.467313" stroke-linecap="round"/>
<path d="M8.60026 9.9576C8.65817 9.9576 8.49371 9.95351 8.47293 9.94817C8.35065 9.91672 8.19529 9.83788 8.09093 9.76896C7.84663 9.60763 7.51792 9.39226 7.36937 9.13228C7.32319 9.05148 7.18343 8.99058 7.11706 8.92006C6.97306 8.76706 6.9939 8.86495 7.03924 9.0191C7.2443 9.71629 7.37268 10.4297 7.60281 11.1201C7.74569 11.5487 7.87613 11.9819 7.95416 12.4288C8.03643 12.9 8.25032 13.3446 8.30315 13.8201C8.34173 14.1673 8.46487 14.4985 8.47293 14.8529C8.47365 14.8849 8.47293 15.0563 8.47293 14.9236C8.47293 14.6227 8.47711 14.3214 8.47057 14.0205C8.45571 13.3367 8.4211 12.632 8.34559 11.9525C8.30522 11.5892 8.18388 11.2026 8.17581 10.8395C8.1657 10.3842 7.99216 10.2357 7.67591 9.94817C7.54756 9.83149 7.19181 9.47581 7.35286 9.54023C7.54867 9.61855 7.62307 10.1612 7.68534 10.316C7.86049 10.7514 8.1007 11.1573 8.27957 11.5917C8.31195 11.6704 8.41334 12.2704 8.30315 11.9949" stroke="#F32D12" stroke-width="0.467313" stroke-linecap="round"/>
<path d="M27.4883 18.1068C27.4883 18.738 27.5616 16.8374 27.4671 16.2133C27.3574 15.4895 27.2761 14.7216 27.2761 13.9896C27.2761 13.6146 27.4561 13.2852 27.6156 12.9521C27.7854 12.5975 27.9103 12.2215 28.0825 11.8674C28.0987 11.8341 28.1726 11.5953 28.2287 11.6835C28.3012 11.7974 28.2832 12.0651 28.3042 12.1975C28.3812 12.6831 28.6239 13.1355 28.7286 13.6171C28.8684 14.2599 29.2105 14.9124 28.8866 15.5601C28.6964 15.9405 28.4784 16.2931 28.2759 16.6613C28.1346 16.9182 28.0066 17.2027 27.8514 17.4465C27.8385 17.4668 27.81 17.621 27.7854 17.621C27.7634 17.621 27.7854 17.577 27.7854 17.555C27.7854 17.4709 27.7854 17.3868 27.7854 17.3027C27.7854 16.6802 27.7854 16.0576 27.7854 15.4351C27.7854 14.8225 27.7456 14.1953 27.7878 13.5841C27.8073 13.3002 27.8757 13.0384 27.9104 12.7611C27.9468 12.4699 28.1173 12.8094 28.158 12.9191C28.2625 13.2013 28.4341 13.4952 28.4975 13.7869C28.5466 14.0125 28.5963 14.2855 28.6862 14.499C28.7885 14.7419 28.6555 15.0152 28.6013 15.2536C28.5393 15.5265 28.3325 15.8409 28.1698 16.0647C28.1523 16.0887 28.0241 16.3498 28.0071 16.3477C27.9801 16.3443 27.9976 15.9383 27.9976 15.9044C27.9976 15.3306 27.9976 14.7568 27.9976 14.183C27.9976 14.017 27.9893 13.8663 27.9646 13.702C27.9484 13.5939 27.8327 13.2923 27.8962 13.3813C28.0566 13.6058 28.0509 13.8947 28.092 14.1594C28.1504 14.5363 28.1338 14.9215 28.2004 15.296C28.2295 15.4595 28.2333 15.6416 28.2499 15.8077C28.2532 15.8402 28.2352 15.9893 28.2617 15.9421C28.3795 15.7327 28.4221 15.498 28.4221 15.2536C28.4221 14.804 28.5312 13.9496 28.1155 13.6171C28.0101 13.5327 27.8104 13.6211 27.743 13.6925C27.66 13.7804 27.6581 14.0244 27.6581 13.9472" stroke="#F32D12" stroke-width="0.467313" stroke-linecap="round"/>
<path d="M27.446 19.6351C27.446 19.2966 27.4654 18.9688 27.2762 18.6683C27.0114 18.2478 26.7461 17.7852 26.557 17.3243C26.3431 16.8029 26.0543 16.2764 25.951 15.7208C25.8898 15.3922 25.7413 15.0837 25.7081 14.7516C25.6866 14.5367 25.6351 14.0998 25.7505 13.9075C25.8516 13.739 25.9289 13.5626 26.0241 13.3934C26.2076 13.0672 26.3833 12.7564 26.5971 12.4526C26.6885 12.3227 26.8193 12.1653 26.8093 11.9951C26.8009 11.8523 26.5106 12.3574 26.4886 12.3983C26.1682 12.9934 25.8459 13.605 25.4369 14.1409C25.254 14.3807 25.0892 14.6384 24.9087 14.8813C24.7886 15.043 24.6522 15.093 24.5173 15.2209C24.4704 15.2654 24.3073 15.3487 24.3569 15.4331C24.3867 15.4837 24.5122 15.5168 24.5621 15.5604C24.6859 15.6687 24.8264 15.7665 24.963 15.8576C25.4285 16.1679 25.9125 16.5312 26.3094 16.9281C26.3903 17.009 26.9478 17.8485 26.8848 17.8643C26.8067 17.8838 26.519 17.5615 26.4697 17.5035C26.2728 17.2714 26.1482 16.9854 25.9816 16.7324C25.7151 16.3277 25.4256 15.9438 25.095 15.5887C25.0085 15.4958 24.7166 15.2794 24.6894 15.1572C24.6703 15.071 25.0327 14.8753 25.1021 14.8059C25.1405 14.7675 25.3611 14.5142 25.3662 14.688C25.3747 14.9786 25.3328 15.2754 25.4298 15.5557C25.4669 15.6628 25.6161 15.8999 25.6161 16.0038C25.6161 16.0052 25.4497 15.8282 25.4322 15.8057C25.3404 15.6877 25.2729 15.5606 25.1964 15.4331" stroke="#F32D12" stroke-width="0.467313" stroke-linecap="round"/>
<path d="M27.6156 12.2493C27.5132 12.2237 27.5732 11.4607 27.5732 11.358C27.5732 11.0335 27.4675 10.5086 27.6817 10.2332C27.8225 10.0521 27.8914 9.85138 28.0613 9.68142C28.2384 9.50429 28.4305 9.53286 28.6673 9.53286C28.7466 9.53286 28.831 9.55975 28.889 9.61775C28.9299 9.65863 28.9739 9.79201 28.9739 9.66019C28.9739 9.53987 28.8954 9.47886 28.856 9.37251C28.8003 9.22224 28.8041 9.07258 28.8041 8.91505C28.8041 8.81294 28.8786 7.35611 28.7805 7.32809C28.6562 7.29259 28.6049 7.46101 28.5494 7.54032C28.3949 7.76112 28.2452 7.98572 28.0778 8.19821C27.6135 8.78755 27.1214 9.35134 26.6394 9.92429C26.0164 10.6649 25.5219 11.5981 25.0902 12.4615C25.0557 12.5305 24.4592 13.5945 24.4417 13.5887C24.4239 13.5827 25.3177 12.4592 25.3661 12.4002C25.7487 11.9339 26.2734 11.6042 26.6724 11.1458C26.972 10.8016 27.4357 10.5978 27.7005 10.2214C27.8046 10.0735 27.9913 10.0108 28.1061 9.896C28.1819 9.82017 28.4221 9.78091 28.4221 9.63897C28.4221 9.55063 28.1693 9.17204 28.0825 9.11785C27.9209 9.01684 27.956 8.49379 28.0307 8.34441C28.0705 8.26476 28.1731 8.25952 28.2523 8.25952C28.3963 8.25952 28.397 8.33831 28.4221 8.47646C28.4589 8.67897 28.507 8.87348 28.507 9.08012C28.507 9.24398 28.4905 8.75267 28.474 8.58964C28.4434 8.28734 28.444 7.94262 28.5093 7.64879C28.5768 7.34528 28.5919 8.26695 28.5919 8.57785C28.5919 8.72045 28.6206 8.89997 28.5895 9.04003C28.582 9.07401 28.386 9.08361 28.3466 9.10841C27.9443 9.36175 27.6494 9.77015 27.361 10.1365C27.1011 10.4666 26.7098 10.7235 26.4932 11.0845C26.377 11.2782 26.24 11.4439 26.09 11.6127C26.051 11.6566 25.9228 11.8626 25.8565 11.8626C25.7556 11.8626 25.8959 11.3642 25.9202 11.3155C26.0691 11.0179 26.3349 10.764 26.5545 10.5185C26.9681 10.0562 27.4494 9.71755 27.8019 9.19802C27.8718 9.09506 28.0925 8.80267 27.9929 8.87733C27.934 8.92153 27.8544 8.95809 27.7854 8.98108" stroke="#F32D12" stroke-width="0.467313" stroke-linecap="round"/>
<path d="M28.8889 9.19336C28.8889 9.54375 28.8922 9.88306 29.0351 10.2097C29.1701 10.5184 29.2735 10.8867 29.3346 11.2189C29.4342 11.7613 29.4831 12.3381 29.4831 12.8884C29.4831 13.674 29.6105 14.4569 29.6105 15.2464C29.6105 16.3028 29.6529 17.3583 29.6529 18.4133C29.6529 19.6099 29.7802 20.7905 29.7802 21.9881C29.7802 22.5206 29.8976 23.2201 29.6529 23.7094C29.5236 23.968 29.2181 24.01 28.9738 24.0915" stroke="#F32D12" stroke-width="0.467313" stroke-linecap="round"/>
<path d="M29.1012 7.75049C29.1012 8.34122 29.3689 8.92247 29.5233 9.48836C29.7272 10.2359 29.7831 10.9948 29.844 11.7615C29.9898 13.5992 30.0826 15.4376 30.3745 17.2581C30.6344 18.8788 30.5397 20.5662 30.226 22.1699C30.1493 22.5617 29.9866 22.9087 29.8746 23.2853C29.8174 23.4776 29.7189 23.837 29.4832 23.837" stroke="#F32D12" stroke-width="0.467313" stroke-linecap="round"/>
<path d="M28.8465 8.59912C28.8465 9.11324 29.1879 9.51429 29.3558 9.97622C29.4029 10.1057 29.5045 10.1866 29.5233 10.337C29.5401 10.4714 29.5911 10.6394 29.6435 10.7638C29.7186 10.9422 29.6529 11.273 29.6529 11.4641C29.6529 11.9483 29.7378 12.4219 29.7378 12.9096C29.7378 13.8766 29.8239 14.8554 29.9406 15.8147C30.0583 16.7822 30.0774 17.793 30.0774 18.767C30.0774 19.3518 30.0774 19.9366 30.0774 20.5214C30.0774 20.7966 30.0023 21.0595 29.9925 21.3231C29.9806 21.6456 30.0258 22.1481 29.7803 22.3937" stroke="#F32D12" stroke-width="0.467313" stroke-linecap="round"/>
<path d="M28.4221 24.4312C28.4221 25.0909 28.1303 25.6144 27.8609 26.1997C27.6706 26.6131 27.3552 26.918 27.0875 27.2749C26.8011 27.6568 26.5466 28.0633 26.2574 28.4445C25.7533 29.1091 25.2992 29.6319 24.5832 30.0763C23.724 30.6096 22.7903 30.9996 21.9469 31.5619C21.6153 31.783 21.2067 31.8952 20.8269 32.0052C20.3807 32.1343 19.9683 32.346 19.5276 32.4862C18.7888 32.7213 18.0897 32.7808 17.3228 32.8376C16.6083 32.8905 15.8841 33.0293 15.1794 33.13C15.0239 33.1522 14.4009 33.2732 14.3305 33.1323" stroke="#F32D12" stroke-width="0.467313" stroke-linecap="round"/>
<path d="M28.5493 24.6436C28.5493 25.1462 28.0703 25.6811 27.7947 26.0678C27.484 26.5038 27.2101 26.959 26.8303 27.3388C26.1885 27.9806 25.4804 28.5282 24.7812 29.1002C24.1371 29.6272 23.2663 29.9829 22.5033 30.3099C21.829 30.5989 21.1548 30.8628 20.4329 31.0197C19.5508 31.2115 18.7545 31.6933 17.9193 32.0101C17.4934 32.1716 17.0121 32.3862 16.5587 32.4534C16.2477 32.4994 15.8687 32.5254 15.5707 32.6137C15.2217 32.7171 14.7096 32.6232 14.3516 32.6232C14.1584 32.6232 14.4939 32.747 14.5426 32.7929C14.7966 33.0329 15.3489 32.9203 15.665 32.9203C16.3665 32.9203 16.9393 32.6201 17.608 32.4864C17.9536 32.4173 18.2836 32.2844 18.6267 32.2081C19.003 32.1245 19.388 32.093 19.7633 32.0077C20.061 31.9401 20.3603 31.8697 20.657 31.7955C20.9448 31.7235 21.1804 31.5741 21.461 31.4772C21.951 31.3079 22.4061 31.0365 22.8853 30.8405C23.3496 30.6505 23.7044 30.3187 24.1351 30.0765C24.4701 29.888 24.7767 29.6404 25.0712 29.395C25.3802 29.1375 25.7627 28.9991 26.0121 28.6758C26.1575 28.4872 26.3349 28.3721 25.9932 28.5673C25.1213 29.0655 24.2659 29.5968 23.4347 30.1614C22.8499 30.5586 22.2015 30.8733 21.5294 31.0928C20.998 31.2663 20.4526 31.3309 19.9 31.4017C19.7316 31.4233 18.4649 31.894 18.4475 31.8592" stroke="#F32D12" stroke-width="0.467313" stroke-linecap="round"/>
<path d="M14.3306 32.2832C14.2732 32.4363 13.0508 32.3115 12.9299 32.262C12.5404 32.1027 12.1059 31.9945 11.699 31.88C11.3553 31.7834 10.9687 31.7501 10.652 31.5782C10.1447 31.3028 9.73474 31.0511 9.39755 30.576C8.98439 29.9938 8.58673 29.4015 8.22796 28.7839C7.82175 28.0847 7.59253 27.2828 7.2423 26.5532C7.05522 26.1634 6.99685 25.7166 6.73296 25.3647" stroke="#F32D12" stroke-width="0.467313" stroke-linecap="round"/>
<path d="M12.5054 32.0711C12.1993 32.0711 11.8693 32.1088 11.5763 32.0074C11.3041 31.9132 11.069 31.6581 10.8712 31.4603C10.0466 30.6357 9.26987 29.7013 8.59103 28.751C8.10245 28.0669 7.65509 27.3756 7.37192 26.5792C7.23569 26.196 7.05972 25.8514 6.89324 25.4827C6.79365 25.2622 6.73443 25.0268 6.56311 24.8555" stroke="#F32D12" stroke-width="0.467313" stroke-linecap="round"/>
<path d="M6.35083 24.8134C6.31427 24.3381 6.30839 23.8673 6.30839 23.3892C6.30839 22.6808 6.08398 21.9426 5.92402 21.2528C5.49612 19.4075 5.24783 17.5221 5.17181 15.6312C5.11409 14.1954 5.15674 12.7482 5.16238 11.3113C5.16698 10.1381 5.3746 8.98651 5.3746 7.8096C5.3746 7.20404 5.50194 6.61042 5.50194 6.01042C5.50194 5.81618 5.4297 5.78555 5.58683 5.62842" stroke="#F32D12" stroke-width="0.467313" stroke-linecap="round"/>
<path d="M7.03003 25.068C7.01715 24.6173 6.72246 24.1807 6.54427 23.7758C6.45461 23.572 6.37546 23.3646 6.28725 23.1603C6.27102 23.1227 6.13784 22.6715 6.10568 22.6675C6.06348 22.6622 6.17045 23.0956 6.1717 23.1014C6.24444 23.436 6.31085 23.796 6.35091 24.1366C6.38394 24.4173 6.43359 24.6476 6.54427 24.9006C6.68745 25.2278 6.83142 25.6336 7.03003 25.9263C7.22762 26.2175 6.97445 25.5595 6.94514 25.483C6.86992 25.2866 6.60543 24.733 6.75414 24.8817C6.9788 25.1064 7.13485 25.4948 7.28705 25.7707C7.46142 26.0867 7.51457 26.3755 7.61482 26.7139C7.75495 27.1868 7.05837 25.892 6.86496 25.4382C6.33723 24.2 6.16932 22.867 5.7897 21.5875C5.32579 20.024 4.6296 18.4504 4.57059 16.7983C4.54928 16.2015 4.40725 15.6501 4.45033 15.0416C4.48365 14.571 4.47116 14.0446 4.65312 13.6079" stroke="#F32D12" stroke-width="0.467313" stroke-linecap="round"/>
<path d="M4.69532 13.5655C4.69532 13.1489 4.69532 12.7323 4.69532 12.3158C4.69532 12.2526 4.7171 11.8635 4.73541 12.1106C4.77554 12.6523 4.80782 13.2016 4.8203 13.7447C4.85028 15.0489 4.78021 16.3575 4.78021 17.6638C4.78021 17.9352 4.74367 18.2393 4.80379 18.5056C4.85179 18.7181 4.97395 18.9202 5.0561 19.1211C5.26862 19.6405 5.17604 18.9104 5.14099 18.7391C5.0318 18.2052 4.94999 17.6663 4.94999 17.1214C4.94999 15.9569 4.88717 14.8116 4.82266 13.6504" stroke="#F32D12" stroke-width="0.467313" stroke-linecap="round"/>
<path d="M11.4865 11.1885C11.4842 11.205 11.0664 10.8132 11.0031 10.7452C10.7554 10.479 10.533 10.1743 10.3004 9.89393C9.743 9.22171 9.07764 8.60982 8.45882 7.99099C7.93985 7.47202 7.4266 6.93468 7.00862 6.33093C6.76186 5.97449 6.50491 5.51637 6.15973 5.24623C6.12633 5.22009 5.81217 4.94594 5.93571 5.1189C6.1458 5.41301 6.35059 5.70957 6.55824 6.00552C6.88431 6.47027 7.19678 6.94143 7.57219 7.36847C7.85934 7.69509 8.1793 8.01925 8.39751 8.39657C8.87941 9.22987 9.58598 9.89044 10.2651 10.5613C10.7572 11.0474 11.2775 11.5188 11.8167 11.9525C11.9309 12.0443 12.046 12.1252 12.1468 12.226C12.2417 12.3209 11.8395 12.0642 11.8002 12.0327C10.9873 11.3824 10.2257 10.6581 9.51522 9.89864C9.23499 9.59909 8.91341 9.33838 8.64746 9.02617C8.37988 8.71205 8.12287 8.40421 7.81271 8.13011C7.45514 7.81412 7.1643 7.47775 6.90723 7.07607C6.80396 6.91471 6.71053 6.75027 6.59125 6.59974C6.57978 6.58527 6.48216 6.4435 6.57003 6.53136C7.31877 7.28011 8.11988 7.96955 8.75121 8.82573C8.97979 9.13572 9.28236 9.36337 9.53408 9.65105C9.7325 9.87781 9.91528 10.1266 10.1283 10.3396C10.4221 10.6334 10.8796 10.7761 11.2083 11.0376C11.6101 11.3572 12.0365 11.6245 12.4628 11.9101C12.6618 12.0434 13.0772 12.2052 13.1843 12.4194" stroke="#F32D12" stroke-width="0.467313" stroke-linecap="round"/>
</svg>
