<svg width="36" height="38" viewBox="0 0 36 38" fill="none" xmlns="http://www.w3.org/2000/svg">
<rect x="-0.519772" y="0.519772" width="34.305" height="35.8643" rx="4.67795" transform="matrix(-1 0 0 1 34.6494 0.84668)" fill="#95B7FF" stroke="black" stroke-width="1.03954"/>
<path d="M15.7925 10.5456C16.6139 10.5456 19.0784 10.5456 18.2569 10.5456C16.8311 10.5456 15.5199 10.9366 14.165 11.1663C13.7398 11.2384 14.683 11.0183 14.7462 11.0013C15.8023 10.7162 16.7975 10.4395 17.943 10.3485C18.2953 10.3205 18.6469 10.3239 19.0009 10.3239C19.4904 10.3239 18.5412 10.3812 18.4661 10.3879C17.0496 10.5137 15.6304 10.6963 14.2657 10.9693C13.8737 11.0477 13.3893 11.1619 13.0878 11.3535C12.9942 11.413 13.3016 11.2545 13.4094 11.2057C13.9124 10.9783 14.4905 10.8045 15.033 10.6195C15.8879 10.3278 16.7197 10.1365 17.6718 10.0356C18.0166 9.99911 18.3728 10.0135 18.7219 10.0135C18.9284 10.0135 19.1444 10.0014 19.3496 10.0159C19.5751 10.0319 19.8213 10.0865 19.4194 10.0135" stroke="black" stroke-width="0.452638" stroke-linecap="round"/>
<path d="M13.0703 11.3669C12.7211 10.9713 12.4493 10.5124 12.1555 10.0676C11.7318 9.42605 11.214 8.86846 10.6409 8.38594C10.0297 7.87134 9.4235 7.37699 8.74544 6.97682C8.63607 6.91227 8.61046 6.87602 8.4918 6.83804C8.29934 6.77644 8.08589 6.77689 7.89614 6.71408C7.77826 6.67506 7.65242 6.59667 7.51744 6.58905C7.29636 6.57656 7.11996 6.52384 6.90781 6.4424C6.79722 6.39995 6.57515 6.37629 6.51994 6.24984" stroke="black" stroke-width="0.452638" stroke-linecap="round"/>
<path d="M6.3371 6.3877C6.3371 6.89459 6.17644 7.374 6.12205 7.87582C6.03488 8.6801 6.01452 9.47074 6.01452 10.2789C6.01452 11.109 5.907 11.9349 5.907 12.7618C5.907 13.2733 5.91491 13.7691 5.84129 14.2748C5.75505 14.8671 6.10809 15.2909 6.44462 15.7739C6.6424 16.0578 6.84564 16.3541 7.00913 16.6558C7.10183 16.8268 7.22607 17.1651 7.41235 17.251" stroke="black" stroke-width="0.452638" stroke-linecap="round"/>
<path d="M7.35204 17.7036C7.35204 18.4944 7.3816 19.2858 7.39868 20.0715C7.40604 20.4102 7.5615 21.329 7.86499 21.4808" stroke="black" stroke-width="0.452638" stroke-linecap="round"/>
<path d="M7.86496 21.5513C7.86496 21.8922 8.1922 22.2274 8.39304 22.5177C8.99451 23.387 9.45755 24.3012 10.0446 25.1743C10.7783 26.2656 12.1135 27.4407 13.7877 27.7173C14.7494 27.8763 15.7325 27.8977 16.6973 28.0331C17.4254 28.1352 18.1202 28.3368 18.8536 28.4277C19.2745 28.4799 19.6842 28.545 20.0677 28.6876C20.2125 28.7414 20.3747 28.7935 20.5388 28.7935" stroke="black" stroke-width="0.452638" stroke-linecap="round"/>
<path d="M19.4307 10.2354C19.2919 10.2027 19.8127 9.43623 19.8436 9.38257C20.4846 8.26949 21.3371 7.33141 22.2068 6.37436C22.6788 5.85493 23.1832 5.33721 23.7093 4.86557C24.0968 4.51817 24.5472 4.26816 24.9979 4.0034C25.2586 3.85021 25.6382 3.74521 25.7441 3.4458" stroke="black" stroke-width="0.452638" stroke-linecap="round"/>
<path d="M25.7441 3.4458C25.7441 4.57104 25.9617 5.66801 26.1013 6.73071C26.1854 7.37097 26.2486 8.01376 26.3179 8.66158C26.3546 9.00443 26.4186 9.32858 26.4186 9.68524C26.4186 9.93359 26.4301 10.1995 26.4163 10.4462C26.399 10.7568 26.3107 11.1108 26.25 11.3913C26.1663 11.7784 26.0868 12.165 26.0088 12.5585C25.976 12.724 25.9565 12.9512 25.8706 12.9512" stroke="black" stroke-width="0.452638" stroke-linecap="round"/>
<path d="M26.2758 12.4985C26.2758 12.8509 26.4454 13.2201 26.5566 13.5494C26.7067 13.9938 26.8329 14.4592 26.933 14.9204C27.2564 16.4101 27.5932 17.7984 27.0116 19.2808C26.6703 20.1508 26.2511 20.929 25.8179 21.7521C25.3152 22.7073 24.8602 23.684 24.2928 24.6019C23.5207 25.851 22.5639 26.9175 21.6274 28.0308C21.3785 28.3267 21.1369 28.6651 20.7651 28.7935" stroke="black" stroke-width="0.452638" stroke-linecap="round"/>
<path d="M14.8321 17.9691C14.7026 17.6005 14.6184 17.4753 14.2789 17.2543C13.9185 17.0195 13.5509 16.882 13.1396 16.7217C12.6679 16.538 12.131 16.3452 11.5943 16.3582C11.0169 16.3722 10.4505 16.4979 9.88784 16.6185C9.42241 16.7183 9.06121 17.041 8.85175 17.4132C8.72114 17.6452 8.7574 17.7148 8.81566 17.9724C8.89612 18.3281 9.02347 18.457 9.30891 18.6955C9.66885 18.9962 10.0685 19.2275 10.5264 19.4116C11.6307 19.8558 13.1186 19.6574 14.292 19.4178C14.6271 19.3494 15.2633 19.2771 15.2401 18.872C15.2214 18.5443 15.0574 18.236 14.9863 17.9219C14.9481 17.7529 14.6859 17.4953 14.5057 17.4369" stroke="black" stroke-width="0.452638" stroke-linecap="round"/>
<path d="M19.6902 17.0097C19.6363 16.675 19.6528 16.548 19.8467 16.2609C20.0527 15.9559 20.3086 15.7256 20.5921 15.4629C20.9171 15.1616 21.2946 14.8316 21.7644 14.6648C22.2699 14.4852 22.8161 14.3978 23.3568 14.3076C23.8041 14.2329 24.2616 14.3693 24.6101 14.5949C24.8274 14.7356 24.8274 14.8027 24.8929 15.0259C24.9835 15.3343 24.9314 15.4784 24.7919 15.7616C24.6161 16.1186 24.3747 16.4337 24.0617 16.7308C23.3068 17.4472 21.9313 17.7812 20.809 17.9789C20.4886 18.0353 19.9061 18.1881 19.7438 17.8596C19.6125 17.5939 19.6156 17.2955 19.5356 17.0233C19.4926 16.8768 19.6034 16.5861 19.7329 16.4804" stroke="black" stroke-width="0.452638" stroke-linecap="round"/>
<path d="M19.9919 23.8145C20.3929 23.8145 20.7162 24.0582 21.0194 24.3048C22.1274 25.2059 23.1208 26.2441 24.2303 27.1445C24.8105 27.6152 25.384 28.1007 25.9911 28.5362C26.1264 28.6333 26.2643 28.7635 26.4231 28.8165" stroke="black" stroke-width="0.452638" stroke-linecap="round"/>
<path d="M19.368 24.9458C19.4833 24.9458 19.5598 24.9577 19.6622 25.0205C20.3281 25.4287 20.9781 25.8913 21.5701 26.4006C22.3524 27.0738 23.0727 27.8677 23.5807 28.7709C23.8863 29.3141 24.105 29.8976 24.4097 30.4429C24.658 30.8872 25.026 31.3017 25.3999 31.6478C25.7031 31.9286 25.872 32.0333 26.2429 32.1709C26.6933 32.3381 27.0953 32.5707 27.5879 32.5936C27.999 32.6127 28.4141 32.5959 28.8256 32.5959C29.6802 32.5959 30.0824 31.9128 30.528 31.2929C30.7901 30.9281 30.949 30.5857 31.044 30.158C31.0888 29.9564 31.0534 29.7144 31.0534 29.5088C31.0534 29.1887 31.0757 28.8595 31.1164 28.542C31.1692 28.1304 31.2271 27.7369 31.0954 27.3417C30.7659 26.3533 29.6679 25.8201 28.6785 25.7468C28.0364 25.6992 27.1443 25.9366 27.1443 26.7112C27.1443 26.7876 27.1255 26.8735 27.1769 26.9307C27.2755 27.0402 27.1889 27.0159 27.1256 27.0522C27.0189 27.1131 26.9759 27.4504 26.9341 27.5612C26.8727 27.7237 26.774 27.8631 26.7146 28.0236C26.6287 28.2555 26.3456 28.4318 26.3456 28.7078C26.3456 28.7928 26.3082 28.8558 26.3036 28.939C26.2989 29.024 26.2802 29.1562 26.2195 29.0651" stroke="black" stroke-width="0.452638" stroke-linecap="round"/>
<path d="M30.6331 27.6779C30.4645 27.6779 30.3251 27.6704 30.1684 27.741C29.8772 27.872 29.5473 27.846 29.2366 27.846C28.9681 27.846 28.3632 27.8679 28.3632 27.5098" stroke="black" stroke-width="0.452638" stroke-linecap="round"/>
<path d="M24.6125 30.6106C23.9369 29.7363 23.0994 28.9973 22.3988 28.1423C21.8135 27.4281 21.2172 26.7292 20.6077 26.0359C20.4579 25.8656 20.3264 25.6753 20.1663 25.5152C20.1111 25.46 20.0599 25.4855 20.0309 25.3984" stroke="black" stroke-width="0.452638" stroke-linecap="round"/>
<path d="M18.914 22.6463C18.9247 22.4526 19.0301 22.2364 19.0953 22.056C19.1871 21.8018 19.2483 21.5267 19.285 21.2592C19.2964 21.1757 19.3897 20.8705 19.3229 20.7954C19.3092 20.78 19.2155 20.8553 19.1965 20.8608C19.0248 20.9098 18.7858 20.9951 18.6104 21.0146C18.3668 21.0417 18.133 21.1675 17.8895 21.2023C17.6328 21.2389 17.3979 21.271 17.1685 21.3857C16.9734 21.4832 17.3357 21.1098 17.4383 21.0694C17.8975 20.8891 18.2587 20.787 18.7538 20.787C18.9491 20.787 19.1445 20.787 19.3398 20.787C19.4918 20.787 19.4229 20.749 19.3124 20.749C18.8596 20.749 18.4857 20.7658 18.0581 20.9198C17.7377 21.0351 17.3932 21.2167 17.101 21.3941C17.0818 21.4058 16.922 21.4629 16.9788 21.47C17.0473 21.4785 17.1243 21.5178 17.1875 21.5459C17.2851 21.5893 17.3926 21.7381 17.4742 21.8115C17.6079 21.9318 17.7593 22.0266 17.8895 22.153C18.1585 22.4144 18.4244 22.6134 18.7411 22.8149C18.8347 22.8745 18.662 22.8265 18.6273 22.8149C18.4478 22.7551 18.2511 22.628 18.1045 22.5114C17.7656 22.2418 17.5515 21.8547 17.3203 21.5079" stroke="black" stroke-width="0.452638" stroke-linecap="round"/>
<path d="M22.3494 14.7617C22.6847 14.8065 22.873 15.1102 22.9884 15.3263C23.0752 15.4888 23.1436 15.6668 23.1925 15.8379C23.2446 16.02 23.2546 16.186 23.2546 16.3719C23.2546 16.5923 23.1623 16.8159 23.0101 17.0038C22.9567 17.0697 22.8852 17.1334 22.8385 17.2009C22.8321 17.2101 22.7754 17.2633 22.7754 17.2487" stroke="black" stroke-width="0.452638" stroke-linecap="round"/>
<path d="M22.3494 17.2512C22.0708 17.2512 21.8058 17.1037 21.5836 16.9739C21.1598 16.7263 21.0588 16.1912 21.0176 15.7975C21.0041 15.6682 20.9597 15.4924 21.0306 15.3706C21.0963 15.2575 21.1801 15.1522 21.284 15.0594C21.3429 15.0067 21.4059 14.9085 21.5004 14.897C21.5486 14.8911 21.6623 14.7962 21.6835 14.7617" stroke="black" stroke-width="0.452638" stroke-linecap="round"/>
<path d="M12.3914 16.1196C12.7267 16.1807 12.915 16.5949 13.0304 16.8896C13.1172 17.1112 13.1856 17.3539 13.2345 17.5872C13.2866 17.8355 13.2966 18.0618 13.2966 18.3154C13.2966 18.6159 13.2043 18.9208 13.0521 19.177C12.9987 19.2668 12.9272 19.3538 12.8805 19.4458C12.8741 19.4584 12.8174 19.5308 12.8174 19.511" stroke="black" stroke-width="0.452638" stroke-linecap="round"/>
<path d="M12.6177 19.5142C12.2463 19.5142 11.8929 19.3264 11.5967 19.1612C11.0316 18.8461 10.897 18.165 10.842 17.664C10.824 17.4994 10.7648 17.2756 10.8593 17.1206C10.9469 16.9767 11.0586 16.8427 11.1971 16.7245C11.2758 16.6575 11.3597 16.5326 11.4857 16.5179C11.55 16.5104 11.7015 16.3896 11.7298 16.3457" stroke="black" stroke-width="0.452638" stroke-linecap="round"/>
<path d="M7.23635 10.0459C7.31876 10.0459 7.3779 10.0426 7.45038 10.0887C7.49538 10.1173 7.64049 10.2123 7.63112 10.2004C7.41996 9.9342 7.17214 9.61344 7.17214 9.25871C7.17214 8.95855 7.21495 8.66597 7.21495 8.36692C7.21495 8.18464 7.2866 7.88839 7.10793 7.7938C7.10079 7.79002 7.0461 7.73255 7.0461 7.72365C7.0461 7.69724 7.13332 7.77651 7.13409 7.77715C7.22584 7.85361 7.32936 7.90943 7.42898 7.97454C7.79883 8.21625 8.12658 8.52046 8.49199 8.76407C8.91372 9.04522 9.28224 9.44475 9.60851 9.82827C9.88583 10.1542 10.1911 10.4567 10.4682 10.7831C10.5604 10.8917 10.6307 11.0323 10.7369 11.1279C10.8753 11.2524 10.5662 10.797 10.4777 10.6333C10.2261 10.1676 9.97257 9.71922 9.63467 9.30984C9.46685 9.10652 9.31638 8.8909 9.15073 8.68559C9.03719 8.54487 8.91475 8.42583 8.78807 8.29915C8.67192 8.183 8.57982 8.05701 8.44562 7.95908C8.37957 7.91088 8.15726 7.80479 8.2304 7.84136C8.3099 7.88112 8.37827 7.9121 8.45394 7.9674C8.85318 8.25916 9.22692 8.6015 9.59543 8.93054C10.2328 9.49965 10.8112 10.1316 11.2768 10.8497C11.5253 11.2331 11.7147 11.6478 11.945 12.0411C12.1065 12.3169 12.284 12.5845 12.4789 12.8378C12.4919 12.8547 12.6468 13.04 12.5823 13.0423C12.4973 13.0453 12.4265 13.0188 12.3517 12.9781C12.0015 12.7875 11.6826 12.4707 11.4337 12.1636C10.9815 11.6057 10.7362 10.8285 10.1662 10.3693C9.84101 10.1074 9.43431 9.9613 9.01993 9.92221C8.82875 9.90417 9.20518 10.1189 9.21375 10.1255C9.76689 10.5561 10.2858 11.0255 10.7464 11.5548C11.3906 12.295 12.0537 13.1746 12.2946 14.1481C12.3082 14.2029 12.4101 14.5003 12.3196 14.5405C12.1409 14.6199 12.1534 15.0931 12.2982 15.1933C12.3618 15.2374 12.443 15.2468 12.5181 15.2468C12.5444 15.2468 12.7133 15.2544 12.6204 15.204C12.3587 15.0619 12.0733 15.0058 11.7738 15.0756C11.5573 15.126 11.3438 15.1545 11.1246 15.1838C10.7873 15.2287 10.4419 15.2557 10.1032 15.3003C9.94196 15.3215 9.79153 15.3217 9.6311 15.3538C9.50076 15.3799 9.38141 15.4275 9.25299 15.4561C9.06886 15.497 8.92375 15.6107 8.75596 15.6915C8.66285 15.7363 8.57472 15.7542 8.48842 15.814C8.43726 15.8494 8.37291 15.9069 8.3172 15.9317C8.17635 15.9943 8.17537 16.1478 7.99616 16.0387C7.77798 15.9059 7.57281 15.7151 7.42898 15.5036C7.21125 15.1834 7.14384 14.8312 7.05443 14.4537C6.95711 14.0428 6.9874 13.5805 7.00211 13.1612C7.0136 12.8338 7.07118 12.5261 7.1555 12.2099C7.25392 11.8409 7.33191 11.4676 7.47178 11.1113C7.5598 10.8871 7.64188 10.5773 7.85585 10.4347C7.97476 10.3554 8.03916 10.4062 8.14954 10.4787C8.93328 10.9933 9.62194 11.9456 9.63348 12.9091C9.63688 13.1929 9.65926 13.4211 9.41113 13.6059C9.2378 13.735 8.92189 13.856 8.71791 13.72C8.52984 13.5947 8.45583 13.3133 8.42184 13.1065C8.38077 12.8567 8.32828 12.4571 8.46108 12.2254C8.61213 11.9618 8.93297 11.9032 9.20542 11.8675C9.57796 11.8186 9.95918 11.7954 10.3124 11.9472C10.8592 12.1821 11.0343 12.6318 10.9985 13.1969C10.97 13.6473 10.4727 14.005 10.0508 14.0221C9.72509 14.0352 9.36542 13.8677 9.27915 13.5227C9.22889 13.3216 10.5335 13.4529 10.6537 13.4846C11.1431 13.6138 11.5458 13.9518 12.0056 14.1517C12.2135 14.242 12.3457 14.1907 12.442 13.9959C12.518 13.8421 12.6176 13.693 12.6608 13.5262C12.6987 13.3801 12.7871 13.302 12.9284 13.2373C13.5368 12.9584 14.2234 12.8754 14.8356 12.613C15.2345 12.4421 15.6327 12.2687 16.033 12.1006C16.6782 11.8296 17.3554 11.6725 18.0401 11.5393C18.983 11.356 19.9177 11.2658 20.8772 11.2658C20.8929 11.2658 21.123 11.2771 21.0151 11.2111C20.9034 11.1429 20.7615 11.1351 20.6358 11.116C20.3505 11.0726 20.0659 11.0572 19.7773 11.053C19.258 11.0454 18.7325 11.0367 18.2161 11.0994C17.7047 11.1614 17.2079 11.3255 16.7095 11.4501C16.1145 11.5989 15.5207 11.7215 14.9319 11.8937C14.3533 12.0629 13.7748 12.2323 13.2054 12.4311C12.9338 12.5259 12.6157 12.6302 12.3957 12.8283C12.2457 12.9632 12.3947 12.9353 12.5348 12.9353C13.3144 12.9353 14.0829 12.9249 14.857 13.0316C15.4147 13.1084 15.966 13.1659 16.53 13.1659C17.3089 13.1659 18.027 13.0068 18.7654 12.7676C19.499 12.53 20.201 12.2967 20.9723 12.229C21.2024 12.2088 21.4313 12.2076 21.6619 12.2076C21.7557 12.2076 21.8678 12.1994 21.9402 12.2718C22.0017 12.3333 21.578 12.5289 21.5347 12.5548C21.1225 12.8013 20.6916 13.0366 20.2494 13.2254C19.7865 13.4229 19.2689 13.4896 18.7821 13.6023C18.0458 13.7728 17.3102 13.8912 16.568 14.0268C16.2216 14.0901 15.8764 14.1796 15.5431 14.2932C15.2136 14.4055 14.8841 14.5226 14.5371 14.5666C14.1994 14.6096 13.8422 14.6699 13.5003 14.6463C13.4481 14.6427 13.319 14.5839 13.3148 14.6737C13.3052 14.8798 13.3362 15.0834 13.3362 15.2896C13.3362 15.4535 13.3224 15.4838 13.4872 15.525C13.7025 15.5788 13.9193 15.6957 14.1233 15.7819C14.2577 15.8386 14.3636 15.9415 14.4967 15.9959C14.6596 16.0625 14.8151 16.1352 14.9854 16.1778C15.2563 16.2455 15.511 16.2963 15.7738 16.4014C16.2128 16.577 16.7327 16.5832 17.1673 16.3978C17.6462 16.1935 18.1072 15.9415 18.5538 15.6748C18.708 15.5828 18.8273 15.4535 18.9664 15.3431C19.1594 15.1898 19.3656 15.049 19.5645 14.9032C19.8084 14.7242 20.0335 14.5049 20.266 14.3098C20.5742 14.0513 20.8639 13.8047 21.2065 13.5916C21.4333 13.4506 21.6615 13.324 21.8498 13.1327C21.9169 13.0645 22.0044 12.9738 22.0044 12.8711" stroke="black" stroke-width="2.48951" stroke-linecap="round"/>
<path d="M20.8917 11.2875C20.8917 11.0274 20.8848 10.8018 20.9987 10.5598C21.0853 10.3758 20.6856 10.5487 20.6396 10.624C20.4533 10.929 21.0046 10.0009 21.2555 9.7465C21.4352 9.56438 21.631 9.39923 21.8144 9.22094C21.9844 9.05567 22.1779 8.93973 22.3352 8.75721C22.6682 8.37067 22.995 8.00205 23.2508 7.55864C23.4788 7.1633 23.8405 6.8557 24.0712 6.46471C24.1327 6.36052 24.1979 6.07854 24.359 6.08659C24.5464 6.09597 24.7228 6.22111 24.7228 6.40764C24.7228 6.55464 24.8261 6.70813 24.8465 6.8571C24.8898 7.17361 24.9474 7.48605 24.9785 7.80478C25.0166 8.19569 25.0721 8.58708 25.1033 8.97837C25.1348 9.37371 25.1081 9.7804 25.1081 10.1769C25.1081 10.4026 25.0602 10.6349 25.0225 10.8571C24.9788 11.1139 24.9434 11.3753 24.8833 11.6288C24.8513 11.764 24.8396 12.0004 24.7014 12.0794C24.4347 12.2318 24.0179 12.2401 23.7216 12.2245C22.6613 12.1687 22.8081 10.7578 23.1009 10.0675C23.2666 9.67704 23.496 9.24202 23.8001 8.93794C23.9026 8.83545 24.0165 8.75974 24.0165 8.9427C24.0165 9.22746 23.9117 9.37311 23.6063 9.41238C23.3223 9.44889 22.958 9.43346 22.8917 9.08777C22.7659 8.43231 23.2789 7.9058 23.4517 7.32083C23.4604 7.29134 23.5828 6.98939 23.5409 6.94747C23.4977 6.90431 23.4078 6.98269 23.3839 7.00811C23.132 7.27681 22.9672 7.57346 22.7847 7.89515C22.6453 8.1407 22.4833 8.37157 22.3471 8.61928C22.2319 8.82868 22.1305 9.07086 21.9939 9.26493C21.9416 9.33926 21.8987 9.49468 21.8287 9.54912C21.8039 9.56836 21.833 9.46006 21.8334 9.45875C21.89 9.29197 21.9761 9.13505 22.0486 8.97481C22.1941 8.6532 22.3569 8.33589 22.5445 8.03664C22.6115 7.92968 22.7576 7.78127 22.774 7.6502C22.7827 7.58025 22.6983 7.72758 22.6634 7.75603C22.4514 7.9286 22.2712 8.17253 22.1021 8.38622C21.8565 8.6968 21.6079 9.00526 21.4161 9.35055C21.3919 9.39398 21.4329 9.45998 21.4482 9.50037C21.5131 9.67204 21.571 9.8447 21.6455 10.0128C21.9635 10.7302 22.2878 11.4451 22.5992 12.165C22.6669 12.3217 22.7323 12.4219 22.7323 12.5931C22.7323 12.6643 22.7025 12.7892 22.7585 12.8452C22.8199 12.9065 22.8198 13.056 22.7276 13.0901C22.6852 13.1058 22.5162 13.1282 22.617 13.1282C22.9289 13.1282 23.2409 13.1256 23.5528 13.1282C23.8315 13.1305 24.0999 13.1924 24.3792 13.1924C24.5534 13.1924 24.7253 13.2384 24.8928 13.2887C24.9144 13.2952 25.1039 13.3587 25.0986 13.4017C25.0984 13.4029 24.9168 13.3432 24.9131 13.3422C24.7074 13.2867 24.5003 13.2627 24.2876 13.2578C23.9093 13.2491 23.5349 13.2491 23.1604 13.2946C22.9938 13.3149 22.8122 13.2944 22.6491 13.3315C22.5465 13.3548 22.4478 13.3832 22.3471 13.4112C22.2366 13.4419 22.1449 13.5134 22.026 13.5134" stroke="black" stroke-width="2.48951" stroke-linecap="round"/>
<path d="M18.5156 16.2314C18.5156 16.9544 18.4514 17.6689 18.4514 18.392C18.4514 18.4493 18.4953 18.7309 18.4062 18.6524C18.2192 18.4875 18.0996 18.2569 17.9472 18.0626C17.5468 17.5523 16.9206 17.2996 16.4502 16.864C16.2866 16.7125 16.1187 16.5653 15.9246 16.4562C15.7971 16.3844 15.654 16.3325 15.5298 16.2635C15.4156 16.2001 15.158 16.2528 15.0281 16.2528C15.0034 16.2528 14.9124 16.2453 14.9841 16.2528C15.0584 16.2607 15.1526 16.4007 15.21 16.4467C15.3534 16.5614 15.461 16.6931 15.5405 16.8521C15.6144 16.9998 15.6573 17.1605 15.7379 17.3063C15.9452 17.6811 16.0434 18.1058 16.2302 18.4883C16.2392 18.5067 16.3453 18.7377 16.2992 18.606C16.2363 18.4264 16.2018 18.2354 16.1565 18.0507C16.0762 17.7236 15.9746 17.3203 15.7332 17.0662C15.5731 16.8976 15.7275 17.1774 15.7498 17.2374C15.8018 17.3775 15.8108 17.5396 15.8723 17.675C15.8971 17.7296 15.9323 17.775 15.952 17.8319C16.0063 17.9889 16.054 18.1367 16.0804 18.3028C16.107 18.4704 16.1327 18.6604 16.2136 18.8105C16.2534 18.8846 16.2867 19.0114 16.3658 19.0566C16.4707 19.1166 16.4956 19.2923 16.556 19.3872C16.6378 19.5158 16.8473 19.5326 16.9852 19.6143C17.1616 19.7188 17.211 19.7534 17.4133 19.7094C17.6526 19.6574 17.8947 19.6559 18.1386 19.6559C18.2889 19.6559 18.1633 19.6576 18.078 19.6512C17.763 19.6274 17.4472 19.6345 17.1315 19.6345C16.9644 19.6345 16.7844 19.6474 16.6321 19.7249C16.4774 19.8036 16.3664 19.9644 16.2457 20.0852C16.0082 20.3226 15.7397 20.4139 15.4145 20.4692C15.2001 20.5057 14.9863 20.5144 14.7724 20.5441C14.6476 20.5615 14.5735 20.5548 14.7582 20.5548C15.2559 20.5548 15.7565 20.4855 16.2504 20.4264C16.5942 20.3853 16.9627 20.3726 17.2956 20.2718C17.6666 20.1595 18.0346 20.0404 18.4062 19.9294C18.5392 19.8896 18.686 19.8281 18.8235 19.8069C18.9751 19.7836 18.51 19.8012 18.3657 19.8533C18.1854 19.9184 18.0095 20.0122 17.8354 20.0923C17.5425 20.227 17.2133 20.2788 16.8984 20.3361C16.3364 20.4383 15.7586 20.4864 15.191 20.5501C14.5519 20.6218 13.8932 20.5762 13.2504 20.5762" stroke="black" stroke-width="2.48951" stroke-linecap="round"/>
<path d="M8.285 16.4453C8.27609 16.4854 8.21262 16.5331 8.1875 16.5654C8.12386 16.6472 8.07154 16.7413 8.02816 16.8353C7.91428 17.0821 7.82201 17.3328 7.77133 17.6011C7.72929 17.8236 7.74993 18.0603 7.74993 18.286C7.74993 18.6616 7.84028 18.9808 8.06027 19.2895C8.26477 19.5765 8.48839 19.7925 8.79748 19.9649C9.01795 20.0879 9.23881 20.2171 9.46454 20.3299C9.81244 20.5039 10.2015 20.5705 10.5763 20.6617C11.2177 20.8177 11.8893 20.853 12.5442 20.9185" stroke="black" stroke-width="2.48951" stroke-linecap="round"/>
<path d="M19.0714 18.7705C19.0568 18.7538 19.337 18.7384 19.3965 18.7492C19.4348 18.7562 19.4657 18.802 19.499 18.8205C19.5656 18.8575 19.6337 18.8829 19.7015 18.9168C19.935 19.0335 20.2418 19.063 20.4991 19.063C20.8671 19.063 21.226 19.0587 21.5918 19.018C22.3468 18.9341 23.1039 18.674 23.7733 18.3217C23.9126 18.2484 24.0545 18.1483 24.2022 18.0954C24.2791 18.0678 24.3451 18.0354 24.3947 17.9716C24.5011 17.8349 24.6075 17.7125 24.731 17.5891C24.9172 17.4028 25.1057 17.2178 25.3848 17.2178C25.5458 17.2178 25.6524 17.2762 25.7549 17.4028C25.8858 17.5646 25.8674 17.7378 25.8674 17.9379C25.8674 18.1999 25.798 18.4644 25.6599 18.6905C25.5445 18.8793 25.3731 19.0138 25.2248 19.1755C25.0518 19.3643 24.8627 19.571 24.6572 19.7231C24.4267 19.8938 24.1453 20.063 23.8471 20.0494C23.3525 20.0269 23.9929 19.1976 24.0771 19.093C24.358 18.7448 24.6758 18.4396 25.0248 18.1604C25.2012 18.0193 25.363 17.9194 25.5911 17.8966C25.796 17.8761 25.9758 17.8883 26.1099 18.0604C26.4746 18.5282 26.099 19.216 25.8786 19.6469C25.6786 20.038 25.4977 20.4006 25.0973 20.6157C24.7969 20.7771 24.4809 20.8784 24.1597 20.987C23.9463 21.0592 23.7406 21.1535 23.5271 21.2233C23.36 21.278 23.2721 21.2072 23.2595 21.0283C23.2341 20.6659 23.3786 20.4618 23.7596 20.4407C24.2195 20.4153 24.2408 20.8965 24.2459 21.2471C24.2547 21.8476 24.1235 22.4247 23.6871 22.8661C23.4944 23.061 23.1223 23.3552 22.8232 23.1874C22.7304 23.1353 22.7008 23.0262 22.6994 22.9261C22.6951 22.611 22.9395 22.3712 23.172 22.191C23.5036 21.934 23.9703 21.7859 24.3884 21.7859C24.5448 21.7859 24.6767 21.7666 24.6747 21.9584C24.6727 22.1505 24.5631 22.4605 24.3272 22.4673C24.038 22.4755 24.2866 21.631 24.3422 21.5159C24.4407 21.3115 24.5609 21.1163 24.691 20.9308C24.7377 20.8642 24.891 20.6916 24.7547 20.8733C24.4786 21.2414 24.1305 21.6322 23.7533 21.8972C23.5288 22.055 23.272 22.1814 23.0145 22.276C22.8589 22.3331 22.655 22.3871 22.4919 22.3235C22.0834 22.1641 22.1288 21.4096 22.2381 21.0883C22.2538 21.0422 22.5327 20.5316 22.6444 20.6658C22.6759 20.7035 22.6289 20.8291 22.6144 20.8595C22.5066 21.0859 22.2595 21.2549 22.0369 21.3534C21.8486 21.4366 21.5929 21.5103 21.3893 21.4359C21.1649 21.3538 21.0836 21.0925 21.1217 20.8733C21.1556 20.6787 21.4697 20.3017 21.7118 20.4082C21.7979 20.4461 21.7675 20.6006 21.7418 20.6633C21.6099 20.9848 21.2675 21.2397 20.9742 21.4034C20.8614 21.4663 20.1924 21.8053 20.1778 21.4771C20.1674 21.2423 20.3351 20.9934 20.5291 20.8683C20.6334 20.8011 20.6692 20.851 20.6692 20.957C20.6692 21.3496 20.5203 21.6983 20.3416 22.0434C20.3178 22.0895 20.1351 22.5035 20.0516 22.5035C19.9969 22.5035 20.2036 21.9948 20.2191 21.9559C20.232 21.9238 20.3741 21.5873 20.3741 21.6809C20.3741 21.7457 20.3756 21.9327 20.3091 21.9659" stroke="black" stroke-width="2.48951" stroke-linecap="round"/>
<path d="M25.1697 13.437C25.2258 13.5141 25.2262 13.6624 25.2472 13.7546C25.2864 13.9265 25.3725 14.0464 25.4572 14.1971C25.5485 14.3593 25.6643 14.5267 25.7273 14.7022C25.8103 14.9333 25.8854 15.1679 25.9798 15.3948C26.1648 15.8395 26.3394 16.356 26.1423 16.825C25.7388 17.785 24.9212 18.3821 24.0671 18.9278" stroke="black" stroke-width="2.48951" stroke-linecap="round"/>
<path d="M20.4756 22.6428C20.4756 23.0577 20.0842 23.3667 19.7434 23.5622C19.4988 23.7025 19.2803 23.7261 19.0045 23.7261C18.7694 23.7261 18.4665 23.7084 18.2489 23.6057C17.71 23.3512 17.2361 22.9655 16.7745 22.5893C16.4021 22.2859 15.9936 22.062 15.601 21.8003" stroke="black" stroke-width="2.48951" stroke-linecap="round"/>
<path d="M18.0684 24.3882C17.9272 24.3882 18.0045 24.4603 17.9296 24.5102C17.7329 24.6414 17.5467 24.8174 17.3295 24.9148C17.1607 24.9904 16.932 25.1652 16.7444 25.1706C16.3551 25.1817 16.06 24.4834 15.8818 24.2244C15.5699 23.771 15.1764 23.3827 14.8638 22.9288C14.5981 22.5432 14.2831 22.1916 14.0045 21.8155C13.9314 21.7168 13.8056 21.6164 13.9694 21.8005C14.4571 22.3485 14.8612 22.9715 15.2432 23.5958C15.5683 24.1271 15.8723 24.6777 16.1526 25.2341C16.2392 25.4059 16.341 25.5911 16.3766 25.7824C16.4015 25.9158 15.9672 25.6863 15.937 25.6704C15.2971 25.3343 14.71 24.8058 14.2118 24.2879C13.7836 23.8428 13.3551 23.39 13.0082 22.877C12.8095 22.5832 12.6415 22.2693 12.4449 21.9743C12.4419 21.9699 12.314 21.8095 12.3813 21.8372C12.4611 21.8701 12.4604 21.9479 12.4983 22.0211C12.8726 22.7423 13.4482 23.3532 13.7354 24.1241C13.9078 24.587 14.0062 24.9828 14.0062 25.4698C14.0062 25.7121 13.4298 25.9411 13.1938 25.9529C12.9714 25.964 12.7097 25.9795 12.5 25.9061C12.0317 25.7422 11.7557 25.2584 11.4619 24.883C11.1948 24.5417 10.9033 24.2321 10.6194 23.9051C10.3599 23.6063 10.1168 23.2831 9.82367 23.0174C9.54628 22.7661 9.30983 22.4352 9.09482 22.1315C8.85648 21.7948 8.55486 21.4308 8.3994 21.0449C8.34663 20.9138 8.1903 20.6213 8.43952 20.7089C8.83407 20.8475 9.23017 21.0691 9.58462 21.2906C9.73486 21.3845 9.87831 21.4881 10.0276 21.5832C10.2102 21.6994 9.82387 21.5911 9.78689 21.5765C9.50002 21.4626 9.22453 21.3047 8.95106 21.1619C8.82561 21.0964 8.68383 20.9951 8.60335 20.8744C8.56452 20.8161 8.54513 20.7373 8.51475 20.6704C8.49957 20.637 8.4606 20.5607 8.47128 20.5233C8.48084 20.4899 8.54161 20.5358 8.55152 20.5417C8.77887 20.6764 9.00709 20.8095 9.23524 20.9429C10.2295 21.5242 11.2425 22.1356 12.0437 22.974C12.4378 23.3865 12.7325 23.8968 13.1336 24.2979" stroke="black" stroke-width="2.48951" stroke-linecap="round"/>
<path d="M23.7855 22.7632C23.9158 22.7795 23.6399 23.3243 23.62 23.375C23.4885 23.7088 23.2183 23.9935 23.0466 24.3078C22.6378 25.0559 22.0761 25.7098 21.5889 26.4058C21.467 26.5798 21.405 26.7852 21.2512 26.939C21.1413 27.049 21.0451 27.1379 20.9202 27.2165C20.7968 27.2942 20.6798 27.4419 20.5324 27.4255C20.2726 27.3966 20.0013 27.2931 19.7484 27.2299C19.2306 27.1004 18.7117 26.9787 18.1954 26.8437C17.6807 26.7092 17.151 26.7343 16.624 26.6816C16.0895 26.6281 15.5477 26.6916 15.0159 26.6298C14.5487 26.5754 13.1581 26.374 13.6284 26.374C13.9419 26.374 14.252 26.4275 14.5662 26.4325C15.2719 26.4438 15.9581 26.4511 16.6374 26.2352C17.214 26.052 17.7519 25.8512 18.3525 25.7571C18.8689 25.6763 19.4002 25.5888 19.8972 25.4245C20.5421 25.2112 21.3404 24.8621 21.726 24.2811C21.9647 23.9213 21.9675 23.4627 22.1004 23.0641" stroke="black" stroke-width="2.48951" stroke-linecap="round"/>
<path d="M30.4054 27.3969C30.2542 27.3969 30.1231 27.2808 30.0008 27.203C29.8518 27.1081 29.6662 27.0598 29.5043 26.989C29.298 26.8987 29.0926 26.8379 28.8775 26.7717C28.7138 26.7213 28.4191 26.7086 28.7504 26.8252C28.9757 26.9044 29.1775 27.0266 29.4057 27.1027C29.617 27.1731 29.8025 27.2522 29.9707 27.4002C30.2095 27.6103 30.4159 27.9787 30.509 28.2846C30.6043 28.5978 30.5852 28.9998 30.4589 29.2993C30.3303 29.6039 30.1893 30.0166 29.9607 30.2621C29.7891 30.4464 29.6523 30.6292 29.4274 30.7503C29.1399 30.9051 28.8042 30.9475 28.4813 30.9475C28.2792 30.9475 28.0813 31.0077 27.8778 31.0077C27.5593 31.0077 27.2314 30.8974 26.9517 30.7436C26.584 30.5414 26.2176 30.2803 25.9203 29.983C25.4502 29.5129 24.9033 29.1481 24.4208 28.6924C23.8558 28.1589 23.3017 27.6513 22.6555 27.2164C22.6349 27.2025 22.4148 27.0873 22.4148 27.0726C22.4148 27.0183 22.7996 27.1762 22.826 27.1879C23.2556 27.3789 23.7213 27.633 24.0697 27.9536C24.3903 28.2485 24.6929 28.6446 25.1095 28.8044C25.5836 28.9863 26.0897 29.1332 26.6006 29.1421C26.9926 29.149 27.2055 28.9728 27.3796 28.6189C27.5258 28.3219 27.5886 27.926 27.8494 27.6978C28.1773 27.4108 28.7988 27.5393 29.1583 27.6677C29.4558 27.774 29.7739 28.0193 29.8454 28.3447C29.9398 28.7749 29.6464 29.0271 29.3154 29.2558C28.9732 29.4923 28.606 29.6269 28.2088 29.7372C28.0865 29.7712 27.8048 29.87 27.7441 29.7138C27.6465 29.4629 28.1832 29.47 28.2991 29.4731C28.8014 29.4868 28.9527 30.0248 29.0179 30.4343C29.0731 30.7816 29.1483 31.3441 28.834 31.5727C28.7902 31.6046 28.6554 31.6342 28.6016 31.653C28.4114 31.7195 28.1892 31.7022 27.9915 31.6998C27.4789 31.6935 26.8327 31.3572 26.4318 31.0512C26.1536 30.8389 25.9289 30.5884 25.7046 30.3223C25.3792 29.9361 24.9893 29.6065 24.6715 29.214C24.281 28.7316 23.8629 28.271 23.488 27.7764C23.1119 27.2801 22.7013 26.8875 22.2275 26.4875C21.9141 26.2229 21.6263 25.9297 21.3365 25.64C21.2512 25.5546 21.1335 25.4196 21.0173 25.3809" stroke="black" stroke-width="2.48951" stroke-linecap="round"/>
<path d="M22.6708 16.9157C22.6708 16.4602 22.7275 15.9655 22.5189 15.5482C22.3684 15.2472 21.9629 15.0243 21.665 14.8918C21.5847 14.8562 21.4476 14.6916 21.4705 14.8979C21.5136 15.2856 21.7782 15.7629 21.9628 16.0952C22.2753 16.6577 22.7743 17.1246 23.1084 17.6814" stroke="black" stroke-width="2.48951" stroke-linecap="round"/>
<path d="M12.1692 19.9789C12.1692 18.8039 12.1692 17.6289 12.1692 16.4539C12.1692 16.2465 12.0194 16.4737 11.9929 16.5451C11.8202 17.0114 11.6377 17.486 11.5797 17.9855C11.4833 18.8146 11.841 19.5478 11.841 20.3618" stroke="black" stroke-width="2.48951" stroke-linecap="round"/>
<path d="M25.5664 5.78716C25.5664 5.31368 25.5664 4.84019 25.5664 4.36671C25.5664 4.32192 25.5918 4.21826 25.5296 4.21826C25.4514 4.21826 25.367 4.34936 25.324 4.40076C25.2266 4.51708 25.1201 4.62032 25.0176 4.73169C24.8391 4.9254 24.6375 5.10572 24.4251 5.26147C24.3249 5.33496 24.2223 5.39589 24.1446 5.49299" stroke="black" stroke-width="1.35791" stroke-linecap="round"/>
<path d="M7.63916 20.8041C7.63916 20.5563 7.36704 20.2339 7.25547 20.0108C7.08103 19.6619 7.06819 19.3179 6.96252 18.9375C6.84794 18.525 6.70586 18.0806 6.70586 17.6516C6.70586 17.393 6.92532 15.9043 7.21918 15.9043" stroke="black" stroke-width="1.35791" stroke-linecap="round"/>
<path d="M17.0423 25.1457C17.2929 25.1326 17.5141 24.9172 17.7274 24.8042C18.0764 24.6195 18.4025 24.3921 18.7329 24.176C19.1413 23.909 19.6718 24.0991 20.1137 24.2161C20.4497 24.305 20.7878 24.4081 21.1192 24.5028C21.2058 24.5275 21.2046 24.5766 21.3216 24.5766C21.5117 24.5766 21.474 24.6186 21.2541 24.5386" stroke="#95B7FF" stroke-width="0.452638" stroke-linecap="round"/>
<path d="M18.9546 23.8142C18.9546 23.2927 18.8301 22.7187 18.7283 22.23" stroke="#95B7FF" stroke-width="0.452638" stroke-linecap="round"/>
<path d="M21.7844 28.3257C21.7844 28.1485 21.6748 27.9683 21.549 27.8508C21.3348 27.6507 21.1592 27.3921 21.0129 27.1398C20.7359 26.6625 20.4377 26.2023 20.1323 25.7427C19.9339 25.444 19.7453 25.1362 19.5417 24.8413C19.4927 24.7702 19.4455 24.6967 19.3843 24.6355C19.3367 24.5878 19.3299 24.4965 19.2902 24.4397C19.2744 24.4172 19.2258 24.3385 19.1987 24.3307C19.169 24.3223 19.1607 24.2835 19.1328 24.2695" stroke="#95B7FF" stroke-width="0.452638" stroke-linecap="round"/>
<path d="M23.6731 25.9038C23.6506 25.9014 23.6324 25.8927 23.6126 25.8822C23.4577 25.8006 23.3128 25.6988 23.1713 25.5963C23.0293 25.4936 22.8951 25.3803 22.7556 25.2741C22.5399 25.1101 22.3479 24.9008 22.1165 24.7589C21.9616 24.6638 21.4885 24.3937 21.651 24.475" stroke="#95B7FF" stroke-width="0.452638" stroke-linecap="round"/>
<path d="M21.6633 24.4753C21.5483 24.4753 21.4332 24.4572 21.3189 24.4451C21.21 24.4335 21.1 24.4345 20.9907 24.4242C20.6801 24.3949 20.3781 24.2967 20.0704 24.2513C19.8297 24.2158 19.585 24.19 19.346 24.1484C19.3074 24.1417 19.1943 24.1274 19.1812 24.0879" stroke="#95B7FF" stroke-width="0.452638" stroke-linecap="round"/>
<path d="M24.1802 27.6602C24.0486 27.7209 24.029 27.9349 23.9883 28.0585C23.9405 28.2037 23.8986 28.351 23.8986 28.5048" stroke="#95B7FF" stroke-width="0.452638" stroke-linecap="round"/>
<path d="M22.3121 27.5358C22.3121 27.4605 22.3121 27.3851 22.3121 27.3098C22.3121 27.265 22.3069 27.2163 22.3163 27.1722C22.3327 27.0948 22.3773 27.021 22.4056 26.9473C22.4547 26.819 22.526 26.7021 22.6115 26.5947C22.6895 26.4968 22.7822 26.4583 22.8984 26.4292" stroke="#95B7FF" stroke-width="0.452638" stroke-linecap="round"/>
<path d="M31.1196 28.2399C30.7874 28.2399 30.4553 28.2399 30.1231 28.2399C29.9562 28.2399 29.7864 28.249 29.6205 28.2293C29.2326 28.1831 28.8808 28.0341 28.5109 27.9221C28.2544 27.8445 28.0187 27.7246 27.7938 27.5811C27.6744 27.5049 27.5422 27.4079 27.4779 27.2793" stroke="#95B7FF" stroke-width="0.452638" stroke-linecap="round"/>
<path d="M29.1285 26.4148C29.1183 26.4031 29.1335 26.4061 29.1431 26.4061C29.3063 26.4061 29.4694 26.4056 29.6326 26.4066C29.7751 26.4074 29.914 26.4036 30.0523 26.4391C30.1654 26.4682 30.2787 26.4986 30.389 26.5371C30.5696 26.6001 30.742 26.7065 30.8853 26.8331C30.973 26.9105 31.0498 27.0097 31.0498 27.131C31.0498 27.2459 30.9767 27.3093 30.8713 27.3493C30.6503 27.4331 30.3838 27.3643 30.1673 27.3051C30.0198 27.2648 29.8773 27.2104 29.7321 27.163C29.5604 27.1069 29.383 27.0675 29.2052 27.0368C28.9091 26.9858 28.6362 26.9224 28.3688 26.7816" stroke="#95B7FF" stroke-width="0.452638" stroke-linecap="round"/>
<path d="M31.3158 26.8638C31.3887 26.8638 31.4451 26.9254 31.4975 26.9691C31.5555 27.0174 31.6148 27.0641 31.6742 27.1108C31.7146 27.1426 31.7554 27.1716 31.7912 27.209C31.8271 27.2463 31.861 27.2861 31.8993 27.3211C31.9435 27.3616 31.9886 27.4036 32.0245 27.4521C32.049 27.4852 32.0544 27.5173 32.0544 27.558C32.0544 27.7452 32.0585 27.9288 32.01 28.1119C31.962 28.2934 31.8596 28.458 31.7795 28.6264C31.7199 28.7515 31.6652 28.8797 31.6148 29.0088C31.5687 29.1269 31.5359 29.2476 31.5007 29.369C31.4998 29.3722 31.4837 29.4202 31.4832 29.4032C31.4818 29.3545 31.4907 29.3056 31.5035 29.2588C31.5473 29.098 31.6138 28.9435 31.6638 28.7845C31.7452 28.5254 31.7996 28.2574 31.8377 27.9885C31.8499 27.9027 31.8732 27.8166 31.8722 27.7292C31.8718 27.6996 31.8602 27.6729 31.8536 27.6444C31.845 27.6075 31.8351 27.573 31.8169 27.5394C31.8013 27.5104 31.757 27.4227 31.7196 27.4163C31.6978 27.4126 31.6999 27.7535 31.6999 27.7757C31.6999 27.9099 31.7067 28.047 31.6807 28.1794C31.6607 28.2816 31.6307 28.3824 31.6063 28.4836" stroke="black" stroke-width="0.452638" stroke-linecap="round"/>
<path d="M26.461 28.2286C26.461 28.1374 26.4595 28.046 26.461 27.9548C26.4639 27.7884 26.5041 27.6306 26.5253 27.4667C26.5472 27.2973 26.5681 27.1425 26.6228 26.9796C26.698 26.7557 26.7727 26.5183 26.8988 26.3175C26.9836 26.1822 27.0998 26.0752 27.2135 25.9645C27.2778 25.9019 27.3541 25.8383 27.4368 25.801C27.4791 25.782 27.5429 25.7742 27.5881 25.7628C27.7518 25.7215 27.9292 25.7 28.0978 25.6958C28.2477 25.692 28.4242 25.6748 28.5699 25.7157C28.7 25.7522 28.8242 25.8024 28.9445 25.8625C28.9961 25.8883 29.1551 25.9434 29.0974 25.9434C29.0774 25.9434 29.0474 25.9248 29.0282 25.9191C28.9457 25.8945 28.8658 25.864 28.7805 25.8492C28.5039 25.8013 28.2521 25.8494 28.0164 26.0005C27.6244 26.2519 27.2731 26.5588 26.9448 26.8871C26.7647 27.0671 26.6804 27.3587 26.6804 27.6102" stroke="black" stroke-width="0.452638" stroke-linecap="round"/>
<path d="M27.1034 25.8632C27.7164 25.8632 28.342 25.8901 28.947 25.7853C29.3026 25.7236 29.6624 25.7206 30.0224 25.729C30.1676 25.7325 30.3535 25.7189 30.4952 25.7583C30.7024 25.8158 30.8833 26.0526 31.0348 26.1937C31.1027 26.2569 31.1552 26.3343 31.2207 26.3998C31.296 26.4752 31.3784 26.5439 31.4545 26.6186C31.6389 26.7996 31.8377 26.9651 31.997 27.1717C32.0347 27.2205 32.1296 27.3491 32.0188 27.2301C31.8386 27.0366 31.6579 26.843 31.471 26.6561C31.4007 26.5858 31.3315 26.5184 31.2529 26.4575C31.1907 26.4093 31.1393 26.342 31.07 26.3031C30.9849 26.2552 30.8822 26.2199 30.789 26.1899C30.5398 26.1098 30.2738 26.0501 30.0111 26.0356C29.5823 26.0119 29.1521 25.9576 28.7221 25.9576C28.4519 25.9576 28.2026 26.013 27.9398 26.0655" stroke="black" stroke-width="0.452638" stroke-linecap="round"/>
<path d="M24.3923 5.35449C24.3674 5.40166 24.3064 5.45387 24.2731 5.48846C24.1714 5.59413 24.0681 5.69884 23.9708 5.80868C23.3245 6.53875 22.779 7.35712 22.3803 8.24711C22.0551 8.973 21.7828 9.72581 21.5422 10.4838C21.4354 10.8202 21.3531 11.152 21.3045 11.5008" stroke="#95B7FF" stroke-width="0.452638" stroke-linecap="round"/>
<path d="M8.42399 8.91293C8.44604 8.85414 8.84389 9.02024 8.88472 9.03628C9.33899 9.21475 9.76874 9.4894 10.1558 9.78292C10.5718 10.0984 10.9234 10.4824 11.2897 10.8522C11.6006 11.1663 11.8955 11.4935 12.1882 11.8243" stroke="#95B7FF" stroke-width="0.452638" stroke-linecap="round"/>
<path d="M19.4319 13.6582C19.4319 14.0616 19.3787 14.4789 19.1756 14.8343" stroke="#95B7FF" stroke-width="0.452638" stroke-linecap="round"/>
<path d="M17.5923 13.4473V14.6083" stroke="#95B7FF" stroke-width="0.452638" stroke-linecap="round"/>
<path d="M15.9034 13.8696C15.9059 14.0365 15.9837 14.1676 16.0358 14.3237C16.0534 14.3767 16.0762 14.4345 16.1145 14.4728" stroke="#95B7FF" stroke-width="0.452638" stroke-linecap="round"/>
<path d="M14.0939 14.0356C14.2069 14.1044 14.3147 14.1537 14.4123 14.2484C14.5127 14.3458 14.5965 14.4593 14.6971 14.5567C14.7869 14.6437 14.9064 14.7048 15.0288 14.7293" stroke="#95B7FF" stroke-width="0.452638" stroke-linecap="round"/>
<path d="M13.1592 15.6637C13.131 15.6637 13.2157 15.6629 13.2438 15.6654C13.3343 15.6734 13.4142 15.7185 13.4976 15.7508C13.6106 15.7946 13.7336 15.851 13.8528 15.8748" stroke="#95B7FF" stroke-width="0.452638" stroke-linecap="round"/>
<path d="M25.6409 11.4155C25.4467 11.7761 25.1677 12.1075 25.0271 12.4943" stroke="#95B7FF" stroke-width="0.452638" stroke-linecap="round"/>
<path d="M23.8367 11.4341V11.7875" stroke="#95B7FF" stroke-width="0.452638" stroke-linecap="round"/>
<path d="M9.44039 11.6943C9.89507 12.0985 10.3301 12.5282 10.761 12.9591" stroke="#95B7FF" stroke-width="0.452638" stroke-linecap="round"/>
<path d="M7.7666 13.6287C7.96636 13.6287 8.16618 13.627 8.36593 13.6287C8.50279 13.6298 8.635 13.6659 8.771 13.6659" stroke="#95B7FF" stroke-width="0.452638" stroke-linecap="round"/>
<path d="M23.6614 13.4009C23.6258 13.4969 23.5585 13.5751 23.527 13.6697" stroke="#95B7FF" stroke-width="0.452638" stroke-linecap="round"/>
<path d="M22.3621 12.5718V13.1094" stroke="#95B7FF" stroke-width="0.452638" stroke-linecap="round"/>
<path d="M19.2932 11.0264C19.2932 11.2645 19.2932 11.5026 19.2932 11.7407C19.2932 11.9834 19.23 12.1578 19.114 12.3705" stroke="#95B7FF" stroke-width="0.452638" stroke-linecap="round"/>
<path d="M17.1648 10.8472V12.1465" stroke="#95B7FF" stroke-width="0.452638" stroke-linecap="round"/>
<path d="M15.1711 11.2056C15.1711 11.4062 15.1434 11.6277 15.1935 11.8229C15.2494 12.0402 15.4399 12.2334 15.4399 12.46" stroke="#95B7FF" stroke-width="0.452638" stroke-linecap="round"/>
<path d="M13.1999 12.1016C13.2997 12.2138 13.3258 12.4002 13.4028 12.5284C13.4837 12.6633 13.5489 12.8066 13.6479 12.9304" stroke="#95B7FF" stroke-width="0.452638" stroke-linecap="round"/>
<path d="M11.6767 14.0507C11.7557 13.8928 12.4278 14.243 12.4832 14.4091" stroke="#95B7FF" stroke-width="0.452638" stroke-linecap="round"/>
<path d="M11.0269 15.126H9.57076" stroke="#95B7FF" stroke-width="0.452638" stroke-linecap="round"/>
<path d="M12.9458 22.9976C12.6487 23.5917 12.3482 24.1711 12.1033 24.7903C12.0019 25.0466 12.05 25.2093 11.7663 25.2724" stroke="#95B7FF" stroke-width="0.452638" stroke-linecap="round"/>
<path d="M11.7244 22.2393C11.1734 22.7902 10.881 23.546 10.3342 24.0928" stroke="#95B7FF" stroke-width="0.452638" stroke-linecap="round"/>
<path d="M10.2078 21.6074C10.0039 21.7196 9.67862 21.8355 9.53374 22.0287" stroke="#95B7FF" stroke-width="0.452638" stroke-linecap="round"/>
<path d="M22.4246 22.0288C22.689 22.0288 22.9878 22.1887 23.225 22.2909C23.5043 22.4114 23.782 22.6045 24.0254 22.7871" stroke="#95B7FF" stroke-width="0.452638" stroke-linecap="round"/>
<path d="M23.5619 20.3861C23.2295 20.3861 24.2266 20.3787 24.5589 20.3861C24.8069 20.3917 25.0422 20.4704 25.2891 20.4704" stroke="#95B7FF" stroke-width="0.452638" stroke-linecap="round"/>
<path d="M26.3003 18.4902H23.6463" stroke="#95B7FF" stroke-width="0.452638" stroke-linecap="round"/>
<path d="M9.82334 18.4537C9.81546 18.5167 9.61952 18.4003 9.6076 18.3914C9.51098 18.3189 9.43489 18.235 9.3541 18.1457C9.30197 18.0881 9.25077 18.0216 9.21087 17.9551C9.16338 17.876 9.10081 17.8004 9.05746 17.7202C8.97887 17.5748 8.9119 17.421 8.82014 17.2833C8.74117 17.1649 8.67651 17.0506 8.61998 16.9214C8.59094 16.855 8.59085 16.8465 8.66313 16.8465C8.84931 16.8465 9.03548 16.8465 9.22166 16.8465C9.38724 16.8465 9.53235 16.8971 9.6927 16.9328C9.79257 16.955 9.89737 16.9336 9.99833 16.9519C10.0961 16.9697 10.1852 16.9867 10.2848 16.9867C10.339 16.9867 10.2964 16.9602 10.3255 16.9435C10.3498 16.9297 10.3868 16.8953 10.3513 16.8842C10.2509 16.8528 10.1322 16.868 10.0283 16.868C9.92185 16.868 9.81552 16.866 9.71067 16.8465C9.5188 16.8108 9.3296 16.7817 9.13357 16.7817C9.06572 16.7817 8.9963 16.8286 8.93041 16.8441C8.9073 16.8495 8.76473 16.9043 8.78898 16.9112C8.83801 16.9252 8.87533 16.956 8.91123 16.9915C9.01314 17.0923 9.10419 17.2041 9.19889 17.3115C9.35811 17.4921 9.51662 17.7096 9.6052 17.936C9.60589 17.9377 9.63317 18.0024 9.62797 18.0037C9.61795 18.0062 9.56307 17.9216 9.56265 17.921C9.51015 17.8471 9.47219 17.7696 9.4404 17.6849C9.38373 17.5337 9.27724 17.2477 9.39665 17.0958C9.45631 17.0198 9.55469 17.2616 9.56205 17.2827C9.63573 17.4946 9.68311 17.7424 9.68311 17.9683" stroke="#95B7FF" stroke-width="0.452638" stroke-linecap="round"/>
<path d="M24.4414 15.6276C24.5363 15.5328 24.583 15.3695 24.6377 15.2479C24.7252 15.0534 24.7827 14.8362 24.8444 14.6321C24.8681 14.5539 24.9407 14.446 24.9407 14.3637C24.9407 14.3428 24.7855 14.3602 24.7738 14.3622C24.6161 14.3894 24.4668 14.4573 24.3128 14.4915C24.1807 14.5209 24.0565 14.5776 23.9271 14.6156C23.8698 14.6325 23.8112 14.6728 23.7512 14.6795C23.6237 14.6937 23.7796 14.6985 23.8256 14.7149C23.9407 14.7557 24.0537 14.8241 24.1602 14.8833C24.2753 14.9472 24.2889 14.907 24.3632 14.8096C24.3902 14.7743 24.5118 14.6461 24.5677 14.6923C24.6135 14.7301 24.4441 14.9433 24.4144 14.978" stroke="#95B7FF" stroke-width="0.452638" stroke-linecap="round"/>
<path d="M13.0327 27.1533C10.9221 29.321 9.74191 32.0601 8.57085 34.7926" stroke="black" stroke-width="0.452638" stroke-linecap="round"/>
<path d="M10.4639 25.8687C10.2018 25.8687 10.0186 26.035 9.81036 26.1804C9.31889 26.5235 8.98638 26.8076 8.66861 27.3259C8.41969 27.7319 8.03012 28.4004 8.03012 28.9108" stroke="black" stroke-width="0.452638" stroke-linecap="round"/>
<path d="M10.0581 24.5166C9.75136 24.5166 9.47611 24.5713 9.18301 24.6743C8.12425 25.0467 7.10601 25.6158 6.17463 26.2367C5.10899 26.9472 3.5902 27.9285 3.2301 29.2489" stroke="black" stroke-width="0.452638" stroke-linecap="round"/>
<path d="M25.1338 22.6235C27.2892 22.6235 30.1515 23.5735 31.0154 25.7333" stroke="black" stroke-width="0.452638" stroke-linecap="round"/>
<path d="M26.6888 20.5279C27.9014 20.5279 29.3102 20.3143 30.4445 20.8283C31.8142 21.449 32.2751 22.964 32.5703 24.3137" stroke="black" stroke-width="0.452638" stroke-linecap="round"/>
</svg>
