<svg width="37" height="38" viewBox="0 0 37 38" fill="none" xmlns="http://www.w3.org/2000/svg">
<rect x="-0.519772" y="0.519772" width="34.305" height="35.8643" rx="4.67795" transform="matrix(-1 0 0 1 34.9939 0.84668)" fill="#F32D12" stroke="black" stroke-width="1.03954"/>
<path d="M16.1369 10.546C16.9584 10.546 19.4229 10.546 18.6014 10.546C17.1756 10.546 15.8644 10.9371 14.5095 11.1668C14.0843 11.2389 15.0275 11.0188 15.0907 11.0018C16.1468 10.7167 17.142 10.44 18.2875 10.349C18.6398 10.321 18.9913 10.3243 19.3454 10.3243C19.8349 10.3243 18.8857 10.3817 18.8106 10.3884C17.394 10.5142 15.9749 10.6968 14.6102 10.9697C14.2181 11.0482 13.7337 11.1624 13.4323 11.354C13.3387 11.4135 13.6461 11.255 13.7539 11.2062C14.2569 10.9788 14.8349 10.805 15.3775 10.6199C16.2324 10.3283 17.0642 10.137 18.0163 10.0361C18.361 9.9996 18.7172 10.014 19.0664 10.014C19.2729 10.014 19.4889 10.0019 19.6941 10.0164C19.9196 10.0324 20.1658 10.087 19.7638 10.014" stroke="black" stroke-width="0.452638" stroke-linecap="round"/>
<path d="M13.4148 11.3669C13.0656 10.9713 12.7937 10.5124 12.5 10.0676C12.0763 9.42605 11.5585 8.86846 10.9854 8.38594C10.3742 7.87134 9.76798 7.37699 9.08993 6.97682C8.98055 6.91227 8.95494 6.87602 8.83629 6.83804C8.64382 6.77644 8.43037 6.77689 8.24062 6.71408C8.12274 6.67506 7.9969 6.59667 7.86192 6.58905C7.64084 6.57656 7.46444 6.52384 7.25229 6.4424C7.1417 6.39995 6.91963 6.37629 6.86442 6.24984" stroke="black" stroke-width="0.452638" stroke-linecap="round"/>
<path d="M6.68158 6.38818C6.68158 6.89508 6.52092 7.37449 6.46653 7.87631C6.37936 8.68058 6.35901 9.47123 6.35901 10.2794C6.35901 11.1095 6.25148 11.9354 6.25148 12.7623C6.25148 13.2738 6.25939 13.7696 6.18577 14.2752C6.09953 14.8676 6.45257 15.2914 6.78911 15.7744C6.98688 16.0582 7.19012 16.3545 7.35362 16.6562C7.44631 16.8273 7.57055 17.1656 7.75684 17.2515" stroke="black" stroke-width="0.452638" stroke-linecap="round"/>
<path d="M7.69653 17.7041C7.69653 18.4949 7.72608 19.2862 7.74316 20.0719C7.75052 20.4107 7.90598 21.3295 8.20947 21.4812" stroke="black" stroke-width="0.452638" stroke-linecap="round"/>
<path d="M8.20944 21.5513C8.20944 21.8922 8.53669 22.2274 8.73752 22.5177C9.339 23.387 9.80203 24.3012 10.3891 25.1743C11.1228 26.2656 12.4579 27.4407 14.1322 27.7173C15.0939 27.8763 16.077 27.8977 17.0418 28.0331C17.7699 28.1352 18.4647 28.3368 19.1981 28.4277C19.619 28.4799 20.0286 28.545 20.4122 28.6876C20.557 28.7414 20.7192 28.7935 20.8833 28.7935" stroke="black" stroke-width="0.452638" stroke-linecap="round"/>
<path d="M19.7752 10.2354C19.6364 10.2027 20.1572 9.43623 20.1881 9.38257C20.8291 8.26949 21.6816 7.33141 22.5513 6.37436C23.0233 5.85493 23.5277 5.33721 24.0538 4.86557C24.4413 4.51817 24.8917 4.26816 25.3424 4.0034C25.6031 3.85021 25.9827 3.74521 26.0886 3.4458" stroke="black" stroke-width="0.452638" stroke-linecap="round"/>
<path d="M26.0886 3.4458C26.0886 4.57104 26.3062 5.66801 26.4458 6.73071C26.5299 7.37097 26.5931 8.01376 26.6624 8.66158C26.6991 9.00443 26.7631 9.32858 26.7631 9.68524C26.7631 9.93359 26.7746 10.1995 26.7608 10.4462C26.7435 10.7568 26.6551 11.1108 26.5945 11.3913C26.5108 11.7784 26.4313 12.165 26.3533 12.5585C26.3205 12.724 26.301 12.9512 26.2151 12.9512" stroke="black" stroke-width="0.452638" stroke-linecap="round"/>
<path d="M26.6202 12.4985C26.6202 12.8509 26.7899 13.2201 26.9011 13.5494C27.0512 13.9938 27.1774 14.4592 27.2775 14.9204C27.6009 16.4101 27.9377 17.7984 27.3561 19.2808C27.0148 20.1508 26.5956 20.929 26.1624 21.7521C25.6597 22.7073 25.2047 23.684 24.6373 24.6019C23.8652 25.851 22.9084 26.9175 21.9719 28.0308C21.723 28.3267 21.4814 28.6651 21.1096 28.7935" stroke="black" stroke-width="0.452638" stroke-linecap="round"/>
<path d="M15.1766 17.9691C15.047 17.6005 14.9629 17.4753 14.6234 17.2543C14.263 17.0195 13.8954 16.882 13.4841 16.7217C13.0124 16.538 12.4755 16.3452 11.9388 16.3582C11.3614 16.3722 10.795 16.4979 10.2323 16.6185C9.7669 16.7183 9.40569 17.041 9.19623 17.4132C9.06562 17.6452 9.10188 17.7148 9.16014 17.9724C9.2406 18.3281 9.36795 18.457 9.6534 18.6955C10.0133 18.9962 10.4129 19.2275 10.8709 19.4116C11.9752 19.8558 13.4631 19.6574 14.6365 19.4178C14.9716 19.3494 15.6077 19.2771 15.5846 18.872C15.5659 18.5443 15.4019 18.236 15.3308 17.9219C15.2926 17.7529 15.0304 17.4953 14.8502 17.4369" stroke="black" stroke-width="0.452638" stroke-linecap="round"/>
<path d="M20.0346 17.0097C19.9808 16.675 19.9973 16.548 20.1912 16.2609C20.3972 15.9559 20.6531 15.7256 20.9366 15.4629C21.2616 15.1616 21.6391 14.8316 22.1089 14.6648C22.6144 14.4852 23.1606 14.3978 23.7013 14.3076C24.1485 14.2329 24.6061 14.3693 24.9546 14.5949C25.1719 14.7356 25.1719 14.8027 25.2374 15.0259C25.328 15.3343 25.2758 15.4784 25.1364 15.7616C24.9606 16.1186 24.7192 16.4337 24.4061 16.7308C23.6513 17.4472 22.2757 17.7812 21.1535 17.9789C20.8331 18.0353 20.2506 18.1881 20.0882 17.8596C19.957 17.5939 19.96 17.2955 19.8801 17.0233C19.8371 16.8768 19.9479 16.5861 20.0774 16.4804" stroke="black" stroke-width="0.452638" stroke-linecap="round"/>
<path d="M20.3364 23.8145C20.7374 23.8145 21.0606 24.0582 21.3639 24.3048C22.4719 25.2059 23.4652 26.2441 24.5748 27.1445C25.155 27.6152 25.7284 28.1007 26.3356 28.5362C26.4709 28.6333 26.6088 28.7635 26.7676 28.8165" stroke="black" stroke-width="0.452638" stroke-linecap="round"/>
<path d="M19.7127 24.9463C19.828 24.9463 19.9045 24.9582 20.007 25.021C20.6729 25.4291 21.3229 25.8918 21.9148 26.4011C22.6971 27.0743 23.4174 27.8682 23.9255 28.7714C24.231 29.3146 24.4497 29.8981 24.7545 30.4434C25.0028 30.8877 25.3707 31.3022 25.7446 31.6483C26.0478 31.9291 26.2167 32.0338 26.5876 32.1714C27.0381 32.3386 27.4401 32.5712 27.9327 32.5941C28.3437 32.6132 28.7588 32.5964 29.1703 32.5964C30.025 32.5964 30.4271 31.9133 30.8727 31.2934C31.1349 30.9286 31.2937 30.5862 31.3888 30.1585C31.4336 29.9569 31.3981 29.7149 31.3981 29.5093C31.3981 29.1892 31.4205 28.86 31.4612 28.5425C31.5139 28.1309 31.5719 27.7374 31.4401 27.3422C31.1107 26.3538 30.0127 25.8206 29.0232 25.7473C28.3811 25.6997 27.489 25.9371 27.489 26.7117C27.489 26.7881 27.4702 26.874 27.5217 26.9312C27.6202 27.0407 27.5337 27.0164 27.4703 27.0526C27.3637 27.1136 27.3207 27.4509 27.2788 27.5617C27.2174 27.7242 27.1187 27.8636 27.0593 28.0241C26.9734 28.256 26.6903 28.4322 26.6903 28.7083C26.6903 28.7933 26.6529 28.8563 26.6483 28.9395C26.6436 29.0245 26.6249 29.1566 26.5642 29.0656" stroke="black" stroke-width="0.452638" stroke-linecap="round"/>
<path d="M30.9775 27.6784C30.809 27.6784 30.6696 27.6709 30.5128 27.7414C30.2217 27.8724 29.8918 27.8465 29.5811 27.8465C29.3126 27.8465 28.7077 27.8684 28.7077 27.5103" stroke="black" stroke-width="0.452638" stroke-linecap="round"/>
<path d="M24.957 30.6111C24.2814 29.7367 23.4439 28.9978 22.7433 28.1428C22.158 27.4286 21.5617 26.7296 20.9522 26.0364C20.8024 25.8661 20.6709 25.6758 20.5108 25.5157C20.4556 25.4604 20.4044 25.486 20.3754 25.3989" stroke="black" stroke-width="0.452638" stroke-linecap="round"/>
<path d="M19.2585 22.6468C19.2692 22.453 19.3746 22.2369 19.4397 22.0565C19.5316 21.8022 19.5928 21.5272 19.6295 21.2597C19.6409 21.1762 19.7342 20.871 19.6674 20.7959C19.6537 20.7805 19.56 20.8558 19.5409 20.8612C19.3693 20.9103 19.1303 20.9956 18.9549 21.0151C18.7113 21.0422 18.4775 21.168 18.2339 21.2027C17.9773 21.2394 17.7424 21.2714 17.513 21.3861C17.3179 21.4837 17.6802 21.1103 17.7828 21.0699C18.242 20.8895 18.6032 20.7875 19.0982 20.7875C19.2936 20.7875 19.4889 20.7875 19.6843 20.7875C19.8363 20.7875 19.7674 20.7495 19.6569 20.7495C19.2041 20.7495 18.8302 20.7663 18.4026 20.9203C18.0822 21.0356 17.7376 21.2172 17.4455 21.3946C17.4263 21.4062 17.2665 21.4634 17.3233 21.4705C17.3918 21.479 17.4687 21.5183 17.532 21.5464C17.6296 21.5898 17.7371 21.7385 17.8187 21.812C17.9524 21.9323 18.1038 22.0271 18.2339 22.1535C18.503 22.4148 18.7689 22.6138 19.0856 22.8154C19.1792 22.875 19.0065 22.827 18.9718 22.8154C18.7923 22.7556 18.5956 22.6285 18.449 22.5118C18.1101 22.2423 17.896 21.8552 17.6648 21.5084" stroke="black" stroke-width="0.452638" stroke-linecap="round"/>
<path d="M22.6941 14.7617C23.0294 14.8065 23.2177 15.1102 23.3331 15.3263C23.4199 15.4888 23.4883 15.6668 23.5372 15.8379C23.5893 16.02 23.5994 16.186 23.5994 16.3719C23.5994 16.5923 23.507 16.8159 23.3548 17.0038C23.3014 17.0697 23.2299 17.1334 23.1832 17.2009C23.1769 17.2101 23.1201 17.2633 23.1201 17.2487" stroke="black" stroke-width="0.452638" stroke-linecap="round"/>
<path d="M22.6938 17.2512C22.4153 17.2512 22.1503 17.1037 21.9281 16.9739C21.5043 16.7263 21.4033 16.1912 21.3621 15.7975C21.3486 15.6682 21.3042 15.4924 21.375 15.3706C21.4408 15.2575 21.5246 15.1522 21.6285 15.0594C21.6874 15.0067 21.7504 14.9085 21.8449 14.897C21.8931 14.8911 22.0067 14.7962 22.028 14.7617" stroke="black" stroke-width="0.452638" stroke-linecap="round"/>
<path d="M12.7358 16.1196C13.0712 16.1807 13.2594 16.5949 13.3749 16.8896C13.4616 17.1112 13.53 17.3539 13.579 17.5872C13.6311 17.8355 13.6411 18.0618 13.6411 18.3154C13.6411 18.6159 13.5488 18.9208 13.3966 19.177C13.3431 19.2668 13.2716 19.3538 13.225 19.4458C13.2186 19.4584 13.1618 19.5308 13.1618 19.511" stroke="black" stroke-width="0.452638" stroke-linecap="round"/>
<path d="M12.9622 19.5147C12.5908 19.5147 12.2374 19.3269 11.9412 19.1616C11.3761 18.8466 11.2415 18.1655 11.1865 17.6645C11.1684 17.4999 11.1093 17.2761 11.2038 17.1211C11.2914 16.9772 11.4031 16.8432 11.5416 16.725C11.6202 16.6579 11.7042 16.533 11.8302 16.5184C11.8945 16.5109 12.046 16.3901 12.0743 16.3462" stroke="black" stroke-width="0.452638" stroke-linecap="round"/>
<path d="M7.58083 10.0464C7.66324 10.0464 7.72239 10.043 7.79486 10.0892C7.83986 10.1178 7.98498 10.2128 7.9756 10.2009C7.76444 9.93469 7.51662 9.61392 7.51662 9.2592C7.51662 8.95904 7.55943 8.66646 7.55943 8.36741C7.55943 8.18513 7.63109 7.88888 7.45242 7.79429C7.44527 7.79051 7.39059 7.73304 7.39059 7.72414C7.39059 7.69773 7.4778 7.77699 7.47858 7.77764C7.57032 7.8541 7.67384 7.90992 7.77346 7.97503C8.14332 8.21674 8.47106 8.52095 8.83647 8.76456C9.2582 9.04571 9.62672 9.44524 9.953 9.82876C10.2303 10.1547 10.5355 10.4572 10.8127 10.7836C10.9049 10.8922 10.9752 11.0328 11.0814 11.1284C11.2198 11.2529 10.9107 10.7975 10.8222 10.6337C10.5705 10.1681 10.3171 9.71971 9.97915 9.31033C9.81133 9.10701 9.66086 8.89139 9.49521 8.68608C9.38167 8.54536 9.25924 8.42632 9.13255 8.29964C9.0164 8.18349 8.9243 8.0575 8.7901 7.95957C8.72405 7.91137 8.50175 7.80528 8.57488 7.84185C8.65439 7.8816 8.72275 7.91259 8.79842 7.96789C9.19766 8.25964 9.5714 8.60199 9.93992 8.93102C10.5773 9.50014 11.1557 10.1321 11.6212 10.8502C11.8698 11.2336 12.0592 11.6483 12.2895 12.0416C12.451 12.3174 12.6285 12.585 12.8234 12.8383C12.8364 12.8552 12.9913 13.0405 12.9268 13.0428C12.8418 13.0458 12.771 13.0193 12.6961 12.9786C12.346 12.788 12.0271 12.4712 11.7782 12.1641C11.326 11.6061 11.0807 10.829 10.5107 10.3698C10.1855 10.1078 9.77879 9.96179 9.36441 9.9227C9.17323 9.90466 9.54966 10.1194 9.55823 10.126C10.1114 10.5566 10.6303 11.0259 11.0909 11.5553C11.7351 12.2955 12.3982 13.1751 12.6391 14.1486C12.6526 14.2034 12.7546 14.5007 12.664 14.541C12.4854 14.6204 12.4979 15.0936 12.6426 15.1938C12.7063 15.2379 12.7875 15.2473 12.8626 15.2473C12.8889 15.2473 13.0577 15.2549 12.9649 15.2045C12.7031 15.0624 12.4177 15.0063 12.1183 15.0761C11.9018 15.1265 11.6883 15.155 11.469 15.1843C11.1318 15.2292 10.7864 15.2562 10.4476 15.3008C10.2864 15.322 10.136 15.3222 9.97559 15.3543C9.84524 15.3804 9.7259 15.428 9.59747 15.4566C9.41335 15.4975 9.26824 15.6112 9.10044 15.692C9.00733 15.7368 8.9192 15.7547 8.83291 15.8145C8.78175 15.8499 8.71739 15.9074 8.66168 15.9322C8.52083 15.9948 8.51985 16.1483 8.34064 16.0392C8.12246 15.9064 7.91729 15.7156 7.77346 15.5041C7.55573 15.1839 7.48833 14.8317 7.39891 14.4542C7.30159 14.0433 7.33188 13.581 7.34659 13.1617C7.35808 12.8343 7.41566 12.5266 7.49998 12.2104C7.5984 11.8414 7.67639 11.468 7.81627 11.1117C7.90428 10.8876 7.98637 10.5778 8.20033 10.4352C8.31924 10.3559 8.38364 10.4067 8.49403 10.4792C9.27777 10.9937 9.96643 11.9461 9.97797 12.9096C9.98136 13.1933 10.0037 13.4216 9.75561 13.6064C9.58229 13.7355 9.26638 13.8565 9.06239 13.7205C8.87432 13.5952 8.80031 13.3138 8.76632 13.107C8.72526 12.8572 8.67277 12.4576 8.80556 12.2259C8.95661 11.9623 9.27745 11.9037 9.54991 11.868C9.92244 11.8191 10.3037 11.7959 10.6569 11.9477C11.2037 12.1826 11.3788 12.6323 11.343 13.1973C11.3145 13.6478 10.8172 14.0055 10.3953 14.0226C10.0696 14.0357 9.7099 13.8682 9.62363 13.5231C9.57337 13.3221 10.878 13.4534 10.9982 13.4851C11.4875 13.6143 11.8903 13.9522 12.3501 14.1522C12.558 14.2425 12.6902 14.1912 12.7865 13.9964C12.8625 13.8426 12.9621 13.6935 13.0053 13.5267C13.0432 13.3806 13.1316 13.3025 13.2728 13.2378C13.8813 12.9589 14.5678 12.8759 15.1801 12.6135C15.579 12.4426 15.9772 12.2692 16.3775 12.101C17.0226 11.8301 17.6998 11.6729 18.3846 11.5398C19.3275 11.3565 20.2622 11.2663 21.2217 11.2663C21.2374 11.2663 21.4674 11.2775 21.3596 11.2116C21.2479 11.1434 21.106 11.1356 20.9803 11.1165C20.6949 11.0731 20.4104 11.0577 20.1218 11.0535C19.6025 11.0459 19.077 11.0372 18.5606 11.0999C18.0492 11.1619 17.5524 11.326 17.054 11.4506C16.459 11.5994 15.8652 11.722 15.2764 11.8941C14.6978 12.0633 14.1192 12.2328 13.5499 12.4316C13.2783 12.5264 12.9602 12.6307 12.7401 12.8287C12.5902 12.9637 12.7392 12.9358 12.8793 12.9358C13.6589 12.9358 14.4273 12.9254 15.2015 13.0321C15.7592 13.1089 16.3104 13.1664 16.8745 13.1664C17.6534 13.1664 18.3715 13.0073 19.1099 12.7681C19.8435 12.5305 20.5455 12.2972 21.3168 12.2295C21.5469 12.2093 21.7757 12.2081 22.0064 12.2081C22.1002 12.2081 22.2123 12.1999 22.2847 12.2723C22.3462 12.3338 21.9224 12.5294 21.8792 12.5553C21.4669 12.8018 21.0361 13.0371 20.5938 13.2259C20.131 13.4234 19.6134 13.4901 19.1265 13.6028C18.3903 13.7733 17.6547 13.8917 16.9125 14.0273C16.5661 14.0906 16.2209 14.1801 15.8876 14.2937C15.5581 14.4059 15.2286 14.5231 14.8816 14.5671C14.5439 14.6101 14.1867 14.6704 13.8448 14.6468C13.7925 14.6432 13.6634 14.5844 13.6593 14.6742C13.6497 14.8803 13.6807 15.0839 13.6807 15.2901C13.6807 15.454 13.6669 15.4843 13.8317 15.5255C14.0469 15.5793 14.2638 15.6962 14.4678 15.7824C14.6021 15.8391 14.7081 15.9419 14.8412 15.9964C15.0041 16.063 15.1596 16.1357 15.3299 16.1783C15.6008 16.246 15.8555 16.2967 16.1182 16.4018C16.5573 16.5775 17.0772 16.5837 17.5118 16.3983C17.9906 16.194 18.4516 15.942 18.8982 15.6753C19.0525 15.5832 19.1718 15.454 19.3108 15.3436C19.5039 15.1903 19.7101 15.0495 19.9089 14.9036C20.1529 14.7247 20.378 14.5054 20.6105 14.3103C20.9187 14.0517 21.2084 13.8052 21.551 13.5921C21.7778 13.4511 22.006 13.3245 22.1943 13.1331C22.2614 13.065 22.3489 12.9743 22.3489 12.8715" stroke="black" stroke-width="2.48951" stroke-linecap="round"/>
<path d="M21.2359 11.2875C21.2359 11.0274 21.2291 10.8018 21.3429 10.5598C21.4295 10.3758 21.0299 10.5487 20.9838 10.624C20.7975 10.929 21.3488 10.0009 21.5998 9.7465C21.7794 9.56438 21.9752 9.39923 22.1586 9.22094C22.3286 9.05567 22.5222 8.93973 22.6794 8.75721C23.0124 8.37067 23.3392 8.00205 23.595 7.55864C23.8231 7.1633 24.1847 6.8557 24.4154 6.46471C24.4769 6.36052 24.5422 6.07854 24.7032 6.08659C24.8906 6.09597 25.0671 6.22111 25.0671 6.40764C25.0671 6.55464 25.1703 6.70813 25.1907 6.8571C25.2341 7.17361 25.2916 7.48605 25.3227 7.80478C25.3608 8.19569 25.4164 8.58708 25.4475 8.97837C25.479 9.37371 25.4523 9.7804 25.4523 10.1769C25.4523 10.4026 25.4044 10.6349 25.3667 10.8571C25.3231 11.1139 25.2876 11.3753 25.2276 11.6288C25.1955 11.764 25.1839 12.0004 25.0456 12.0794C24.7789 12.2318 24.3621 12.2401 24.0659 12.2245C23.0055 12.1687 23.1524 10.7578 23.4452 10.0675C23.6109 9.67704 23.8403 9.24202 24.1443 8.93794C24.2468 8.83545 24.3608 8.75974 24.3608 8.9427C24.3608 9.22746 24.2559 9.37311 23.9505 9.41238C23.6665 9.44889 23.3023 9.43346 23.2359 9.08777C23.1101 8.43231 23.6231 7.9058 23.796 7.32083C23.8047 7.29134 23.9271 6.98939 23.8851 6.94747C23.842 6.90431 23.752 6.98269 23.7282 7.00811C23.4763 7.27681 23.3115 7.57346 23.1289 7.89515C22.9895 8.1407 22.8276 8.37157 22.6913 8.61928C22.5762 8.82868 22.4747 9.07086 22.3382 9.26493C22.2859 9.33926 22.2429 9.49468 22.1729 9.54912C22.1481 9.56836 22.1772 9.46006 22.1777 9.45875C22.2342 9.29197 22.3204 9.13505 22.3929 8.97481C22.5384 8.6532 22.7012 8.33589 22.8887 8.03664C22.9557 7.92968 23.1018 7.78127 23.1182 7.6502C23.1269 7.58025 23.0426 7.72758 23.0076 7.75603C22.7956 7.9286 22.6154 8.17253 22.4464 8.38622C22.2007 8.6968 21.9521 9.00526 21.7603 9.35055C21.7362 9.39398 21.7771 9.45998 21.7924 9.50037C21.8574 9.67204 21.9152 9.8447 21.9898 10.0128C22.3078 10.7302 22.6321 11.4451 22.9434 12.165C23.0112 12.3217 23.0766 12.4219 23.0766 12.5931C23.0766 12.6643 23.0467 12.7892 23.1027 12.8452C23.1641 12.9065 23.1641 13.056 23.0718 13.0901C23.0294 13.1058 22.8605 13.1282 22.9612 13.1282C23.2731 13.1282 23.5851 13.1256 23.897 13.1282C24.1757 13.1305 24.4442 13.1924 24.7234 13.1924C24.8976 13.1924 25.0695 13.2384 25.2371 13.2887C25.2586 13.2952 25.4482 13.3587 25.4428 13.4017C25.4426 13.4029 25.2611 13.3432 25.2573 13.3422C25.0517 13.2867 24.8446 13.2627 24.6319 13.2578C24.2535 13.2491 23.8791 13.2491 23.5046 13.2946C23.338 13.3149 23.1565 13.2944 22.9933 13.3315C22.8908 13.3548 22.792 13.3832 22.6913 13.4112C22.5808 13.4419 22.4892 13.5134 22.3703 13.5134" stroke="black" stroke-width="2.48951" stroke-linecap="round"/>
<path d="M18.8603 16.2319C18.8603 16.9549 18.7961 17.6694 18.7961 18.3924C18.7961 18.4498 18.84 18.7314 18.7509 18.6528C18.5639 18.488 18.4444 18.2574 18.2919 18.0631C17.8915 17.5528 17.2653 17.3001 16.7949 16.8645C16.6313 16.713 16.4634 16.5658 16.2693 16.4567C16.1418 16.3849 15.9987 16.333 15.8746 16.264C15.7603 16.2006 15.5028 16.2533 15.3728 16.2533C15.3481 16.2533 15.2571 16.2458 15.3288 16.2533C15.4032 16.2612 15.4973 16.4012 15.5547 16.4472C15.6981 16.5618 15.8058 16.6936 15.8853 16.8526C15.9591 17.0003 16.002 17.161 16.0827 17.3068C16.2899 17.6816 16.3881 18.1063 16.5749 18.4888C16.5839 18.5071 16.69 18.7382 16.6439 18.6065C16.581 18.4269 16.5465 18.2359 16.5012 18.0512C16.4209 17.7241 16.3193 17.3208 16.0779 17.0666C15.9178 16.8981 16.0723 17.1779 16.0945 17.2379C16.1466 17.3779 16.1555 17.5401 16.217 17.6754C16.2418 17.73 16.277 17.7755 16.2967 17.8324C16.351 17.9894 16.3987 18.1372 16.4251 18.3033C16.4517 18.4709 16.4774 18.6609 16.5583 18.811C16.5982 18.8851 16.6314 19.0119 16.7105 19.0571C16.8154 19.1171 16.8404 19.2928 16.9007 19.3877C16.9825 19.5162 17.192 19.5331 17.33 19.6148C17.5063 19.7193 17.5558 19.7539 17.758 19.7099C17.9973 19.6579 18.2394 19.6564 18.4834 19.6564C18.6337 19.6564 18.5081 19.6581 18.4227 19.6517C18.1077 19.6279 17.792 19.635 17.4762 19.635C17.3091 19.635 17.1291 19.6479 16.9768 19.7254C16.8221 19.8041 16.7112 19.9649 16.5904 20.0857C16.3529 20.3231 16.0844 20.4144 15.7592 20.4697C15.5449 20.5062 15.331 20.5149 15.1171 20.5446C14.9923 20.562 14.9183 20.5553 15.1029 20.5553C15.6006 20.5553 16.1013 20.486 16.5951 20.4269C16.939 20.3858 17.3075 20.3731 17.6403 20.2723C18.0113 20.16 18.3793 20.0409 18.7509 19.9299C18.884 19.8901 19.0307 19.8286 19.1683 19.8074C19.3198 19.7841 18.8547 19.8017 18.7105 19.8538C18.5302 19.9189 18.3542 20.0127 18.1801 20.0928C17.8872 20.2275 17.558 20.2793 17.2432 20.3365C16.6811 20.4387 16.1033 20.4869 15.5357 20.5506C14.8966 20.6222 14.2379 20.5767 13.5952 20.5767" stroke="black" stroke-width="2.48951" stroke-linecap="round"/>
<path d="M8.62948 16.4458C8.62057 16.4859 8.5571 16.5336 8.53198 16.5659C8.46834 16.6477 8.41602 16.7418 8.37265 16.8358C8.25876 17.0826 8.16649 17.3333 8.11581 17.6016C8.07378 17.8241 8.09441 18.0608 8.09441 18.2865C8.09441 18.6621 8.18477 18.9813 8.40475 19.29C8.60925 19.577 8.83287 19.793 9.14196 19.9654C9.36243 20.0884 9.58329 20.2176 9.80902 20.3304C10.1569 20.5044 10.546 20.571 10.9208 20.6622C11.5622 20.8182 12.2338 20.8535 12.8887 20.919" stroke="black" stroke-width="2.48951" stroke-linecap="round"/>
<path d="M19.4159 18.771C19.4013 18.7543 19.6815 18.7389 19.741 18.7497C19.7793 18.7567 19.8102 18.8025 19.8435 18.821C19.9101 18.858 19.9782 18.8833 20.046 18.9172C20.2795 19.034 20.5863 19.0635 20.8436 19.0635C21.2116 19.0635 21.5705 19.0592 21.9363 19.0185C22.6913 18.9346 23.4484 18.6745 24.1178 18.3222C24.2571 18.2489 24.3989 18.1488 24.5466 18.0959C24.6235 18.0683 24.6896 18.0358 24.7392 17.9721C24.8455 17.8354 24.952 17.713 25.0755 17.5896C25.2617 17.4033 25.4502 17.2183 25.7293 17.2183C25.8903 17.2183 25.9969 17.2767 26.0994 17.4033C26.2303 17.5651 26.2119 17.7383 26.2119 17.9384C26.2119 18.2004 26.1425 18.4649 26.0043 18.691C25.8889 18.8798 25.7176 19.0142 25.5693 19.176C25.3963 19.3648 25.2071 19.5715 25.0017 19.7236C24.7712 19.8943 24.4898 20.0635 24.1916 20.0499C23.697 20.0274 24.3373 19.198 24.4216 19.0935C24.7025 18.7453 25.0203 18.4401 25.3693 18.1609C25.5457 18.0198 25.7074 17.9199 25.9356 17.8971C26.1405 17.8766 26.3202 17.8888 26.4544 18.0609C26.8191 18.5287 26.4434 19.2165 26.2231 19.6474C26.0231 20.0385 25.8422 20.4011 25.4418 20.6162C25.1414 20.7776 24.8253 20.8789 24.5041 20.9875C24.2908 21.0597 24.0851 21.1539 23.8715 21.2238C23.7045 21.2785 23.6166 21.2077 23.604 21.0288C23.5786 20.6664 23.7231 20.4622 24.1041 20.4412C24.564 20.4158 24.5852 20.897 24.5904 21.2476C24.5992 21.848 24.468 22.4251 24.0316 22.8665C23.8388 23.0615 23.4668 23.3556 23.1677 23.1878C23.0749 23.1358 23.0453 23.0267 23.0439 22.9266C23.0396 22.6114 23.284 22.3717 23.5165 22.1915C23.848 21.9345 24.3148 21.7864 24.7329 21.7864C24.8893 21.7864 25.0212 21.7671 25.0192 21.9589C25.0172 22.151 24.9075 22.461 24.6717 22.4677C24.3825 22.476 24.6311 21.6315 24.6867 21.5164C24.7852 21.312 24.9053 21.1168 25.0355 20.9313C25.0822 20.8646 25.2355 20.6921 25.0992 20.8738C24.8231 21.2419 24.475 21.6326 24.0978 21.8977C23.8732 22.0555 23.6165 22.1819 23.359 22.2765C23.2034 22.3336 22.9995 22.3876 22.8364 22.324C22.4279 22.1646 22.4733 21.4101 22.5826 21.0888C22.5983 21.0427 22.8772 20.5321 22.9889 20.6662C23.0204 20.704 22.9734 20.8296 22.9589 20.86C22.8511 21.0864 22.604 21.2554 22.3813 21.3538C22.1931 21.4371 21.9374 21.5108 21.7337 21.4363C21.5093 21.3543 21.4281 21.0929 21.4662 20.8738C21.5001 20.6792 21.8142 20.3022 22.0563 20.4087C22.1424 20.4466 22.112 20.6011 22.0863 20.6637C21.9544 20.9853 21.612 21.2402 21.3187 21.4038C21.2059 21.4668 20.5369 21.8058 20.5223 21.4776C20.5119 21.2428 20.6795 20.9938 20.8736 20.8688C20.9779 20.8016 21.0136 20.8515 21.0136 20.9575C21.0136 21.3501 20.8648 21.6988 20.6861 22.0439C20.6622 22.09 20.4796 22.504 20.3961 22.504C20.3414 22.504 20.548 21.9953 20.5636 21.9564C20.5764 21.9243 20.7186 21.5878 20.7186 21.6814C20.7186 21.7462 20.7201 21.9332 20.6536 21.9664" stroke="black" stroke-width="2.48951" stroke-linecap="round"/>
<path d="M25.5144 13.4375C25.5705 13.5146 25.5709 13.6629 25.5919 13.755C25.6311 13.927 25.7172 14.0469 25.802 14.1976C25.8932 14.3598 26.009 14.5272 26.072 14.7027C26.155 14.9338 26.2302 15.1684 26.3245 15.3953C26.5096 15.84 26.6842 16.3565 26.4871 16.8255C26.0836 17.7855 25.266 18.3825 24.4118 18.9283" stroke="black" stroke-width="2.48951" stroke-linecap="round"/>
<path d="M20.8201 22.6433C20.8201 23.0582 20.4286 23.3672 20.0879 23.5627C19.8433 23.703 19.6248 23.7265 19.349 23.7265C19.1139 23.7265 18.8109 23.7089 18.5934 23.6062C18.0545 23.3517 17.5806 22.966 17.119 22.5898C16.7466 22.2864 16.3381 22.0625 15.9455 21.8008" stroke="black" stroke-width="2.48951" stroke-linecap="round"/>
<path d="M18.4128 24.3882C18.2717 24.3882 18.349 24.4603 18.2741 24.5102C18.0774 24.6414 17.8912 24.8174 17.674 24.9148C17.5052 24.9904 17.2765 25.1652 17.0889 25.1706C16.6996 25.1817 16.4045 24.4834 16.2263 24.2244C15.9144 23.771 15.5209 23.3827 15.2082 22.9288C14.9426 22.5432 14.6276 22.1916 14.349 21.8155C14.2759 21.7168 14.1501 21.6164 14.3139 21.8005C14.8016 22.3485 15.2057 22.9715 15.5877 23.5958C15.9128 24.1271 16.2168 24.6777 16.4971 25.2341C16.5837 25.4059 16.6855 25.5911 16.7211 25.7824C16.7459 25.9158 16.3117 25.6863 16.2815 25.6704C15.6416 25.3343 15.0544 24.8058 14.5563 24.2879C14.1281 23.8428 13.6996 23.39 13.3527 22.877C13.154 22.5832 12.986 22.2693 12.7893 21.9743C12.7864 21.9699 12.6584 21.8095 12.7258 21.8372C12.8056 21.8701 12.8048 21.9479 12.8428 22.0211C13.217 22.7423 13.7927 23.3532 14.0799 24.1241C14.2523 24.587 14.3507 24.9828 14.3507 25.4698C14.3507 25.7121 13.7743 25.9411 13.5382 25.9529C13.3159 25.964 13.0542 25.9795 12.8445 25.9061C12.3761 25.7422 12.1002 25.2584 11.8064 24.883C11.5393 24.5417 11.2478 24.2321 10.9639 23.9051C10.7044 23.6063 10.4613 23.2831 10.1682 23.0174C9.89076 22.7661 9.65431 22.4352 9.4393 22.1315C9.20096 21.7948 8.89934 21.4308 8.74389 21.0449C8.69111 20.9138 8.53478 20.6213 8.78401 20.7089C9.17855 20.8475 9.57466 21.0691 9.9291 21.2906C10.0793 21.3845 10.2228 21.4881 10.3721 21.5832C10.5547 21.6994 10.1684 21.5911 10.1314 21.5765C9.8445 21.4626 9.56901 21.3047 9.29554 21.1619C9.1701 21.0964 9.02831 20.9951 8.94783 20.8744C8.909 20.8161 8.88962 20.7373 8.85923 20.6704C8.84405 20.637 8.80508 20.5607 8.81577 20.5233C8.82532 20.4899 8.88609 20.5358 8.89601 20.5417C9.12335 20.6764 9.35157 20.8095 9.57972 20.9429C10.5739 21.5242 11.587 22.1356 12.3881 22.974C12.7823 23.3865 13.077 23.8968 13.4781 24.2979" stroke="black" stroke-width="2.48951" stroke-linecap="round"/>
<path d="M24.13 22.7637C24.2603 22.78 23.9844 23.3248 23.9645 23.3755C23.833 23.7093 23.5628 23.994 23.3911 24.3083C22.9823 25.0564 22.4205 25.7103 21.9334 26.4062C21.8115 26.5803 21.7495 26.7857 21.5957 26.9395C21.4857 27.0495 21.3896 27.1384 21.2647 27.217C21.1413 27.2947 21.0243 27.4423 20.8769 27.426C20.6171 27.3971 20.3458 27.2936 20.0929 27.2304C19.5751 27.1009 19.0562 26.9792 18.5399 26.8442C18.0252 26.7097 17.4955 26.7348 16.9685 26.6821C16.434 26.6286 15.8922 26.6921 15.3604 26.6303C14.8932 26.5759 13.5026 26.3745 13.9729 26.3745C14.2864 26.3745 14.5965 26.428 14.9107 26.433C15.6164 26.4443 16.3026 26.4516 16.9819 26.2357C17.5585 26.0525 18.0964 25.8517 18.697 25.7576C19.2134 25.6768 19.7446 25.5893 20.2416 25.425C20.8866 25.2117 21.6849 24.8626 22.0705 24.2816C22.3091 23.9218 22.312 23.4632 22.4449 23.0646" stroke="black" stroke-width="2.48951" stroke-linecap="round"/>
<path d="M30.7499 27.3974C30.5987 27.3974 30.4676 27.2813 30.3453 27.2035C30.1962 27.1086 30.0107 27.0603 29.8488 26.9895C29.6425 26.8992 29.4371 26.8384 29.2219 26.7722C29.0582 26.7218 28.7636 26.7091 29.0949 26.8257C29.3202 26.9049 29.522 27.0271 29.7502 27.1032C29.9615 27.1736 30.147 27.2527 30.3152 27.4007C30.5539 27.6108 30.7604 27.9792 30.8535 28.285C30.9488 28.5983 30.9297 29.0003 30.8034 29.2997C30.6748 29.6044 30.5338 30.0171 30.3052 30.2626C30.1336 30.4469 29.9967 30.6297 29.7719 30.7508C29.4843 30.9056 29.1487 30.948 28.8258 30.948C28.6237 30.948 28.4258 31.0082 28.2223 31.0082C27.9038 31.0082 27.5759 30.8979 27.2962 30.7441C26.9285 30.5419 26.5621 30.2808 26.2648 29.9835C25.7947 29.5134 25.2478 29.1486 24.7653 28.6929C24.2003 28.1594 23.6462 27.6518 23 27.2168C22.9793 27.203 22.7593 27.0878 22.7593 27.0731C22.7593 27.0188 23.1441 27.1767 23.1705 27.1884C23.6001 27.3793 24.0658 27.6335 24.4142 27.9541C24.7348 28.2489 25.0373 28.6451 25.454 28.8049C25.9281 28.9868 26.4342 29.1336 26.9451 29.1426C27.3371 29.1495 27.55 28.9733 27.7241 28.6194C27.8702 28.3224 27.9331 27.9265 28.1939 27.6983C28.5218 27.4113 29.1433 27.5398 29.5028 27.6682C29.8003 27.7745 30.1184 28.0198 30.1898 28.3452C30.2843 28.7754 29.9909 29.0276 29.6599 29.2563C29.3176 29.4928 28.9505 29.6274 28.5533 29.7377C28.431 29.7717 28.1493 29.8705 28.0886 29.7143C27.991 29.4634 28.5276 29.4704 28.6435 29.4736C29.1459 29.4873 29.2972 30.0253 29.3624 30.4348C29.4176 30.7821 29.4928 31.3446 29.1785 31.5732C29.1347 31.6051 28.9999 31.6346 28.9461 31.6535C28.7559 31.72 28.5337 31.7027 28.336 31.7003C27.8234 31.6939 27.1772 31.3576 26.7763 31.0517C26.4981 30.8393 26.2733 30.5889 26.0491 30.3228C25.7236 29.9365 25.3337 29.607 25.016 29.2145C24.6255 28.7321 24.2074 28.2715 23.8325 27.7769C23.4564 27.2806 23.0458 26.888 22.572 26.488C22.2586 26.2234 21.9708 25.9302 21.681 25.6405C21.5957 25.5551 21.478 25.4201 21.3617 25.3813" stroke="black" stroke-width="2.48951" stroke-linecap="round"/>
<path d="M23.0155 16.9162C23.0155 16.4607 23.0722 15.9659 22.8636 15.5487C22.7131 15.2477 22.3077 15.0248 22.0097 14.8923C21.9294 14.8566 21.7923 14.6921 21.8152 14.8984C21.8583 15.2861 22.1229 15.7634 22.3075 16.0957C22.62 16.6582 23.119 17.1251 23.4531 17.6819" stroke="black" stroke-width="2.48951" stroke-linecap="round"/>
<path d="M12.5134 19.9794C12.5134 18.8044 12.5134 17.6294 12.5134 16.4544C12.5134 16.247 12.3636 16.4742 12.3372 16.5456C12.1645 17.0119 11.982 17.4864 11.9239 17.9859C11.8275 18.815 12.1852 19.5483 12.1852 20.3623" stroke="black" stroke-width="2.48951" stroke-linecap="round"/>
<path d="M25.9109 5.78716C25.9109 5.31368 25.9109 4.84019 25.9109 4.36671C25.9109 4.32192 25.9363 4.21826 25.8741 4.21826C25.7958 4.21826 25.7115 4.34936 25.6685 4.40076C25.5711 4.51708 25.4646 4.62032 25.362 4.73169C25.1836 4.9254 24.982 5.10572 24.7696 5.26147C24.6694 5.33496 24.5667 5.39589 24.4891 5.49299" stroke="black" stroke-width="1.35791" stroke-linecap="round"/>
<path d="M7.98364 20.8046C7.98364 20.5568 7.71153 20.2344 7.59995 20.0113C7.42551 19.6624 7.41268 19.3184 7.307 18.938C7.19242 18.5255 7.05035 18.0811 7.05035 17.6521C7.05035 17.3935 7.2698 15.9048 7.56366 15.9048" stroke="black" stroke-width="1.35791" stroke-linecap="round"/>
<path d="M17.3867 25.1462C17.6373 25.133 17.8586 24.9176 18.0719 24.8047C18.4209 24.62 18.747 24.3926 19.0774 24.1765C19.4858 23.9095 20.0163 24.0996 20.4582 24.2166C20.7942 24.3055 21.1322 24.4086 21.4637 24.5033C21.5503 24.528 21.549 24.5771 21.6661 24.5771C21.8561 24.5771 21.8184 24.619 21.5986 24.5391" stroke="#F32D12" stroke-width="0.452638" stroke-linecap="round"/>
<path d="M19.2991 23.8147C19.2991 23.2932 19.1746 22.7192 19.0728 22.2305" stroke="#F32D12" stroke-width="0.452638" stroke-linecap="round"/>
<path d="M22.1287 28.3257C22.1287 28.1485 22.019 27.9683 21.8932 27.8508C21.679 27.6507 21.5035 27.3921 21.3571 27.1398C21.0802 26.6625 20.782 26.2023 20.4766 25.7427C20.2781 25.444 20.0895 25.1362 19.886 24.8413C19.8369 24.7702 19.7898 24.6967 19.7286 24.6355C19.6809 24.5878 19.6742 24.4965 19.6344 24.4397C19.6187 24.4172 19.57 24.3385 19.5429 24.3307C19.5133 24.3223 19.5049 24.2835 19.477 24.2695" stroke="#F32D12" stroke-width="0.452638" stroke-linecap="round"/>
<path d="M24.0178 25.9042C23.9954 25.9019 23.9772 25.8932 23.9573 25.8827C23.8024 25.8011 23.6575 25.6993 23.516 25.5968C23.374 25.4941 23.2398 25.3807 23.1003 25.2746C22.8846 25.1106 22.6926 24.9013 22.4613 24.7594C22.3064 24.6643 21.8332 24.3942 21.9958 24.4755" stroke="#F32D12" stroke-width="0.452638" stroke-linecap="round"/>
<path d="M22.0078 24.4753C21.8928 24.4753 21.7777 24.4572 21.6634 24.4451C21.5545 24.4335 21.4445 24.4345 21.3351 24.4242C21.0246 24.3949 20.7226 24.2967 20.4149 24.2513C20.1741 24.2158 19.9295 24.19 19.6905 24.1484C19.6519 24.1417 19.5388 24.1274 19.5257 24.0879" stroke="#F32D12" stroke-width="0.452638" stroke-linecap="round"/>
<path d="M24.5249 27.6602C24.3934 27.7209 24.3737 27.9349 24.333 28.0585C24.2852 28.2037 24.2434 28.351 24.2434 28.5048" stroke="#F32D12" stroke-width="0.452638" stroke-linecap="round"/>
<path d="M22.6563 27.5358C22.6563 27.4605 22.6563 27.3851 22.6563 27.3098C22.6563 27.265 22.6511 27.2163 22.6605 27.1722C22.677 27.0948 22.7216 27.021 22.7498 26.9473C22.799 26.819 22.8703 26.7021 22.9558 26.5947C23.0338 26.4968 23.1265 26.4583 23.2427 26.4292" stroke="#F32D12" stroke-width="0.452638" stroke-linecap="round"/>
<path d="M31.4641 28.2399C31.1319 28.2399 30.7998 28.2399 30.4676 28.2399C30.3007 28.2399 30.1309 28.249 29.9649 28.2293C29.577 28.1831 29.2253 28.0341 28.8553 27.9221C28.5989 27.8445 28.3632 27.7246 28.1383 27.5811C28.0189 27.5049 27.8867 27.4079 27.8224 27.2793" stroke="#F32D12" stroke-width="0.452638" stroke-linecap="round"/>
<path d="M29.4728 26.4148C29.4625 26.4031 29.4777 26.4061 29.4873 26.4061C29.6505 26.4061 29.8137 26.4056 29.9769 26.4066C30.1193 26.4074 30.2582 26.4036 30.3965 26.4391C30.5096 26.4682 30.6229 26.4986 30.7332 26.5371C30.9139 26.6001 31.0863 26.7065 31.2296 26.8331C31.3173 26.9105 31.394 27.0097 31.394 27.131C31.394 27.2459 31.3209 27.3093 31.2155 27.3493C30.9945 27.4331 30.728 27.3643 30.5115 27.3051C30.364 27.2648 30.2215 27.2104 30.0763 27.163C29.9046 27.1069 29.7273 27.0675 29.5494 27.0368C29.2534 26.9858 28.9804 26.9224 28.713 26.7816" stroke="#F32D12" stroke-width="0.452638" stroke-linecap="round"/>
<path d="M31.6603 26.8638C31.7332 26.8638 31.7896 26.9254 31.8419 26.9691C31.8999 27.0174 31.9593 27.0641 32.0186 27.1108C32.0591 27.1426 32.0999 27.1716 32.1357 27.209C32.1715 27.2463 32.2055 27.2861 32.2437 27.3211C32.288 27.3616 32.3331 27.4036 32.369 27.4521C32.3935 27.4852 32.3988 27.5173 32.3988 27.558C32.3988 27.7452 32.403 27.9288 32.3545 28.1119C32.3065 28.2934 32.204 28.458 32.1239 28.6264C32.0644 28.7515 32.0096 28.8797 31.9593 29.0088C31.9132 29.1269 31.8804 29.2476 31.8452 29.369C31.8443 29.3722 31.8282 29.4202 31.8277 29.4032C31.8262 29.3545 31.8352 29.3056 31.848 29.2588C31.8918 29.098 31.9583 28.9435 32.0082 28.7845C32.0897 28.5254 32.1441 28.2574 32.1822 27.9885C32.1944 27.9027 32.2177 27.8166 32.2167 27.7292C32.2163 27.6996 32.2047 27.6729 32.1981 27.6444C32.1895 27.6075 32.1795 27.573 32.1614 27.5394C32.1458 27.5104 32.1015 27.4227 32.064 27.4163C32.0423 27.4126 32.0443 27.7535 32.0443 27.7757C32.0443 27.9099 32.0512 28.047 32.0252 28.1794C32.0052 28.2816 31.9752 28.3824 31.9508 28.4836" stroke="black" stroke-width="0.452638" stroke-linecap="round"/>
<path d="M26.8055 28.2286C26.8055 28.1374 26.8039 28.046 26.8055 27.9548C26.8083 27.7884 26.8486 27.6306 26.8698 27.4667C26.8917 27.2973 26.9126 27.1425 26.9673 26.9796C27.0425 26.7557 27.1172 26.5183 27.2432 26.3175C27.3281 26.1822 27.4443 26.0752 27.558 25.9645C27.6223 25.9019 27.6986 25.8383 27.7813 25.801C27.8236 25.782 27.8874 25.7742 27.9325 25.7628C28.0963 25.7215 28.2737 25.7 28.4423 25.6958C28.5922 25.692 28.7686 25.6748 28.9144 25.7157C29.0445 25.7522 29.1687 25.8024 29.289 25.8625C29.3406 25.8883 29.4996 25.9434 29.4419 25.9434C29.4219 25.9434 29.3919 25.9248 29.3727 25.9191C29.2902 25.8945 29.2103 25.864 29.125 25.8492C28.8483 25.8013 28.5966 25.8494 28.3609 26.0005C27.9689 26.2519 27.6176 26.5588 27.2892 26.8871C27.1092 27.0671 27.0249 27.3587 27.0249 27.6102" stroke="black" stroke-width="0.452638" stroke-linecap="round"/>
<path d="M27.4477 25.8632C28.0606 25.8632 28.6862 25.8901 29.2912 25.7853C29.6468 25.7236 30.0067 25.7206 30.3666 25.729C30.5119 25.7325 30.6977 25.7189 30.8395 25.7583C31.0466 25.8158 31.2275 26.0526 31.379 26.1937C31.447 26.2569 31.4994 26.3343 31.5649 26.3998C31.6403 26.4752 31.7226 26.5439 31.7987 26.6186C31.9831 26.7996 32.1819 26.9651 32.3413 27.1717C32.3789 27.2205 32.4738 27.3491 32.363 27.2301C32.1828 27.0366 32.0022 26.843 31.8152 26.6561C31.745 26.5858 31.6758 26.5184 31.5971 26.4575C31.5349 26.4093 31.4835 26.342 31.4143 26.3031C31.3291 26.2552 31.2265 26.2199 31.1332 26.1899C30.884 26.1098 30.6181 26.0501 30.3554 26.0356C29.9265 26.0119 29.4963 25.9576 29.0664 25.9576C28.7962 25.9576 28.5468 26.013 28.284 26.0655" stroke="black" stroke-width="0.452638" stroke-linecap="round"/>
<path d="M24.7371 5.35498C24.7121 5.40215 24.6511 5.45436 24.6178 5.48895C24.5161 5.59461 24.4128 5.69932 24.3155 5.80917C23.6693 6.53924 23.1238 7.35761 22.7251 8.2476C22.3999 8.97349 22.1275 9.7263 21.8869 10.4842C21.7801 10.8206 21.6979 11.1525 21.6492 11.5013" stroke="#F32D12" stroke-width="0.452638" stroke-linecap="round"/>
<path d="M8.76823 8.91293C8.79028 8.85414 9.18812 9.02024 9.22896 9.03628C9.68323 9.21475 10.113 9.4894 10.5 9.78292C10.916 10.0984 11.2677 10.4824 11.6339 10.8522C11.9449 11.1663 12.2398 11.4935 12.5325 11.8243" stroke="#F32D12" stroke-width="0.452638" stroke-linecap="round"/>
<path d="M19.7764 13.6587C19.7764 14.0621 19.7231 14.4794 19.52 14.8348" stroke="#F32D12" stroke-width="0.452638" stroke-linecap="round"/>
<path d="M17.9368 13.4478V14.6088" stroke="#F32D12" stroke-width="0.452638" stroke-linecap="round"/>
<path d="M16.2479 13.8696C16.2504 14.0365 16.3282 14.1676 16.3802 14.3237C16.3979 14.3767 16.4207 14.4345 16.459 14.4728" stroke="#F32D12" stroke-width="0.452638" stroke-linecap="round"/>
<path d="M14.4387 14.0356C14.5516 14.1044 14.6594 14.1537 14.757 14.2484C14.8574 14.3458 14.9413 14.4593 15.0418 14.5567C15.1317 14.6437 15.2511 14.7048 15.3735 14.7293" stroke="#F32D12" stroke-width="0.452638" stroke-linecap="round"/>
<path d="M13.5037 15.6642C13.4754 15.6642 13.5602 15.6634 13.5883 15.6659C13.6788 15.6739 13.7587 15.719 13.8421 15.7513C13.9551 15.7951 14.0781 15.8515 14.1973 15.8753" stroke="#F32D12" stroke-width="0.452638" stroke-linecap="round"/>
<path d="M25.9854 11.4155C25.7912 11.7761 25.5122 12.1075 25.3716 12.4943" stroke="#F32D12" stroke-width="0.452638" stroke-linecap="round"/>
<path d="M24.1812 11.4341V11.7875" stroke="#F32D12" stroke-width="0.452638" stroke-linecap="round"/>
<path d="M9.78488 11.6948C10.2395 12.099 10.6746 12.5287 11.1055 12.9596" stroke="#F32D12" stroke-width="0.452638" stroke-linecap="round"/>
<path d="M8.11084 13.6291C8.3106 13.6291 8.51042 13.6275 8.71017 13.6291C8.84703 13.6303 8.97924 13.6663 9.11523 13.6663" stroke="#F32D12" stroke-width="0.452638" stroke-linecap="round"/>
<path d="M24.0059 13.4014C23.9703 13.4974 23.903 13.5755 23.8715 13.6702" stroke="#F32D12" stroke-width="0.452638" stroke-linecap="round"/>
<path d="M22.7068 12.5723V13.1099" stroke="#F32D12" stroke-width="0.452638" stroke-linecap="round"/>
<path d="M19.6375 11.0269C19.6375 11.265 19.6375 11.5031 19.6375 11.7412C19.6375 11.9839 19.5742 12.1583 19.4582 12.3709" stroke="#F32D12" stroke-width="0.452638" stroke-linecap="round"/>
<path d="M17.5093 10.8472V12.1465" stroke="#F32D12" stroke-width="0.452638" stroke-linecap="round"/>
<path d="M15.5159 11.2056C15.5159 11.4062 15.4881 11.6277 15.5383 11.8229C15.5941 12.0402 15.7847 12.2334 15.7847 12.46" stroke="#F32D12" stroke-width="0.452638" stroke-linecap="round"/>
<path d="M13.5444 12.1016C13.6442 12.2138 13.6703 12.4002 13.7473 12.5284C13.8282 12.6633 13.8934 12.8066 13.9924 12.9304" stroke="#F32D12" stroke-width="0.452638" stroke-linecap="round"/>
<path d="M12.0209 14.0507C12.0999 13.8928 12.772 14.243 12.8274 14.4091" stroke="#F32D12" stroke-width="0.452638" stroke-linecap="round"/>
<path d="M11.3713 15.126H9.91524" stroke="#F32D12" stroke-width="0.452638" stroke-linecap="round"/>
<path d="M13.2905 22.998C12.9934 23.5922 12.6929 24.1716 12.448 24.7908C12.3466 25.0471 12.3948 25.2098 12.111 25.2729" stroke="#F32D12" stroke-width="0.452638" stroke-linecap="round"/>
<path d="M12.0688 22.2397C11.5179 22.7907 11.2255 23.5465 10.6787 24.0933" stroke="#F32D12" stroke-width="0.452638" stroke-linecap="round"/>
<path d="M10.5522 21.6079C10.3484 21.7201 10.0231 21.836 9.87822 22.0292" stroke="#F32D12" stroke-width="0.452638" stroke-linecap="round"/>
<path d="M22.7691 22.0293C23.0335 22.0293 23.3323 22.1891 23.5695 22.2914C23.8488 22.4119 24.1264 22.605 24.3699 22.7876" stroke="#F32D12" stroke-width="0.452638" stroke-linecap="round"/>
<path d="M23.9066 20.3861C23.5743 20.3861 24.5713 20.3787 24.9036 20.3861C25.1516 20.3917 25.3869 20.4704 25.6338 20.4704" stroke="#F32D12" stroke-width="0.452638" stroke-linecap="round"/>
<path d="M26.6448 18.4902H23.9908" stroke="#F32D12" stroke-width="0.452638" stroke-linecap="round"/>
<path d="M10.1678 18.4537C10.1599 18.5167 9.964 18.4003 9.95208 18.3914C9.85546 18.3189 9.77937 18.235 9.69858 18.1457C9.64645 18.0881 9.59525 18.0216 9.55536 17.9551C9.50786 17.876 9.44529 17.8004 9.40194 17.7202C9.32335 17.5748 9.25638 17.421 9.16462 17.2833C9.08565 17.1649 9.021 17.0506 8.96446 16.9214C8.93543 16.855 8.93534 16.8465 9.00761 16.8465C9.19379 16.8465 9.37997 16.8465 9.56614 16.8465C9.73172 16.8465 9.87684 16.8971 10.0372 16.9328C10.1371 16.955 10.2419 16.9336 10.3428 16.9519C10.4406 16.9697 10.5296 16.9867 10.6293 16.9867C10.6835 16.9867 10.6408 16.9602 10.67 16.9435C10.6943 16.9297 10.7312 16.8953 10.6958 16.8842C10.5953 16.8528 10.4766 16.868 10.3728 16.868C10.2663 16.868 10.16 16.866 10.0552 16.8465C9.86329 16.8108 9.67408 16.7817 9.47805 16.7817C9.41021 16.7817 9.34079 16.8286 9.27489 16.8441C9.25178 16.8495 9.10921 16.9043 9.13346 16.9112C9.18249 16.9252 9.21981 16.956 9.25572 16.9915C9.35762 17.0923 9.44867 17.2041 9.54337 17.3115C9.70259 17.4921 9.8611 17.7096 9.94968 17.936C9.95037 17.9377 9.97765 18.0024 9.97246 18.0037C9.96243 18.0062 9.90755 17.9216 9.90713 17.921C9.85463 17.8471 9.81668 17.7696 9.78488 17.6849C9.72821 17.5337 9.62172 17.2477 9.74113 17.0958C9.80079 17.0198 9.89917 17.2616 9.90654 17.2827C9.98022 17.4946 10.0276 17.7424 10.0276 17.9683" stroke="#F32D12" stroke-width="0.452638" stroke-linecap="round"/>
<path d="M24.7861 15.6281C24.881 15.5333 24.9277 15.3699 24.9824 15.2484C25.0699 15.0539 25.1275 14.8367 25.1892 14.6326C25.2128 14.5544 25.2854 14.4465 25.2854 14.3642C25.2854 14.3433 25.1303 14.3607 25.1185 14.3627C24.9608 14.3899 24.8116 14.4578 24.6576 14.492C24.5254 14.5214 24.4012 14.578 24.2719 14.6161C24.2145 14.633 24.156 14.6733 24.0959 14.68C23.9685 14.6942 24.1243 14.699 24.1704 14.7153C24.2854 14.7562 24.3984 14.8246 24.5049 14.8838C24.6201 14.9477 24.6336 14.9075 24.708 14.8101C24.7349 14.7748 24.8566 14.6466 24.9125 14.6928C24.9583 14.7306 24.7888 14.9438 24.7591 14.9785" stroke="#F32D12" stroke-width="0.452638" stroke-linecap="round"/>
<path d="M13.3772 27.1533C11.2665 29.321 10.0864 32.0601 8.91533 34.7926" stroke="black" stroke-width="0.452638" stroke-linecap="round"/>
<path d="M10.8083 25.8687C10.5463 25.8687 10.3631 26.035 10.1548 26.1804C9.66337 26.5235 9.33086 26.8076 9.01309 27.3259C8.76417 27.7319 8.37461 28.4004 8.37461 28.9108" stroke="black" stroke-width="0.452638" stroke-linecap="round"/>
<path d="M10.4026 24.5166C10.0958 24.5166 9.82059 24.5713 9.52749 24.6743C8.46873 25.0467 7.45049 25.6158 6.51912 26.2367C5.45347 26.9472 3.93468 27.9285 3.57459 29.2489" stroke="black" stroke-width="0.452638" stroke-linecap="round"/>
<path d="M25.4783 22.6235C27.6337 22.6235 30.4959 23.5735 31.3599 25.7333" stroke="black" stroke-width="0.452638" stroke-linecap="round"/>
<path d="M27.0332 20.5279C28.2459 20.5279 29.6547 20.3143 30.789 20.8283C32.1587 21.449 32.6196 22.964 32.9148 24.3137" stroke="black" stroke-width="0.452638" stroke-linecap="round"/>
</svg>
