<svg width="36" height="38" viewBox="0 0 36 38" fill="none" xmlns="http://www.w3.org/2000/svg">
<rect x="-0.519772" y="0.519772" width="34.305" height="35.8643" rx="4.67795" transform="matrix(-1 0 0 1 34.3384 0.807617)" fill="white" stroke="black" stroke-width="1.03954"/>
<path d="M16.1438 11.8015C16.4197 11.7454 16.6955 11.6893 16.9713 11.6332C17.5153 11.5226 17.8631 11.258 18.3165 10.9535C18.8058 10.6249 19.2624 10.2469 19.761 9.92976C20.8081 9.26386 22.1446 8.95256 23.3682 8.84152C25.717 8.62838 28.2374 10.3828 28.7887 12.7183C28.9281 13.3091 29.0296 13.8912 28.9017 14.492C28.7262 15.3168 28.4067 16.1177 28.0579 16.8794C27.1715 18.8155 25.8099 20.6044 24.3801 22.1564C22.9672 23.6901 21.461 25.1061 19.8468 26.4199C18.7459 27.3159 17.6684 28.24 16.6052 29.1817C15.8835 29.8209 15.1982 30.5197 14.4277 31.0999C13.7549 31.6066 12.9989 32.0955 12.2232 32.4247C12.0557 32.4958 11.865 32.654 11.6725 32.6498C11.3173 32.6421 11.0208 31.5849 10.945 31.3711C10.5935 30.3794 10.3875 29.3379 10.1758 28.3093C9.97116 27.3146 9.77169 26.3239 9.66756 25.3127C9.36946 22.4179 9.04237 19.5393 8.64788 16.6571C8.50854 15.639 8.35737 14.6251 8.33115 13.5958C8.30019 12.3802 8.47981 11.1116 8.73267 9.92834C8.94535 8.93305 9.31066 7.92918 9.79821 7.04095C10.2242 6.2648 10.753 5.66941 11.6267 5.41988C12.3274 5.21976 13.0242 5.10451 13.721 5.37958C14.3054 5.61028 14.8298 5.92538 15.3221 6.31868C16.0384 6.89099 16.7341 7.55036 17.2555 8.30833C17.5134 8.68311 17.7436 9.03408 17.9399 9.44926C18.0277 9.63506 18.2942 9.88768 18.5013 9.92373C18.7103 9.9601 18.895 9.91639 19.1019 9.90699C19.4665 9.89044 19.812 9.92383 20.1279 9.69579" stroke="black" stroke-width="1.03954" stroke-linecap="round"/>
<path d="M21.064 15.5442C20.615 15.5442 21.962 15.5371 22.4109 15.5442C23.0795 15.5547 23.818 15.7446 24.2744 16.269C24.5322 16.5652 24.7516 16.8919 24.9132 17.2494C24.9663 17.3669 24.9997 17.4854 25.0382 17.6076C25.0417 17.6188 25.0703 17.7417 25.0757 17.7396C25.166 17.7034 24.5869 16.8012 24.5522 16.755C24.2732 16.3848 23.8821 16.1645 23.4885 15.9441C22.9002 15.6146 22.0776 15.5692 21.4153 15.5692C21.1476 15.5692 20.89 15.6254 20.6432 15.7302C20.5953 15.7506 20.3573 15.819 20.3891 15.8747C20.44 15.9638 20.4466 16.0765 20.4696 16.1746C20.5205 16.3913 20.5934 16.6002 20.6765 16.8064C20.8657 17.2757 21.1581 17.5646 21.5528 17.8743C22.2652 18.4332 23.0162 18.817 23.9273 18.8991C24.2776 18.9306 24.703 18.8288 24.9632 18.5686" stroke="black" stroke-width="1.03954" stroke-linecap="round"/>
<path d="M23.2384 16.8186C23.2384 17.3136 23.3174 17.9655 22.8246 18.2641C22.726 18.3239 22.4617 18.3679 22.3774 18.2614C22.1888 18.0231 22.2451 17.5813 22.3441 17.3241C22.4299 17.1013 22.5469 16.8697 22.7885 16.7936C22.8914 16.7612 23.1165 16.7294 23.2134 16.7867C23.375 16.8822 23.3785 17.2648 23.3217 17.4185C23.2497 17.613 23.0009 17.6758 22.8162 17.667C22.5649 17.6551 22.5111 17.3518 22.5177 17.1463C22.5258 16.8949 22.7087 16.5859 22.9634 16.5187C23.0739 16.4895 23.2509 16.4658 23.3634 16.5048C23.5547 16.571 23.5133 16.7973 23.5133 16.9561C23.5133 17.4324 23.1689 17.8517 22.6885 17.9128C22.4741 17.9401 22.421 17.7009 22.4149 17.5421C22.4052 17.2888 22.472 17.0974 22.5635 16.8686" stroke="black" stroke-width="1.03954" stroke-linecap="round"/>
<path d="M16.7899 15.4941C16.7899 14.6217 16.8637 13.7838 16.3427 13.0279C16.0033 12.5355 15.5569 12.0224 15.0041 11.7699C14.5206 11.549 13.9335 11.4507 13.4017 11.4449C13.2795 11.4436 13.1572 11.4449 13.0351 11.4449C12.7336 11.4449 12.5509 11.8172 12.4157 12.0393C12.2278 12.348 12.1638 12.6439 12.1658 13.0057C12.1699 13.7641 12.3827 14.5517 12.7559 15.2136C13.2799 16.1429 14.4127 16.6387 15.4262 16.755C15.7404 16.791 16.1205 16.7409 16.3275 16.4925C16.459 16.3347 16.4216 16.1237 16.4788 15.944C16.5284 15.7881 16.5338 15.6422 16.5413 15.4802C16.5505 15.2831 16.5899 15.0929 16.5899 14.8942" stroke="black" stroke-width="1.03954" stroke-linecap="round"/>
<path d="M16.1399 13.8943C15.9184 14.0651 15.7401 14.2817 15.5011 14.4317C15.2615 14.5822 14.9997 14.6686 14.7235 14.7247C14.3423 14.8021 13.7938 14.7769 13.6904 14.2998C13.4751 13.3071 14.9346 12.8993 15.6594 12.8945C15.9092 12.8929 16.2608 12.8694 16.2871 13.1972C16.323 13.6466 16.0745 13.9975 15.7538 14.2901C15.4546 14.563 15.0656 14.6821 14.6652 14.7136C14.4709 14.7289 14.1665 14.7601 14.1056 14.5164C14.0314 14.22 14.3989 13.8637 14.6013 13.6999C14.8437 13.5037 15.0997 13.3616 15.415 13.3458C15.4765 13.3427 15.74 13.3056 15.74 13.4139C15.74 13.5664 15.4233 13.6671 15.3164 13.718C15.1246 13.8093 14.9273 13.8723 14.7318 13.9499C14.6597 13.9785 14.5671 14.0443 14.4902 14.0443" stroke="black" stroke-width="1.03954" stroke-linecap="round"/>
<path d="M14.4655 19.693C14.7032 19.5483 14.9332 19.4144 15.1986 19.3223C15.6399 19.1691 16.1059 19.17 16.5678 19.1681C17.0103 19.1664 17.434 19.1747 17.8412 19.3737C18.2433 19.5701 18.6222 19.9261 18.8604 20.304C18.9023 20.3706 19.1663 20.7161 19.0979 20.8095C18.8068 21.2064 18.587 21.6166 18.1508 21.8898C17.8287 22.0916 17.4156 22.1484 17.0441 22.1786C16.6138 22.2137 16.1715 22.2395 15.7402 22.2064C15.1063 22.1578 14.5077 21.9343 14.0669 21.4677C13.8359 21.223 13.8141 20.8398 13.8434 20.5179C13.8637 20.2941 14.022 20.1236 14.0905 19.918" stroke="black" stroke-width="1.03954" stroke-linecap="round"/>
<path d="M16.3896 19.6684C16.5881 19.6684 16.5396 20.3606 16.5396 20.471C16.5396 20.7253 16.5703 21.2213 16.2591 21.343C16.0664 21.4184 15.9526 21.2488 15.8786 21.0931C15.7093 20.7369 15.6006 20.3103 15.6439 19.9128C15.6904 19.4864 16.4025 19.4337 16.6729 19.6489C16.8458 19.7865 16.9365 20.0434 16.9645 20.2544C16.9971 20.4995 17.028 20.805 16.9742 21.05C16.9383 21.2137 16.7647 21.2554 16.6146 21.2347C16.2657 21.1866 16.0965 20.7396 16.0452 20.4432C16.0003 20.1833 15.9741 19.6434 16.3646 19.6434C16.6859 19.6434 16.704 20.086 16.7145 20.3182" stroke="black" stroke-width="1.03954" stroke-linecap="round"/>
<path d="M10.291 19.4434C10.4592 19.4434 10.6429 19.4218 10.8048 19.474C11.106 19.571 11.3624 19.9466 11.538 20.1905C11.9955 20.826 12.132 21.5538 12.1157 22.3289C12.1066 22.7565 11.8832 23.1209 11.6935 23.4898C11.6517 23.5712 11.543 23.8549 11.5672 23.6259C11.5758 23.5441 11.5856 23.4635 11.5921 23.3815C11.5945 23.3525 11.6177 23.2272 11.6158 23.3287C11.6104 23.6012 11.4639 23.9336 11.3047 24.1508C11.2165 24.2711 11.1439 24.1724 11.0353 24.0855C10.7199 23.8332 10.4935 23.5215 10.2355 23.2177C9.87574 22.7941 9.51287 22.3995 9.4037 21.8415C9.30394 21.3317 9.28613 20.7733 9.49118 20.2877C9.54309 20.1647 9.61279 20.0368 9.67864 19.9197C9.71625 19.8528 9.79112 19.7708 9.79112 19.6934" stroke="black" stroke-width="1.03954" stroke-linecap="round"/>
<path d="M11.6409 21.4428C11.5179 21.4428 11.3887 21.5976 11.2923 21.665C11.1977 21.7313 11.0017 21.6928 10.891 21.6928C10.6788 21.6928 10.485 21.5754 10.5466 21.3234C10.6021 21.0966 11.1552 20.8116 11.3784 20.9318C11.5433 21.0206 11.5159 21.1767 11.5159 21.3373C11.5159 21.5525 11.3453 21.8716 11.1146 21.9177C10.938 21.953 10.6581 22.0568 10.5716 21.8233C10.3726 21.286 11.1248 20.7848 11.5909 21.0179" stroke="black" stroke-width="1.03954" stroke-linecap="round"/>
<path d="M14.4904 26.6167C14.4904 26.3687 14.6581 26.1661 14.8278 25.9919C15.1333 25.6782 15.687 25.5728 16.1067 25.5475C16.768 25.5077 17.4539 25.5762 18.0091 25.9669C18.46 26.2842 18.021 26.9836 17.8355 27.3083C17.3036 28.2391 16.0503 28.8564 15.118 28.1053C14.7526 27.811 14.6311 27.3389 14.4904 26.9167" stroke="black" stroke-width="1.03954" stroke-linecap="round"/>
<path d="M16.215 26.2168C16.2854 26.3664 16.24 26.6063 16.24 26.7653C16.24 26.7994 16.2573 27.267 16.165 27.1055C16.0599 26.9215 15.9923 26.7521 15.9456 26.5417C15.9229 26.4398 15.9039 26.164 16.015 26.3806C16.1207 26.5867 16.1766 26.8294 16.29 27.0277C16.3306 27.0988 16.4793 27.0772 16.5274 27.0291C16.6418 26.9147 16.8267 26.179 16.5649 26.0918" stroke="black" stroke-width="1.03954" stroke-linecap="round"/>
<path d="M25.5382 11.5449C25.5275 11.6404 25.3927 11.7641 25.3354 11.8324C25.2094 11.9827 25.0123 12.2096 24.8341 12.2934C24.5929 12.4069 24.3354 12.4672 24.0732 12.5072C23.8163 12.5464 23.4844 12.6094 23.2511 12.4711C22.8986 12.2622 22.6539 11.9314 22.3943 11.6199C22.232 11.4251 22.024 11.0944 22.1333 10.8395C22.2226 10.6311 22.3132 10.3985 22.4763 10.2355C22.6783 10.0334 22.947 9.93509 23.2122 9.84667C23.818 9.64475 24.521 9.65498 25.098 9.93277C25.581 10.1654 25.5631 10.7233 25.5631 11.17" stroke="black" stroke-width="1.03954" stroke-linecap="round"/>
<path d="M24.2635 10.4448C24.2635 10.6422 24.3202 10.9402 24.219 11.1142C24.1328 11.2624 23.9762 11.2783 23.833 11.1891C23.4673 10.9616 23.5886 10.418 23.5886 10.0449" stroke="black" stroke-width="1.03954" stroke-linecap="round"/>
<path d="M17.4115 10.2744C17.4688 10.2744 17.8253 10.2744 17.689 10.2744C17.5887 10.2744 17.2979 10.2614 17.2979 10.1041C17.2979 10.0398 17.516 10.0698 17.5553 10.0751C17.7486 10.1009 17.7377 10.3169 17.5931 10.4056C17.5052 10.4597 17.2671 10.5134 17.2424 10.3653C17.2186 10.2223 17.8255 10.2709 17.9187 10.2757C18.0148 10.2806 18.0701 10.2979 18.0701 10.4006C18.0701 10.6636 17.4432 10.6111 17.3004 10.5659C16.9097 10.442 16.5855 10.0759 16.45 9.69405C16.3973 9.54535 16.3913 9.38369 16.3617 9.22974C16.3191 9.00731 16.2552 8.78997 16.1674 8.58123C16.1169 8.46101 15.8994 8.00389 16.1775 8.30618C16.5857 8.7498 16.8246 9.29902 17.0885 9.83283C17.0919 9.83972 17.1566 9.98593 17.1692 9.98171C17.1758 9.97953 16.8965 9.44753 16.8841 9.42404C16.7419 9.15457 16.5827 8.88949 16.4601 8.61025C16.4002 8.47376 16.4817 8.50615 16.5686 8.5888C16.8901 8.89444 17.0947 9.3539 17.2689 9.75209C17.4657 10.202 17.6358 10.6747 17.7559 11.1513C17.7581 11.16 17.8386 11.4999 17.8102 11.4869C17.7376 11.4539 17.6675 11.3465 17.6234 11.2888C17.4974 11.1241 17.3844 10.9493 17.2777 10.7715C16.9447 10.2166 16.6937 9.6144 16.4349 9.02282C16.4232 8.99618 16.1972 8.63025 16.1901 8.64431C16.1723 8.68006 16.189 8.78808 16.1914 8.81212C16.2128 9.02367 16.2611 9.23126 16.3037 9.43918C16.4167 9.99126 16.5068 10.548 16.6216 11.0996C16.6491 11.2316 16.6751 11.3639 16.7024 11.4958C16.7262 11.6107 16.4738 11.4328 16.3718 11.3746C15.9452 11.1313 15.5347 10.854 15.1303 10.576C14.935 10.4417 14.7406 10.3051 14.5524 10.1609C14.5347 10.1473 14.4022 10.0607 14.391 10.0196C14.3793 9.97696 14.4783 10.039 14.5171 10.0599C14.6692 10.142 14.8131 10.2424 14.9562 10.3388C15.3078 10.5756 15.6546 10.8223 15.9946 11.0756C16.1061 11.1587 16.3225 11.2756 16.3971 11.3999C16.4383 11.4686 16.2515 11.3327 16.18 11.2964C15.9235 11.1659 15.6652 11.0392 15.4066 10.9128C15.0251 10.7264 14.6329 10.5511 14.266 10.3363C14.2434 10.323 14.1322 10.2716 14.1159 10.2391C14.0817 10.1708 14.2606 10.2888 14.3304 10.3199C14.7109 10.4893 15.1408 10.7099 15.4659 10.9785C15.6062 11.0944 15.11 10.9005 14.936 10.8472C14.6265 10.7525 14.3289 10.6436 14.0276 10.5268C13.8771 10.4684 14.0383 10.5014 14.1058 10.5116C14.2513 10.5336 14.3996 10.5796 14.5348 10.6378C14.5414 10.6407 14.6808 10.6964 14.6231 10.7009C14.1418 10.7379 13.6139 10.63 13.1444 10.5394C12.9056 10.4933 12.669 10.4295 12.4404 10.3463C12.2902 10.2917 12.3864 10.3 12.4795 10.3363C12.6575 10.4057 12.8316 10.4855 13.0094 10.5558C13.0452 10.57 13.1709 10.6037 13.1835 10.6479C13.1886 10.6657 13.1478 10.6614 13.1293 10.6605C13.011 10.6551 12.896 10.6261 12.7823 10.5949C12.3567 10.478 11.9313 10.3442 11.5155 10.1962C11.3266 10.1289 11.129 10.0616 10.949 9.97162C10.8663 9.93028 11.1197 10.0431 11.2026 10.0839C11.4373 10.1994 11.6702 10.3254 11.9104 10.4284C12.0876 10.5043 11.5542 10.2794 11.3856 10.1861C11.0655 10.009 10.732 9.82543 10.4772 9.55778C10.2919 9.36323 10.2218 9.17671 10.5201 9.0632C10.9905 8.8842 11.4054 9.25304 11.4916 9.70162C11.5112 9.80381 11.5375 9.9822 11.4512 10.0637C11.2365 10.2665 10.9352 10.0113 10.814 9.8404C10.4992 9.39652 10.5352 8.75336 10.5352 8.23426C10.5352 8.08355 10.5141 7.74434 10.6084 7.60972C10.6349 7.57176 10.6196 7.70232 10.6159 7.74851C10.6025 7.91838 10.5644 8.08098 10.5125 8.24309C10.3981 8.60035 10.2476 8.96949 10.0494 9.28904C10.0158 9.34325 9.89434 9.54027 9.85136 9.38367C9.77295 9.09805 9.82299 8.73012 9.87407 8.44496C9.91272 8.22914 9.95623 8.00329 10.0305 7.79645C10.0358 7.78186 10.1366 7.58449 10.139 7.5971C10.1914 7.86672 9.98314 8.24374 9.87659 8.47272C9.73767 8.77126 9.56661 9.05184 9.40976 9.34077C9.40159 9.35582 9.39344 9.37088 9.38579 9.38619C9.37366 9.41045 9.41302 9.33927 9.42616 9.31554C9.5113 9.16182 9.59055 9.00562 9.66462 8.84618C9.89413 8.35222 10.0817 7.84541 10.2753 7.33719C10.3117 7.24173 10.3477 7.14684 10.3787 7.04952C10.3871 7.02332 10.3974 6.95024 10.4115 6.97382C10.4308 7.0059 10.4166 7.14586 10.4166 7.16434C10.4166 7.37782 10.4137 7.59079 10.4015 7.80402C10.3821 8.14226 10.3463 8.47862 10.3043 8.81464C10.3036 8.81996 10.2513 9.17099 10.3018 9.02913C10.5925 8.21234 10.7953 7.36724 11.0916 6.55241C11.174 6.32576 11.1402 6.70364 11.1396 6.75807C11.132 7.39247 11.0504 8.02109 10.9288 8.64305C10.888 8.85213 10.8392 9.05924 10.7951 9.26759C10.7778 9.34941 10.7716 9.45129 10.7358 9.52876C10.7198 9.56352 10.7107 9.45473 10.7118 9.41647C10.7195 9.16673 10.7643 8.91837 10.809 8.67333C10.8908 8.22498 10.9939 7.78259 11.1105 7.34224C11.1506 7.19113 11.1787 7.03013 11.2518 6.89055C11.2705 6.85488 11.2802 6.87986 11.2846 6.91074C11.3178 7.13898 11.3062 7.38023 11.2973 7.60972C11.2861 7.89502 11.2562 8.18307 11.1837 8.4601C11.1366 8.64025 11.1185 8.50421 11.1206 8.39702C11.129 7.97528 11.1991 7.53648 11.3755 7.15046C11.4787 6.92465 11.6453 6.6597 11.9332 6.71644C12.2917 6.78711 12.4327 7.13126 12.5363 7.44191C12.6961 7.92151 12.7681 8.41846 12.7533 8.92315C12.7481 9.09848 12.7514 9.33385 12.5817 9.44045C12.4223 9.54053 12.262 9.45117 12.1489 9.32689C11.7962 8.93937 11.4648 8.14916 11.8625 7.68164C11.9688 7.55664 12.1201 7.44576 12.289 7.43939C12.4947 7.43162 12.5024 7.60133 12.5148 7.77248C12.5365 8.07183 12.5319 8.38294 12.4429 8.67207C12.4014 8.80681 12.3304 8.98566 12.188 9.04301C11.7544 9.21768 11.8396 7.72122 11.9382 7.51888C12.061 7.26698 12.3031 6.94318 12.6195 6.96373C12.9113 6.98268 13.1458 7.27058 13.2857 7.49869C13.4508 7.76794 13.5534 8.08345 13.586 8.39702C13.5986 8.51791 13.6388 8.76417 13.4623 8.80076C13.1498 8.86558 12.8186 8.35247 12.7116 8.12954C12.5771 7.84924 12.4359 7.32303 12.6069 7.02934C12.7817 6.72924 13.1936 6.88928 13.4169 7.02681C13.8737 7.30812 14.1475 7.86694 14.3481 8.34529C14.468 8.6312 14.5399 8.94717 14.5487 9.2575C14.5503 9.31395 14.5916 9.5335 14.4742 9.44171C14.3088 9.31239 14.1798 9.10696 14.0654 8.93703C13.827 8.58274 13.6133 8.2121 13.4169 7.83304C13.2975 7.60246 13.1778 7.36685 13.1166 7.11261C13.0917 7.00907 13.0058 6.73991 13.1053 6.64578C13.1772 6.57771 13.332 6.64999 13.3854 6.67228C13.7061 6.80608 13.9872 7.04103 14.2395 7.27411C14.9896 7.96682 15.6124 8.80303 16.1674 9.6562C16.3554 9.94516 16.5446 10.2414 16.71 10.5444C16.765 10.6453 16.7613 10.6645 16.6671 10.5848C16.1391 10.1384 15.6569 9.6366 15.2489 9.07834C15.2268 9.04812 15.0706 8.81909 15.1 8.85502C15.2834 9.07913 15.4459 9.32285 15.5706 9.58428C15.6535 9.75806 15.7285 9.93629 15.799 10.1155C15.8257 10.1833 15.8825 10.3159 15.7637 10.2164C15.3439 9.86468 14.9593 9.44438 14.6029 9.03039C14.3809 8.77245 14.0711 8.46371 13.9519 8.13206C13.9038 7.99822 14.3215 8.15662 14.343 8.16487C14.6434 8.28029 14.9401 8.41911 15.2262 8.56609C15.2559 8.58137 15.5165 8.76014 15.5391 8.67207C15.603 8.4236 15.5199 8.09965 15.4533 7.86206C15.3955 7.65583 15.3244 7.4504 15.2224 7.26149C15.1875 7.19679 15.0915 7.10274 15.2249 7.15551C15.4151 7.23069 15.6002 7.33699 15.775 7.44191C15.861 7.49351 15.9745 7.54389 16.0526 7.60467C16.3662 7.84858 15.3993 7.1519 15.0836 6.91074C14.8117 6.70305 14.5257 6.539 14.203 6.42372C13.9745 6.34213 13.7472 6.25961 13.5204 6.1739C13.419 6.13561 13.2694 6.16381 13.1646 6.16381C12.9428 6.16381 12.728 6.20923 12.506 6.20923C12.3697 6.20923 12.2334 6.20923 12.0972 6.20923C11.7799 6.20923 11.4604 6.28297 11.1888 6.44895C11.0754 6.51824 10.9924 6.66111 10.9162 6.7669C10.7614 6.9819 10.78 7.27424 10.8935 7.50374C11.1114 7.94409 11.4229 8.43005 11.8676 8.6645C12.2282 8.85468 12.6485 8.88275 13.0107 9.07077C13.2798 9.21053 13.5321 9.35057 13.7778 9.53003C13.8155 9.55756 14.1157 9.79479 13.9443 9.79751C13.3848 9.80639 12.6301 9.64801 12.2915 10.2202C12.0596 10.612 11.929 11.1105 11.8133 11.5475C11.6943 11.9972 11.5675 12.4423 11.4411 12.8899C11.3985 13.0408 11.3337 13.2296 11.325 13.3858C11.3232 13.4192 11.361 13.3287 11.373 13.2975C11.5204 12.9133 11.7503 12.589 12.0063 12.2679C12.3349 11.856 12.7111 11.5203 13.1696 11.2686C13.3484 11.1705 13.4829 11.0282 13.6365 10.8977C13.6796 10.861 13.7212 10.8349 13.7752 10.8195C13.8308 10.8036 13.5907 10.7859 13.5835 10.7854C12.9351 10.7449 12.2566 10.8507 11.7931 11.3507C11.3735 11.8032 11.2042 12.4839 11.0449 13.0678C11.0435 13.073 11.0105 13.2446 10.9717 13.1953C10.9328 13.1457 10.9301 13.0384 10.9263 12.9846C10.9088 12.7368 10.9129 12.4842 10.9225 12.2364C10.9495 11.5403 11.1214 10.8728 11.3048 10.2038C11.3857 9.90882 11.4595 9.55626 11.6203 9.2903C11.6433 9.25225 11.69 9.18712 11.7338 9.16666C11.7429 9.16243 11.7316 9.18727 11.7262 9.19568C11.6614 9.29658 11.6076 9.40346 11.5572 9.51236C10.9968 10.7235 10.6611 12.0159 10.2172 13.2697C10.1845 13.3622 10.1507 13.5734 10.0759 13.6482C10.0753 13.6489 10.0622 13.1098 10.0633 13.088C10.0993 12.3679 10.224 11.6563 10.3232 10.9431C10.405 10.3557 10.4672 9.763 10.5655 9.17801C10.568 9.16297 10.6307 8.73768 10.6551 8.73768C10.6869 8.73768 10.6565 9.28862 10.6563 9.2903C10.596 10.0438 10.422 10.796 10.2917 11.5399C10.1939 12.0983 10.0969 12.6577 9.98888 13.2142C9.9817 13.2512 9.96745 13.4841 9.9157 13.5056C9.82599 13.543 9.77465 12.6639 9.77439 12.6578C9.73938 11.8174 9.75094 10.9714 9.76304 10.1306C9.7699 9.65357 9.8196 9.17874 9.82612 8.70235C9.82613 8.70184 9.82612 8.49426 9.82612 8.59132C9.82612 8.78281 9.78954 8.96198 9.74537 9.14899C9.4332 10.4707 9.14357 11.7851 8.93536 13.1284C8.92351 13.2049 8.93199 13.4587 8.86723 13.517C8.80021 13.5773 8.82645 13.3397 8.82685 13.2495C8.83053 12.4262 8.97734 11.6077 9.12083 10.7993C9.15807 10.5895 9.21409 10.3864 9.25709 10.1785C9.26969 10.1177 9.29606 10.0995 9.31639 10.1735C9.41243 10.5227 9.46245 10.8924 9.52331 11.2485C9.64904 11.9841 9.75588 12.7224 9.85893 13.4615C9.9082 13.8149 9.96612 14.167 10.0179 14.52C10.025 14.5681 10.0274 14.7196 10.0759 14.756C10.1164 14.7864 10.5588 13.0432 10.9566 14.0292C11.1767 14.5747 11.2408 15.1791 11.3679 15.7502C11.4078 15.9293 11.4195 16.1934 11.5244 16.3508C11.5466 16.3841 11.5914 16.3969 11.6253 16.3684C11.6856 16.3177 11.7059 16.2144 11.7225 16.1451C11.7706 15.9435 11.7959 15.7347 11.8095 15.5281C11.8526 14.8721 11.7637 14.202 11.8259 13.5485C11.8405 13.395 11.9121 13.8447 11.9508 13.9939C12.0489 14.3721 12.1002 14.7514 12.1413 15.1395C12.1683 15.3935 12.1804 15.6498 12.2322 15.9003C12.2417 15.9462 12.2763 16.0259 12.2763 16.0732C12.2763 16.1119 12.2313 16.0101 12.2107 15.9773C12.0808 15.7704 11.9612 15.5583 11.8461 15.3427C11.4629 14.6246 11.1091 13.8913 10.7737 13.1498C10.6943 12.9745 10.7086 13.0052 10.6387 12.8546C10.6141 12.8017 10.578 12.6447 10.5579 12.6994C10.5279 12.7812 10.5771 13.0214 10.5844 13.0817C10.6249 13.4154 10.6885 13.7448 10.7522 14.0747C10.8739 14.7043 10.9844 15.3318 10.9844 15.9748C10.9844 16.0801 10.8201 15.9764 10.78 15.947C10.5989 15.8144 10.5414 15.5337 10.3939 15.3616" stroke="black" stroke-width="1.03954" stroke-linecap="round"/>
<path d="M10.3939 15.3613C10.3939 15.6919 10.3939 16.0224 10.3939 16.353C10.3939 16.6011 10.3939 16.8493 10.3939 17.0974C10.3939 17.1897 10.4239 17.3436 10.3914 17.433C10.3726 17.4848 10.3039 17.3643 10.2703 17.3207C10.0456 17.0294 9.85387 16.712 9.67982 16.3883C9.34201 15.7602 9.01593 15.071 8.85341 14.3721C8.83398 14.2886 8.821 14.2031 8.79537 14.1211C8.7921 14.1106 8.87189 14.2605 8.88243 14.2838C9.11316 14.7954 9.18453 15.3742 9.25589 15.9253C9.27839 16.099 9.29938 16.2731 9.31393 16.4476C9.32668 16.6006 9.32977 16.7542 9.3215 16.4792C9.29467 15.5872 9.31394 14.6953 9.30258 13.8031C9.30064 13.6513 9.27409 13.4891 9.28491 13.3375C9.28728 13.3044 9.37336 13.5497 9.37575 13.5571C9.5818 14.1873 9.77939 14.8238 9.93973 15.4673C10.0853 16.0516 10.2441 16.5999 10.2678 17.2059C10.2688 17.2311 10.2965 18.0433 10.2476 18.0311C10.152 18.0072 10.1048 17.7328 10.0886 17.6727C9.97009 17.2327 9.91317 16.7811 9.86403 16.329C9.85142 16.213 9.833 16.0963 9.82744 15.9795C9.82527 15.9339 9.82177 15.8435 9.83123 15.9518C9.88376 16.5529 9.87712 17.1581 9.87034 17.7611C9.8666 18.0937 9.8801 18.5249 9.73534 18.8386C9.71369 18.8855 9.66752 18.8857 9.63945 18.8486C9.47182 18.6271 9.45448 18.3018 9.43127 18.0361C9.42698 17.987 9.37036 17.4532 9.42748 17.433C9.49672 17.4086 9.50823 18.2859 9.50823 18.3528C9.50823 18.3914 9.54679 18.9858 9.46281 18.99C9.30831 18.9977 9.26094 17.3845 9.26094 17.2021C9.26094 17.1566 9.25015 16.4461 9.37702 16.5069C9.47271 16.5528 9.54906 16.6845 9.60412 16.7668C9.80418 17.0662 9.93316 17.3979 10.052 17.7358C10.1847 18.1129 10.2784 18.5364 10.4621 18.8941C10.4918 18.9519 10.4848 18.8377 10.4848 18.836C10.4876 18.4786 10.4848 18.121 10.4848 17.7636C10.4848 17.5255 10.4848 17.2875 10.4848 17.0495C10.4848 17.0326 10.4621 16.7869 10.4949 16.7744C10.5454 16.7552 10.6378 16.8914 10.6539 16.9132C10.8157 17.133 10.9371 17.3892 11.0261 17.6462C11.1699 18.0623 11.2638 18.515 11.2569 18.9572C11.2561 19.0102 11.2623 19.1231 11.1737 19.0985C10.9686 19.0413 10.8858 18.7257 10.8418 18.5547C10.7475 18.1878 10.7262 17.805 10.7157 17.428C10.7079 17.1462 10.7106 16.8835 10.7926 16.6129C10.861 16.3873 10.9512 16.2515 11.0891 16.5435C11.3273 17.0479 11.3678 17.6409 11.4828 18.1812C11.5204 18.3578 11.5514 18.5377 11.5976 18.7124C11.6151 18.7785 11.663 18.8526 11.6657 18.9218C11.6679 18.9757 11.6187 18.8244 11.6027 18.7729C11.4405 18.2526 11.344 17.7195 11.2973 17.1769C11.2765 16.9343 11.2627 16.6899 11.2582 16.4464C11.2568 16.3701 11.2221 16.1685 11.2797 16.0981C11.3812 15.974 11.728 16.8517 11.7326 16.8653C12.049 17.7843 12.1476 18.7801 12.183 19.747C12.1881 19.8849 12.1881 20.0228 12.1881 20.1608C12.1881 20.1743 12.1913 20.2142 12.1881 20.2012C12.1774 20.1583 12.1784 20.096 12.1729 20.0548C12.0593 19.1977 11.7991 18.3597 11.6355 17.5112C11.542 17.0263 11.4386 16.5146 11.4386 16.0174C11.4386 15.9954 11.4303 15.906 11.4765 15.9543C11.6055 16.0891 11.6817 16.2983 11.7604 16.4628C12.0766 17.1239 12.2381 17.8093 12.2966 18.5383C12.3332 18.9948 12.323 19.4785 12.4265 19.9274C12.4313 19.948 12.4554 20.0343 12.472 19.9627C12.533 19.6984 12.5179 19.3974 12.5237 19.1287C12.5393 18.4039 12.5484 17.6794 12.453 16.9599C12.4485 16.9259 12.4187 16.8049 12.4404 16.7668C12.4405 16.7667 12.5774 16.9299 12.5843 16.9384C12.7954 17.2006 12.9108 17.5113 13.0826 17.7977C13.0947 17.8177 13.1848 17.9615 13.1848 17.9528C13.1848 17.6509 13.0319 17.3222 12.9375 17.0419C12.8969 16.921 12.8542 16.8017 12.8063 16.6836C12.795 16.6556 12.7706 16.61 12.7798 16.5776C12.7871 16.5521 13.1805 16.9001 13.1949 16.9132C13.3998 17.099 13.5844 17.3028 13.7753 17.5024C13.8472 17.5776 13.8983 17.5444 13.8535 17.4456C13.7603 17.2399 13.5299 17.0902 13.3514 16.9662C13.1682 16.839 13.3484 16.9474 13.4498 16.994C13.9113 17.206 14.3918 17.4507 14.9083 17.4507C15.1909 17.4507 15.4649 17.3886 15.7486 17.3826C16.1092 17.3749 16.46 17.2236 16.821 17.2236" stroke="black" stroke-width="1.03954" stroke-linecap="round"/>
<path d="M16.9117 17.7914C16.9117 17.4297 16.9117 18.5148 16.9117 18.8765C16.9117 19.0177 16.7816 18.8166 16.7641 18.7781C16.7274 18.6975 16.7527 18.5655 16.7527 18.4803C16.7527 18.2946 16.7642 18.1139 16.8095 17.9327C16.8383 17.8173 16.8539 17.6098 17.0139 17.6098C17.0505 17.6098 17.123 17.5955 17.1489 17.6262C17.2489 17.7444 17.1312 17.9643 17.0707 18.069C16.9101 18.3466 16.5079 18.6999 16.1572 18.6999C15.8926 18.6999 15.9183 18.1657 15.9402 17.9958C15.9445 17.9625 15.9686 17.8088 16.0373 17.8394C16.1113 17.8723 16.0681 18.1059 16.0512 18.1548C15.9406 18.4743 15.5821 18.6367 15.2689 18.6746C15.03 18.7036 15.0494 18.5469 15.0494 18.3554C15.0494 18.31 15.0154 18.0805 15.0545 18.0463C15.0721 18.0308 15.0717 18.091 15.0721 18.1144C15.0735 18.1966 15.0767 18.2811 15.0696 18.363C15.0402 18.7015 14.7304 18.88 14.4135 18.8008C14.1766 18.7416 14.0992 18.5049 14.0956 18.286C14.093 18.1296 14.0956 18.1399 14.1296 18.2911C14.1669 18.4568 14.1796 18.639 14.1587 18.8084C14.1295 19.0447 13.8091 19.2386 13.5783 19.1667C13.4136 19.1154 13.3563 18.848 13.336 18.7062C13.3265 18.6397 13.235 18.2014 13.3285 18.1599C13.4172 18.1204 13.5878 18.1548 13.6817 18.1548C13.8505 18.1548 14.0426 18.1295 14.2079 18.1687C14.3228 18.1959 14.4294 18.2572 14.5447 18.286C14.6232 18.3056 14.4604 18.1143 14.4552 18.1094C14.3378 17.9989 14.1414 17.8575 13.9694 17.8873C13.7655 17.9227 13.616 18.3518 13.553 18.5182C13.4017 18.9181 13.4803 19.3518 13.4584 19.7685C13.4496 19.9362 13.3709 20.0927 13.3108 20.2467C13.2246 20.4673 13.1384 20.6855 13.0635 20.9104C13.0002 21.1002 12.9606 21.2747 12.9247 21.4693C12.9178 21.5069 12.8714 21.771 12.8692 21.6194C12.8657 21.3781 12.8332 21.1367 12.825 20.8952C12.8205 20.7604 12.8587 20.5669 12.7733 20.4486C12.7026 20.3507 12.7081 20.4627 12.7115 20.5205C12.7265 20.776 12.7762 21.0336 12.8011 21.2889C12.8723 22.0197 13.0508 22.7229 13.0029 23.464C13.0003 23.5042 12.9736 23.7817 12.8919 23.7769C12.8167 23.7725 12.9013 23.1893 12.9058 23.1587C12.9797 22.649 13.0647 22.14 13.1871 21.6396C13.1932 21.6149 13.2174 21.3436 13.2906 21.3835C13.4589 21.4753 13.5475 21.8185 13.606 21.9828C13.7325 22.3378 13.859 22.7081 13.9227 23.0805C13.9503 23.242 14.0159 23.5211 13.9202 23.671C13.7997 23.8596 13.5011 23.8706 13.3057 23.8451C12.914 23.7938 12.7366 23.467 12.7014 23.107C12.692 23.011 12.6344 22.7012 12.7556 22.6338C12.8329 22.5909 12.8728 22.8069 12.878 22.8408C12.9487 23.2962 12.7138 23.7529 12.5058 24.1403C12.3331 24.462 12.1413 24.8018 11.7791 24.9226" stroke="black" stroke-width="1.03954" stroke-linecap="round"/>
<path d="M10.0534 24.0595C10.0572 24.0326 10.1427 24.2593 10.148 24.274C10.2681 24.602 10.3433 24.9412 10.4117 25.2833C10.5227 25.8382 10.6728 26.3742 10.7461 26.9361C10.8552 27.7724 10.9638 28.6052 11.0249 29.4469C11.0738 30.1211 11.0764 30.8189 11.199 31.4846C11.2292 31.6481 11.2282 31.8206 11.2684 31.9817C11.2925 32.0781 11.3952 32.0061 11.4615 31.9905C11.5399 31.9721 11.5758 32.0091 11.6204 32.0649C11.628 32.0744 11.6335 32.043 11.6331 32.0309C11.6267 31.8484 11.5779 31.6637 11.5422 31.4858C11.3925 30.7395 11.2827 29.9934 11.194 29.2375C11.1107 28.5281 11.0764 27.8223 10.9442 27.1203C10.8758 26.7577 10.8764 26.3793 10.8155 26.0138C10.7797 25.7993 10.7616 25.5497 10.7574 25.3313C10.7547 25.1871 10.7371 25.0216 10.7688 24.8821C10.8097 24.7022 11.0565 25.0022 11.0855 25.0385C11.5197 25.5834 11.7492 26.2365 11.8349 26.9223C11.9781 28.0673 11.9322 29.2346 12.086 30.3793C12.1277 30.6894 12.2221 30.9781 12.2904 31.2814C12.3075 31.3576 12.3276 31.7241 12.4153 31.4707C12.5361 31.1216 12.578 30.7223 12.6058 30.3566C12.6444 29.8497 12.657 29.3345 12.6399 28.8262C12.6175 28.1614 12.4377 27.5092 12.3472 26.8529C12.2606 26.2248 11.8987 25.5512 12.1377 24.9225C12.243 24.6456 12.4145 24.4617 12.621 24.2512C12.7332 24.1369 12.8505 24.0317 12.9553 23.9106C12.9947 23.865 13.0505 23.8121 13.1143 23.8096C13.3043 23.8023 13.1424 24.3191 13.1193 24.4127C13.0028 24.8855 12.7333 25.3582 12.7333 25.8536C12.7333 26.2948 12.7552 26.7302 12.7736 27.1708C12.8012 27.8305 12.7787 28.4952 12.7787 29.1555C12.7787 29.5201 12.756 29.8842 12.756 30.2494C12.756 30.3491 12.7112 30.5679 12.7686 30.6582C12.8422 30.7739 12.7176 31.0255 12.896 31.0076C13.1409 30.9832 13.4317 30.7476 13.5975 30.585C13.7656 30.4201 13.9208 30.2345 14.0732 30.0551C14.1795 29.9298 14.307 29.8198 14.4088 29.6917C14.4987 29.5786 14.597 29.5344 14.7217 29.4646C14.8528 29.3911 14.9825 29.2473 15.1229 29.1971C15.2183 29.163 15.3133 29.1693 15.4131 29.1693C15.4659 29.1693 15.499 29.1696 15.4434 29.2173C15.3308 29.3138 15.2286 29.4097 15.0989 29.4848C14.7901 29.6636 14.4779 29.8037 14.1817 30.0096C14.007 30.1311 13.828 30.2583 13.6341 30.3478C13.4142 30.4493 13.7192 30.2703 13.7716 30.233C14.3115 29.8484 14.8426 29.4401 15.4219 29.1151C15.5595 29.0379 15.6967 29.035 15.8396 28.9927C15.8819 28.9802 15.9251 28.9836 15.967 28.965C15.971 28.9632 15.7137 28.935 15.6692 28.9309C15.3805 28.9042 15.1874 28.7936 14.9538 28.6369C14.4783 28.3178 14.122 27.7582 13.9546 27.2238C13.8561 26.9094 13.8461 26.5977 13.8461 26.2712C13.8461 26.0599 13.8307 25.8405 13.8965 25.6366C13.9537 25.4597 14.0211 25.2796 14.0959 25.1092C14.1711 24.938 14.2132 24.7468 14.3003 24.5818C14.3229 24.5389 14.3681 24.4938 14.4025 24.4594C14.4396 24.4224 14.4574 24.4497 14.3646 24.4443C14.2384 24.4369 14.1256 24.3821 14.0025 24.3597C13.8876 24.3388 13.894 24.4571 13.8637 24.5465C13.6638 25.1369 13.4821 25.7404 13.3704 26.3545C13.1981 27.3025 13.1085 28.4069 13.6959 29.2337C13.8091 29.3929 13.9466 29.5047 14.1186 29.5958C14.1322 29.603 14.1321 29.6038 14.1249 29.5895C14.0777 29.4951 14.0491 29.3913 14.0151 29.2917C13.9224 29.0198 13.836 28.746 13.7325 28.4779C13.6324 28.2184 13.4964 27.9778 13.3931 27.7197C13.3581 27.6321 13.3964 27.6424 13.4423 27.7083C13.6322 27.9807 13.7818 28.2983 13.942 28.589C14.0751 28.8306 14.2281 29.0629 14.3444 29.3132C14.38 29.3896 14.4229 29.4518 14.4946 29.4974C14.518 29.5123 14.5673 29.531 14.5955 29.5327C14.6943 29.5389 14.3993 29.5681 14.3079 29.6059C13.9114 29.7698 13.548 30.0174 13.3035 30.3705C13.2818 30.4019 13.2599 30.4829 13.2278 30.5042C13.2185 30.5104 13.1705 30.1077 13.1698 30.0929C13.1513 29.685 13.1814 29.3069 13.2657 28.9094C13.289 28.7995 13.301 28.6908 13.301 28.5789" stroke="black" stroke-width="1.03954" stroke-linecap="round"/>
<path d="M18.615 26.7622C18.615 26.4998 18.615 26.2374 18.615 25.9749C18.615 25.7829 18.6277 25.6871 18.5015 25.5409C18.3872 25.4086 18.1513 25.3226 17.9993 25.2457C17.7941 25.1419 17.5822 25.0951 17.3596 25.0451C16.843 24.9288 16.3078 24.9454 15.7812 24.9454C15.5027 24.9454 15.2509 24.9324 15.0141 25.1044C14.8571 25.2184 14.7305 25.3637 14.5637 25.4652C14.4231 25.5508 14.2816 25.5415 14.3278 25.3163C14.367 25.1251 14.6266 24.9922 14.7782 24.9038C15.0269 24.7587 15.3022 24.6649 15.5806 24.5959C16.1078 24.4653 16.6642 24.4706 17.2044 24.4962C17.6021 24.5151 17.9536 24.6454 18.3299 24.7587C18.5704 24.8311 18.7919 24.9204 18.9885 25.0817C19.2588 25.3035 19.2282 25.6494 19.2282 25.9674C19.2282 26.0355 19.2666 26.066 19.2963 25.98C19.3861 25.7202 19.4269 25.407 19.3594 25.1372C19.2866 24.8458 18.9605 24.5775 18.7185 24.4281C18.1801 24.0957 17.5506 23.9664 16.9294 23.8919C16.6472 23.858 16.3455 23.8681 16.0613 23.8793C15.7636 23.8909 15.4998 24.0256 15.2488 24.1682C15.1014 24.2519 14.9517 24.3491 14.7996 24.423C14.7467 24.4488 14.6225 24.5071 14.5624 24.4899C14.4765 24.4654 14.5456 24.1928 14.5624 24.1493C14.6629 23.8892 14.7518 23.7972 15.0141 23.6913C15.8933 23.3364 16.9137 23.4108 17.7962 23.7089C18.3744 23.9043 19.022 24.2596 19.3418 24.8041C19.4304 24.955 19.4553 25.0451 19.4553 25.223C19.4553 25.2792 19.4173 25.4784 19.4906 25.4917C19.6003 25.5116 19.6175 25.6274 19.6925 25.681C19.7107 25.694 19.7051 25.5405 19.7051 25.5308C19.7051 25.3527 19.7114 25.1731 19.69 24.9959C19.5955 24.2143 19.2882 23.5264 18.5721 23.1437C18.3404 23.0198 18.119 22.9875 17.8656 22.9469C17.5653 22.8987 17.2707 22.8656 16.966 22.8573C16.1449 22.8348 15.2753 22.8975 14.5271 23.2648C14.3788 23.3376 14.2213 23.4416 14.0502 23.4465C13.9126 23.4504 13.9366 23.2999 13.9366 23.1967C13.9366 22.9682 14.0138 22.7513 14.2596 22.7021C14.4014 22.6737 14.5368 22.6743 14.681 22.6743C14.965 22.6743 15.206 22.7335 15.4835 22.7765C15.8749 22.8373 16.2537 22.9582 16.6442 23.0226C17.0383 23.0875 17.4485 23.1319 17.8479 23.1285C18.1045 23.1264 18.352 23.0983 18.5772 22.9696C18.6835 22.9088 18.7582 22.8067 18.8648 22.7475C18.9297 22.7115 18.8513 22.6322 18.8144 22.6062C18.7237 22.5424 18.6058 22.5517 18.5002 22.5734C18.3809 22.598 18.035 22.6797 18.1558 22.6958C18.5057 22.7424 18.8672 22.5688 19.2156 22.5431C19.5983 22.5149 19.7816 22.7689 19.9322 23.0781C20.0638 23.3482 20.1903 23.5978 20.2716 23.8893C20.372 24.2491 20.4092 24.5793 20.4092 24.953C20.4092 25.0623 20.4092 25.1717 20.4092 25.281C20.4092 25.3024 20.3814 25.3593 20.3965 25.3441C20.4497 25.2909 20.4745 25.1914 20.5013 25.1246C20.6077 24.8584 20.8634 24.4458 21.204 24.4458C21.2622 24.4458 21.3135 24.4102 21.363 24.3827C21.4908 24.3117 21.1701 24.0445 21.1283 23.989C20.8962 23.6806 20.6985 23.3516 20.4937 23.0251C20.3831 22.8488 20.2731 22.6714 20.1164 22.5318C19.9761 22.4066 19.7892 22.3442 19.6597 22.2088C19.5451 22.089 19.4061 21.9892 19.2875 21.8706C19.1793 21.7625 19.1575 21.7832 19.0465 21.8921C18.9169 22.0192 18.8742 22.0099 19.0036 22.1646C19.1788 22.3741 19.3279 22.5981 19.4856 22.8207C19.6616 23.069 19.8719 23.2964 20.0294 23.5575C20.2548 23.9313 20.3183 24.4409 20.3183 24.8722C20.3183 24.9983 20.3378 25.1374 20.3006 25.2583C20.2941 25.2796 20.2893 25.3071 20.3183 25.3088C20.3839 25.3126 20.3978 25.2162 20.4142 25.17C20.5608 24.7556 20.7337 24.2519 21.0476 23.9335C21.1625 23.8169 21.315 23.7321 21.4425 23.6282C21.6334 23.4727 21.7863 23.27 21.9749 23.1084C22.0994 23.0016 22.2341 22.9135 22.3509 22.7967C22.5935 22.5541 22.7655 22.2605 22.9275 21.9602C23.1485 21.5506 23.3451 21.1235 23.5886 20.7263C23.6462 20.6323 23.6777 20.5198 23.74 20.4222C23.8818 20.2003 24.0895 20.0258 24.2813 19.8481C24.3716 19.7645 24.4795 19.7044 24.5993 19.6778C24.639 19.669 24.7327 19.6226 24.7608 19.6463C24.8855 19.7518 24.9789 20.078 24.9235 20.2393C24.8749 20.3808 24.593 20.5146 24.4794 20.6026C24.1754 20.8382 23.8694 21.0738 23.5874 21.3357C23.0797 21.8071 22.7453 22.4279 22.2891 22.9469C22.1402 23.1162 21.9849 23.274 21.8626 23.4642C21.8192 23.5318 21.8955 23.4929 21.9333 23.4717C22.3043 23.2644 22.6429 22.975 22.9616 22.697C23.31 22.3932 23.6766 22.1036 23.9835 21.7571C24.1268 21.5954 24.283 21.4484 24.434 21.294C24.5239 21.2021 24.6379 21.1001 24.6737 20.971C24.7223 20.7961 24.7085 20.5955 24.7002 20.4159C24.6964 20.3352 24.623 20.1725 24.6825 20.1055C24.8239 19.9465 25.0288 19.8405 25.1456 19.6589C25.276 19.456 24.4279 19.4667 24.3431 19.4772C23.869 19.5355 23.379 19.4667 22.9061 19.5289C22.8679 19.5339 22.5555 19.5395 22.5452 19.5756C22.5347 19.6126 22.5439 19.6657 22.5439 19.703C22.5439 19.8705 22.5387 20.0292 22.5036 20.1938C22.4465 20.4609 22.3415 20.6906 22.221 20.9357C21.9175 21.5523 21.6178 22.1653 21.2356 22.7387C21.0894 22.9579 20.9703 23.1916 20.8306 23.4112C20.5899 23.7894 21.3656 22.6908 21.6078 22.3135C21.9438 21.7899 22.341 21.3097 22.7004 20.8032C22.813 20.6446 22.9054 20.5193 23.0549 20.3919C23.1544 20.3072 23.3401 20.2544 23.4019 20.1307C23.457 20.0206 23.3136 19.8465 23.2555 19.7749C23.0295 19.4961 22.722 19.3795 22.4102 19.2236C22.2579 19.1474 22.0913 19.0935 21.9333 19.0293C21.9023 19.0167 21.6856 18.8823 21.6822 18.8943C21.6684 18.9425 21.7002 19.0191 21.7024 19.0684C21.7134 19.3105 21.6902 19.5597 21.6557 19.7989C21.5689 20.4019 21.4319 21.0274 21.2267 21.6019C21.1037 21.9464 20.9045 22.2593 20.8078 22.6138C20.7907 22.6767 20.7498 22.8657 20.7498 22.8005C20.7498 22.6485 20.8238 22.4737 20.8533 22.3248C20.9703 21.7335 21.1228 21.169 21.1687 20.566C21.1946 20.2262 21.1925 19.9295 21.0526 19.616C20.9843 19.4629 20.9142 19.3552 20.9088 19.1819C20.9002 18.9067 20.8708 18.6152 20.8179 18.3454C20.7892 18.1989 20.7631 18.03 20.6703 17.9064C20.6031 17.8168 20.6707 17.9581 20.6817 17.9833C20.7319 18.0985 20.7352 18.2416 20.7498 18.3644C20.7736 18.5643 20.7981 18.7646 20.8179 18.9649C20.8684 19.4752 20.8407 19.9955 20.8407 20.508C20.8407 20.9332 20.8407 21.3584 20.8407 21.7836C20.8407 21.9943 20.8236 22.2624 20.6817 22.4245" stroke="black" stroke-width="1.03954" stroke-linecap="round"/>
<path d="M21.4994 18.6088C21.4645 18.5292 21.3897 18.4599 21.3354 18.3944C21.2036 18.2354 21.0706 18.0772 20.943 17.9149C20.8197 17.7581 20.7121 17.5767 20.5733 17.4329C20.395 17.2483 20.2682 17.0122 20.1153 16.8059C20.0751 16.7516 20.0153 16.7267 19.9778 16.6734C19.9334 16.6103 19.8899 16.538 19.8428 16.4791C19.8017 16.4277 19.8764 16.6063 19.8945 16.6696C20.0291 17.1405 20.1285 17.623 20.1872 18.1092C20.2829 18.9009 20.2891 19.6915 20.3462 20.4837C20.3743 20.8734 20.4381 21.2622 20.4724 21.6521C20.4835 21.7791 20.4774 21.9082 20.4774 22.0356C20.4774 22.1329 20.4474 22.0732 20.3941 22.0243C20.1949 21.8409 19.9967 21.6453 19.7847 21.4805C19.7646 21.4648 19.7066 21.4482 19.7053 21.425C19.7009 21.3508 19.6761 21.2711 19.6598 21.1979C19.4714 20.35 19.5236 19.4396 19.5236 18.5786C19.5236 17.795 19.5236 17.0115 19.5236 16.228C19.5236 15.9197 19.5236 15.6115 19.5236 15.3032C19.5236 15.1472 19.5481 14.965 19.511 14.8111C19.5084 14.8004 19.4536 14.6915 19.4554 14.7253C19.4574 14.7614 19.4888 14.7972 19.5059 14.8263C19.5804 14.9528 19.6358 15.0919 19.6813 15.2313C19.8029 15.6042 19.8674 16.0537 19.7683 16.4387C19.7299 16.5883 19.6465 16.7214 19.5816 16.8601C19.4927 17.0503 19.4463 17.2528 19.4201 17.4607C19.3279 18.1931 19.3192 18.9601 19.3192 19.699C19.3192 19.7281 19.2965 19.6827 19.2889 19.6737C19.1342 19.4918 18.9817 19.3083 18.812 19.14C18.4437 18.7748 18.0574 18.4105 17.631 18.113C17.6069 18.0962 17.4687 18.0177 17.4796 18.0184C17.5225 18.0211 17.5773 18.0496 17.6159 18.0688C17.7438 18.1328 17.8754 18.1936 18.0045 18.2581C18.1072 18.3094 18.2065 18.3668 18.3098 18.4171C18.3784 18.4504 18.3645 18.4702 18.3313 18.4259C18.278 18.3549 18.1609 18.3249 18.0827 18.2909C17.8059 18.1706 17.53 18.0933 17.2449 18.0007C17.1759 17.9783 17.1089 17.9689 17.1175 17.8872C17.1446 17.6297 17.2596 17.3757 17.3333 17.1301C17.485 16.6243 17.5914 16.1026 17.7282 15.5921C17.8013 15.319 17.8872 15.024 17.9099 14.7405C17.9129 14.702 17.9166 14.622 17.8556 14.6723C17.7652 14.7469 17.6936 14.8582 17.6235 14.9499C17.416 15.2211 17.2152 15.5014 17.0494 15.8003C16.9528 15.9744 16.8646 16.165 16.8034 16.3554C16.7619 16.4844 16.7983 16.2804 16.7983 16.2242C16.7983 15.4734 16.8437 14.7293 16.8639 13.9797C16.8719 13.6832 16.899 13.3903 16.7769 13.1154C16.6757 12.8878 16.7075 12.63 16.7075 12.3861C16.7075 12.2751 16.7267 12.0061 16.8034 12.26C16.9802 12.8454 17.0963 13.45 17.1945 14.0528C17.3288 14.8777 17.3487 15.7154 17.4796 16.5384C17.5118 16.7407 17.5478 16.94 17.5478 17.1453C17.5478 17.2637 17.4569 17.3516 17.3875 17.4405C17.3116 17.5378 17.2128 17.7234 17.0935 17.7736C16.9955 17.8149 17.0297 17.2277 17.0305 17.2084C17.0416 16.9152 17.1016 16.6358 17.1377 16.3466C17.161 16.1601 17.139 16.7226 17.139 16.9106C17.139 17.2568 17.1145 17.6131 17.1516 17.9578C17.1723 18.1498 17.1925 18.3646 17.3358 18.5079C17.4346 18.6068 17.5507 18.6522 17.6664 18.7224C17.7605 18.7796 17.7281 18.5083 17.7307 18.3981C17.7553 17.371 17.7938 16.3448 17.8379 15.3183C17.886 14.2004 17.9111 13.0848 17.9111 11.966C17.9111 11.6958 17.9225 11.3983 17.8543 11.1333C17.8322 11.0471 17.8197 10.9541 17.7925 10.8696C17.7647 10.783 17.7766 10.8866 17.7736 10.9213C17.7688 10.9761 17.7441 11.0274 17.7269 11.079C17.6565 11.2904 17.5973 11.5068 17.5528 11.725C17.4215 12.3684 17.3622 13.1001 17.4721 13.7513C17.5384 14.145 17.6973 14.5223 17.7963 14.9083C17.8887 15.2685 17.9605 15.6344 18.0423 15.9971C18.1281 16.3773 18.2745 16.7968 18.2745 17.1894C18.2745 17.3446 18.2761 17.4999 18.2694 17.655C18.2613 17.8469 18.2064 18.0394 18.2064 18.2303C18.2064 18.7956 18.2042 17.0997 18.2165 16.5346C18.2363 15.6223 18.2864 14.7112 18.3174 13.7992C18.3413 13.0943 18.3348 12.3897 18.3477 11.6846C18.357 11.1734 18.3649 10.6625 18.388 10.1529C18.4219 9.40816 18.526 11.6377 18.5823 12.3811C18.6894 13.7919 18.6895 15.2115 18.8296 16.6191C18.8723 17.0479 18.9714 17.4693 19.0063 17.8972C19.0224 18.0949 19.0246 18.3119 19.0643 18.5054C19.0864 18.6131 19.0671 18.5938 19.0126 18.5193C18.8787 18.3361 18.7914 18.1871 18.7464 17.9578C18.609 17.2584 18.6228 16.5141 18.6164 15.8041C18.6102 15.1226 18.6701 14.4479 18.7186 13.769C18.7528 13.2903 18.8636 12.8249 18.9457 12.3533C19.0087 11.9918 19.0566 11.6266 19.1362 11.2683C19.1571 11.1745 19.2177 11.0996 19.2738 11.0235C19.4469 10.7883 19.6138 10.5639 19.8516 10.3876C20.123 10.1864 20.4377 10.0774 20.76 9.99017C21.0312 9.91679 21.2904 9.82235 21.5549 9.729C21.8266 9.63312 22.0952 9.54569 22.3624 9.43881C22.4717 9.39507 22.6046 9.41105 22.7207 9.41105C22.7655 9.41105 22.8096 9.40703 22.7926 9.46657C22.7753 9.52735 22.3818 9.58938 22.346 9.60031C21.9218 9.72971 21.4619 9.93026 21.1133 10.211C20.799 10.4641 20.5587 10.7995 20.3159 11.1181C19.8686 11.7052 19.5047 12.3016 19.4327 13.0498C19.3961 13.4304 19.3598 13.8093 19.3305 14.1904C19.3219 14.3028 19.3192 14.6413 19.3192 14.5285C19.3192 14.1229 19.4428 13.7796 19.6245 13.4195C19.9227 12.8286 20.2639 12.2307 20.7689 11.7906C20.9396 11.6419 21.1226 11.5002 21.3 11.3591C21.4171 11.2661 21.5354 11.154 21.676 11.0967C21.748 11.0674 21.6559 11.2365 21.6458 11.2695C21.5401 11.6147 21.4115 11.9508 21.2975 12.2928C21.2931 12.3062 21.2269 12.5435 21.2269 12.4618C21.2269 12.1404 21.2582 11.8233 21.3291 11.5093C21.3815 11.2768 21.4387 11.0097 21.6104 10.8317C21.6688 10.7712 21.8928 10.6001 21.671 10.751C20.8124 11.3351 20.1934 12.4175 19.897 13.398C19.8105 13.6844 19.7807 13.9743 19.7381 14.2686C19.7058 14.4915 19.6377 14.6994 19.5816 14.9158C19.5205 15.1517 19.7662 14.7155 19.7835 14.6875C20.0638 14.2329 20.3576 13.7874 20.6881 13.3677C20.8841 13.1189 21.076 12.8874 21.3101 12.6738C21.4858 12.5136 21.6422 12.3452 21.7946 12.1641C21.8337 12.1177 21.9125 12.0475 21.9296 11.9874C21.9452 11.933 21.9461 11.9762 21.9069 12.0114C21.8636 12.0504 21.8154 12.0275 21.7719 12.0505C21.722 12.077 21.7911 12.1031 21.7946 12.1363C21.8358 12.5269 22.2433 12.782 22.4873 13.0447C22.7296 13.3057 23.1878 13.5377 23.5433 13.5444C23.6938 13.5472 23.8446 13.5444 23.995 13.5444C24.2039 13.5444 24.3724 13.4746 24.5603 13.3905C24.8937 13.2411 25.1019 13.0019 25.3829 12.7823C25.5327 12.6653 25.6128 12.5901 25.7009 12.4202C25.8311 12.1691 25.8159 11.914 25.8422 11.6417C25.8808 11.2404 25.9037 10.7569 25.7917 10.3649C25.7588 10.2498 25.71 10.2206 25.8396 10.2854C26.19 10.4606 26.4844 10.8 26.7683 11.0689C27.094 11.3775 27.4036 11.7267 27.654 12.1023C27.7484 12.244 27.8767 12.3521 27.9088 12.5224C27.9848 12.9251 27.9983 13.329 27.9379 13.7387C27.869 14.2051 27.8452 14.6764 27.7107 15.1316C27.6192 15.4415 27.4476 15.6099 27.2578 15.8583C27.0091 16.184 26.8076 16.5406 26.5639 16.8702C26.1771 17.3933 25.8356 17.9714 25.5886 18.5735C25.5546 18.6563 25.5165 18.7331 25.4788 18.8132C25.4695 18.833 25.5197 18.7965 25.5368 18.783C25.7024 18.6516 25.8707 18.5208 26.0276 18.3792C26.4859 17.966 26.8984 17.4636 27.2856 16.9838C27.5794 16.6195 27.855 16.23 28.0703 15.8129C28.2052 15.5517 28.2343 15.2952 28.3138 15.0168C28.3716 14.8146 28.4219 14.6118 28.4892 14.4124C28.5339 14.28 28.5903 14.1536 28.6078 14.0137C28.613 13.972 28.5984 14.0984 28.5826 14.1374C28.4638 14.4306 28.2727 14.7061 28.1157 14.9789C27.7064 15.6906 27.3069 16.4027 26.8414 17.0797C26.4968 17.5809 26.1354 18.0718 25.8131 18.5874C25.6947 18.7768 25.636 19.0028 25.5078 19.188C25.4624 19.2535 25.3072 19.5313 25.393 19.6081C25.6061 19.7988 26.0209 19.0788 26.0996 18.9596C26.261 18.7151 26.3444 18.5314 26.3582 18.2354C26.3633 18.1247 26.3795 17.9947 26.314 17.8998C26.2363 17.7871 26.1547 17.6787 26.0869 17.5591C25.9619 17.3385 25.8469 17.1197 25.7576 16.8816C25.6501 16.5947 25.4434 16.3496 25.2567 16.1107C25.1351 15.955 24.9765 15.8369 24.8177 15.7221C24.6286 15.5854 24.4425 15.423 24.2474 15.2981C23.9524 15.1093 23.6067 14.9339 23.2809 14.8036C22.942 14.668 22.5722 14.6799 22.2148 14.6799C21.888 14.6799 21.5654 14.7268 21.2395 14.7493C21.1125 14.7581 20.9988 14.8465 20.8913 14.907C20.7584 14.9817 20.6057 15.044 20.4598 15.0887C20.3743 15.1149 20.1235 15.1935 20.0459 15.1114C19.8485 14.9024 20.5393 14.5269 20.6541 14.449C20.9911 14.2205 21.2823 14.0731 21.695 14.0907C21.9413 14.1012 22.1911 14.1491 22.4356 14.1803C22.7755 14.2237 23.1093 14.2543 23.4424 14.3393C24.4181 14.5882 25.3922 14.9736 25.9936 15.8255C26.147 16.0429 26.2523 16.299 26.415 16.5081C26.4683 16.5767 26.5197 16.4599 26.5512 16.4084C26.7009 16.1645 26.8606 15.9339 26.9726 15.6691C27.0648 15.4512 27.1632 15.2197 27.2098 14.9865C27.2399 14.8361 27.2225 14.67 27.2225 14.5172C27.2225 13.9513 27.0504 13.4188 26.9726 12.8631C26.9397 12.6273 26.8981 12.3769 26.8225 12.1502C26.7547 11.9468 26.6163 11.7783 26.5008 11.6014C26.4514 11.5258 26.3868 11.4234 26.3052 11.378C26.2779 11.3629 26.3117 11.427 26.314 11.4323C26.3659 11.5497 26.3967 11.6786 26.4251 11.8032C26.6036 12.5868 26.5922 13.4277 26.5626 14.2282C26.5405 14.8237 26.3234 15.4082 26.2055 15.987C26.1708 16.1574 26.1575 15.8623 26.1563 15.8255C26.1461 15.5039 26.1346 15.1828 26.1147 14.8616C26.0813 14.324 25.9595 13.7596 25.7803 13.2504C25.7523 13.1706 25.7009 13.0094 25.7009 13.0094C25.7009 13.0094 25.7009 13.2231 25.7009 13.3299C25.7009 13.4561 25.7182 13.6154 25.6201 13.7134C25.5154 13.8182 25.3792 13.8888 25.2719 13.9961C25.199 14.0689 25.0985 14.2281 25.0019 14.2661C24.8687 14.3184 24.8201 13.9972 24.805 13.9317C24.7797 13.8213 24.7007 13.5092 24.8808 13.4813C25.0908 13.4488 25.4279 13.4462 25.6125 13.552C25.9592 13.7505 25.9507 14.0993 25.9507 14.4528C25.9507 14.5101 25.9654 14.5436 25.8989 14.5436C25.4909 14.5436 25.1278 14.5013 24.7319 14.3986C24.0907 14.2321 23.4267 14.1792 22.7901 13.9999C22.3235 13.8684 21.8323 13.7289 21.3858 13.5393C21.3345 13.5175 20.9856 13.3573 21.0275 13.263C21.0551 13.2009 21.5542 13.2491 21.6256 13.2491C21.8776 13.2491 22.0981 13.3006 22.3397 13.3627C22.3933 13.3765 22.501 13.4331 22.4305 13.3627" stroke="black" stroke-width="1.03954" stroke-linecap="round"/>
<path d="M18.2362 18.8667C17.6296 19.5415 17.023 20.2149 16.4401 20.91C16.3758 20.9866 16.079 21.2754 16.0959 21.0007C16.1219 20.5773 17.4733 17.8222 17.9202 18.9981C18.1708 19.6577 18.0246 20.6323 17.5478 21.1509C16.8066 21.9571 15.5021 21.6186 15.1071 20.6378C14.8917 20.1029 14.6651 19.0879 15.4294 18.9605C16.2363 18.8261 17.0668 18.9387 17.4852 19.7209C17.8504 20.4036 17.8188 21.2762 17.0972 21.7016C16.281 22.1829 15.2705 21.8042 14.7942 21.0445C14.3472 20.3318 14.9522 19.9109 15.6265 19.7804C16.4565 19.6197 17.4953 19.6277 18.2237 20.1027C18.4925 20.278 18.7481 20.553 18.3488 20.7629C17.6382 21.1366 15.9882 21.5215 15.4262 20.7254C14.8316 19.883 16.0449 19.505 16.6779 19.505C17.9655 19.505 18.856 20.1355 18.9872 21.4357C19.2627 24.1654 16.8402 25.66 15.8268 27.9098C15.7367 28.1098 15.5326 28.4052 15.5326 28.6326C15.5326 28.7883 15.7458 28.405 15.8643 28.3041C16.205 28.014 16.5759 27.752 16.9595 27.5218C17.0005 27.4972 17.7492 27.0638 17.5791 27.3278C17.3569 27.6725 16.8005 28.1477 16.4025 28.2728C16.2706 28.3142 16.4234 27.9904 16.4839 27.866C16.7076 27.406 17.0427 26.9982 17.3538 26.5956C17.6353 26.2313 17.8641 25.7406 18.2612 25.4879C18.4288 25.3812 17.8989 26.3197 17.8419 26.4016C17.5369 26.8399 17.2424 27.2455 16.9845 27.7095C16.9582 27.7569 16.9413 27.6072 16.9407 27.5531C16.9369 27.1579 16.9407 26.7624 16.9407 26.3672C16.9407 26.2309 16.9262 25.4378 16.9032 25.4754C16.6254 25.93 16.3236 26.369 16.0521 26.8271C15.9289 27.035 15.7628 27.2904 15.7579 26.9085C15.7521 26.4476 15.7579 25.9863 15.7579 25.5254C15.7579 25.3935 15.763 25.3295 15.7579 25.5067C15.7491 25.8154 15.6668 26.0906 15.5639 26.3797C15.4955 26.5718 15.4142 27.1431 15.1947 27.2464C15.1315 27.2762 15.1373 26.4861 15.1384 26.4016C15.1389 26.358 15.1604 25.8008 15.2229 25.8008C15.4865 25.8008 14.7381 27.5871 14.6315 27.7471C14.2242 28.3579 13.8271 28.1927 13.505 27.6032C12.5846 25.9188 12.3408 23.8819 11.784 22.0646C11.5679 21.3593 11.3554 20.6503 11.058 19.9744C10.9865 19.8119 10.8533 19.6965 10.7764 19.5426C10.6101 19.2101 10.6886 20.1538 10.6888 20.1934C10.6937 21.3445 10.6522 22.5455 10.7576 23.6918C10.7597 23.714 10.8146 23.9431 10.7889 23.7731C10.7405 23.4523 10.6811 23.1328 10.6293 22.8125C10.5022 22.0258 10.4855 21.1036 10.2163 20.3499C10.0818 19.9734 10.5804 21.062 10.7451 21.4263C10.9833 21.953 11.2999 22.4657 11.4648 23.0221C11.6033 23.4895 10.9296 22.2058 10.6982 21.7767C10.5228 21.4517 10.3801 21.1205 10.2507 20.7754C10.2496 20.7724 10.1361 20.516 10.2288 20.5814C10.6264 20.8621 10.9725 21.568 11.1707 22.0083C11.3626 22.4348 11.1026 22.5199 10.889 22.1022C10.3185 20.9859 10.4095 17.1106 10.548 18.3566C10.6471 19.2488 10.6275 20.2476 10.451 21.1259C10.44 21.1802 10.1179 22.3613 10.0567 21.8581C9.96074 21.0692 9.9916 20.2398 10.041 19.4487C10.0437 19.4062 10.1492 18.4195 10.2632 18.6476C10.2711 18.6634 10.3061 18.8317 10.3321 18.7916C10.3801 18.7173 10.453 18.4337 10.4572 18.4192C10.62 17.8619 10.7854 17.3059 10.9579 16.7514C11.2717 15.7425 11.6015 14.7385 11.9123 13.7287C12.0138 13.3988 12.0718 12.8967 12.2658 12.5959C12.4437 12.3202 12.9357 12.8855 12.9981 12.9777C13.2846 13.4012 13.4522 13.9196 13.5801 14.4108C13.6057 14.5094 13.6803 15.1375 13.6677 14.996C13.5796 14.0048 13.3731 13.0281 13.2234 12.0452C13.1538 11.5887 13.4312 12.2286 13.4737 12.3143C13.8503 13.0745 14.1685 13.8703 14.3811 14.6924C14.4089 14.7997 14.6193 15.9927 14.5845 15.9722C14.217 15.7561 13.9515 15.2066 13.7553 14.8552C13.4467 14.3023 13.1773 13.7155 12.9574 13.1216C12.9118 12.9987 12.7935 12.6348 12.876 12.7367C13.1857 13.1193 13.372 13.6551 13.5363 14.1104C13.7609 14.7334 14.0279 15.5282 13.9524 16.2069C13.9344 16.3694 13.6519 16.0628 13.5363 15.9472C13.0489 15.4598 12.6863 14.8579 12.4849 14.198C12.3999 13.9195 12.2855 13.4965 12.3378 13.1999C12.3783 12.9706 12.8902 13.0644 13.0356 13.0778C14.1686 13.1826 15.2346 13.9639 15.8612 14.8896C15.9317 14.9937 16.206 15.3156 16.1397 15.4747C16.0468 15.6976 15.7946 15.1238 15.6922 14.9052C15.2555 13.9731 15.0465 13.0085 14.8255 12.0139C14.7654 11.7438 14.9721 12.056 15.0132 12.1203C15.3497 12.6466 15.5506 13.2595 15.7079 13.8601C15.7505 14.0228 16.0116 15.5388 15.7141 15.3777C14.6463 14.7993 14.1936 13.1662 13.9618 12.0734C13.7485 11.0676 14.7526 12.5321 14.8693 12.7336C15.2749 13.4345 15.5414 14.1754 15.7485 14.9553C15.8575 15.3656 16.0099 15.8246 15.9832 16.257C15.9717 16.4433 15.651 16.0582 15.5514 15.9003C14.9805 14.9953 14.589 13.9541 14.2622 12.9401C14.0794 12.3727 13.9182 11.7901 13.7678 11.2129C13.7567 11.1703 13.7264 11.0482 13.7553 11.0814C13.8871 11.233 13.9869 11.5693 14.0588 11.7354C14.7081 13.2347 15.2562 14.7608 15.6328 16.3509C15.6417 16.3887 15.8454 17.1566 15.7892 17.1707C15.5139 17.2395 15.0882 16.2634 15.0445 16.1694C14.3439 14.6629 13.8985 13.1021 13.6239 11.4695C13.5021 10.7453 13.5016 9.98338 13.3078 9.27281C13.1557 8.71511 13.0949 8.29822 13.1545 7.702C13.1719 7.5279 13.2431 7.10596 13.1295 6.95101C12.9853 6.75438 12.7914 6.59437 12.6914 6.36587C12.6614 6.29739 12.3863 5.8913 12.3785 6.0248C12.3532 6.45408 12.3319 6.88707 12.3253 7.31712C12.3118 8.20351 12.2934 9.11012 12.4911 9.97999C12.754 11.1364 13.28 12.2272 13.8742 13.2468C15.0879 15.3292 16.854 16.9128 19.2125 17.5024C19.9121 17.6773 20.5831 17.9187 21.2714 18.1282C21.4994 18.1976 21.8748 18.3348 22.1163 18.3003C22.3506 18.2668 22.0828 16.661 22.0537 16.5011C22.0247 16.3417 21.6166 15.0542 21.9348 15.1055C22.5346 15.2022 23.062 15.6614 23.4556 16.0943C23.677 16.3378 23.9324 16.9047 23.6589 17.202C23.279 17.615 22.5825 17.3173 22.2415 17.0205C22.161 16.9505 21.0752 15.881 21.6094 15.8377C22.4242 15.7716 23.2967 16.4297 23.878 16.9204C23.9068 16.9447 24.7198 17.7663 24.4756 17.7934C23.9051 17.8568 23.3618 17.5001 22.9612 17.1331C22.7884 16.9749 22.1938 16.2889 22.7671 16.2758C23.4154 16.2609 23.9388 16.5156 24.2535 17.0987C24.4241 17.4149 24.659 18.209 24.4756 18.5757C24.4196 18.6877 24.1463 18.639 24.0626 18.6289C23.4412 18.5535 22.8378 18.2673 22.3228 17.9217C21.704 17.5064 20.8465 16.7739 20.6143 16.0192C20.5424 15.7856 20.8264 15.8252 20.9773 15.8252C21.53 15.8252 22.0025 16.0131 22.3385 16.4666C22.5888 16.8046 22.1464 16.8265 21.8597 16.8265C19.872 16.8265 19.8697 14.5995 20.2263 13.1529C20.4419 12.2784 21.0126 11.232 21.7815 10.7059C22.094 10.4921 22.3564 10.2091 22.6858 10.0238C23.3415 9.65494 24.8467 9.34518 25.3581 10.0739C25.4302 10.1766 25.6975 10.6744 25.5145 10.7842C25.2995 10.9132 24.936 10.8672 24.7009 10.8687C24.3397 10.8709 23.9268 10.9214 23.5964 10.7435C23.2794 10.5729 23.0318 10.2661 23.5119 10.1615C23.8803 10.0812 24.4796 10.0277 24.6884 10.3993C25.5679 11.9648 22.6146 12.1301 21.7752 11.5477C21.4606 11.3294 21.2996 11.1048 21.7658 11.0376C22.4463 10.9396 23.4461 10.8076 24.0563 11.2066C24.1569 11.2723 24.5739 11.6178 24.4193 11.7917C24.2916 11.9354 23.7361 11.6733 23.6245 11.6196C23.2986 11.4628 23.0478 11.2224 22.836 10.9344C22.529 10.5169 22.9648 10.6601 23.2615 10.781C23.8141 11.0063 24.2441 11.3456 24.4882 11.8825" stroke="black" stroke-width="1.03954" stroke-linecap="round"/>
<path d="M19.8703 13.3167C20.2274 13.3167 20.5828 13.2888 20.9392 13.2696C21.3562 13.2472 21.7745 13.2562 22.1919 13.2562C22.5757 13.2562 22.9545 13.2484 23.3236 13.3705C23.68 13.4883 24.0253 13.6665 24.3477 13.8568C24.8974 14.181 25.397 14.5662 25.699 15.1363C25.7944 15.3163 25.8931 15.4975 25.9769 15.6831C25.9952 15.7236 26.0217 15.7525 26.0217 15.7974" stroke="white" stroke-width="1.03954" stroke-linecap="round"/>
<path d="M24.267 14.4662C24.267 14.6649 24.267 14.8635 24.267 15.0622C24.267 15.1854 24.269 15.289 24.2065 15.3984C24.0992 15.5862 23.887 15.7681 23.6619 15.7771C23.0399 15.802 22.7329 14.9697 22.9661 14.4774C23.0292 14.3441 23.1162 14.2171 23.2417 14.1345C23.3764 14.0459 23.5365 14.0628 23.6899 14.0628C24.0251 14.0628 24.3013 14.3126 24.3745 14.6409C24.4529 14.9923 24.234 15.2281 23.9488 15.4051C23.7891 15.5042 23.6192 15.5737 23.4311 15.5911C23.288 15.6044 23.211 15.4884 23.1375 15.3805C22.9417 15.0928 22.8203 14.5654 23.0255 14.2611C23.2078 13.9908 23.6726 14.0052 23.9017 14.1961C24.1901 14.4364 24.2907 14.8664 24.0317 15.153C23.8748 15.3266 23.675 15.4729 23.4894 15.6146C23.3235 15.7413 23.154 15.8086 22.9448 15.7973C22.5593 15.7764 22.4908 14.9707 22.4765 14.7082C22.4645 14.49 22.4384 14.2254 22.5818 14.0426C22.6951 13.8981 22.8505 13.8264 23.03 13.8107C23.2303 13.7931 23.4407 13.7898 23.6261 13.8801C23.8819 14.0049 24.1592 14.2838 24.2625 14.5536C24.3789 14.8574 24.2659 15.2044 24.0294 15.4163C23.8142 15.6092 23.4141 15.6105 23.151 15.5508C22.7918 15.4693 22.5973 15.0576 22.6871 14.7082C22.7719 14.3784 23.2405 14.2612 23.5319 14.3138C23.8027 14.3626 24.1263 14.7972 24.0115 15.0791C23.974 15.1711 23.8122 15.2102 23.7235 15.2102C23.6104 15.2102 23.5409 15.1007 23.514 15.0006C23.4197 14.6491 23.7629 14.6239 24.025 14.6275C24.3577 14.6321 24.388 14.9932 24.388 15.2628C24.388 15.5532 24.2681 15.8318 23.9566 15.878C23.8356 15.8959 23.7031 15.9183 23.5812 15.9183C23.481 15.9183 23.3915 15.8851 23.2944 15.878C23.1333 15.866 22.8893 15.7455 22.8048 15.6046C22.7395 15.4958 22.6864 15.3712 22.6445 15.2516C22.6026 15.1317 22.593 15.0019 22.593 14.8762C22.593 14.5707 22.6845 14.3736 22.8552 14.1233" stroke="white" stroke-width="1.03954" stroke-linecap="round"/>
<path d="M15.53 12.0207C15.5862 12.0628 15.3997 11.6721 15.3854 11.6466C15.254 11.4127 15.0783 11.1146 14.862 10.9472C14.6461 10.78 14.3791 10.6607 14.1437 10.5228C13.8418 10.3458 13.5268 10.1941 13.207 10.0528C12.6242 9.79551 12.0022 9.64418 11.3633 9.64418C11.1699 9.64418 10.9818 9.63942 10.7928 9.68505C10.7169 9.70337 10.6291 9.72906 10.5507 9.72906" stroke="white" stroke-width="1.03954" stroke-linecap="round"/>
<path d="M14.7114 11.3148C14.7114 11.0655 14.7524 11.8341 14.647 12.06C14.4668 12.446 13.9916 12.5718 13.5991 12.5475C13.1649 12.5206 12.7564 12.0254 12.7937 11.592C12.8094 11.4089 12.9162 11.1852 13.0548 11.0613C13.1814 10.9482 13.3755 10.9597 13.533 10.9638C13.723 10.9688 13.8899 11.071 14.0145 11.2114C14.146 11.3596 14.2889 11.5395 14.2816 11.7489C14.276 11.9076 14.1302 12.028 14.0001 12.0973C13.8714 12.1658 13.6077 12.2445 13.4821 12.1287C13.3333 11.9914 13.2868 11.3871 13.5686 11.3614C13.6554 11.3535 13.7576 11.3578 13.8339 11.403C13.9887 11.4946 14.0241 11.6216 14.0399 11.7879" stroke="white" stroke-width="1.03954" stroke-linecap="round"/>
</svg>
