<svg width="1026" height="1024" viewBox="0 0 1026 1024" fill="none" xmlns="http://www.w3.org/2000/svg">
<rect x="-15.7594" y="15.7594" width="992.481" height="992.481" rx="141.835" transform="matrix(-1 0 0 1 994.481 0)" fill="white" stroke="#4245C3" stroke-width="31.5188"/>
<path d="M563.173 144.537C563.173 134.827 572.622 123.86 579.184 117.207C585.075 111.236 592.26 106.076 599.199 101.27C605.708 96.7608 612.83 93.7049 620.929 92.9998C629.587 92.246 636.172 93.3179 643.059 98.5314C648.785 102.866 653.542 108.187 656.326 114.688C661.021 125.652 664.472 138.178 665.59 149.959" stroke="#4245C3" stroke-width="31.5188" stroke-linecap="round"/>
<path d="M453.771 138.29C453.771 128.58 444.321 117.613 437.759 110.96C431.868 104.989 424.683 99.8294 417.744 95.0229C411.235 90.5139 404.113 87.4581 396.014 86.7529C387.356 85.9991 380.771 87.071 373.884 92.2845C368.158 96.6192 363.401 101.94 360.617 108.441C355.922 119.405 352.471 131.932 351.353 143.712" stroke="#4245C3" stroke-width="31.5188" stroke-linecap="round"/>
<path d="M786.276 583.718C818.19 583.718 848.259 602.234 875.276 616.876C901.601 631.144 923.784 646.086 945.217 666.613C960.981 681.711 976.161 697.411 990.94 713.335C992.519 715.036 1002.17 728.407 1000.29 728.407" stroke="#4245C3" stroke-width="31.5188" stroke-linecap="round"/>
<path d="M192.844 564.474C179.851 571.177 166.544 577.582 154.198 585.367C149.25 588.487 144.882 592.309 139.878 595.352C133.885 598.997 127.859 602.351 121.664 605.658C105.549 614.261 90.1676 625.643 76.067 636.978C59.8288 650.03 45.6303 664.575 35.7038 682.533C32.2461 688.788 28.9783 695.585 26.2829 702.183C22.6241 711.138 21.9099 720.539 19.4998 729.772" stroke="#4245C3" stroke-width="31.5188" stroke-linecap="round"/>
<path d="M640.943 652.173C640.943 665.242 641.43 678.407 640.831 691.463C639.578 718.759 626.719 746.067 618.445 771.864C610.386 796.991 601.498 821.698 589.902 845.565C582.914 859.949 574.94 875.68 565.613 888.875C553.093 906.59 540.237 924.623 529.628 943.441C523.009 955.18 511.575 963.452 503.939 974.422" stroke="#4245C3" stroke-width="31.5188" stroke-linecap="round"/>
<path d="M339.559 649.015C339.559 665.143 337.983 682.022 340.344 698.005C343.864 721.839 356.912 743.646 363.761 766.666C368.395 782.242 371.515 797.493 378.02 812.524C385.591 830.019 393.399 847.383 403.138 863.894C417.322 887.943 432.456 912.039 443.823 937.442C448.235 947.302 453.766 960.644 453.766 971.522" stroke="#4245C3" stroke-width="31.5188" stroke-linecap="round"/>
<path d="M605.296 726.087C599.096 727.839 593.863 730.999 588.629 734.602C581.628 739.422 574.558 744.24 567.837 749.417C565.703 751.061 563.522 752.937 561.956 755.103C561.182 756.174 560.803 756.712 559.225 756.224C556.426 755.359 553.956 752.861 551.867 751.046C544.804 744.906 537.924 738.554 530.992 732.28C520.03 722.36 509.373 711.916 497.686 702.757C496.592 701.9 492.012 697.258 490.411 697.258" stroke="#4245C3" stroke-width="31.5188" stroke-linecap="round"/>
<path d="M490.413 697.258C489.242 697.539 488.231 698.52 487.348 699.234C483.219 702.569 479.226 706.087 475.279 709.617C467.296 716.758 459.338 724.083 451.84 731.693C444.875 738.761 437.014 746.154 431.243 754.169C430.057 755.815 428.83 757.49 427.815 759.24C426.873 760.864 422.174 758.077 421.405 757.719C406.726 750.883 393.319 741.729 379.932 732.867C372.089 727.675 363.785 723.309 355.462 718.88" stroke="#4245C3" stroke-width="31.5188" stroke-linecap="round"/>
<path d="M545.749 773.968C522.339 773.968 498.828 774.499 475.42 773.932C465.847 773.7 456.328 772.185 446.739 771.996C441.268 771.888 424.955 772.239 430.339 771.302C441.04 769.438 452.247 770.023 463.062 770.023C474.695 770.023 485.002 770.504 496.32 773.165C504.002 774.971 512.787 776.85 520.691 777.219C527.151 777.521 533.869 778.264 539.952 780.397C544.159 781.873 549.439 781.982 553.301 783.831" stroke="#4245C3" stroke-width="31.5188" stroke-linecap="round"/>
<path d="M554.674 776.594C554.674 784.144 555.351 791.962 553.225 799.314C550.506 808.718 545.496 818.306 540.486 826.783C538.692 829.819 534.437 841.029 529.578 841.029C523.217 841.029 516.714 842.657 510.356 843.148C497.164 844.167 484.457 844.974 471.148 844.974C464.563 844.974 457.978 844.974 451.392 844.974C449.218 844.974 446.148 838.893 445.175 837.34C437.392 824.916 434.374 809.513 430.759 795.661C430.088 793.092 429.302 786.828 427.517 784.63C422.038 777.884 439.823 797.014 445.747 803.405C451.434 809.54 456.983 815.666 461.842 822.437C463.611 824.901 466.475 827.851 467.411 830.765C467.802 831.981 466.5 831.702 465.809 831.24C461.475 828.342 458.592 822.824 457.266 818.09C453.59 804.969 469.012 802.236 479.387 802.236C482.097 802.236 499.28 805.644 490.485 810.382C484.732 813.482 464.629 816.104 463.521 806.547C462.256 795.643 481.93 793.244 489.646 793.835C498.077 794.481 504.194 798.169 509.441 804.428C511.845 807.296 515.245 812.023 514.551 816.008C513.658 821.142 504.622 822.263 500.516 822.692C491.023 823.685 476.172 822.982 468.708 816.336C453.984 803.228 478.068 793.414 489.303 791.862C502.071 790.099 516.393 790.968 524.582 801.871C530.621 809.912 526.719 820.288 515.352 818.309C503.175 816.188 493.117 798.236 504.559 789.452C510.51 784.882 526.081 784.425 531.6 789.853C541.102 799.2 526.771 804.969 518.594 805.889C507.271 807.163 497.565 806.733 486.862 802.894C480.48 800.605 474.742 797.306 469.013 793.835C467.34 792.821 459.726 788.847 460.774 785.835C461.802 782.884 473.725 785.92 475.268 787.516C481.618 794.085 472.037 795.9 466.724 795.515C463.332 795.27 459.269 794.844 456.655 792.52C455.752 791.717 456.345 791.716 457.189 791.716" stroke="#4245C3" stroke-width="31.5188" stroke-linecap="round"/>
<path d="M533.989 872.471C525.514 872.471 516.723 871.851 508.275 872.498C503.524 872.862 499.05 873.467 494.233 873.467C491.89 873.467 488.073 873.906 485.883 874.712C482.786 875.853 478.17 875.276 474.818 875.847C471.017 876.494 466.841 875.831 463.145 876.843C459.33 877.887 451.882 875.647 450.143 879.776C448.346 884.044 446.628 888.865 445.578 893.39C444.812 896.694 442.458 898.711 442.458 902.356C442.458 910.641 445.857 919.15 450.75 925.932C454.299 930.852 457.745 935.81 461.411 940.654C462.572 942.187 464.375 945.217 466.15 946.188C467.871 947.13 470.015 948.977 470.946 950.671C472.589 953.661 475.507 956.524 478.978 957.755C481.617 958.691 483.491 959.624 486.259 958.419C490.814 956.436 494.816 950.666 497.758 947.018C503.006 940.511 508.583 934.253 513.996 927.869C517.243 924.04 520.819 919.983 524.946 916.994C528.696 914.279 532.302 911.268 535.03 907.586C538.673 902.669 542.903 898.032 546.182 892.892C547.31 891.125 548.493 888.678 546.182 887.413C544.068 886.256 542.514 884.423 540.519 883.207C538.034 881.693 534.269 881.934 531.389 881.934C523.954 881.934 517.059 882.509 510.009 885.034C504.864 886.876 499.907 888.458 494.985 890.789C491.196 892.583 487.318 894.411 483.428 895.992C477.598 898.36 472.467 902.107 470.541 908.223C468.332 915.24 468.109 926.437 474.269 931.716C478.691 935.505 487.96 936.042 492.904 933.016C497.538 930.181 501.265 925.577 504.924 921.726C507.635 918.872 510.368 916.014 512.638 912.816C516.168 907.844 519.826 903.436 518.85 897.126C518.473 894.69 516.113 892.081 513.36 893.28C507.154 895.982 502.467 904.541 499.665 910.16C496.706 916.093 492.67 926.366 484.063 925.766C479.971 925.481 477.371 919.71 475.106 917.022C473.21 914.772 471.688 912.624 470.541 909.938C469.1 906.563 467.177 903.126 463.781 901.36C462.865 900.884 461.406 900.359 460.66 899.644C459.911 898.927 459.482 897.807 458.58 897.375" stroke="#4245C3" stroke-width="31.5188" stroke-linecap="round"/>
<path fill-rule="evenodd" clip-rule="evenodd" d="M441.538 131.092C459.579 130.175 478.679 129.804 498.946 129.804C529.451 129.804 557.791 131.045 584.112 133.937L548.181 162.614C532.647 161.737 516.256 161.322 498.946 161.322C491.964 161.322 485.164 161.369 478.538 161.466L441.538 131.092ZM342.305 178.153L369.541 139.026C257.042 160.188 194.119 224.99 137.534 403.832C88.4637 558.92 299.343 677.86 498.946 677.86C698.548 677.86 898.004 555.268 860.357 403.832C821.641 248.093 757.077 175.74 652.396 146.61L663.278 183.088C682.78 190.055 700.194 198.881 715.86 209.826C765.596 244.574 803.226 304.662 829.77 411.436C844.21 469.524 814.903 526.302 750.422 571.9C686.203 617.312 592.961 646.341 498.946 646.341C404.601 646.341 308.408 618.052 242.829 573.021C177.134 527.911 148.975 472.157 167.584 413.34C204.679 296.1 242.46 236.102 289.564 203.493C305.211 192.662 322.534 184.383 342.305 178.153Z" fill="#4245C3"/>
<path d="M480.673 143.64C477.598 143.64 474.523 143.64 471.448 143.64C467.465 143.64 463.546 145.134 459.564 145.134C458.078 145.134 456.802 146.057 455.366 146.13C454.954 146.151 454.446 146.509 454.066 146.711C453.676 146.918 453.748 146.767 454.258 146.803C455.454 146.888 456.574 147.126 457.793 147.126C460.859 147.126 464.102 147.334 467.114 146.757C468.541 146.484 469.948 146.242 471.4 146.139C474.282 145.935 477.115 145.176 479.98 144.802" stroke="#4245C3" stroke-width="31.5188" stroke-linecap="round"/>
<path d="M567.172 139.485C567.172 142.599 564.461 144.792 562.069 146.495C560.687 147.478 559.921 147.786 558.236 147.786C555.829 147.786 553.466 147.952 551.052 147.952" stroke="#4245C3" stroke-width="31.5188" stroke-linecap="round"/>
<path d="M357.248 138.526C357.248 141.455 356.979 143.926 356.331 146.781C355.692 149.594 354.089 153.342 352.032 155.464C349.843 157.722 348.098 158.68 345.329 160.108C343.887 160.852 342.13 161.214 340.581 161.708C336.52 163.005 332.763 164.833 329.375 167.328" stroke="#4245C3" stroke-width="31.5188" stroke-linecap="round"/>
<path d="M672.642 168.031C670.638 168.031 667.585 165.173 666.693 163.465C665.783 161.722 665.674 159.785 665.674 157.845C665.674 153.475 665.076 149.175 664.574 144.849" stroke="#4245C3" stroke-width="31.5188" stroke-linecap="round"/>
<path d="M499.644 288.451C499.644 333.889 541.445 373.649 596.825 373.649C652.206 373.649 694.007 333.889 694.007 288.451C694.007 243.013 652.206 203.253 596.825 203.253C541.445 203.253 499.644 243.013 499.644 288.451Z" stroke="#4245C3" stroke-width="31.5188"/>
<path d="M303.879 288.451C303.879 333.889 345.68 373.649 401.061 373.649C456.442 373.649 498.243 333.889 498.243 288.451C498.243 243.013 456.442 203.253 401.061 203.253C345.68 203.253 303.879 243.013 303.879 288.451Z" stroke="#4245C3" stroke-width="31.5188"/>
<path d="M545.311 272.065C546.191 272.065 548.297 271.604 548.467 272.745C548.686 274.212 549.893 277.352 548.432 278.452C546.572 279.851 543.904 280.316 541.622 279.879C540.67 279.696 537.057 277.942 538.43 276.482C540.694 274.072 544.975 273.481 548.148 273.968C552.169 274.584 555.574 279.848 552.014 282.732C543.042 290.003 535.207 272.323 546.304 269.348C552.589 267.662 558.861 270.779 559.853 276.957C560.913 283.558 555.282 283.072 549.78 283.072" stroke="#4245C3" stroke-width="31.5188" stroke-linecap="round"/>
<path d="M447.631 272.065C452.394 272.065 447.866 280.357 442.239 278.417C437.942 276.936 435.5 273.487 435.5 269.347C435.5 265.769 446.035 266.975 447.879 267.887C449.793 268.833 454.85 274.141 452.312 276.481C449.618 278.966 443.8 280.266 440.111 280.014C436.136 279.742 435.552 270.92 435.5 268.532C435.435 265.548 436.607 264.89 438.692 262.893" stroke="#4245C3" stroke-width="31.5188" stroke-linecap="round"/>
<path d="M439.893 260.664C442.661 260.664 444.982 259.998 446.368 262.731C447.484 264.932 447.088 267.553 447.088 269.928C447.088 273.046 448.004 277.723 446.648 280.608C443.858 286.547 437.053 288.438 430.86 288.226C421.922 287.92 417.274 276.047 421.987 269.277C426.825 262.327 437.387 261.018 445.369 261.391C454.48 261.817 460.225 267.532 461.317 275.9C461.68 278.678 461.884 282.174 461.317 284.934C460.384 289.476 454.572 290.143 450.645 290.638C441.664 291.77 433.99 288.402 429.261 280.8C426.253 275.964 425.34 266.492 429.101 261.889C432.658 257.537 441.055 253.789 446.728 256.606C454.295 260.364 461.612 266.611 462.756 275.134C463.69 282.089 462.556 288.221 455.322 291.327C445.187 295.678 433.192 296.145 428.382 284.628C426.621 280.411 424.659 276.047 425.544 271.383C426.124 268.329 433.665 265.113 436.296 264.798" stroke="#4245C3" stroke-width="31.5188" stroke-linecap="round"/>
<path d="M546.373 279.957C541.336 279.957 541.057 279.573 538.459 275.286C534.33 268.475 540.001 264.281 546.333 262.386C556.314 259.398 559.68 269.214 561.162 276.511C563.073 285.926 563.694 294.369 551.809 295.652C544.65 296.424 537.022 292.557 535.021 285.469C533.063 278.53 535.001 273.621 540.257 268.587C551.171 258.135 566.604 272.056 565.039 284.053C564.379 289.11 554.016 290.353 550.29 291.326C542.44 293.376 535.501 293.768 534.302 285.01C533.267 277.45 534.681 270.509 537.739 263.572C539.769 258.967 546.165 259.322 550.53 259.285C557.23 259.228 561.838 260.019 567.557 263.419C573.649 267.041 579.663 273.072 576.91 280.607C574.964 285.931 569.114 287.038 565.079 290.292C561.042 293.548 550.149 291.728 545.653 290.292" stroke="#4245C3" stroke-width="31.5188" stroke-linecap="round"/>
<path d="M708.664 366.814C703.628 366.814 703.349 366.43 700.75 362.143C696.621 355.332 702.293 351.138 708.624 349.243C718.605 346.255 721.972 356.071 723.453 363.368C725.365 372.783 725.986 381.226 714.1 382.509C706.942 383.281 699.313 379.415 697.313 372.326C695.355 365.387 697.293 360.478 702.549 355.444C713.462 344.992 728.896 358.913 727.33 370.91C726.67 375.967 716.307 377.21 712.581 378.183C704.732 380.233 697.793 380.625 696.594 371.867C695.558 364.307 696.973 357.366 700.031 350.429C702.061 345.824 708.457 346.179 712.821 346.142C719.521 346.085 724.129 346.876 729.848 350.276C735.941 353.898 741.955 359.929 739.201 367.464C737.256 372.788 731.406 373.895 727.37 377.149C723.334 380.405 712.441 378.585 707.945 377.149" stroke="#4245C3" stroke-width="31.5188" stroke-linecap="round"/>
<path d="M290.77 366.814C295.807 366.814 296.086 366.43 298.684 362.143C302.813 355.332 297.142 351.138 290.81 349.243C280.829 346.255 277.463 356.071 275.981 363.368C274.07 372.783 273.449 381.226 285.334 382.509C292.492 383.281 300.121 379.415 302.122 372.326C304.08 365.387 302.142 360.478 296.886 355.444C285.972 344.992 270.539 358.913 272.104 370.91C272.764 375.967 283.127 377.21 286.853 378.183C294.703 380.233 301.642 380.625 302.841 371.867C303.876 364.307 302.462 357.366 299.404 350.429C297.373 345.824 290.978 346.179 286.613 346.142C279.913 346.085 275.305 346.876 269.586 350.276C263.494 353.898 257.479 359.929 260.233 367.464C262.179 372.788 268.029 373.895 272.064 377.149C276.101 380.405 286.994 378.585 291.49 377.149" stroke="#4245C3" stroke-width="31.5188" stroke-linecap="round"/>
<path d="M499.717 352.16C493.721 352.16 475.732 352.16 481.729 352.16C487.71 352.16 493.692 352.16 499.674 352.16C501.366 352.16 513.542 352.466 513.795 354.407C514.448 359.406 510.384 361.987 507.191 366.392C505.149 369.208 503.083 372.321 501.455 375.381C500.526 377.127 500.033 379.489 498.544 380.915C497.798 381.63 490.57 370.76 489.376 369.388C486.007 365.517 483.818 360.992 480.599 357.029C479.481 355.652 477.818 354.732 477.818 352.909" stroke="#4245C3" stroke-width="31.5188" stroke-linecap="round"/>
<path d="M553.03 393.626C558.835 394.469 560.123 394.79 560.918 399.935C561.62 404.468 562.094 411.773 560.227 416.019C555.38 427.045 541.089 431.48 529.649 431.48C518.777 431.48 510.475 427.427 507.651 416.759C505.68 409.313 505.384 401.508 508.383 394.327" stroke="#4245C3" stroke-width="31.5188" stroke-linecap="round"/>
<path d="M498.872 394.327C498.872 389.705 498.948 403.57 498.872 408.191C498.707 418.113 488.353 424.254 479.923 427.663C464.121 434.053 450.315 433.716 436.415 423.418C423.946 414.18 419.837 395.723 435.927 388.018" stroke="#4245C3" stroke-width="31.5188" stroke-linecap="round"/>
<path d="M473.673 437.466C473.673 465.899 469.343 498.652 488.896 522.564C496.501 531.865 511.642 533.723 522.19 527.574C533.662 520.886 534.905 509.172 535.703 497.324C536.698 482.548 535.837 467.438 535.837 452.623C535.837 447.848 537.472 439.815 534.63 435.732" stroke="#4245C3" stroke-width="31.5188" stroke-linecap="round"/>
<path d="M762.719 335.243C788.717 331.093 814.881 311.995 839.976 304.027C876.898 292.304 914.385 291.021 952.843 291.021" stroke="#4245C3" stroke-width="31.5188" stroke-linecap="round"/>
<path d="M798.026 402.878C846.395 402.878 887.31 404.229 933.829 418.486" stroke="#4245C3" stroke-width="31.5188" stroke-linecap="round"/>
<path d="M252.1 293.626C221.118 261.373 193.444 219.101 146.174 207.783" stroke="#4245C3" stroke-width="31.5188" stroke-linecap="round"/>
<path d="M222.223 353.454L62.2387 346.142" stroke="#4245C3" stroke-width="31.5188" stroke-linecap="round"/>
<path d="M782.793 598.203C775.463 599.373 767.908 609.609 761.93 614.294C755.615 619.242 748.958 622.734 743.263 628.491C726.607 645.329 700.504 655.673 677.599 662.985C671.445 664.95 665.434 666.825 659.262 668.139C649.223 670.275 667.345 660.249 669.693 658.779C681.654 651.289 694.704 648 708.894 644.476C720.763 641.529 734.292 642.66 745.679 639.428C752.539 637.482 756.374 631.87 762.04 627.65C773.114 619.401 783.053 619.026 796.628 619.026C811.082 619.026 820.558 623.032 834.182 627.019C847.871 631.025 863.067 640.965 875.798 647.421C892.339 655.808 906.871 667.258 922.026 677.709C938.976 689.396 949.787 708.612 965.619 720.406C970.366 723.942 974.29 727.55 976.929 732.605C979.479 737.489 983.344 753.561 981.541 748.38C977.154 735.774 962.289 721.993 954.09 711.467C945.15 699.99 935.55 689.076 925.211 678.76C910.427 664.011 892.908 649.462 873.712 640.27C848.727 628.305 822.424 625.01 796.628 616.187C790.298 614.021 788.722 610.106 788.722 603.882C788.722 601.824 793.691 606.956 794.872 607.984C806.178 617.828 818.241 627.22 829.241 637.325C866.93 671.949 893.65 718.413 925.321 757.845C931.745 765.844 938.13 776.829 945.744 783.716C961.197 797.693 924.772 748.231 912.583 731.554C895.767 708.546 880.062 684.599 865.257 660.356C863.276 657.113 850.239 640.902 859.986 642.268C905.242 648.611 934.208 696.24 952.333 731.764C955.158 737.301 957.075 742.993 959.58 748.591C964.362 759.276 942.029 732.497 933.885 723.877C922.927 712.277 910.65 699.439 902.701 685.596C896.658 675.074 925.172 707.543 925.43 707.891C941.426 729.446 955.645 751.942 967.266 775.934C971.492 784.658 974.223 790.788 964.851 778.458C944.085 751.139 923.47 723.729 902.371 696.639C891.993 683.313 882.133 669.587 871.626 656.36C864.455 647.334 868.472 658.854 869.869 662.565C884.465 701.348 906.961 737.725 924.223 775.513C930.345 788.917 936.716 802.179 943.548 815.266C945.115 818.267 950.467 826.835 948.16 824.31C923.795 797.641 897.902 772.289 873.712 745.436C864.025 734.682 854.803 723.657 846.041 712.203C843.667 709.1 838.778 704.529 838.135 700.425C837.761 698.037 840.504 700.915 840.66 701.056C852.922 712.087 864.36 724.113 875.359 736.286C897.004 760.241 917.714 784.671 936.631 810.638C937.854 812.318 948.727 826.286 942.231 816.738C911.309 771.294 881.376 725.425 852.849 678.55C846.035 667.353 839.227 656.233 831.766 645.423C830.048 642.933 824.519 637.148 824.519 633.539C824.519 629.044 830.567 640.436 833.194 644.161C845.55 661.685 857.649 679.385 869.43 697.27C888.075 725.576 907.252 754.901 919.94 786.24C923.537 795.125 921.061 794.569 914.12 787.923C899.604 774.02 887.426 757.996 875.798 741.86C856.622 715.248 838.162 687.597 822.762 658.779C822.331 657.972 815.021 644.325 817.491 647C827.104 657.408 836.148 668.463 844.504 679.812C862.556 704.332 880.651 730.55 892.928 758.266C898.361 770.531 903.782 782.88 888.316 766.048C865.952 741.708 845.456 715.701 827.154 688.436C823.591 683.127 802.195 650.141 820.127 672.03C840.325 696.685 858.268 726.237 873.712 753.849C873.976 754.321 885.021 775.621 882.936 775.513C873.448 775.022 858.237 752.066 853.727 746.698C829.525 717.885 809.055 687.122 790.26 654.888C785.849 647.323 771.161 632.185 788.613 635.747C810.123 640.138 828.518 657.539 841.21 673.923C843.07 676.324 860.509 696.606 857.461 700.425C849.501 710.394 815.269 682.12 811.013 678.655C805.974 674.553 773.478 651.184 777.303 641.111C780.274 633.284 812.979 645.41 817.052 647.736C830.897 655.646 845.863 675.1 840.331 691.275C826.544 731.584 752.813 714.496 746.777 676.657C745.404 668.053 748.599 662.985 758.636 662.985C780.321 662.985 790.837 678.869 792.346 697.901C793.958 718.225 791.745 742.168 774.008 755.952C749.913 774.679 729.609 759.896 723.498 734.498C718.622 714.234 708.507 656.247 750.73 669.085C775.035 676.475 769.435 742.089 750.29 732.605C737.665 726.351 737.533 698.971 737.333 687.594C737.106 674.661 735.633 664.16 751.828 662.985C784.996 660.579 791.872 720.862 772.252 737.022C757.898 748.845 732.623 752.403 718.227 738.915C705.915 727.38 704.808 699.574 709.882 684.65C711.848 678.866 715.597 673.245 721.521 670.557C728.385 667.444 724.869 681.008 724.596 682.967C721.397 705.942 711.839 725.806 699.341 745.541C696.215 750.477 685.256 767.296 678.148 757.425C665.023 739.197 668.156 706.731 668.156 685.281C668.156 681.495 668.156 677.709 668.156 673.923C668.156 663.278 679.487 679 683.089 682.126C691.302 689.251 698.598 694.86 702.635 705.052C706.968 715.994 705.376 715.465 705.819 702.949C706.191 692.448 707.58 681.242 710.102 670.978C712.636 660.662 700.284 689.976 695.168 699.373C689.55 709.694 687.699 720.796 682.98 731.343C679.262 739.651 680.015 721.133 680.015 719.354C680.015 710.836 680.015 702.318 680.015 693.799C680.015 686.736 676.698 713.414 675.842 716.83C672.208 731.332 667.401 746.219 661.787 760.159C661.545 760.76 655.62 771.582 654.76 769.624C652.177 763.75 658.462 715.989 663.215 715.989C665.567 715.989 654.424 747.074 653.881 748.591C645.254 772.701 638.589 797.357 631.042 821.786C628.275 830.739 627.316 843.02 621.159 850.391C613.04 860.111 633.534 828.448 638.508 816.948C647.242 796.757 655.464 775.897 661.128 754.69C662.455 749.722 666.114 735.971 662.885 749.747C655.209 782.498 647.207 815.247 638.948 847.867C631.623 876.795 625.876 907.293 614.131 934.945C602.521 962.28 638.825 880.288 644.218 851.233C644.679 848.753 650.08 830.157 646.085 836.614C632.922 857.889 624.728 882.479 612.924 904.552C607.005 915.618 601.089 928.858 591.511 937.679C588.95 940.038 599.66 907.596 601.394 903.605C609.311 885.387 615.63 866.442 624.453 848.603C631.234 834.893 625.056 850.071 622.477 855.124C603.982 891.354 585.397 927.633 563.84 962.288C547.33 988.831 584.947 903.868 597.002 875.21C599.236 869.899 617.754 828.709 602.712 852.284C587.749 875.734 573.571 900.139 561.864 925.269C552.25 945.907 538.69 964.451 516.844 973.961C504.508 979.331 484.717 973.338 471.604 975.013C460.902 976.38 450.698 976.801 439.76 976.801C421.525 976.801 451.037 976.801 455.792 976.801C498.484 976.801 541.759 978.544 584.155 975.013C609.525 972.9 634.941 969.229 660.469 969.229C678.766 969.229 695.706 968.319 713.725 965.443C725.748 963.524 739.169 960.231 750.73 956.399C760.096 953.293 769.734 953.434 779.499 951.771C792.301 949.591 804.985 946.922 817.491 943.568C830.622 940.047 844.734 928.984 857.9 927.583C863.008 927.039 857.9 917.773 857.9 915.279C857.9 912.384 865.574 910.343 868.661 908.653C888.831 897.614 895.481 880.005 893.257 858.173C890.166 827.826 865.01 808.45 852.849 782.244C847.053 769.755 867.31 784.891 869.759 788.343C883.347 807.503 883.915 835.555 880.74 857.753C879.346 867.494 871.442 887.123 857.9 886.042C836.382 884.325 840.111 828.181 840.111 815.266C840.111 803.587 836.404 780.338 851.97 775.092C870.526 768.839 873.939 806.175 874.81 815.476C877.097 839.902 879.801 875.147 865.037 896.664C858.352 906.408 845.054 915.188 832.315 913.386C812.789 910.623 804.668 887.623 800.362 872.266C790.337 836.518 782.579 786.682 801.57 752.271C807.804 740.976 820.708 724.57 830.449 741.755C847.566 771.954 844.806 817.556 839.892 850.391C837.774 864.542 828.833 905.57 808.487 908.863C790.752 911.734 795.373 835.653 796.299 826.098C798.229 806.192 803.606 785.882 809.256 766.679C811.553 758.873 814.31 748.945 820.237 742.701C827.223 735.341 834.025 745.148 836.158 751.115C849.674 788.911 843.083 839.194 833.962 877.103C832.248 884.227 816.51 925.095 808.487 901.292C801.725 881.226 802.62 858.128 802.558 837.351C802.499 817.621 803.313 797.97 806.511 778.458C807.333 773.438 810.648 741.007 821.444 742.386C835.021 744.12 831.956 778.736 832.096 786.345C832.628 815.412 831.925 845.901 819.907 873.107C814.231 885.956 795.199 912.463 782.134 890.565C767.587 866.183 774.423 832.823 785.977 808.956C792.403 795.681 803.763 771.792 818.26 764.155C832.026 756.904 830.086 803.782 830.119 806.222C830.598 841.277 828.759 877.121 817.382 910.756C812.783 924.352 807.743 931.645 804.974 912.439C800.127 878.831 804.291 842.143 819.688 811.269C830.573 789.442 847.798 786.547 847.798 814.109C847.798 834.07 834.226 851.067 819.029 863.642C814.851 867.099 784.704 884.907 781.256 875C772.772 850.626 797.181 821.319 812.001 804.329C825.324 789.055 839.033 776.781 860.755 776.565C878.597 776.387 875.895 809.595 875.469 819.998C874.36 847.091 864.759 875.177 840.002 890.985C827.977 898.663 809.906 902.243 795.53 900.661C776.953 898.615 788.354 879.639 796.189 872.055C817.134 851.785 863.955 846.641 859.547 886.042C856.572 912.634 826.572 922.359 802.229 924.007C774.147 925.909 758.167 906.845 759.844 880.889C761.783 850.858 785.367 830.932 813.978 822.207C830.7 817.107 860.358 818.556 869.759 835.458C900.866 891.384 786.113 920.485 752.816 887.094C727.609 861.816 726.972 830.223 744.141 801.384C755.268 782.695 773.394 765.232 796.628 761.841C813.824 759.332 818.913 774.626 815.515 788.554C810.026 811.054 782.324 812.313 766.102 800.963C754.183 792.624 746.951 775.669 749.412 761.526C749.917 758.626 753.086 756.691 756.11 757.95C763.029 760.831 763.236 774.171 763.797 779.72C766.183 803.34 770.098 835.337 762.149 858.173C761.263 860.72 752.504 883.062 747.216 873.528C737.507 856.024 740.961 828.96 741.396 810.007C741.615 800.456 742.291 790.892 744.251 781.508C744.291 781.317 746.807 769.944 748.094 775.934C750.758 788.323 749.192 802.306 749.192 814.845C749.192 829.231 749.728 843.796 746.008 857.858C744.432 863.815 739.961 884.946 732.282 887.62C723.821 890.567 724.01 839.776 723.937 837.14C723.184 809.972 724.731 783.226 725.474 756.163C726.577 716.033 730.12 836.938 723.498 876.578C722.231 884.162 721.512 858.199 721.521 857.332C721.841 828.901 727.469 801.232 729.867 772.989C729.923 772.33 730.646 761.875 730.525 762.052C725.569 769.298 722.554 778.952 719.106 786.871C707.495 813.53 700.022 841.29 691.435 868.9C684.172 892.25 688.831 847.323 689.238 842.819C691.834 814.121 695.468 784.567 700.658 756.163C702.888 743.96 699.674 753.837 696.925 759.948C685.978 784.281 674.187 808.345 666.179 833.775C664.435 839.316 660.25 855.968 660.25 850.181C660.25 827.854 664.977 805.785 667.936 783.716C669.147 774.69 669.777 765.59 671.121 756.583C671.826 751.853 672.109 749.656 672.109 757.004C672.109 797.126 667.05 836.781 663.324 876.683C661.881 892.145 658.92 907.884 658.273 923.376C658.182 925.566 658.646 918.993 659.152 916.856C661.759 905.848 667.731 895.605 674.964 886.779C710.97 842.839 774.604 842.386 815.076 880.153C823.776 888.272 827.716 895.045 814.417 900.03C775.182 914.734 729.923 919.57 688.14 921.483C676.44 922.019 664.712 921.904 653.003 921.904C650.729 921.904 644.137 922.411 646.195 921.483C650.885 919.369 657.597 920.037 662.446 920.011C681.185 919.91 699.927 920.011 718.666 920.011C734.757 920.011 756.771 916.278 772.471 921.063C776.24 922.211 776.629 923.4 772.032 924.007C751.068 926.777 729.917 928.335 708.894 930.633C670.57 934.822 632.477 940.307 594.586 947.144C569.697 951.635 596.591 947.216 605.786 944.199C648.573 930.162 692.66 911.894 738.98 916.33C780.414 920.299 656.297 926.91 615.779 936.101C570.569 946.357 708.801 933.523 754.902 928.004C765.533 926.731 783.314 922.456 794.103 925.9C798.98 927.457 785.749 931.871 780.926 933.578C761.193 940.562 740.591 945.564 720.423 951.245C690.13 959.779 660.022 966.528 628.845 971.122C627.178 971.367 607.462 973.015 618.084 973.015C638.492 973.015 658.752 972.541 679.136 971.542C686.103 971.201 715.956 973.462 721.082 966.915C724.546 962.492 690.346 949.927 688.689 949.247C670.182 941.65 652.6 932.104 634.006 924.849C624.11 920.987 637.779 918.895 642.681 917.066C663.066 909.462 684.028 903.686 704.831 897.295C712.159 895.044 718.481 893.509 726.133 893.509C739.306 893.509 699.603 892.678 686.823 889.618C685.121 889.211 656.788 879.203 666.838 876.578C684.16 872.053 706.945 873.32 724.596 874.79C727.824 875.059 746.493 878.906 738.871 883.834C724.141 893.356 704.297 897.241 687.701 902.343C664.373 909.516 641.135 916.996 617.426 922.956C606.536 925.693 573.555 931.369 584.813 931.369C603.444 931.369 622.074 931.369 640.704 931.369C680.09 931.369 718.59 933.851 757.977 933.262C777.608 932.968 796.02 928.304 814.746 923.061C826.48 919.776 837.293 920.483 843.186 908.969C855.144 885.604 861.64 861.39 872.175 837.771C885.821 807.177 917.814 797.825 950.576 800.963C957.536 801.63 965.853 805.581 970.341 810.954C972.767 813.858 967.09 804.195 965.619 800.753C960.383 788.494 959.955 770.297 968.584 759.528C970.778 756.789 972.627 752.835 975.502 750.694C978.015 748.822 982.394 749.2 984.396 746.803C987.237 743.401 990.289 755.942 990.326 757.214C990.845 775.117 991.389 793.29 986.373 810.638C979.803 833.358 978.332 856.187 973.525 879.207C971.704 887.93 970.561 896.199 970.561 905.078C970.561 912.083 970.561 908.464 970.561 903.816C970.561 896.948 965.957 864.703 971.659 860.803C973.721 859.392 984.396 902.053 984.396 907.496C984.396 926.451 990.326 869.872 990.326 850.917C990.326 846.259 989.001 833.241 985.933 829.568C982.076 824.951 973.242 813.669 966.608 814.004C956.662 814.505 949.512 847.614 948.929 854.598C948.672 857.678 950.277 866.351 948.38 863.852C944.934 859.315 944.652 847.68 943.329 841.978C941.683 834.885 941.864 835.52 943.768 842.293C947.362 855.08 933.511 846.076 927.846 841.662C917.924 833.931 895.917 814.546 894.904 800.963C894.641 797.431 902.511 802.45 905.226 804.854C918.031 816.192 928.797 829.793 938.717 843.45C953.999 864.49 968.82 885.957 980.004 909.284C982.352 914.181 988.768 924.579 977.588 920.642C958.083 913.774 941.956 895.584 932.129 878.471C923.886 864.118 938.395 864.786 949.258 871.635C958.538 877.485 966.468 886.726 970.121 896.875C972.946 904.719 951.412 900.435 948.38 899.819C931.423 896.374 916.902 888.017 906.544 874.79C905.307 873.21 893.778 860.254 899.736 859.541C922.42 856.825 943.367 883.468 954.309 899.188C956.026 901.654 958.835 910.344 956.396 913.07C952.758 917.135 930.821 893.344 928.395 890.88C927.16 889.625 913.611 872.897 916.317 872.897C921.432 872.897 919.933 875.843 915.328 867.849C911.852 861.814 901.464 840.11 915.658 853.126C936.968 872.666 959.279 892.491 971.439 918.959C975.785 928.419 977.374 931.752 972.537 941.886C967.259 952.943 949.734 940.445 942.89 935.576C931.597 927.542 923.678 915.11 913.462 906.024C905.236 898.708 911.121 901.709 917.195 904.867C932.271 912.705 951.125 935.153 954.858 951.245C955.788 955.251 959.862 961.657 952.772 961.657C934.488 961.657 920.901 956.319 909.289 942.727C906.063 938.95 864.077 886.943 873.712 882.572C879.816 879.803 899.469 880.602 901.383 887.935C904.286 899.057 903.359 910.493 903.359 921.904C903.359 933.614 906.713 942.981 909.289 954.085C911.434 963.33 916.739 963.393 924.113 968.282C929.541 971.882 934.829 975.738 938.497 981.007C938.827 981.481 912.551 982.48 909.509 982.48C882.421 982.48 871.701 977.985 865.806 950.089C865.035 946.438 856.709 923.797 864.818 923.797C871.55 923.797 876.822 926.001 879.202 932.841C882.932 943.559 883.594 958.721 883.594 970.175C883.594 972.808 886.693 980.422 883.594 980.587C877.674 980.902 871.629 980.587 865.696 980.587C852.456 980.587 834.441 983.73 821.884 980.166C807.571 976.104 788.931 978.694 774.008 978.694C756.513 978.694 739.017 978.694 721.521 978.694C681.65 978.694 642.919 986.266 602.931 986.266C593.378 986.266 583.825 986.266 574.272 986.266C569.484 986.266 586.054 982.48 589.535 982.48C620.623 982.48 651.2 984.777 681.991 988.053C723.475 992.468 768.335 988.159 810.025 988.159C826.975 988.159 845.304 989.91 860.755 982.9C865.331 980.824 876.921 979.333 867.563 973.856C849.114 963.058 825.863 957.844 805.962 949.458C804.516 948.848 795.382 946.655 797.507 944.62C803.126 939.238 814.684 938.58 821.884 937.048C825.363 936.308 864.265 928.805 856.802 937.994C849.957 946.423 833.392 951.155 823.641 955.137C797.717 965.721 770.195 977.122 742.165 981.638C728.247 983.881 705.854 988.008 700.219 973.435C694.267 958.043 672.598 943.989 657.505 938.1C647.952 934.372 638.316 935.155 628.187 935.155C622.197 935.155 616.036 934.763 610.069 935.26C604.604 935.715 605.567 939.834 606.994 937.784C619.508 919.806 635.329 903.244 652.124 888.882C667.424 875.799 657.487 885.97 647.512 889.723C614.667 902.082 599.87 928.99 587.229 958.502C581.147 972.7 573.257 973.77 559.887 981.007C549.998 986.361 542.808 990.052 531.338 990.052C509.164 990.052 486.852 986.905 465.564 982.375C444.267 977.842 419.519 980.587 397.375 980.587C368.975 980.587 341.489 974.908 312.495 974.908C296.986 974.908 278.378 974.288 263.852 969.229C248.325 963.821 242.23 953.118 237.279 938.1C228.629 911.867 227.137 882.579 224.651 855.334C222.448 831.188 221.467 806.587 221.467 782.349C221.467 750.16 225.232 722.482 234.314 691.17C237.924 678.724 269.899 677.552 280.322 674.343C289.458 671.531 300.732 663.595 310.409 662.565C329.725 660.509 305.971 651.207 297.562 651.207C280.284 651.207 260.245 637.022 247.051 627.545C232.841 617.337 217.989 607.939 205.654 595.469C203.141 592.928 201.936 591.387 198.737 589.685C195.241 587.825 195.368 591.932 192.588 593.366C183.219 598.197 171.725 597.545 162.611 603.041C154.968 607.649 145.377 610.313 138.563 616.187C128.796 624.606 122.286 633.147 113.747 642.583C107.357 649.645 110.247 653.195 104.414 653.1C89.4861 652.858 79.5777 648.756 66.3112 656.781C52.0326 665.418 45.0124 676.57 35.6754 689.487C31.3838 695.424 27.59 701.322 22.938 707.05C20.6092 709.918 11.5984 729.163 19.8634 721.247C34.5323 707.198 51.2339 694.466 65.1033 679.707C73.1327 671.162 81.5713 657.529 93.9822 654.888C96.7544 654.298 97.8689 651.36 100.9 651.207C106.037 650.948 111.093 652.441 116.053 653.521C130.483 656.662 141.88 660.672 157.12 660.672C182.01 660.672 206.899 660.672 231.788 660.672C248.955 660.672 261.941 672.03 278.785 672.03C294.152 672.03 305.645 690.679 313.374 701.371C320.854 711.72 327.758 721.772 330.613 734.078C332.798 743.492 335.91 758.428 340.935 766.679C345.02 773.387 351.314 787.72 351.916 795.495C352.673 805.292 359.594 813.305 362.237 822.417C368.904 845.404 386.764 864.957 391.006 888.882C392.689 898.372 395.769 940.834 410.222 940.834C419.53 940.834 407.488 941.73 405.72 940.413C404.652 939.617 408.266 947.834 409.234 949.458C410.952 952.336 413.528 959.249 415.603 961.236C417.154 962.721 419.65 956.453 411.211 955.978C403.888 955.565 400.912 920.454 393.422 913.28C387.843 907.937 393.622 922.617 395.399 924.744C398.579 928.551 399.992 931.11 404.293 934.314C409.086 937.884 414.88 943.236 417.579 948.406C418.14 949.479 423.997 960.388 422.96 954.926C421.541 947.454 412.54 940.214 407.258 935.155C399.911 928.119 394.13 921.386 388.151 913.07C373.586 892.809 359.748 874.19 342.912 855.439C315.565 824.985 294.842 787.739 277.248 751.535C266.877 730.194 256.104 709.224 245.294 688.12C242.471 682.609 239.631 674.211 234.314 670.137C232.059 668.409 236.611 667.881 238.267 670.347C246.702 682.914 254.07 696.228 262.534 708.838C277.788 731.564 290.993 755.464 306.456 778.037C314.634 789.975 325.086 801.438 332.151 814.004C336.862 822.383 335.982 817.459 331.602 811.585C315.895 790.525 304.173 767.374 293.938 743.437C285.398 723.464 259.559 664.489 272.856 681.915C278.517 689.336 287.434 702.909 298.55 702.318C302.791 702.092 303.478 697.127 304.48 694.009C305.593 690.542 308.673 691.463 311.397 690.013C316.112 687.505 321.913 687.055 326.221 683.388C328.679 681.295 331.954 680.481 326.66 678.655C315.745 674.892 304.082 673.53 292.84 671.083C279.379 668.153 270.359 660.287 257.922 654.993C243.424 648.821 228.591 643.511 217.514 632.277C210.963 625.635 208.026 622.269 196.98 621.024C186.97 619.896 193.407 629.559 197.309 632.277C216.494 645.64 232.654 664.145 248.698 680.653C269.749 702.313 291.104 725.319 306.456 751.115C316.573 768.114 322.473 783.445 327.1 802.436C328.5 808.184 327.566 813.94 328.637 819.683C330.923 831.946 336.438 842.792 342.692 853.546C350.677 867.278 358.246 879.659 367.618 892.563C370.869 897.039 382.962 908.599 379.696 904.131C374.478 896.991 365.897 891.023 359.712 884.675C347.121 871.755 335.134 858.278 322.927 845.028C311.906 833.065 299.169 821.901 289.107 809.166C285.576 804.698 292.917 810.186 293.279 810.428C302.277 816.44 311.22 822.662 319.852 829.148C330.446 837.107 341.618 846.994 348.621 858.173C352.267 863.992 351.663 867.282 343.57 863.011C319.239 850.17 294.429 830.695 276.15 810.638C275.163 809.556 257.499 789.447 261.875 787.923C273.157 783.993 289.648 797.813 296.793 804.118C310.153 815.908 318.338 832.807 326.88 847.867C327.658 849.239 334.964 864.717 328.856 857.753C308.994 835.106 294.344 803.68 282.189 776.775C275.677 762.361 270.563 747.473 265.389 732.605C263.858 728.206 285.731 736.76 286.691 737.233C304.308 745.901 319.653 758.525 332.041 773.199C337.279 779.405 343.381 791.494 350.708 795.705C353.238 797.159 347.916 790.717 346.316 788.343C338.774 777.159 331.886 765.6 325.562 753.744C317.06 737.804 311.907 720.541 303.601 704.631C300.121 697.966 300.391 705.718 300.966 708.838C303.365 721.856 312.805 734.609 318.095 746.698C326.768 766.513 334.135 786.744 343.9 806.116C351.636 821.464 361.689 836.008 367.728 852.074C373.993 868.743 378.302 885.137 385.516 901.502C391.065 914.09 397.018 926.052 401.767 938.941C402.554 941.075 383.988 925.283 382.442 923.271C366.706 902.798 352.969 880.324 339.178 858.594C336.793 854.836 326.283 842.451 333.908 853.967C349.057 876.847 362.117 901.146 374.975 925.269C377.671 930.328 387.273 941.354 387.273 947.249C387.273 952.382 377.188 943.63 372.559 941.044C357.422 932.587 342.729 923.473 328.637 913.491C318.968 906.642 297.13 894.754 291.962 883.203C291.791 882.822 317.975 892.425 320.182 893.614C326.115 896.811 331.793 900.426 337.86 903.395C342.583 905.706 355.659 906.329 352.135 910.125C349.572 912.887 327.339 907.621 324.245 907.181C312.219 905.472 300.424 902.975 288.668 900.03C284.381 898.956 279.755 898.001 275.601 896.454C271.296 894.851 284.526 898.913 288.668 900.871C316.258 913.916 344.339 929.454 369.485 946.513C369.697 946.657 384.362 956.091 383.1 957.45C381.781 958.871 372.409 957.871 371.9 957.871C357.873 957.871 343.742 958.319 329.735 957.45C320.382 956.87 294.104 957.899 287.57 950.299C284.976 947.283 295.568 948.406 299.648 948.406C311.181 948.406 322.617 948.679 333.908 951.14C343.718 953.279 391.851 965.443 354.661 965.443C340.423 965.443 326.184 965.443 311.946 965.443C302.689 965.443 301.704 965.443 311.727 965.443C327.643 965.443 346.508 967.141 360.7 974.908C367.579 978.672 357.645 983.751 354.99 984.478C349.362 986.018 359.54 993.072 361.359 991.524C363.107 990.036 363.422 987.311 363.884 985.319C364.638 982.072 368.289 982.812 370.692 981.533C376.888 978.237 396.873 980.587 374.975 980.587C358.226 980.587 341.429 980.951 324.684 980.587C316.748 980.414 310.381 976.801 302.503 976.801C289.841 976.801 277.443 975.24 264.95 974.908C255.121 974.646 245.245 974.908 235.412 974.908C229.242 974.908 203.642 975.767 223.772 974.803C243.363 973.864 263.39 968.246 283.177 971.542C291.604 972.946 299.187 977.041 307.444 978.799C312.111 979.792 315.617 984.733 318.754 987.738C328.048 996.639 310.314 994.331 304.48 993.417C287.542 990.762 271.764 982.48 254.628 982.48C240.249 982.48 223.881 980.632 209.607 982.585C195.645 984.495 181.608 986.153 168.101 981.533C161.721 979.351 151.131 979.017 144.383 978.694C138.09 978.392 132.485 975.221 126.594 974.908C122.128 974.67 116.133 974.084 111.771 975.013C106.275 976.183 120.266 978.694 122.641 978.694C127.898 978.694 132.954 981.026 137.465 983.426C142.416 986.061 163.695 991.945 146.25 991.945C126.509 991.945 114.944 981.738 98.9234 974.066C82.5068 966.205 66.2767 957.942 51.0482 948.406C37.0508 939.64 39.6284 926.309 39.6284 911.387C39.6284 884.128 38.6905 857.977 35.5656 831.041C33.13 810.046 33.6989 788.852 33.6989 767.626C33.6989 747.764 33.8216 734.62 43.1422 716.41C47.2429 708.398 52.4613 706.514 58.9542 700.95C67.0813 693.986 75.2634 687.764 84.8683 682.757C94.2148 677.884 104.518 676.151 113.198 670.137C116.485 667.86 144.245 657.341 143.175 656.886C128.08 650.46 145.862 640.309 153.497 636.063C162.018 631.324 189.189 621.038 196.87 631.856C202.604 639.933 183.854 638.341 179.96 637.009C178.96 636.667 173.538 634.786 176.446 632.698C182.161 628.593 197.219 635.056 201.921 637.535C212.746 643.243 250.841 691.952 215.976 684.439C210.695 683.301 194.235 677.064 194.235 670.347C194.235 661.776 224.293 690.147 225.31 691.38C239.184 708.212 253.512 729.791 258.142 751.115C261.021 764.378 255.029 768.378 242.769 760.159C219.851 744.794 201.073 722.935 186.548 700.214C182.323 693.604 173.52 680.193 186.329 693.799C213.593 722.76 233.67 756.666 251.114 791.709C254.41 798.33 257.047 805.079 258.8 812.216C259.111 813.48 249.799 796.328 249.687 796.126C233.991 767.763 221.598 738.072 207.851 708.838C204.921 702.607 201.548 696.409 199.286 689.908C197.442 684.61 206.515 698.673 210.266 702.949C259.679 759.265 306.795 822.86 335.555 891.721C336.028 892.854 336.498 895.102 334.347 893.299C324.61 885.14 317.868 872.17 312.386 861.328C293.289 823.565 284.099 782.315 266.267 744.174C266.03 743.666 258.287 727.792 263.632 739.546C272.162 758.305 281.51 776.708 289.985 795.495C298.5 814.369 306.843 833.363 314.142 852.705C317.066 860.453 323.63 871.445 323.805 879.838C323.885 883.659 315.578 880.853 311.837 879.522C295.106 873.57 284.359 859.776 273.075 847.236C255.689 827.915 243.313 809.738 232.776 786.45C232.54 785.927 232.756 784.306 233.106 784.768C241.225 795.486 246.695 808.643 251.992 820.734C267.054 855.113 276.01 890.017 281.86 926.742C285.201 947.723 277.005 909.015 276.699 907.076C270.645 868.809 266.343 829.894 265.059 791.183C265.033 790.398 263.735 775.383 266.377 785.504C270.843 802.611 275.408 819.693 279.773 836.825C286.544 863.395 298.55 892.863 298.55 920.537C298.55 932.077 289.875 898.904 287.35 887.62C282.958 867.992 278.082 847.89 278.785 827.675C279.04 820.364 296.729 837.374 297.342 837.982C312.74 853.246 322.551 875.715 326.221 896.454C327.733 904.999 331.04 916.25 320.292 920.011C309.887 923.652 299.736 922.619 294.597 912.229C286.086 895.021 283.647 874.18 281.201 855.439C279.739 844.238 285.173 850.134 290.864 856.281C310.09 877.045 322.586 904.164 332.26 930.107C334.489 936.084 341.279 957.24 328.307 957.24C303.593 957.24 285.012 932.123 275.052 913.701C258.017 882.197 253.455 843.389 247.6 808.746C247.142 806.033 241.678 771.746 244.636 789.395C251.891 832.692 255.378 876.078 258.032 919.801C258.14 921.58 259.181 945.209 257.593 942.517C242.892 917.607 241.044 886.37 236.51 858.804C233.755 842.059 231.349 825.697 231.349 808.746C231.349 798.388 235.778 829.034 238.596 839.033C244.544 860.135 248.489 881.126 252.102 902.659C252.965 907.798 259.055 927.451 248.589 915.068C213.961 874.101 216.239 816.958 209.168 767.52C207.217 753.881 204.505 768.748 204.117 773.62C201.291 809.113 197.311 844.545 194.674 880.048C193.475 896.185 193.796 912.365 193.796 928.53C193.796 935.665 192.403 944.3 194.784 951.14C195.287 952.587 195.198 958.6 197.749 957.45C203.279 954.958 205.532 954.231 212.243 954.085C234.499 953.6 217.092 889.244 213.561 879.943C210.685 872.37 207.787 861.971 200.713 856.701C194.105 851.779 199.119 861.841 199.835 863.642C205.884 878.851 208.894 895.149 211.584 911.177C212.221 914.971 218.082 935.589 209.388 932C199.314 927.841 191.157 920.931 180.289 918.328C178.668 917.94 165.978 914.016 168.321 919.065C171.683 926.31 189.74 926.027 191.38 936.627C192.413 943.307 133.959 942.711 129.449 942.727C111.795 942.791 58.9115 939.657 76.5231 940.834C92.3287 941.89 108.645 950.389 122.202 957.661C128.188 960.871 143.135 964.926 147.128 970.28C150.488 974.785 125.989 968.89 125.716 968.808C115.182 965.665 104.983 961.654 94.5312 958.291C91.0634 957.176 78.7569 955.693 76.5231 952.192C76.2855 951.82 111.901 950.314 115.504 950.614C131.91 951.981 147.446 958.651 163.599 961.552C168.772 962.481 178.387 965.611 166.674 962.919C139.121 956.586 113.268 940.889 88.0527 929.055C76.0412 923.418 62.3194 919.404 51.0482 912.439C42.6186 907.231 57.564 908.623 60.7111 908.653C82.3456 908.86 103.003 913.168 123.959 918.013C131.591 919.777 138.781 922.113 145.81 925.48C148.19 926.619 153.601 930.288 156.462 929.897C160.588 929.332 152.18 923.046 150.093 919.59C139.047 901.298 130.19 881.842 122.202 862.17C116.837 848.956 108.806 831.25 108.806 816.738C108.806 811.139 117.442 810.854 121.763 812.111C130.261 814.582 134.105 832.289 136.697 838.823C141.07 849.848 143.896 860.729 146.359 872.266C148.185 880.814 155.603 917.112 151.191 886.042C144.226 836.993 145.487 786.333 146.469 736.917C146.666 727.048 150.776 700.542 151.85 728.188C153.845 779.573 153.836 831.834 151.85 883.203C151.698 887.123 148.574 909.131 148.446 908.022C146.961 895.222 149.574 880.326 150.532 867.744C152.858 837.19 156.755 806.898 161.183 776.565C164.47 754.05 168.021 731.591 171.834 709.153C172.583 704.751 172.572 697.156 175.129 692.958C177.524 689.025 180.751 725.718 180.948 728.609C184.595 782.159 185.621 836.067 185.889 889.723C185.976 907.122 186.658 959.246 187.866 941.886C190.461 904.61 187.866 866.261 187.866 828.937C187.866 794.548 187.866 760.159 187.866 725.77C187.866 711.558 185.459 754.131 183.035 768.151C175.278 813.01 168.356 857.224 162.611 902.343C161.419 911.7 162.125 939.771 160.195 930.528C153.333 897.669 158.218 860.355 158.218 827.044C158.218 813.899 158.218 800.753 158.218 787.607C158.218 783.827 156.053 769.515 159.317 765.943C160.374 764.786 160.961 768.645 161.293 770.15C162.481 775.528 163.803 784.818 164.477 789.5C168.657 818.522 172.071 847.64 176.885 876.578C177.656 881.211 194.704 967.336 189.843 967.336C181.502 967.336 163.356 951.4 166.454 958.817C167.974 962.457 182.443 967.169 185.889 968.177C188.323 968.889 208.241 973.015 197.968 973.015C158.53 973.015 118.579 969.14 79.5976 963.97C68.22 962.462 56.8906 964.728 47.754 955.978C41.9664 950.435 41.6049 943.906 41.6049 936.627C41.6049 919.305 53.8941 933.009 59.3934 940.834C61.3596 943.632 63.3202 946.528 65.2131 949.247C66.0455 950.443 65.3097 946.37 65.2131 944.935C64.5107 934.509 63.0951 924.132 62.3582 913.701C59.9563 879.707 59.2388 845.751 59.3934 811.69C59.4704 794.724 64.1229 779.137 65.3229 762.472C66.2597 749.463 65.3229 788.554 65.3229 801.594C65.3229 818.133 68.3845 837.782 64.3347 854.072C63.7717 856.337 60.5799 859.791 59.2836 855.86C53.0247 836.877 53.6835 815.109 53.6835 795.495C53.6835 770.187 54.1317 728.413 74.327 707.997C80.1133 702.147 93.9361 696.579 101.998 693.799C111.099 690.661 196.968 646.468 197.749 660.672C198.676 677.542 181.144 681.667 166.564 686.963C153.691 691.64 140.935 697.409 128.571 702.738C115.624 708.318 107.667 717.758 99.8019 728.714C93.0477 738.123 82.5479 744.503 74.2172 752.482C68.8711 757.602 74.502 749.705 75.6446 747.96C82.3246 737.754 89.1915 727.692 96.5077 717.882C97.1359 717.04 105.746 705.972 103.645 706.419C96.472 707.946 90.631 721.066 87.0644 726.19C79.9771 736.372 76.191 749.237 74.1073 761.21C73.9025 762.388 71.2825 778.595 73.6681 779.509C78.2418 781.262 105.081 713.613 110.343 705.473C113.819 700.095 114.735 703.632 114.735 707.891C114.735 744.639 99.6833 782.593 90.4684 817.895C84.1652 842.043 79.816 866.513 74.1073 890.775C67.4697 918.985 92.5483 835.693 100.9 807.904C109.194 780.305 115.157 752.247 121.434 724.192C122.121 721.119 122.641 709.993 122.641 719.144C122.641 749.146 116.534 778.11 112.979 807.904C108.184 848.087 104.71 888.927 102.986 929.371C102.611 938.166 102.595 938.985 102.876 929.476C104.251 882.966 115.147 837.11 122.422 791.288C125.944 769.102 127.27 747.325 128.681 725.033C129.386 713.89 133.466 739.464 133.622 740.913C137.173 773.95 136.119 807.181 138.453 840.295C139.105 849.535 144.966 870.417 139.991 879.417C138.864 881.455 134.35 882.808 132.524 885.937C130.642 889.163 126.56 893.958 122.641 894.982C97.4129 901.571 96.869 804.76 96.0685 794.653C94.3178 772.552 92.9939 750.558 92.9939 728.399C92.9939 723.024 91.4399 713.064 95.4097 708.417C106.37 695.588 112.866 680.359 127.693 670.032C139.241 661.988 154.323 650.775 161.952 638.902C165.849 632.837 170.996 627.93 176.446 623.233C178.587 621.387 181.007 620.22 182.925 617.974C185.477 614.987 186.834 605.261 190.721 604.198C193.526 603.43 189.732 615.625 189.403 616.292C184.834 625.569 180.576 634.109 177.983 644.266C166.24 690.278 169.177 743.35 194.235 784.768C207.966 807.463 228.421 825.516 246.173 845.133C252.222 851.818 261.388 856.024 268.024 862.38C290.147 883.568 312.97 907.15 341.045 920.958C359.311 929.941 386.332 940.937 394.41 960.71C405.084 986.835 436.288 991.343 462.38 995.31C477.21 997.564 490.178 999.517 505.204 999.517C512.305 999.517 519.406 999.517 526.507 999.517C537.024 999.517 544.871 995.324 554.617 991.945C573.231 985.49 587.379 974.153 602.821 962.814C619.155 950.821 640.401 942.078 660.579 938.1C674.583 935.338 691.373 936.325 705.709 937.048C744.603 939.009 627.937 941.639 589.206 945.566C554.515 949.084 516.764 945.445 482.804 954.085C471.672 956.917 459.99 956.826 448.984 959.764C442.987 961.364 439.455 963.55 432.952 963.55C408.744 963.55 399.396 936.31 391.446 917.697C387.588 908.666 383.158 899.303 380.685 889.828C379.515 885.348 387.262 889.712 388.481 890.88C393.385 895.577 398.3 900.284 403.195 904.972C413.252 914.605 428.777 923.103 435.917 935.26C441.358 944.525 453.135 953.339 462.6 957.871" stroke="#4245C3" stroke-width="31.5188" stroke-linecap="round"/>
</svg>
