<svg width="37" height="37" viewBox="0 0 37 37" fill="none" xmlns="http://www.w3.org/2000/svg">
<rect x="-0.519772" y="0.519772" width="34.305" height="35.8643" rx="4.67795" transform="matrix(-1 0 0 1 35.3049 0)" fill="white" stroke="#4245C3" stroke-width="1.03954"/>
<path d="M20.3695 5.20888C20.3695 4.85894 20.6956 4.4637 20.9221 4.22396C21.1255 4.00874 21.3735 3.82281 21.613 3.64959C21.8376 3.48709 22.0835 3.37696 22.363 3.35154C22.6619 3.32438 22.8892 3.36301 23.1269 3.5509C23.3245 3.70711 23.4887 3.89888 23.5848 4.13316C23.7468 4.52828 23.8659 4.97973 23.9045 5.40428" stroke="#4245C3" stroke-width="1.03954" stroke-linecap="round"/>
<path d="M16.5934 4.98378C16.5934 4.63384 16.2672 4.23861 16.0407 3.99886C15.8374 3.78365 15.5894 3.59771 15.3499 3.42449C15.1252 3.26199 14.8794 3.15186 14.5999 3.12645C14.301 3.09928 14.0737 3.13791 13.836 3.3258C13.6384 3.48202 13.4742 3.67378 13.3781 3.90807C13.2161 4.30318 13.0969 4.75464 13.0583 5.17918" stroke="#4245C3" stroke-width="1.03954" stroke-linecap="round"/>
<path d="M28.0702 21.0366C29.1717 21.0366 30.2096 21.7039 31.1421 22.2316C32.0508 22.7458 32.8164 23.2843 33.5562 24.024C34.1003 24.5682 34.6243 25.134 35.1344 25.7079C35.1889 25.7692 35.5219 26.251 35.4573 26.251" stroke="#4245C3" stroke-width="1.03954" stroke-linecap="round"/>
<path d="M7.58716 20.3428C7.1387 20.5843 6.67939 20.8151 6.25323 21.0957C6.08247 21.2082 5.9317 21.3459 5.75897 21.4556C5.5521 21.5869 5.34413 21.7078 5.1303 21.827C4.57406 22.137 4.04316 22.5472 3.55646 22.9557C2.99598 23.4261 2.5059 23.9503 2.16328 24.5975C2.04393 24.8229 1.93114 25.0679 1.83811 25.3056C1.71182 25.6284 1.68717 25.9672 1.60398 26.2999" stroke="#4245C3" stroke-width="1.03954" stroke-linecap="round"/>
<path d="M23.0539 23.5034C23.0539 23.9744 23.0707 24.4489 23.05 24.9194C23.0067 25.9031 22.5629 26.8872 22.2773 27.8169C21.9991 28.7225 21.6924 29.6129 21.2921 30.4731C21.0509 30.9914 20.7757 31.5583 20.4538 32.0339C20.0216 32.6723 19.5779 33.3222 19.2117 34.0004C18.9832 34.4234 18.5886 34.7216 18.325 35.1169" stroke="#4245C3" stroke-width="1.03954" stroke-linecap="round"/>
<path d="M12.6513 23.3896C12.6513 23.9709 12.5969 24.5792 12.6784 25.1552C12.7999 26.0141 13.2502 26.8 13.4866 27.6297C13.6466 28.191 13.7543 28.7406 13.9788 29.2823C14.2401 29.9128 14.5096 30.5386 14.8458 31.1337C15.3354 32.0003 15.8577 32.8687 16.2501 33.7842C16.4024 34.1396 16.5933 34.6204 16.5933 35.0124" stroke="#4245C3" stroke-width="1.03954" stroke-linecap="round"/>
<path d="M21.8235 26.1674C21.6095 26.2305 21.4289 26.3444 21.2482 26.4743C21.0066 26.6479 20.7625 26.8216 20.5306 27.0082C20.4569 27.0674 20.3816 27.135 20.3276 27.2131C20.3009 27.2517 20.2878 27.271 20.2333 27.2535C20.1367 27.2223 20.0514 27.1323 19.9793 27.0668C19.7355 26.8456 19.4981 26.6167 19.2588 26.3906C18.8804 26.033 18.5126 25.6566 18.1092 25.3266C18.0714 25.2957 17.9134 25.1284 17.8581 25.1284" stroke="#4245C3" stroke-width="1.03954" stroke-linecap="round"/>
<path d="M17.8582 25.1284C17.8177 25.1385 17.7828 25.1739 17.7523 25.1996C17.6098 25.3198 17.472 25.4466 17.3358 25.5738C17.0602 25.8312 16.7855 26.0951 16.5267 26.3694C16.2864 26.6241 16.015 26.8906 15.8158 27.1794C15.7749 27.2387 15.7325 27.2991 15.6975 27.3622C15.665 27.4207 15.5028 27.3203 15.4762 27.3074C14.9696 27.061 14.5068 26.7311 14.0448 26.4117C13.774 26.2246 13.4874 26.0673 13.2001 25.9076" stroke="#4245C3" stroke-width="1.03954" stroke-linecap="round"/>
<path d="M19.7682 27.8929C18.9601 27.8929 18.1486 27.912 17.3407 27.8916C17.0102 27.8832 16.6817 27.8286 16.3507 27.8218C16.1619 27.8179 15.5988 27.8306 15.7846 27.7968C16.154 27.7296 16.5408 27.7507 16.9141 27.7507C17.3156 27.7507 17.6714 27.768 18.0621 27.8639C18.3272 27.929 18.6304 27.9967 18.9033 28.01C19.1262 28.0209 19.3581 28.0477 19.5681 28.1246C19.7133 28.1777 19.8955 28.1817 20.0288 28.2483" stroke="#4245C3" stroke-width="1.03954" stroke-linecap="round"/>
<path d="M20.0761 27.9878C20.0761 28.2599 20.0994 28.5416 20.026 28.8066C19.9322 29.1455 19.7593 29.4911 19.5863 29.7966C19.5244 29.906 19.3775 30.31 19.2098 30.31C18.9903 30.31 18.7658 30.3686 18.5464 30.3863C18.091 30.4231 17.6524 30.4522 17.1931 30.4522C16.9658 30.4522 16.7385 30.4522 16.5112 30.4522C16.4361 30.4522 16.3302 30.233 16.2966 30.177C16.0279 29.7293 15.9238 29.1742 15.799 28.675C15.7758 28.5824 15.7487 28.3566 15.6871 28.2774C15.498 28.0343 16.1118 28.7237 16.3163 28.9541C16.5126 29.1752 16.7041 29.3959 16.8719 29.6399C16.9329 29.7287 17.0317 29.835 17.0641 29.9401C17.0775 29.9839 17.0326 29.9738 17.0088 29.9572C16.8592 29.8528 16.7597 29.6539 16.7139 29.4833C16.587 29.0104 17.1193 28.9119 17.4774 28.9119C17.571 28.9119 18.1641 29.0347 17.8605 29.2055C17.6619 29.3172 16.9681 29.4117 16.9298 29.0673C16.8861 28.6743 17.5652 28.5878 17.8315 28.6091C18.1225 28.6324 18.3337 28.7653 18.5148 28.9909C18.5978 29.0943 18.7151 29.2646 18.6912 29.4082C18.6603 29.5933 18.3484 29.6337 18.2067 29.6491C17.8791 29.6849 17.3665 29.6596 17.1088 29.4201C16.6006 28.9477 17.4319 28.594 17.8197 28.5381C18.2604 28.4745 18.7547 28.5058 19.0374 28.8988C19.2458 29.1886 19.1112 29.5625 18.7188 29.4912C18.2985 29.4147 17.9513 28.7678 18.3463 28.4512C18.5517 28.2865 19.0891 28.27 19.2796 28.4657C19.6076 28.8025 19.1129 29.0104 18.8307 29.0436C18.4399 29.0895 18.1049 29.074 17.7354 28.9356C17.5152 28.8531 17.3171 28.7342 17.1194 28.6091C17.0616 28.5726 16.7988 28.4294 16.835 28.3209C16.8705 28.2145 17.282 28.3239 17.3352 28.3814C17.5545 28.6181 17.2237 28.6836 17.0404 28.6697C16.9233 28.6608 16.783 28.6455 16.6928 28.5618C16.6616 28.5328 16.6821 28.5328 16.7113 28.5328" stroke="#4245C3" stroke-width="1.03954" stroke-linecap="round"/>
<path d="M19.3623 31.4427C19.0697 31.4427 18.7663 31.4204 18.4747 31.4437C18.3107 31.4569 18.1563 31.4786 17.99 31.4786C17.9091 31.4786 17.7774 31.4945 17.7018 31.5235C17.5949 31.5646 17.4356 31.5438 17.3199 31.5644C17.1887 31.5877 17.0446 31.5639 16.917 31.6003C16.7853 31.6379 16.5282 31.5572 16.4682 31.706C16.4062 31.8598 16.3469 32.0336 16.3107 32.1967C16.2842 32.3157 16.203 32.3884 16.203 32.5198C16.203 32.8184 16.3203 33.125 16.4892 33.3694C16.6117 33.5467 16.7306 33.7254 16.8572 33.9C16.8972 33.9552 16.9595 34.0644 17.0207 34.0994C17.0801 34.1334 17.1541 34.2 17.1862 34.261C17.243 34.3687 17.3437 34.4719 17.4635 34.5163C17.5546 34.55 17.6193 34.5836 17.7148 34.5402C17.872 34.4688 18.0102 34.2608 18.1117 34.1294C18.2928 33.8948 18.4853 33.6693 18.6722 33.4393C18.7842 33.3012 18.9077 33.155 19.0501 33.0473C19.1796 32.9495 19.304 32.8409 19.3982 32.7083C19.5239 32.5311 19.6699 32.3639 19.7831 32.1787C19.822 32.115 19.8629 32.0268 19.7831 31.9813C19.7101 31.9396 19.6565 31.8735 19.5876 31.8297C19.5019 31.7751 19.3719 31.7838 19.2725 31.7838C19.0159 31.7838 18.7779 31.8045 18.5345 31.8955C18.357 31.9619 18.1859 32.0189 18.016 32.1029C17.8852 32.1676 17.7513 32.2334 17.6171 32.2904C17.4158 32.3758 17.2388 32.5108 17.1723 32.7312C17.096 32.9841 17.0883 33.3876 17.3009 33.5779C17.4536 33.7144 17.7735 33.7338 17.9442 33.6247C18.1041 33.5225 18.2327 33.3566 18.359 33.2179C18.4526 33.115 18.5469 33.012 18.6253 32.8967C18.7471 32.7176 18.8734 32.5587 18.8397 32.3313C18.8267 32.2435 18.7453 32.1495 18.6502 32.1927C18.436 32.2901 18.2742 32.5985 18.1775 32.801C18.0754 33.0148 17.9361 33.3851 17.639 33.3635C17.4978 33.3532 17.408 33.1452 17.3299 33.0483C17.2644 32.9672 17.2119 32.8898 17.1723 32.793C17.1225 32.6714 17.0562 32.5475 16.9389 32.4839C16.9073 32.4667 16.857 32.4478 16.8312 32.422C16.8054 32.3962 16.7906 32.3558 16.7594 32.3403" stroke="#4245C3" stroke-width="1.03954" stroke-linecap="round"/>
<path fill-rule="evenodd" clip-rule="evenodd" d="M16.171 4.72467C16.7937 4.69162 17.453 4.67822 18.1525 4.67822C19.2054 4.67822 20.1836 4.72296 21.0921 4.82718L19.9596 5.77088C19.3914 5.73475 18.7899 5.71777 18.1525 5.71777C17.8727 5.71777 17.6013 5.72002 17.3378 5.7248L16.171 4.72467ZM12.8279 6.29768L13.686 5.0106C9.80295 5.77323 7.63108 8.10862 5.67797 14.5539C3.98427 20.1431 11.263 24.4296 18.1525 24.4296C25.042 24.4296 31.9265 20.0115 30.627 14.5539C29.2907 8.94124 27.0622 6.33373 23.449 5.28391L23.7937 6.49044C24.4826 6.74425 25.0973 7.06767 25.65 7.47083C27.3846 8.73617 28.6947 10.9263 29.6158 14.7947C30.1337 16.97 29.0699 19.0579 26.8431 20.702C24.6185 22.3446 21.3964 23.39 18.1525 23.39C14.8973 23.39 11.5735 22.3712 9.30225 20.7428C7.03481 19.1172 6.00421 17.0619 6.67284 14.8554C7.95696 10.6178 9.27082 8.43105 10.9152 7.24247C11.4806 6.83384 12.1081 6.52587 12.8279 6.29768Z" fill="#4245C3"/>
<path d="M17.522 5.17676C17.4158 5.17676 17.3097 5.17676 17.2035 5.17676C17.0661 5.17676 16.9308 5.2306 16.7934 5.2306C16.7421 5.2306 16.698 5.26389 16.6485 5.2665C16.6342 5.26725 16.6167 5.28016 16.6036 5.28744C16.5901 5.29492 16.5926 5.28946 16.6102 5.29077C16.6515 5.29382 16.6902 5.3024 16.7322 5.3024C16.8381 5.3024 16.95 5.3099 17.054 5.28911C17.1032 5.27926 17.1518 5.27055 17.2019 5.26684C17.3014 5.25947 17.3991 5.23212 17.498 5.21864" stroke="#4245C3" stroke-width="1.03954" stroke-linecap="round"/>
<path d="M20.5076 5.02686C20.5076 5.13908 20.414 5.21812 20.3314 5.27947C20.2837 5.3149 20.2573 5.32601 20.1991 5.32601C20.116 5.32601 20.0345 5.33199 19.9511 5.33199" stroke="#4245C3" stroke-width="1.03954" stroke-linecap="round"/>
<path d="M13.2617 4.99219C13.2617 5.09772 13.2524 5.18677 13.2301 5.28966C13.208 5.39104 13.1527 5.52614 13.0817 5.6026C13.0061 5.68396 12.9459 5.7185 12.8503 5.76997C12.8006 5.79677 12.7399 5.80982 12.6865 5.82764C12.5463 5.87437 12.4166 5.94024 12.2997 6.03017" stroke="#4245C3" stroke-width="1.03954" stroke-linecap="round"/>
<path d="M24.1479 6.05567C24.0788 6.05567 23.9734 5.95267 23.9426 5.89111C23.9112 5.82829 23.9074 5.75847 23.9074 5.68857C23.9074 5.53108 23.8868 5.3761 23.8695 5.22021" stroke="#4245C3" stroke-width="1.03954" stroke-linecap="round"/>
<path d="M18.1526 10.3952C18.1526 12.0844 19.6309 13.5139 21.5312 13.5139C23.4314 13.5139 24.9097 12.0844 24.9097 10.3952C24.9097 8.70606 23.4314 7.27661 21.5312 7.27661C19.6309 7.27661 18.1526 8.70606 18.1526 10.3952Z" stroke="#4245C3" stroke-width="1.03954"/>
<path d="M11.3956 10.3952C11.3956 12.0844 12.8738 13.5139 14.7741 13.5139C16.6743 13.5139 18.1526 12.0844 18.1526 10.3952C18.1526 8.70606 16.6743 7.27661 14.7741 7.27661C12.8738 7.27661 11.3956 8.70606 11.3956 10.3952Z" stroke="#4245C3" stroke-width="1.03954"/>
<path d="M19.7529 9.80472C19.7832 9.80472 19.8559 9.7881 19.8618 9.8292C19.8694 9.88209 19.911 9.99525 19.8606 10.0349C19.7964 10.0853 19.7043 10.1021 19.6255 10.0863C19.5927 10.0797 19.468 10.0165 19.5154 9.96387C19.5935 9.87704 19.7413 9.85575 19.8508 9.87327C19.9896 9.89548 20.1071 10.0852 19.9842 10.1891C19.6746 10.4512 19.4041 9.81402 19.7871 9.70678C20.0041 9.64603 20.2205 9.75836 20.2548 9.98101C20.2914 10.2189 20.097 10.2014 19.9071 10.2014" stroke="#4245C3" stroke-width="1.03954" stroke-linecap="round"/>
<path d="M16.3815 9.80467C16.5459 9.80467 16.3896 10.1035 16.1954 10.0336C16.047 9.9802 15.9628 9.85592 15.9628 9.70673C15.9628 9.57779 16.3264 9.62125 16.39 9.65409C16.4561 9.68818 16.6306 9.87949 16.5431 9.96382C16.4501 10.0534 16.2492 10.1002 16.1219 10.0911C15.9847 10.0813 15.9646 9.76339 15.9628 9.67735C15.9605 9.5698 16.001 9.5461 16.0729 9.47412" stroke="#4245C3" stroke-width="1.03954" stroke-linecap="round"/>
<path d="M16.1143 9.39383C16.2098 9.39383 16.2899 9.36983 16.3378 9.46833C16.3763 9.54764 16.3626 9.6421 16.3626 9.7277C16.3626 9.84008 16.3942 10.0086 16.3474 10.1126C16.2511 10.3266 16.0162 10.3948 15.8025 10.3871C15.494 10.3761 15.3335 9.94823 15.4962 9.70424C15.6632 9.45376 16.0278 9.40661 16.3033 9.42005C16.6177 9.43538 16.816 9.64137 16.8537 9.94291C16.8663 10.0431 16.8733 10.169 16.8537 10.2685C16.8215 10.4322 16.6209 10.4562 16.4854 10.4741C16.1754 10.5149 15.9105 10.3935 15.7473 10.1195C15.6435 9.94522 15.612 9.60387 15.7418 9.43798C15.8645 9.28113 16.1544 9.14605 16.3502 9.2476C16.6113 9.38301 16.8639 9.60814 16.9034 9.91532C16.9356 10.166 16.8965 10.387 16.6468 10.4989C16.297 10.6557 15.883 10.6725 15.7169 10.2575C15.6562 10.1055 15.5884 9.94821 15.619 9.78012C15.639 9.67009 15.8993 9.55418 15.9901 9.54283" stroke="#4245C3" stroke-width="1.03954" stroke-linecap="round"/>
<path d="M19.7897 10.0893C19.6159 10.0893 19.6062 10.0755 19.5165 9.92101C19.374 9.67555 19.5698 9.52438 19.7883 9.45609C20.1328 9.34843 20.249 9.70216 20.3002 9.96516C20.3661 10.3044 20.3876 10.6087 19.9773 10.655C19.7303 10.6828 19.4669 10.5434 19.3979 10.288C19.3303 10.0379 19.3972 9.861 19.5786 9.67958C19.9553 9.30289 20.488 9.8046 20.434 10.2369C20.4112 10.4192 20.0535 10.464 19.9249 10.4991C19.654 10.573 19.4145 10.5871 19.3731 10.2714C19.3373 9.99899 19.3862 9.74885 19.4917 9.49885C19.5618 9.33289 19.7825 9.34567 19.9332 9.34434C20.1644 9.34229 20.3235 9.37081 20.5209 9.49334C20.7312 9.62386 20.9388 9.84121 20.8437 10.1128C20.7766 10.3046 20.5746 10.3445 20.4354 10.4618C20.296 10.5791 19.92 10.5135 19.7649 10.4618" stroke="#4245C3" stroke-width="1.03954" stroke-linecap="round"/>
<path d="M25.3913 13.2197C25.2174 13.2197 25.2078 13.2059 25.1181 13.0514C24.9756 12.8059 25.1713 12.6548 25.3899 12.5865C25.7344 12.4788 25.8506 12.8325 25.9017 13.0955C25.9677 13.4348 25.9891 13.7391 25.5789 13.7853C25.3318 13.8132 25.0685 13.6738 24.9995 13.4184C24.9319 13.1683 24.9988 12.9914 25.1802 12.81C25.5569 12.4333 26.0896 12.935 26.0355 13.3673C26.0128 13.5496 25.6551 13.5944 25.5265 13.6294C25.2555 13.7033 25.016 13.7174 24.9746 13.4018C24.9389 13.1294 24.9877 12.8792 25.0933 12.6292C25.1633 12.4633 25.3841 12.476 25.5347 12.4747C25.766 12.4727 25.9251 12.5012 26.1225 12.6237C26.3327 12.7542 26.5403 12.9716 26.4453 13.2431C26.3781 13.435 26.1762 13.4749 26.0369 13.5922C25.8976 13.7095 25.5216 13.6439 25.3664 13.5922" stroke="#4245C3" stroke-width="1.03954" stroke-linecap="round"/>
<path d="M10.9671 13.2197C11.141 13.2197 11.1506 13.2059 11.2403 13.0514C11.3828 12.8059 11.1871 12.6548 10.9685 12.5865C10.624 12.4788 10.5078 12.8325 10.4567 13.0955C10.3907 13.4348 10.3693 13.7391 10.7795 13.7853C11.0266 13.8132 11.2899 13.6738 11.3589 13.4184C11.4265 13.1683 11.3596 12.9914 11.1782 12.81C10.8015 12.4333 10.2688 12.935 10.3229 13.3673C10.3456 13.5496 10.7033 13.5944 10.8319 13.6294C11.1029 13.7033 11.3424 13.7174 11.3838 13.4018C11.4195 13.1294 11.3707 12.8792 11.2651 12.6292C11.1951 12.4633 10.9743 12.476 10.8237 12.4747C10.5924 12.4727 10.4333 12.5012 10.2359 12.6237C10.0257 12.7542 9.81807 12.9716 9.91312 13.2431C9.98026 13.435 10.1822 13.4749 10.3215 13.5922C10.4608 13.7095 10.8368 13.6439 10.992 13.5922" stroke="#4245C3" stroke-width="1.03954" stroke-linecap="round"/>
<path d="M18.1792 12.6914C17.9722 12.6914 17.3513 12.6914 17.5583 12.6914C17.7647 12.6914 17.9712 12.6914 18.1777 12.6914C18.236 12.6914 18.6563 12.7025 18.6651 12.7724C18.6876 12.9526 18.5473 13.0456 18.4371 13.2043C18.3666 13.3058 18.2953 13.418 18.2391 13.5283C18.2071 13.5912 18.1901 13.6763 18.1387 13.7277C18.1129 13.7535 17.8634 13.3618 17.8222 13.3123C17.7059 13.1728 17.6304 13.0097 17.5193 12.8669C17.4807 12.8173 17.4233 12.7841 17.4233 12.7184" stroke="#4245C3" stroke-width="1.03954" stroke-linecap="round"/>
<path d="M20.0193 14.186C20.2197 14.2164 20.2642 14.228 20.2916 14.4134C20.3158 14.5768 20.3322 14.84 20.2678 14.993C20.1005 15.3904 19.6072 15.5502 19.2123 15.5502C18.8371 15.5502 18.5505 15.4042 18.453 15.0197C18.385 14.7514 18.3748 14.4701 18.4783 14.2113" stroke="#4245C3" stroke-width="1.03954" stroke-linecap="round"/>
<path d="M18.1502 14.2113C18.1502 14.0447 18.1528 14.5444 18.1502 14.7109C18.1445 15.0685 17.7871 15.2898 17.4962 15.4126C16.9507 15.6429 16.4742 15.6308 15.9944 15.2597C15.564 14.9267 15.4222 14.2616 15.9776 13.9839" stroke="#4245C3" stroke-width="1.03954" stroke-linecap="round"/>
<path d="M17.2803 15.7656C17.2803 16.7903 17.1309 17.9707 17.8058 18.8325C18.0683 19.1677 18.5909 19.2346 18.955 19.013C19.3509 18.772 19.3938 18.3498 19.4214 17.9228C19.4557 17.3903 19.426 16.8458 19.426 16.3119C19.426 16.1398 19.4824 15.8503 19.3843 15.7031" stroke="#4245C3" stroke-width="1.03954" stroke-linecap="round"/>
<path d="M27.257 12.082C28.1543 11.9324 29.0574 11.2442 29.9236 10.957C31.198 10.5345 32.4919 10.4883 33.8193 10.4883" stroke="#4245C3" stroke-width="1.03954" stroke-linecap="round"/>
<path d="M28.4757 14.519C30.1452 14.519 31.5574 14.5677 33.1631 15.0815" stroke="#4245C3" stroke-width="1.03954" stroke-linecap="round"/>
<path d="M9.63257 10.582C8.56318 9.41959 7.60796 7.89617 5.9764 7.48828" stroke="#4245C3" stroke-width="1.03954" stroke-linecap="round"/>
<path d="M8.60132 12.7383L3.07927 12.4748" stroke="#4245C3" stroke-width="1.03954" stroke-linecap="round"/>
<path d="M27.9499 21.5585C27.6969 21.6006 27.4361 21.9695 27.2298 22.1384C27.0118 22.3167 26.782 22.4425 26.5855 22.65C26.0106 23.2568 25.1096 23.6296 24.319 23.8932C24.1066 23.964 23.8991 24.0315 23.6861 24.0789C23.3396 24.1559 23.9651 23.7945 24.0461 23.7416C24.4589 23.4716 24.9094 23.3531 25.3992 23.2261C25.8088 23.1199 26.2758 23.1606 26.6688 23.0442C26.9056 22.974 27.038 22.7718 27.2336 22.6197C27.6158 22.3224 27.9588 22.3089 28.4274 22.3089C28.9263 22.3089 29.2534 22.4533 29.7236 22.597C30.1961 22.7413 30.7206 23.0996 31.1601 23.3322C31.731 23.6345 32.2326 24.0471 32.7557 24.4238C33.3407 24.845 33.7139 25.5375 34.2603 25.9625C34.4242 26.09 34.5596 26.22 34.6507 26.4022C34.7387 26.5782 34.8721 27.1574 34.8099 26.9707C34.6585 26.5164 34.1454 26.0197 33.8624 25.6404C33.5538 25.2268 33.2225 24.8334 32.8656 24.4617C32.3553 23.9301 31.7506 23.4058 31.088 23.0745C30.2257 22.6433 29.3178 22.5246 28.4274 22.2066C28.2089 22.1286 28.1545 21.9874 28.1545 21.7631C28.1545 21.689 28.326 21.8739 28.3668 21.911C28.757 22.2657 29.1734 22.6042 29.5531 22.9684C30.854 24.2162 31.7762 25.8907 32.8694 27.3118C33.0911 27.6001 33.3115 27.9959 33.5743 28.2442C34.1077 28.7479 32.8504 26.9653 32.4297 26.3643C31.8493 25.5351 31.3072 24.6721 30.7962 23.7984C30.7279 23.6815 30.2779 23.0973 30.6143 23.1465C32.1763 23.3751 33.1762 25.0916 33.8017 26.3719C33.8992 26.5714 33.9654 26.7765 34.0519 26.9783C34.2169 27.3634 33.4461 26.3983 33.165 26.0876C32.7868 25.6696 32.363 25.2069 32.0886 24.708C31.8801 24.3288 32.8642 25.499 32.8732 25.5115C33.4253 26.2883 33.9161 27.0991 34.3172 27.9637C34.4631 28.2781 34.5573 28.499 34.2338 28.0547C33.5171 27.0701 32.8055 26.0823 32.0773 25.106C31.719 24.6257 31.3787 24.1311 31.016 23.6544C30.7685 23.3291 30.9072 23.7443 30.9554 23.878C31.4592 25.2757 32.2357 26.5867 32.8315 27.9485C33.0428 28.4316 33.2627 28.9095 33.4985 29.3812C33.5526 29.4893 33.7373 29.7981 33.6577 29.7071C32.8167 28.746 31.923 27.8323 31.088 26.8646C30.7537 26.477 30.4354 26.0797 30.133 25.6669C30.051 25.5551 29.8823 25.3904 29.8601 25.2424C29.8472 25.1564 29.9418 25.2601 29.9472 25.2652C30.3705 25.6627 30.7653 26.0961 31.1449 26.5348C31.892 27.3982 32.6068 28.2786 33.2598 29.2144C33.302 29.275 33.6773 29.7783 33.453 29.4342C32.3858 27.7965 31.3526 26.1434 30.3679 24.4541C30.1327 24.0506 29.8978 23.6498 29.6402 23.2602C29.5809 23.1705 29.3901 22.962 29.3901 22.8319C29.3901 22.6699 29.5989 23.0805 29.6895 23.2147C30.116 23.8463 30.5336 24.4842 30.9402 25.1287C31.5838 26.1489 32.2457 27.2057 32.6837 28.3351C32.8078 28.6553 32.7223 28.6353 32.4828 28.3958C31.9818 27.8947 31.5614 27.3172 31.1601 26.7357C30.4982 25.7766 29.861 24.7801 29.3295 23.7416C29.3146 23.7125 29.0623 23.2207 29.1475 23.3171C29.4793 23.6921 29.7915 24.0906 30.0799 24.4996C30.703 25.3832 31.3276 26.3281 31.7513 27.327C31.9388 27.769 32.1259 28.214 31.5921 27.6074C30.8202 26.7302 30.1128 25.793 29.4811 24.8104C29.3581 24.619 28.6196 23.4303 29.2385 24.2191C29.9357 25.1076 30.555 26.1727 31.088 27.1678C31.0972 27.1848 31.4784 27.9524 31.4064 27.9485C31.0789 27.9308 30.5539 27.1035 30.3983 26.9101C29.5629 25.8717 28.8563 24.763 28.2076 23.6013C28.0553 23.3287 27.5484 22.7832 28.1507 22.9115C28.8932 23.0698 29.5281 23.6969 29.9662 24.2873C30.0304 24.3739 30.6323 25.1048 30.5271 25.2424C30.2524 25.6017 29.0708 24.5827 28.9239 24.4579C28.75 24.31 27.6284 23.4678 27.7604 23.1048C27.8629 22.8228 28.9918 23.2597 29.1324 23.3436C29.6103 23.6286 30.1268 24.3298 29.9359 24.9127C29.46 26.3654 26.9151 25.7495 26.7067 24.3859C26.6594 24.0758 26.7696 23.8932 27.1161 23.8932C27.8646 23.8932 28.2275 24.4656 28.2796 25.1515C28.3352 25.8839 28.2589 26.7468 27.6467 27.2436C26.815 27.9185 26.1142 27.3857 25.9032 26.4704C25.7349 25.7401 25.3858 23.6503 26.8432 24.113C27.6821 24.3793 27.4888 26.744 26.828 26.4022C26.3922 26.1768 26.3877 25.19 26.3808 24.78C26.373 24.3139 26.3221 23.9355 26.8811 23.8932C28.0259 23.8064 28.2632 25.979 27.586 26.5614C27.0906 26.9874 26.2182 27.1157 25.7213 26.6296C25.2964 26.2139 25.2582 25.2118 25.4333 24.6739C25.5011 24.4655 25.6305 24.2629 25.835 24.166C26.0719 24.0538 25.9506 24.5427 25.9411 24.6133C25.8307 25.4413 25.5008 26.1571 25.0694 26.8684C24.9615 27.0462 24.5833 27.6524 24.3379 27.2966C23.8849 26.6397 23.993 25.4697 23.993 24.6967C23.993 24.5602 23.993 24.4238 23.993 24.2873C23.993 23.9037 24.3841 24.4703 24.5085 24.583C24.7919 24.8397 25.0438 25.0419 25.1831 25.4092C25.3327 25.8035 25.2778 25.7845 25.293 25.3334C25.3059 24.955 25.3538 24.5511 25.4409 24.1812C25.5283 23.8094 25.102 24.8659 24.9254 25.2045C24.7315 25.5765 24.6676 25.9766 24.5047 26.3567C24.3764 26.6561 24.4024 25.9887 24.4024 25.9246C24.4024 25.6176 24.4024 25.3106 24.4024 25.0036C24.4024 24.7491 24.2879 25.7105 24.2584 25.8337C24.1329 26.3563 23.967 26.8928 23.7732 27.3952C23.7649 27.4169 23.5604 27.8069 23.5307 27.7363C23.4415 27.5246 23.6584 25.8034 23.8225 25.8034C23.9037 25.8034 23.5191 26.9236 23.5003 26.9783C23.2026 27.8472 22.9725 28.7358 22.712 29.6162C22.6165 29.9388 22.5834 30.3814 22.3709 30.6471C22.0907 30.9974 22.798 29.8563 22.9697 29.4418C23.2712 28.7141 23.555 27.9624 23.7505 27.1981C23.7963 27.019 23.9226 26.5235 23.8111 27.02C23.5462 28.2003 23.27 29.3805 22.9849 30.5561C22.7321 31.5986 22.5337 32.6977 22.1283 33.6943C21.7276 34.6794 22.9807 31.7245 23.1668 30.6774C23.1827 30.588 23.3691 29.9178 23.2312 30.1506C22.7769 30.9172 22.4941 31.8035 22.0866 32.5989C21.8824 32.9978 21.6782 33.4749 21.3476 33.7928C21.2592 33.8778 21.6288 32.7087 21.6887 32.5648C21.962 31.9083 22.1801 31.2255 22.4846 30.5826C22.7187 30.0885 22.5054 30.6355 22.4164 30.8176C21.778 32.1233 21.1365 33.4308 20.3925 34.6797C19.8226 35.6363 21.121 32.5743 21.5371 31.5415C21.6142 31.3501 22.2534 29.8657 21.7342 30.7153C21.2177 31.5604 20.7283 32.4399 20.3243 33.3456C19.9924 34.0893 19.5244 34.7576 18.7703 35.1004C18.3446 35.2939 17.6615 35.0779 17.2088 35.1383C16.8394 35.1875 16.4872 35.2027 16.1097 35.2027C15.4803 35.2027 16.499 35.2027 16.6631 35.2027C18.1366 35.2027 19.6303 35.2655 21.0937 35.1383C21.9693 35.0621 22.8466 34.9298 23.7277 34.9298C24.3593 34.9298 24.944 34.897 25.5659 34.7934C25.9809 34.7242 26.4442 34.6056 26.8432 34.4674C27.1665 34.3555 27.4991 34.3606 27.8362 34.3007C28.2781 34.2221 28.7158 34.1259 29.1475 34.0051C29.6007 33.8782 30.0879 33.4795 30.5423 33.429C30.7186 33.4094 30.5423 33.0754 30.5423 32.9855C30.5423 32.8812 30.8072 32.8076 30.9137 32.7467C31.6099 32.3489 31.8394 31.7143 31.7627 30.9275C31.656 29.8338 30.7877 29.1355 30.3679 28.1911C30.1679 27.741 30.8671 28.2865 30.9516 28.4109C31.4206 29.1014 31.4402 30.1124 31.3306 30.9124C31.2825 31.2634 31.0097 31.9708 30.5423 31.9319C29.7996 31.87 29.9283 29.8466 29.9283 29.3812C29.9283 28.9603 29.8003 28.1224 30.3376 27.9334C30.9781 27.708 31.0959 29.0536 31.126 29.3888C31.2049 30.269 31.2982 31.5392 30.7886 32.3147C30.5579 32.6658 30.0989 32.9823 29.6592 32.9173C28.9852 32.8177 28.7049 31.9888 28.5563 31.4354C28.2103 30.1471 27.9425 28.351 28.598 27.1109C28.8132 26.7038 29.2586 26.1126 29.5948 26.7319C30.1856 27.8203 30.0903 29.4637 29.9207 30.6471C29.8476 31.157 29.539 32.6356 28.8368 32.7543C28.2246 32.8578 28.3841 30.1159 28.4161 29.7715C28.4827 29.0541 28.6682 28.3222 28.8633 27.6302C28.9426 27.3489 29.0377 26.991 29.2423 26.766C29.4834 26.5008 29.7182 26.8542 29.7918 27.0692C30.2583 28.4314 30.0309 30.2435 29.716 31.6097C29.6569 31.8664 29.1137 33.3393 28.8368 32.4814C28.6033 31.7583 28.6342 30.9259 28.6321 30.1771C28.63 29.4661 28.6582 28.7579 28.7685 28.0547C28.7969 27.8738 28.9113 26.705 29.284 26.7547C29.7526 26.8171 29.6468 28.0647 29.6516 28.3389C29.67 29.3864 29.6457 30.4852 29.2309 31.4657C29.035 31.9288 28.3781 32.8841 27.9271 32.0949C27.425 31.2162 27.661 30.0139 28.0598 29.1538C28.2816 28.6754 28.6737 27.8144 29.1741 27.5392C29.6492 27.2779 29.5822 28.9673 29.5834 29.0552C29.5999 30.3186 29.5364 31.6104 29.1437 32.8226C28.985 33.3125 28.8111 33.5754 28.7155 32.8832C28.5482 31.672 28.6919 30.3498 29.2233 29.2372C29.5991 28.4505 30.1936 28.3462 30.1936 29.3395C30.1936 30.0589 29.7251 30.6714 29.2006 31.1246C29.0564 31.2492 28.0158 31.891 27.8968 31.5339C27.604 30.6555 28.4465 29.5993 28.958 28.987C29.4179 28.4366 29.8911 27.9942 30.6408 27.9864C31.2567 27.98 31.1634 29.1768 31.1487 29.5517C31.1104 30.5281 30.779 31.5403 29.9245 32.11C29.5094 32.3867 28.8857 32.5157 28.3895 32.4587C27.7483 32.385 28.1418 31.7011 28.4123 31.4278C29.1352 30.6973 30.7513 30.5119 30.5991 31.9319C30.4965 32.8902 29.461 33.2407 28.6207 33.3001C27.6514 33.3686 27.0999 32.6816 27.1578 31.7462C27.2247 30.6639 28.0387 29.9458 29.0263 29.6313C29.6034 29.4475 30.6271 29.4997 30.9516 30.1089C32.0253 32.1244 28.0645 33.1731 26.9152 31.9698C26.0452 31.0588 26.0231 29.9202 26.6158 28.8809C26.9998 28.2074 27.6255 27.578 28.4274 27.4558C29.021 27.3654 29.1966 27.9166 29.0793 28.4185C28.8899 29.2294 27.9337 29.2747 27.3738 28.8657C26.9624 28.5652 26.7127 27.9541 26.7977 27.4444C26.8151 27.3399 26.9245 27.2702 27.0289 27.3156C27.2677 27.4194 27.2748 27.9002 27.2942 28.1001C27.3766 28.9514 27.5117 30.1045 27.2373 30.9275C27.2068 31.0193 26.9044 31.8245 26.7219 31.4809C26.3868 30.85 26.506 29.8747 26.521 29.1917C26.5286 28.8475 26.5519 28.5028 26.6196 28.1646C26.6209 28.1577 26.7078 27.7478 26.7522 27.9637C26.8441 28.4102 26.7901 28.9141 26.7901 29.366C26.7901 29.8845 26.8086 30.4094 26.6802 30.9161C26.6258 31.1308 26.4715 31.8924 26.2064 31.9887C25.9144 32.0949 25.9209 30.2645 25.9184 30.1695C25.8924 29.1904 25.9458 28.2265 25.9715 27.2512C26.0095 25.8049 26.1318 30.1622 25.9032 31.5908C25.8595 31.8641 25.8347 30.9284 25.835 30.8972C25.846 29.8726 26.0403 28.8754 26.1231 27.8576C26.125 27.8338 26.15 27.457 26.1458 27.4634C25.9747 27.7245 25.8707 28.0725 25.7516 28.3579C25.3509 29.3186 25.0929 30.3191 24.7965 31.3141C24.5459 32.1556 24.7067 30.5365 24.7207 30.3742C24.8103 29.3399 24.9358 28.2748 25.1149 27.2512C25.1919 26.8114 25.0809 27.1674 24.986 27.3876C24.6082 28.2645 24.2012 29.1318 23.9248 30.0482C23.8646 30.2479 23.7202 30.848 23.7202 30.6395C23.7202 29.8348 23.8833 29.0395 23.9855 28.2442C24.0272 27.9189 24.049 27.5909 24.0954 27.2663C24.1197 27.0958 24.1295 27.0167 24.1295 27.2815C24.1295 28.7275 23.9549 30.1566 23.8263 31.5946C23.7765 32.1518 23.6743 32.719 23.6519 33.2774C23.6488 33.3563 23.6648 33.1194 23.6823 33.0424C23.7722 32.6457 23.9784 32.2765 24.228 31.9584C25.4708 30.3749 27.6672 30.3585 29.0642 31.7196C29.3644 32.0122 29.5005 32.2563 29.0414 32.436C27.6872 32.9659 26.125 33.1402 24.6828 33.2091C24.279 33.2285 23.8742 33.2243 23.47 33.2243C23.3915 33.2243 23.164 33.2426 23.235 33.2091C23.3969 33.133 23.6286 33.157 23.796 33.1561C24.4428 33.1524 25.0897 33.1561 25.7365 33.1561C26.2919 33.1561 27.0517 33.0215 27.5936 33.194C27.7237 33.2354 27.7371 33.2782 27.5784 33.3001C26.8548 33.3999 26.1248 33.4561 25.3992 33.5389C24.0764 33.6898 22.7616 33.8875 21.4537 34.1339C20.5946 34.2958 21.5229 34.1365 21.8403 34.0278C23.3171 33.5219 24.8389 32.8635 26.4376 33.0234C27.8678 33.1664 23.5837 33.4047 22.1852 33.736C20.6247 34.1055 25.396 33.643 26.9872 33.4441C27.3541 33.3983 27.9678 33.2442 28.3403 33.3683C28.5086 33.4244 28.0519 33.5835 27.8854 33.645C27.2043 33.8967 26.4932 34.077 25.7971 34.2817C24.7515 34.5893 23.7123 34.8325 22.6362 34.998C22.5786 35.0069 21.8981 35.0663 22.2648 35.0663C22.9692 35.0663 23.6685 35.0492 24.3721 35.0132C24.6125 35.0009 25.6429 35.0824 25.8199 34.8464C25.9394 34.687 24.759 34.2342 24.7018 34.2097C24.063 33.9359 23.4561 33.5919 22.8143 33.3304C22.4727 33.1913 22.9446 33.1158 23.1138 33.05C23.8174 32.7759 24.5409 32.5677 25.2589 32.3374C25.5119 32.2563 25.7301 32.201 25.9942 32.201C26.4489 32.201 25.0785 32.171 24.6374 32.0607C24.5786 32.0461 23.6007 31.6854 23.9476 31.5908C24.5455 31.4277 25.3319 31.4734 25.9411 31.5263C26.0526 31.536 26.697 31.6747 26.4339 31.8523C25.9254 32.1955 25.2405 32.3355 24.6677 32.5193C23.8625 32.7778 23.0604 33.0474 22.242 33.2622C21.8662 33.3608 20.7278 33.5654 21.1164 33.5654C21.7594 33.5654 22.4025 33.5654 23.0455 33.5654C24.405 33.5654 25.7338 33.6549 27.0933 33.6336C27.7709 33.623 28.4064 33.4549 29.0528 33.266C29.4578 33.1476 29.831 33.1731 30.0344 32.7581C30.4472 31.9161 30.6714 31.0434 31.035 30.1922C31.506 29.0897 32.6103 28.7526 33.7411 28.8657C33.9813 28.8897 34.2684 29.0322 34.4233 29.2258C34.507 29.3305 34.3111 28.9822 34.2603 28.8581C34.0796 28.4163 34.0648 27.7606 34.3627 27.3724C34.4384 27.2738 34.5022 27.1312 34.6014 27.0541C34.6882 26.9866 34.8393 27.0002 34.9084 26.9138C35.0065 26.7913 35.1118 27.2432 35.1131 27.2891C35.131 27.9343 35.1498 28.5892 34.9767 29.2144C34.7499 30.0332 34.6991 30.8559 34.5332 31.6855C34.4703 31.9999 34.4309 32.2979 34.4309 32.6179C34.4309 32.8704 34.4309 32.7399 34.4309 32.5724C34.4309 32.3249 34.272 31.1628 34.4688 31.0223C34.54 30.9714 34.9084 32.5089 34.9084 32.7051C34.9084 33.3882 35.1131 31.3491 35.1131 30.666C35.1131 30.4981 35.0674 30.029 34.9615 29.8966C34.8284 29.7302 34.5234 29.3236 34.2944 29.3357C33.9512 29.3538 33.7044 30.547 33.6842 30.7987C33.6754 30.9097 33.7308 31.2222 33.6653 31.1322C33.5464 30.9686 33.5366 30.5493 33.491 30.3438C33.4341 30.0882 33.4404 30.1111 33.5061 30.3552C33.6302 30.816 33.1521 30.4916 32.9566 30.3325C32.6141 30.0539 31.8545 29.3552 31.8195 28.8657C31.8104 28.7384 32.0821 28.9193 32.1758 29.006C32.6178 29.4146 32.9894 29.9047 33.3318 30.3969C33.8592 31.1551 34.3708 31.9288 34.7568 32.7695C34.8379 32.946 35.0593 33.3207 34.6735 33.1788C34.0002 32.9313 33.4436 32.2757 33.1044 31.659C32.8199 31.1418 33.3207 31.1658 33.6956 31.4126C34.0159 31.6235 34.2896 31.9565 34.4157 32.3223C34.5132 32.605 33.7699 32.4506 33.6653 32.4284C33.08 32.3042 32.5788 32.0031 32.2213 31.5263C32.1786 31.4694 31.7806 31.0025 31.9863 30.9768C32.7693 30.8789 33.4923 31.8391 33.87 32.4056C33.9292 32.4945 34.0262 32.8077 33.942 32.9059C33.8164 33.0524 33.0592 32.195 32.9755 32.1062C32.9329 32.061 32.4652 31.4581 32.5586 31.4581C32.7352 31.4581 32.6834 31.5643 32.5245 31.2762C32.4045 31.0587 32.0459 30.2765 32.5359 30.7456C33.2714 31.4498 34.0415 32.1643 34.4612 33.1182C34.6112 33.4591 34.6661 33.5792 34.4991 33.9444C34.3169 34.3429 33.712 33.8925 33.4758 33.717C33.086 33.4275 32.8127 32.9795 32.4601 32.652C32.1761 32.3883 32.3793 32.4965 32.5889 32.6103C33.1093 32.8928 33.76 33.7018 33.8889 34.2817C33.921 34.4261 34.0616 34.6569 33.8169 34.6569C33.1858 34.6569 32.7168 34.4646 32.316 33.9747C32.2047 33.8386 30.7555 31.9643 31.088 31.8068C31.2987 31.707 31.9771 31.7358 32.0431 32.0001C32.1434 32.4009 32.1114 32.813 32.1114 33.2243C32.1114 33.6463 32.2271 33.9839 32.316 34.3841C32.3901 34.7172 32.5732 34.7195 32.8277 34.8957C33.0151 35.0254 33.1976 35.1644 33.3242 35.3543C33.3356 35.3714 32.4286 35.4074 32.3236 35.4074C31.3887 35.4074 31.0186 35.2454 30.8152 34.24C30.7885 34.1085 30.5012 33.2925 30.7811 33.2925C31.0134 33.2925 31.1954 33.372 31.2776 33.6185C31.4063 34.0047 31.4292 34.5511 31.4292 34.9639C31.4292 35.0588 31.5361 35.3332 31.4292 35.3392C31.2248 35.3505 31.0162 35.3392 30.8114 35.3392C30.3544 35.3392 29.7326 35.4524 29.2991 35.324C28.8051 35.1776 28.1618 35.2709 27.6467 35.2709C27.0428 35.2709 26.4389 35.2709 25.835 35.2709C24.4588 35.2709 23.122 35.5438 21.7418 35.5438C21.412 35.5438 21.0823 35.5438 20.7525 35.5438C20.5873 35.5438 21.1592 35.4074 21.2794 35.4074C22.3524 35.4074 23.4078 35.4902 24.4706 35.6082C25.9024 35.7673 27.4509 35.612 28.8898 35.612C29.4749 35.612 30.1075 35.6751 30.6408 35.4225C30.7988 35.3477 31.1988 35.294 30.8758 35.0966C30.239 34.7074 29.4365 34.5195 28.7496 34.2173C28.6997 34.1953 28.3844 34.1163 28.4577 34.043C28.6517 33.849 29.0506 33.8253 29.2991 33.7701C29.4192 33.7434 30.762 33.473 30.5044 33.8042C30.2681 34.1079 29.6963 34.2785 29.3598 34.422C28.465 34.8034 27.515 35.2143 26.5476 35.3771C26.0671 35.4579 25.2943 35.6066 25.0997 35.0814C24.8943 34.5267 24.1464 34.0202 23.6254 33.808C23.2957 33.6736 22.9631 33.7018 22.6135 33.7018C22.4067 33.7018 22.1941 33.6877 21.9881 33.7056C21.7995 33.722 21.8327 33.8705 21.882 33.7966C22.3139 33.1487 22.86 32.5518 23.4397 32.0342C23.9678 31.5627 23.6248 31.9293 23.2805 32.0645C22.1468 32.5099 21.6361 33.4797 21.1998 34.5432C20.9898 35.0549 20.7175 35.0935 20.256 35.3543C19.9147 35.5473 19.6665 35.6803 19.2706 35.6803C18.5053 35.6803 17.7351 35.5669 17.0004 35.4036C16.2653 35.2402 15.4111 35.3392 14.6468 35.3392C13.6665 35.3392 12.7178 35.1345 11.717 35.1345C11.1817 35.1345 10.5394 35.1121 10.038 34.9298C9.50211 34.7349 9.29176 34.3492 9.12084 33.808C8.82229 32.8626 8.77077 31.8071 8.68498 30.8252C8.60894 29.955 8.57507 29.0684 8.57507 28.1949C8.57507 27.0348 8.70505 26.0374 9.0185 24.9089C9.1431 24.4603 10.2468 24.4181 10.6065 24.3025C10.9219 24.2011 11.311 23.9151 11.645 23.878C12.3117 23.8039 11.4918 23.4687 11.2016 23.4687C10.6052 23.4687 9.91354 22.9574 9.45815 22.6159C8.96765 22.248 8.45504 21.9093 8.0293 21.4599C7.94255 21.3684 7.90096 21.3128 7.79052 21.2515C7.66988 21.1845 7.67426 21.3325 7.57828 21.3841C7.25491 21.5583 6.85818 21.5348 6.54359 21.7328C6.27981 21.8989 5.94875 21.9949 5.71357 22.2066C5.37643 22.51 5.15175 22.8178 4.85701 23.1579C4.63645 23.4124 4.73619 23.5403 4.53486 23.5369C4.01962 23.5282 3.67762 23.3803 3.21971 23.6695C2.72687 23.9808 2.48455 24.3827 2.16228 24.8483C2.01415 25.0622 1.8832 25.2747 1.72263 25.4812C1.64225 25.5845 1.33123 26.2781 1.61651 25.9929C2.12282 25.4865 2.6993 25.0277 3.17801 24.4958C3.45516 24.1878 3.74643 23.6965 4.1748 23.6013C4.27049 23.5801 4.30896 23.4742 4.41358 23.4687C4.59088 23.4593 4.7654 23.5131 4.93661 23.5521C5.43468 23.6653 5.82804 23.8098 6.35409 23.8098C7.21317 23.8098 8.07225 23.8098 8.93133 23.8098C9.52386 23.8098 9.97209 24.2191 10.5535 24.2191C11.0839 24.2191 11.4806 24.8912 11.7474 25.2765C12.0055 25.6495 12.2438 26.0118 12.3424 26.4552C12.4178 26.7945 12.5252 27.3328 12.6987 27.6302C12.8397 27.8719 13.0569 28.3884 13.0777 28.6686C13.1038 29.0217 13.3427 29.3105 13.4339 29.6389C13.664 30.4673 14.2805 31.172 14.4269 32.0342C14.485 32.3762 14.5913 33.9065 15.0902 33.9065C15.4114 33.9065 14.9958 33.9388 14.9348 33.8913C14.8979 33.8627 15.0226 34.1588 15.0561 34.2173C15.1154 34.321 15.2043 34.5702 15.2759 34.6418C15.3294 34.6953 15.4156 34.4694 15.1243 34.4523C14.8715 34.4374 14.7688 33.172 14.5103 32.9135C14.3177 32.7209 14.5172 33.25 14.5785 33.3266C14.6883 33.4639 14.7371 33.5561 14.8855 33.6715C15.051 33.8002 15.251 33.9931 15.3441 34.1794C15.3635 34.2181 15.5656 34.6112 15.5298 34.4144C15.4809 34.1451 15.1702 33.8842 14.9879 33.7018C14.7343 33.4483 14.5347 33.2056 14.3284 32.9059C13.8256 32.1758 13.348 31.5047 12.7669 30.829C11.823 29.7314 11.1077 28.3891 10.5004 27.0844C10.1424 26.3153 9.77062 25.5596 9.39751 24.799C9.30008 24.6004 9.20205 24.2977 9.0185 24.1509C8.94069 24.0886 9.0978 24.0696 9.15495 24.1585C9.44609 24.6114 9.70041 25.0912 9.99255 25.5456C10.5191 26.3647 10.9749 27.226 11.5086 28.0395C11.7908 28.4697 12.1516 28.8828 12.3955 29.3357C12.5581 29.6377 12.5277 29.4602 12.3765 29.2485C11.8344 28.4895 11.4298 27.6552 11.0765 26.7926C10.7817 26.0727 9.88987 23.9473 10.3488 24.5754C10.5442 24.8428 10.852 25.332 11.2357 25.3106C11.3821 25.3025 11.4058 25.1236 11.4404 25.0112C11.4788 24.8863 11.5851 24.9194 11.6791 24.8672C11.8419 24.7768 12.0421 24.7606 12.1908 24.6284C12.2756 24.553 12.3887 24.5237 12.2059 24.4579C11.8292 24.3223 11.4266 24.2732 11.0386 24.185C10.574 24.0794 10.2626 23.7959 9.83337 23.6051C9.33294 23.3827 8.82099 23.1913 8.43863 22.7865C8.21254 22.5471 8.11115 22.4258 7.72988 22.3809C7.3844 22.3403 7.60656 22.6885 7.74125 22.7865C8.40345 23.2681 8.96122 23.9349 9.515 24.5299C10.2416 25.3105 10.9787 26.1396 11.5086 27.0692C11.8578 27.6819 12.0614 28.2344 12.2211 28.9188C12.2694 29.1259 12.2372 29.3334 12.2742 29.5404C12.3531 29.9823 12.5434 30.3732 12.7593 30.7608C13.0349 31.2556 13.2961 31.7018 13.6196 32.1669C13.7319 32.3282 14.1493 32.7448 14.0366 32.5838C13.8564 32.3265 13.5603 32.1114 13.3468 31.8826C12.9122 31.417 12.4984 30.9313 12.0771 30.4538C11.6967 30.0226 11.2571 29.6203 10.9097 29.1613C10.7879 29.0003 11.0412 29.1981 11.0538 29.2068C11.3643 29.4235 11.673 29.6477 11.971 29.8815C12.3366 30.1683 12.7222 30.5246 12.964 30.9275C13.0898 31.1372 13.0689 31.2558 12.7896 31.1019C11.9498 30.6391 11.0934 29.9372 10.4625 29.2144C10.4285 29.1754 9.81878 28.4507 9.96981 28.3958C10.3592 28.2542 10.9284 28.7522 11.1751 28.9794C11.6362 29.4043 11.9187 30.0134 12.2135 30.5561C12.2404 30.6055 12.4926 31.1633 12.2818 30.9124C11.5962 30.0962 11.0905 28.9636 10.671 27.994C10.4462 27.4745 10.2697 26.938 10.0911 26.4022C10.0382 26.2436 10.7932 26.5519 10.8264 26.5689C11.4344 26.8813 11.9641 27.3363 12.3917 27.8651C12.5725 28.0888 12.7831 28.5245 13.036 28.6762C13.1233 28.7286 12.9396 28.4965 12.8844 28.4109C12.6241 28.0079 12.3863 27.5913 12.168 27.164C11.8746 26.5895 11.6967 25.9674 11.41 25.394C11.2899 25.1538 11.2992 25.4332 11.3191 25.5456C11.4019 26.0148 11.7277 26.4744 11.9103 26.9101C12.2097 27.6242 12.4639 28.3533 12.801 29.0514C13.068 29.6046 13.415 30.1287 13.6234 30.7077C13.8397 31.3084 13.9884 31.8993 14.2374 32.489C14.429 32.9427 14.6344 33.3738 14.7984 33.8383C14.8255 33.9152 14.1847 33.3461 14.1313 33.2736C13.5882 32.5357 13.114 31.7258 12.638 30.9427C12.5557 30.8072 12.1929 30.3609 12.4561 30.7759C12.979 31.6005 13.4298 32.4762 13.8736 33.3456C13.9666 33.5279 14.2981 33.9252 14.2981 34.1377C14.2981 34.3227 13.95 34.0073 13.7902 33.9141C13.2677 33.6093 12.7606 33.2808 12.2742 32.9211C11.9404 32.6743 11.1867 32.2458 11.0083 31.8296C11.0024 31.8158 11.9061 32.1619 11.9823 32.2048C12.1871 32.32 12.3831 32.4503 12.5925 32.5572C12.7556 32.6405 13.2069 32.663 13.0852 32.7998C12.9968 32.8993 12.2294 32.7095 12.1226 32.6937C11.7075 32.6321 11.3004 32.5421 10.8946 32.436C10.7466 32.3973 10.587 32.3629 10.4436 32.3071C10.295 32.2493 10.7516 32.3957 10.8946 32.4663C11.8469 32.9364 12.8162 33.4964 13.6841 34.1112C13.6914 34.1164 14.1976 34.4563 14.154 34.5053C14.1085 34.5566 13.785 34.5205 13.7675 34.5205C13.2833 34.5205 12.7956 34.5366 12.3121 34.5053C11.9892 34.4844 11.0822 34.5215 10.8567 34.2476C10.7672 34.1389 11.1328 34.1794 11.2736 34.1794C11.6717 34.1794 12.0664 34.1892 12.4561 34.2779C12.7947 34.355 14.4561 34.7934 13.1724 34.7934C12.681 34.7934 12.1895 34.7934 11.6981 34.7934C11.3786 34.7934 11.3446 34.7934 11.6905 34.7934C12.2399 34.7934 12.891 34.8546 13.3809 35.1345C13.6183 35.2702 13.2754 35.4532 13.1838 35.4794C12.9895 35.5349 13.3408 35.7891 13.4036 35.7333C13.4639 35.6797 13.4748 35.5815 13.4908 35.5097C13.5168 35.3927 13.6428 35.4193 13.7258 35.3733C13.9396 35.2545 14.6294 35.3392 13.8736 35.3392C13.2955 35.3392 12.7157 35.3523 12.1377 35.3392C11.8638 35.3329 11.6441 35.2027 11.3721 35.2027C10.9351 35.2027 10.5072 35.1465 10.0759 35.1345C9.73669 35.1251 9.39579 35.1345 9.05641 35.1345C8.84345 35.1345 7.95983 35.1654 8.65466 35.1307C9.33084 35.0969 10.0221 34.8944 10.7051 35.0132C10.9959 35.0638 11.2577 35.2114 11.5427 35.2747C11.7038 35.3105 11.8248 35.4886 11.9331 35.5969C12.2539 35.9177 11.6417 35.8345 11.4404 35.8015C10.8557 35.7059 10.3111 35.4074 9.71967 35.4074C9.22336 35.4074 8.65839 35.3408 8.16574 35.4112C7.6838 35.48 7.19932 35.5398 6.7331 35.3733C6.51287 35.2946 6.14735 35.2826 5.91444 35.2709C5.69723 35.2601 5.50378 35.1458 5.30045 35.1345C5.14629 35.1259 4.93936 35.1048 4.78879 35.1383C4.59909 35.1804 5.08201 35.2709 5.16401 35.2709C5.34544 35.2709 5.51996 35.355 5.67567 35.4415C5.84656 35.5364 6.58101 35.7485 5.97887 35.7485C5.29751 35.7485 4.89831 35.3806 4.34535 35.1042C3.77872 34.8209 3.21852 34.5231 2.69289 34.1794C2.20975 33.8635 2.29872 33.3831 2.29872 32.8453C2.29872 31.8629 2.26635 30.9204 2.15849 29.9497C2.07442 29.1931 2.09406 28.4293 2.09406 27.6643C2.09406 26.9485 2.09829 26.4748 2.42 25.8185C2.56155 25.5298 2.74166 25.4619 2.96577 25.2614C3.24629 25.0104 3.5287 24.7861 3.86023 24.6057C4.18283 24.4301 4.53846 24.3676 4.83806 24.1509C4.9515 24.0688 5.90967 23.6897 5.87275 23.6733C5.35173 23.4418 5.96551 23.0759 6.22902 22.9229C6.52313 22.7521 7.46098 22.3814 7.72609 22.7713C7.92401 23.0624 7.27683 23.005 7.14242 22.957C7.10791 22.9447 6.92077 22.8769 7.02114 22.8016C7.2184 22.6537 7.73815 22.8866 7.90044 22.976C8.27407 23.1817 9.58895 24.9371 8.38556 24.6663C8.20329 24.6253 7.63513 24.4005 7.63513 24.1585C7.63513 23.8496 8.67264 24.872 8.70772 24.9165C9.18661 25.5231 9.68117 26.3008 9.84095 27.0692C9.94033 27.5472 9.73351 27.6914 9.31034 27.3952C8.5193 26.8415 7.87115 26.0537 7.36983 25.2348C7.22398 24.9966 6.92014 24.5133 7.36225 25.0036C8.3033 26.0474 8.9963 27.2693 9.59838 28.5322C9.71215 28.7708 9.80317 29.0141 9.86369 29.2713C9.87441 29.3168 9.55299 28.6987 9.54911 28.6914C9.00737 27.6692 8.5796 26.5992 8.1051 25.5456C8.00396 25.3211 7.88756 25.0977 7.80947 24.8634C7.74583 24.6725 8.05901 25.1793 8.18848 25.3334C9.89401 27.363 11.5203 29.6549 12.5129 32.1365C12.5293 32.1774 12.5455 32.2584 12.4713 32.1934C12.1352 31.8993 11.9025 31.4319 11.7132 31.0412C11.0541 29.6803 10.7369 28.1936 10.1214 26.8191C10.1132 26.8008 9.84597 26.2287 10.0305 26.6523C10.3249 27.3284 10.6475 27.9916 10.9401 28.6686C11.234 29.3488 11.5219 30.0334 11.7739 30.7304C11.8748 31.0097 12.1014 31.4058 12.1074 31.7083C12.1102 31.846 11.8234 31.7449 11.6943 31.6969C11.1168 31.4824 10.7459 30.9853 10.3564 30.5334C9.75631 29.837 9.32912 29.182 8.96544 28.3427C8.95727 28.3238 8.96474 28.2654 8.97682 28.2821C9.25705 28.6683 9.44587 29.1425 9.62871 29.5783C10.1486 30.8172 10.4577 32.0751 10.6596 33.3986C10.7749 34.1548 10.4921 32.7598 10.4815 32.6899C10.2725 31.3108 10.124 29.9084 10.0797 28.5132C10.0788 28.485 10.034 27.9439 10.1252 28.3086C10.2793 28.9251 10.4369 29.5407 10.5876 30.1581C10.8213 31.1157 11.2357 32.1777 11.2357 33.175C11.2357 33.5909 10.9362 32.3954 10.8491 31.9887C10.6975 31.2814 10.5292 30.5569 10.5535 29.8284C10.5623 29.5649 11.1728 30.1779 11.194 30.1998C11.7255 30.7499 12.0641 31.5597 12.1908 32.3071C12.243 32.6151 12.3571 33.0205 11.9861 33.1561C11.627 33.2873 11.2766 33.2501 11.0993 32.8756C10.8055 32.2555 10.7213 31.5044 10.6369 30.829C10.5864 30.4253 10.774 30.6378 10.9704 30.8593C11.634 31.6076 12.0653 32.585 12.3992 33.5199C12.4762 33.7353 12.7105 34.4978 12.2628 34.4978C11.4098 34.4978 10.7684 33.5926 10.4246 32.9287C9.83666 31.7933 9.67918 30.3947 9.4771 29.1462C9.46128 29.0484 9.27269 27.8128 9.37477 28.4488C9.6252 30.0092 9.74555 31.5728 9.83716 33.1485C9.84089 33.2126 9.87684 34.0642 9.822 33.9672C9.3146 33.0694 9.25081 31.9437 9.09431 30.9503C8.99924 30.3468 8.91617 29.7571 8.91617 29.1462C8.91617 28.7729 9.06904 29.8773 9.16632 30.2377C9.3716 30.9982 9.50777 31.7547 9.63249 32.5307C9.66226 32.7159 9.87246 33.4242 9.51121 32.9779C8.31601 31.5015 8.39465 29.4422 8.15058 27.6605C8.08324 27.1689 7.98963 27.7047 7.97624 27.8803C7.87868 29.1594 7.74132 30.4363 7.65029 31.7159C7.60892 32.2974 7.61997 32.8805 7.61997 33.4631C7.61997 33.7202 7.57191 34.0314 7.65408 34.2779C7.67146 34.3301 7.66837 34.5468 7.75641 34.5053C7.9473 34.4155 8.02507 34.3893 8.2567 34.3841C9.02491 34.3666 8.42408 32.0473 8.30218 31.7121C8.20294 31.4391 8.10292 31.0644 7.85875 30.8745C7.63066 30.6971 7.8037 31.0597 7.82842 31.1246C8.03723 31.6727 8.14113 32.2601 8.23396 32.8377C8.25593 32.9744 8.45824 33.7175 8.15816 33.5881C7.81044 33.4383 7.52891 33.1892 7.15379 33.0954C7.09782 33.0814 6.65982 32.94 6.74068 33.122C6.85672 33.3831 7.47999 33.3729 7.53659 33.7549C7.57225 33.9956 5.55463 33.9741 5.39899 33.9747C4.78964 33.977 2.9643 33.8641 3.57218 33.9065C4.11773 33.9446 4.6809 34.2509 5.14885 34.5129C5.35546 34.6286 5.87135 34.7747 6.00919 34.9677C6.12515 35.1301 5.27956 34.9176 5.27013 34.9147C4.90655 34.8014 4.55452 34.6568 4.19375 34.5357C4.07406 34.4955 3.64929 34.442 3.57218 34.3158C3.56398 34.3024 4.79329 34.2482 4.91765 34.259C5.48394 34.3082 6.02016 34.5486 6.5777 34.6532C6.75625 34.6866 7.08812 34.7995 6.68383 34.7024C5.73281 34.4742 4.84046 33.9085 3.97014 33.482C3.55555 33.2789 3.08193 33.1342 2.69289 32.8832C2.40193 32.6955 2.91779 32.7457 3.02641 32.7467C3.77315 32.7542 4.48615 32.9095 5.20949 33.0841C5.47291 33.1477 5.72107 33.2318 5.96371 33.3532C6.04586 33.3942 6.2326 33.5265 6.33135 33.5123C6.47377 33.492 6.18355 33.2655 6.11153 33.1409C5.73028 32.4817 5.42456 31.7805 5.14885 31.0715C4.96365 30.5953 4.68646 29.9572 4.68646 29.4342C4.68646 29.2325 4.98453 29.2222 5.13369 29.2675C5.42701 29.3565 5.55969 29.9947 5.64914 30.2301C5.80008 30.6275 5.89762 31.0196 5.98266 31.4354C6.04568 31.7435 6.30171 33.0516 6.14943 31.9319C5.90902 30.1642 5.95253 28.3385 5.98645 26.5576C5.99323 26.2019 6.13511 25.2467 6.17217 26.243C6.24104 28.0948 6.24073 29.9783 6.17217 31.8296C6.16693 31.9708 6.05912 32.764 6.05467 32.724C6.00342 32.2627 6.09362 31.7259 6.12669 31.2724C6.20698 30.1713 6.34146 29.0796 6.49432 27.9864C6.60778 27.175 6.73032 26.3656 6.86196 25.557C6.88779 25.3983 6.88741 25.1246 6.97566 24.9733C7.05833 24.8316 7.16974 26.154 7.17653 26.2582C7.3024 28.1881 7.33783 30.1308 7.34709 32.0645C7.35009 32.6916 7.3736 34.5701 7.41531 33.9444C7.50487 32.601 7.41531 31.219 7.41531 29.8739C7.41531 28.6345 7.41531 27.3952 7.41531 26.1558C7.41531 25.6437 7.33222 27.1779 7.24854 27.6832C6.98082 29.2999 6.74189 30.8933 6.54359 32.5193C6.50247 32.8566 6.52684 33.8682 6.46021 33.5351C6.22337 32.3509 6.39199 31.0061 6.39199 29.8057C6.39199 29.3319 6.39199 28.8581 6.39199 28.3844C6.39199 28.2482 6.31725 27.7324 6.42989 27.6036C6.46638 27.5619 6.48664 27.701 6.49811 27.7552C6.53911 27.9491 6.58475 28.2839 6.60802 28.4526C6.75229 29.4985 6.87013 30.5479 7.0363 31.5908C7.06291 31.7578 7.65131 34.8616 7.48353 34.8616C7.19563 34.8616 6.56932 34.2873 6.67625 34.5546C6.72871 34.6858 7.22814 34.8556 7.34709 34.8919C7.43109 34.9176 8.11858 35.0663 7.76399 35.0663C6.40273 35.0663 5.0238 34.9266 3.6783 34.7403C3.28559 34.6859 2.89455 34.7676 2.57919 34.4523C2.37942 34.2525 2.36694 34.0172 2.36694 33.7549C2.36694 33.1306 2.79112 33.6245 2.98093 33.9065C3.0488 34.0073 3.11647 34.1117 3.18181 34.2097C3.21054 34.2528 3.18514 34.106 3.18181 34.0543C3.15756 33.6785 3.1087 33.3046 3.08326 32.9287C3.00036 31.7035 2.9756 30.4798 2.98093 29.2523C2.98359 28.6409 3.14418 28.0791 3.1856 27.4786C3.21793 27.0097 3.1856 28.4185 3.1856 28.8885C3.1856 29.4845 3.29127 30.1926 3.15149 30.7797C3.13205 30.8613 3.02189 30.9858 2.97714 30.8441C2.76111 30.16 2.78385 29.3755 2.78385 28.6686C2.78385 27.7566 2.79932 26.2511 3.49638 25.5153C3.6961 25.3045 4.17321 25.1038 4.45148 25.0036C4.76562 24.8906 7.72947 23.2979 7.75641 23.8098C7.78841 24.4178 7.18329 24.5664 6.68003 24.7573C6.23573 24.9258 5.79545 25.1338 5.36867 25.3258C4.92179 25.5269 4.64714 25.8671 4.37568 26.2619C4.14255 26.601 3.78013 26.831 3.49259 27.1185C3.30807 27.303 3.50242 27.0184 3.54186 26.9555C3.77243 26.5877 4.00945 26.2251 4.26197 25.8716C4.28366 25.8412 4.58083 25.4423 4.50833 25.4585C4.26074 25.5135 4.05913 25.9863 3.93603 26.171C3.6914 26.5379 3.56072 27.0016 3.4888 27.4331C3.48173 27.4755 3.3913 28.0596 3.47364 28.0926C3.63151 28.1557 4.5579 25.7177 4.73952 25.4243C4.85948 25.2306 4.89112 25.358 4.89112 25.5115C4.89112 26.8359 4.37158 28.2037 4.05352 29.4759C3.83596 30.3462 3.68584 31.2281 3.4888 32.1024C3.25969 33.1191 4.12531 30.1174 4.41358 29.1159C4.69987 28.1212 4.90566 27.11 5.12232 26.099C5.14605 25.9882 5.16401 25.5873 5.16401 25.9171C5.16401 26.9983 4.9532 28.0421 4.83048 29.1159C4.66498 30.564 4.54508 32.0359 4.48559 33.4934C4.47265 33.8104 4.4721 33.8399 4.4818 33.4972C4.52924 31.821 4.90532 30.1684 5.15643 28.517C5.27801 27.7175 5.32377 26.9327 5.37246 26.1293C5.3968 25.7277 5.53764 26.6494 5.54302 26.7016C5.66558 27.8922 5.62921 29.0898 5.70978 30.2832C5.73226 30.6162 5.93456 31.3688 5.76284 31.6931C5.72396 31.7666 5.56814 31.8153 5.50511 31.9281C5.44015 32.0444 5.29925 32.2172 5.16401 32.254C4.29322 32.4915 4.27444 29.0026 4.24681 28.6383C4.18639 27.8418 4.14069 27.0492 4.14069 26.2506C4.14069 26.0569 4.08705 25.6979 4.22407 25.5305C4.60237 25.0681 4.82661 24.5193 5.33835 24.1471C5.73694 23.8572 6.25754 23.4531 6.52085 23.0252C6.65537 22.8066 6.83303 22.6298 7.02114 22.4605C7.09505 22.394 7.17855 22.3519 7.24475 22.271C7.33284 22.1633 7.37968 21.8128 7.51385 21.7745C7.61066 21.7469 7.4797 22.1863 7.46837 22.2104C7.31067 22.5447 7.16368 22.8525 7.0742 23.2185C6.66886 24.8768 6.77023 26.7894 7.63513 28.2821C8.10907 29.1 8.81512 29.7506 9.42783 30.4576C9.63663 30.6985 9.953 30.8501 10.1821 31.0791C10.9456 31.8427 11.7334 32.6926 12.7024 33.1902C13.3329 33.5139 14.2656 33.9102 14.5444 34.6228C14.9128 35.5643 15.9899 35.7268 16.8905 35.8698C17.4023 35.951 17.85 36.0214 18.3686 36.0214C18.6137 36.0214 18.8588 36.0214 19.1039 36.0214C19.4669 36.0214 19.7377 35.8703 20.0741 35.7485C20.7166 35.5159 21.2049 35.1073 21.738 34.6986C22.3017 34.2664 23.035 33.9514 23.7315 33.808C24.2149 33.7085 24.7944 33.744 25.2893 33.7701C26.6317 33.8407 22.6048 33.9355 21.268 34.0771C20.0706 34.2038 18.7676 34.0727 17.5954 34.3841C17.2112 34.4861 16.808 34.4829 16.4281 34.5887C16.2211 34.6464 16.0992 34.7252 15.8747 34.7252C15.0391 34.7252 14.7165 33.7435 14.4421 33.0727C14.3089 32.7472 14.156 32.4098 14.0707 32.0683C14.0303 31.9068 14.2977 32.0641 14.3398 32.1062C14.509 32.2755 14.6787 32.4451 14.8476 32.6141C15.1948 32.9612 15.7306 33.2675 15.9771 33.7056C16.1649 34.0395 16.5714 34.3572 16.898 34.5205" stroke="#4245C3" stroke-width="1.03954" stroke-linecap="round"/>
</svg>
