<svg width="36" height="38" viewBox="0 0 36 38" fill="none" xmlns="http://www.w3.org/2000/svg">
<rect x="-0.519772" y="0.519772" width="34.305" height="35.8643" rx="4.67795" transform="matrix(-1 0 0 1 34.6829 0.422852)" fill="white" stroke="#F32D12" stroke-width="1.03954"/>
<path d="M19.7474 5.63173C19.7474 5.28179 20.0736 4.88656 20.3001 4.64681C20.5034 4.43159 20.7514 4.24566 20.9909 4.07244C21.2156 3.90994 21.4614 3.79981 21.7409 3.7744C22.0398 3.74723 22.2671 3.78586 22.5048 3.97375C22.7024 4.12997 22.8666 4.32173 22.9627 4.55601C23.1248 4.95113 23.2439 5.40258 23.2825 5.82713" stroke="#F32D12" stroke-width="1.03954" stroke-linecap="round"/>
<path d="M15.9713 5.40663C15.9713 5.0567 15.6452 4.66146 15.4187 4.42171C15.2153 4.2065 14.9673 4.02056 14.7278 3.84734C14.5032 3.68484 14.2573 3.57471 13.9778 3.5493C13.679 3.52213 13.4517 3.56076 13.214 3.74865C13.0163 3.90487 12.8521 4.09663 12.756 4.33092C12.594 4.72603 12.4749 5.17749 12.4363 5.60204" stroke="#F32D12" stroke-width="1.03954" stroke-linecap="round"/>
<path d="M27.4481 21.4595C28.5497 21.4595 29.5875 22.1267 30.5201 22.6544C31.4287 23.1686 32.1944 23.7071 32.9341 24.4469C33.4783 24.991 34.0022 25.5568 34.5123 26.1307C34.5668 26.192 34.8998 26.6739 34.8352 26.6739" stroke="#F32D12" stroke-width="1.03954" stroke-linecap="round"/>
<path d="M6.96509 20.7656C6.51663 21.0072 6.05732 21.238 5.63116 21.5186C5.4604 21.631 5.30963 21.7688 5.1369 21.8784C4.93003 22.0098 4.72206 22.1307 4.50823 22.2499C3.95199 22.5599 3.42109 22.9701 2.93439 23.3786C2.37391 23.849 1.88383 24.3731 1.54121 25.0203C1.42186 25.2458 1.30907 25.4907 1.21604 25.7285C1.08975 26.0512 1.0651 26.39 0.981911 26.7228" stroke="#F32D12" stroke-width="1.03954" stroke-linecap="round"/>
<path d="M22.4318 23.9263C22.4318 24.3972 22.4486 24.8717 22.4279 25.3422C22.3847 26.326 21.9408 27.3101 21.6552 28.2398C21.3771 29.1453 21.0703 30.0357 20.6701 30.8959C20.4289 31.4143 20.1536 31.9812 19.8317 32.4567C19.3995 33.0952 18.9558 33.7451 18.5896 34.4232C18.3611 34.8463 17.9665 35.1444 17.7029 35.5397" stroke="#F32D12" stroke-width="1.03954" stroke-linecap="round"/>
<path d="M12.0292 23.8125C12.0292 24.3937 11.9748 25.002 12.0563 25.578C12.1778 26.437 12.6282 27.2229 12.8646 28.0525C13.0245 28.6138 13.1322 29.1635 13.3567 29.7052C13.6181 30.3357 13.8876 30.9614 14.2237 31.5565C14.7133 32.4232 15.2357 33.2916 15.628 34.2071C15.7803 34.5624 15.9712 35.0433 15.9712 35.4353" stroke="#F32D12" stroke-width="1.03954" stroke-linecap="round"/>
<path d="M21.2014 26.5902C20.9874 26.6534 20.8068 26.7673 20.6261 26.8971C20.3845 27.0708 20.1405 27.2444 19.9085 27.431C19.8348 27.4903 19.7595 27.5579 19.7055 27.6359C19.6788 27.6745 19.6657 27.6939 19.6112 27.6763C19.5146 27.6452 19.4293 27.5551 19.3573 27.4897C19.1135 27.2684 18.876 27.0395 18.6367 26.8134C18.2584 26.4559 17.8905 26.0795 17.4871 25.7494C17.4494 25.7185 17.2913 25.5513 17.236 25.5513" stroke="#F32D12" stroke-width="1.03954" stroke-linecap="round"/>
<path d="M17.2361 25.5513C17.1956 25.5614 17.1608 25.5967 17.1303 25.6225C16.9877 25.7427 16.8499 25.8694 16.7137 25.9967C16.4382 26.254 16.1635 26.518 15.9047 26.7923C15.6643 27.047 15.3929 27.3134 15.1938 27.6023C15.1528 27.6616 15.1105 27.722 15.0754 27.785C15.0429 27.8436 14.8807 27.7431 14.8542 27.7302C14.3475 27.4839 13.8848 27.1539 13.4227 26.8346C13.152 26.6475 12.8654 26.4901 12.5781 26.3305" stroke="#F32D12" stroke-width="1.03954" stroke-linecap="round"/>
<path d="M19.1461 28.3157C18.3381 28.3157 17.5265 28.3349 16.7186 28.3144C16.3882 28.306 16.0596 28.2515 15.7286 28.2446C15.5398 28.2407 14.9767 28.2534 15.1626 28.2196C15.5319 28.1525 15.9188 28.1735 16.2921 28.1735C16.6936 28.1735 17.0493 28.1909 17.44 28.2868C17.7051 28.3518 18.0083 28.4196 18.2812 28.4329C18.5041 28.4438 18.736 28.4705 18.946 28.5474C19.0912 28.6006 19.2734 28.6045 19.4067 28.6712" stroke="#F32D12" stroke-width="1.03954" stroke-linecap="round"/>
<path d="M19.454 28.4106C19.454 28.6828 19.4773 28.9645 19.404 29.2295C19.3101 29.5684 19.1372 29.9139 18.9643 30.2194C18.9024 30.3288 18.7555 30.7328 18.5878 30.7328C18.3682 30.7328 18.1437 30.7915 17.9243 30.8092C17.469 30.8459 17.0304 30.875 16.571 30.875C16.3437 30.875 16.1164 30.875 15.8891 30.875C15.814 30.875 15.7081 30.6558 15.6745 30.5999C15.4059 30.1521 15.3017 29.597 15.1769 29.0978C15.1537 29.0052 15.1266 28.7795 15.065 28.7003C14.8759 28.4571 15.4898 29.1466 15.6943 29.3769C15.8905 29.598 16.082 29.8188 16.2498 30.0628C16.3108 30.1516 16.4097 30.2579 16.442 30.3629C16.4555 30.4067 16.4105 30.3967 16.3867 30.38C16.2371 30.2756 16.1376 30.0767 16.0918 29.9061C15.965 29.4333 16.4973 29.3348 16.8554 29.3348C16.9489 29.3348 17.542 29.4576 17.2384 29.6283C17.0399 29.74 16.346 29.8346 16.3077 29.4901C16.2641 29.0972 16.9431 29.0107 17.2095 29.032C17.5005 29.0553 17.7116 29.1882 17.8927 29.4138C17.9757 29.5171 18.093 29.6875 18.0691 29.8311C18.0383 30.0161 17.7264 30.0565 17.5847 30.072C17.257 30.1077 16.7444 30.0824 16.4867 29.8429C15.9785 29.3705 16.8098 29.0168 17.1976 28.9609C17.6383 28.8974 18.1327 28.9287 18.4153 29.3216C18.6238 29.6114 18.4891 29.9853 18.0967 29.914C17.6764 29.8376 17.3293 29.1906 17.7242 28.874C17.9296 28.7094 18.467 28.6929 18.6575 28.8885C18.9855 29.2253 18.4909 29.4333 18.2086 29.4664C17.8178 29.5123 17.4828 29.4968 17.1134 29.3585C16.8931 29.276 16.695 29.1571 16.4973 29.032C16.4395 28.9955 16.1768 28.8522 16.2129 28.7437C16.2484 28.6373 16.6599 28.7467 16.7132 28.8043C16.9324 29.041 16.6017 29.1064 16.4183 29.0926C16.3012 29.0837 16.161 29.0684 16.0708 28.9846C16.0396 28.9557 16.06 28.9556 16.0892 28.9556" stroke="#F32D12" stroke-width="1.03954" stroke-linecap="round"/>
<path d="M18.7402 31.8656C18.4477 31.8656 18.1442 31.8433 17.8526 31.8666C17.6886 31.8797 17.5342 31.9015 17.368 31.9015C17.2871 31.9015 17.1553 31.9173 17.0798 31.9464C16.9729 31.9875 16.8135 31.9667 16.6978 31.9873C16.5666 32.0106 16.4225 31.9867 16.2949 32.0232C16.1632 32.0608 15.9062 31.9801 15.8462 32.1289C15.7841 32.2827 15.7248 32.4564 15.6886 32.6195C15.6621 32.7386 15.5809 32.8113 15.5809 32.9426C15.5809 33.2412 15.6982 33.5479 15.8671 33.7923C15.9896 33.9696 16.1085 34.1483 16.2351 34.3228C16.2751 34.3781 16.3374 34.4873 16.3986 34.5223C16.458 34.5562 16.5321 34.6228 16.5642 34.6838C16.6209 34.7916 16.7216 34.8948 16.8414 34.9391C16.9325 34.9729 16.9972 35.0065 17.0927 34.9631C17.2499 34.8916 17.3881 34.6837 17.4896 34.5522C17.6708 34.3177 17.8633 34.0922 18.0501 33.8621C18.1622 33.7241 18.2856 33.5779 18.4281 33.4702C18.5575 33.3723 18.6819 33.2638 18.7761 33.1311C18.9019 32.9539 19.0479 32.7868 19.161 32.6016C19.2 32.5379 19.2408 32.4497 19.161 32.4041C19.0881 32.3624 19.0344 32.2963 18.9656 32.2525C18.8798 32.1979 18.7498 32.2067 18.6504 32.2067C18.3938 32.2067 18.1558 32.2274 17.9125 32.3183C17.7349 32.3848 17.5638 32.4418 17.3939 32.5258C17.2631 32.5904 17.1293 32.6563 16.995 32.7133C16.7938 32.7986 16.6167 32.9336 16.5502 33.154C16.4739 33.407 16.4663 33.8105 16.6789 34.0007C16.8315 34.1373 17.1514 34.1566 17.3221 34.0476C17.482 33.9454 17.6107 33.7795 17.737 33.6407C17.8306 33.5379 17.9249 33.4348 18.0032 33.3196C18.1251 33.1404 18.2513 32.9815 18.2176 32.7541C18.2046 32.6664 18.1232 32.5723 18.0282 32.6155C17.8139 32.7129 17.6522 33.0214 17.5555 33.2239C17.4533 33.4377 17.314 33.8079 17.0169 33.7863C16.8757 33.776 16.7859 33.568 16.7078 33.4712C16.6423 33.3901 16.5898 33.3127 16.5502 33.2159C16.5005 33.0942 16.4341 32.9704 16.3169 32.9067C16.2853 32.8896 16.2349 32.8707 16.2092 32.8449C16.1833 32.819 16.1685 32.7787 16.1374 32.7631" stroke="#F32D12" stroke-width="1.03954" stroke-linecap="round"/>
<path fill-rule="evenodd" clip-rule="evenodd" d="M15.549 5.14752C16.1717 5.11447 16.8309 5.10107 17.5304 5.10107C18.5834 5.10107 19.5615 5.14581 20.47 5.25004L19.3376 6.19373C18.7694 6.1576 18.1679 6.14062 17.5304 6.14062C17.2506 6.14062 16.9792 6.14287 16.7158 6.14765L15.549 5.14752ZM12.2058 6.72053L13.0639 5.43345C9.18088 6.19609 7.00901 8.53147 5.0559 14.9767C3.3622 20.566 10.6409 24.8524 17.5304 24.8524C24.4199 24.8524 31.3044 20.4344 30.005 14.9767C28.6686 9.36409 26.4401 6.75658 22.8269 5.70676L23.1717 6.91329C23.8605 7.1671 24.4752 7.49052 25.0279 7.89368C26.7625 9.15902 28.0727 11.3492 28.9937 15.2175C29.5116 17.3928 28.4479 19.4807 26.2211 21.1249C23.9965 22.7674 20.7743 23.8129 17.5304 23.8129C14.2752 23.8129 10.9514 22.7941 8.68018 21.1657C6.41274 19.5401 5.38214 17.4847 6.05077 15.2782C7.33489 11.0406 8.64875 8.8539 10.2931 7.66532C10.8585 7.25669 11.4861 6.94872 12.2058 6.72053Z" fill="#F32D12"/>
<path d="M16.8999 5.59961C16.7938 5.59961 16.6876 5.59961 16.5815 5.59961C16.444 5.59961 16.3087 5.65346 16.1713 5.65346C16.12 5.65346 16.076 5.68675 16.0264 5.68935C16.0122 5.6901 15.9946 5.70301 15.9815 5.71029C15.9681 5.71777 15.9706 5.71231 15.9882 5.71362C16.0294 5.71668 16.0681 5.72525 16.1101 5.72525C16.216 5.72525 16.3279 5.73275 16.4319 5.71196C16.4811 5.70211 16.5297 5.6934 16.5798 5.68969C16.6793 5.68232 16.7771 5.65498 16.876 5.64149" stroke="#F32D12" stroke-width="1.03954" stroke-linecap="round"/>
<path d="M19.8855 5.44971C19.8855 5.56193 19.7919 5.64097 19.7093 5.70232C19.6616 5.73776 19.6352 5.74886 19.577 5.74886C19.494 5.74886 19.4124 5.75484 19.3291 5.75484" stroke="#F32D12" stroke-width="1.03954" stroke-linecap="round"/>
<path d="M12.6396 5.41504C12.6396 5.52057 12.6304 5.60962 12.608 5.71251C12.586 5.81389 12.5306 5.94899 12.4596 6.02545C12.3841 6.10681 12.3239 6.14135 12.2283 6.19283C12.1785 6.21962 12.1179 6.23267 12.0644 6.25049C11.9242 6.29722 11.7945 6.3631 11.6776 6.45303" stroke="#F32D12" stroke-width="1.03954" stroke-linecap="round"/>
<path d="M23.5259 6.47852C23.4567 6.47852 23.3513 6.37552 23.3205 6.31396C23.2891 6.25114 23.2854 6.18132 23.2854 6.11143C23.2854 5.95394 23.2647 5.79895 23.2474 5.64307" stroke="#F32D12" stroke-width="1.03954" stroke-linecap="round"/>
<path d="M17.5306 10.8181C17.5306 12.5073 19.0088 13.9367 20.9091 13.9367C22.8093 13.9367 24.2876 12.5073 24.2876 10.8181C24.2876 9.12891 22.8093 7.69946 20.9091 7.69946C19.0088 7.69946 17.5306 9.12891 17.5306 10.8181Z" stroke="#F32D12" stroke-width="1.03954"/>
<path d="M10.7735 10.8181C10.7735 12.5073 12.2517 13.9367 14.152 13.9367C16.0523 13.9367 17.5305 12.5073 17.5305 10.8181C17.5305 9.12891 16.0523 7.69946 14.152 7.69946C12.2517 7.69946 10.7735 9.12891 10.7735 10.8181Z" stroke="#F32D12" stroke-width="1.03954"/>
<path d="M19.1308 10.2276C19.1612 10.2276 19.2339 10.211 19.2397 10.2521C19.2473 10.3049 19.289 10.4181 19.2385 10.4577C19.1743 10.5082 19.0822 10.5249 19.0035 10.5091C18.9706 10.5026 18.8459 10.4394 18.8933 10.3867C18.9714 10.2999 19.1192 10.2786 19.2287 10.2961C19.3675 10.3183 19.485 10.508 19.3622 10.612C19.0525 10.874 18.7821 10.2369 19.1651 10.1296C19.382 10.0689 19.5985 10.1812 19.6327 10.4039C19.6693 10.6417 19.475 10.6242 19.285 10.6242" stroke="#F32D12" stroke-width="1.03954" stroke-linecap="round"/>
<path d="M15.7594 10.2275C15.9238 10.2275 15.7675 10.5264 15.5733 10.4565C15.425 10.4031 15.3407 10.2788 15.3407 10.1296C15.3407 10.0006 15.7043 10.0441 15.768 10.0769C15.834 10.111 16.0086 10.3023 15.921 10.3867C15.828 10.4762 15.6272 10.5231 15.4998 10.514C15.3626 10.5042 15.3425 10.1862 15.3407 10.1002C15.3385 9.99265 15.3789 9.96895 15.4509 9.89697" stroke="#F32D12" stroke-width="1.03954" stroke-linecap="round"/>
<path d="M15.4922 9.81668C15.5877 9.81668 15.6679 9.79268 15.7157 9.89118C15.7542 9.97049 15.7405 10.0649 15.7405 10.1505C15.7405 10.2629 15.7721 10.4315 15.7253 10.5355C15.629 10.7495 15.3942 10.8176 15.1804 10.81C14.8719 10.799 14.7115 10.3711 14.8741 10.1271C15.0411 9.87661 15.4057 9.82946 15.6812 9.8429C15.9957 9.85824 16.194 10.0642 16.2317 10.3658C16.2442 10.4659 16.2512 10.5919 16.2317 10.6914C16.1995 10.855 15.9988 10.8791 15.8633 10.8969C15.5533 10.9377 15.2884 10.8163 15.1252 10.5424C15.0214 10.3681 14.9899 10.0267 15.1197 9.86083C15.2425 9.70398 15.5323 9.56891 15.7281 9.67045C15.9893 9.80587 16.2418 10.031 16.2813 10.3382C16.3136 10.5888 16.2744 10.8098 16.0247 10.9217C15.6749 11.0786 15.2609 11.0954 15.0949 10.6803C15.0341 10.5284 14.9664 10.3711 14.9969 10.203C15.0169 10.0929 15.2772 9.97703 15.368 9.96568" stroke="#F32D12" stroke-width="1.03954" stroke-linecap="round"/>
<path d="M19.1676 10.5122C18.9938 10.5122 18.9842 10.4983 18.8945 10.3439C18.7519 10.0984 18.9477 9.94723 19.1663 9.87894C19.5108 9.77128 19.6269 10.125 19.6781 10.388C19.7441 10.7273 19.7655 11.0316 19.3553 11.0778C19.1082 11.1057 18.8449 10.9663 18.7758 10.7108C18.7082 10.4608 18.7751 10.2839 18.9566 10.1024C19.3332 9.72575 19.866 10.2274 19.8119 10.6598C19.7891 10.8421 19.4314 10.8868 19.3028 10.9219C19.0319 10.9958 18.7924 11.0099 18.751 10.6943C18.7153 10.4218 18.7641 10.1717 18.8696 9.92171C18.9397 9.75574 19.1605 9.76852 19.3111 9.76719C19.5424 9.76514 19.7014 9.79366 19.8988 9.91619C20.1091 10.0467 20.3167 10.2641 20.2216 10.5356C20.1545 10.7275 19.9526 10.7674 19.8133 10.8847C19.674 11.002 19.298 10.9364 19.1428 10.8847" stroke="#F32D12" stroke-width="1.03954" stroke-linecap="round"/>
<path d="M24.7692 13.6425C24.5953 13.6425 24.5857 13.6287 24.496 13.4742C24.3535 13.2288 24.5493 13.0776 24.7678 13.0093C25.1123 12.9017 25.2285 13.2554 25.2796 13.5184C25.3456 13.8577 25.3671 14.162 24.9568 14.2082C24.7097 14.236 24.4464 14.0967 24.3774 13.8412C24.3098 13.5911 24.3767 13.4142 24.5581 13.2328C24.9348 12.8561 25.4675 13.3578 25.4135 13.7902C25.3907 13.9724 25.033 14.0172 24.9044 14.0523C24.6334 14.1262 24.394 14.1403 24.3526 13.8247C24.3168 13.5522 24.3656 13.3021 24.4712 13.0521C24.5413 12.8861 24.762 12.8989 24.9127 12.8976C25.1439 12.8955 25.303 12.924 25.5004 13.0466C25.7107 13.1771 25.9183 13.3944 25.8232 13.666C25.7561 13.8578 25.5541 13.8977 25.4148 14.015C25.2755 14.1324 24.8995 14.0668 24.7444 14.015" stroke="#F32D12" stroke-width="1.03954" stroke-linecap="round"/>
<path d="M10.3451 13.6425C10.5189 13.6425 10.5285 13.6287 10.6182 13.4742C10.7607 13.2288 10.565 13.0776 10.3464 13.0093C10.0019 12.9017 9.88575 13.2554 9.83461 13.5184C9.76864 13.8577 9.74719 14.162 10.1574 14.2082C10.4045 14.236 10.6678 14.0967 10.7369 13.8412C10.8045 13.5911 10.7376 13.4142 10.5561 13.2328C10.1795 12.8561 9.64674 13.3578 9.70079 13.7902C9.72357 13.9724 10.0813 14.0172 10.2099 14.0523C10.4808 14.1262 10.7203 14.1403 10.7617 13.8247C10.7974 13.5522 10.7486 13.3021 10.6431 13.0521C10.573 12.8861 10.3522 12.8989 10.2016 12.8976C9.97033 12.8955 9.81128 12.924 9.61387 13.0466C9.40358 13.1771 9.196 13.3944 9.29105 13.666C9.35819 13.8578 9.56013 13.8977 9.69941 14.015C9.83873 14.1324 10.2147 14.0668 10.3699 14.015" stroke="#F32D12" stroke-width="1.03954" stroke-linecap="round"/>
<path d="M17.5571 13.1143C17.3501 13.1143 16.7292 13.1143 16.9362 13.1143C17.1427 13.1143 17.3491 13.1143 17.5556 13.1143C17.614 13.1143 18.0343 13.1253 18.043 13.1952C18.0655 13.3754 17.9253 13.4684 17.815 13.6272C17.7446 13.7287 17.6732 13.8409 17.6171 13.9511C17.585 14.0141 17.568 14.0992 17.5166 14.1506C17.4908 14.1763 17.2414 13.7846 17.2001 13.7352C17.0839 13.5956 17.0083 13.4326 16.8972 13.2897C16.8586 13.2401 16.8012 13.207 16.8012 13.1413" stroke="#F32D12" stroke-width="1.03954" stroke-linecap="round"/>
<path d="M19.3973 14.6089C19.5976 14.6392 19.6421 14.6508 19.6696 14.8363C19.6938 14.9996 19.7101 15.2629 19.6457 15.4159C19.4784 15.8132 18.9851 15.9731 18.5903 15.9731C18.215 15.9731 17.9284 15.827 17.831 15.4426C17.7629 15.1742 17.7527 14.893 17.8562 14.6341" stroke="#F32D12" stroke-width="1.03954" stroke-linecap="round"/>
<path d="M17.5281 14.6341C17.5281 14.4676 17.5308 14.9672 17.5281 15.1337C17.5224 15.4913 17.1651 15.7126 16.8741 15.8355C16.3287 16.0658 15.8521 16.0536 15.3724 15.6825C14.942 15.3496 14.8002 14.6844 15.3555 14.4067" stroke="#F32D12" stroke-width="1.03954" stroke-linecap="round"/>
<path d="M16.6583 16.1885C16.6583 17.2132 16.5088 18.3936 17.1837 19.2553C17.4462 19.5905 17.9688 19.6575 18.3329 19.4359C18.7288 19.1948 18.7717 18.7727 18.7993 18.3457C18.8336 17.8132 18.8039 17.2686 18.8039 16.7347C18.8039 16.5626 18.8604 16.2731 18.7622 16.126" stroke="#F32D12" stroke-width="1.03954" stroke-linecap="round"/>
<path d="M26.6349 12.5048C27.5323 12.3553 28.4353 11.667 29.3015 11.3799C30.5759 10.9574 31.8698 10.9111 33.1973 10.9111" stroke="#F32D12" stroke-width="1.03954" stroke-linecap="round"/>
<path d="M27.8536 14.9419C29.5231 14.9419 30.9354 14.9906 32.541 15.5044" stroke="#F32D12" stroke-width="1.03954" stroke-linecap="round"/>
<path d="M9.0105 11.0048C7.94111 9.84244 6.98589 8.31902 5.35433 7.91113" stroke="#F32D12" stroke-width="1.03954" stroke-linecap="round"/>
<path d="M7.97925 13.1611L2.4572 12.8976" stroke="#F32D12" stroke-width="1.03954" stroke-linecap="round"/>
<path d="M27.3278 21.9813C27.0748 22.0235 26.814 22.3924 26.6077 22.5612C26.3897 22.7395 26.1599 22.8654 25.9634 23.0729C25.3885 23.6797 24.4875 24.0525 23.6969 24.316C23.4845 24.3868 23.277 24.4544 23.064 24.5017C22.7175 24.5787 23.343 24.2174 23.424 24.1644C23.8369 23.8945 24.2873 23.7759 24.7771 23.649C25.1868 23.5427 25.6537 23.5835 26.0468 23.467C26.2835 23.3969 26.4159 23.1947 26.6115 23.0425C26.9937 22.7453 27.3368 22.7318 27.8054 22.7318C28.3042 22.7318 28.6313 22.8761 29.1016 23.0198C29.574 23.1642 30.0985 23.5224 30.538 23.7551C31.1089 24.0573 31.6105 24.47 32.1336 24.8466C32.7186 25.2678 33.0918 25.9604 33.6383 26.3854C33.8021 26.5128 33.9375 26.6428 34.0286 26.825C34.1166 27.001 34.2501 27.5802 34.1878 27.3935C34.0364 26.9392 33.5233 26.4426 33.2403 26.0632C32.9317 25.6496 32.6004 25.2563 32.2435 24.8845C31.7332 24.353 31.1286 23.8286 30.466 23.4974C29.6036 23.0662 28.6957 22.9474 27.8054 22.6294C27.5869 22.5514 27.5325 22.4103 27.5325 22.186C27.5325 22.1118 27.704 22.2968 27.7447 22.3338C28.135 22.6886 28.5514 23.0271 28.931 23.3912C30.2319 24.639 31.1542 26.3136 32.2473 27.7346C32.469 28.0229 32.6895 28.4188 32.9523 28.667C33.4856 29.1707 32.2284 27.3882 31.8077 26.7871C31.2272 25.958 30.6852 25.0949 30.1741 24.2213C30.1058 24.1044 29.6558 23.5201 29.9922 23.5694C31.5543 23.798 32.5541 25.5145 33.1797 26.7947C33.2772 26.9943 33.3434 27.1994 33.4298 27.4011C33.5949 27.7862 32.824 26.8211 32.5429 26.5105C32.1647 26.0924 31.7409 25.6297 31.4666 25.1309C31.258 24.7517 32.2422 25.9218 32.2511 25.9344C32.8032 26.7112 33.294 27.5219 33.6951 28.3865C33.841 28.701 33.9352 28.9219 33.6117 28.4775C32.895 27.493 32.1834 26.5052 31.4552 25.5288C31.097 25.0486 30.7567 24.5539 30.394 24.0772C30.1465 23.7519 30.2851 24.1671 30.3333 24.3009C30.8371 25.6985 31.6136 27.0096 32.2094 28.3714C32.4207 28.8544 32.6406 29.3324 32.8765 29.804C32.9305 29.9122 33.1153 30.221 33.0356 30.13C32.1947 29.1688 31.3009 28.2552 30.466 27.2874C30.1316 26.8999 29.8133 26.5025 29.5109 26.0898C29.429 25.9779 29.2602 25.8132 29.238 25.6653C29.2251 25.5792 29.3198 25.6829 29.3252 25.688C29.7484 26.0856 30.1432 26.519 30.5228 26.9577C31.2699 27.821 31.9848 28.7014 32.6377 29.6373C32.6799 29.6978 33.0552 30.2012 32.831 29.8571C31.7637 28.2193 30.7305 26.5663 29.7459 24.8769C29.5107 24.4734 29.2757 24.0726 29.0182 23.6831C28.9589 23.5933 28.768 23.3849 28.768 23.2548C28.768 23.0928 28.9768 23.5033 29.0674 23.6376C29.494 24.2691 29.9115 24.907 30.3182 25.5516C30.9618 26.5717 31.6237 27.6286 32.0616 28.758C32.1858 29.0782 32.1003 29.0582 31.8607 28.8186C31.3597 28.3176 30.9393 27.7401 30.538 27.1586C29.8761 26.1995 29.2389 25.203 28.7074 24.1644C28.6925 24.1353 28.4402 23.6435 28.5255 23.7399C28.8573 24.115 29.1694 24.5134 29.4578 24.9224C30.0809 25.8061 30.7055 26.751 31.1292 27.7498C31.3168 28.1918 31.5039 28.6369 30.9701 28.0303C30.1981 27.1531 29.4907 26.2158 28.859 25.2332C28.736 25.0419 27.9975 23.8531 28.6164 24.642C29.3136 25.5305 29.9329 26.5955 30.466 27.5906C30.4751 27.6076 30.8563 28.3753 30.7843 28.3714C30.4569 28.3537 29.9318 27.5264 29.7762 27.3329C28.9408 26.2945 28.2343 25.1859 27.5855 24.0242C27.4333 23.7515 26.9263 23.206 27.5287 23.3344C28.2711 23.4926 28.9061 24.1197 29.3441 24.7102C29.4083 24.7967 30.0103 25.5277 29.905 25.6653C29.6303 26.0246 28.4488 25.0056 28.3019 24.8807C28.1279 24.7329 27.0063 23.8907 27.1383 23.5277C27.2409 23.2456 28.3697 23.6826 28.5103 23.7665C28.9882 24.0515 29.5048 24.7526 29.3138 25.3355C28.8379 26.7882 26.293 26.1724 26.0847 24.8087C26.0373 24.4986 26.1476 24.316 26.494 24.316C27.2425 24.316 27.6054 24.8884 27.6575 25.5743C27.7132 26.3068 27.6368 27.1697 27.0246 27.6664C26.1929 28.3413 25.4921 27.8086 25.2812 26.8933C25.1129 26.163 24.7637 24.0732 26.2211 24.5358C27.06 24.8022 26.8667 27.1668 26.2059 26.825C25.7702 26.5996 25.7656 25.6129 25.7587 25.2029C25.7509 24.7368 25.7 24.3584 26.259 24.316C27.4039 24.2293 27.6412 26.4018 26.964 26.9842C26.4685 27.4103 25.5961 27.5385 25.0992 27.0524C24.6743 26.6367 24.6361 25.6346 24.8112 25.0968C24.8791 24.8883 25.0085 24.6858 25.213 24.5889C25.4499 24.4767 25.3285 24.9655 25.3191 25.0361C25.2087 25.8641 24.8788 26.58 24.4474 27.2912C24.3395 27.4691 23.9612 28.0752 23.7159 27.7195C23.2628 27.0626 23.371 25.8926 23.371 25.1195C23.371 24.9831 23.371 24.8466 23.371 24.7102C23.371 24.3265 23.7621 24.8932 23.8864 25.0058C24.1699 25.2626 24.4217 25.4647 24.5611 25.832C24.7106 26.2264 24.6557 26.2073 24.671 25.7562C24.6838 25.3778 24.7317 24.974 24.8188 24.6041C24.9063 24.2323 24.4799 25.2887 24.3033 25.6274C24.1094 25.9993 24.0455 26.3995 23.8826 26.7796C23.7543 27.079 23.7803 26.4116 23.7803 26.3475C23.7803 26.0405 23.7803 25.7335 23.7803 25.4265C23.7803 25.1719 23.6658 26.1334 23.6363 26.2565C23.5109 26.7792 23.3449 27.3157 23.1512 27.818C23.1428 27.8397 22.9383 28.2297 22.9086 28.1591C22.8195 27.9474 23.0364 26.2262 23.2004 26.2262C23.2816 26.2262 22.897 27.3465 22.8783 27.4011C22.5805 28.27 22.3505 29.1586 22.0899 30.039C21.9945 30.3617 21.9613 30.8043 21.7488 31.0699C21.4686 31.4202 22.176 30.2791 22.3477 29.8647C22.6491 29.137 22.9329 28.3852 23.1284 27.6209C23.1742 27.4419 23.3005 26.9463 23.1891 27.4428C22.9241 28.6231 22.6479 29.8033 22.3628 30.9789C22.11 32.0215 21.9116 33.1206 21.5063 34.1171C21.1055 35.1023 22.3586 32.1473 22.5447 31.1002C22.5606 31.0109 22.7471 30.3407 22.6092 30.5734C22.1548 31.3401 21.872 32.2263 21.4646 33.0218C21.2603 33.4206 21.0561 33.8978 20.7255 34.2157C20.6371 34.3007 21.0068 33.1315 21.0666 32.9877C21.3399 32.3311 21.558 31.6484 21.8625 31.0055C22.0966 30.5114 21.8833 31.0583 21.7943 31.2405C21.156 32.5462 20.5145 33.8536 19.7704 35.1025C19.2005 36.0591 20.4989 32.9972 20.915 31.9644C20.9921 31.7729 21.6313 30.2885 21.1121 31.1381C20.5956 31.9832 20.1063 32.8627 19.7022 33.7684C19.3704 34.5122 18.9023 35.1805 18.1483 35.5232C17.7225 35.7168 17.0394 35.5008 16.5868 35.5611C16.2174 35.6104 15.8652 35.6256 15.4876 35.6256C14.8582 35.6256 15.8769 35.6256 16.041 35.6256C17.5146 35.6256 19.0083 35.6884 20.4716 35.5611C21.3473 35.485 22.2245 35.3527 23.1057 35.3527C23.7372 35.3527 24.3219 35.3199 24.9439 35.2162C25.3588 35.1471 25.8221 35.0284 26.2211 34.8903C26.5444 34.7784 26.8771 34.7834 27.2141 34.7235C27.656 34.645 28.0938 34.5488 28.5255 34.4279C28.9787 34.301 29.4658 33.9023 29.9202 33.8518C30.0965 33.8322 29.9202 33.4983 29.9202 33.4084C29.9202 33.3041 30.1851 33.2305 30.2916 33.1696C30.9878 32.7718 31.2174 32.1371 31.1406 31.3504C31.0339 30.2567 30.1656 29.5584 29.7459 28.6139C29.5458 28.1639 30.245 28.7093 30.3295 28.8338C30.7985 29.5243 30.8181 30.5352 30.7085 31.3352C30.6605 31.6863 30.3876 32.3937 29.9202 32.3547C29.1775 32.2928 29.3062 30.2695 29.3062 29.804C29.3062 29.3831 29.1782 28.5453 29.7155 28.3562C30.356 28.1309 30.4738 29.4764 30.5039 29.8116C30.5828 30.6919 30.6762 31.9621 30.1666 32.7375C29.9358 33.0887 29.4768 33.4051 29.0371 33.3402C28.3632 33.2406 28.0829 32.4117 27.9342 31.8582C27.5882 30.5699 27.3204 28.7739 27.9759 27.5338C28.1911 27.1267 28.6365 26.5355 28.9727 27.1548C29.5635 28.2431 29.4683 29.8866 29.2986 31.0699C29.2255 31.5799 28.9169 33.0585 28.2147 33.1772C27.6025 33.2806 27.762 30.5388 27.794 30.1944C27.8606 29.477 28.0462 28.7451 28.2412 28.053C28.3205 27.7717 28.4157 27.4139 28.6202 27.1889C28.8613 26.9236 29.0961 27.2771 29.1698 27.4921C29.6363 28.8542 29.4088 30.6664 29.094 32.0326C29.0348 32.2893 28.4916 33.7622 28.2147 32.9043C27.9813 32.1812 28.0122 31.3487 28.01 30.5999C28.008 29.8889 28.0361 29.1807 28.1465 28.4775C28.1749 28.2966 28.2892 27.1278 28.6619 27.1775C29.1305 27.24 29.0247 28.4875 29.0295 28.7618C29.0479 29.8093 29.0237 30.9081 28.6088 31.8886C28.4129 32.3516 27.756 33.3069 27.3051 32.5177C26.803 31.639 27.0389 30.4368 27.4377 29.5766C27.6595 29.0982 28.0516 28.2373 28.552 27.9621C29.0271 27.7007 28.9602 29.3902 28.9613 29.4781C28.9778 30.7414 28.9144 32.0332 28.5217 33.2454C28.363 33.7354 28.189 33.9982 28.0934 33.306C27.9261 32.0949 28.0698 30.7727 28.6013 29.66C28.977 28.8734 29.5715 28.769 29.5715 29.7623C29.5715 30.4817 29.1031 31.0943 28.5785 31.5475C28.4343 31.6721 27.3938 32.3138 27.2747 31.9568C26.9819 31.0784 27.8244 30.0222 28.336 29.4099C28.7958 28.8594 29.269 28.4171 30.0188 28.4093C30.6346 28.4029 30.5413 29.5996 30.5266 29.9746C30.4883 30.951 30.157 31.9632 29.3024 32.5329C28.8874 32.8096 28.2636 32.9386 27.7675 32.8816C27.1262 32.8079 27.5197 32.124 27.7902 31.8507C28.5131 31.1201 30.1292 30.9347 29.9771 32.3547C29.8744 33.3131 28.8389 33.6635 27.9986 33.723C27.0294 33.7915 26.4778 33.1045 26.5357 32.169C26.6026 31.0867 27.4167 30.3686 28.4042 30.0542C28.9814 29.8704 30.0051 29.9226 30.3295 30.5317C31.4032 32.5473 27.4424 33.596 26.2931 32.3926C25.4231 31.4817 25.4011 30.3431 25.9937 29.3037C26.3777 28.6302 27.0034 28.0009 27.8054 27.8787C28.3989 27.7882 28.5745 28.3394 28.4572 28.8413C28.2678 29.6522 27.3116 29.6976 26.7517 29.2886C26.3403 28.988 26.0907 28.377 26.1756 27.8673C26.193 27.7628 26.3024 27.6931 26.4068 27.7384C26.6456 27.8423 26.6528 28.323 26.6721 28.523C26.7545 29.3742 26.8896 30.5274 26.6153 31.3504C26.5847 31.4421 26.2824 32.2473 26.0998 31.9037C25.7647 31.2729 25.8839 30.2976 25.899 29.6145C25.9065 29.2703 25.9299 28.9256 25.9975 28.5874C25.9989 28.5805 26.0857 28.1707 26.1301 28.3865C26.2221 28.833 26.168 29.337 26.168 29.7889C26.168 30.3073 26.1865 30.8322 26.0581 31.339C26.0037 31.5537 25.8494 32.3152 25.5844 32.4116C25.2923 32.5178 25.2989 30.6873 25.2963 30.5924C25.2703 29.6132 25.3237 28.6493 25.3494 27.674C25.3875 26.2278 25.5097 30.5851 25.2812 32.0136C25.2374 32.287 25.2126 31.3513 25.213 31.32C25.224 30.2954 25.4182 29.2983 25.501 28.2804C25.5029 28.2567 25.5279 27.8799 25.5237 27.8863C25.3526 28.1474 25.2486 28.4953 25.1296 28.7807C24.7288 29.7415 24.4709 30.7419 24.1745 31.737C23.9238 32.5785 24.0846 30.9593 24.0987 30.797C24.1883 29.7628 24.3137 28.6977 24.4928 27.674C24.5698 27.2343 24.4589 27.5902 24.364 27.8105C23.9861 28.6874 23.5792 29.5546 23.3028 30.4711C23.2425 30.6707 23.0981 31.2709 23.0981 31.0623C23.0981 30.2577 23.2612 29.4624 23.3634 28.667C23.4052 28.3417 23.4269 28.0137 23.4733 27.6892C23.4977 27.5187 23.5074 27.4395 23.5074 27.7043C23.5074 29.1503 23.3328 30.5794 23.2042 32.0174C23.1544 32.5747 23.0522 33.1419 23.0299 33.7002C23.0267 33.7791 23.0427 33.5422 23.0602 33.4652C23.1502 33.0685 23.3563 32.6994 23.606 32.3813C24.8487 30.7977 27.0452 30.7814 28.4421 32.1425C28.7424 32.4351 28.8784 32.6792 28.4193 32.8588C27.0651 33.3887 25.503 33.563 24.0608 33.632C23.6569 33.6513 23.2521 33.6471 22.848 33.6471C22.7695 33.6471 22.5419 33.6654 22.613 33.632C22.7749 33.5558 23.0065 33.5799 23.1739 33.5789C23.8207 33.5753 24.4676 33.5789 25.1144 33.5789C25.6698 33.5789 26.4296 33.4444 26.9715 33.6168C27.1016 33.6582 27.115 33.7011 26.9564 33.723C26.2328 33.8228 25.5027 33.8789 24.7771 33.9617C23.4543 34.1127 22.1395 34.3104 20.8316 34.5568C19.9726 34.7186 20.9008 34.5594 21.2182 34.4506C22.695 33.9448 24.2168 33.2864 25.8156 33.4463C27.2457 33.5893 22.9617 33.8276 21.5631 34.1588C20.0027 34.5284 24.7739 34.0659 26.3651 33.867C26.7321 33.8211 27.3458 33.667 27.7182 33.7912C27.8865 33.8473 27.4298 34.0063 27.2634 34.0678C26.5823 34.3196 25.8712 34.4998 25.175 34.7046C24.1295 35.0121 23.0902 35.2553 22.0141 35.4209C21.9566 35.4298 21.2761 35.4891 21.6427 35.4891C22.3471 35.4891 23.0464 35.472 23.75 35.4361C23.9904 35.4238 25.0208 35.5052 25.1978 35.2693C25.3173 35.1099 24.1369 34.6571 24.0797 34.6326C23.4409 34.3588 22.8341 34.0147 22.1923 33.7533C21.8507 33.6141 22.3225 33.5387 22.4917 33.4728C23.1953 33.1988 23.9188 32.9906 24.6369 32.7603C24.8898 32.6791 25.108 32.6238 25.3721 32.6238C25.8268 32.6238 24.4564 32.5939 24.0153 32.4836C23.9565 32.4689 22.9786 32.1082 23.3255 32.0136C23.9234 31.8506 24.7098 31.8962 25.3191 31.9492C25.4305 31.9589 26.0749 32.0975 25.8118 32.2751C25.3034 32.6183 24.6184 32.7583 24.0456 32.9422C23.2404 33.2007 22.4383 33.4703 21.62 33.685C21.2441 33.7837 20.1057 33.9883 20.4943 33.9883C21.1374 33.9883 21.7804 33.9883 22.4235 33.9883C23.7829 33.9883 25.1118 34.0777 26.4713 34.0565C27.1488 34.0459 27.7843 33.8778 28.4307 33.6888C28.8357 33.5705 29.2089 33.5959 29.4123 33.181C29.8251 32.3389 30.0493 31.4663 30.4129 30.6151C30.8839 29.5125 31.9882 29.1755 33.119 29.2886C33.3592 29.3126 33.6463 29.455 33.8012 29.6486C33.885 29.7533 33.689 29.4051 33.6383 29.281C33.4575 28.8392 33.4427 28.1834 33.7406 27.7953C33.8163 27.6966 33.8801 27.5541 33.9794 27.4769C34.0661 27.4095 34.2172 27.4231 34.2864 27.3367C34.3844 27.2141 34.4898 27.666 34.491 27.7119C34.5089 28.3571 34.5277 29.0121 34.3546 29.6373C34.1278 30.4561 34.0771 31.2788 33.9111 32.1084C33.8483 32.4228 33.8088 32.7208 33.8088 33.0407C33.8088 33.2932 33.8088 33.1628 33.8088 32.9953C33.8088 32.7478 33.6499 31.5857 33.8467 31.4451C33.9179 31.3943 34.2864 32.9317 34.2864 33.1279C34.2864 33.811 34.491 31.772 34.491 31.0889C34.491 30.921 34.4453 30.4518 34.3394 30.3195C34.2063 30.1531 33.9014 29.7465 33.6724 29.7585C33.3291 29.7766 33.0823 30.9698 33.0622 31.2215C33.0533 31.3325 33.1087 31.6451 33.0432 31.555C32.9243 31.3915 32.9145 30.9722 32.8689 30.7667C32.8121 30.5111 32.8183 30.534 32.884 30.7781C33.0081 31.2389 32.53 30.9144 32.3345 30.7553C31.992 30.4767 31.2324 29.7781 31.1975 29.2886C31.1884 29.1613 31.46 29.3422 31.5537 29.4288C31.9957 29.8374 32.3673 30.3276 32.7097 30.8198C33.2372 31.578 33.7487 32.3516 34.1348 33.1923C34.2158 33.3688 34.4373 33.7435 34.0514 33.6017C33.3781 33.3542 32.8215 32.6986 32.4823 32.0819C32.1978 31.5646 32.6986 31.5887 33.0735 31.8355C33.3938 32.0463 33.6675 32.3794 33.7937 32.7451C33.8911 33.0278 33.1479 32.8734 33.0432 32.8512C32.4579 32.7271 31.9567 32.4259 31.5992 31.9492C31.5565 31.8923 31.1586 31.4253 31.3642 31.3996C32.1472 31.3018 32.8702 32.262 33.2479 32.8285C33.3071 32.9174 33.4041 33.2306 33.3199 33.3288C33.1943 33.4753 32.4371 32.6179 32.3534 32.5291C32.3108 32.4839 31.8431 31.881 31.9365 31.881C32.1131 31.881 32.0614 31.9872 31.9024 31.6991C31.7824 31.4816 31.4239 30.6994 31.9138 31.1684C32.6493 31.8727 33.4194 32.5871 33.8391 33.541C33.9891 33.8819 34.044 34.0021 33.877 34.3673C33.6949 34.7658 33.09 34.3153 32.8537 34.1399C32.464 33.8503 32.1906 33.4023 31.838 33.0748C31.554 32.8112 31.7572 32.9194 31.9668 33.0332C32.4872 33.3156 33.138 34.1246 33.2668 34.7046C33.2989 34.8489 33.4396 35.0798 33.1948 35.0798C32.5637 35.0798 32.0948 34.8874 31.694 34.3976C31.5826 34.2615 30.1334 32.3872 30.466 32.2297C30.6766 32.1299 31.355 32.1587 31.4211 32.423C31.5213 32.8238 31.4893 33.2359 31.4893 33.6471C31.4893 34.0692 31.605 34.4067 31.694 34.8069C31.768 35.1401 31.9511 35.1424 32.2056 35.3186C32.393 35.4483 32.5755 35.5873 32.7021 35.7772C32.7135 35.7942 31.8066 35.8302 31.7015 35.8302C30.7666 35.8302 30.3966 35.6682 30.1931 34.6629C30.1665 34.5313 29.8791 33.7154 30.159 33.7154C30.3913 33.7154 30.5733 33.7948 30.6555 34.0413C30.7842 34.4276 30.8071 34.974 30.8071 35.3868C30.8071 35.4817 30.914 35.7561 30.8071 35.762C30.6027 35.7734 30.3941 35.762 30.1893 35.762C29.7323 35.762 29.1105 35.8753 28.6771 35.7468C28.183 35.6005 27.5397 35.6938 27.0246 35.6938C26.4207 35.6938 25.8168 35.6938 25.213 35.6938C23.8368 35.6938 22.4999 35.9667 21.1197 35.9667C20.7899 35.9667 20.4602 35.9667 20.1305 35.9667C19.9652 35.9667 20.5372 35.8302 20.6573 35.8302C21.7303 35.8302 22.7857 35.913 23.8485 36.0311C25.2804 36.1902 26.8288 36.0349 28.2677 36.0349C28.8528 36.0349 29.4855 36.098 30.0188 35.8454C30.1767 35.7706 30.5767 35.7168 30.2537 35.5194C29.6169 35.1303 28.8144 34.9424 28.1275 34.6401C28.0776 34.6182 27.7623 34.5392 27.8357 34.4658C28.0296 34.2719 28.4285 34.2481 28.6771 34.1929C28.7971 34.1662 30.1399 33.8958 29.8823 34.227C29.646 34.5308 29.0743 34.7013 28.7377 34.8448C27.8429 35.2263 26.893 35.6372 25.9255 35.7999C25.4451 35.8807 24.6722 36.0295 24.4777 35.5043C24.2722 34.9496 23.5243 34.4431 23.0033 34.2308C22.6736 34.0965 22.341 34.1247 21.9914 34.1247C21.7847 34.1247 21.572 34.1106 21.366 34.1285C21.1774 34.1449 21.2107 34.2933 21.2599 34.2194C21.6919 33.5715 22.2379 32.9747 22.8176 32.4571C23.3457 31.9856 23.0027 32.3521 22.6584 32.4874C21.5247 32.9328 21.014 33.9025 20.5777 34.9661C20.3678 35.4778 20.0954 35.5163 19.634 35.7772C19.2926 35.9701 19.0444 36.1031 18.6486 36.1031C17.8832 36.1031 17.1131 35.9897 16.3783 35.8264C15.6432 35.6631 14.789 35.762 14.0247 35.762C13.0444 35.762 12.0957 35.5573 11.095 35.5573C10.5596 35.5573 9.91735 35.535 9.41596 35.3527C8.88004 35.1578 8.66969 34.7721 8.49877 34.2308C8.20022 33.2854 8.1487 32.2299 8.06291 31.248C7.98687 30.3779 7.953 29.4913 7.953 28.6177C7.953 27.4577 8.08298 26.4602 8.39643 25.3317C8.52103 24.8832 9.62469 24.841 9.98447 24.7253C10.2998 24.624 10.6889 24.338 11.0229 24.3009C11.6897 24.2268 10.8698 23.8915 10.5795 23.8915C9.98316 23.8915 9.29147 23.3803 8.83608 23.0388C8.34558 22.6709 7.83297 22.3322 7.40723 21.8828C7.32048 21.7912 7.27889 21.7357 7.16845 21.6743C7.04781 21.6073 7.05219 21.7553 6.95621 21.807C6.63284 21.9811 6.2361 21.9576 5.92152 22.1557C5.65774 22.3218 5.32668 22.4178 5.0915 22.6294C4.75436 22.9329 4.52968 23.2407 4.23494 23.5807C4.01438 23.8352 4.11412 23.9632 3.91279 23.9597C3.39755 23.951 3.05555 23.8032 2.59764 24.0924C2.1048 24.4037 1.86248 24.8056 1.54021 25.2711C1.39208 25.4851 1.26113 25.6976 1.10056 25.904C1.02018 26.0074 0.709164 26.701 0.994439 26.4157C1.50075 25.9094 2.07723 25.4505 2.55594 24.9186C2.83309 24.6107 3.12436 24.1194 3.55273 24.0242C3.64842 24.0029 3.68689 23.897 3.79151 23.8915C3.96881 23.8822 4.14333 23.936 4.31454 23.9749C4.81261 24.0881 5.20597 24.2326 5.73202 24.2326C6.5911 24.2326 7.45018 24.2326 8.30926 24.2326C8.90179 24.2326 9.35002 24.642 9.93141 24.642C10.4618 24.642 10.8585 25.3141 11.1253 25.6994C11.3835 26.0723 11.6218 26.4346 11.7203 26.8781C11.7957 27.2174 11.9031 27.7557 12.0766 28.053C12.2176 28.2948 12.4348 28.8113 12.4556 29.0915C12.4817 29.4446 12.7206 29.7334 12.8119 30.0617C13.042 30.8902 13.6584 31.5948 13.8049 32.4571C13.8629 32.7991 13.9693 34.3294 14.4681 34.3294C14.7894 34.3294 14.3737 34.3617 14.3127 34.3142C14.2759 34.2855 14.4006 34.5816 14.434 34.6401C14.4933 34.7439 14.5822 34.993 14.6538 35.0646C14.7074 35.1182 14.7935 34.8923 14.5022 34.8751C14.2495 34.8603 14.1468 33.5949 13.8882 33.3364C13.6957 33.1438 13.8951 33.6728 13.9565 33.7495C14.0662 33.8867 14.115 33.9789 14.2635 34.0944C14.4289 34.2231 14.6289 34.4159 14.7221 34.6022C14.7414 34.6409 14.9436 35.0341 14.9078 34.8372C14.8588 34.568 14.5481 34.307 14.3658 34.1247C14.1122 33.8711 13.9127 33.6285 13.7063 33.3288C13.2036 32.5986 12.726 31.9276 12.1448 31.2518C11.2009 30.1543 10.4856 28.812 9.87835 27.5072C9.52038 26.7381 9.14855 25.9824 8.77544 25.2218C8.67801 25.0232 8.57998 24.7206 8.39643 24.5737C8.31862 24.5115 8.47573 24.4924 8.53288 24.5813C8.82402 25.0342 9.07834 25.514 9.37048 25.9685C9.89701 26.7875 10.3528 27.6488 10.8865 28.4623C11.1688 28.8926 11.5295 29.3057 11.7734 29.7585C11.936 30.0605 11.9056 29.8831 11.7544 29.6714C11.2123 28.9124 10.8077 28.0781 10.4544 27.2154C10.1597 26.4956 9.2678 24.3702 9.72675 24.9982C9.92217 25.2656 10.23 25.7548 10.6136 25.7335C10.76 25.7254 10.7837 25.5464 10.8183 25.4341C10.8567 25.3091 10.963 25.3423 11.0571 25.2901C11.2198 25.1997 11.42 25.1834 11.5687 25.0513C11.6536 24.9759 11.7666 24.9465 11.5839 24.8807C11.2071 24.7451 10.8046 24.696 10.4165 24.6078C9.9519 24.5022 9.64056 24.2188 9.2113 24.028C8.71087 23.8056 8.19892 23.6142 7.81655 23.2093C7.59047 22.9699 7.48908 22.8486 7.10781 22.8038C6.76233 22.7631 6.98449 23.1114 7.11918 23.2093C7.78138 23.6909 8.33915 24.3578 8.89293 24.9527C9.61952 25.7333 10.3566 26.5624 10.8865 27.4921C11.2357 28.1047 11.4393 28.6572 11.599 29.3416C11.6474 29.5488 11.6151 29.7562 11.6521 29.9632C11.731 30.4052 11.9214 30.796 12.1372 31.1836C12.4129 31.6785 12.6741 32.1247 12.9976 32.5897C13.1098 32.7511 13.5272 33.1676 13.4145 33.0066C13.2344 32.7493 12.9382 32.5342 12.7247 32.3055C12.2901 31.8398 11.8764 31.3541 11.455 30.8766C11.0746 30.4455 10.635 30.0432 10.2877 29.5842C10.1658 29.4232 10.4192 29.6209 10.4317 29.6297C10.7423 29.8464 11.051 30.0706 11.3489 30.3043C11.7146 30.5912 12.1002 30.9475 12.3419 31.3504C12.4677 31.5601 12.4469 31.6786 12.1675 31.5247C11.3277 31.0619 10.4714 30.3601 9.84045 29.6373C9.8064 29.5983 9.19671 28.8735 9.34774 28.8186C9.73715 28.677 10.3064 29.175 10.553 29.4023C11.0141 29.8272 11.2966 30.4362 11.5915 30.9789C11.6183 31.0284 11.8705 31.5862 11.6597 31.3352C10.9741 30.519 10.4685 29.3865 10.0489 28.4169C9.82413 27.8974 9.64763 27.3608 9.46902 26.825C9.41618 26.6665 10.1712 26.9748 10.2043 26.9918C10.8123 27.3042 11.342 27.7591 11.7696 28.288C11.9504 28.5116 12.161 28.9473 12.4139 29.0991C12.5012 29.1515 12.3176 28.9193 12.2623 28.8338C12.002 28.4307 11.7643 28.0141 11.546 27.5868C11.2525 27.0124 11.0746 26.3902 10.788 25.8169C10.6679 25.5767 10.6772 25.8561 10.697 25.9685C10.7798 26.4376 11.1056 26.8972 11.2883 27.3329C11.5876 28.047 11.8419 28.7761 12.1789 29.4743C12.4459 30.0274 12.7929 30.5516 13.0014 31.1305C13.2176 31.7313 13.3663 32.3221 13.6154 32.9119C13.8069 33.3655 14.0123 33.7966 14.1763 34.2611C14.2034 34.3381 13.5626 33.7689 13.5092 33.6964C12.9661 32.9586 12.492 32.1487 12.0159 31.3655C11.9336 31.2301 11.5708 30.7838 11.834 31.1988C12.3569 32.0233 12.8077 32.899 13.2515 33.7684C13.3446 33.9507 13.676 34.3481 13.676 34.5606C13.676 34.7455 13.3279 34.4301 13.1681 34.3369C12.6457 34.0322 12.1385 33.7037 11.6521 33.3439C11.3184 33.0971 10.5646 32.6687 10.3862 32.2524C10.3803 32.2387 11.2841 32.5848 11.3603 32.6276C11.5651 32.7428 11.761 32.8731 11.9705 32.9801C12.1335 33.0634 12.5848 33.0858 12.4632 33.2227C12.3747 33.3222 11.6073 33.1324 11.5005 33.1165C11.0854 33.055 10.6783 32.9649 10.2725 32.8588C10.1246 32.8201 9.9649 32.7857 9.8215 32.73C9.67291 32.6722 10.1296 32.8186 10.2725 32.8891C11.2248 33.3593 12.1941 33.9192 13.062 34.534C13.0694 34.5392 13.5755 34.8792 13.532 34.9282C13.4864 34.9794 13.1629 34.9434 13.1454 34.9434C12.6612 34.9434 12.1735 34.9595 11.69 34.9282C11.3672 34.9073 10.4602 34.9444 10.2346 34.6705C10.1451 34.5618 10.5107 34.6022 10.6515 34.6022C11.0496 34.6022 11.4443 34.6121 11.834 34.7008C12.1727 34.7779 13.834 35.2162 12.5503 35.2162C12.0589 35.2162 11.5675 35.2162 11.076 35.2162C10.7565 35.2162 10.7225 35.2162 11.0684 35.2162C11.6178 35.2162 12.269 35.2774 12.7588 35.5573C12.9962 35.693 12.6534 35.8761 12.5617 35.9022C12.3675 35.9577 12.7188 36.212 12.7815 36.1562C12.8419 36.1026 12.8528 36.0044 12.8687 35.9326C12.8947 35.8155 13.0207 35.8422 13.1037 35.7961C13.3175 35.6773 14.0073 35.762 13.2515 35.762C12.6734 35.762 12.0936 35.7751 11.5157 35.762C11.2418 35.7558 11.022 35.6256 10.7501 35.6256C10.313 35.6256 9.88509 35.5693 9.45386 35.5573C9.11462 35.5479 8.77372 35.5573 8.43434 35.5573C8.22138 35.5573 7.33776 35.5883 8.03259 35.5536C8.70877 35.5197 9.40002 35.3173 10.083 35.4361C10.3739 35.4866 10.6356 35.6342 10.9206 35.6976C11.0817 35.7334 11.2027 35.9114 11.311 36.0197C11.6318 36.3405 11.0197 36.2573 10.8183 36.2244C10.2337 36.1287 9.68907 35.8302 9.0976 35.8302C8.60129 35.8302 8.03632 35.7636 7.54367 35.834C7.06173 35.9029 6.57725 35.9626 6.11102 35.7961C5.8908 35.7175 5.52528 35.7054 5.29237 35.6938C5.07516 35.6829 4.88171 35.5686 4.67838 35.5573C4.52422 35.5488 4.31729 35.5277 4.16672 35.5611C3.97702 35.6033 4.45994 35.6938 4.54194 35.6938C4.72337 35.6938 4.89789 35.7778 5.0536 35.8643C5.22449 35.9593 5.95894 36.1713 5.3568 36.1713C4.67544 36.1713 4.27624 35.8035 3.72328 35.527C3.15665 35.2437 2.59645 34.9459 2.07082 34.6022C1.58768 34.2864 1.67665 33.8059 1.67665 33.2681C1.67665 32.2857 1.64428 31.3433 1.53642 30.3725C1.45235 29.6159 1.47199 28.8521 1.47199 28.0871C1.47199 27.3713 1.47622 26.8976 1.79793 26.2414C1.93947 25.9526 2.11959 25.8847 2.3437 25.6842C2.62422 25.4332 2.90663 25.209 3.23816 25.0285C3.56076 24.8529 3.91638 24.7905 4.21599 24.5737C4.32943 24.4917 5.2876 24.1126 5.25068 24.0962C4.72966 23.8646 5.34344 23.4988 5.60695 23.3458C5.90106 23.175 6.83891 22.8043 7.10402 23.1942C7.30194 23.4852 6.65476 23.4279 6.52035 23.3799C6.48584 23.3675 6.2987 23.2998 6.39907 23.2245C6.59633 23.0765 7.11608 23.3095 7.27836 23.3988C7.652 23.6045 8.96688 25.3599 7.76349 25.0892C7.58122 25.0482 7.01306 24.8234 7.01306 24.5813C7.01306 24.2724 8.05057 25.2949 8.08565 25.3393C8.56454 25.9459 9.0591 26.7236 9.21888 27.4921C9.31826 27.9701 9.11144 28.1142 8.68827 27.818C7.89723 27.2643 7.24908 26.4765 6.74776 25.6577C6.60191 25.4195 6.29807 24.9362 6.74018 25.4265C7.68123 26.4702 8.37423 27.6921 8.97631 28.9551C9.09008 29.1937 9.1811 29.4369 9.24162 29.6941C9.25234 29.7397 8.93092 29.1215 8.92704 29.1142C8.3853 28.0921 7.95753 27.022 7.48303 25.9685C7.38189 25.7439 7.26549 25.5205 7.1874 25.2863C7.12376 25.0953 7.43694 25.6022 7.56641 25.7562C9.27194 27.7858 10.8982 30.0777 11.8909 32.5594C11.9072 32.6002 11.9234 32.6812 11.8492 32.6163C11.5131 32.3222 11.2804 31.8548 11.0912 31.4641C10.432 30.1031 10.1148 28.6165 9.49934 27.2419C9.49115 27.2236 9.2239 26.6516 9.40838 27.0752C9.70279 27.7512 10.0255 28.4144 10.318 29.0915C10.6119 29.7717 10.8999 30.4562 11.1518 31.1533C11.2527 31.4325 11.4793 31.8287 11.4853 32.1311C11.4881 32.2689 11.2014 32.1677 11.0722 32.1198C10.4947 31.9053 10.1238 31.4081 9.73433 30.9562C9.13424 30.2599 8.70705 29.6048 8.34337 28.7655C8.3352 28.7467 8.34267 28.6883 8.35474 28.7049C8.63498 29.0912 8.8238 29.5654 9.00663 30.0011C9.52649 31.2401 9.83564 32.498 10.0375 33.8215C10.1529 34.5776 9.86999 33.1826 9.8594 33.1128C9.65045 31.7337 9.50194 30.3312 9.45765 28.9361C9.45675 28.9078 9.41195 28.3667 9.50313 28.7314C9.65727 29.348 9.81485 29.9636 9.96552 30.581C10.1992 31.5386 10.6136 32.6005 10.6136 33.5979C10.6136 34.0138 10.3142 32.8183 10.227 32.4116C10.0755 31.7042 9.90713 30.9798 9.93141 30.2513C9.94019 29.9877 10.5508 30.6008 10.5719 30.6227C11.1034 31.1728 11.442 31.9825 11.5687 32.73C11.6209 33.0379 11.735 33.4434 11.3641 33.5789C11.0049 33.7101 10.6545 33.6729 10.4772 33.2985C10.1834 32.6783 10.0992 31.9272 10.0148 31.2518C9.96433 30.8481 10.1519 31.0606 10.3483 31.2821C11.0119 32.0305 11.4433 33.0078 11.7772 33.9428C11.8541 34.1582 12.0885 34.9206 11.6407 34.9206C10.7877 34.9206 10.1464 34.0154 9.80255 33.3515C9.21459 32.2162 9.0571 30.8176 8.85503 29.569C8.83921 29.4713 8.65062 28.2356 8.7527 28.8717C9.00313 30.432 9.12348 31.9956 9.21509 33.5713C9.21882 33.6355 9.25477 34.487 9.19993 34.39C8.69253 33.4923 8.62874 32.3666 8.47224 31.3731C8.37716 30.7696 8.2941 30.18 8.2941 29.569C8.2941 29.1958 8.44697 30.3002 8.54425 30.6606C8.74953 31.4211 8.8857 32.1775 9.01042 32.9536C9.04019 33.1388 9.25039 33.847 8.88914 33.4008C7.69394 31.9244 7.77258 29.865 7.52851 28.0833C7.46117 27.5918 7.36756 28.1276 7.35417 28.3032C7.25661 29.5823 7.11925 30.8592 7.02822 32.1387C6.98685 32.7203 6.9979 33.3034 6.9979 33.8859C6.9979 34.1431 6.94984 34.4543 7.03201 34.7008C7.04939 34.7529 7.0463 34.9696 7.13434 34.9282C7.32523 34.8384 7.403 34.8122 7.63463 34.8069C8.40284 34.7894 7.80201 32.4701 7.68011 32.1349C7.58087 31.862 7.48085 31.4872 7.23667 31.2973C7.00859 31.1199 7.18163 31.4826 7.20635 31.5475C7.41516 32.0956 7.51906 32.6829 7.61189 33.2606C7.63386 33.3973 7.83617 34.1403 7.53609 34.011C7.18837 33.8611 6.90684 33.6121 6.53172 33.5183C6.47575 33.5043 6.03775 33.3629 6.11861 33.5448C6.23465 33.8059 6.85792 33.7957 6.91452 34.1778C6.95018 34.4185 4.93256 34.397 4.77692 34.3976C4.16757 34.3999 2.34223 34.287 2.95011 34.3294C3.49566 34.3674 4.05883 34.6737 4.52678 34.9358C4.73339 35.0515 5.24928 35.1976 5.38712 35.3906C5.50308 35.5529 4.65749 35.3405 4.64806 35.3375C4.28448 35.2242 3.93245 35.0797 3.57168 34.9585C3.45199 34.9183 3.02722 34.8649 2.95011 34.7387C2.94191 34.7253 4.17122 34.671 4.29558 34.6818C4.86187 34.7311 5.39809 34.9715 5.95563 35.076C6.13418 35.1095 6.46605 35.2223 6.06176 35.1253C5.11074 34.897 4.21839 34.3313 3.34807 33.9049C2.93348 33.7017 2.45986 33.557 2.07082 33.306C1.77986 33.1183 2.29572 33.1685 2.40434 33.1696C3.15108 33.1771 3.86408 33.3323 4.58742 33.5069C4.85084 33.5705 5.099 33.6547 5.34164 33.776C5.42379 33.8171 5.61053 33.9493 5.70928 33.9352C5.8517 33.9148 5.56148 33.6883 5.48946 33.5638C5.10821 32.9045 4.80249 32.2034 4.52678 31.4944C4.34158 31.0182 4.06439 30.3801 4.06439 29.8571C4.06439 29.6553 4.36246 29.645 4.51162 29.6903C4.80494 29.7794 4.93762 30.4175 5.02707 30.653C5.17801 31.0503 5.27555 31.4425 5.36059 31.8582C5.42361 32.1663 5.67964 33.4744 5.52736 32.3547C5.28695 30.587 5.33046 28.7613 5.36438 26.9804C5.37116 26.6248 5.51304 25.6695 5.5501 26.6659C5.61897 28.5177 5.61866 30.4011 5.5501 32.2524C5.54486 32.3937 5.43704 33.1868 5.4326 33.1469C5.38135 32.6855 5.47155 32.1487 5.50462 31.6953C5.58491 30.5941 5.71939 29.5025 5.87225 28.4093C5.98571 27.5979 6.10825 26.7885 6.23989 25.9798C6.26572 25.8212 6.26534 25.5475 6.35359 25.3962C6.43626 25.2545 6.54767 26.5768 6.55446 26.681C6.68033 28.6109 6.71576 30.5537 6.72502 32.4874C6.72802 33.1144 6.75153 34.9929 6.79324 34.3673C6.8828 33.0239 6.79324 31.6418 6.79324 30.2967C6.79324 29.0574 6.79324 27.818 6.79324 26.5787C6.79324 26.0665 6.71015 27.6008 6.62647 28.1061C6.35875 29.7227 6.11982 31.3161 5.92152 32.9422C5.8804 33.2794 5.90477 34.2911 5.83814 33.9579C5.6013 32.7737 5.76992 31.429 5.76992 30.2285C5.76992 29.7548 5.76992 29.281 5.76992 28.8072C5.76992 28.671 5.69518 28.1552 5.80782 28.0265C5.84431 27.9848 5.86457 28.1239 5.87604 28.1781C5.91704 28.3719 5.96268 28.7067 5.98595 28.8755C6.13022 29.9214 6.24806 30.9708 6.41423 32.0136C6.44084 32.1806 7.02924 35.2845 6.86146 35.2845C6.57356 35.2845 5.94725 34.7102 6.05417 34.9775C6.10664 35.1086 6.60607 35.2784 6.72502 35.3148C6.80902 35.3404 7.49651 35.4891 7.14192 35.4891C5.78066 35.4891 4.40173 35.3495 3.05623 35.1632C2.66352 35.1088 2.27248 35.1905 1.95712 34.8751C1.75735 34.6754 1.74487 34.4401 1.74487 34.1778C1.74487 33.5535 2.16905 34.0473 2.35886 34.3294C2.42673 34.4302 2.4944 34.5346 2.55974 34.6326C2.58847 34.6757 2.56307 34.5289 2.55974 34.4772C2.53549 34.1014 2.48663 33.7274 2.46119 33.3515C2.37829 32.1264 2.35353 30.9027 2.35886 29.6752C2.36152 29.0637 2.52211 28.502 2.56352 27.9014C2.59586 27.4326 2.56352 28.8413 2.56352 29.3113C2.56352 29.9074 2.6692 30.6155 2.52942 31.2026C2.50998 31.2842 2.39982 31.4087 2.35507 31.267C2.13904 30.5829 2.16178 29.7984 2.16178 29.0915C2.16178 28.1794 2.17725 26.6739 2.87431 25.9382C3.07403 25.7273 3.55114 25.5267 3.82941 25.4265C4.14355 25.3134 7.1074 23.7207 7.13434 24.2326C7.16634 24.8406 6.56122 24.9893 6.05796 25.1801C5.61366 25.3487 5.17338 25.5566 4.7466 25.7487C4.29972 25.9498 4.02507 26.2899 3.7536 26.6848C3.52048 27.0239 3.15806 27.2538 2.87052 27.5414C2.686 27.7259 2.88035 27.4413 2.91979 27.3784C3.15036 27.0106 3.38738 26.648 3.6399 26.2944C3.66159 26.2641 3.95876 25.8652 3.88626 25.8813C3.63867 25.9363 3.43706 26.4092 3.31396 26.5938C3.06933 26.9608 2.93865 27.4244 2.86673 27.8559C2.85966 27.8984 2.76923 28.4825 2.85157 28.5154C3.00944 28.5785 3.93583 26.1406 4.11745 25.8472C4.23741 25.6534 4.26905 25.7809 4.26905 25.9344C4.26905 27.2587 3.74951 28.6265 3.43145 29.8988C3.21389 30.769 3.06377 31.6509 2.86673 32.5253C2.63762 33.542 3.50324 30.5402 3.79151 29.5387C4.0778 28.5441 4.28359 27.5329 4.50025 26.5218C4.52398 26.4111 4.54194 26.0101 4.54194 26.3399C4.54194 27.4212 4.33113 28.465 4.20841 29.5387C4.04291 30.9869 3.92301 32.4587 3.86352 33.9162C3.85058 34.2332 3.85003 34.2627 3.85973 33.92C3.90717 32.2439 4.28325 30.5913 4.53436 28.9399C4.65594 28.1403 4.7017 27.3555 4.75039 26.5521C4.77473 26.1506 4.91557 27.0722 4.92094 27.1244C5.04351 28.3151 5.00714 29.5126 5.08771 30.7061C5.11019 31.0391 5.31248 31.7916 5.14077 32.116C5.10189 32.1894 4.94607 32.2382 4.88304 32.3509C4.81808 32.4672 4.67718 32.64 4.54194 32.6769C3.67115 32.9144 3.65237 29.4254 3.62474 29.0612C3.56432 28.2647 3.51862 27.472 3.51862 26.6734C3.51862 26.4797 3.46498 26.1208 3.602 25.9533C3.9803 25.491 4.20454 24.9421 4.71628 24.5699C5.11487 24.2801 5.63547 23.876 5.89878 23.4481C6.0333 23.2295 6.21096 23.0527 6.39907 22.8834C6.47298 22.8169 6.55648 22.7748 6.62268 22.6939C6.71077 22.5862 6.75761 22.2357 6.89178 22.1974C6.98859 22.1697 6.85763 22.6092 6.8463 22.6332C6.68859 22.9676 6.54161 23.2753 6.45213 23.6414C6.04679 25.2996 6.14816 27.2123 7.01306 28.7049C7.487 29.5228 8.19305 30.1734 8.80576 30.8804C9.01456 31.1213 9.33093 31.2729 9.55998 31.502C10.3236 32.2656 11.1114 33.1154 12.0804 33.613C12.7108 33.9368 13.6435 34.3331 13.9223 35.0457C14.2908 35.9872 15.3678 36.1497 16.2684 36.2926C16.7803 36.3739 17.2279 36.4442 17.7465 36.4442C17.9916 36.4442 18.2367 36.4442 18.4818 36.4442C18.8448 36.4442 19.1156 36.2931 19.4521 36.1713C20.0945 35.9387 20.5829 35.5301 21.1159 35.1215C21.6796 34.6893 22.413 34.3742 23.1095 34.2308C23.5928 34.1313 24.1724 34.1669 24.6672 34.1929C26.0096 34.2636 21.9828 34.3584 20.6459 34.4999C19.4485 34.6267 18.1455 34.4956 16.9733 34.8069C16.5891 34.909 16.1859 34.9057 15.806 35.0116C15.599 35.0693 15.4771 35.148 15.2527 35.148C14.4171 35.148 14.0944 34.1663 13.82 33.4955C13.6869 33.1701 13.534 32.8326 13.4486 32.4912C13.4082 32.3297 13.6756 32.487 13.7177 32.5291C13.887 32.6984 14.0566 32.868 14.2256 33.0369C14.5727 33.3841 15.1085 33.6903 15.355 34.1285C15.5428 34.4624 15.9493 34.78 16.276 34.9434" stroke="#F32D12" stroke-width="1.03954" stroke-linecap="round"/>
</svg>
