<svg width="211" height="138" viewBox="0 0 211 138" fill="none" xmlns="http://www.w3.org/2000/svg">
<rect width="210.794" height="137.102" rx="17.1377" fill="#FFF9EF"/>
<path d="M78.9642 71.9121C78.0144 67.638 67.157 62.7095 63.4096 60.3248C58.8363 57.4145 54.217 54.9985 49.5238 52.3586C46.0962 50.4306 42.9507 47.9172 39.6054 45.8408C35.5933 43.3505 31.6127 41.0258 27.3884 38.9136C23.1584 36.7986 20.4605 33.0985 16.6199 30.5381" stroke="#FDF3E3" stroke-width="5.14131" stroke-linecap="round"/>
<path d="M7.71194 20.565C70.7466 68.3003 104.788 80.0369 107.111 78.8332C137.958 67.6937 202.274 24.6133 203.081 20.5625" stroke="#8E6352" stroke-width="1.71377"/>
<path d="M107.076 71.7714C105.56 71.7714 103.174 71.3456 101.992 72.4175C100.478 73.7896 100.153 76.6528 100.425 78.4958C100.846 81.3497 104.328 83.6987 107.204 84.1672C110.005 84.6234 113.828 84.9851 115.832 82.6835C118.091 80.091 119.285 76.5793 117.938 73.279C116.627 70.0669 114.07 67.1974 110.363 66.387C106.322 65.5038 102.832 65.9551 100.425 69.498C98.7145 72.0164 97.7414 75.5759 98.0884 78.5675C98.4278 81.4931 101.009 83.3423 103.828 84.1553C106.377 84.8905 109.759 85.9031 112.263 84.4544C117.315 81.5321 116.784 74.2599 114.24 70.0962C112.644 67.4832 108.97 66.4141 105.92 66.387C104.391 66.3735 102.624 66.1803 101.221 66.8656C99.6794 67.6191 98.5638 68.867 97.5492 70.1441C93.757 74.9173 94.2335 82.7214 99.8218 86.309C106.046 90.3049 114.313 89.1928 119.094 83.7245C122.658 79.6479 122.078 72.497 119.094 68.3254C117.539 66.1522 114.904 64.4656 112.148 63.9222C109.181 63.3373 105.108 63.0366 102.325 64.2333C99.6425 65.3873 97.3217 67.6443 95.8801 70.0484C94.4672 72.4044 94.1339 74.3071 94.1339 76.9403C94.1339 79.406 94.7575 81.3981 96.6761 83.1861C98.179 84.5866 99.8605 85.8659 101.992 86.2492C103.992 86.6089 106.177 87.1541 108.232 86.7995C110.425 86.421 111.107 83.8289 110.992 82.1092C110.848 79.9585 108.532 79.094 106.537 79.094C105.737 79.094 105.207 80.2664 105.946 80.7093C107.949 81.909 108.761 78.8273 108.899 77.5026C108.957 76.9521 109.185 75.7998 108.36 75.66C107.591 75.5297 108.289 74.5866 108.463 74.1404" stroke="#AA3100" stroke-width="10.2826" stroke-linecap="round"/>
<path d="M118.717 78.9566C118.676 79.3528 113.316 79.1673 112.654 79.2497C111.076 79.4463 109.474 79.4512 107.888 79.4512C106.604 79.4512 105.698 79.4732 104.715 78.3796C104.242 77.8527 103.685 77.4403 103.375 76.731C103.037 75.9597 103.094 74.9845 102.839 74.1757C102.746 73.882 102.765 73.1866 102.429 73.1866C102.102 73.1866 101.908 74.3203 101.856 74.6337C101.453 77.0519 103.446 79.0804 104.403 80.9716C106.263 84.6484 110.616 85.3861 113.831 85.3861C115.468 85.3861 116.739 85.2777 118.106 84.0672C118.874 83.3874 119.791 82.4494 120.251 81.4203C120.672 80.4779 120.918 79.111 120.988 78.0407C121.067 76.8279 121.264 75.5916 121.264 74.3772C121.264 73.2005 121.231 72.4934 120.698 71.4647C120.082 70.2767 119.129 69.3485 118.18 68.5706C116.163 66.9165 113.703 65.1327 111.217 64.9529C108.526 64.7582 106.048 65.5517 103.71 67.1693C102.311 68.1373 100.869 68.8884 99.949 70.5855C99.6652 71.1089 99.5494 71.7345 99.383 72.3257C99.2047 72.9589 98.9029 72.4032 98.7723 72.5638C98.6247 72.7453 98.7197 73.8212 98.7723 74.0475C98.9903 74.9859 99.3584 75.7879 99.7479 76.6395C100.4 78.0643 101.244 79.5385 102.228 80.6144C103.31 81.7978 105.062 82.0101 106.451 82.0798C108.262 82.1707 109.658 80.8386 110.971 79.4512C112.242 78.108 113.168 76.6729 113.325 74.5604C113.453 72.8264 113.489 70.8051 112.327 69.5597C110.724 67.8435 108.616 67.0019 106.51 67.2609C103.727 67.6031 97.7608 69.7124 99.0106 74.4139C99.3929 75.8519 99.9324 76.6225 100.887 77.6011C101.734 78.4688 102.567 78.6199 103.598 78.9566C104.9 79.3818 106.294 79.4914 107.635 79.4512C109.383 79.3988 110.466 77.1086 110.532 75.1557C110.627 72.3418 110.612 69.4557 110.264 66.6747C110.088 65.2676 109.174 65.0081 108.126 64.9437C107.292 64.8924 106.445 64.9437 105.609 64.9437C104.418 64.9437 103.614 65.5241 102.496 66.0153C101.724 66.3546 101.195 66.8937 100.552 67.5082C100.025 68.0124 98.4195 68.7991 98.3403 69.7246C98.2094 71.2541 98.1434 72.6531 98.4446 74.1757C98.8676 76.3145 100.176 78.7631 101.759 79.8633C103.408 81.0096 104.651 81.4295 106.533 81.4295C107.635 81.4295 108.777 81.533 109.876 81.4203C111.939 81.209 112.64 78.3615 113.488 76.4838" stroke="#9E2E00" stroke-width="10.2826" stroke-linecap="round"/>
<path d="M91.6669 81.4138C91.1207 82.4214 93.1969 83.7321 93.7289 84.2306C94.3138 84.7787 94.8546 85.3505 95.415 85.9356C96.3774 86.9406 97.3278 87.8659 98.3504 88.7837C99.7757 90.0627 101.4 91.1753 103.185 91.4193C105.16 91.6891 106.964 92.5435 108.975 92.5435C109.894 92.5435 110.813 92.5435 111.733 92.5435C112.669 92.5435 113.553 92.0371 114.475 91.869C115.201 91.7368 115.94 91.2184 116.603 90.8572C117.585 90.3222 118.466 89.6225 119.396 88.971C120.885 87.9284 122.424 86.2473 123.2 84.3367C123.463 83.6898 123.545 83.0025 123.754 82.3381C123.954 81.7008 124.302 80.9839 124.302 80.2896" stroke="#D53D00" stroke-width="3.42754" stroke-linecap="round"/>
<path d="M118.262 85.09C119.089 84.9629 119.419 82.337 119.56 81.6716C119.85 80.2988 120.172 78.9734 120.35 77.5677C120.48 76.5364 120.649 76.4097 120.47 77.559C120.084 80.039 119.041 82.3211 117.895 84.3785C117.558 84.9827 117.203 85.5521 116.822 86.1138C116.789 86.1633 116.543 86.4955 116.568 86.4955C116.97 86.4955 117.534 85.881 117.803 85.6366C119.169 84.395 120.448 82.8956 121.549 81.3072C122.981 79.2416 123.902 76.848 124.428 74.2274C124.516 73.7871 124.583 73.1254 124.216 73.8022C123.307 75.4796 122.453 77.2471 121.394 78.7911C119.801 81.1151 117.438 83.4422 114.988 84.1269C114.831 84.1707 111.882 84.7489 111.898 84.5868C111.93 84.2755 112.716 83.7418 112.879 83.589C113.674 82.8434 114.419 82.0346 115.101 81.1336C115.755 80.2699 116.415 79.3827 116.674 78.2358C116.833 77.5334 116.511 78.5137 116.202 78.8431C115.05 80.0695 113.566 80.8095 112.166 81.498" stroke="#98CFC4" stroke-width="3.42754" stroke-linecap="round"/>
<path d="M130.321 80.4887C130.169 82.5045 129.844 84.3765 128.868 86.1721C128.592 86.68 128.36 87.2871 127.994 87.7336C127.881 87.8704 127.528 88.2691 127.849 87.8767C128.858 86.644 129.631 84.455 129.781 82.8589C129.898 81.6011 129.749 80.6809 129.434 79.4576C129.268 78.8118 129.18 78.2031 129.088 77.563C128.693 74.8306 128.758 83.2286 127.518 85.6953C126.484 87.7508 125.396 89.6493 124.064 91.5427C123.41 92.4702 122.731 93.2486 121.945 94.0552C121.428 94.5862 121.714 94.4231 122.369 94.1272C124.182 93.3074 125.648 92.097 127.04 90.6955C128.28 89.4473 129.603 88.0833 130.353 86.4648C131.693 83.5729 132.105 79.6029 131.536 76.4483C131.478 76.1256 131.599 75.8022 131.721 76.3082C132.229 78.4243 131.857 80.8947 131.697 83.0234C131.493 85.7315 131.321 88.5572 130.193 91.0736C129.944 91.63 129.645 92.1569 129.355 92.6914C129.174 93.0241 129.42 92.8056 129.565 92.6603C131.332 90.8873 132.824 88.536 133.96 86.3147C134.326 85.5994 134.639 84.8552 134.963 84.1199C135.046 83.9309 135.022 84.5451 135.023 84.5598C135.138 86.0059 135.211 87.5182 134.96 88.9549C134.828 89.7107 134.408 90.2372 134.348 91.0384" stroke="#EBE0FF" stroke-width="3.42754" stroke-linecap="round"/>
<path d="M65.6774 66.4437C62.3255 65.0875 59.4358 62.6416 56.4684 60.643C48.9746 55.5958 41.3924 50.6817 33.8099 45.7695C31.8736 44.5152 29.4962 42.8639 27.382 41.6286C26.9386 41.3695 25.4834 40.8819 25.9892 40.9701C26.419 41.045 26.6717 41.3638 26.9933 41.6329C30.3305 44.4253 34.041 46.797 37.4916 49.4485C39.3615 50.8853 41.3043 52.3469 42.8661 54.1319C42.9162 54.1891 43.0536 54.287 42.9877 54.3249C42.726 54.4755 42.4587 54.0322 42.2093 53.8622C40.8607 52.9435 39.5257 52.009 38.1524 51.1266C37.5853 50.7623 37.0124 50.4075 36.446 50.0422C36.0112 49.7618 36.7384 50.6727 36.7402 50.6754C37.2866 51.5065 38.2761 52.7581 38.3516 53.7995" stroke="#EBE0FF" stroke-width="3.42754" stroke-linecap="round"/>
<path d="M26.8212 112.153C26.8212 109.991 26.8212 107.829 26.8212 105.667C26.8212 101.525 25.3737 107.981 25.2468 109.067C24.7348 113.448 24.8135 118.391 25.1523 122.796C25.8078 131.316 25.5053 105.658 24.5541 97.1652C24.1681 93.7192 23.4185 90.3533 22.8853 86.932C22.8417 86.6521 22.4717 79.8316 22.1611 83.248C21.1855 93.9789 21.1535 104.662 21.1535 115.428C21.1535 116.913 21.4514 124.802 21.6888 118.986C22.0517 110.094 21.2792 101.114 19.2328 92.4737C18.1693 87.9832 17.4649 92.3419 17.1861 94.8352C16.3364 102.436 16.0526 109.992 16.0526 117.632C16.0526 122.166 16.0526 108.564 16.0526 104.029C16.0526 100.823 15.9813 97.6182 16.336 94.4259C16.474 93.1834 17.3774 89.795 16.4934 90.6789C13.6796 93.4927 13.9067 101.549 13.5021 105.1C13.0093 109.426 12.652 122.49 12.652 118.136C12.652 112.093 12.9645 105.965 12.526 99.9361C12.3613 97.6703 12.6362 90.9309 12.0852 93.1349C9.25562 104.453 10.3849 116.777 10.3849 128.337C10.3849 131.373 10.3611 123.336 10.3534 123.048C10.1413 115.092 8.68462 107.238 8.68462 99.2749C8.68462 98.9137 8.72502 94.2363 8.68462 96.0947C8.54035 102.731 7.6084 109.347 7.55109 115.994C7.53318 118.073 7.28868 124.286 7.58258 122.229C7.8458 120.386 9.09769 118.756 9.78667 117.034C10.2895 115.776 9.76983 119.742 9.81816 121.095C9.88699 123.023 12.0908 122.922 13.5021 122.922C14.9258 122.922 17.4199 123.432 18.1937 121.788C18.6051 120.914 15.9291 121.175 15.4858 121.221C14.4246 121.333 13.5065 123.366 13.8485 124.307C14.3096 125.575 18.9419 125.998 19.9885 125.409C24.2603 123.006 16.2932 120.981 14.3523 122.922C11.4457 125.828 19.2097 127.749 20.1459 125.315C21.8664 120.841 15.1432 121.418 12.9354 122.89C10.0472 124.816 15.8604 127.143 17.7529 126.196C18.4778 125.834 18.6434 123.967 17.9733 123.52C16.605 122.608 14.5137 122.922 12.9669 122.922C11.7574 122.922 11.4454 124.81 11.0776 125.755C10.4804 127.291 13.9886 126.889 14.6357 126.889C18.9851 126.889 19.7646 121.356 14.9191 121.221C13.1144 121.171 11.7201 121.02 10.3849 122.355C10.0656 122.674 7.62755 125.412 9.03098 125.724C10.5023 126.051 13.0101 125.77 14.1004 124.622C14.844 123.839 15.5162 121.197 14.1004 120.781C11.9381 120.145 7.9436 119.068 9.37734 122.796C10.9846 126.975 18.7198 125.099 21.0905 123.237C23.3293 121.477 18.3197 119.897 18.3197 122.355C18.3197 126.301 34.3617 126.075 37.2434 125.189C44.7965 122.865 5.71727 122.882 13.5966 123.488C23.5569 124.255 33.9324 125.046 43.4148 121.253C46.7184 119.931 36.2986 121.187 32.7407 121.221C32.5168 121.223 25.8879 122.094 28.7734 122.796C32.4243 123.684 37.0668 122.922 40.8014 122.922C45.7331 122.922 39.0114 122.922 37.7472 122.922C32.2369 122.922 26.7267 122.922 21.2165 122.922C18.0693 122.922 18.0758 123.354 21.248 123.772C26.9931 124.528 32.9981 124.055 38.7862 124.055C39.5273 124.055 45.3278 124.779 45.9653 123.929C46.3655 123.396 44.68 123.505 44.0131 123.488C40.7734 123.407 37.5535 123.054 34.3151 122.953C30.1239 122.822 25.1035 122.201 20.9646 122.953C13.0121 124.399 37.1029 123.953 45.1466 124.748C48.9338 125.122 50.2428 125.365 45.3041 126.039C37.938 127.043 30.4436 127.148 23.0427 127.897C17.837 128.423 24.0515 128.589 25.8451 128.589C33.4929 128.589 41.1186 129.156 48.7676 129.156C53.5732 129.156 45.3374 129.587 44.265 129.471C36.0919 128.59 28.0797 127.093 19.831 126.889C17.2621 126.826 14.2498 125.508 11.8333 126.889C9.30007 128.337 16.4867 128.589 16.6194 128.589C19.6001 128.589 22.5809 128.589 25.5617 128.589C31.8381 128.589 38.1145 128.589 44.3909 128.589C46.8469 128.589 49.3029 128.589 51.7589 128.589C54.8785 128.589 45.5306 129.024 42.4387 129.439C37.9873 130.037 33.3662 131.423 28.8678 131.423C26.8631 131.423 24.8585 131.423 22.8538 131.423C21.6634 131.423 14.2143 131.63 16.3675 132.021C28.5368 134.234 41.6244 134.469 54.026 134.824C60.421 135.006 50.2199 132.404 48.6732 131.738C42.1658 128.934 36.2024 125.112 30.2847 121.253C29.5378 120.766 23.2464 116.583 27.5139 118.45C32.0144 120.419 36.5289 122.34 41.1792 123.929C41.7109 124.111 43.951 125.333 44.5484 125.094C44.7651 125.008 39.6204 121.188 39.4789 121.095C34.6833 117.965 29.8423 114.879 24.9319 111.933C24.1569 111.468 24.3786 111.527 25.2468 111.586C27.8339 111.763 30.04 113.615 32.0165 115.113C36.6073 118.591 41.1086 122.35 45.3985 126.196C50.4969 130.767 37.6895 114.827 33.1186 109.729C30.7181 107.051 28.1863 104.496 25.8136 101.794C25.0349 100.907 22.3259 98.6702 23.3576 99.2434C28.7733 102.252 33.515 107.443 37.5897 112.027C37.8631 112.335 41.6805 115.295 41.4311 114.609C40.6935 112.581 38.6428 110.542 37.5897 108.627C35.7387 105.259 33.9171 101.928 31.7646 98.7396C28.0391 93.2203 18.1867 88.4516 14.4782 80.5401C13.8822 79.2686 13.7855 78.1471 13.7855 76.7931C13.7855 73.0419 14.2152 84.2843 14.3208 88.034C14.4266 91.79 14.6405 103.053 14.3523 99.3064C13.869 93.0233 12.1434 87.0122 12.0852 80.666C12.0816 80.2737 11.7414 74.2427 12.3686 74.2427C12.8711 74.2427 11.559 84.2584 11.5185 84.9483C11.2926 88.7877 10.9517 100.319 10.9517 96.4725C10.9517 90.9565 12.771 85.2582 13.7855 79.8474" stroke="#FDF3E3" stroke-width="5.14131" stroke-linecap="round"/>
<path d="M194.584 114.42C194.584 114.437 194.951 106.621 194.458 112.53C194.113 116.675 192.991 120.779 192.884 124.936C192.814 127.663 194.916 123.656 195.435 122.89C197.213 120.26 198.343 117.07 198.52 113.884C198.691 110.818 197.443 111.704 196.977 113.979C196.396 116.822 196.973 122.202 201.354 120.56C203.312 119.825 202.519 113.777 202.519 120.528C202.519 122.917 203.152 126.036 201.071 127.739C198.781 129.612 192.569 130.289 192.569 130.289C192.569 130.289 195.488 129.001 196.726 128.022C196.988 127.815 199.294 125.812 198.237 127.172C195.445 130.762 189.665 129.722 185.768 129.722C184.719 129.722 173.62 130.352 173.709 130.572C174.116 131.592 181.661 130.869 182.619 130.793C185.449 130.566 189.101 129.169 188.917 125.755C188.626 120.384 175.816 122.602 172.827 123.771C168.531 125.452 172.781 126.322 175.188 126.322C176.632 126.322 183.109 122.623 179.817 122.953C175.286 123.406 171.619 126.888 166.939 126.888C163.65 126.888 161.139 127.74 158.059 128.62C155.611 129.32 163.133 129.155 165.679 129.155C171.643 129.155 178.022 129.677 183.816 128.022C188.5 126.684 190.008 127.834 191.467 122.323C192.369 118.916 193.106 115.191 192.853 111.649C192.814 111.105 191.893 108.295 190.743 109.445C188.463 111.725 189.528 119.876 194.27 117.411C196.517 116.242 201.763 103.651 197.985 103.651C196.898 103.651 197.418 106.725 197.418 107.366C197.418 109.896 198.102 111.64 199.937 113.475C201.17 114.708 200.819 108.676 200.819 108.185C200.819 103.665 200.302 99.1733 200.252 94.6457C200.244 93.8863 199.685 88.6623 199.685 89.8597C199.685 96.5473 200.047 103.203 200.221 109.885C200.29 112.545 199.782 115.526 200.787 118.041C201.523 119.879 201.639 114.171 201.952 112.215C202.699 107.557 203.653 102.806 204.094 98.1093C204.27 96.2278 204.219 90.5519 204.219 92.4416C204.219 102.712 205.23 113.071 205.353 123.362C205.401 127.424 205.457 128.017 201.921 130.006C198.339 132.02 194.086 132.556 190.05 132.556C178.128 132.556 166.223 131.989 154.344 131.989" stroke="#FDF3E3" stroke-width="5.14131" stroke-linecap="round"/>
<path d="M184.383 13.5353C184.931 12.8043 180.388 15.6225 179.628 16.3376C177.593 18.2531 177.979 18.6193 180.384 16.9359C181.609 16.0784 182.888 15.2814 183.942 14.228C185.447 12.7227 180.702 16.99 179.093 18.3843C178.855 18.5904 174.867 22.1517 176.542 21.9423C179.291 21.5988 182.195 18.0845 184.32 16.4321C186.552 14.6959 182.921 17.2738 182.43 17.7545C181.963 18.2127 177.786 22.9184 177.833 22.9184C180.552 22.9184 186.466 16.2946 179.25 19.2659C177.005 20.1905 173.386 21.2946 171.473 22.7295C168.915 24.648 177.153 19.6905 179.597 17.6286C180.297 17.038 171.881 17.062 170.528 17.2193C169.536 17.3346 163.077 18.2424 166.939 17.1563C167.763 16.9245 177.083 13.7616 177.015 13.2834C176.898 12.4692 165.974 12.9685 164.64 12.9685C158.815 12.9685 166.991 11.8723 168.828 11.2682C171.722 10.3162 174.522 9.03911 177.455 8.21397C178.151 8.01823 180.32 7.86761 179.597 7.86761C172.617 7.86761 151.71 9.00115 158.689 9.00115C162.195 9.00115 166.553 6.86163 170.025 6.16731C173.644 5.44341 177.158 5.19527 180.825 5.00229C181.367 4.97374 183.1 4.93107 183.564 4.46701C184.97 3.06112 179.657 5.43781 177.928 6.41921C175.182 7.9774 174 8.43438 177.707 8.43438C181.551 8.43438 185.428 8.22926 189.232 8.8752C192.616 9.44993 187.543 13.7138 186.398 14.5429C183.139 16.903 179.556 19.3178 175.944 21.1237C174.406 21.8926 176.064 21.0157 176.574 20.7773C179.323 19.4915 181.758 17.5958 184.257 15.8968C186.794 14.1715 194.21 8.7635 191.939 10.8274C187.598 14.7739 182.636 18.2371 177.959 21.7849C174.788 24.1905 168.976 30.5383 164.546 30.5383" stroke="#FDF3E3" stroke-width="5.14131" stroke-linecap="round"/>
<path d="M157.178 57.1766C162.046 56.6357 167.316 51.5924 171.788 49.6197C173.783 48.7394 176.15 48.6585 177.707 47.1007C179.042 45.7665 181.285 44.5163 182.934 43.5742C184.373 42.7522 185.386 42.1387 182.997 43.0074C180.826 43.7969 178.19 45.8567 176.574 47.4156C174.839 49.0883 174.839 48.6047 176.7 47.5416C179.175 46.1271 181.268 43.521 183.69 41.8739C186.21 40.1604 188.578 37.78 191.184 36.3322C193.732 34.9166 196.73 33.6655 198.552 31.3887C200.124 29.4236 195.375 32.4948 194.899 32.8056C192.624 34.2932 190.568 35.6883 188.633 37.6231C182.33 43.9262 173.285 47.4531 167.38 54.3428" stroke="#FDF3E3" stroke-width="5.14131" stroke-linecap="round"/>
</svg>
