<svg width="123" height="81" viewBox="0 0 123 81" fill="none" xmlns="http://www.w3.org/2000/svg">
<rect width="123" height="80" rx="10" fill="#FFF9EF"/>
<path d="M46.0762 41.9614C45.522 39.4675 39.1866 36.5916 37 35.2002C34.3314 33.502 31.636 32.0922 28.8975 30.5518C26.8974 29.4268 25.062 27.9602 23.11 26.7486C20.7689 25.2955 18.4462 23.939 15.9813 22.7065C13.5131 21.4724 11.9388 19.3134 9.69775 17.8193" stroke="#FDF3E3" stroke-width="3" stroke-linecap="round"/>
<path d="M4.49998 12C41.2813 39.854 61.145 46.7024 62.5 46C80.5 39.5 118.029 14.3622 118.5 11.9985" stroke="#8E6352"/>
<path d="M62.4798 41.8791C61.5951 41.8791 60.2028 41.6307 59.513 42.2561C58.63 43.0568 58.4403 44.7275 58.599 45.8029C58.8447 47.4681 60.8761 48.8388 62.5547 49.1122C64.1892 49.3784 66.4194 49.5895 67.5893 48.2465C68.907 46.7337 69.6041 44.6846 68.818 42.7588C68.0528 40.8845 66.561 39.2102 64.3977 38.7373C62.04 38.2219 60.0033 38.4853 58.599 40.5526C57.6008 42.0221 57.033 44.0991 57.2355 45.8448C57.4335 47.5518 58.9398 48.6309 60.5844 49.1052C62.0718 49.5343 64.0451 50.1251 65.5065 49.2798C68.4545 47.5746 68.1443 43.3312 66.6603 40.9017C65.7289 39.3769 63.5852 38.7531 61.8055 38.7373C60.913 38.7294 59.8818 38.6167 59.0635 39.0166C58.1638 39.4563 57.5129 40.1844 56.9208 40.9296C54.708 43.7148 54.9861 48.2686 58.2469 50.362C61.8788 52.6936 66.7024 52.0447 69.4922 48.8539C71.5721 46.4752 71.2336 42.3025 69.4922 39.8684C68.5851 38.6003 67.0474 37.6161 65.4391 37.2991C63.7078 36.9578 61.3313 36.7823 59.7078 37.4806C58.1423 38.1539 56.7881 39.471 55.9469 40.8737C55.1225 42.2485 54.928 43.3588 54.928 44.8952C54.928 46.334 55.2918 47.4964 56.4114 48.5397C57.2883 49.357 58.2695 50.1034 59.513 50.327C60.6804 50.537 61.9552 50.8551 63.1541 50.6482C64.4342 50.4273 64.8321 48.9148 64.7648 47.9114C64.6807 46.6564 63.3294 46.152 62.1652 46.152C61.6984 46.152 61.3891 46.836 61.8205 47.0945C62.989 47.7945 63.4627 45.9963 63.5437 45.2234C63.5773 44.9021 63.7103 44.2297 63.229 44.1482C62.7801 44.0721 63.1874 43.5219 63.2889 43.2615" stroke="#AA3100" stroke-width="6" stroke-linecap="round"/>
<path d="M69.2722 46.0718C69.2487 46.303 66.121 46.1947 65.7348 46.2428C64.8137 46.3575 63.8789 46.3604 62.9536 46.3604C62.2045 46.3604 61.6758 46.3732 61.1023 45.7351C60.826 45.4277 60.5013 45.187 60.3201 44.7732C60.123 44.3231 60.1564 43.7541 60.0072 43.2821C59.953 43.1107 59.9641 42.7049 59.7682 42.7049C59.5772 42.7049 59.464 43.3665 59.4336 43.5493C59.1989 44.9604 60.3615 46.144 60.9198 47.2475C62.0053 49.393 64.5453 49.8235 66.4214 49.8235C67.3767 49.8235 68.1181 49.7602 68.9158 49.0539C69.3638 48.6572 69.8988 48.1099 70.1674 47.5094C70.4133 46.9595 70.557 46.1619 70.5976 45.5374C70.6436 44.8297 70.7584 44.1083 70.7584 43.3997C70.7584 42.7131 70.7394 42.3005 70.4281 41.7002C70.0686 41.007 69.513 40.4654 68.9593 40.0115C67.782 39.0463 66.3467 38.0054 64.8961 37.9005C63.326 37.7869 61.8801 38.2499 60.5157 39.1938C59.6991 39.7587 58.8579 40.1969 58.3211 41.1872C58.1555 41.4926 58.0879 41.8576 57.9908 42.2026C57.8868 42.5721 57.7107 42.2478 57.6345 42.3415C57.5484 42.4474 57.6038 43.0752 57.6345 43.2073C57.7617 43.7549 57.9765 44.2228 58.2038 44.7197C58.584 45.5511 59.0766 46.4113 59.6509 47.0391C60.2825 47.7296 61.3044 47.8535 62.1149 47.8942C63.172 47.9473 63.9867 47.1699 64.7527 46.3604C65.4943 45.5766 66.0348 44.7393 66.1259 43.5066C66.2007 42.4948 66.2221 41.3153 65.5436 40.5886C64.6086 39.5872 63.3782 39.0961 62.1496 39.2472C60.5258 39.4469 57.0443 40.6777 57.7735 43.4211C57.9966 44.2602 58.3114 44.7098 58.8686 45.2809C59.3627 45.7871 59.849 45.8753 60.4505 46.0718C61.21 46.3199 62.0235 46.3839 62.8058 46.3604C63.8258 46.3298 64.4577 44.9935 64.4963 43.854C64.5519 42.212 64.5428 40.5279 64.3398 38.9052C64.2371 38.0842 63.7038 37.9327 63.0926 37.8951C62.6058 37.8652 62.1113 37.8951 61.6238 37.8951C60.929 37.8951 60.4598 38.2338 59.8073 38.5204C59.3565 38.7184 59.0479 39.033 58.6731 39.3915C58.3655 39.6857 57.4287 40.1448 57.3824 40.6848C57.306 41.5773 57.2675 42.3937 57.4433 43.2821C57.6901 44.5301 58.4534 45.9589 59.3771 46.6009C60.3394 47.2698 61.065 47.5148 62.1627 47.5148C62.8058 47.5148 63.4722 47.5752 64.1139 47.5094C65.3171 47.3861 65.7265 45.7245 66.2215 44.6289" stroke="#9E2E00" stroke-width="6" stroke-linecap="round"/>
<path d="M53.4885 47.5056C53.1698 48.0935 54.3812 48.8584 54.6917 49.1492C55.033 49.4691 55.3485 49.8027 55.6755 50.1441C56.2371 50.7305 56.7917 51.2705 57.3884 51.806C58.22 52.5523 59.1677 53.2016 60.2096 53.3439C61.3618 53.5014 62.4146 53.9999 63.5879 53.9999C64.1243 53.9999 64.6607 53.9999 65.1971 53.9999C65.7434 53.9999 66.2589 53.7044 66.7973 53.6063C67.2209 53.5292 67.6522 53.2267 68.039 53.0159C68.612 52.7038 69.1263 52.2954 69.6689 51.9153C70.5374 51.307 71.4353 50.326 71.8885 49.2112C72.042 48.8337 72.0898 48.4327 72.2116 48.045C72.3284 47.6731 72.5316 47.2548 72.5316 46.8496" stroke="#D53D00" stroke-width="2" stroke-linecap="round"/>
<path d="M69.0068 49.6508C69.4893 49.5766 69.6823 48.0443 69.7642 47.6561C69.9333 46.8551 70.1216 46.0817 70.2253 45.2614C70.3014 44.6597 70.3997 44.5857 70.2953 45.2564C70.07 46.7034 69.4616 48.0351 68.7927 49.2356C68.5963 49.5881 68.389 49.9204 68.167 50.2482C68.1474 50.277 68.004 50.4709 68.0188 50.4709C68.2532 50.4709 68.5823 50.1123 68.7392 49.9697C69.5362 49.2452 70.2826 48.3703 70.9251 47.4434C71.7607 46.2382 72.2982 44.8415 72.6048 43.3123C72.6563 43.0554 72.6953 42.6693 72.4813 43.0642C71.9507 44.043 71.4523 45.0743 70.8346 45.9753C69.9048 47.3314 68.526 48.6893 67.0966 49.0888C67.0051 49.1144 65.2839 49.4517 65.2935 49.3571C65.312 49.1755 65.7707 48.8641 65.8657 48.7749C66.3296 48.3398 66.7647 47.8679 67.1625 47.3422C67.5438 46.8382 67.9293 46.3205 68.0805 45.6513C68.1731 45.2414 67.9852 45.8135 67.8047 46.0057C67.1326 46.7213 66.2667 47.153 65.4499 47.5548" stroke="#98CFC4" stroke-width="2" stroke-linecap="round"/>
<path d="M76.0433 46.9659C75.9547 48.1422 75.7654 49.2345 75.1956 50.2823C75.0345 50.5786 74.8994 50.9329 74.6854 51.1934C74.6198 51.2732 74.4135 51.5059 74.6009 51.2769C75.1897 50.5576 75.6409 49.2803 75.7281 48.349C75.7969 47.6151 75.7099 47.0781 75.526 46.3643C75.4289 45.9875 75.3779 45.6322 75.324 45.2588C75.0936 43.6644 75.1312 48.5647 74.4077 50.0041C73.8047 51.2035 73.1699 52.3112 72.3921 53.416C72.0111 53.9573 71.6147 54.4115 71.1563 54.8821C70.8544 55.192 71.0214 55.0968 71.4032 54.9242C72.4611 54.4458 73.3168 53.7395 74.1292 52.9217C74.8528 52.1934 75.6243 51.3975 76.062 50.453C76.844 48.7656 77.0845 46.4491 76.7524 44.6083C76.7185 44.4201 76.7892 44.2313 76.8602 44.5266C77.1569 45.7613 76.9399 47.2029 76.8463 48.4449C76.7273 50.0251 76.6267 51.674 75.9688 53.1423C75.8233 53.467 75.6491 53.7744 75.4795 54.0863C75.374 54.2805 75.5175 54.153 75.602 54.0682C76.6333 53.0336 77.504 51.6616 78.167 50.3654C78.3805 49.9481 78.5632 49.5138 78.752 49.0848C78.8005 48.9745 78.7867 49.3329 78.7873 49.3415C78.8542 50.1853 78.8969 51.0677 78.7504 51.9061C78.6734 52.347 78.4283 52.6543 78.3931 53.1218" stroke="#EBE0FF" stroke-width="2" stroke-linecap="round"/>
<path d="M38.3233 38.7705C36.3674 37.9792 34.6813 36.552 32.9498 35.3858C28.5771 32.4407 24.1528 29.5733 19.7283 26.707C18.5985 25.975 17.2112 25.0115 15.9776 24.2907C15.7189 24.1395 14.8697 23.855 15.1649 23.9065C15.4157 23.9502 15.5631 24.1362 15.7508 24.2932C17.6981 25.9226 19.8632 27.3065 21.8767 28.8537C22.9677 29.6921 24.1014 30.5449 25.0127 31.5865C25.0419 31.6199 25.1221 31.677 25.0837 31.6991C24.931 31.787 24.775 31.5283 24.6294 31.4292C23.8426 30.893 23.0636 30.3477 22.2622 29.8329C21.9313 29.6203 21.597 29.4133 21.2665 29.2001C21.0128 29.0365 21.4371 29.568 21.4382 29.5696C21.757 30.0546 22.3344 30.7849 22.3785 31.3925" stroke="#EBE0FF" stroke-width="2" stroke-linecap="round"/>
<path d="M15.6504 65.4423C15.6504 64.1807 15.6504 62.9191 15.6504 61.6575C15.6504 59.2405 14.8058 63.0082 14.7318 63.6418C14.433 66.1979 14.4789 69.0824 14.6766 71.6524C15.0591 76.6243 14.8826 61.6524 14.3275 56.6968C14.1023 54.686 13.6649 52.722 13.3538 50.7256C13.3283 50.5623 13.1124 46.5825 12.9312 48.576C12.362 54.8375 12.3433 61.0714 12.3433 67.3531C12.3433 68.2201 12.5171 72.8233 12.6556 69.4293C12.8674 64.241 12.4166 59.0011 11.2225 53.9592C10.6019 51.339 10.1909 53.8824 10.0283 55.3372C9.53243 59.7722 9.36685 64.1811 9.36685 68.6392C9.36685 71.285 9.36685 63.3478 9.36685 60.7021C9.36685 58.8309 9.32523 56.9611 9.5322 55.0984C9.61276 54.3734 10.1399 52.3962 9.62407 52.912C7.98219 54.5539 8.11472 59.2545 7.87864 61.3268C7.59103 63.8513 7.38257 71.4741 7.38257 68.9332C7.38257 65.4071 7.56491 61.8313 7.30907 58.3136C7.21292 56.9915 7.37337 53.059 7.05185 54.3451C5.40076 60.9495 6.05971 68.1403 6.05971 74.8861C6.05971 76.6575 6.04583 71.9677 6.04134 71.7994C5.91754 67.1571 5.06757 62.5745 5.06757 57.9278C5.06757 57.717 5.09115 54.9877 5.06757 56.0721C4.98339 59.9446 4.43958 63.805 4.40614 67.6838C4.39569 68.8964 4.25303 72.5221 4.42452 71.3217C4.57811 70.2465 5.3086 69.2952 5.71063 68.2902C6.00405 67.5566 5.7008 69.8707 5.729 70.6603C5.76916 71.7849 7.05509 71.7259 7.87864 71.7259C8.70937 71.7259 10.1647 72.0239 10.6162 71.0645C10.8563 70.5543 9.29477 70.7065 9.03613 70.7338C8.41689 70.7989 7.88116 71.9855 8.08074 72.5343C8.34977 73.2742 11.0528 73.5209 11.6635 73.1774C14.1561 71.7753 9.50726 70.5933 8.37471 71.7259C6.67868 73.4219 11.2091 74.5426 11.7553 73.1222C12.7593 70.512 8.83619 70.8487 7.54792 71.7075C5.86265 72.831 9.25467 74.1888 10.359 73.6367C10.782 73.4252 10.8786 72.3357 10.4876 72.075C9.68921 71.5427 8.46891 71.7259 7.5663 71.7259C6.86054 71.7259 6.6785 72.8277 6.46392 73.3795C6.11541 74.2756 8.16247 74.0409 8.54006 74.0409C11.078 74.0409 11.5329 70.8123 8.70542 70.7338C7.65239 70.7045 6.83882 70.6161 6.05971 71.3952C5.87336 71.5815 4.45076 73.1791 5.26967 73.3611C6.12823 73.5519 7.59151 73.3877 8.22772 72.718C8.66161 72.2613 9.05385 70.7195 8.22772 70.4765C6.96601 70.1054 4.63518 69.4772 5.47178 71.6524C6.40965 74.0909 10.9232 72.9965 12.3065 71.9096C13.6129 70.8832 10.6897 69.9609 10.6897 71.3952C10.6897 73.698 20.0504 73.5661 21.7319 73.0488C26.1392 71.6927 3.3361 71.703 7.93376 72.0566C13.7457 72.5037 19.7998 72.9654 25.333 70.7521C27.2606 69.9811 21.1806 70.7138 19.1045 70.7338C18.9739 70.735 15.1058 71.2429 16.7895 71.6524C18.9199 72.1706 21.6288 71.7259 23.808 71.7259C26.6857 71.7259 22.7635 71.7259 22.0258 71.7259C18.8106 71.7259 15.5953 71.7259 12.38 71.7259C10.5436 71.7259 10.5474 71.9784 12.3984 72.222C15.7507 72.6631 19.2547 72.3873 22.6321 72.3873C23.0646 72.3873 26.4492 72.8098 26.8212 72.3138C27.0547 72.0024 26.0712 72.0663 25.682 72.0566C23.7917 72.0094 21.9128 71.8033 20.0232 71.7443C17.5776 71.6679 14.6481 71.3052 12.233 71.7443C7.59269 72.588 21.6499 72.328 26.3435 72.7915C28.5533 73.0098 29.3171 73.1519 26.4353 73.5448C22.1372 74.1309 17.7641 74.1921 13.4456 74.6288C10.4081 74.936 14.0343 75.033 15.0808 75.033C19.5434 75.033 23.9931 75.3638 28.4564 75.3638C31.2605 75.3638 26.4548 75.6149 25.829 75.5475C21.06 75.0335 16.3848 74.1597 11.5716 74.0409C10.0726 74.0039 8.31489 73.2352 6.90487 74.0409C5.42669 74.8856 9.62018 75.033 9.69756 75.033C11.4369 75.033 13.1762 75.033 14.9155 75.033C18.5778 75.033 22.2402 75.033 25.9025 75.033C27.3356 75.033 28.7687 75.033 30.2018 75.033C32.0221 75.033 26.5675 75.2868 24.7634 75.5291C22.1659 75.878 19.4695 76.6866 16.8446 76.6866C15.6749 76.6866 14.5052 76.6866 13.3354 76.6866C12.6408 76.6866 8.29416 76.8073 9.55058 77.0357C16.6515 78.3268 24.2883 78.4641 31.5247 78.6709C35.2562 78.7775 29.3038 77.2592 28.4012 76.8703C24.6042 75.2342 21.1245 73.0041 17.6714 70.7521C17.2356 70.4679 13.5645 68.0275 16.0546 69.1169C18.6807 70.2659 21.315 71.3864 24.0285 72.3138C24.3387 72.4199 25.6458 73.1331 25.9944 72.9936C26.1209 72.943 23.1189 70.7142 23.0363 70.6603C20.2381 68.8336 17.4133 67.0329 14.548 65.3137C14.0958 65.0424 14.2252 65.0771 14.7318 65.1116C16.2414 65.2146 17.5286 66.2957 18.6819 67.1694C21.3607 69.1988 23.9873 71.3924 26.4905 73.6367C29.4654 76.3039 21.9922 67.0026 19.325 64.0276C17.9243 62.4653 16.4469 60.9744 15.0625 59.3976C14.6081 58.8801 13.0274 57.575 13.6294 57.9094C16.7895 59.665 19.5563 62.694 21.934 65.3689C22.0935 65.5483 24.321 67.2755 24.1755 66.8754C23.745 65.6918 22.5484 64.5025 21.934 63.3846C20.8539 61.4194 19.791 59.4762 18.535 57.6155C16.3611 54.3949 10.6121 51.6123 8.4482 46.9959C8.10041 46.2539 8.04399 45.5995 8.04399 44.8095C8.04399 42.6206 8.2947 49.1807 8.35633 51.3687C8.41807 53.5603 8.54287 60.1322 8.37471 57.9462C8.09269 54.28 7.08583 50.7724 7.05185 47.0694C7.04975 46.8404 6.85122 43.3213 7.21721 43.3213C7.51045 43.3213 6.74482 49.1655 6.72114 49.5681C6.58935 51.8084 6.39043 58.5368 6.39043 56.2926C6.39043 53.074 7.452 49.749 8.04399 46.5917" stroke="#FDF3E3" stroke-width="3" stroke-linecap="round"/>
<path d="M113.542 66.7651C113.542 66.7751 113.756 62.2148 113.468 65.6627C113.267 68.0812 112.612 70.4759 112.55 72.9016C112.509 74.4925 113.735 72.1544 114.038 71.7074C115.076 70.1732 115.735 68.3114 115.838 66.4527C115.938 64.6634 115.21 65.1803 114.938 66.5079C114.599 68.167 114.936 71.3064 117.492 70.3478C118.634 69.9194 118.172 66.3904 118.172 70.3294C118.172 71.7233 118.541 73.5432 117.327 74.5368C115.99 75.6301 112.366 76.0251 112.366 76.0251C112.366 76.0251 114.069 75.2733 114.791 74.7022C114.944 74.5813 116.29 73.4129 115.673 74.2061C114.044 76.301 110.671 75.6943 108.397 75.6943C107.785 75.6943 101.309 76.0615 101.36 76.1904C101.598 76.7853 106.001 76.3637 106.56 76.319C108.211 76.1869 110.342 75.3717 110.235 73.3793C110.065 70.2453 102.59 71.5394 100.846 72.2218C98.3391 73.2028 100.819 73.7101 102.224 73.7101C103.066 73.7101 106.846 71.552 104.925 71.7442C102.281 72.0085 100.141 74.0408 97.4102 74.0408C95.4909 74.0408 94.0259 74.5379 92.229 75.0513C90.8005 75.4595 95.1896 75.3636 96.6753 75.3636C100.155 75.3636 103.877 75.6682 107.258 74.7022C109.992 73.9212 110.872 74.5923 111.723 71.3767C112.249 69.3886 112.679 67.2151 112.531 65.1483C112.509 64.8308 111.971 63.1912 111.3 63.8621C109.97 65.1928 110.591 69.9492 113.358 68.5105C114.669 67.8285 117.73 60.4815 115.526 60.4815C114.892 60.4815 115.195 62.2754 115.195 62.6495C115.195 64.1257 115.594 65.143 116.665 66.2139C117.385 66.9333 117.18 63.4136 117.18 63.1272C117.18 60.4899 116.878 57.8687 116.849 55.2269C116.844 54.7837 116.518 51.7355 116.518 52.4342C116.518 56.3365 116.729 60.2198 116.83 64.1194C116.871 65.671 116.574 67.4108 117.161 68.878C117.59 69.9508 117.658 66.6198 117.841 65.479C118.277 62.7609 118.833 59.9883 119.09 57.2479C119.193 56.15 119.164 52.8381 119.164 53.9407C119.164 59.9335 119.754 65.9785 119.825 71.983C119.853 74.3535 119.886 74.6991 117.823 75.8597C115.733 77.0354 113.251 77.3479 110.896 77.3479C103.939 77.3479 96.9923 77.0172 90.061 77.0172" stroke="#FDF3E3" stroke-width="3" stroke-linecap="round"/>
<path d="M107.589 7.89806C107.909 7.47152 105.258 9.11597 104.815 9.53326C103.627 10.651 103.852 10.8646 105.255 9.88234C105.97 9.38198 106.717 8.91694 107.332 8.30227C108.21 7.4239 105.441 9.91395 104.502 10.7275C104.363 10.8478 102.037 12.9258 103.014 12.8036C104.618 12.6032 106.312 10.5526 107.552 9.58838C108.855 8.57528 106.736 10.0795 106.45 10.36C106.177 10.6274 103.74 13.3732 103.767 13.3732C105.354 13.3732 108.805 9.50816 104.594 11.2419C103.284 11.7814 101.172 12.4257 100.056 13.263C98.5633 14.3824 103.37 11.4897 104.796 10.2866C105.205 9.94194 100.294 9.95595 99.5047 10.0477C98.9257 10.115 95.1569 10.6447 97.4102 10.011C97.8911 9.87571 103.329 8.03015 103.29 7.75108C103.222 7.27601 96.847 7.56735 96.069 7.56735C92.6699 7.56735 97.441 6.92772 98.5126 6.57521C100.201 6.01972 101.835 5.27451 103.547 4.79303C103.953 4.67881 105.218 4.59093 104.796 4.59093C100.724 4.59093 88.524 5.25236 92.5965 5.25236C94.6419 5.25236 97.185 4.00393 99.2108 3.59879C101.323 3.17638 103.373 3.03159 105.513 2.91899C105.829 2.90233 106.84 2.87743 107.111 2.60665C107.931 1.7863 104.831 3.17311 103.822 3.74577C102.22 4.65499 101.53 4.92164 103.694 4.92164C105.937 4.92164 108.199 4.80195 110.418 5.17886C112.393 5.51423 109.433 8.00224 108.765 8.486C106.863 9.86316 104.772 11.2722 102.665 12.3259C101.768 12.7746 102.735 12.263 103.032 12.1238C104.636 11.3736 106.057 10.2674 107.515 9.27604C108.996 8.26932 113.323 5.11368 111.998 6.31799C109.465 8.62084 106.57 10.6416 103.841 12.7118C101.99 14.1155 98.5991 17.8195 96.0139 17.8195" stroke="#FDF3E3" stroke-width="3" stroke-linecap="round"/>
<path d="M91.7146 33.3632C94.5553 33.0476 97.6305 30.1048 100.24 28.9537C101.404 28.44 102.785 28.3928 103.694 27.4838C104.472 26.7053 105.782 25.9758 106.744 25.4261C107.583 24.9465 108.174 24.5885 106.78 25.0954C105.514 25.556 103.976 26.7579 103.032 27.6676C102.02 28.6436 102.02 28.3614 103.106 27.7411C104.55 26.9157 105.771 25.395 107.185 24.4339C108.655 23.4341 110.037 22.0451 111.557 21.2003C113.044 20.3743 114.794 19.6443 115.857 18.3157C116.774 17.1691 114.003 18.9612 113.725 19.1425C112.398 20.0105 111.198 20.8246 110.069 21.9536C106.391 25.6315 101.113 27.6894 97.6674 31.7096" stroke="#FDF3E3" stroke-width="3" stroke-linecap="round"/>
</svg>
