<svg width="295" height="392" viewBox="0 0 295 392" fill="none" xmlns="http://www.w3.org/2000/svg">
<path d="M91.4686 2.62336C91.5918 1.63735 73.9422 0.256927 2.35748 2.62336C1.74122 3.60943 0.508702 6.09925 0.508702 8.17001C0.508702 10.7585 0.508702 16.6744 2.35748 20.3719C4.20626 24.0695 4.20624 28.5066 2.35748 33.3134C0.508719 38.1202 2.35748 44.7758 2.35748 47.3641C2.35748 49.9524 2.35748 54.0197 0.508702 56.608C-0.970321 58.6786 1.12496 82.1211 2.35748 93.5835C1.74122 104.676 0.508702 128.119 0.508702 133.147C0.508702 138.176 1.74122 142.638 2.35748 144.24V255.536L0.508702 349.824L2.35748 356.48C1.74122 360.054 0.508702 368.164 0.508702 372.009V383.472C1.98772 385.197 6.12899 389.018 10.8619 390.497C15.5947 391.976 46.3584 391.114 61.1486 390.497L287.809 387.539C288.795 387.539 291.137 386.43 292.616 381.993C294.095 377.556 291.999 346.866 290.767 332.076V245.923V185.283C291.383 141.405 292.837 53.2062 293.725 51.4314C294.834 49.2129 293.355 25.1788 290.767 23.33C288.179 21.4812 277.086 9.64903 276.346 7.4305C275.607 5.21196 263.775 2.62336 258.598 0.404981C254.457 -1.36972 212.748 3.11657 192.412 5.58156C194.014 4.59549 196.257 2.17969 192.412 0.404981C188.566 -1.36972 121.542 3.11657 88.5105 5.58156L91.4686 2.62336Z" fill="#F4DFBE"/>
<path d="M77.4923 75.7503C118.907 75.7503 160.321 75.7503 201.735 75.7503C212.68 75.7503 223.625 75.7503 234.57 75.7503C234.933 75.7503 239.804 75.5988 236.635 75.8033C228.521 76.3268 220.466 77.211 212.327 77.445C176.491 78.4754 140.562 77.5341 104.713 77.6568C90.437 77.7057 76.1998 78.6101 61.9223 78.6101C21.0907 78.6101 143.747 78.0326 184.364 82.2113C192.205 83.018 200 83.3764 207.878 83.3764C209.961 83.3764 203.712 83.3997 201.629 83.3764C175.535 83.0849 149.485 79.5877 123.355 78.8219C114.707 78.5685 106.004 78.4123 97.3521 78.6631C95.3382 78.7214 91.001 78.382 89.1434 79.7752C88.566 80.2082 107.11 82.2369 109.48 82.4232C119.959 83.2468 130.423 84.0856 140.938 84.2768C143.57 84.3246 153.454 82.8262 155.766 85.283C156.381 85.936 147.425 87.6338 146.975 87.7191C141.899 88.6818 136.886 89.9467 131.829 91.0026C129.065 91.5797 126.334 92.3027 123.567 92.8562C121.178 93.3339 128.439 92.9091 130.875 92.9091C137.866 92.9091 144.857 92.9091 151.847 92.9091" stroke="#F1DBB8" stroke-width="9.61365" stroke-linecap="round"/>
<path d="M71.7727 186.329C121.837 186.329 272.03 186.329 221.965 186.329C187.009 186.329 152.039 189.689 117.424 194.379C105.615 195.979 93.7472 196.924 81.9409 198.51C75.1722 199.419 84.7029 198.722 86.6013 198.722C114.317 198.722 142.032 198.722 169.747 198.722C182.212 198.722 144.76 200.142 132.57 202.746C129.62 203.377 121.065 204.441 128.757 204.441C135.112 204.441 141.467 204.441 147.822 204.441C151.401 204.441 144.864 205.17 144.009 205.394C141.518 206.048 139.011 206.496 136.595 207.301" stroke="#F1DBB8" stroke-width="9.61365" stroke-linecap="round"/>
<path d="M58.427 299.768C96.4871 299.768 134.547 299.768 172.607 299.768C192.308 299.768 212.009 299.768 231.71 299.768C235.488 299.768 239.265 299.768 243.043 299.768C243.051 299.768 249.768 299.602 246.115 299.98C215.783 303.117 185.787 304.511 155.343 305.699C146.776 306.034 121.335 308.435 129.869 309.248C143.741 310.569 158.232 309.3 172.184 309.3C178.822 309.3 158.9 309.173 152.271 309.512C145.276 309.87 138.509 311.593 131.564 312.107C126.1 312.512 139.278 313.283 139.878 313.325C143.072 313.552 157.582 313.624 159.262 317.403C160.405 319.976 138.473 321.938 135.642 322.646" stroke="#F1DBB8" stroke-width="9.61365" stroke-linecap="round"/>
<path d="M116.87 70.3615C145.705 70.3615 174.539 70.3615 203.373 70.3615C205.528 70.3615 207.683 70.3615 209.838 70.3615C211.023 70.3615 211.087 70.3715 209.696 70.3615C183.349 70.1719 157.074 66.6438 130.839 64.5569C105.039 62.5046 79.2568 60.8993 53.3742 60.6164C52.1043 60.6025 39.6584 59.633 39.146 60.8288C39.0067 61.1537 39.7868 61.1582 40.137 61.2063C41.6782 61.4178 43.5921 61.4037 45.0449 61.4187C58.0809 61.553 71.1314 61.5012 84.1667 61.3715C122.641 60.9886 161.201 59.9361 199.644 58.304C205.072 58.0736 211.188 58.6078 216.492 57.5253C218.266 57.1632 212.962 56.6624 211.159 56.4871C199.219 55.3263 187.238 54.8966 175.246 54.741C150.687 54.4224 77.0192 56.3456 101.58 56.3456C126.863 56.3456 152.158 54.334 177.394 53.0186C195.137 52.0937 213.023 51.6005 230.626 48.9601C231.213 48.872 232.173 48.766 230.98 48.7241C228.818 48.6483 226.654 48.6921 224.491 48.6533C213.616 48.4583 202.744 47.9392 191.881 47.4028C173.924 46.516 155.994 45.2991 138.295 41.9993C137.898 41.9252 131.589 41.2315 134.803 40.9611C139.744 40.5456 144.91 40.3093 149.621 38.6015C151.26 38.0077 149.479 37.5728 148.607 37.3746C141.646 35.7926 134.342 35.3999 127.253 34.7554C122.666 34.3384 118.071 33.9192 113.473 33.6464C111.41 33.524 110.262 33.4781 108.234 33.4341C107.393 33.4158 105.115 32.8625 105.71 33.4577C106.338 34.086 114.293 34.7273 114.322 34.7318C126.894 36.7235 139.443 38.7508 152.075 40.3476C161.623 41.5545 171.23 42.2912 180.768 43.5566C182.327 43.7635 187.443 44.5412 189.168 44.9252C189.773 45.0598 190.459 45.0984 190.938 45.4915C191.114 45.6366 190.706 45.9365 190.489 46.0106C184.112 48.1958 176.444 48.2948 169.819 49.0309C160.277 50.0911 150.761 51.21 141.269 52.6646C136.241 53.435 131.256 54.361 126.262 55.3073C125.448 55.4615 122.042 55.5436 121.401 56.3456C120.378 57.6245 124.688 56.3438 126.309 56.1096C135.718 54.7505 144.997 52.4918 154.293 50.541C160.83 49.1694 167.391 47.9038 173.901 46.4117C175.474 46.0514 181.725 44.9884 175.695 44.9016C160.416 44.6818 144.995 44.5256 129.754 45.7511C124.987 46.1343 110.949 48.3034 115.714 48.7005C134.547 50.27 153.939 49.0958 172.792 48.6061C185.705 48.2707 224.45 47.5242 211.537 47.8511C190.893 48.3737 170.325 50.1885 149.763 52.0039C143.505 52.5565 137.18 53.3725 130.886 53.3725" stroke="#F6E1C1" stroke-width="9.61365" stroke-linecap="round"/>
<path d="M88.8387 176.542C127.245 176.542 165.651 176.542 204.057 176.542C207.604 176.542 211.151 176.542 214.699 176.542C221.95 176.542 200.194 176.562 192.943 176.447C171.224 176.104 149.577 174.832 127.96 172.696C110.886 171.009 93.9446 168.933 76.8048 168.047C69.6413 167.677 62.3971 167 55.2147 167.221C53.5347 167.273 50.4275 167.623 54.6012 167.623C70.6391 167.623 86.5962 165.684 102.571 164.508C133.151 162.257 163.757 161.883 194.406 162.196C204.417 162.298 214.434 162.903 224.444 162.903C225.966 162.903 228.517 163.129 229.989 162.432C231.328 161.797 227.234 161.239 225.765 161.039C212.354 159.214 198.512 159.483 185.015 159.647C166.062 159.878 147.423 161.831 128.621 164.036C119.949 165.053 111.244 166.559 102.524 167.104C101.315 167.179 98.7699 168.285 98.8905 167.08C98.9113 166.872 99.2162 166.806 99.4096 166.726C101.075 166.033 105.336 164.735 106.488 164.414C138.329 155.546 172.355 150.634 205.449 150.634C206.564 150.634 214.996 150.84 208.611 150.351C191.862 149.066 174.847 148.898 158.069 149.643C149.319 150.031 140.671 151.558 132.066 153.111C131.917 153.138 124.704 154.809 125.011 155.117C125.876 155.982 130.107 156.174 130.745 156.249C137.689 157.071 144.677 157.562 151.651 158.043C165.653 159.007 179.803 159.308 193.722 161.228C194.885 161.389 196.711 161.643 197.946 162.054C199.04 162.419 195.699 162.646 194.548 162.715C179.879 163.593 165.197 164.181 150.565 165.593C140.643 166.551 130.616 167.513 120.882 169.746C120.215 169.899 111.664 171.875 116.21 172.295C127.898 173.373 139.916 172.747 151.627 172.696C167.16 172.628 182.676 172.089 198.205 171.893C200.322 171.867 206.457 172.605 204.552 171.681C201.888 170.389 194.534 171.098 192.188 171.068C177.324 170.877 162.433 170.891 147.569 171.044C143.304 171.088 138.973 171.146 134.756 171.87C134.426 171.926 133.502 172.256 133.836 172.271C137.617 172.439 141.509 172.288 145.28 172.2C162.018 171.812 178.625 170.192 195.256 168.354C201.514 167.662 207.78 167.04 214.038 166.348C215.988 166.133 221.441 166.343 219.819 165.239C218.339 164.233 216.328 164.431 214.557 164.178C207.499 163.169 200.384 162.583 193.274 162.101C175.723 160.911 158.189 160.827 140.608 160.827C134.583 160.827 128.558 160.827 122.533 160.827C121.917 160.827 120.831 161.008 122.439 160.662C127.638 159.542 132.81 158.305 138.012 157.193C157.349 153.059 176.722 148.959 196.199 145.537C202.173 144.488 208.161 143.531 214.132 142.47C216.539 142.042 220.749 141.997 222.957 140.723C223.84 140.214 220.955 140.297 219.937 140.252C212.791 139.931 205.614 140.023 198.465 140.016C172.912 139.988 147.267 139.462 121.731 140.535C116.119 140.77 110.495 141.328 104.907 141.903C104.3 141.966 102.48 142.125 103.091 142.139C105.693 142.198 108.326 142.139 110.924 142.092C137.991 141.604 164.884 137.892 191.976 137.892C198.826 137.892 178.274 137.856 171.424 137.892C155.305 137.978 139.328 139.02 123.288 140.535C117.553 141.076 111.612 141.507 106.016 142.989C104.202 143.469 101.313 144.827 105.285 144.782C111.582 144.711 117.894 142.76 123.76 140.629C126.431 139.659 129.115 138.585 131.665 137.326C132.698 136.816 134.841 135.842 132.302 135.438C122.986 133.954 112.865 134.869 103.468 134.919C99.3051 134.941 93.5858 134.422 89.5465 135.768C88.9041 135.982 90.8993 135.705 91.5758 135.674C95.4142 135.498 99.2529 135.325 103.091 135.131C108.425 134.862 113.745 134.494 119.088 134.494C121.152 134.494 118.046 134.955 118.003 134.966C114.213 135.924 110.465 137.031 106.701 138.081C100.108 139.92 93.4663 141.545 86.8094 143.13C83.1371 144.005 86.8329 144.161 88.6027 144.263C100.499 144.948 112.463 144.688 124.374 144.688C128.521 144.688 140.712 144.203 136.785 145.537C132.557 146.974 127.654 147.085 123.241 147.661" stroke="#F6E1C1" stroke-width="9.61365" stroke-linecap="round"/>
<path d="M68.8615 270.274C110.077 276.027 151.293 281.779 192.508 287.531C196.38 288.071 207.994 289.692 204.123 289.152C197.169 288.181 190.081 288.431 183.068 288.429C153.488 288.423 123.908 289.08 94.3451 288.431C88.9613 288.313 83.6979 287.831 78.3794 287.089C73.9292 286.468 80.1118 286.453 81.3011 286.298C114.996 281.896 149.246 280.522 182.926 283.639C185.109 283.841 191.376 285.219 189.494 284.034C187.902 283.031 184.709 282.63 183.119 282.258C175.831 280.551 168.501 279.09 161.127 277.833C140.098 274.248 118.91 271.476 97.5556 270.89C94.9179 270.817 96.1693 271.261 98.2249 271.557C121.626 274.923 145.058 278.093 168.473 281.361C182.012 283.25 195.55 285.14 209.089 287.029C210.086 287.168 211.083 287.308 212.08 287.447C212.267 287.473 212.828 287.551 212.641 287.525C212.096 287.449 211.55 287.375 211.005 287.297C203.981 286.287 196.963 285.243 189.979 283.971C158.322 278.205 127.135 270.429 95.2392 265.978C89.5661 265.186 96.3523 265.742 98.0824 265.749C123.053 265.852 148.048 264.616 173.025 264.111C185.912 263.85 198.828 263.992 211.714 263.097C213.305 262.987 216.217 262.787 212.076 262.209C205.359 261.272 198.511 260.982 191.732 260.83C165.792 260.247 139.687 261.223 113.725 262.405C113.323 262.423 112.173 262.639 112.556 262.763C116.286 263.978 121.282 263.868 125.009 264.006C143.238 264.683 161.632 263.42 179.856 261.936C182.154 261.749 186.82 261.325 189.239 261.108C190.454 260.999 191.672 260.949 192.882 260.782C195.124 260.472 193.957 260.23 192.288 259.917C177.617 257.162 162.619 255.97 147.787 254.436C128.386 252.43 109.077 248.756 89.5771 247.824" stroke="#F6E1C1" stroke-width="9.61365" stroke-linecap="round"/>
</svg>
