<svg width="212" height="120" viewBox="0 0 212 120" fill="none" xmlns="http://www.w3.org/2000/svg">
<g style="mix-blend-mode:luminosity">
<path d="M39.145 28.152C38.3535 24.1164 36.8359 36.0406 35.8188 40.0233C34.5537 44.977 33.9723 50.3784 33.8622 55.4859C33.5788 68.6378 31.592 82.283 27.5034 94.7909C25.5104 100.888 28.5615 83.6184 28.6773 83.2188C33.3964 66.946 38.6836 50.8086 44.819 35.0353C47.607 27.8676 50.4109 20.8019 52.1561 13.2879C53.4596 7.67577 46.4074 17.6712 46.0418 18.1761C30.6873 39.379 22.2169 67.909 14.9814 92.9952C14.719 93.9049 11.1323 103.452 12.4379 99.5793C16.2662 88.2226 20.6631 77.0751 24.862 65.8608C25.7716 63.4315 36.581 26.7863 36.3079 26.7553C35.3685 26.6489 32.9314 28.8281 32.297 29.2493C26.0006 33.4302 23.4276 41.899 21.5848 48.8519C19.0928 58.2543 16.5387 68.1491 15.4216 77.8319C14.9516 81.9054 14.5351 86.2089 13.1716 90.1022C11.9509 93.5876 9.91473 97.5943 9.25843 101.275C8.5838 105.059 9.89616 99.7427 10.2367 98.8311C13.2359 90.8029 16.8155 83.0365 19.775 74.9887C21.2388 71.0081 23.5837 66.6051 20.1663 73.2429C16.4543 80.453 14.1773 88.9926 12.2422 96.8858C11.9251 98.1793 9.31971 109.725 11.8509 109.854C15.444 110.038 19.3425 110.122 22.9055 109.655C25.6004 109.302 31.8444 108.059 25.4979 108.059C22.485 108.059 19.3838 107.642 16.7423 109.356C15.2969 110.294 15.1798 110.752 17.1825 110.752C20.864 110.752 24.456 109.989 27.8947 109.854C31.7332 109.704 36.1849 108.949 39.145 111.65C41.6124 113.901 45.7706 113.446 48.83 113.446C55.4334 113.446 62.0368 113.446 68.6402 113.446C82.3821 113.446 96.2021 114.766 110.022 112.598C118.319 111.296 125.027 106.263 133.745 106.263C141.565 106.263 148.465 109.08 156.05 110.553C168.45 112.961 181.548 112.548 194.301 112.548C200.08 112.548 205.551 112.81 205.551 105.365C205.551 102.128 205.153 99.7075 202.909 97.2848C200.65 94.845 200.311 88.8553 198.898 85.5632C194.132 74.4538 183.625 67.0278 180.213 55.2864C179.612 53.2162 179.429 48.6922 180.898 47.0064C183.215 44.3482 182.233 40.31 183.099 37.1302C184.746 31.0859 186.181 25.9019 186.181 19.6226C186.181 13.7938 186.181 25.4955 186.181 27.2042C186.181 30.0774 187.749 34.545 188.626 37.3298C190.011 41.7213 191.135 46.0787 192.148 50.5977C192.246 51.0339 192.344 54.5181 192.344 53.2912C192.344 50.1321 192.344 46.9731 192.344 43.8141C192.344 34.0857 188.768 20.9145 181.779 13.7867C180.267 12.245 174.129 11.8537 172.094 11.2927C167.539 10.0375 162.884 9.46215 158.202 9.29753C147.61 8.92508 136.967 8.3997 126.261 8.3997C116.658 8.3997 107.054 8.3997 97.4506 8.3997C93.9323 8.3997 90.7334 8.31728 87.3743 7.30235C82.2811 5.76347 77.0419 6.92445 71.8685 7.45199C64.7585 8.17702 57.2992 7.50187 50.1506 7.50187C47.2034 7.50187 44.6195 9.29753 41.7863 9.29753C37.2429 9.29753 38.1686 15.5782 36.5036 19.1737C32.039 28.8147 29.0841 39.5707 26.1338 49.7996C22.8635 61.1381 25.0577 75.1818 25.0577 86.9099C25.0577 89.582 24.0805 95.1022 26.3784 97.1851C27.7535 98.4315 29.7173 98.1805 31.2698 99.1304C34.5654 101.147 40.8899 104.435 42.6668 108.059" stroke="#B57EBC" stroke-width="12.0912" stroke-linecap="round"/>
</g>
<path d="M30.7341 12.6899C32.6787 6.33777 38.543 2 45.1862 2H171.176C178.066 2 184.084 6.66027 185.809 13.3313L206.711 94.1914C209.185 103.759 201.961 113.088 192.078 113.088H20.4331C10.2734 113.088 3.00716 103.265 5.98106 93.55L30.7341 12.6899Z" fill="#FFF9EF"/>
<path d="M89.8307 52.7809C89.8307 54.1184 89.8307 55.456 89.8307 56.7935C89.8307 57.6829 89.9109 58.5038 90.2499 59.3421C90.5883 60.1789 91.0651 60.937 91.5907 61.6677C92.404 62.7984 93.2928 63.8441 94.4654 64.6156C96.9709 66.2639 99.5855 67.0344 102.594 67.0344C103.923 67.0344 105.259 66.8795 106.583 66.7649C106.943 66.7338 107.294 66.6788 107.651 66.6285C107.704 66.621 107.999 66.595 107.794 66.522C105.973 65.8758 104.114 65.2672 102.274 64.6721C100.286 64.0293 98.1737 63.6383 96.2853 62.7158C95.132 62.1523 94.1155 61.2728 93.1977 60.3868C92.2504 59.4723 91.5886 58.4533 91.1615 57.2127C90.8224 56.2275 90.7291 55.189 90.4296 54.195C90.2054 53.4512 89.9233 52.6735 89.834 51.8992C89.7909 51.526 89.78 51.2589 89.7109 51.8161C89.4429 53.9766 89.8575 56.1327 90.5826 58.1642C91.354 60.3256 92.3858 62.4387 93.7833 64.2662C94.5908 65.3222 95.5645 66.1237 96.6313 66.9013C97.4797 67.5197 98.2804 68.1548 99.2731 68.5283C100.646 69.0447 102.254 69.1933 103.708 69.0174C104.484 68.9236 105.2 68.6531 105.917 68.3586C106.797 67.9978 107.679 67.6396 108.543 67.2407C109.821 66.6496 111.057 65.9776 112.116 65.0381C112.191 64.9711 112.395 64.8329 112.429 64.7254C112.436 64.7006 112.381 64.6988 112.355 64.6988C112.068 64.6988 111.772 64.7381 111.487 64.7653C109.196 64.9835 106.905 65.2069 104.613 65.4174C103.025 65.5633 101.128 65.9223 99.6657 65.0914C98.1531 64.2318 97.0405 62.5855 95.9892 61.2385C95.0249 60.003 94.0744 58.727 93.424 57.2925C92.8554 56.0385 92.4001 54.7406 91.8669 53.473C91.7983 53.3099 91.7206 52.8408 91.4776 52.8408C91.0718 52.8408 91.3292 54.2912 91.3545 54.4412C91.5332 55.4995 91.9581 56.4982 92.3859 57.4755C92.9296 58.7176 93.5066 59.9576 94.2757 61.0788C95.3866 62.6982 96.7321 64.1337 98.2483 65.3775C99.6829 66.5543 101.246 67.5464 103.053 68.0326C103.955 68.2754 104.91 68.4375 105.848 68.3786C106.864 68.3147 107.765 67.9167 108.649 67.4403C109.808 66.8159 110.894 66.0387 112.093 65.4906C112.577 65.2694 113.131 65.2975 113.596 65.088C113.962 64.9237 114.343 64.8397 114.724 64.6988C115.278 64.494 114.549 64.6368 114.342 64.6755C111.883 65.1335 109.42 64.9206 107.009 64.3095C103.119 63.3239 99.8542 61.0022 96.2121 59.4252C95.3182 59.0382 94.3655 58.5167 93.7833 57.7118C92.9834 56.6059 92.4755 55.3356 91.8669 54.1251C91.5635 53.5217 91.192 52.9972 90.7623 52.4815C90.4168 52.0669 90.1979 51.6686 90.1002 51.1406C90.0873 51.071 90.1064 50.8103 90.0103 50.8046C89.8165 50.7932 89.6188 50.8046 89.4248 50.8046C88.8293 50.8046 89.4225 50.7209 89.5911 50.4586C89.7306 50.2417 89.6697 49.7839 89.6144 49.5503C89.4503 48.8573 88.6277 48.377 88.0739 48.0298C87.4599 47.6447 86.8824 47.4844 86.2041 47.2645C84.1717 46.6056 82.3419 45.3996 80.5014 44.3433C80.0245 44.0696 79.5552 43.8119 79.0274 43.6512C78.3752 43.4528 80.2915 44.1625 80.9172 44.4331C83.9892 45.7616 86.9701 47.247 89.8639 48.9281C90.8414 49.4959 91.8093 50.0794 92.8983 50.4087C93.0774 50.4628 93.3778 50.5052 93.0247 50.5052C91.7419 50.5052 90.5113 49.9737 89.3516 49.4737C88.4055 49.0659 87.4743 48.6244 86.5568 48.1562C86.1723 47.96 85.7519 47.6669 85.329 47.5573C85.1387 47.508 85.3756 47.9582 85.4721 48.1296C86.0381 49.1348 86.6831 50.0981 87.3653 51.0275C89.004 53.2601 90.9108 55.2783 92.5456 57.5121C94.1671 59.7277 95.3758 62.1041 96.5382 64.579" stroke="#FDF3E3" stroke-width="3.02281" stroke-linecap="round"/>
<path d="M32.6934 19.3773C88.6807 48.2745 106.751 54.1089 108.788 53.414C132.575 41.7789 180.317 17.909 180.993 15.51" stroke="#8E6352" stroke-width="1.5114"/>
<path d="M126.663 51.6304C126.663 53.4132 126.501 55.081 125.762 56.7248C125.553 57.1897 125.389 57.739 125.096 58.1559C125.006 58.2837 124.722 58.6577 124.978 58.2914C125.784 57.1405 126.319 55.1641 126.345 53.7506C126.365 52.6367 126.173 51.8373 125.815 50.7823C125.626 50.2255 125.509 49.6959 125.385 49.1392C124.857 46.7623 125.47 54.1435 124.543 56.395C123.77 58.2711 122.939 60.0127 121.892 61.7661C121.38 62.6251 120.834 63.3546 120.196 64.116C119.777 64.6173 120.017 64.4549 120.573 64.1513C122.113 63.3102 123.323 62.1487 124.454 60.8238C125.462 59.644 126.534 58.3569 127.087 56.8838C128.074 54.2518 128.173 50.7332 127.464 47.9966C127.391 47.7167 127.476 47.4243 127.617 47.8612C128.204 49.6884 128.041 51.8857 128.041 53.7683C128.041 56.1633 128.077 58.6598 127.252 60.9475C127.069 61.4533 126.842 61.9365 126.622 62.4257C126.485 62.7303 126.686 62.5219 126.804 62.3845C128.241 60.7082 129.397 58.5415 130.249 56.5127C130.524 55.8595 130.75 55.1843 130.986 54.5162C131.046 54.3445 131.066 54.8862 131.068 54.899C131.265 56.1631 131.429 57.4883 131.304 58.7684C131.238 59.4418 130.903 59.9327 130.903 60.6412" stroke="#EBE0FF" stroke-width="3.02281" stroke-linecap="round"/>
<path d="M82.0708 46.7134C78.9532 46.0428 76.0722 44.3553 73.1914 43.0682C65.9164 39.818 58.5846 36.6968 51.2529 33.5773C49.3806 32.7807 47.065 31.706 45.0411 30.9529C44.6167 30.795 43.2785 30.5918 43.7314 30.5918C44.1161 30.5918 44.3839 30.8305 44.7041 31.0155C48.0264 32.9363 51.6093 34.435 55.0088 36.2161C56.8509 37.1812 58.7602 38.1569 60.3875 39.4712C60.4397 39.5133 60.5738 39.5776 60.5223 39.6205C60.3178 39.7909 60.0184 39.4463 59.7759 39.3364C58.4652 38.7423 57.1638 38.1326 55.837 37.574C55.2892 37.3433 54.7376 37.1218 54.1902 36.8902C53.7701 36.7125 54.5398 37.3937 54.5417 37.3958C55.1423 38.0352 56.1915 38.9727 56.4149 39.8661" stroke="#EBE0FF" stroke-width="3.02281" stroke-linecap="round"/>
<path d="M106.632 48.804C105.295 48.804 103.191 48.4987 102.148 49.2674C100.814 50.2514 100.527 52.3047 100.767 53.6263C101.138 55.6729 104.208 57.3575 106.746 57.6935C109.216 58.0207 112.587 58.2801 114.355 56.6295C116.346 54.7703 117.4 52.252 116.212 49.8852C115.055 47.5817 112.801 45.524 109.531 44.9428C105.967 44.3094 102.889 44.633 100.767 47.1737C99.2581 48.9798 98.3999 51.5324 98.706 53.6778C99.0053 55.7758 101.282 57.1019 103.768 57.6849C106.016 58.2122 108.998 58.9384 111.207 57.8994C115.662 55.8038 115.194 50.5887 112.951 47.6028C111.543 45.7288 108.303 44.9622 105.613 44.9428C104.264 44.9331 102.706 44.7945 101.469 45.286C100.109 45.8264 99.1253 46.7212 98.2304 47.6371C94.886 51.0601 95.3062 56.6567 100.235 59.2294C105.724 62.095 113.014 61.2975 117.231 57.376C120.374 54.4526 119.863 49.3244 117.231 46.3328C115.86 44.7743 113.536 43.5649 111.105 43.1752C108.488 42.7557 104.896 42.5401 102.443 43.3983C100.077 44.2258 98.0298 45.8444 96.7584 47.5684C95.5124 49.258 95.2184 50.6225 95.2184 52.5108C95.2184 54.2791 95.7684 55.7077 97.4605 56.9899C98.7859 57.9943 100.269 58.9117 102.148 59.1865C103.913 59.4445 105.839 59.8355 107.651 59.5812C109.586 59.3097 110.188 57.4509 110.086 56.2177C109.959 54.6753 107.916 54.0554 106.157 54.0554C105.451 54.0554 104.984 54.8961 105.636 55.2137C107.402 56.074 108.118 53.8641 108.24 52.9141C108.291 52.5193 108.492 51.693 107.765 51.5927C107.086 51.4993 107.702 50.823 107.855 50.503" stroke="#AA3100" stroke-width="9.06842" stroke-linecap="round"/>
<path d="M116.898 53.9571C116.863 54.2412 112.136 54.1081 111.552 54.1672C110.16 54.3082 108.747 54.3117 107.348 54.3117C106.216 54.3117 105.417 54.3275 104.55 53.5433C104.133 53.1654 103.642 52.8697 103.368 52.361C103.07 51.8078 103.121 51.1086 102.895 50.5285C102.813 50.3179 102.83 49.8192 102.534 49.8192C102.245 49.8192 102.074 50.6322 102.028 50.8569C101.673 52.5912 103.431 54.0458 104.274 55.402C105.915 58.0388 109.754 58.5678 112.59 58.5678C114.033 58.5678 115.154 58.4901 116.36 57.622C117.037 57.1345 117.845 56.4619 118.251 55.7239C118.623 55.048 118.84 54.0678 118.901 53.3003C118.971 52.4305 119.144 51.5439 119.144 50.673C119.144 49.8292 119.116 49.3221 118.645 48.5844C118.102 47.7324 117.262 47.0668 116.425 46.5089C114.646 45.3227 112.477 44.0435 110.284 43.9145C107.911 43.7749 105.726 44.344 103.664 45.504C102.429 46.1982 101.158 46.7368 100.347 47.9539C100.096 48.3292 99.9943 48.7778 99.8475 49.2018C99.6904 49.6559 99.4242 49.2574 99.309 49.3726C99.1788 49.5027 99.2626 50.2743 99.309 50.4366C99.5012 51.1096 99.8259 51.6847 100.169 52.2954C100.744 53.3171 101.489 54.3744 102.357 55.1459C103.311 55.9945 104.856 56.1468 106.081 56.1968C107.678 56.262 108.91 55.3067 110.067 54.3117C111.188 53.3485 112.005 52.3194 112.143 50.8044C112.256 49.5609 112.288 48.1114 111.263 47.2182C109.85 45.9875 107.99 45.384 106.133 45.5697C103.679 45.8151 98.4169 47.3278 99.5191 50.6993C99.8563 51.7306 100.332 52.2832 101.174 52.985C101.921 53.6072 102.656 53.7156 103.565 53.9571C104.713 54.262 105.943 54.3406 107.125 54.3117C108.666 54.2741 109.622 52.6318 109.68 51.2313C109.764 49.2134 109.75 47.1437 109.443 45.1493C109.288 44.1402 108.482 43.9541 107.558 43.908C106.823 43.8712 106.075 43.908 105.338 43.908C104.288 43.908 103.579 44.3242 102.593 44.6764C101.912 44.9197 101.445 45.3064 100.879 45.747C100.414 46.1086 98.9979 46.6727 98.928 47.3365C98.8126 48.4333 98.7544 49.4366 99.02 50.5285C99.393 52.0623 100.547 53.8183 101.943 54.6073C103.397 55.4293 104.494 55.7304 106.153 55.7304C107.125 55.7304 108.132 55.8047 109.102 55.7239C110.921 55.5723 111.539 53.5303 112.287 52.1837" stroke="#9E2E00" stroke-width="9.06842" stroke-linecap="round"/>
<path d="M93.0425 55.7188C92.5608 56.4414 94.3918 57.3814 94.861 57.7388C95.3769 58.1319 95.8538 58.5419 96.348 58.9616C97.1968 59.6823 98.035 60.3459 98.9369 61.004C100.194 61.9212 101.626 62.7191 103.201 62.8941C104.942 63.0876 106.533 63.7003 108.307 63.7003C109.118 63.7003 109.928 63.7003 110.739 63.7003C111.565 63.7003 112.344 63.3372 113.158 63.2166C113.798 63.1218 114.45 62.75 115.034 62.491C115.9 62.1073 116.678 61.6055 117.498 61.1384C118.81 60.3907 120.167 59.1851 120.852 57.815C121.084 57.351 121.157 56.8582 121.341 56.3817C121.517 55.9247 121.824 55.4105 121.824 54.9126" stroke="#D53D00" stroke-width="3.02281" stroke-linecap="round"/>
<path d="M96.6932 42.9551C96.6764 43.0222 96.5054 43.0638 96.4519 43.1039C96.1605 43.3225 95.9543 43.6564 95.7128 43.9252C95.1696 44.5298 94.6808 45.2247 94.2807 45.9322C93.8117 46.7616 93.3061 47.5779 92.9051 48.4422C92.6211 49.0541 92.3443 49.6696 92.3045 50.3466" stroke="#D53D00" stroke-width="3.02281" stroke-linecap="round"/>
<path d="M116.497 58.355C117.226 58.2639 117.518 56.3807 117.642 55.9036C117.898 54.9191 118.182 53.9686 118.339 52.9606C118.454 52.221 118.602 52.1301 118.445 52.9544C118.104 54.7328 117.185 56.3694 116.174 57.8448C115.877 58.2781 115.563 58.6865 115.228 59.0892C115.198 59.1247 114.982 59.363 115.004 59.363C115.358 59.363 115.856 58.9223 116.093 58.747C117.297 57.8566 118.425 56.7814 119.397 55.6423C120.66 54.161 121.472 52.4445 121.935 50.5651C122.013 50.2494 122.072 49.7749 121.748 50.2602C120.947 51.4631 120.193 52.7306 119.26 53.8379C117.854 55.5045 115.771 57.1734 113.61 57.6644C113.472 57.6958 110.87 58.1104 110.885 57.9942C110.913 57.7709 111.606 57.3882 111.75 57.2786C112.451 56.7439 113.109 56.1639 113.71 55.5178C114.286 54.8984 114.869 54.2621 115.097 53.4397C115.237 52.936 114.953 53.639 114.68 53.8752C113.665 54.7547 112.356 55.2853 111.121 55.7791" stroke="#98CFC4" stroke-width="3.02281" stroke-linecap="round"/>
<path d="M197.57 105.946C197.57 107.113 197.59 103.552 198.043 102.476C198.832 100.601 198.474 98.4113 199.147 96.5179C199.272 96.1656 199.384 95.1775 199.655 94.9407C199.787 94.8254 199.778 95.5383 199.778 95.5715C199.778 96.3585 199.814 97.1555 199.708 97.9373C199.403 100.174 198.436 102.478 197.219 104.369C196.936 104.808 195.131 106.623 196.562 105.376C197.903 104.208 199.072 102.819 199.848 101.206C200.7 99.4323 200.443 97.3194 200.952 95.4314C201.056 95.044 201.162 95.1248 201.188 95.5015C201.255 96.4677 201.216 97.4698 201.188 98.4367C201.114 100.988 199.373 104.083 197.289 105.595C197.245 105.628 196.385 106.209 196.413 106.226C196.75 106.429 197.894 105.26 198.078 105.087C199.712 103.554 200.594 101.47 201.513 99.4794C201.655 99.1717 201.727 98.9917 201.635 99.4794C201.486 100.271 201.128 100.997 200.671 101.652C199.658 103.108 196.245 107.196 197.368 105.823C198.911 103.938 199.986 101.433 200.864 99.1815C201.17 98.3987 201.288 97.3159 201.74 96.6055C201.854 96.4262 201.787 96.8086 201.916 96.772C202.342 96.6501 202.284 95.3036 202.292 95.0283C202.332 93.6854 202.172 92.4354 201.837 91.1379C201.641 90.3793 201.599 89.6106 201.434 88.851C201.367 88.5429 201.355 88.3953 201.355 88.7985C201.355 91.099 201.386 93.3337 201.907 95.5891C201.935 95.7127 202.146 96.4268 202.135 96.3514C201.949 95.1458 201.592 93.9662 201.364 92.7677C201.078 91.2684 200.847 89.7519 200.654 88.2377C200.649 88.1986 200.56 87.0172 200.487 87.0461C200.099 87.2012 200.409 91.1487 200.409 91.4446C200.409 95.0444 200.569 98.7682 199.988 102.336C199.741 103.851 198.455 108.233 198.516 106.699C198.523 106.529 198.805 105.97 198.726 105.858C198.483 105.513 196.907 106.329 196.676 106.419C195.149 107.016 190.723 109.167 192.19 108.434C192.963 108.048 193.689 107.594 194.433 107.155C194.694 107.001 195.993 106.261 195.843 106.261C192.766 106.261 189.5 106.94 186.564 107.83C185.927 108.023 185.073 108.148 184.514 108.539C184.454 108.581 186.091 108.627 186.231 108.627C188.447 108.627 190.41 108.384 192.47 107.523C192.95 107.322 195.327 106.535 195.502 105.893C195.526 105.804 189.442 105.976 188.772 105.946C188.453 105.931 190.493 104.203 190.665 104.053C192.23 102.694 193.65 101.235 195.029 99.6897C195.774 98.8546 195.251 99.1973 194.678 99.6897C193.175 100.981 191.771 102.401 190.49 103.913C189.939 104.564 188.538 106.65 188.808 105.841C188.958 105.388 189.566 104.702 189.798 104.377C190.726 103.077 191.677 101.793 192.61 100.496C193.977 98.5966 195.452 96.6851 196.606 94.6428C197.356 93.3153 195.582 94.7573 195.327 95.0108C195.022 95.3132 190.411 100.318 191.471 100.671C192.897 101.146 194.83 100.408 195.922 99.4794C196.094 99.3335 195.59 100.265 195.554 100.338C195.204 101.064 194.959 101.836 194.608 102.564C194.315 103.173 194.539 102.929 194.801 102.494C195.764 100.888 196.772 99.2261 197.517 97.508C197.828 96.7914 197.93 96.2319 197.105 96.956C195.744 98.1502 194.459 99.4353 193.18 100.715C192.408 101.486 191.705 102.329 190.937 103.098C190.667 103.368 191.382 102.478 191.594 102.161C192.309 101.091 192.969 99.987 193.6 98.8661C194.433 97.388 195.356 95.8586 195.896 94.2397C196.032 93.8315 196.241 93.436 195.633 93.8367C192.471 95.9223 189.949 99.3039 187.791 102.371C185.071 106.236 193.23 94.6101 195.449 90.437C195.725 89.9186 196.668 88.623 195.432 89.0526C193.083 89.8686 191.036 91.7888 189.211 93.3986C187.331 95.0559 185.581 96.8392 183.953 98.7434C183.697 99.0438 183.261 100.012 183.165 99.6284C183.083 99.303 184.375 97.4849 184.409 97.4291C186.39 94.1849 188.203 90.8501 190.139 87.5805C190.551 86.8863 190.961 86.1911 191.384 85.5039C191.535 85.2579 192.015 84.6192 191.743 84.7153C190.348 85.2076 189.001 86.931 187.94 87.896C187.091 88.6683 186.247 89.4457 185.39 90.2092C185.223 90.3578 184.544 91.1227 184.242 91.173C183.875 91.2342 184.532 90.4817 184.742 90.1741C185.142 89.588 185.599 89.0439 186.021 88.4743C186.07 88.4083 187.087 87.1237 186.643 87.2125C185.519 87.4375 182.026 89.5701 182.35 90.9627C182.528 91.7286 183.076 92.536 183.445 93.2058C184.187 94.5521 184.985 95.8666 185.732 97.2101C186.942 99.3849 188.073 101.589 188.72 104.001C188.76 104.151 189.074 105.916 189.377 105.841C189.517 105.806 189.857 105.472 189.517 105.499C186.731 105.722 183.551 107.047 181.211 108.522C180.847 108.751 179.622 109.404 180.86 108.978C182.186 108.521 183.488 107.931 184.742 107.304C186.632 106.359 183.34 106.734 182.806 106.734C179.673 106.734 176.532 106.759 173.404 106.927C172.454 106.978 171.425 107.077 170.512 107.365C169.959 107.54 169.753 107.681 170.547 107.681C173.623 107.681 176.69 107.435 179.748 107.12C181.377 106.952 183.016 106.636 184.654 106.577C188.449 106.439 177.057 106.558 173.264 106.384C173.145 106.378 171.089 106.24 171.301 106.069C172.061 105.454 173.352 105.042 174.201 104.684C176.011 103.921 177.857 103.279 179.704 102.616C180.831 102.212 181.962 101.811 183.077 101.372C183.308 101.281 184.296 101.02 184.479 100.776C184.753 100.412 183.568 100.739 183.112 100.741C182.109 100.746 181.109 100.775 180.107 100.82C178.893 100.874 177.611 100.784 176.409 100.978C175.59 101.11 177.82 100.312 177.934 100.268C178.164 100.179 180.58 99.4416 180.58 99.1027C180.58 98.8691 176.48 99.0717 176.173 99.0851C175.118 99.1314 173.771 99.3799 172.72 99.1465C172.602 99.1203 174.604 97.8843 174.858 97.7445" stroke="#FDF3E3" stroke-width="3.02281" stroke-linecap="round"/>
<path d="M11.9569 98.8773C12.3575 101.08 16.0793 101.861 17.9114 101.814C18.9055 101.788 16.1783 100.824 15.3964 100.21C14.2625 99.3187 13.2478 98.3233 12.8134 96.9333C12.5279 96.0198 12.7102 97.7199 12.7454 97.8985C13.094 99.6662 15.4377 100.85 16.919 101.515C17.5587 101.802 19.4143 102.715 18.8902 102.249C17.1837 100.732 15.2438 99.7078 14.268 97.4635C13.5386 95.7858 13.4848 93.5787 13.8194 91.7944C13.8516 91.6226 14.6769 89.4186 14.5399 89.3882C13.7575 89.2143 12.9704 91.9686 12.8406 92.4878C12.7849 92.7103 12.6945 94.8575 13.0581 93.888C13.8691 91.7254 14.2437 89.3555 15.0293 87.1586C15.4868 85.8795 17.3498 82.2458 16.7423 83.4609C15.4228 86.0997 14.6905 87.1791 16.3344 89.8776C18.6703 93.712 20.198 97.894 21.8267 102.058C21.9149 102.284 23.478 105.602 22.7783 104.669C21.689 103.216 20.4701 101.919 19.7331 100.237C19.5016 99.7084 19.0124 97.0996 18.5096 98.3063C17.9982 99.5338 17.6304 100.812 17.1229 102.045C16.7545 102.94 17.0966 104.111 17.6667 102.657C18.9401 99.4095 17.6202 94.8288 16.4704 91.7537C15.8672 90.1406 15.0602 88.6289 14.3224 87.0771C14.3047 87.0399 13.4624 85.4181 13.4523 85.4457C13.27 85.947 13.4536 87.0476 13.4795 87.5121C13.5786 89.2854 13.6819 91.1479 14.268 92.8412C15.1445 95.3732 17.299 97.1488 19.7331 98.1024C22.2385 99.0839 24.9601 99.5783 27.6453 99.6114C27.7812 99.6131 28.1891 99.6114 28.0531 99.6114C27.6753 99.6114 26.8812 99.6114 26.5033 99.6114C24.8741 99.6114 23.2364 99.5657 21.6092 99.6658C21.0536 99.7 19.1442 99.5478 18.6999 99.9921C18.2126 100.479 21.9977 101.791 22.3297 101.923C22.7094 102.073 26.1489 103.047 24.4641 103.228C22.6234 103.425 20.7132 103.282 18.8631 103.282C18.8535 103.282 18.2104 103.256 18.7271 103.296C19.9914 103.393 21.2398 103.581 22.4929 103.771C24.3977 104.061 27.5129 103.865 29.2223 104.805C29.459 104.935 28.7401 105.068 28.4746 105.117C27.0757 105.38 25.6387 105.44 24.2194 105.471C22.9646 105.498 21.7087 105.484 20.4536 105.484C20.2852 105.484 18.7741 105.424 20.0322 105.634C25.0806 106.475 30.2907 106.523 35.3943 106.654C37.1661 106.699 38.9376 106.708 40.7099 106.708C41.5541 106.708 42.7983 106.497 43.6327 106.735C44.0276 106.848 42.893 107.115 42.4908 107.197C39.5314 107.807 36.4661 108.027 33.4638 108.312C30.1014 108.631 26.5782 108.634 23.3221 109.644C21.6067 110.177 24.0999 109.88 24.6136 109.862C31.469 109.619 38.2843 108.717 45.0738 107.795C46.9206 107.545 48.7705 107.327 50.6204 107.102C50.6474 107.099 52.6253 106.913 51.1235 106.966C45.0072 107.185 38.9346 108.026 32.8113 108.149C29.4988 108.215 25.8955 108.541 22.588 108.122C20.1091 107.808 26.0177 105.856 26.2586 105.783C28.9035 104.986 31.5725 104.721 34.2523 104.152C35.6809 103.849 31.4177 102.322 31.0032 102.072C29.0217 100.879 26.154 98.6519 25.7148 96.1856C25.5175 95.0773 25.6818 94.4398 26.9248 94.527C30.8042 94.7992 34.5018 96.9664 37.5695 99.2036C38.6366 99.9819 39.6775 100.831 40.6691 101.705C41.5921 102.519 40.1496 101.63 40.0165 101.542C35.1072 98.2824 30.663 93.7512 26.4489 89.6329C26.3659 89.5518 26.1365 89.2942 26.2314 89.361C27.7538 90.4323 29.3051 91.4397 30.9216 92.3654C33.3299 93.7446 35.8381 94.9188 38.3172 96.1584C40.48 97.2398 33.4649 95.8189 31.1255 95.2067C27.4315 94.2401 23.2241 93.4665 20.0458 91.1963C18.8472 90.3401 18.8285 88.7604 19.57 87.5665C19.8315 87.1454 21.5257 84.7716 22.2346 84.9291C22.5785 85.0055 23.4075 90.7499 23.5125 91.1147C24.3065 93.8749 25.0693 97.423 26.8432 99.7882C27.9377 101.247 24.3565 97.1119 23.2406 95.669C19.9477 91.4109 17.8299 86.6739 17.8299 81.2313C17.8299 79.4041 18.3618 78.3364 19.3932 76.9082C19.8378 76.2927 18.3811 78.9803 18.2649 79.2737C17.375 81.5197 16.232 84.0404 15.8994 86.4517C15.8962 86.4747 15.7685 87.3141 15.9266 86.8595C16.4794 85.2702 17.1634 83.7279 17.7619 82.1558C19.5967 77.3354 21.2759 72.3877 22.6696 67.419C22.833 66.8366 23.2163 65.9087 23.1454 65.271C23.0388 64.3117 21.9212 66.7715 21.4189 67.5958C19.0594 71.4668 16.823 75.4251 15.3012 79.7087C14.6619 81.5083 14.2683 83.3602 13.7242 85.1738C12.9118 87.8821 16.4153 80.1993 17.8299 77.751C19.3394 75.1384 20.8605 72.5324 22.3705 69.9205C23.3968 68.1452 22.6233 72.1401 22.5744 72.3947C21.7874 76.4958 21.011 80.4467 21.011 84.6436C21.011 85.0631 21.021 87.5421 21.5548 85.8263C22.3517 83.265 22.8961 80.6254 23.6484 78.0501C24.0617 76.6355 24.1415 76.9392 24.1786 78.4036C24.2732 82.1383 24.1922 85.8833 24.1922 89.6193C24.1922 89.9579 24.1281 92.3848 24.4369 90.7205C24.9291 88.0681 25.2263 85.315 25.5245 82.6316C25.8762 79.4664 25.6788 84.0405 25.7148 84.7931C25.7631 85.8021 25.5863 90.8592 26.9383 91.373C28.6138 92.0097 30.6448 86.8063 31.0032 85.7312C31.2103 85.1098 32.2646 82.7717 31.0712 84.2765C29.3875 86.3995 27.7257 88.5189 25.9867 90.5981C25.6326 91.0215 24.3003 92.2404 24.4641 92.9364C25.1176 95.7138 30.2309 97.6198 32.4034 98.5782C37.5488 100.848 42.919 102.088 48.4589 102.888C48.7939 102.936 52.4963 103.344 50.4029 103.472C46.8146 103.693 43.176 103.527 39.5815 103.527C39.3398 103.527 35.7795 103.627 35.7885 103.649C35.9163 103.969 38.5165 103.771 38.6027 103.771C41.2581 103.771 43.9138 103.781 46.5692 103.758C51.7584 103.712 56.9595 103.434 62.1488 103.527C64.5693 103.57 57.4349 104.709 55.0252 104.941C50.6427 105.361 46.2607 105.774 41.879 106.205C40.1255 106.377 40.7452 106.827 42.2189 106.898C48.8204 107.216 55.4419 106.694 62.0401 107.225C64.1442 107.394 70.3737 108.504 68.2665 108.38C63.1586 108.08 58.0241 107.054 52.9316 106.518C48.6143 106.063 44.2504 105.626 39.9078 105.498C39.0471 105.473 36.4878 105.686 37.3248 105.484C41.3108 104.522 45.4998 103.279 49.2338 101.569C49.9074 101.261 50.7909 100.899 51.341 100.373C52.0484 99.696 49.4176 98.9931 49.2882 98.9453C44.8236 97.2962 40.2729 95.8416 35.775 94.2823C35.3294 94.1278 32.1806 93.0299 32.417 93.0044C39.1509 92.2764 46.0873 92.515 52.85 92.515C54.3907 92.515 55.9315 92.515 57.4722 92.515C57.9707 92.515 58.4692 92.515 58.9676 92.515C59.0855 92.515 58.7319 92.5182 58.6142 92.515C52.1402 92.3384 45.6236 89.7168 39.4455 87.9743C38.1544 87.6101 36.8638 87.2349 35.5574 86.9275C35.0118 86.7991 33.3911 86.6869 33.9261 86.5197C35.099 86.1531 36.6945 86.3973 37.8957 86.3973C39.5316 86.3973 41.1675 86.3973 42.8035 86.3973C43.1524 86.3973 44.1992 86.3973 43.8502 86.3973C42.1368 86.3973 40.4244 86.3943 38.7114 86.3429C35.8555 86.2574 32.7191 86.4495 29.9156 85.7856C27.5074 85.2152 35.3564 82.5081 33.3279 81.2041C32.4845 80.6619 31.4714 80.8955 31.1935 79.7223C30.7077 77.6713 31.044 75.2446 31.044 73.156C31.044 72.5198 30.9367 69.6876 30.908 69.7981C30.2149 72.4716 30.2742 76.034 30.8265 78.7163C30.9023 79.0848 31.797 82.638 31.3702 80.7691C30.3704 76.3905 29.484 71.9936 28.9776 67.5278C28.9451 67.2413 28.5054 63.555 28.2978 63.8028C26.4057 66.0611 25.7263 69.7771 25.171 72.585C24.8127 74.397 24.4369 79.9244 24.4369 78.0773C24.4369 74.5909 24.4366 71.1079 24.5593 67.6229C24.6172 65.9775 24.6729 64.3346 24.6816 62.688C24.684 62.2309 24.9753 60.2858 24.6272 59.8603C24.2567 59.4075 24.2642 60.9748 24.1378 61.5461C23.7659 63.2271 23.8004 64.8683 23.7028 66.5761" stroke="#FDF3E3" stroke-width="3.02281" stroke-linecap="round"/>
<path d="M156 20.1311C155.718 20.7547 157.615 20.1366 158.403 20.0071C161.274 19.5349 164.139 19.0084 167.018 18.5709C167.823 18.4486 170.264 18.2712 169.446 18.2712C167.218 18.2712 165.138 18.3963 162.959 18.8602C155.369 20.4762 147.77 22.7385 140.736 25.6281C133.785 28.4833 154.392 19.5168 161.353 16.68C163.898 15.6429 166.441 14.6032 169.035 13.6525C169.908 13.3324 171.137 13.0692 171.774 12.4229C172.773 11.4098 167.534 12.5504 167.504 12.5572C160.477 14.1308 153.968 16.4768 147.808 19.6765C147.291 19.9446 146.381 20.2712 146.002 20.6994C145.573 21.1853 147.359 20.2542 147.982 19.9451C152.189 17.8588 156.385 15.778 160.631 13.7455C161.721 13.2236 164.262 12.4256 164.914 11.4413C165.16 11.0699 160.71 11.9904 160.444 12.0716C158.307 12.7241 156.261 13.4864 154.282 14.4171C153.175 14.9374 154.296 14.6543 154.991 14.5101C157.12 14.0685 159.125 13.2967 161.03 12.4022C161.493 12.1848 163.905 11.2353 164.018 10.6457C164.052 10.4634 149.702 10.2737 148.057 10.2737C147.834 10.2737 146.02 10.3526 147.334 10.1601C149.75 9.80632 152.202 9.68204 154.618 9.33343C155.184 9.25177 158.375 8.4665 158.066 8.43449C155.449 8.16299 152.592 8.39297 149.961 8.42416C146.536 8.46476 136.319 9.14816 139.74 9.30244C144.031 9.49597 148.681 8.66607 152.912 8.1865C156.479 7.78218 160.024 7.22131 163.544 6.59527C165.125 6.31414 164.105 6.36795 163.071 6.36795C158.116 6.36795 153.161 6.36795 148.206 6.36795C145.666 6.36795 143.126 6.36795 140.586 6.36795C140.059 6.36795 138.398 6.61309 139.927 6.41961C145.597 5.70177 151.282 4.65327 156.921 3.76411C159.768 3.31515 155.831 3.58543 155.004 3.66078C153.709 3.77861 152.384 3.96663 151.119 4.22908C149.997 4.46184 150.227 4.66955 151.343 4.78704C154.658 5.1357 158.033 5.06603 161.366 5.06603C163.539 5.06603 165.729 5.11732 167.877 4.79738C169.009 4.62876 167.423 4.74733 167.23 4.77671C165.907 4.97727 164.559 5.37581 163.32 5.80998C161.293 6.52044 167.786 6.0732 169.919 5.62399C171.711 5.24669 165.897 5.48946 164.466 6.46094C161.617 8.39532 167.727 8.59855 169.035 8.56881C170.179 8.54281 171.146 8.25113 171.537 7.27723C171.918 6.33018 169.875 6.09314 169.172 6.0373C167.831 5.93088 163.794 5.86259 164.889 8.00052C165.791 9.76101 171.296 11.2288 173.181 9.8604C175.48 8.19109 170.837 7.50455 169.707 7.50455C167.049 7.50455 166.992 10.9016 168.823 11.8649C169.868 12.4143 171.732 12.9168 172.982 12.6089C174.357 12.27 173.119 10.8553 172.807 10.2737" stroke="#FDF3E3" stroke-width="3.02281" stroke-linecap="round"/>
</svg>
