<svg width="320" height="369" viewBox="0 0 320 369" fill="none" xmlns="http://www.w3.org/2000/svg">
<path d="M173.5 75.403C195.986 92.2825 240.06 138.275 265 171.165C195.667 175.009 57 180.39 57 171.165C57 159.633 130.592 84.4277 141.835 75.403C150.83 68.1832 169.071 71.0577 173.5 75.403Z" fill="#FFF9EF"/>
<rect x="55" y="160.258" width="210.794" height="137.102" rx="17.1377" fill="#FFF9EF"/>
<path d="M81.8212 272.411C81.8212 270.249 81.8212 268.087 81.8212 265.925C81.8212 261.783 80.3737 268.24 80.2468 269.326C79.7348 273.706 79.8135 278.65 80.1523 283.054C80.8078 291.575 80.5053 265.916 79.5541 257.424C79.1681 253.977 78.4185 250.612 77.8853 247.19C77.8417 246.91 77.4717 240.09 77.1611 243.506C76.1855 254.237 76.1535 264.921 76.1535 275.686C76.1535 277.172 76.4514 285.061 76.6888 279.244C77.0517 270.353 76.2792 261.372 74.2328 252.732C73.1693 248.242 72.4649 252.6 72.1861 255.094C71.3364 262.694 71.0526 270.25 71.0526 277.89C71.0526 282.424 71.0526 268.822 71.0526 264.288C71.0526 261.081 70.9813 257.877 71.336 254.684C71.474 253.442 72.3774 250.053 71.4934 250.937C68.6796 253.751 68.9067 261.807 68.5021 265.358C68.0093 269.685 67.652 282.748 67.652 278.394C67.652 272.351 67.9645 266.223 67.526 260.194C67.3613 257.929 67.6362 251.189 67.0852 253.393C64.2556 264.712 65.3849 277.035 65.3849 288.596C65.3849 291.631 65.3611 283.594 65.3534 283.306C65.1413 275.35 63.6846 267.497 63.6846 259.533C63.6846 259.172 63.725 254.495 63.6846 256.353C63.5404 262.99 62.6084 269.605 62.5511 276.253C62.5332 278.331 62.2887 284.545 62.5826 282.487C62.8458 280.645 64.0977 279.014 64.7867 277.292C65.2895 276.035 64.7698 280.001 64.8182 281.354C64.887 283.281 67.0908 283.18 68.5021 283.18C69.9258 283.18 72.4199 283.691 73.1937 282.046C73.6051 281.172 70.9291 281.433 70.4858 281.48C69.4246 281.591 68.5065 283.625 68.8485 284.565C69.3096 285.833 73.9419 286.256 74.9885 285.667C79.2603 283.265 71.2932 281.239 69.3523 283.18C66.4457 286.087 74.2097 288.007 75.1459 285.573C76.8664 281.1 70.1432 281.677 67.9354 283.148C65.0472 285.074 70.8604 287.401 72.7529 286.455C73.4778 286.092 73.6434 284.225 72.9733 283.778C71.605 282.866 69.5137 283.18 67.9669 283.18C66.7574 283.18 66.4454 285.068 66.0776 286.014C65.4804 287.55 68.9886 287.147 69.6357 287.147C73.9851 287.147 74.7646 281.614 69.9191 281.48C68.1144 281.43 66.7201 281.278 65.3849 282.613C65.0656 282.933 62.6276 285.67 64.031 285.982C65.5023 286.309 68.0101 286.028 69.1004 284.88C69.844 284.098 70.5162 281.455 69.1004 281.039C66.9381 280.403 62.9436 279.326 64.3773 283.054C65.9846 287.233 73.7198 285.358 76.0905 283.495C78.3293 281.736 73.3197 280.155 73.3197 282.613C73.3197 286.56 89.3617 286.334 92.2434 285.447C99.7965 283.123 60.7173 283.141 68.5966 283.747C78.5569 284.513 88.9324 285.304 98.4148 281.511C101.718 280.19 91.2986 281.445 87.7407 281.48C87.5168 281.482 80.8879 282.352 83.7734 283.054C87.4243 283.942 92.0668 283.18 95.8014 283.18C100.733 283.18 94.0114 283.18 92.7472 283.18C87.2369 283.18 81.7267 283.18 76.2165 283.18C73.0693 283.18 73.0758 283.613 76.248 284.03C81.9931 284.786 87.9981 284.313 93.7862 284.313C94.5273 284.313 100.328 285.037 100.965 284.188C101.366 283.654 99.68 283.763 99.0131 283.747C95.7734 283.666 92.5535 283.313 89.3151 283.211C85.1239 283.08 80.1035 282.459 75.9646 283.211C68.0121 284.657 92.1029 284.212 100.147 285.006C103.934 285.38 105.243 285.624 100.304 286.297C92.938 287.302 85.4436 287.406 78.0427 288.155C72.837 288.681 79.0515 288.848 80.8451 288.848C88.4929 288.848 96.1186 289.414 103.768 289.414C108.573 289.414 100.337 289.845 99.265 289.729C91.0919 288.848 83.0797 287.351 74.831 287.147C72.2621 287.084 69.2498 285.766 66.8333 287.147C64.3001 288.595 71.4867 288.848 71.6194 288.848C74.6001 288.848 77.5809 288.848 80.5617 288.848C86.8381 288.848 93.1145 288.848 99.3909 288.848C101.847 288.848 104.303 288.848 106.759 288.848C109.879 288.848 100.531 289.282 97.4387 289.698C92.9873 290.296 88.3662 291.681 83.8678 291.681C81.8631 291.681 79.8585 291.681 77.8538 291.681C76.6634 291.681 69.2143 291.888 71.3675 292.28C83.5368 294.492 96.6244 294.728 109.026 295.082C115.421 295.265 105.22 292.663 103.673 291.996C97.1658 289.192 91.2024 285.37 85.2847 281.511C84.5378 281.024 78.2464 276.842 82.5139 278.709C87.0144 280.678 91.5289 282.598 96.1792 284.188C96.7109 284.369 98.951 285.592 99.5484 285.353C99.7651 285.266 94.6204 281.446 94.4789 281.354C89.6833 278.223 84.8423 275.137 79.9319 272.191C79.1569 271.726 79.3786 271.785 80.2468 271.845C82.8339 272.021 85.04 273.874 87.0165 275.371C91.6073 278.849 96.1086 282.608 100.399 286.455C105.497 291.026 92.6895 275.085 88.1186 269.987C85.7181 267.309 83.1863 264.754 80.8136 262.052C80.0349 261.165 77.3259 258.929 78.3576 259.502C83.7733 262.51 88.515 267.701 92.5897 272.285C92.8631 272.593 96.6805 275.553 96.4311 274.867C95.6935 272.839 93.6428 270.801 92.5897 268.885C90.7387 265.517 88.9171 262.187 86.7646 258.998C83.0391 253.479 73.1867 248.71 69.4782 240.798C68.8822 239.527 68.7855 238.405 68.7855 237.051C68.7855 233.3 69.2152 244.543 69.3208 248.292C69.4266 252.048 69.6405 263.311 69.3523 259.565C68.869 253.282 67.1434 247.271 67.0852 240.924C67.0816 240.532 66.7414 234.501 67.3686 234.501C67.8711 234.501 66.559 244.517 66.5185 245.207C66.2926 249.046 65.9517 260.577 65.9517 256.731C65.9517 251.215 67.771 245.517 68.7855 240.106" stroke="#FDF3E3" stroke-width="5.14131" stroke-linecap="round"/>
<path d="M249.584 274.678C249.584 274.695 249.951 266.88 249.458 272.789C249.113 276.933 247.991 281.037 247.884 285.195C247.814 287.921 249.916 283.914 250.435 283.148C252.213 280.519 253.343 277.328 253.52 274.143C253.691 271.076 252.443 271.962 251.977 274.237C251.396 277.08 251.973 282.461 256.354 280.818C258.312 280.084 257.519 274.036 257.519 280.786C257.519 283.175 258.152 286.294 256.071 287.997C253.781 289.87 247.569 290.547 247.569 290.547C247.569 290.547 250.488 289.259 251.726 288.28C251.988 288.073 254.294 286.071 253.237 287.43C250.445 291.02 244.665 289.981 240.768 289.981C239.719 289.981 228.62 290.61 228.709 290.831C229.116 291.85 236.661 291.128 237.619 291.051C240.449 290.825 244.101 289.428 243.917 286.013C243.626 280.642 230.816 282.86 227.827 284.03C223.531 285.711 227.781 286.58 230.188 286.58C231.632 286.58 238.109 282.882 234.817 283.211C230.286 283.664 226.619 287.147 221.939 287.147C218.65 287.147 216.139 287.999 213.059 288.879C210.611 289.578 218.133 289.414 220.679 289.414C226.643 289.414 233.022 289.936 238.816 288.28C243.5 286.942 245.008 288.092 246.467 282.581C247.369 279.174 248.106 275.449 247.853 271.907C247.814 271.363 246.893 268.553 245.743 269.703C243.463 271.983 244.528 280.135 249.27 277.669C251.517 276.5 256.763 263.909 252.985 263.909C251.898 263.909 252.418 266.984 252.418 267.625C252.418 270.155 253.102 271.898 254.937 273.733C256.17 274.966 255.819 268.934 255.819 268.443C255.819 263.924 255.302 259.432 255.252 254.904C255.244 254.145 254.685 248.921 254.685 250.118C254.685 256.806 255.047 263.461 255.221 270.144C255.29 272.803 254.782 275.784 255.787 278.299C256.523 280.137 256.639 274.429 256.952 272.474C257.699 267.816 258.653 263.064 259.094 258.368C259.27 256.486 259.219 250.81 259.219 252.7C259.219 262.97 260.23 273.33 260.353 283.62C260.401 287.683 260.457 288.275 256.921 290.264C253.339 292.279 249.086 292.814 245.05 292.814C233.128 292.814 221.223 292.248 209.344 292.248" stroke="#FDF3E3" stroke-width="5.14131" stroke-linecap="round"/>
<g style="mix-blend-mode:luminosity">
<path d="M161.081 202.547C168.809 201.998 176.536 197.891 183.357 194.807C184.081 194.479 194.092 189.219 193.038 189.219C185.644 189.219 176.91 194.439 170.314 197.001C170.236 197.031 154.019 203.996 155.747 205.114C160.928 208.463 175.096 200.374 179.457 198.491C180.966 197.84 194.61 189.806 191.918 190.005C184.919 190.522 177.658 197.526 172.51 201.347C170.363 202.941 162.839 206.944 162.022 209.584C161.561 211.073 175.131 206.567 175.244 206.521C187.469 201.585 199.129 195.548 210.115 188.556C210.797 188.123 221.066 181.26 215.763 182.761C207.944 184.974 200.368 190.778 193.98 195.262C187.477 199.826 180.765 204.486 174.975 209.833C169.802 214.61 181.636 208.478 182.595 208.011C197.453 200.786 211.89 192.794 226.61 185.328C230.239 183.487 233.834 181.609 237.367 179.615C237.545 179.515 240.339 177.979 240.056 177.96C223.387 176.819 205.926 188.547 192.68 196.545C190.009 198.158 182.922 202.764 182.819 203.003C181.116 206.934 169.344 207.018 165.921 207.018C162.69 207.018 160.442 210.774 160.274 213.724C160.208 214.88 158.188 215.114 156.24 215.214C146.706 215.703 136.365 205.668 128.63 201.223C121.703 197.242 114.868 193.092 107.877 189.219C105.781 188.057 103.337 187.036 101.065 186.197C98.5473 185.267 105.114 189.529 107.205 191.123C114.618 196.77 121.702 204.771 130.423 208.798C133.898 210.403 138.152 210.36 141.763 211.861C143.999 212.791 155.493 218.549 147.186 214.469C136.11 209.028 125.017 203.498 113.839 198.242C109.109 196.019 104.55 193.521 99.7647 191.371C97.9516 190.556 96.1487 189.881 94.1172 189.881C93.3267 189.881 96.766 190.34 97.5237 190.626C104.091 193.107 109.685 198.112 116.169 201.016C120.669 203.031 125.603 204.249 129.661 207.059C134.253 210.24 139.663 211.916 144.183 215.255C146.92 217.277 149.536 219.577 152.565 221.175C154.222 222.049 155.71 223.26 157.405 224.155C158.949 224.97 157.831 224.932 156.598 224.445C153.233 223.113 149.672 220.719 146.917 218.525C137.538 211.058 123.713 202.805 111.598 199.608C109.74 199.118 115.305 200.907 116.707 202.133C118.406 203.62 121.855 205.888 122.982 207.763C125.473 211.903 129.876 215.169 134.457 217.284C135.934 217.966 139.076 219.616 140.104 220.802C141.978 222.965 145.947 223.016 148.127 225.231C152.505 229.678 159.128 227.757 164.308 226.39C187.46 220.281 208.151 206.979 229.658 197.332C233.478 195.618 237.442 194.181 241.311 192.489C243.761 191.417 246.458 190.361 248.572 188.763C251.244 186.745 240.541 188.441 240.146 188.515C226.667 191.036 211.222 192.811 198.596 198.077C191.899 200.87 184.115 202.093 177.709 205.528C172.351 208.401 167.13 211.622 161.26 213.558C159.52 214.132 157.871 214.996 156.24 215.793C153.654 217.058 162.638 216.549 162.784 216.538C183.859 214.992 205.808 204.528 224.279 195.262C229.976 192.404 235.636 189.746 240.325 185.576C241.425 184.598 242.776 183.938 243.732 182.803C245.126 181.147 236.869 177.236 235.753 176.469C231.899 173.82 228.082 170.922 224.907 167.57C221.262 163.723 212.647 169.265 209.04 170.798C189.813 178.971 171.434 188.669 152.475 197.332C152.35 197.389 144.874 201.033 144.273 200.478C143.52 199.783 146.136 199.529 147.051 199.029C150.491 197.15 154.103 195.054 157.45 193.11C173.003 184.076 188.862 174.933 202.989 164.01C205.189 162.309 205.787 160.288 201.868 160.491C194.395 160.88 186.899 164.606 180.085 167.114C169.709 170.934 159.276 174.289 148.262 176.138C138.669 177.749 152.645 169.153 154.268 168.025C161.857 162.752 173.249 156.784 178.471 149.067C178.784 148.605 162.297 147.629 160.901 147.577C156.396 147.408 144.391 149.469 140.463 146.666C138.735 145.433 155.143 133.489 156.598 132.344C157.21 131.863 172.544 119.101 170.493 118.518C163.066 116.408 152.845 120.829 146.021 123.154C144.088 123.813 138.313 125.472 140.373 125.472C142.786 125.472 145.968 123.642 147.993 122.658C150.621 121.38 158.663 118.596 160.095 115.952C160.444 115.305 145.966 116.376 144.855 116.531C135.608 117.82 143.173 114.007 147.007 111.647C149.102 110.357 156.879 106.985 157.047 104.196C157.115 103.052 152.552 103.053 151.578 102.706C146.903 101.038 149.85 98.176 152.206 96" stroke="#EBE0FF" stroke-width="13" stroke-linecap="round"/>
</g>
<path d="M89.0096 222.957C87.6272 223.197 80.9901 205.879 64.7004 150.934L97.5403 220.986L94.8456 222.028L89.0096 222.957Z" fill="#B7AA93"/>
<path d="M260.199 156.777C255.564 159.171 243.164 165.577 129.23 211.388L104.978 220.765C102.668 221.659 96.1238 224.189 95.3795 222.264C84.2068 193.37 69.1044 161.18 64.7004 150.935C61.1772 142.739 171.492 104.773 224.929 88.0926C227.892 88.1268 234.384 89.6581 236.647 95.5094L260.315 156.717L260.199 156.777Z" fill="#F4DFBE"/>
<path d="M223.602 142.937C223.1 143.131 222.138 143.503 223.491 142.98C226.236 141.918 228.505 140.437 230.429 138.172C231.191 137.275 236.161 128.991 233.009 130.12C228.995 131.558 226.758 134.515 225.99 138.783C225.492 141.558 226.487 144.12 229.068 141.248C230.276 139.904 235.13 130.243 232.552 128.937C229.439 127.359 227.766 136.73 227.548 137.756C226.017 144.957 224.568 154.685 219.689 160.513C216.555 164.258 222.944 158.78 224.033 157.898C228.416 154.349 232.386 148.014 233.134 142.311C233.346 140.692 222.464 147.142 221.84 147.612C215.321 152.532 209.029 157.648 202.414 162.433C197.258 166.164 214.795 159.346 220.73 157.051C225.092 155.364 229.344 153.525 233.334 151.072C237.038 148.796 230.897 152.557 230.495 152.85C226.66 155.644 223.578 159.216 220.211 162.521C218.546 164.155 216.273 165.71 214.984 167.687C214.155 168.959 219.569 166.679 219.604 166.665C224.253 164.868 228.859 163.007 233.246 160.625C235.803 159.238 238.768 158.398 240.204 155.98C243.018 151.241 243.831 145.334 242.287 140.046C241.785 138.327 240.47 132.091 238.104 131.975C230.817 131.615 243.017 148.356 245.343 150.806C246.599 152.129 245.471 150.487 245.117 150.001C242.578 146.523 239.544 143.382 236.684 140.173C233.709 136.833 225.786 126.107 227.85 130.075C230.8 135.747 234.11 141.15 235.932 147.348C237.918 154.106 229.562 155.261 224.669 157.015C212.981 161.206 201.121 164.68 190.209 170.765C189.274 171.286 184.502 173.938 184.825 173.654C187.697 171.13 190.598 168.639 193.465 166.106C195.389 164.406 203.205 158.018 196.025 160.527C190.044 162.617 182.15 164.566 176.915 168.256C173.175 170.892 183.556 166.835 184.399 166.51C186.631 165.647 190.279 163.287 192.768 163.316C196.918 163.364 185.528 167.373 181.9 169.388C179.767 170.573 177.567 171.446 175.301 172.323" stroke="#F1DBB8" stroke-width="10.731" stroke-linecap="round"/>
<path d="M85.2011 172.74C87.8885 179.691 90.5759 186.641 93.2634 193.591C94.401 196.533 97.8657 203.993 94.2877 196.679C89.9483 187.809 84.6228 179.399 79.9841 170.678C79.0965 169.01 78.242 167.342 77.1922 165.766C76.0056 163.985 78.6991 169.773 79.471 171.769C85.0114 186.097 93.7179 198.723 99.2514 213.033C100.42 216.055 105.492 211.106 107.294 210.093C111.515 207.721 115.781 205.471 120.25 203.596C122.623 202.601 125.411 201.889 127.349 200.086C130.175 197.457 120.056 202.706 116.669 204.556C114.845 205.551 113.003 206.356 111.067 207.104C108.95 207.923 114.98 204.776 116.764 203.372C117.715 202.623 126.921 193.305 124.725 193.409C116.573 193.794 108.871 196.55 100.54 195.154C93.8131 194.027 106.872 191.989 108.351 191.836C112.489 191.41 116.666 191.492 120.793 190.935C121.607 190.825 114.648 190.877 113.406 190.732C106.718 189.95 97.4413 189.269 92.7901 183.575C89.1071 179.066 98.4174 184.827 98.8968 185.08C108.412 190.116 121.249 192.143 131.877 192.343C131.954 192.345 138.286 192.492 138.115 192.651C136.09 194.536 130.635 194.468 128.162 194.715C122.217 195.307 115.51 194.324 109.701 195.436C109.095 195.552 108.584 195.826 109.612 195.428C113.708 193.844 117.803 192.772 122.121 191.951C126.436 191.131 138.653 187.942 135.238 190.704C130.068 194.884 123.007 196.629 117.361 200.081C114.217 202.004 116.511 201.989 118.994 201.447C130.071 199.028 141.544 194.865 152.853 193.837C155.667 193.581 146.706 197.148 146.143 197.366C144.28 198.086 129.534 203.141 136.748 198.236C145.123 192.543 153.623 188.087 162.535 183.378C163.323 182.962 165.531 181.518 164.68 181.784C157.672 183.97 150.81 187.123 143.978 189.789C132.039 194.447 120.573 200.181 108.707 204.957C102.796 207.337 110.177 203.798 111.922 202.609C115.53 200.15 106.562 204.257 105.346 204.727C99.9258 206.823 107.426 198.734 108.5 197.388" stroke="#F1DBB8" stroke-width="10.731" stroke-linecap="round"/>
<path d="M160.847 235.487C175.672 227.859 216.858 206.534 263 182.258V283.193L257.391 294.24L69.2189 298.258L58 287.21V186.238C65.7831 189.421 129.808 220.397 160.847 235.487Z" fill="#FFF9EF" stroke="#FDF3E3" stroke-width="2"/>
<path d="M242.842 262.026C241.745 262.117 240.643 262.485 239.644 262.928C239.013 263.207 235.852 265.538 236.528 263.645C238.137 259.141 240.927 254.997 242.883 250.629C243.815 248.545 245.549 245.529 245.793 243.208C245.911 242.093 244.97 245.296 244.522 246.324C242.278 251.482 239.55 256.596 236.036 261.001C234.089 263.442 231.922 265.59 229.456 267.499C227.861 268.734 228.642 268.989 230.215 268.134C234.829 265.626 239.239 260.053 241.407 255.384C243.057 251.829 243.948 247.74 243.948 243.823C243.948 243.578 243.931 241.772 243.969 242.06C244.575 246.605 245.791 251.119 246.613 255.63C247.626 261.186 248.766 266.718 249.77 272.275C249.883 272.901 250.422 278.179 251.348 275.227C253.427 268.6 253.149 260.699 253.173 253.826C253.185 250.251 253.755 245.555 252.435 242.122C252.385 241.992 251.799 240.358 251.717 241.384C251.3 246.604 251.785 252.061 252.066 257.27C252.343 262.422 253.001 267.512 253.46 272.644C253.559 273.757 253.934 277.083 254.464 274.017C254.675 272.801 255.991 260.273 253.747 261.001C250.852 261.94 248.457 267.014 246.88 269.241C243.745 273.669 240.308 277.856 236.61 281.827C235.583 282.931 231.99 285.207 233.494 285.107C236.423 284.912 239.813 282.842 242.534 281.827C243.556 281.446 244.576 281.121 245.629 280.843C246.041 280.734 247.255 280.653 246.859 280.495C246.248 280.25 244.387 280.652 243.907 280.72C240.551 281.197 237.236 281.854 233.863 282.237C230.087 282.667 226.332 283.121 222.589 283.795C222.059 283.89 219.087 284.426 221.421 284.512C227.267 284.729 233.163 284.239 238.988 283.795C242.424 283.533 246.631 283.85 249.954 282.873C250.992 282.567 247.797 282.687 246.716 282.668C236.15 282.481 225.576 281.75 215.005 282.032C211.016 282.139 207.029 282.503 203.157 283.508C202.508 283.676 200.838 283.833 201.312 284.307C202.379 285.374 207.967 283.862 208.958 283.672C216.395 282.247 223.838 280.226 231.014 277.809C232.026 277.469 233.504 277.095 234.396 276.416C235.362 275.68 232.044 275.667 230.83 275.678C213.176 275.825 196.646 284.546 180.158 289.985C179.83 290.093 174.158 291.961 177.124 290.477C185.433 286.323 194.36 283.584 203.28 281.089C210.35 279.111 217.476 277.45 224.68 276.047C225.23 275.939 231.078 274.94 229.477 274.94C221.432 274.94 211.705 278.104 205.166 282.893C202.671 284.72 205.047 284.586 207.359 284.697C219.361 285.272 231.444 284.902 243.457 284.902C247.438 284.902 252.377 285.605 256.288 284.533C260.031 283.507 248.546 283.752 244.666 283.836C237.921 283.982 231.372 284.734 224.783 286.152C223.238 286.485 218.682 287.008 220.211 287.403C223.172 288.167 227.333 287.006 230.133 286.214C232.866 285.441 235.496 284.339 238.127 283.282C240.455 282.348 243.339 281.571 245.117 279.675C248.046 276.551 246.912 270.473 246.9 266.658C246.878 259.836 246.484 253.237 245.076 246.55C244.59 244.24 243.739 241.991 243.6 239.621C243.45 237.074 243.259 243.158 243.17 243.536C241.326 251.308 235.931 258.679 231.076 264.814C224.544 273.067 216.467 280.62 207.318 285.906C197.571 291.538 187.604 294.864 176.427 294.864C169.417 294.864 162.406 294.864 155.396 294.864" stroke="#FDF3E3" stroke-width="13" stroke-linecap="round"/>
<path d="M74.9609 272.843C74.9609 279.484 74.9609 259.56 74.9609 252.919C74.9609 252.051 74.9609 251.183 74.9609 250.315C74.9609 249.161 74.9609 252.625 74.9609 253.779C74.9609 259.69 74.9609 265.6 74.9609 271.51C74.9609 272.959 74.9609 274.408 74.9609 275.856C74.9609 280.199 75.3642 267.179 75.5348 262.84C75.8445 254.963 75.826 247.024 75.6168 239.144C75.5455 236.458 75.4387 233.761 75.1454 231.088C75.0634 230.341 75.0349 228.723 74.4074 228.095C73.7559 227.444 72.0108 232.886 71.9681 233.015C69.2306 241.303 67.3769 249.705 67.0076 258.453C66.6939 265.883 66.6373 273.93 68.6064 281.165C68.7976 281.868 69.8052 286.433 70.5333 283.625C71.9823 278.036 71.8502 271.654 71.9681 265.935C72.0997 259.557 72.4278 252.914 71.6402 246.564C71.6391 246.556 71.0847 243.957 70.9842 244.145C70.7398 244.604 70.9022 246.011 70.9022 246.359C70.9022 249.896 70.8263 253.443 70.9842 256.977C71.2819 263.637 72.3283 270.4 74.0795 276.84C74.8053 279.509 75.7949 284.929 79.4705 284.855C83.8973 284.765 91.38 277.624 89.3917 272.72C88.2889 270 83.3309 270.014 81.0489 269.932C78.3858 269.836 73.8331 269.114 71.8042 271.449C70.3692 273.101 71.097 274.726 73.034 275.426C78.937 277.557 85.3452 275.907 90.0476 271.961C91.8877 270.417 95.4239 266.629 94.5162 263.824C93.9571 262.095 87.6966 262.881 86.3169 262.881C84.9061 262.881 80.6964 262.977 82.0943 263.168C83.5568 263.367 85.3876 262.981 86.7884 262.799C91.101 262.236 95.4165 261.561 99.6818 260.708C99.8761 260.669 105.586 259.305 103.679 259.212C98.6334 258.965 93.2723 260.092 88.8177 262.471C84.3599 264.851 80.3706 268.287 77.1747 272.187C76.388 273.147 73.2907 275.879 75.7398 276.348C82.654 277.672 90.1477 276.902 97.1605 276.902C103.904 276.902 83.7951 274.716 77.0517 274.688C74.4107 274.677 70.8949 274.097 68.5654 275.713C65.0494 278.151 73.4389 278.327 73.895 278.357C85.2294 279.1 96.6568 278.757 108.004 278.562C113.675 278.464 119.994 279.006 125.633 277.926C126.138 277.83 120.933 277.635 120.303 277.639C111.695 277.707 103.517 279.152 95.1517 281.104C91.596 281.933 88.0325 282.902 84.6361 284.26C84.072 284.486 81.3465 285.366 83.3652 285.388C93.3177 285.496 103.149 284.785 113.067 284.301C113.884 284.262 115.729 284.013 113.6 283.932C107.996 283.721 102.248 283.69 96.648 283.994C92.4557 284.221 87.6146 284.3 84.7796 287.766C84.1329 288.556 91.8373 289.056 91.8514 289.057C103.891 289.817 116.031 289.765 128.092 290.102C132.805 290.234 137.523 290.488 142.236 290.553C142.414 290.556 142.947 290.553 142.769 290.553C140.173 290.553 137.576 290.533 134.98 290.594C123.25 290.872 111.59 292.029 99.8458 292.029C94.6403 292.029 110.22 291.019 115.424 290.943C118.994 290.89 123.451 291.52 126.903 290.369C127.761 290.083 126.206 289.664 126.166 289.651C123.104 288.676 119.855 288.204 116.695 287.684C113.126 287.095 109.558 286.545 105.995 285.921C102.316 285.276 106.819 285.634 108.312 285.531C122.208 284.577 136.703 281.546 149.862 276.902" stroke="#FDF3E3" stroke-width="13" stroke-linecap="round"/>
<path d="M145.443 217.546C146.775 217.546 148.354 217.289 149.653 217.595C150.594 217.816 151.192 218.394 152.189 218.432C154.065 218.504 155.192 219.541 157.237 219.097C161.123 218.252 164.381 217.419 168.144 215.773C174.323 213.07 180.39 209.071 185.823 205.087C188.908 202.824 192.043 200.939 195.277 198.932C196.759 198.012 198.214 196.994 199.857 196.371C201.106 195.897 201.36 195.667 199.512 196.125C191.738 198.05 184.302 202.606 177.599 206.884C172.765 209.97 167.407 210.785 162.284 213.114" stroke="#EBE0FF" stroke-width="13" stroke-linecap="round"/>
<path d="M149.875 97.8842C150.891 97.8842 153.896 94.6196 155.415 93.9447C157.346 93.0864 151.2 94.3386 149.087 94.3386C145.401 94.3386 143.574 100.32 141.922 103.129C139.849 106.653 137.13 107.771 133.92 110.294" stroke="#EBE0FF" stroke-width="13" stroke-linecap="round"/>
<path d="M70.1417 257C70.1417 265.296 69.8229 273.67 70.1417 281.96C70.2611 285.063 90.9874 284.345 94.4495 285.499" stroke="#EBE0FF" stroke-width="13" stroke-linecap="round"/>
</svg>
