<svg width="101" height="133" viewBox="0 0 101 133" fill="none" xmlns="http://www.w3.org/2000/svg">
<rect x="19" y="35" width="82" height="98" fill="#FFF9EF"/>
<g style="mix-blend-mode:luminosity">
<path d="M7 30L19 35.1107V133L7 120.813V30Z" fill="#EBE0FF"/>
</g>
<path d="M84 29L7 30.5L19 37L101 36.5L84 29Z" fill="#FDF3E3"/>
<path d="M53.4798 32.1535C52.5951 32.1535 51.2028 32.1711 50.513 32.1267C49.63 32.0698 49.4403 31.9512 49.599 31.8748C49.8447 31.7565 51.8761 31.6592 53.5547 31.6398C55.1892 31.6209 57.4194 31.6059 58.5893 31.7013C59.907 31.8087 60.6041 31.9542 59.818 32.091C59.0528 32.2241 57.561 32.343 55.3977 32.3766C53.04 32.4132 51.0033 32.3945 49.599 32.2477C48.6008 32.1433 48.033 31.9958 48.2355 31.8718C48.4335 31.7506 49.9398 31.674 51.5844 31.6403C53.0718 31.6098 55.0451 31.5678 56.5065 31.6279C59.4545 31.749 59.1443 32.0504 57.6603 32.2229C56.7289 32.3312 54.5852 32.3755 52.8055 32.3766C51.913 32.3772 50.8818 32.3852 50.0635 32.3568C49.1638 32.3256 48.5129 32.2738 47.9208 32.2209C45.708 32.0231 45.9861 31.6997 49.2469 31.551C52.8788 31.3854 57.7024 31.4315 60.4922 31.6581C62.5721 31.8271 62.2336 32.1234 60.4922 32.2963C59.5851 32.3863 58.0474 32.4562 56.4391 32.4788C54.7078 32.503 52.3313 32.5155 50.7078 32.4659C49.1423 32.418 47.7881 32.3245 46.9469 32.2249C46.1225 32.1272 45.928 32.0484 45.928 31.9393C45.928 31.8371 46.2918 31.7545 47.4114 31.6804C48.2883 31.6224 49.2695 31.5694 50.513 31.5535C51.6804 31.5386 52.9552 31.516 54.1541 31.5307C55.4342 31.5464 55.8321 31.6538 55.7648 31.7251C55.6807 31.8142 54.3294 31.85 53.1652 31.85C52.6984 31.85 52.3891 31.8014 52.8205 31.7831C53.989 31.7334 54.4627 31.8611 54.5437 31.916C54.5773 31.9388 54.7103 31.9865 54.229 31.9923C53.7801 31.9977 54.1874 32.0368 54.2889 32.0553" stroke="#AA3100" stroke-width="3" stroke-linecap="round"/>
<g style="mix-blend-mode:luminosity">
<path d="M19 87.9491C22.7588 87.9491 26.8229 88.3169 30.5358 87.6768C35.0998 86.8899 39.7791 86.2626 44.411 86.134C48.2672 86.0269 34.2165 89.3184 38 88.7363C38.1779 88.7089 40.6983 87.6777 40 87.6777C39.1541 87.6777 51.3364 85.8824 50.5 86C47.4605 86.4274 47.6842 85.8843 44.7337 86.7188C40.7916 87.8338 36.8757 89.1346 32.976 90.2179C30.1941 90.9907 27.2566 91.2623 24.4855 92.0834C23.6717 92.3245 22.7626 92.6174 21.9848 92.8397C21.6321 92.9404 20.2705 93.2216 20.2705 93.122C20.2705 92.3417 19.8888 89.592 20.6336 89.2196" stroke="#EBE0FF" stroke-width="7" stroke-linecap="round"/>
</g>
<g style="mix-blend-mode:luminosity">
<path d="M18.1685 49.5C17.6453 48.1535 16.8168 46.9468 16.0592 45.8568C15.7345 45.3896 15.4146 44.9235 15.0438 44.527C14.4305 43.871 13.7539 43.1434 13.0847 42.615C12.6332 42.2586 14.1107 42.8291 14.6148 42.9964C15.4879 43.2862 16.3831 43.4835 17.264 43.719C18.5037 44.0505 19.7694 44.3288 21 44.7126" stroke="#D4B8EC" stroke-width="7" stroke-linecap="round"/>
</g>
<g style="mix-blend-mode:luminosity">
<path d="M19.9345 94.44C19.9136 94.6497 19.5556 94.2453 19.5162 94.2078C18.8873 93.6089 18.3036 92.9401 17.6719 92.3457C16.8464 91.569 16.0159 91.1103 15.0891 90.5884C14.36 90.1777 13.7343 89.8561 13.1102 89.1952C12.6336 88.6905 12.2178 88.1421 11.7788 87.5927C11.5939 87.3613 11.4275 87.1189 11.2549 86.8733C11.2091 86.808 10.8485 86.5 11.0731 86.5C11.4658 86.5 11.8908 86.8462 12.2226 87.0645C13.0515 87.6101 13.8416 88.1902 14.6307 88.8219C15.7065 89.683 16.9585 90.3271 18.1993 90.7067C18.7474 90.8744 19.4338 91.0801 20 91.0801" stroke="#D4B8EC" stroke-width="7" stroke-linecap="round"/>
</g>
<path d="M8.5 39L72 40L57 45L5.5 40L8.5 39Z" fill="#FFF9EF"/>
<path d="M65.5 81.5L2 82.5L17 87.5L68.5 82.5L65.5 81.5Z" fill="#FFF9EF"/>
<g style="mix-blend-mode:luminosity">
<path d="M21 48.4666C27.1523 48.4666 33.4275 51.5617 38.628 54.8283C39.8514 55.5968 41.1281 56.2067 42.2858 57.0927C42.7354 57.4367 43.1463 57.5887 43.6911 57.5887C45.01 57.5887 45.8162 57.4032 47.0803 58.365C47.5393 58.7143 48.0664 58.9599 48.5063 59.3355C48.7585 59.5509 49.0286 60.0233 49.3639 60.101C49.7814 60.1979 50.4057 59.6029 50.7072 59.4002C52.1994 58.3967 53.6553 57.3326 55.14 56.3163C58.5446 53.986 62.1329 50.9059 66.1032 49.6311C66.8588 49.3885 67.5826 48.9081 68.2421 48.4666C69.0238 47.9434 69.9631 47.6509 70.6601 47.0002C71.127 46.5642 71.1942 46.5841 70.3397 46.8492C67.8057 47.6354 65.5614 49.5213 63.2203 50.7525C60.7864 52.0326 58.3001 53.2323 55.853 54.4941C53.2427 55.84 50.9558 56.9162 47.9896 56.8016C46.3377 56.7377 44.57 56.1959 43.6911 54.6343C43.2927 53.9264 42.3642 52.7365 43.5774 52.7365C46.4448 52.7365 49.7043 53.2173 52.5154 52.6071C53.2094 52.4565 54.0838 52.1828 54.551 51.5828C54.6765 51.4215 55.0104 51.0497 54.6337 51.0005C52.5039 50.7227 50.1578 50.997 48.0309 51.1407C47.9121 51.1487 46.5223 51.1014 46.5223 51.4642C46.5223 51.6888 48.4695 51.5645 48.5786 51.5612C52.5334 51.4433 55.9778 49.9471 59.6865 48.7038C61.6208 48.0554 63.7929 47.632 65.6382 46.7198C66.5576 46.2654 67.5969 45.0848 68.6141 44.973C68.7983 44.9528 71.2031 44.2352 70.5361 44.6064C68.1664 45.9252 65.9536 47.7645 63.7783 49.3939C60.9651 51.5011 58.1568 53.6384 55.326 55.7125C53.8544 56.7907 52.3524 57.8154 50.9448 58.9904C50.3089 59.5213 49.4896 60.2298 48.7129 60.5" stroke="#EBE0FF" stroke-width="7" stroke-linecap="round"/>
</g>
<path d="M58.8274 111.961C69.881 111.961 103.04 112.303 91.9867 112.303C89.8139 112.303 87.8775 112.977 85.8334 113.67C81.4014 115.174 77.3534 115.721 72.6912 115.721C70.1974 115.721 67.7111 115.976 65.3225 115.208C63.7458 114.702 62.051 113.67 60.3657 113.67C58.4315 113.67 57.6527 113.115 60.3277 113.347C63.2108 113.598 66.3075 113.934 69.1588 114.43C70.617 114.683 82.9467 115.574 82.9467 114.962C82.9467 114.157 78.6464 113.74 77.9709 113.594C76.6499 113.309 75.3901 113.328 74.0396 113.328C72.293 113.328 70.6362 112.814 68.9119 112.664C68.0659 112.59 67.1976 112.645 66.348 112.645C66.1115 112.645 68.1169 112.645 68.551 112.645C71.0073 112.645 73.4635 112.645 75.9198 112.645C78.1988 112.645 80.4778 112.645 82.7567 112.645C83.9514 112.645 87.72 112.645 84.466 112.645" stroke="#ECE6DC" stroke-width="2" stroke-linecap="round"/>
<path d="M72.1594 81.8784C74.9575 81.8784 77.7556 81.8784 80.5537 81.8784C81.4576 81.8784 85.5808 82.5201 86.2132 81.6505C87.5877 79.7607 89.2708 78.1597 90.9611 76.5608C92.0228 75.5565 91.4737 75.9751 90.2014 76.3329C85.9065 77.5408 81.3962 78.1299 77.0972 79.3336C74.9183 79.9437 72.5248 79.665 70.4502 80.587C66.3839 82.3943 79.4726 81.0115 83.7823 79.9033C85.3683 79.4955 89.9969 78.1181 88.3593 78.1181C85.2924 78.1181 82.701 78.3045 79.6801 79.1437" stroke="#ECE6DC" stroke-width="2" stroke-linecap="round"/>
</svg>
