<svg width="99" height="72" viewBox="0 0 99 72" fill="none" xmlns="http://www.w3.org/2000/svg">
<rect x="17" y="5" width="82" height="67" fill="#FFF9EF"/>
<g style="mix-blend-mode:luminosity">
<path d="M5 2L17 5.47328V72L5 63.7176V2Z" fill="#EBE0FF"/>
</g>
<path d="M82 0L5 1.5L17 8L99 7.5L82 0Z" fill="#FDF3E3"/>
<path d="M51.4798 3.15348C50.5951 3.15348 49.2028 3.17112 48.513 3.1267C47.63 3.06984 47.4403 2.95119 47.599 2.87481C47.8447 2.75654 49.8761 2.65919 51.5547 2.63978C53.1892 2.62087 55.4194 2.60588 56.5893 2.70126C57.907 2.8087 58.6041 2.95423 57.818 3.091C57.0528 3.22412 55.561 3.34303 53.3977 3.37661C51.04 3.41322 49.0033 3.39452 47.599 3.24769C46.6008 3.14333 46.033 2.99582 46.2355 2.87184C46.4335 2.7506 47.9398 2.67396 49.5844 2.64027C51.0718 2.6098 53.0451 2.56784 54.5065 2.62788C57.4545 2.74898 57.1443 3.05035 55.6603 3.2229C54.7289 3.33119 52.5852 3.37549 50.8055 3.37661C49.913 3.37718 48.8818 3.38518 48.0635 3.35678C47.1638 3.32555 46.5129 3.27384 45.9208 3.22092C43.708 3.02311 43.9861 2.6997 47.2469 2.55102C50.8788 2.38543 55.7024 2.43151 58.4922 2.65813C60.5721 2.82706 60.2336 3.12341 58.4922 3.29629C57.5851 3.38635 56.0474 3.45624 54.4391 3.47876C52.7078 3.503 50.3313 3.51546 48.7078 3.46587C47.1423 3.41805 45.7881 3.32451 44.9469 3.22488C44.1225 3.12724 43.928 3.0484 43.928 2.93927C43.928 2.83709 44.2918 2.75454 45.4114 2.68044C46.2883 2.6224 47.2695 2.56938 48.513 2.5535C49.6804 2.53859 50.9552 2.516 52.1541 2.53069C53.4342 2.54638 53.8321 2.6538 53.7648 2.72507C53.6807 2.81419 52.3294 2.85002 51.1652 2.85002C50.6984 2.85002 50.3891 2.80144 50.8205 2.78308C51.989 2.73336 52.4627 2.86107 52.5437 2.91597C52.5773 2.93879 52.7103 2.98654 52.229 2.99233C51.7801 2.99773 52.1874 3.03681 52.2889 3.0553" stroke="#AA3100" stroke-width="3" stroke-linecap="round"/>
<g style="mix-blend-mode:luminosity">
<path d="M17 26.9491C20.7588 26.9491 24.8229 27.3169 28.5358 26.6768C33.0998 25.8899 37.7791 25.2626 42.411 25.134C46.2672 25.0269 32.2165 28.3184 36 27.7363C36.1779 27.7089 38.6983 26.6777 38 26.6777C37.1541 26.6777 49.3364 24.8824 48.5 25C45.4605 25.4274 45.6842 24.8843 42.7337 25.7188C38.7916 26.8338 34.8757 28.1346 30.976 29.2179C28.1941 29.9907 25.2566 30.2623 22.4855 31.0834C21.6717 31.3245 20.7626 31.6174 19.9848 31.8397C19.6321 31.9404 18.2705 32.2216 18.2705 32.122C18.2705 31.3417 17.8888 28.592 18.6336 28.2196" stroke="#EBE0FF" stroke-width="7" stroke-linecap="round"/>
</g>
<g style="mix-blend-mode:luminosity">
<path d="M17.9345 33.44C17.9136 33.6497 17.5556 33.2453 17.5162 33.2078C16.8873 32.6089 16.3036 31.9401 15.6719 31.3457C14.8464 30.569 14.0159 30.1103 13.0891 29.5884C12.36 29.1777 11.7343 28.8561 11.1102 28.1952C10.6336 27.6905 10.2178 27.1421 9.77877 26.5927C9.5939 26.3613 9.42746 26.1189 9.25494 25.8733C9.20908 25.808 8.84848 25.5 9.07306 25.5C9.46576 25.5 9.89084 25.8462 10.2226 26.0645C11.0515 26.6101 11.8416 27.1902 12.6307 27.8219C13.7065 28.683 14.9585 29.3271 16.1993 29.7067C16.7474 29.8744 17.4338 30.0801 18 30.0801" stroke="#D4B8EC" stroke-width="7" stroke-linecap="round"/>
</g>
<path d="M63.5 20.5L0 21.5L15 26.5L66.5 21.5L63.5 20.5Z" fill="#FFF9EF"/>
<path d="M56.8274 50.9609C67.881 50.9609 101.04 51.3028 89.9867 51.3028C87.8139 51.3028 85.8775 51.9766 83.8334 52.6702C79.4014 54.1739 75.3534 54.7213 70.6912 54.7213C68.1974 54.7213 65.7111 54.9763 63.3225 54.2085C61.7458 53.7017 60.051 52.6702 58.3657 52.6702C56.4315 52.6702 55.6527 52.1147 58.3277 52.3473C61.2108 52.598 64.3075 52.934 67.1588 53.4298C68.617 53.6835 80.9467 54.5742 80.9467 53.9616C80.9467 53.1568 76.6464 52.7403 75.9709 52.5942C74.6499 52.3086 73.3901 52.3283 72.0396 52.3283C70.293 52.3283 68.6362 51.8136 66.9119 51.6636C66.0659 51.5901 65.1976 51.6446 64.348 51.6446C64.1115 51.6446 66.1169 51.6446 66.551 51.6446C69.0073 51.6446 71.4635 51.6446 73.9198 51.6446C76.1988 51.6446 78.4778 51.6446 80.7567 51.6446C81.9514 51.6446 85.72 51.6446 82.466 51.6446" stroke="#ECE6DC" stroke-width="2" stroke-linecap="round"/>
<path d="M70.1594 20.8784C72.9575 20.8784 75.7556 20.8784 78.5537 20.8784C79.4576 20.8784 83.5808 21.5201 84.2132 20.6505C85.5877 18.7607 87.2708 17.1597 88.9611 15.5608C90.0228 14.5565 89.4737 14.9751 88.2014 15.3329C83.9065 16.5408 79.3962 17.1299 75.0972 18.3336C72.9183 18.9437 70.5248 18.665 68.4502 19.587C64.3839 21.3943 77.4726 20.0115 81.7823 18.9033C83.3683 18.4955 87.9969 17.1181 86.3593 17.1181C83.2924 17.1181 80.701 17.3045 77.6801 18.1437" stroke="#ECE6DC" stroke-width="2" stroke-linecap="round"/>
</svg>
