<svg width="94" height="46" viewBox="0 0 94 46" fill="none" xmlns="http://www.w3.org/2000/svg">
<rect x="11" y="4" width="82" height="42" fill="#FFF9EF"/>
<path d="M77 0L0 1.5L12 8L94 7.5L77 0Z" fill="#FDF3E3"/>
<path d="M46.4798 3.15348C45.5951 3.15348 44.2028 3.17112 43.513 3.1267C42.63 3.06984 42.4403 2.95119 42.599 2.87481C42.8447 2.75654 44.8761 2.65919 46.5547 2.63978C48.1892 2.62087 50.4194 2.60588 51.5893 2.70126C52.907 2.8087 53.6041 2.95423 52.818 3.091C52.0528 3.22412 50.561 3.34303 48.3977 3.37661C46.04 3.41322 44.0033 3.39452 42.599 3.24769C41.6008 3.14333 41.033 2.99582 41.2355 2.87184C41.4335 2.7506 42.9398 2.67396 44.5844 2.64027C46.0718 2.6098 48.0451 2.56784 49.5065 2.62788C52.4545 2.74898 52.1443 3.05035 50.6603 3.2229C49.7289 3.33119 47.5852 3.37549 45.8055 3.37661C44.913 3.37718 43.8818 3.38518 43.0635 3.35678C42.1638 3.32555 41.5129 3.27384 40.9208 3.22092C38.708 3.02311 38.9861 2.6997 42.2469 2.55102C45.8788 2.38543 50.7024 2.43151 53.4922 2.65813C55.5721 2.82706 55.2336 3.12341 53.4922 3.29629C52.5851 3.38635 51.0474 3.45624 49.4391 3.47876C47.7078 3.503 45.3313 3.51546 43.7078 3.46587C42.1423 3.41805 40.7881 3.32451 39.9469 3.22488C39.1225 3.12724 38.928 3.0484 38.928 2.93927C38.928 2.83709 39.2918 2.75454 40.4114 2.68044C41.2883 2.6224 42.2695 2.56938 43.513 2.5535C44.6804 2.53859 45.9552 2.516 47.1541 2.53069C48.4342 2.54638 48.8321 2.6538 48.7648 2.72507C48.6807 2.81419 47.3294 2.85002 46.1652 2.85002C45.6984 2.85002 45.3891 2.80144 45.8205 2.78308C46.989 2.73336 47.4627 2.86107 47.5437 2.91597C47.5773 2.93879 47.7103 2.98654 47.229 2.99233C46.7801 2.99773 47.1874 3.03681 47.2889 3.0553" stroke="#AA3100" stroke-width="3" stroke-linecap="round"/>
<path d="M50.8274 24.9609C61.881 24.9609 95.0403 25.3028 83.9867 25.3028C81.8139 25.3028 79.8775 25.9766 77.8334 26.6702C73.4014 28.1739 69.3534 28.7213 64.6912 28.7213C62.1974 28.7213 59.7111 28.9763 57.3225 28.2085C55.7458 27.7017 54.051 26.6702 52.3657 26.6702C50.4315 26.6702 49.6527 26.1147 52.3277 26.3473C55.2108 26.598 58.3075 26.934 61.1588 27.4298C62.617 27.6835 74.9467 28.5742 74.9467 27.9616C74.9467 27.1568 70.6464 26.7403 69.9709 26.5942C68.6499 26.3086 67.3901 26.3283 66.0396 26.3283C64.293 26.3283 62.6362 25.8136 60.9119 25.6636C60.0659 25.5901 59.1976 25.6446 58.348 25.6446C58.1115 25.6446 60.1169 25.6446 60.551 25.6446C63.0073 25.6446 65.4635 25.6446 67.9198 25.6446C70.1988 25.6446 72.4778 25.6446 74.7567 25.6446C75.9514 25.6446 79.72 25.6446 76.466 25.6446" stroke="#ECE6DC" stroke-width="2" stroke-linecap="round"/>
</svg>
