<svg width="99" height="104" viewBox="0 0 99 104" fill="none" xmlns="http://www.w3.org/2000/svg">
<rect x="17" y="6" width="82" height="98" fill="#FFF9EF"/>
<g style="mix-blend-mode:luminosity">
<path d="M5 1L17 6.11069V104L5 91.813V1Z" fill="#EBE0FF"/>
</g>
<path d="M82 0L5 1.5L17 8L99 7.5L82 0Z" fill="#FDF3E3"/>
<path d="M51.4798 3.15348C50.5951 3.15348 49.2028 3.17112 48.513 3.1267C47.63 3.06984 47.4403 2.95119 47.599 2.87481C47.8447 2.75654 49.8761 2.65919 51.5547 2.63978C53.1892 2.62087 55.4194 2.60588 56.5893 2.70126C57.907 2.8087 58.6041 2.95423 57.818 3.091C57.0528 3.22412 55.561 3.34303 53.3977 3.37661C51.04 3.41322 49.0033 3.39452 47.599 3.24769C46.6008 3.14333 46.033 2.99582 46.2355 2.87184C46.4335 2.7506 47.9398 2.67396 49.5844 2.64027C51.0718 2.6098 53.0451 2.56784 54.5065 2.62788C57.4545 2.74898 57.1443 3.05035 55.6603 3.2229C54.7289 3.33119 52.5852 3.37549 50.8055 3.37661C49.913 3.37718 48.8818 3.38518 48.0635 3.35678C47.1638 3.32555 46.5129 3.27384 45.9208 3.22092C43.708 3.02311 43.9861 2.6997 47.2469 2.55102C50.8788 2.38543 55.7024 2.43151 58.4922 2.65813C60.5721 2.82706 60.2336 3.12341 58.4922 3.29629C57.5851 3.38635 56.0474 3.45624 54.4391 3.47876C52.7078 3.503 50.3313 3.51546 48.7078 3.46587C47.1423 3.41805 45.7881 3.32451 44.9469 3.22488C44.1225 3.12724 43.928 3.0484 43.928 2.93927C43.928 2.83709 44.2918 2.75454 45.4114 2.68044C46.2883 2.6224 47.2695 2.56938 48.513 2.5535C49.6804 2.53859 50.9552 2.516 52.1541 2.53069C53.4342 2.54638 53.8321 2.6538 53.7648 2.72507C53.6807 2.81419 52.3294 2.85002 51.1652 2.85002C50.6984 2.85002 50.3891 2.80144 50.8205 2.78308C51.989 2.73336 52.4627 2.86107 52.5437 2.91597C52.5773 2.93879 52.7103 2.98654 52.229 2.99233C51.7801 2.99773 52.1874 3.03681 52.2889 3.0553" stroke="#AA3100" stroke-width="3" stroke-linecap="round"/>
<g style="mix-blend-mode:luminosity">
<path d="M17 58.9491C20.7588 58.9491 24.8229 59.3169 28.5358 58.6768C33.0998 57.8899 37.7791 57.2626 42.411 57.134C46.2672 57.0269 32.2165 60.3184 36 59.7363C36.1779 59.7089 38.6983 58.6777 38 58.6777C37.1541 58.6777 49.3364 56.8824 48.5 57C45.4605 57.4274 45.6842 56.8843 42.7337 57.7188C38.7916 58.8338 34.8757 60.1346 30.976 61.2179C28.1941 61.9907 25.2566 62.2623 22.4855 63.0834C21.6717 63.3245 20.7626 63.6174 19.9848 63.8397C19.6321 63.9404 18.2705 64.2216 18.2705 64.122C18.2705 63.3417 17.8888 60.592 18.6336 60.2196" stroke="#EBE0FF" stroke-width="7" stroke-linecap="round"/>
</g>
<g style="mix-blend-mode:luminosity">
<path d="M16.1685 20.5C15.6453 19.1535 14.8168 17.9468 14.0592 16.8568C13.7345 16.3896 13.4146 15.9235 13.0438 15.527C12.4305 14.871 11.7539 14.1434 11.0847 13.615C10.6332 13.2586 12.1107 13.8291 12.6148 13.9964C13.4879 14.2862 14.3831 14.4835 15.264 14.719C16.5037 15.0505 17.7694 15.3288 19 15.7126" stroke="#D4B8EC" stroke-width="7" stroke-linecap="round"/>
</g>
<g style="mix-blend-mode:luminosity">
<path d="M17.9345 65.44C17.9136 65.6497 17.5556 65.2453 17.5162 65.2078C16.8873 64.6089 16.3036 63.9401 15.6719 63.3457C14.8464 62.569 14.0159 62.1103 13.0891 61.5884C12.36 61.1777 11.7343 60.8561 11.1102 60.1952C10.6336 59.6905 10.2178 59.1421 9.77877 58.5927C9.5939 58.3613 9.42746 58.1189 9.25494 57.8733C9.20908 57.808 8.84848 57.5 9.07306 57.5C9.46576 57.5 9.89084 57.8462 10.2226 58.0645C11.0515 58.6101 11.8416 59.1902 12.6307 59.8219C13.7065 60.683 14.9585 61.3271 16.1993 61.7067C16.7474 61.8744 17.4338 62.0801 18 62.0801" stroke="#D4B8EC" stroke-width="7" stroke-linecap="round"/>
</g>
<path d="M6.5 10L70 11L55 16L3.5 11L6.5 10Z" fill="#FFF9EF"/>
<path d="M63.5 52.5L0 53.5L15 58.5L66.5 53.5L63.5 52.5Z" fill="#FFF9EF"/>
<g style="mix-blend-mode:luminosity">
<path d="M19 19.4666C25.1523 19.4666 31.4275 22.5617 36.628 25.8283C37.8514 26.5968 39.1281 27.2067 40.2858 28.0927C40.7354 28.4367 41.1463 28.5887 41.6911 28.5887C43.01 28.5887 43.8162 28.4032 45.0803 29.365C45.5393 29.7143 46.0664 29.9599 46.5063 30.3355C46.7585 30.5509 47.0286 31.0233 47.3639 31.101C47.7814 31.1979 48.4057 30.6029 48.7072 30.4002C50.1994 29.3967 51.6553 28.3326 53.14 27.3163C56.5446 24.986 60.1329 21.9059 64.1032 20.6311C64.8588 20.3885 65.5826 19.9081 66.2421 19.4666C67.0238 18.9434 67.9631 18.6509 68.6601 18.0002C69.127 17.5642 69.1942 17.5841 68.3397 17.8492C65.8057 18.6354 63.5614 20.5213 61.2203 21.7525C58.7864 23.0326 56.3001 24.2323 53.853 25.4941C51.2427 26.84 48.9558 27.9162 45.9896 27.8016C44.3377 27.7377 42.57 27.1959 41.6911 25.6343C41.2927 24.9264 40.3642 23.7365 41.5774 23.7365C44.4448 23.7365 47.7043 24.2173 50.5154 23.6071C51.2094 23.4565 52.0838 23.1828 52.551 22.5828C52.6765 22.4215 53.0104 22.0497 52.6337 22.0005C50.5039 21.7227 48.1578 21.997 46.0309 22.1407C45.9121 22.1487 44.5223 22.1014 44.5223 22.4642C44.5223 22.6888 46.4695 22.5645 46.5786 22.5612C50.5334 22.4433 53.9778 20.9471 57.6865 19.7038C59.6208 19.0554 61.7929 18.632 63.6382 17.7198C64.5576 17.2654 65.5969 16.0848 66.6141 15.973C66.7983 15.9528 69.2031 15.2352 68.5361 15.6064C66.1664 16.9252 63.9536 18.7645 61.7783 20.3939C58.9651 22.5011 56.1568 24.6384 53.326 26.7125C51.8544 27.7907 50.3524 28.8154 48.9448 29.9904C48.3089 30.5213 47.4896 31.2298 46.7129 31.5" stroke="#EBE0FF" stroke-width="7" stroke-linecap="round"/>
</g>
<path d="M56.8274 82.9609C67.881 82.9609 101.04 83.3028 89.9867 83.3028C87.8139 83.3028 85.8775 83.9766 83.8334 84.6702C79.4014 86.1739 75.3534 86.7213 70.6912 86.7213C68.1974 86.7213 65.7111 86.9763 63.3225 86.2085C61.7458 85.7017 60.051 84.6702 58.3657 84.6702C56.4315 84.6702 55.6527 84.1147 58.3277 84.3473C61.2108 84.598 64.3075 84.934 67.1588 85.4298C68.617 85.6835 80.9467 86.5742 80.9467 85.9616C80.9467 85.1568 76.6464 84.7403 75.9709 84.5942C74.6499 84.3086 73.3901 84.3283 72.0396 84.3283C70.293 84.3283 68.6362 83.8136 66.9119 83.6636C66.0659 83.5901 65.1976 83.6446 64.348 83.6446C64.1115 83.6446 66.1169 83.6446 66.551 83.6446C69.0073 83.6446 71.4635 83.6446 73.9198 83.6446C76.1988 83.6446 78.4778 83.6446 80.7567 83.6446C81.9514 83.6446 85.72 83.6446 82.466 83.6446" stroke="#ECE6DC" stroke-width="2" stroke-linecap="round"/>
<path d="M70.1594 52.8784C72.9575 52.8784 75.7556 52.8784 78.5537 52.8784C79.4576 52.8784 83.5808 53.5201 84.2132 52.6505C85.5877 50.7607 87.2708 49.1597 88.9611 47.5608C90.0228 46.5565 89.4737 46.9751 88.2014 47.3329C83.9065 48.5408 79.3962 49.1299 75.0972 50.3336C72.9183 50.9437 70.5248 50.665 68.4502 51.587C64.3839 53.3943 77.4726 52.0115 81.7823 50.9033C83.3683 50.4955 87.9969 49.1181 86.3593 49.1181C83.2924 49.1181 80.701 49.3045 77.6801 50.1437" stroke="#ECE6DC" stroke-width="2" stroke-linecap="round"/>
</svg>
