<svg width="100" height="133" viewBox="0 0 100 133" fill="none" xmlns="http://www.w3.org/2000/svg">
<rect x="18" y="7.5" width="82" height="125" fill="#FFF9EF"/>
<g style="mix-blend-mode:luminosity">
<path d="M6 1.5L18 8V132.5L6 117V1.5Z" fill="#EBE0FF"/>
</g>
<path d="M83 0L6 1.5L18 8L100 7.5L83 0Z" fill="#FDF3E3"/>
<path d="M52.4798 3.15348C51.5951 3.15348 50.2028 3.17112 49.513 3.1267C48.63 3.06984 48.4403 2.95119 48.599 2.87481C48.8447 2.75654 50.8761 2.65919 52.5547 2.63978C54.1892 2.62087 56.4194 2.60588 57.5893 2.70126C58.907 2.8087 59.6041 2.95423 58.818 3.091C58.0528 3.22412 56.561 3.34303 54.3977 3.37661C52.04 3.41322 50.0033 3.39452 48.599 3.24769C47.6008 3.14333 47.033 2.99582 47.2355 2.87184C47.4335 2.7506 48.9398 2.67396 50.5844 2.64027C52.0718 2.6098 54.0451 2.56784 55.5065 2.62788C58.4545 2.74898 58.1443 3.05035 56.6603 3.2229C55.7289 3.33119 53.5852 3.37549 51.8055 3.37661C50.913 3.37718 49.8818 3.38518 49.0635 3.35678C48.1638 3.32555 47.5129 3.27384 46.9208 3.22092C44.708 3.02311 44.9861 2.6997 48.2469 2.55102C51.8788 2.38543 56.7024 2.43151 59.4922 2.65813C61.5721 2.82706 61.2336 3.12341 59.4922 3.29629C58.5851 3.38635 57.0474 3.45624 55.4391 3.47876C53.7078 3.503 51.3313 3.51546 49.7078 3.46587C48.1423 3.41805 46.7881 3.32451 45.9469 3.22488C45.1225 3.12724 44.928 3.0484 44.928 2.93927C44.928 2.83709 45.2918 2.75454 46.4114 2.68044C47.2883 2.6224 48.2695 2.56938 49.513 2.5535C50.6804 2.53859 51.9552 2.516 53.1541 2.53069C54.4342 2.54638 54.8321 2.6538 54.7648 2.72507C54.6807 2.81419 53.3294 2.85002 52.1652 2.85002C51.6984 2.85002 51.3891 2.80144 51.8205 2.78308C52.989 2.73336 53.4627 2.86107 53.5437 2.91597C53.5773 2.93879 53.7103 2.98654 53.229 2.99233C52.7801 2.99773 53.1874 3.03681 53.2889 3.0553" stroke="#AA3100" stroke-width="3" stroke-linecap="round"/>
<g style="mix-blend-mode:luminosity">
<path d="M19.3916 21.4531C23.1504 21.4531 27.2145 21.821 30.9274 21.1808C35.4914 20.3939 40.1707 19.7667 44.8026 19.638C48.6588 19.5309 29.2165 22.5824 33 22.0004C18.7176 24.9853 40.6983 20.2234 40 20.2234C39.1541 20.2234 39.3364 20.9534 38.5 21.071C35.4605 21.4984 48.0758 19.3884 45.1253 20.2229C41.1832 21.3378 37.2673 22.6387 33.3676 23.7219C30.5857 24.4947 27.6482 24.7664 24.8771 25.5874C24.0633 25.8285 23.1542 26.1215 22.3764 26.3437C22.0237 26.4445 20.6622 26.7256 20.6622 26.626C20.6622 25.8457 20.2804 23.096 21.0252 22.7236" stroke="#EBE0FF" stroke-width="7" stroke-linecap="round"/>
</g>
<g style="mix-blend-mode:luminosity">
<path d="M18 87.9491C21.7588 87.9491 25.8229 88.3169 29.5358 87.6768C34.0998 86.8899 38.7791 86.2626 43.411 86.134C47.2672 86.0269 33.2165 89.3184 37 88.7363C37.1779 88.7089 39.6983 87.6777 39 87.6777C38.1541 87.6777 50.3364 85.8824 49.5 86C46.4605 86.4274 46.6842 85.8843 43.7337 86.7188C39.7916 87.8338 35.8757 89.1346 31.976 90.2179C29.1941 90.9907 26.2566 91.2623 23.4855 92.0834C22.6717 92.3245 21.7626 92.6174 20.9848 92.8397C20.6321 92.9404 19.2705 93.2216 19.2705 93.122C19.2705 92.3417 18.8888 89.592 19.6336 89.2196" stroke="#EBE0FF" stroke-width="7" stroke-linecap="round"/>
</g>
<g style="mix-blend-mode:luminosity">
<path d="M18.724 27.5C17.7434 26.8637 16.553 26.3088 15.6957 25.4258C15.3984 25.1196 15.1316 24.8078 14.7911 24.5597C14.1616 24.1013 13.6532 23.4921 13.0623 22.9786C12.072 22.118 11.4887 20.8198 10.4595 19.985C10.2926 19.8496 10.1608 19.6602 10.0033 19.5142C9.97718 19.49 10.1129 19.5053 10.1183 19.5053C10.3366 19.5053 10.5675 19.4797 10.7815 19.5409C12.1681 19.9373 13.3616 20.9586 14.5496 21.8238C15.7987 22.7335 17.4627 23.9024 19 23.9024" stroke="#D4B8EC" stroke-width="7" stroke-linecap="round"/>
</g>
<g style="mix-blend-mode:luminosity">
<path d="M17.1685 49.5C16.6453 48.1535 15.8168 46.9468 15.0592 45.8568C14.7345 45.3896 14.4146 44.9235 14.0438 44.527C13.4305 43.871 12.7539 43.1434 12.0847 42.615C11.6332 42.2586 13.1107 42.8291 13.6148 42.9964C14.4879 43.2862 15.3831 43.4835 16.264 43.719C17.5037 44.0505 18.7694 44.3288 20 44.7126" stroke="#D4B8EC" stroke-width="7" stroke-linecap="round"/>
</g>
<g style="mix-blend-mode:luminosity">
<path d="M18.9345 94.44C18.9136 94.6497 18.5556 94.2453 18.5162 94.2078C17.8873 93.6089 17.3036 92.9401 16.6719 92.3457C15.8464 91.569 15.0159 91.1103 14.0891 90.5884C13.36 90.1777 12.7343 89.8561 12.1102 89.1952C11.6336 88.6905 11.2178 88.1421 10.7788 87.5927C10.5939 87.3613 10.4275 87.1189 10.2549 86.8733C10.2091 86.808 9.84848 86.5 10.0731 86.5C10.4658 86.5 10.8908 86.8462 11.2226 87.0645C12.0515 87.6101 12.8416 88.1902 13.6307 88.8219C14.7065 89.683 15.9585 90.3271 17.1993 90.7067C17.7474 90.8744 18.4338 91.0801 19 91.0801" stroke="#D4B8EC" stroke-width="7" stroke-linecap="round"/>
</g>
<path d="M7.5 39L71 40L56 45L4.5 40L7.5 39Z" fill="#FFF9EF"/>
<path d="M64.5 81.5L1 82.5L16 87.5L67.5 82.5L64.5 81.5Z" fill="#FFF9EF"/>
<path d="M63.5 14.5L0 15.5L15 20.5L66.5 15.5L63.5 14.5Z" fill="#FFF9EF"/>
<g style="mix-blend-mode:luminosity">
<path d="M20 48.4666C26.1523 48.4666 32.4275 51.5617 37.628 54.8283C38.8514 55.5968 40.1281 56.2067 41.2858 57.0927C41.7354 57.4367 42.1463 57.5887 42.6911 57.5887C44.01 57.5887 44.8162 57.4032 46.0803 58.365C46.5393 58.7143 47.0664 58.9599 47.5063 59.3355C47.7585 59.5509 48.0286 60.0233 48.3639 60.101C48.7814 60.1979 49.4057 59.6029 49.7072 59.4002C51.1994 58.3967 52.6553 57.3326 54.14 56.3163C57.5446 53.986 61.1329 50.9059 65.1032 49.6311C65.8588 49.3885 66.5826 48.9081 67.2421 48.4666C68.0238 47.9434 68.9631 47.6509 69.6601 47.0002C70.127 46.5642 70.1942 46.5841 69.3397 46.8492C66.8057 47.6354 64.5614 49.5213 62.2203 50.7525C59.7864 52.0326 57.3001 53.2323 54.853 54.4941C52.2427 55.84 49.9558 56.9162 46.9896 56.8016C45.3377 56.7377 43.57 56.1959 42.6911 54.6343C42.2927 53.9264 41.3642 52.7365 42.5774 52.7365C45.4448 52.7365 48.7043 53.2173 51.5154 52.6071C52.2094 52.4565 53.0838 52.1828 53.551 51.5828C53.6765 51.4215 54.0104 51.0497 53.6337 51.0005C51.5039 50.7227 49.1578 50.997 47.0309 51.1407C46.9121 51.1487 45.5223 51.1014 45.5223 51.4642C45.5223 51.6888 47.4695 51.5645 47.5786 51.5612C51.5334 51.4433 54.9778 49.9471 58.6865 48.7038C60.6208 48.0554 62.7929 47.632 64.6382 46.7198C65.5576 46.2654 66.5969 45.0848 67.6141 44.973C67.7983 44.9528 70.2031 44.2352 69.5361 44.6064C67.1664 45.9252 64.9536 47.7645 62.7783 49.3939C59.9651 51.5011 57.1568 53.6384 54.326 55.7125C52.8544 56.7907 51.3524 57.8154 49.9448 58.9904C49.3089 59.5213 48.4896 60.2298 47.7129 60.5" stroke="#EBE0FF" stroke-width="7" stroke-linecap="round"/>
</g>
<path d="M57.8274 111.961C68.881 111.961 102.04 112.303 90.9867 112.303C88.8139 112.303 86.8775 112.977 84.8334 113.67C80.4014 115.174 76.3534 115.721 71.6912 115.721C69.1974 115.721 66.7111 115.976 64.3225 115.208C62.7458 114.702 61.051 113.67 59.3657 113.67C57.4315 113.67 56.6527 113.115 59.3277 113.347C62.2108 113.598 65.3075 113.934 68.1588 114.43C69.617 114.683 81.9467 115.574 81.9467 114.962C81.9467 114.157 77.6464 113.74 76.9709 113.594C75.6499 113.309 74.3901 113.328 73.0396 113.328C71.293 113.328 69.6362 112.814 67.9119 112.664C67.0659 112.59 66.1976 112.645 65.348 112.645C65.1115 112.645 67.1169 112.645 67.551 112.645C70.0073 112.645 72.4635 112.645 74.9198 112.645C77.1988 112.645 79.4778 112.645 81.7567 112.645C82.9514 112.645 86.72 112.645 83.466 112.645" stroke="#ECE6DC" stroke-width="2" stroke-linecap="round"/>
<path d="M71.1594 81.8784C73.9575 81.8784 76.7556 81.8784 79.5537 81.8784C80.4576 81.8784 84.5808 82.5201 85.2132 81.6505C86.5877 79.7607 88.2708 78.1597 89.9611 76.5608C91.0228 75.5565 90.4737 75.9751 89.2014 76.3329C84.9065 77.5408 80.3962 78.1299 76.0972 79.3336C73.9183 79.9437 71.5248 79.665 69.4502 80.587C65.3839 82.3943 78.4726 81.0115 82.7823 79.9033C84.3683 79.4955 88.9969 78.1181 87.3593 78.1181C84.2924 78.1181 81.701 78.3045 78.6801 79.1437" stroke="#ECE6DC" stroke-width="2" stroke-linecap="round"/>
</svg>
