<svg width="96" height="135" viewBox="0 0 96 135" fill="none" xmlns="http://www.w3.org/2000/svg">
<g style="mix-blend-mode:luminosity">
<path d="M1 90L13 92.2328V135L1 129.676V90Z" fill="#EBE0FF"/>
</g>
<rect x="13" y="93" width="82" height="42" fill="#FFF9EF"/>
<path d="M79 89L2 90.5L14 97L96 96.5L79 89Z" fill="#FDF3E3"/>
<path d="M48.4798 92.1535C47.5951 92.1535 46.2028 92.1711 45.513 92.1267C44.63 92.0698 44.4403 91.9512 44.599 91.8748C44.8447 91.7565 46.8761 91.6592 48.5547 91.6398C50.1892 91.6209 52.4194 91.6059 53.5893 91.7013C54.907 91.8087 55.6041 91.9542 54.818 92.091C54.0528 92.2241 52.561 92.343 50.3977 92.3766C48.04 92.4132 46.0033 92.3945 44.599 92.2477C43.6008 92.1433 43.033 91.9958 43.2355 91.8718C43.4335 91.7506 44.9398 91.674 46.5844 91.6403C48.0718 91.6098 50.0451 91.5678 51.5065 91.6279C54.4545 91.749 54.1443 92.0504 52.6603 92.2229C51.7289 92.3312 49.5852 92.3755 47.8055 92.3766C46.913 92.3772 45.8818 92.3852 45.0635 92.3568C44.1638 92.3256 43.5129 92.2738 42.9208 92.2209C40.708 92.0231 40.9861 91.6997 44.2469 91.551C47.8788 91.3854 52.7024 91.4315 55.4922 91.6581C57.5721 91.8271 57.2336 92.1234 55.4922 92.2963C54.5851 92.3863 53.0474 92.4562 51.4391 92.4788C49.7078 92.503 47.3313 92.5155 45.7078 92.4659C44.1423 92.418 42.7881 92.3245 41.9469 92.2249C41.1225 92.1272 40.928 92.0484 40.928 91.9393C40.928 91.8371 41.2918 91.7545 42.4114 91.6804C43.2883 91.6224 44.2695 91.5694 45.513 91.5535C46.6804 91.5386 47.9552 91.516 49.1541 91.5307C50.4342 91.5464 50.8321 91.6538 50.7648 91.7251C50.6807 91.8142 49.3294 91.85 48.1652 91.85C47.6984 91.85 47.3891 91.8014 47.8205 91.7831C48.989 91.7334 49.4627 91.8611 49.5437 91.916C49.5773 91.9388 49.7103 91.9865 49.229 91.9923C48.7801 91.9977 49.1874 92.0368 49.2889 92.0553" stroke="#AA3100" stroke-width="3" stroke-linecap="round"/>
<path d="M52.8274 113.961C63.881 113.961 97.0403 114.303 85.9867 114.303C83.8139 114.303 81.8775 114.977 79.8334 115.67C75.4014 117.174 71.3534 117.721 66.6912 117.721C64.1974 117.721 61.7111 117.976 59.3225 117.208C57.7458 116.702 56.051 115.67 54.3657 115.67C52.4315 115.67 51.6527 115.115 54.3277 115.347C57.2108 115.598 60.3075 115.934 63.1588 116.43C64.617 116.683 76.9467 117.574 76.9467 116.962C76.9467 116.157 72.6464 115.74 71.9709 115.594C70.6499 115.309 69.3901 115.328 68.0396 115.328C66.293 115.328 64.6362 114.814 62.9119 114.664C62.0659 114.59 61.1976 114.645 60.348 114.645C60.1115 114.645 62.1169 114.645 62.551 114.645C65.0073 114.645 67.4635 114.645 69.9198 114.645C72.1988 114.645 74.4778 114.645 76.7567 114.645C77.9514 114.645 81.72 114.645 78.466 114.645" stroke="#ECE6DC" stroke-width="2" stroke-linecap="round"/>
</svg>
