<svg width="97" height="135" viewBox="0 0 97 135" fill="none" xmlns="http://www.w3.org/2000/svg">
<path d="M77 127L0 128.5L12 135L94 134.5L77 127Z" fill="#FDF3E3"/>
<path d="M46.4798 130.153C45.5951 130.153 44.2028 130.171 43.513 130.127C42.63 130.07 42.4403 129.951 42.599 129.875C42.8447 129.757 44.8761 129.659 46.5547 129.64C48.1892 129.621 50.4194 129.606 51.5893 129.701C52.907 129.809 53.6041 129.954 52.818 130.091C52.0528 130.224 50.561 130.343 48.3977 130.377C46.04 130.413 44.0033 130.395 42.599 130.248C41.6008 130.143 41.033 129.996 41.2355 129.872C41.4335 129.751 42.9398 129.674 44.5844 129.64C46.0718 129.61 48.0451 129.568 49.5065 129.628C52.4545 129.749 52.1443 130.05 50.6603 130.223C49.7289 130.331 47.5852 130.375 45.8055 130.377C44.913 130.377 43.8818 130.385 43.0635 130.357C42.1638 130.326 41.5129 130.274 40.9208 130.221C38.708 130.023 38.9861 129.7 42.2469 129.551C45.8788 129.385 50.7024 129.432 53.4922 129.658C55.5721 129.827 55.2336 130.123 53.4922 130.296C52.5851 130.386 51.0474 130.456 49.4391 130.479C47.7078 130.503 45.3313 130.515 43.7078 130.466C42.1423 130.418 40.7881 130.325 39.9469 130.225C39.1225 130.127 38.928 130.048 38.928 129.939C38.928 129.837 39.2918 129.755 40.4114 129.68C41.2883 129.622 42.2695 129.569 43.513 129.554C44.6804 129.539 45.9552 129.516 47.1541 129.531C48.4342 129.546 48.8321 129.654 48.7648 129.725C48.6807 129.814 47.3294 129.85 46.1652 129.85C45.6984 129.85 45.3891 129.801 45.8205 129.783C46.989 129.733 47.4627 129.861 47.5437 129.916C47.5773 129.939 47.7103 129.987 47.229 129.992C46.7801 129.998 47.1874 130.037 47.2889 130.055" stroke="#AA3100" stroke-width="3" stroke-linecap="round"/>
</svg>
