<svg width="100" height="135" viewBox="0 0 100 135" fill="none" xmlns="http://www.w3.org/2000/svg">
<rect x="17" y="68" width="82" height="67" fill="#FFF9EF"/>
<g style="mix-blend-mode:luminosity">
<path d="M5 65L17 68.4733V135L5 126.718V65Z" fill="#EBE0FF"/>
</g>
<path d="M82 63L5 64.5L17 71L99 70.5L82 63Z" fill="#FDF3E3"/>
<path d="M51.4798 66.1535C50.5951 66.1535 49.2028 66.1711 48.513 66.1267C47.63 66.0698 47.4403 65.9512 47.599 65.8748C47.8447 65.7565 49.8761 65.6592 51.5547 65.6398C53.1892 65.6209 55.4194 65.6059 56.5893 65.7013C57.907 65.8087 58.6041 65.9542 57.818 66.091C57.0528 66.2241 55.561 66.343 53.3977 66.3766C51.04 66.4132 49.0033 66.3945 47.599 66.2477C46.6008 66.1433 46.033 65.9958 46.2355 65.8718C46.4335 65.7506 47.9398 65.674 49.5844 65.6403C51.0718 65.6098 53.0451 65.5678 54.5065 65.6279C57.4545 65.749 57.1443 66.0504 55.6603 66.2229C54.7289 66.3312 52.5852 66.3755 50.8055 66.3766C49.913 66.3772 48.8818 66.3852 48.0635 66.3568C47.1638 66.3256 46.5129 66.2738 45.9208 66.2209C43.708 66.0231 43.9861 65.6997 47.2469 65.551C50.8788 65.3854 55.7024 65.4315 58.4922 65.6581C60.5721 65.8271 60.2336 66.1234 58.4922 66.2963C57.5851 66.3863 56.0474 66.4562 54.4391 66.4788C52.7078 66.503 50.3313 66.5155 48.7078 66.4659C47.1423 66.418 45.7881 66.3245 44.9469 66.2249C44.1225 66.1272 43.928 66.0484 43.928 65.9393C43.928 65.8371 44.2918 65.7545 45.4114 65.6804C46.2883 65.6224 47.2695 65.5694 48.513 65.5535C49.6804 65.5386 50.9552 65.516 52.1541 65.5307C53.4342 65.5464 53.8321 65.6538 53.7648 65.7251C53.6807 65.8142 52.3294 65.85 51.1652 65.85C50.6984 65.85 50.3891 65.8014 50.8205 65.7831C51.989 65.7334 52.4627 65.8611 52.5437 65.916C52.5773 65.9388 52.7103 65.9865 52.229 65.9923C51.7801 65.9977 52.1874 66.0368 52.2889 66.0553" stroke="#AA3100" stroke-width="3" stroke-linecap="round"/>
<g style="mix-blend-mode:luminosity">
<path d="M17 89.9491C20.7588 89.9491 24.8229 90.3169 28.5358 89.6768C33.0998 88.8899 37.7791 88.2626 42.411 88.134C46.2672 88.0269 32.2165 91.3184 36 90.7363C36.1779 90.7089 38.6983 89.6777 38 89.6777C37.1541 89.6777 49.3364 87.8824 48.5 88C45.4605 88.4274 45.6842 87.8843 42.7337 88.7188C38.7916 89.8338 34.8757 91.1346 30.976 92.2179C28.1941 92.9907 25.2566 93.2623 22.4855 94.0834C21.6717 94.3245 20.7626 94.6174 19.9848 94.8397C19.6321 94.9404 18.2705 95.2216 18.2705 95.122C18.2705 94.3417 17.8888 91.592 18.6336 91.2196" stroke="#EBE0FF" stroke-width="7" stroke-linecap="round"/>
</g>
<g style="mix-blend-mode:luminosity">
<path d="M17.9345 96.44C17.9136 96.6497 17.5556 96.2453 17.5162 96.2078C16.8873 95.6089 16.3036 94.9401 15.6719 94.3457C14.8464 93.569 14.0159 93.1103 13.0891 92.5884C12.36 92.1777 11.7343 91.8561 11.1102 91.1952C10.6336 90.6905 10.2178 90.1421 9.77877 89.5927C9.5939 89.3613 9.42746 89.1189 9.25494 88.8733C9.20908 88.808 8.84848 88.5 9.07306 88.5C9.46576 88.5 9.89084 88.8462 10.2226 89.0645C11.0515 89.6101 11.8416 90.1902 12.6307 90.8219C13.7065 91.683 14.9585 92.3271 16.1993 92.7067C16.7474 92.8744 17.4338 93.0801 18 93.0801" stroke="#D4B8EC" stroke-width="7" stroke-linecap="round"/>
</g>
<path d="M63.5 83.5L0 84.5L15 89.5L66.5 84.5L63.5 83.5Z" fill="#FFF9EF"/>
<path d="M56.8274 113.961C67.881 113.961 101.04 114.303 89.9867 114.303C87.8139 114.303 85.8775 114.977 83.8334 115.67C79.4014 117.174 75.3534 117.721 70.6912 117.721C68.1974 117.721 65.7111 117.976 63.3225 117.208C61.7458 116.702 60.051 115.67 58.3657 115.67C56.4315 115.67 55.6527 115.115 58.3277 115.347C61.2108 115.598 64.3075 115.934 67.1588 116.43C68.617 116.683 80.9467 117.574 80.9467 116.962C80.9467 116.157 76.6464 115.74 75.9709 115.594C74.6499 115.309 73.3901 115.328 72.0396 115.328C70.293 115.328 68.6362 114.814 66.9119 114.664C66.0659 114.59 65.1976 114.645 64.348 114.645C64.1115 114.645 66.1169 114.645 66.551 114.645C69.0073 114.645 71.4635 114.645 73.9198 114.645C76.1988 114.645 78.4778 114.645 80.7567 114.645C81.9514 114.645 85.72 114.645 82.466 114.645" stroke="#ECE6DC" stroke-width="2" stroke-linecap="round"/>
<path d="M70.1594 83.8784C72.9575 83.8784 75.7556 83.8784 78.5537 83.8784C79.4576 83.8784 83.5808 84.5201 84.2132 83.6505C85.5877 81.7607 87.2708 80.1597 88.9611 78.5608C90.0228 77.5565 89.4737 77.9751 88.2014 78.3329C83.9065 79.5408 79.3962 80.1299 75.0972 81.3336C72.9183 81.9437 70.5248 81.665 68.4502 82.587C64.3839 84.3943 77.4726 83.0115 81.7823 81.9033C83.3683 81.4955 87.9969 80.1181 86.3593 80.1181C83.2924 80.1181 80.701 80.3045 77.6801 81.1437" stroke="#ECE6DC" stroke-width="2" stroke-linecap="round"/>
</svg>
